<svg width="80" height="61" viewBox="0 0 80 61" xmlns="http://www.w3.org/2000/svg">
  <g fill="none" fill-rule="evenodd">
    <g fill="#BAAF91" fill-rule="nonzero">
      <g>
        <path d="M62.443 60.61c5.801 0 10.178-1.628 13.13-4.885C78.524 52.468 80 48.397 80 43.511c0-4.885-1.476-8.956-4.427-12.213-2.952-3.257-7.329-4.886-13.13-4.886-3.563 0-6.667.662-9.313 1.985 3.46-9.262 10.025-17.914 19.694-25.954L69.618 0c-3.562 2.646-7.226 6.107-10.992 10.382-3.766 4.274-6.972 9.21-9.618 14.809-2.647 5.598-4.02 11.603-4.123 18.015v.305c0 4.886 1.476 8.957 4.428 12.214 2.952 3.257 7.328 4.886 13.13 4.886zm-44.886 0c5.802 0 10.178-1.628 13.13-4.885 2.952-3.257 4.428-7.328 4.428-12.214 0-4.885-1.476-8.956-4.428-12.213-2.952-3.257-7.328-4.886-13.13-4.886-3.562 0-6.666.662-9.313 1.985 3.46-9.262 10.026-17.914 19.695-25.954L24.733 0C21.17 2.646 17.506 6.107 13.74 10.382c-3.765 4.274-6.972 9.21-9.618 14.809C1.476 30.789.102 36.794 0 43.206v.305c0 4.886 1.476 8.957 4.427 12.214 2.952 3.257 7.329 4.886 13.13 4.886zm44.886-5.037c-4.682 0-8.143-1.171-10.382-3.512-2.24-2.34-3.359-5.19-3.359-8.55 0-3.46 1.12-6.335 3.36-8.626 2.238-2.29 5.699-3.435 10.38-3.435 4.683 0 8.143 1.145 10.382 3.435 2.24 2.29 3.36 5.166 3.36 8.626 0 3.36-1.12 6.21-3.36 8.55-2.239 2.341-5.7 3.512-10.381 3.512zm-44.886 0c-4.682 0-8.142-1.171-10.381-3.512-2.24-2.34-3.36-5.19-3.36-8.55 0-3.46 1.12-6.335 3.36-8.626 2.239-2.29 5.7-3.435 10.381-3.435 4.682 0 8.143 1.145 10.382 3.435 2.24 2.29 3.359 5.166 3.359 8.626 0 3.36-1.12 6.21-3.36 8.55-2.238 2.341-5.699 3.512-10.38 3.512z"/>
      </g>
    </g>
  </g>
</svg>