<svg xmlns="http://www.w3.org/2000/svg" width="1000" height="452" viewBox="0 0 1000 452">
  <defs>
    <linearGradient id="img-retirement-grad-a" x1="26.74%" x2="75.412%" y1="93.581%" y2="93.581%">
      <stop offset="0%" stop-color="#A2BB68"/>
      <stop offset="100%" stop-color="#D7478C"/>
    </linearGradient>
  </defs>
  <path fill="url(#img-retirement-grad-a)" fill-rule="evenodd" d="M585.857438,35.9852789 C591.280992,36.3267045 597.197831,36.6141529 603.502066,36.7970041 C629.860537,37.5612087 668.202479,36.5880682 705.307335,28.1027893 L706.21126,5.14643595 C701.895661,8.59839876 692.311467,15.1095041 675.291839,21.3132748 C661.180269,26.456095 644.832128,30.3228306 626.696798,32.8060434 C613.954029,34.5511364 600.294421,35.612345 585.857438,35.9852789 Z M696.492769,330.909091 C707.068698,360.829029 715.945248,382.174587 717.931302,386.885331 L822.926136,383.414256 C804.01343,359.008264 786.495351,325.697314 770.831612,284.338843 C757.905475,250.201446 746.198347,210.524277 736.038223,166.409349 C720.366736,98.3638946 713.225723,40.4209711 711.97314,29.6893079 C710.76188,29.9943182 709.540289,30.2931302 708.31095,30.5852273 L696.492769,330.909091 Z M679.416322,389.622934 L691.082128,389.622934 L693.372934,331.379132 C683.995351,304.801136 673.316116,271.567665 664.914773,237.221074 C653.620868,191.067924 648.582128,151.947572 649.935434,120.946539 C651.353306,88.4225207 659.852789,64.7319215 675.247934,50.2923554 C664.178719,55.3083678 646.373967,64.2665289 627.270145,77.4266529 C608.871384,90.1002066 592.887397,104.134814 579.757231,119.141271 C563.378099,137.862087 551.423037,158.1578 544.225207,179.46436 C525.772211,234.077996 538.050103,295.694731 580.725723,362.616219 C584.214876,362.797004 599.11157,363.362603 617.376033,361.221591 C629.573864,359.790806 640.862603,357.448347 650.934917,354.261364 C663.465909,350.297004 674.124483,345.005165 682.613636,338.538223 C683.106921,338.161157 683.778409,338.117252 684.318182,338.424587 C684.857955,338.729339 685.162707,339.331095 685.092975,339.945764 L679.416322,389.622934 Z M698.205062,410.364153 L815.472624,410.364153 L807.530992,403.416839 L707.507748,403.543388 L698.205062,410.364153 Z M435.792872,440.033574 C439.522211,440.692149 443.393595,441.340393 447.507748,441.944731 C466.451446,444.731405 475.118802,441.936983 488.241219,437.711777 C492.91064,436.208678 498.277376,434.478306 504.909607,432.771178 C502.066116,432.05062 499.436983,431.358471 497.01188,430.72314 C495.557851,430.343492 494.183884,429.981921 492.887397,429.64876 C481.831095,426.797521 457.471591,433.527893 435.792872,440.033574 Z M337.815083,444.752066 C358.644112,448.179236 384.121901,450.75155 400.940083,446.846591 C406.91374,445.459711 414.46281,443.238636 422.590393,440.787707 C405.129132,437.647211 390.643079,435.733471 373.824897,441.340393 C365,444.282025 352.915806,445.423554 337.815083,444.752066 Z M380.069731,451.934401 C368.587293,451.934401 354.839876,450.653409 338.933368,448.096591 C318.468492,444.808884 301.867252,440.511364 301.701963,440.467459 C300.88843,440.258264 300.392562,439.436983 300.581095,438.620868 C300.769628,437.802169 301.575413,437.283058 302.396694,437.45093 C302.853822,437.541322 348.372934,446.557335 372.843492,438.401343 C391.988636,432.019628 407.931302,434.943182 428.117252,438.644112 C428.4375,438.703512 428.760331,438.760331 429.083161,438.819731 C453.53564,431.410124 480.76188,423.321281 493.659607,426.647727 C494.96126,426.980888 496.340393,427.345041 497.799587,427.727273 C501.782025,428.770661 506.324897,429.963843 511.456612,431.195764 C513.861054,430.655992 516.417872,430.129132 519.139979,429.617769 C529.790806,427.623967 547.184917,425.83936 569.555785,428.667355 C578.308368,429.772727 585.056818,431.226756 588.780992,432.133264 C585.030992,423.354855 582.084194,411.051136 581.944731,410.470041 C581.83626,410.007748 581.942149,409.522211 582.23657,409.15031 C582.530992,408.778409 582.980372,408.561467 583.452996,408.561467 L618.30062,408.561467 L632.430269,402.378616 C632.616219,402.298554 632.817665,402.254649 633.019112,402.249483 L674.953512,401.37655 L675.942665,392.722107 L395.795455,392.722107 L382.729855,411.885331 C382.440599,412.308884 381.96281,412.561983 381.448864,412.561983 L331.851756,412.561983 C331.216426,412.561983 330.648244,412.177169 330.413223,411.588326 L325.002583,398.060434 C324.801136,397.561983 324.876033,396.993802 325.196281,396.5625 C325.516529,396.131198 326.038223,395.89876 326.575413,395.942665 L365.960744,399.367252 L354.142562,345.139463 L354.142562,386.663223 C354.142562,387.215909 353.84814,387.72469 353.372934,388.003616 C352.897727,388.279959 352.308884,388.285124 351.831095,388.013946 C341.438533,382.13843 335.188533,374.02376 333.254132,363.894628 C331.900826,356.807851 332.073864,344.826963 340.581095,328.001033 C343.871384,321.492769 347.368285,316.296488 349.465393,313.38843 C338.597624,313.75 329.103822,316.996384 321.208678,323.060434 C314.266529,328.393595 308.509814,335.914256 304.096074,345.418388 C297.71436,359.16064 296.009814,373.168905 295.622417,377.368285 L343.956612,389.672004 C344.713326,389.865702 345.209194,390.591426 345.111054,391.366219 C345.015496,392.141012 344.356921,392.722107 343.57438,392.722107 L1.79235537,392.722107 C0.936466942,392.722107 0.242768595,392.029959 0.242768595,391.172521 C0.242768595,390.317665 0.936466942,389.622934 1.79235537,389.622934 L331.206095,389.622934 L293.592459,380.04907 C292.877066,379.868285 292.388946,379.204545 292.427686,378.465909 C292.466426,377.76343 293.434917,361.06405 301.25,344.191632 C305.870351,334.212293 311.936983,326.286157 319.282025,320.632748 C328.494318,313.543388 339.713326,310.04907 352.618802,310.266012 C353.210227,310.276343 353.744835,310.622417 353.995351,311.157025 C354.245868,311.694215 354.170971,312.326963 353.79907,312.786674 C353.742252,312.856405 348.21281,319.759814 343.316116,329.457645 C338.853306,338.30062 334.010847,351.355888 336.29907,363.321281 C337.91064,371.745868 342.864153,378.664773 351.043388,383.923037 L351.043388,330.754132 C351.043388,329.96126 351.639979,329.297521 352.427686,329.212293 C353.21281,329.127066 353.938533,329.64876 354.106405,330.423554 L369.436983,400.764463 C369.542872,401.244835 369.411157,401.745868 369.085744,402.117769 C368.760331,402.487087 368.279959,402.678202 367.789256,402.63688 L328.814566,399.24845 L332.90031,409.46281 L380.630165,409.46281 L393.695764,390.299587 C393.985021,389.876033 394.465393,389.622934 394.976756,389.622934 L676.296488,389.622934 L681.614153,343.096591 C673.34969,348.840393 663.352273,353.587293 651.83626,357.22624 C641.570248,360.472624 630.077479,362.853822 617.67562,364.305269 C596.585744,366.774277 579.907025,365.676653 579.739153,365.666322 C579.251033,365.632748 578.806818,365.369318 578.540806,364.956095 C534.987087,296.934401 522.456095,234.186467 541.293905,178.454545 C548.631198,156.748967 560.80062,136.090909 577.466426,117.054236 C590.774793,101.851498 606.965393,87.6428202 625.58626,74.8233471 C657.270145,53.0095558 685.446798,42.6268079 685.728306,42.5245351 C686.479855,42.2505165 687.319215,42.5952996 687.660124,43.3205062 C688.001033,44.0457128 687.735021,44.9116736 687.042872,45.3171488 C676.154442,51.7027376 667.755682,61.7481921 662.079029,75.1745868 C656.867252,87.4953512 653.824897,102.935692 653.032025,121.06689 C651.68905,151.76937 656.696798,190.590393 667.915806,236.451446 C675.529442,267.572314 685.018079,297.789256 693.706095,322.931302 L705.180785,31.3106921 C689.896694,34.7639463 673.308368,37.2272727 655.736054,38.6487603 C639.036674,39.9997417 621.415289,40.418905 603.360021,39.8930785 C572.618802,38.9989669 550.960744,35.6252583 550.746384,35.5914256 C549.935434,35.4630682 549.364669,34.7228822 549.447314,33.9049587 C549.529959,33.0870351 550.22469,32.4713326 551.058884,32.5129132 C578.419421,33.7376033 603.638946,32.8158574 626.012397,29.771436 C643.899793,27.3378099 660.018079,23.5503616 673.917872,18.5144628 C697.559401,9.95041322 706.691632,0.618543388 706.782025,0.525309917 C707.22624,0.0606921488 707.913223,-0.0808367769 708.507231,0.171229339 C709.098657,0.42303719 709.475723,1.01368802 709.449897,1.65702479 L708.4375,27.3680269 C709.935434,27.0077479 711.433368,26.6340393 712.923554,26.2479339 C713.360021,26.1350723 713.822314,26.2174587 714.194215,26.4733988 C714.563533,26.7295971 714.803719,27.133781 714.852789,27.5813533 C714.919938,28.205062 721.810434,90.8362603 739.065083,165.748192 C749.194215,209.721074 760.860021,249.256198 773.737087,283.256715 C789.806302,325.686983 807.809917,359.545455 827.249483,383.894628 C827.613636,384.351756 827.691116,384.976756 827.443182,385.508781 C827.200413,386.040806 826.673554,386.389463 826.087293,386.410124 L716.970558,390.015496 C716.327479,390.043905 715.748967,389.666839 715.495868,389.080579 C715.335744,388.703512 706.91374,369.010847 696.167355,339.209711 L694.119318,391.234504 C694.085744,392.066116 693.403926,392.722107 692.569731,392.722107 L679.059917,392.722107 L677.877066,403.073347 C677.789256,403.842975 677.146178,404.429236 676.371384,404.447314 L633.391012,405.340909 L619.245868,411.531508 C619.049587,411.616736 618.83781,411.66064 618.62345,411.66064 L585.43905,411.66064 C586.577996,416.092459 589.607438,427.192665 592.94938,433.755165 C593.230888,434.307851 593.155992,434.971591 592.76343,435.446798 C592.368285,435.924587 591.730372,436.120868 591.136364,435.947831 C591.048554,435.922004 582.257231,433.391012 569.103822,431.732955 C556.988636,430.206612 538.589876,429.129649 519.710744,432.665289 C519.364669,432.729855 519.021178,432.794421 518.680269,432.858988 C537.394112,436.983471 562.600723,441.012397 595.018079,441.02531 C597.895145,440.433884 630.206612,434.005682 646.306818,441.159607 C661.149277,447.755682 682.321798,447.649793 695.942665,445.552686 C699.969008,444.932851 704.093492,443.884298 708.081095,442.869318 C715.870351,440.885847 722.595558,439.173554 726.629649,441.190599 C729.070248,442.409607 737.954545,446.136364 749.878616,442.884814 C759.739153,440.196281 780.84969,437.388946 787.479339,438.336777 C788.71126,438.512397 791.83626,438.303202 795.790289,438.039773 C810.844525,437.035124 838.667355,435.178202 856.704545,446.516012 C859.803719,444.444731 871.247417,435.940083 875.451963,420.679236 L827.840909,420.679236 C827.466426,420.679236 827.102273,420.542355 826.820764,420.294421 L819.01343,413.463326 L693.473657,413.463326 C692.802169,413.463326 692.208161,413.034607 691.998967,412.396694 C691.792355,411.761364 692.017045,411.061467 692.556818,410.666322 L706.082128,400.746384 C706.34814,400.550103 706.668388,400.446798 706.996384,400.444215 L808.112087,400.317665 C808.489153,400.317665 808.850723,400.454545 809.132231,400.702479 L820.178202,410.364153 L856.792355,410.364153 L840.22469,392.218492 C839.808884,391.763946 839.702996,391.110537 839.95093,390.547521 C840.198864,389.987087 840.754132,389.622934 841.368802,389.622934 L998.279959,389.622934 C999.137397,389.622934 999.829545,390.317665 999.829545,391.172521 C999.829545,392.029959 999.137397,392.722107 998.279959,392.722107 L844.881198,392.722107 L861.448864,410.870351 C861.864669,411.322314 861.970558,411.978306 861.722624,412.541322 C861.47469,413.101756 860.919421,413.463326 860.304752,413.463326 L823.719008,413.463326 L828.424587,417.580062 L877.440599,417.580062 C877.91064,417.580062 878.357438,417.794421 878.65186,418.16374 C878.946281,418.530475 879.054752,419.01343 878.951446,419.47314 C877.621384,425.320248 874.382748,434.018595 866.497934,442.254649 C861.77686,447.182335 857.647211,449.597107 857.474174,449.697831 C856.965393,449.992252 856.332645,449.971591 855.841942,449.646178 C838.713843,438.279959 810.924587,440.13688 795.996901,441.131198 C791.539256,441.430785 788.595041,441.627066 787.040289,441.404959 C781.28874,440.583678 760.906508,443.088843 750.694731,445.875517 C737.711777,449.416322 727.931302,445.304752 725.245351,443.961777 C722.241736,442.46126 715.733471,444.116736 708.845558,445.872934 C704.78564,446.905992 700.588843,447.975207 696.412707,448.615702 C682.378616,450.774793 660.503616,450.860021 645.04907,443.992769 C629.46281,437.063533 595.834194,444.021178 595.495868,444.093492 C595.389979,444.114153 595.284091,444.124483 595.17562,444.124483 C558.401343,444.124483 530.83936,439.005682 511.42562,434.375 C502.233988,436.459194 495.389979,438.664773 489.191632,440.661157 C476.141529,444.865702 466.712293,447.902893 447.055785,445.010331 C440.653409,444.070248 434.852789,443.02686 429.263946,442.004132 C428.93595,442.104855 428.610537,442.202996 428.285124,442.301136 C418.303202,445.327996 408.873967,448.184401 401.639979,449.865702 C395.702479,451.244835 388.494318,451.934401 380.069731,451.934401 L380.069731,451.934401 Z"/>
</svg>
