<svg xmlns="http://www.w3.org/2000/svg" width="861" height="570" viewBox="0 0 861 570">
  <defs>
    <linearGradient id="img-insurance-grad-a" x1="26.74%" x2="75.412%" y1="93.581%" y2="93.581%">
      <stop offset="0%" stop-color="#A2BB68"/>
      <stop offset="100%" stop-color="#D7478C"/>
    </linearGradient>
  </defs>
  <path fill="url(#img-insurance-grad-a)" fill-rule="evenodd" d="M577.731,324 C573.069546,326.044444 569.24995,329.481978 566.316833,334.287669 C563.669293,338.619648 560.801621,342.917344 557.928,347 C558.725237,346.841057 559.537347,346.719512 560.361356,346.638482 C561.429297,346.53252 562.446666,346.504472 563.410489,346.544986 C568.717467,339.02168 573.643675,331.392412 577.731,324 Z M566.538,346.84345 C568.69322,347.280922 570.537098,348.05728 572.102882,349 C578.066767,340.407691 583.410988,331.368667 588.063,322 C585.865461,322.098585 583.788832,322.397421 581.833113,322.890347 C577.577082,330.706298 572.28727,338.833409 566.538,346.84345 Z M549.318,353 C544.318167,356.572448 541.015606,361.778016 538.986,366 C541.733683,362.699738 545.380446,358.193195 549.318,353 Z M254.300366,101.845724 C254.749768,101.845724 255.182626,102.03536 255.508699,102.386429 C255.973141,102.886926 257.061152,104.058654 256.107902,116.810835 C255.676548,122.579457 254.812636,129.984598 253.934286,132.612809 C249.944713,144.551232 248.724047,153.801732 250.669051,157.358624 C254.047991,163.538026 257.562293,166.236151 262.799003,166.671236 C270.32935,167.297458 271.426986,172.08819 271.956403,177.367417 C272.031604,178.112462 272.076724,178.865608 272.118837,179.59355 C272.386553,184.161939 272.597117,187.770441 279.37124,189.36075 C281.061763,189.757127 282.589851,190.084191 283.937456,190.372847 C289.911439,191.651696 293.51508,192.423746 298.890461,196.444828 C305.742794,201.570126 305.264514,209.409451 305.24045,209.740715 C305.216386,210.064478 305.078016,210.369337 304.846396,210.598882 C304.744122,210.701202 294.607002,220.924491 293.614346,230.336122 C292.982656,236.328588 293.51508,244.370753 293.906126,250.242895 C294.206931,254.803782 294.354326,257.237256 294.122706,258.386479 C293.701579,260.486888 295.034144,270.16077 301.212674,277.260151 C304.256819,280.755832 308.02891,284.533567 311.677672,288.182276 C315.497893,292.00502 319.10755,295.617723 321.321473,298.37826 C323.616613,301.237816 326.561492,308.517233 329.677829,316.222732 C332.418161,322.992049 335.248734,329.992411 337.206973,332.677933 C341.297918,338.289025 342.901207,358.482954 341.183612,369 C350.457423,364.505125 383.20303,348.334979 396.543721,337.688908 C411.586968,325.683573 438.972234,310.512621 449.897463,312.375983 C450.968328,309.567437 453.669555,302.759112 455.49544,300.487671 C455.964695,299.899556 456.803941,299.083397 457.862773,298.054197 C461.764211,294.255458 469.028646,287.189083 467.900628,281.57199 C466.20409,273.101342 460.554976,266.61408 452.406175,263.769527 C435.675414,257.930391 426.296321,253.225475 423.730456,249.387729 C423.059662,248.385534 422.223424,246.933251 421.257841,245.252924 C417.714361,239.104728 411.788507,228.818427 406.019072,227.283928 C404.975279,227.006374 403.790108,226.707216 402.535752,226.390354 C391.213461,223.532899 381.647869,220.781963 379.27452,216.044642 C379.069972,215.639863 378.859409,215.210179 378.636814,214.760692 C376.070949,209.569382 372.196583,201.724055 366.950548,200.415801 C360.60056,198.832093 352.400622,197.316198 348.429999,197.810994 C347.62685,197.911514 347.332061,198.604349 346.808661,200.778572 C346.164939,203.44219 345.283581,207.089999 340.542898,207.817341 C337.176892,208.336142 334.147788,206.697523 332.237678,203.326667 C330.820888,200.825381 330.351632,197.936119 330.859992,195.719887 C327.283424,197.268489 320.527348,200.864388 317.284673,202.885581 C315.497893,203.999098 314.105167,203.723344 313.250881,203.296061 C310.883548,202.113231 309.454725,198.193869 308.880188,191.31383 C308.726777,189.492776 307.785258,187.646817 306.786587,185.691936 C304.723066,181.654351 302.154193,176.629573 308.326707,171.705015 C308.973437,171.188015 309.253186,170.844748 309.3705,170.663813 C308.422965,170.03549 304.720058,169.698525 302.674585,169.512489 C298.159506,169.101409 295.963631,168.832856 295.386086,167.237746 C295.223651,166.79756 295.100321,165.915989 296.065905,164.954602 C297.347333,163.674853 299.215331,162.329091 301.191618,160.904714 C304.723066,158.357218 309.120832,155.187101 309.412612,152.586796 C309.535942,151.459476 309.135872,150.590807 308.221425,150.004793 C306.624152,148.983394 303.411557,148.905079 300.361397,150.732135 C298.833309,151.645512 297.572937,152.86915 296.351669,154.052581 C293.662475,156.658288 290.61833,159.612062 285.730253,156.510059 C279.118564,152.312242 277.163333,140.397824 279.389288,134.845844 C280.412025,132.297748 285.991953,119.619382 295.53348,120.300214 C302.43695,120.79201 309.391556,121.702087 311.966445,126.839386 C312.634231,128.170445 314.147279,128.065725 317.206464,127.534621 C319.486564,127.138544 322.067469,126.690557 324.106925,127.851783 C326.146381,129.014209 327.620325,131.067209 328.149741,133.483879 C328.715254,136.05808 328.16779,138.751704 326.648725,140.874317 C324.834873,143.405609 324.40773,145.327183 324.774712,146.041322 C325.045436,146.565224 326.038092,146.643239 326.603605,146.643239 C330.6013,146.643239 334.385424,141.996235 335.338975,138.664687 C335.40816,138.418939 335.483361,138.158488 335.558563,137.886936 C336.674548,133.897359 338.542546,127.22016 343.887847,126.628445 C348.029928,126.169056 355.646305,119.173795 357.08716,116.300736 C358.455822,113.570805 362.61896,105.260988 368.135719,106.637056 C371.594974,107.500024 376.564269,107.336192 380.131813,104.286999 C386.803663,98.5828888 391.50825,97.0117831 394.119235,99.6150896 C395.361559,100.853731 396.059426,102.561363 396.676075,104.067356 C397.789053,106.787985 398.056769,106.829093 398.544073,106.665861 C399.500632,106.347799 399.99696,102.7501 400.264676,100.817424 C400.682795,97.7952355 401.010672,95.4085712 402.592905,94.6197177 C402.653066,94.554605 402.728267,94.1189203 402.37031,93.495399 C401.747644,92.4151888 400.174435,91.4252962 397.629627,91.8864859 C396.6851,92.0578193 395.533017,92.2906646 394.314758,92.5364124 C384.905585,94.4354819 380.423594,95.0073931 378.730063,93.3753756 C378.191622,92.8565747 377.966019,92.1514375 378.092357,91.3898893 C378.417226,89.4515122 380.516843,87.7159745 382.222406,86.6009576 C385.398905,84.5230533 390.277958,82.6512892 393.490553,83.452145 C397.500281,84.4516394 407.96227,83.8194164 410.624393,80.7216137 C411.725338,79.4388642 411.418517,76.0452039 409.878397,72.4691082 C408.428518,69.1036534 406.801164,67.6915787 406.368005,67.6696744 C404.496999,67.6696744 402.625994,66.3251128 400.818157,65.0246598 C399.172755,63.8412296 397.310774,62.5008688 396.230884,62.8579383 C395.111891,63.2303107 394.032002,64.3180223 392.888943,65.4693463 C391.300694,67.0692576 389.498874,68.8828104 387.014226,69.2368793 C385.922305,69.3929097 385.182325,69.0094351 384.755182,68.6604672 C383.425625,67.5730556 383.308312,65.4498425 383.194006,63.3968431 C383.151893,62.5977876 383.0797,61.3162383 382.887185,60.8151408 C382.072004,60.7863352 381.238775,60.6159021 380.360425,60.4364672 C378.236743,60.0028828 376.03786,59.5536954 373.875074,61.0947952 C372.500396,62.0756861 371.381403,63.658494 370.19924,65.33402 C368.45758,67.8007999 366.484301,70.5967439 363.130328,72.2695694 C358.988246,74.3351712 353.098489,75.032807 350.935702,72.7775682 C350.30702,72.1246412 349.452735,70.674159 350.776276,68.2982967 C351.284636,67.3879196 351.856165,66.4172307 352.463791,65.3892307 C354.867221,61.3294409 357.854212,56.2764578 357.484222,53.3136814 C357.264635,51.5562395 357.860228,49.9353241 359.210842,48.6258693 C361.653376,46.2569084 366.240649,45.2568139 371.182871,46.0150614 C376.049893,46.7619067 382.18631,44.9444531 384.848432,43.586989 C382.814992,43.3409411 379.385817,43.2557245 377.2862,43.2035144 C374.705295,43.1393019 372.476332,43.0840911 371.282137,42.8854525 C371.053525,42.8473451 370.794833,42.8068372 370.512077,42.7621285 C366.222601,42.0875973 361.533054,41.1469143 360.173417,38.5103013 C359.803427,37.7934618 359.517662,36.6289353 360.257642,35.1535482 C362.27905,31.1192633 367.82589,28.8079136 377.210999,28.0877735 C380.498795,27.8354244 386.25319,28.3800304 390.181701,28.922836 C392.606187,29.2580012 394.71182,29.6345745 396.266981,30.0111477 C398.510985,30.5542534 399.747292,31.076655 399.864606,32.2807893 C400.039073,34.047233 397.728892,34.3181857 396.489576,34.463714 C394.654667,34.6788559 393.869567,35.1745523 393.896639,35.4572073 C394.044034,36.9184916 398.661387,40.0036918 402.556809,39.6811291 C405.209907,39.4608862 407.589272,40.4342756 408.762411,42.2223235 C409.5806,43.4726667 409.664825,44.9651571 408.988015,46.2146002 C408.94891,46.285414 408.906797,46.3595284 408.858669,46.4360433 C409.306868,46.4504461 409.770107,46.4672494 410.239362,46.4867532 C421.480437,46.9566446 423.441684,48.4224298 424.085406,48.9043235 C424.190688,48.9829388 424.271905,49.0315483 424.332066,49.061254 C424.581734,48.5946633 424.81937,47.004954 424.121502,44.9156475 C423.655255,43.5116743 422.142207,40.1960293 418.243777,39.7327391 C411.920861,38.9810929 401.870974,33.975219 401.898046,29.4611407 C401.913086,26.9844589 404.43383,25.4601623 409.394101,24.9299592 C422.587398,23.520885 432.159006,29.7990065 437.877305,33.5500362 C438.815815,34.1648559 439.62498,34.6956591 440.343904,35.1262429 C443.839255,37.21885 446.387071,40.7022277 448.853671,44.0709832 C450.336638,46.100578 451.738388,48.0170509 453.281517,49.5566504 C457.210027,53.4748127 464.961766,59.2143294 469.891956,59.7064251 C470.156664,59.7325302 470.304059,59.7148268 470.373244,59.6995238 C470.674048,58.7999488 469.182057,55.3426761 468.3759,53.466111 C467.410317,51.2318763 466.501886,49.1215658 466.300347,47.5171536 C466.062711,45.6048816 466.706434,43.6169948 467.271946,41.8631536 C468.306715,38.6738331 468.399964,37.6440328 467.040327,36.9650006 C466.709442,36.8005686 465.936373,36.4149936 465.966454,35.5061168 C465.984502,34.9786142 466.318395,34.4991209 466.805699,34.2947811 C467.299019,34.0877409 467.656977,33.9380117 473.898676,36.3636837 C476.46454,37.3619779 481.725616,39.4875914 488.102677,42.5082791 C498.149556,47.2675051 512.170066,54.8151735 521.913133,63.7443107 C522.099632,63.9147439 522.231986,64.1340865 522.301171,64.3768338 C522.325235,64.4683516 524.8911,73.5643213 528.293202,76.9570813 C529.252769,77.9133674 530.462004,79.0130813 531.743432,80.1770078 C537.115806,85.0538566 539.856137,87.6934702 538.499508,89.7263657 C537.491812,91.2347591 536.017868,97.5191818 538.123502,98.9192542 C541.883561,101.420841 544.714134,106.231677 542.843128,110.586424 C542.509235,111.361175 542.888249,113.366765 544.485522,116.100897 C546.762614,119.997155 550.200813,123.232384 552.312462,123.46673 C553.509665,123.598756 554.481265,123.149868 555.194172,122.13027 C556.526737,120.223999 556.520721,117.023276 555.179132,114.347056 C553.007321,110.013313 550.63698,102.421536 553.524706,100.500262 C554.063146,100.143192 554.736949,100.049274 555.531073,100.223308 C558.439856,100.858532 564.320589,105.844001 568.107721,111.981396 C570.408877,115.714722 572.682961,121.532254 571.506815,125.642453 C571.076664,127.152347 570.270507,127.825378 569.671906,128.124236 C569.157529,128.380786 568.486735,128.648438 567.713667,128.958098 C565.210971,129.957893 561.432863,131.468687 559.60397,134.024584 C557.853286,136.46976 559.438527,144.165657 560.292813,148.300462 C560.554513,149.580811 560.783125,150.686526 560.897431,151.491282 C561.138074,153.165908 561.074905,155.349433 561.011736,157.661383 C560.927511,160.565348 560.834262,163.856988 561.399775,166.108626 C561.832933,167.841763 561.790821,170.390459 561.739684,173.341834 C561.661475,177.880517 561.562209,183.529416 563.388094,186.866965 C564.53416,188.961072 565.731363,192.144092 567.000759,195.514347 C569.250779,201.48941 572.051271,208.926057 575.254842,211.802416 C577.345435,213.680482 578.990837,216.094151 580.579087,218.428605 C583.033653,222.038308 585.157335,225.155914 588.084165,225.155914 C590.601901,225.155914 592.490955,224.248538 594.154406,223.447982 C596.08858,222.518101 598.088932,221.556714 600.308871,222.663929 C603.503418,224.256039 604.210309,238.250762 603.25375,250.608966 C602.173861,264.576684 598.464938,286.726993 586.938099,312.937093 C585.930403,315.229539 584.796369,317.569994 583.551038,319.943456 C585.250585,319.649399 587.016309,319.481366 588.84821,319.445359 C589.046741,319.439358 589.242264,319.436357 589.440795,319.436357 C589.849889,318.593193 590.255976,317.747028 590.659054,316.900864 C603.789182,289.082452 610.449,259.26265 610.449,228.274721 C610.449,200.157151 604.929233,172.881544 594.043108,147.205249 C583.526973,122.404223 568.471695,100.13029 549.295391,81.0024684 C530.119087,61.8743469 507.790349,46.8567251 482.928835,36.3666842 C457.185963,25.5066714 429.842809,20 401.657402,20 C373.468988,20 346.125834,25.5066714 320.38597,36.3666842 C295.521448,46.8567251 273.19271,61.8743469 254.01791,81.0024684 C234.842208,100.13029 219.787531,122.404223 209.271396,147.205249 C198.384068,172.881544 192.864,200.157151 192.864,228.274721 C192.864,249.282708 195.956273,269.860712 202.072536,289.649562 C200.138963,276.660035 198.050476,257.135236 198.501984,235.307489 C198.97545,212.426538 202.102918,191.511569 207.798656,173.143195 C214.938558,150.116415 226.15647,131.046805 241.139856,116.465168 C241.581739,116.035184 242.25885,115.957469 242.786763,116.276731 C243.314374,116.595693 243.558928,117.230017 243.382055,117.819331 C241.622347,123.67197 240.113511,130.575713 240.23654,133.092903 C240.719933,132.477483 241.527293,131.200735 242.719382,128.568023 C243.964413,125.818588 245.121609,122.730087 245.887458,120.686389 L246.100127,120.118979 C246.522156,118.99646 247.088572,117.165204 247.687775,115.226527 C250.600768,105.805894 251.978153,102.375627 253.906312,101.894333 C254.037462,101.861927 254.169817,101.845724 254.300366,101.845724 Z M509.712,371 C495.593144,376.07121 480.235156,394.407653 466.662,412 C468.486025,410.511808 470.331154,409.011662 472.167238,407.517493 C482.764672,398.896137 492.774196,390.752915 494.773086,388.771647 C496.80514,386.757507 500.622025,382.089723 505.044908,376.686808 C506.564427,374.828061 508.138213,372.90656 509.712,371 Z M450.303,429 C445.697697,432.887574 442.316326,435.85503 441.427271,436.920118 C438.982371,439.852071 431.609145,445.517751 424.473,451 C426.823068,450.159763 428.894565,449.428994 430.598586,448.837278 C435.503204,447.136095 442.514882,439.023669 450.303,429 Z M573.759628,349.990907 C574.697358,350.753857 575.492916,351.556009 576.161427,352.334037 C579.210562,355.877381 580.27534,359.586583 580.317689,359.743395 C580.402387,360.038925 580.381213,360.352548 580.26324,360.633 C579.836724,361.646246 569.784863,385.484655 564.185707,393.454917 C561.989603,396.585121 558.719648,403.644668 554.932428,411.816976 C549.254624,424.072421 542.820586,437.959312 537.042958,445.157577 C534.907354,447.820362 532.677976,450.063977 530.376,452 C537.415025,449.774479 543.192653,446.641258 547.675607,442.609386 C557.131557,434.105361 558.62285,423.418033 559.424458,417.676309 C559.678552,415.869958 559.860049,414.564198 560.204891,413.647452 C561.611486,409.908093 566.182164,403.150108 571.022061,395.994062 C574.527962,390.80721 578.15486,385.445452 580.202741,381.700063 C584.322704,374.173096 588.857083,361.827182 593.657656,348.754506 C594.36549,346.830546 595.07635,344.894523 595.790235,342.958501 C599.946497,331.716301 600.802554,325.841889 600.978,323.743023 C599.259837,323.218307 595.324395,322.183952 590.551047,322 C585.693,331.725347 580.069644,341.100884 573.759628,349.990907 Z M496.797,455.966232 C507.139545,456.17149 516.248987,455.441013 524.092482,453.7748 C528.19188,451.175871 532.028534,447.930982 535.641259,443.367008 C541.140962,436.418419 547.691638,422.07752 552.958454,410.552883 C556.750323,402.255024 560.022675,395.086084 562.33064,391.753659 C567.280969,384.60283 576.303824,363.271083 577.731,359.866214 C577.29807,358.589388 575.805209,354.849465 572.42537,352 C571.419181,353.397566 570.395078,354.786076 569.356046,356.159494 C560.506363,367.859205 550.417604,378.66242 539.367442,388.276346 C539.991458,402.200691 537.752166,414.528249 532.703308,424.926985 C528.585995,433.408973 522.608577,440.617154 514.94124,446.358343 C508.399521,451.254352 501.810029,454.21852 496.797,455.966232 Z M409.836,460 C393.380462,465.762614 374.088597,472.725533 363.342,477 C377.729256,473.278192 402.860086,464.723502 409.836,460 Z M517.826309,402.317096 C519.637834,402.776545 521.22104,403.734481 522.338598,405.413121 C523.978884,407.869521 524.357412,411.313887 523.429118,415.367848 C521.230053,424.992252 512.553961,435.499519 501.327314,442.129997 C492.738343,447.201953 480.814725,452.88951 470.294062,457.90441 C459.647223,462.982372 449.589205,467.778058 446.074306,470.510728 C444.382949,471.826013 442.40319,473.898038 440.110995,476.297382 C438.984425,477.477535 437.791763,478.726756 436.527,480 C443.163249,478.819847 448.558769,478.225266 451.962513,478.522556 C467.21477,479.84685 484.200444,471.964148 496.601728,466.207523 C498.686634,465.240579 500.654376,464.327687 502.465901,463.525903 C504.493727,462.628026 506.485503,461.790207 508.414191,460.982418 C511.09693,459.853315 513.683535,458.766253 516.183019,457.601114 C508.050685,458.6101 498.452307,458.874358 487.099484,458.135636 C486.408521,458.090592 485.864763,457.532047 485.834722,456.844375 C485.807684,456.1537 486.303375,455.553113 486.985325,455.451013 C487.117509,455.429993 500.275849,453.360971 512.845367,444.024849 C520.1876,438.568517 525.907572,431.727833 529.843057,423.685976 C534.775932,413.608129 536.917918,401.58438 536.20893,387.954062 C536.1879,387.536654 536.362143,387.131258 536.680587,386.857991 C547.853158,377.30866 558.043361,366.55215 566.9688,354.885751 C567.990224,353.552448 568.993622,352.207134 569.982,350.849807 C568.377764,349.945924 566.47311,349.267261 564.216965,349 C550.583964,367.269851 534.73087,384.698881 523.945838,395.99592 C521.915008,398.121997 519.872161,400.23306 517.826309,402.317096 Z M392.616,493.606594 C398.762971,493.97201 404.350573,494.203738 408.098948,493.746225 C415.975704,492.783664 422.4814,489.218627 427.917,485 C417.191722,487.281624 404.645457,490.439653 392.616,493.606594 Z M329.763,493.280982 C342.590604,494.075553 353.841782,494.386212 358.517011,493.292931 C365.432267,491.673919 375.383268,492.029384 384.835819,492.596935 C401.062498,488.173028 418.61938,483.563921 432.29375,480.833704 C434.668898,478.632206 436.809835,476.403824 438.746587,474.384539 C441.112727,471.920175 443.154574,469.790367 445.004248,468.359543 C448.748635,465.465035 458.459419,460.855928 469.704592,455.517966 C480.169058,450.550406 492.03279,444.922695 500.512461,439.937212 C513.409127,432.355933 519.795904,421.784558 521.345306,415.033695 C522.08998,411.783722 521.840754,409.008699 520.639668,407.219421 C519.660782,405.758725 518.003283,405.119484 516.051517,405 C495.146607,426.005342 474.556981,443.910066 467.716794,446.792625 C463.36886,448.620734 458.16215,452.65333 452.135699,457.322179 C439.536301,467.08106 423.856117,479.223653 405.020078,479.943546 C389.862366,480.523045 360.117459,482.963512 331.186288,492.791097 C330.708856,492.952401 330.234426,493.113704 329.763,493.280982 Z M309.099,502.132614 C310.248205,502.228164 311.424416,502.329686 312.62463,502.434194 C324.176694,503.428512 337.268033,504.560182 343.395128,503.688288 C346.866748,503.192622 357.419634,500.278347 370.778021,496.590713 C372.566341,496.095047 374.396668,495.590423 376.257,495.079828 C369.748837,494.873798 363.543728,495.017123 358.913901,496.101019 C353.155872,497.447677 339.026348,496.856461 323.363549,495.757636 C318.343652,497.719397 313.581801,499.845386 309.099,502.132614 Z M142.926,551 L241.874198,551 C243.990804,547.130635 254.124395,529.169582 264.486159,520.501005 C267.413081,518.050407 270.009752,515.698793 272.522359,513.422167 C279.649768,506.961227 285.282043,501.859064 291.577821,501.229167 C293.952623,500.992206 298.281909,501.220169 303.625965,501.634101 C307.787123,499.342477 312.19747,497.19483 316.848,495.200157 C311.897243,494.825218 306.880435,494.417285 302.004735,494.02135 C287.671856,492.857541 274.134582,491.759721 268.856877,492.068671 C265.113936,492.287635 261.031738,492.200649 256.709357,492.107664 C245.313008,491.864704 232.395704,491.588749 219.449278,496.678914 C203.937706,502.776913 155.492337,540.981644 142.926,551 Z M259.927746,554 C259.491421,554 259.081841,553.789646 258.82792,553.435049 C258.573998,553.080452 258.506987,552.623683 258.647921,552.21199 C263.855569,536.958315 273.452305,523.703003 287.170085,512.809667 C290.980413,509.783573 295.124294,506.928768 299.580695,504.254266 C296.257175,504.046917 293.567709,503.96578 291.987084,504.125048 C286.575097,504.665959 281.22922,509.513118 274.461982,515.652452 C272.048975,517.843139 269.310527,520.325317 266.339794,522.813506 C255.326806,532.036029 244.083935,553.071437 243.971549,553.281791 C243.73716,553.723535 243.277697,554 242.777366,554 L139.083269,554 C138.510217,554 137.99967,553.639393 137.808552,553.098483 C137.617735,552.557572 137.787818,551.95656 138.233758,551.595953 C140.761255,549.552514 200.345703,501.513653 218.535509,494.355604 C231.999067,489.057686 245.216516,489.340162 256.877681,489.589582 C261.147772,489.682739 265.18137,489.769885 268.819211,489.553521 C274.290697,489.234985 287.30531,490.28976 302.375335,491.515824 C308.872124,492.044714 315.852716,492.609665 322.643994,493.090475 C324.978871,492.185952 327.364834,491.31749 329.807891,490.482084 C359.08551,480.48726 389.150436,478.005082 404.466871,477.416091 C422.448732,476.724927 437.759157,464.803861 450.061587,455.226741 C456.245856,450.412638 461.585724,446.253637 466.261488,444.276309 C471.88683,441.896303 490.379539,426.245959 511.51664,405.087344 C507.721338,405.856639 503.793815,407.596568 501.732392,408.71445 C501.116369,409.048011 500.350097,408.855687 499.962453,408.272706 C499.574809,407.689725 499.698014,406.905404 500.244922,406.469671 C500.317042,406.40957 507.655228,400.525666 514.530645,393.424713 C523.218072,384.445599 527.425058,377.374697 526.373311,373.513197 C525.808373,371.439707 523.539606,370.108466 519.630114,369.549526 C517.941309,369.309121 516.216445,369.333161 514.470545,369.597606 C512.129658,372.416351 509.731676,375.373328 507.456898,378.177048 C503.003503,383.673299 499.154111,388.415281 497.032588,390.539857 C494.944119,392.625368 485.379236,400.477585 474.302842,409.570891 C469.696192,413.351254 464.704904,417.450154 460.038154,421.311654 C448.655251,436.409066 438.825928,449.303771 431.610947,451.80999 C427.902789,453.102165 423.05574,454.833078 417.592668,456.816417 C415.585334,458.400082 413.80638,459.839505 412.41507,461.053549 C407.643145,465.209544 391.190824,471.264737 384.339447,473.677798 C371.610309,478.15834 359.668478,481.563071 355.302227,481.959739 C353.703572,482.106987 353.207749,481.406808 353.075529,480.790771 C352.79306,479.480566 354.112251,478.765362 356.284859,477.707582 C357.877504,476.935282 360.233416,475.895531 363.289491,474.621387 C368.689458,472.373603 376.234988,469.401601 385.718737,465.789521 C395.881614,461.919006 407.036137,457.78705 416.243427,454.436411 C418.280811,452.834715 420.531548,451.103801 422.842386,449.324807 C429.636668,444.096005 437.335453,438.17003 439.628261,435.420402 C441.199871,433.536231 448.733381,427.153487 458.075895,419.421472 C458.250185,419.190083 458.427479,418.955688 458.601769,418.721293 C467.745954,406.592878 478.10716,392.847742 488.480386,382.666605 C497.618561,373.702516 505.717009,368.557856 513.025145,367.106413 C516.324624,363.151757 519.488879,359.506621 522.031101,356.964342 C526.887165,352.108168 528.999673,347.840985 527.980981,344.953124 C526.85411,341.755742 521.790701,339.589095 513.346679,338.684572 C497.330082,336.965679 480.147548,352.2464 469.882502,361.375767 C466.234444,364.62123 463.599067,366.965175 461.853168,367.836642 C456.690595,370.417987 447.080636,375.223075 393.237223,419.126976 C371.571244,436.793714 352.678871,444.093 340.64689,447.104068 C326.018598,450.764229 316.498789,449.562206 313.671093,447.858338 C312.207663,446.980861 312.249733,445.88101 312.336878,445.448281 C312.601317,444.120046 314.076767,443.299665 316.982593,442.863931 C332.371147,440.556047 366.195316,428.899426 373.425323,424.079312 C380.898733,419.096926 400.229835,401.403143 410.612076,391.898144 C417.301184,385.77684 425.435692,379.856875 432.611609,374.631079 C439.033273,369.961219 444.577479,365.925425 446.765112,363.374131 C448.793481,361.00314 451.627186,358.526972 454.908636,355.660146 C459.410111,351.72953 465.008408,346.83429 470.510544,340.418491 C473.602679,336.809416 474.894825,333.822388 474.242742,331.781954 C473.614699,329.804625 471.231742,329.158538 471.210707,329.152528 C471.027403,329.107452 470.856118,329.02331 470.705869,328.906113 C461.480549,321.730034 449.959417,321.083946 435.481374,326.928785 C423.148895,331.908166 411.399383,340.559729 402.820136,346.876361 C397.471254,350.812987 393.609841,353.658778 391.226884,354.455118 C387.257292,355.777344 378.984554,360.561396 370.225008,365.624919 C357.994698,372.698827 345.346695,380.013138 338.837886,381.407485 C336.665278,381.873269 333.383829,382.738726 329.230932,383.835572 C314.671755,387.679042 288.813815,394.503529 268.826423,394.506534 C266.62016,394.506534 264.488119,394.422393 262.447731,394.242089 C247.843178,392.958929 232.224141,386.416917 231.366216,377.693233 C230.925685,373.212692 234.267234,366.745806 252.689025,361.369757 C268.907258,356.639795 280.946751,347.865025 287.503639,335.99204 C293.156026,325.759817 293.594754,315.419412 292.119304,309.153865 C289.598117,298.437827 269.086355,302.031877 258.065554,303.961125 C256.604527,304.216554 255.224636,304.459964 254.06471,304.637263 C251.019753,305.106052 247.866016,305.298375 244.527171,305.499714 C236.695266,305.974514 228.596517,306.464338 222.15532,310.758566 C212.437483,317.237472 191.028731,324.35946 179.009672,327.562852 C169.841447,330.008969 165.196032,336.334617 160.277765,343.029887 C159.146687,344.571481 157.977145,346.164162 156.762227,347.681717 C150.505237,355.503883 138.732587,387.85634 137.22889,393.869462 C135.400954,401.180769 112.212647,421.774433 90.0433322,438.939325 C65.6602411,457.817101 2.54222587,486.311063 1.90757195,486.596544 C1.22634068,486.90306 0.426111801,486.599549 0.119302306,485.917401 C-0.18690619,485.238257 0.116597815,484.435907 0.797829083,484.129391 C1.42947801,483.846916 64.2572111,455.482171 88.3875826,436.799724 C113.766227,417.152653 133.203405,398.821798 134.605233,393.214359 C136.184956,386.894722 148.048958,354.244764 154.650019,345.992874 C155.83038,344.51739 156.983094,342.94875 158.097945,341.431196 C163.076613,334.651784 168.225062,327.640983 178.312814,324.951456 C189.706235,321.913342 211.276354,314.761304 220.655229,308.507778 C227.704035,303.810872 236.172998,303.297007 244.3637,302.801172 C247.638538,302.602838 250.731875,302.41352 253.653627,301.965766 C254.785607,301.791472 256.089472,301.563088 257.598879,301.298643 C263.620879,300.243867 271.868675,298.798434 279.083657,299.122981 C288.107642,299.528664 293.378395,302.695995 294.75468,308.531818 C296.34432,315.290194 295.896577,326.393884 289.871571,337.299241 C285.051567,346.02593 274.822581,357.733637 253.446283,363.969132 C240.462021,367.755506 233.576386,372.536553 234.057786,377.428788 C234.681622,383.772466 247.791192,390.239351 262.684824,391.549557 C282.73472,393.313526 312.532202,385.446284 328.539785,381.221172 C332.728741,380.11531 336.03423,379.240838 338.272948,378.763034 C344.361058,377.455834 357.38168,369.928163 368.869758,363.283979 C378.137147,357.92596 386.139436,353.298171 390.370462,351.888798 C392.347746,351.227685 396.458572,348.201592 401.215472,344.697694 C409.911913,338.29692 421.817684,329.52816 434.468693,324.419561 C449.598818,318.313283 462.279876,319.052527 472.166294,326.616259 C473.097841,326.919769 475.895487,328.055681 476.821024,330.958568 C477.785626,333.984661 476.352245,337.756009 472.562953,342.17645 C466.934606,348.742502 461.255175,353.706859 456.68759,357.697576 C453.487275,360.495285 450.719679,362.911352 448.817521,365.13209 C446.422543,367.923789 441.031591,371.8514 434.204253,376.818761 C427.085432,381.999482 419.017033,387.874371 412.43911,393.893502 C396.927351,408.092402 381.643971,421.849559 374.924813,426.330101 C367.511502,431.270417 333.02323,443.194488 317.385261,445.538433 C316.676084,445.646615 316.15622,445.763812 315.780596,445.875 C318.322818,446.767502 325.889383,447.756166 338.405167,444.862295 C350.497248,442.067591 369.530855,434.969643 391.527383,417.032451 C445.602181,372.939231 455.386429,368.046996 460.642157,365.41757 C462.069527,364.705372 464.855153,362.226199 468.085517,359.353363 C478.684118,349.9295 496.42558,334.15595 513.635158,335.995045 C523.461476,337.046816 528.987653,339.682252 530.532218,344.051606 C531.956583,348.09341 529.741905,353.078801 523.945279,358.875559 C521.931936,360.888948 519.500899,363.629561 516.916607,366.679695 C517.965349,366.66467 518.996061,366.727776 520.014752,366.872019 C525.090181,367.596238 528.107191,369.591596 528.981643,372.800999 C530.333888,377.76235 526.120892,385.341107 516.456844,395.32391 C513.647178,398.223791 510.762388,400.925339 508.313321,403.122036 C510.311639,402.53004 512.484247,402.079281 514.560695,402.022185 C517.075872,399.47089 519.621099,396.847475 522.18135,394.166963 C532.620686,383.228551 547.831946,366.514417 561.110998,348.913791 C560.852568,348.931821 560.588129,348.949851 560.31768,348.976897 C558.412516,349.1572 556.639572,349.550863 554.998848,350.112809 C545.163515,363.034559 535.980265,372.954257 535.85105,373.089484 C535.430352,373.543248 534.757234,373.65143 534.213331,373.356934 C533.672433,373.059434 533.398978,372.431376 533.552233,371.83337 C533.612333,371.592965 535.105813,365.871334 539.075405,359.846193 C542.918787,354.019385 547.765836,349.953541 553.328073,347.84399 C556.888986,343.138069 560.513005,338.05351 563.803469,332.914861 C567.643846,326.913759 573.019774,322.853926 579.606712,320.909653 C581.256452,317.874544 582.740917,314.893526 584.012028,311.993645 C595.121476,286.667014 598.835644,265.201883 599.992565,251.655081 C601.368851,235.529337 599.562852,226.338367 598.53815,225.042886 C597.585568,224.623681 596.657026,225.032068 594.872062,225.892116 C593.042023,226.7738 590.767245,227.870946 587.633041,227.870946 C583.275805,227.870946 580.541264,223.843267 577.896873,219.94811 C576.400388,217.7439 574.852818,215.464564 573.007754,213.803367 C569.314621,210.480975 566.510965,203.016711 564.037858,196.431426 C562.805812,193.147799 561.639876,190.045978 560.588129,188.115228 C558.421531,184.145546 558.526706,178.092457 558.610846,173.22847 C558.655921,170.579211 558.697991,168.076899 558.352417,166.687059 C557.697329,164.071156 557.793489,160.728029 557.883638,157.494887 C557.946743,155.298189 558.003838,153.223196 557.796493,151.774157 C557.694324,151.049938 557.47496,149.980138 557.219535,148.741152 C555.810195,141.887816 554.731404,135.475322 556.979136,132.327223 C559.268939,129.12323 563.48494,127.433186 566.276576,126.314703 C566.994768,126.026818 567.616801,125.778 568.03149,125.570951 C568.11563,125.528279 568.316964,125.304402 568.473224,124.76259 C569.080232,122.628398 568.371054,118.112396 565.372074,113.240596 C561.570761,107.065201 556.161779,102.999358 554.578149,102.686231 C554.148435,103.784579 554.743423,108.111863 557.180471,112.982762 C558.971445,116.565693 558.89632,120.80583 556.994161,123.533822 C555.72906,125.350079 553.760792,126.252799 551.600204,126.013596 C548.084365,125.622938 544.024624,121.228341 541.740831,117.310647 C540.622975,115.391016 538.90412,111.805681 539.949857,109.360765 C541.223973,106.388763 538.98225,102.830774 536.223669,100.991979 C532.187967,98.3012495 534.450725,90.5442927 535.676761,88.3193476 C535.174928,87.1095111 531.665099,83.9151342 529.531556,81.9714626 C528.224385,80.7838636 526.992339,79.6617748 525.988673,78.6589869 C522.478844,75.1487784 519.969677,67.1162577 519.419764,65.2507175 C504.569103,51.7586071 479.61266,41.2430068 470.396355,37.8025156 C470.516554,39.344411 469.972651,41.0248396 469.518898,42.4312068 C469.014059,43.9929356 468.491191,45.6078539 468.656466,46.927375 C468.80972,48.1534387 469.684172,50.1863606 470.528574,52.1522697 C472.163289,55.9545699 473.575634,59.238197 472.208364,61.1034367 C471.79067,61.6774028 470.940258,62.3258944 469.290518,62.1612172 C463.346648,61.5668167 455.128,55.291053 451.056238,51.2176966 C449.364429,49.5273513 447.837894,47.4319242 446.359439,45.405914 C444.054611,42.2494008 441.674659,38.9859076 438.651639,37.1726554 C437.885366,36.712581 437.055989,36.1668624 436.094392,35.5345982 C430.333826,31.7467223 421.625365,26.0211848 409.413085,27.3310897 C405.407433,27.760212 404.343666,28.7383585 404.340661,29.1957283 C404.328641,31.2028067 411.853137,36.0148065 418.286821,36.7810963 C423.236039,37.3706888 425.883436,41.3490854 426.706803,44.8752207 C427.220656,47.0680117 427.205631,50.0319006 425.468747,51.1669111 C425.014994,51.4629094 423.785953,52.0221507 422.178283,50.8156198 C420.071785,49.2355602 409.812748,48.8160541 403.817793,48.7959202 C403.096595,48.9098119 402.282243,48.9753221 401.353701,48.9753221 C400.677578,48.9753221 400.1487,48.969913 399.785096,48.9596958 C399.211143,48.9434685 398.345706,48.9188271 398.048212,47.9824509 C397.867913,47.4220075 398.075257,46.8062711 398.556055,46.4654975 C398.925669,46.2025549 399.024834,46.131936 402.621807,46.1054915 C402.877231,46.1036885 403.17773,46.102186 403.523304,46.1018855 C405.149004,45.8209125 406.035476,45.2322216 406.33898,44.6711772 C406.600414,44.1915699 406.423119,43.7369046 406.227795,43.4403054 C405.759017,42.7232985 404.508941,41.9452889 402.519637,42.1099661 C397.675593,42.51625 391.292994,38.8446698 390.95343,35.4552646 C390.854266,34.4542797 391.142745,32.8549878 393.666936,31.9868264 C389.018217,31.0934226 381.196227,30.1919051 377.18156,30.5011256 C369.065082,31.1255767 363.971624,33.0581297 362.457109,36.0902334 C362.177644,36.6503763 362.303854,36.8988946 362.357944,37.0049732 C363.202346,38.646336 368.650393,39.5054821 370.702802,39.8291269 C370.994286,39.8751043 371.26173,39.9171751 371.496119,39.9562409 C372.502791,40.1239231 374.744513,40.1798172 377.118456,40.2390168 C379.510428,40.298517 381.98053,40.3601207 383.954808,40.5413257 C385.745782,40.7060029 388.456283,40.9554227 388.456283,42.8732509 C388.456283,43.4980025 388.128739,44.0954081 387.485672,44.6492403 C385.000545,46.7804276 376.604602,49.3641767 370.540532,48.4317071 C366.4868,47.8081575 362.694503,48.5461998 360.876484,50.3122726 C360.149276,51.0196633 359.836757,51.8337335 359.950947,52.732246 C360.43475,56.6147812 357.32759,61.8853528 354.584034,66.5356804 C353.986041,67.5495871 353.421103,68.5072992 352.93129,69.3880817 C352.766015,69.6861835 352.408421,70.4098015 352.678871,70.690474 C353.559333,71.6124258 357.952628,71.5054458 361.696846,69.632994 C364.437397,68.2626874 366.126202,65.866454 367.757911,63.5489531 C369.077102,61.6774028 370.321168,59.909527 372.070072,58.6600238 C375.189252,56.4311721 378.353506,57.0790627 380.664344,57.5520589 C381.487711,57.7209431 382.269009,57.8802112 382.882027,57.8802112 C385.367153,57.8802112 385.532428,60.8492088 385.652628,63.0170578 C385.703712,63.9227823 385.820907,66.0446539 386.226581,66.3469628 C386.226581,66.3460613 386.238601,66.3469628 386.259636,66.3469628 C386.28668,66.3469628 386.32875,66.3454603 386.385845,66.3373466 C387.969475,66.1113662 389.300686,64.7644991 390.713031,63.338599 C392.029217,62.0106638 393.390477,60.6376527 395.121352,60.0606815 C397.510319,59.2640405 399.863226,60.9612974 402.141009,62.6026602 C403.529314,63.6048472 405.106934,64.7407592 406.101586,64.7407592 C408.842137,64.7407592 411.041789,68.8784238 411.859147,70.6574183 C413.550956,74.3371121 414.710882,79.5878504 412.406055,82.2767765 C408.649817,86.6599544 396.792126,86.9277051 392.582135,85.8750332 C390.607856,85.3816027 386.602204,86.6079669 383.46199,88.6667323 C381.686041,89.8305914 380.895728,90.7937125 380.628284,91.3445397 C382.578523,91.9118947 390.175138,90.37631 393.522697,89.6983688 C394.754743,89.4492495 395.920679,89.2136529 396.888286,89.0375565 C401.227492,88.2481277 404.064202,90.4751764 404.86353,92.8774199 C405.422458,94.5515379 404.914614,96.1273904 403.601434,96.8233619 C403.192755,97.3107823 402.889251,99.5327224 402.684912,101.011512 C402.195098,104.552973 401.69026,108.215538 399.142028,109.065368 C396.031864,110.101813 394.808833,107.106972 393.91635,104.91989 C393.372447,103.585644 392.807509,102.206022 391.954092,101.350783 C390.601846,99.9985064 386.749449,101.80064 381.652986,106.170896 C377.30777,109.894464 371.363899,110.122548 367.250068,109.094517 C365.981962,108.77538 363.256436,109.427478 359.289849,117.358728 C357.52592,120.886967 349.325302,128.585926 343.982429,129.179725 C340.460581,129.570984 338.961091,134.941023 337.969444,138.494805 C337.891314,138.772172 337.816189,139.038119 337.74407,139.289342 C336.554093,143.461565 331.953454,149.241194 326.418262,149.241194 C323.800915,149.241194 322.674044,148.115799 322.187236,147.17131 C321.730477,146.283615 321.018294,143.729015 324.263684,139.18717 C325.336465,137.682538 325.724109,135.768917 325.32144,133.936733 C324.954831,132.262014 323.957175,130.851139 322.580889,130.065316 C321.390913,129.385872 319.410625,129.730553 317.496446,130.063814 C314.60865,130.566259 311.017687,131.191912 309.376962,127.912793 C307.637073,124.429329 302.44445,123.370347 295.187399,122.851974 C289.246533,122.429463 284.24623,129.522302 281.764108,135.726245 C279.955104,140.246453 281.673958,150.721485 287.037866,154.136133 C289.991771,156.015496 291.404116,154.845026 294.312947,152.017567 C295.581053,150.785193 297.017438,149.388742 298.808412,148.31233 C302.45046,146.128554 306.750601,145.853291 309.515192,147.626876 C311.288136,148.765192 312.168598,150.646359 311.931204,152.787763 C311.510505,156.583152 306.987995,159.851153 302.615735,163.011272 C301.04112,164.148987 299.538625,165.233813 298.429783,166.21827 C299.54764,166.453266 301.407729,166.623052 302.759974,166.746259 C307.282484,167.159154 311.188972,167.515554 311.886129,169.831252 C312.439047,171.674855 310.488809,173.235081 309.848746,173.747744 C305.61171,177.138051 306.714541,179.872954 309.028384,184.415701 C310.101165,186.519843 311.210006,188.695505 311.408336,191.049367 C311.943224,197.483197 313.24739,200.333795 314.290121,200.856374 C314.431356,200.926392 314.803975,201.113607 315.675422,200.569391 C317.463391,199.45151 321.420963,197.220554 325.234296,195.287701 C327.241629,194.270489 328.891369,193.496085 330.138439,192.986728 C331.848279,192.287751 333.221559,191.828879 334.047932,192.777576 C334.318381,193.087097 334.832234,193.941435 333.789502,195.193643 C332.881995,196.282375 332.912045,199.334613 334.40252,201.973655 C335.180813,203.350272 336.932722,205.589942 339.931702,205.128966 C342.678263,204.706756 343.291281,202.954506 343.973414,200.119234 C344.475247,198.037029 345.100285,195.445767 347.885911,195.09688 C353.342973,194.414732 364.184978,196.967228 367.379282,197.765672 C373.837006,199.379689 378.040987,207.913453 380.823608,213.560258 C381.042973,214.005007 381.253322,214.430824 381.454656,214.831999 C383.464995,218.854269 395.653235,221.93806 402.937331,223.781062 C404.199427,224.100199 405.389403,224.401907 406.450164,224.684383 C413.298537,226.511158 419.329552,237.003018 423.320179,243.944101 C424.263746,245.587868 425.078098,247.003251 425.697126,247.931814 C427.205631,250.194623 433.164527,254.347613 452.985442,261.283287 C462.051497,264.456629 468.334932,271.692809 470.22507,281.134702 C471.637416,288.202599 463.698232,295.946634 459.434151,300.10864 C458.478564,301.037203 457.655197,301.839553 457.288588,302.299327 C455.671903,304.324737 452.702973,311.855412 451.699306,314.58701 C451.440877,315.281179 450.677609,315.638781 449.980452,315.395371 C442.029248,312.588647 414.740932,326.568178 397.976092,339.979753 C382.202899,352.594987 341.392128,372.040719 339.664258,372.8611 C339.18346,373.089484 338.615517,373.017363 338.209843,372.674786 C337.807174,372.332209 337.638895,371.785289 337.783134,371.274429 C340.133037,362.935392 338.786801,339.889601 334.823219,334.44143 C332.671646,331.481448 329.907055,324.63292 326.980195,317.381715 C324.077374,310.1846 321.072384,302.744076 319.028991,300.189776 C316.910473,297.539315 313.355569,293.972311 309.593322,290.197958 C305.915214,286.507746 302.113901,282.694327 299.012751,279.121313 C292.735327,271.891143 290.637844,261.322353 291.319977,257.917622 C291.491261,257.064186 291.277907,253.860794 291.055538,250.471088 C290.658879,244.491022 290.117981,236.30314 290.773068,230.07125 C291.76171,220.677138 300.419087,211.132171 302.387355,209.069499 C302.375335,207.474414 301.945622,202.202941 297.110593,198.576136 C292.215464,194.904857 289.024164,194.219703 283.227538,192.975609 C281.869283,192.684119 280.327723,192.353562 278.614878,191.950283 C269.88418,189.895725 269.553931,184.239003 269.288591,179.693552 C269.247723,178.991871 269.205653,178.26615 269.136538,177.575587 C268.586625,172.079336 267.536682,169.713453 262.454041,169.28974 C254.684339,168.642451 250.881524,163.504102 248.186648,158.563185 C244.996551,152.714139 248.741069,139.177855 251.257147,131.629749 C251.907427,129.679166 252.747623,123.532319 253.254865,117.014348 C253.676465,111.596228 253.717333,107.989257 253.603444,105.936201 C252.441715,108.495008 250.97588,113.247808 250.167237,115.870022 C249.529579,117.937202 248.979064,119.722807 248.528917,120.922426 L248.317366,121.487978 C244.507639,131.680535 242.429688,135.505974 240.376679,136.106986 C239.726099,136.297807 239.072513,136.18061 238.536123,135.777932 C237.325112,134.869803 236.865048,132.706762 238.555054,125.101561 C238.795153,124.021242 239.053882,122.949939 239.305701,121.956166 C226.466279,135.71753 216.725904,153.157085 210.317763,173.875459 C204.702638,192.029617 201.618316,212.726054 201.15074,235.389001 C200.353516,274.021729 207.536644,305.328426 207.609365,305.637947 C207.769831,306.32911 207.372271,307.023279 206.69705,307.236638 C206.02273,307.449997 205.297927,307.104415 205.036192,306.446308 C195.132045,281.582456 190.110105,255.288196 190.110105,228.289852 C190.110105,199.76644 195.696382,172.095563 206.714479,146.045915 C217.35605,120.885464 232.590149,98.2895298 251.993971,78.8852678 C271.396892,59.4813062 293.994418,44.2465625 319.152195,33.6050503 C345.202455,22.5867038 372.872404,17 401.395771,17 C429.916133,17 457.589087,22.5867038 483.636341,33.6050503 C508.797124,44.2465625 531.391645,59.4813062 550.794866,78.8852678 C570.198088,98.2895298 585.433388,120.885464 596.074058,146.045915 C607.093357,172.095563 612.679634,199.76644 612.679634,228.289852 C612.679634,259.726667 605.942446,289.975583 592.651374,318.19909 C592.41999,318.69192 592.182596,319.18475 591.948207,319.677579 C598.141491,320.086267 602.657991,321.742054 602.880361,321.823191 C603.388204,322.012509 603.733778,322.484303 603.757818,323.025214 C603.769838,323.262614 603.971172,329.0173 598.39992,344.138753 C597.690743,346.068 596.98457,347.994243 596.281402,349.908465 C591.476423,363.031554 586.938888,375.427419 582.749932,383.105343 C580.655454,386.948813 577.016411,392.345897 573.497567,397.565683 C568.990082,404.251938 564.326337,411.166577 563.040201,414.598354 C562.805812,415.226411 562.622508,416.527601 562.415163,418.033135 C561.095973,427.499069 558.084973,449.114452 524.738597,456.281516 C519.927608,459.238494 514.864199,461.366075 509.647536,463.556762 C507.730353,464.365123 505.750064,465.197524 503.745736,466.084016 C501.954761,466.874347 499.998513,467.784879 497.92507,468.746498 C486.223638,474.182648 470.525569,481.469914 455.617813,481.469914 C454.370742,481.469914 453.132686,481.418828 451.90064,481.313651 C448.090313,480.98009 441.38618,481.887618 433.140487,483.525374 C426.790943,489.346172 418.788654,494.902525 408.379368,496.203715 C403.640499,496.795711 396.365417,496.326922 388.666633,495.831088 C387.350447,495.743941 386.010221,495.659799 384.660981,495.575658 C379.970191,496.861823 375.450686,498.114932 371.26173,499.27789 C357.790359,503.016182 347.146684,505.970154 343.495621,506.493034 C337.052922,507.412582 323.776875,506.261645 312.063424,505.24894 C309.413022,505.017551 306.810701,504.792171 304.376659,504.599848 C298.709247,507.770184 293.522634,511.219991 288.85288,514.928233 C276.087682,525.064294 267.007803,537.291876 261.842826,551.295448 L859.647754,551.295448 C860.395997,551.295448 861,551.899464 861,552.647724 C861,553.392978 860.395997,554 859.647754,554 L259.927746,554 Z"/>
</svg>
