<?xml version="1.0" encoding="UTF-8"?>
<svg width="1000px" height="457px" viewBox="0 0 1000 457" version="1.1" xmlns="http://www.w3.org/2000/svg" xmlns:xlink="http://www.w3.org/1999/xlink">
    <!-- Generator: Sketch 59.1 (86144) - https://sketch.com -->
    <title>Fill 3</title>
    <desc>Created with Sketch.</desc>
    <defs>
        <linearGradient x1="26.7396674%" y1="93.5812143%" x2="75.4122465%" y2="93.5812143%" id="linearGradient-1">
            <stop stop-color="#A2BB68" offset="0%"></stop>
            <stop stop-color="#D7478C" offset="100%"></stop>
        </linearGradient>
    </defs>
    <g id="Page-1-(tmp)" stroke="none" stroke-width="1" fill="none" fill-rule="evenodd">
        <g id="img-goals-grad" transform="translate(0.000000, -48.000000)" fill="url(#linearGradient-1)">
            <path d="M276.618105,68.5483855 C278.162105,68.5483855 279.689105,68.7173855 281.169105,69.1313855 C282.956105,69.6313855 284.348105,70.5403855 285.496105,71.5653855 C286.492105,69.8543855 287.173105,68.0503855 287.442105,66.2683855 C288.064105,62.1473855 286.559105,58.5553855 282.968105,55.5903855 C279.171105,52.4553855 275.871105,51.3703855 273.165105,52.3703855 C268.969105,53.9173855 265.396105,60.6563855 263.206105,71.0303855 C263.972105,70.8453855 264.768105,70.6403855 265.583105,70.4303855 C269.074105,69.5313855 272.894105,68.5483855 276.618105,68.5483855 Z M306.297105,71.5923855 C309.494105,74.4713855 313.164105,74.1333855 314.753105,73.8023855 C317.041105,73.3233855 319.054105,72.1093855 320.307105,70.5653855 C315.263105,69.2423855 310.434105,69.5773855 306.297105,71.5923855 Z M460.380105,73.6913855 C461.138105,74.3573855 461.933105,75.0393855 462.739105,75.7303855 C463.782105,76.6233855 464.849105,77.5393855 465.900105,78.4743855 C464.110105,76.6623855 462.282105,74.9453855 460.380105,73.6913855 Z M264.139105,82.5193855 C265.215105,82.6543855 266.224105,82.8383855 267.170105,83.0713855 C267.314105,83.0253855 267.459105,82.9803855 267.604105,82.9343855 C270.165105,82.1293855 272.813105,81.2973855 275.682105,80.1243855 C271.920105,79.9973855 267.626105,80.9323855 264.139105,82.5193855 Z M454.590105,67.6863855 C461.070105,67.6863855 466.088105,72.8923855 470.541105,77.5093855 C473.196105,80.2643855 475.738105,82.9003855 477.969105,83.7383855 C480.325105,81.5583855 482.770105,79.5583855 485.307105,77.8273855 C485.346105,77.6363855 485.382105,77.4413855 485.415105,77.2423855 C486.612105,69.9913855 483.100105,61.0933855 479.491105,59.1643855 C472.073105,55.1993855 465.698105,57.5183855 461.656105,60.1623855 C458.671105,62.1143855 456.091105,64.7623855 454.005105,67.7013855 C454.201105,67.6913855 454.397105,67.6863855 454.590105,67.6863855 Z M471.503105,84.1023855 C472.468105,85.2663855 473.312105,86.4583855 473.977105,87.6803855 C474.291105,87.3513855 474.609105,87.0223855 474.927105,86.6983855 C473.766105,86.0213855 472.632105,85.1253855 471.503105,84.1023855 Z M315.111105,89.0113855 C313.315105,89.0113855 311.659105,89.3843855 310.153105,90.1323855 C305.072105,92.6533855 302.335105,98.9663855 300.933105,103.818385 C297.403105,116.034385 301.050105,117.106385 313.131105,120.660385 L314.640105,121.105385 C329.819105,125.602385 330.337105,127.727385 327.377105,142.329385 L327.014105,144.131385 C325.946105,149.449385 325.428105,153.832385 325.239105,158.176385 C326.101105,155.996385 326.673105,153.438385 327.352105,150.405385 C327.692105,148.885385 328.043105,147.313385 328.471105,145.627385 L328.533105,145.380385 C332.453105,129.913385 340.608105,97.7283855 321.356105,90.3023855 C319.125105,89.4413855 317.038105,89.0113855 315.111105,89.0113855 Z M446.843105,152.966385 C444.436105,152.966385 441.838105,153.524385 441.421105,155.840385 C440.791105,159.338385 445.081105,165.563385 452.300105,166.993385 C457.932105,168.108385 469.621105,167.469385 470.274105,165.611385 C471.407105,162.395385 468.793105,160.860385 462.507105,158.636385 C460.162105,157.806385 458.136105,157.089385 456.945105,155.978385 C455.290105,154.433385 453.887105,152.716385 452.678105,150.872385 C452.554105,151.278385 452.412105,151.672385 452.250105,152.055385 C451.889105,152.902385 450.997105,153.394385 450.088105,153.247385 C449.273105,153.115385 448.084105,152.966385 446.843105,152.966385 Z M325.193105,165.578385 C325.223105,166.775385 325.266105,168.004385 325.319105,169.280385 C328.431105,166.722385 330.680105,163.553385 331.905105,159.914385 C338.214105,141.165385 338.526105,117.174385 338.777105,97.8963855 L338.795105,96.5403855 C338.964105,83.6813855 339.010105,80.2303855 328.093105,73.8593855 C326.808105,73.1093855 325.521105,72.4613855 324.240105,71.9173855 C322.502105,74.7423855 319.320105,76.9333855 315.572105,77.7173855 C310.147105,78.8523855 304.908105,76.8163855 301.554105,72.2743855 C301.228105,71.8333855 301.098105,71.2783855 301.193105,70.7383855 C301.288105,70.1993855 301.601105,69.7223855 302.057105,69.4193855 C307.686105,65.6873855 314.541105,64.8183855 321.655105,66.7793855 C321.549105,64.8133855 320.254105,62.8363855 317.846105,60.9933855 C313.909105,57.9793855 310.276105,57.2903855 307.045105,58.9463855 C301.443105,61.8183855 298.194105,70.8263855 298.396105,77.5243855 C298.418105,78.2553855 298.040105,78.9413855 297.408105,79.3113855 C291.252105,82.9143855 288.056105,80.3833855 285.795105,77.8353855 C285.465105,78.1903855 285.123105,78.5393855 284.771105,78.8763855 C293.050105,85.1353855 290.301105,94.6993855 288.093105,102.383385 C287.424105,104.710385 286.792105,106.907385 286.484105,108.862385 C286.050105,111.623385 285.308105,115.069385 284.450105,119.060385 C280.931105,135.414385 275.613105,160.129385 285.671105,166.964385 C290.485105,170.236385 308.696105,169.094385 314.818105,167.057385 C317.562105,166.144385 319.603105,165.098385 321.166105,163.860385 C321.091105,157.276385 321.508105,151.234385 323.092105,143.344385 L323.458105,141.535385 C324.684105,135.482385 325.424105,131.828385 324.393105,129.966385 C323.377105,128.135385 320.073105,126.886385 313.503105,124.940385 L312.002105,124.498385 C300.232105,121.035385 292.456105,118.748385 297.090105,102.708385 C299.420105,94.6443855 303.322105,89.0573855 308.375105,86.5493855 C312.543105,84.4803855 317.395105,84.4863855 322.796105,86.5703855 C345.356105,95.2723855 336.613105,129.780385 332.411105,146.363385 L332.348105,146.609385 C331.935105,148.242385 331.589105,149.786385 331.255105,151.279385 C329.994105,156.913385 328.904105,161.786385 325.193105,165.578385 Z M272.739105,85.4793855 C273.518105,86.0193855 274.221105,86.6293855 274.854105,87.3103855 C279.419105,92.2183855 279.671105,99.8673855 278.564105,111.420385 C278.045105,116.833385 276.672105,122.655385 275.344105,128.285385 C271.599105,144.156385 268.063105,159.147385 280.400105,168.998385 C285.889105,173.380385 293.744105,175.898385 301.796105,176.195385 C303.609105,174.538385 305.449105,173.554385 307.309105,173.520385 C310.121105,173.483385 312.372105,173.915385 314.075105,174.846385 C314.335105,174.776385 314.594105,174.703385 314.852105,174.626385 C317.254105,173.919385 319.457105,173.006385 321.435105,171.908385 C321.380105,170.762385 321.330105,169.651385 321.289105,168.567385 C319.820105,169.416385 318.103105,170.180385 316.080105,170.852385 C309.709105,172.970385 289.951105,174.708385 283.423105,170.272385 C271.136105,161.922385 276.571105,136.663385 280.539105,118.219385 C281.385105,114.287385 282.116105,110.891385 282.533105,108.240385 C282.879105,106.040385 283.544105,103.727385 284.249105,101.278385 C286.408105,93.7653855 288.448105,86.6683855 282.357105,82.0653855 C282.094105,81.8663855 281.812105,81.6843855 281.514105,81.5173855 C280.209105,82.4013855 278.820105,83.1583855 277.374105,83.7543855 C275.772105,84.4143855 274.220105,84.9773855 272.739105,85.4793855 Z M284.784105,185.157385 C287.683105,185.894385 290.717105,186.563385 293.902105,187.166385 C295.390105,184.524385 296.906105,182.077385 298.445105,180.006385 C290.713105,179.206385 283.382105,176.498385 277.904105,172.123385 C263.588105,160.693385 267.765105,142.988385 271.451105,127.367385 C272.808105,121.614385 274.090105,116.181385 274.583105,111.039385 C275.556105,100.881385 275.451105,93.8253855 271.925105,90.0343855 C270.784105,88.8073855 269.223105,87.8823855 267.217105,87.2513855 C259.777105,89.6263855 254.704105,91.7793855 250.528105,101.661385 C247.428105,108.999385 241.141105,130.739385 242.076105,137.139385 C249.951105,136.984385 254.540105,138.502385 256.453105,141.902385 C257.850105,144.385385 257.461105,147.371385 256.192105,150.530385 C257.116105,157.880385 255.142105,167.056385 253.298105,171.330385 C254.187105,172.339385 255.391105,173.219385 256.816105,173.998385 C259.022105,174.571385 261.411105,175.583385 263.810105,176.744385 C266.777105,177.627385 269.974105,178.358385 273.020105,179.054385 C277.049105,179.976385 280.855105,180.846385 283.797105,181.985385 C284.760105,182.358385 285.280105,183.403385 284.999105,184.396385 C284.927105,184.649385 284.855105,184.903385 284.784105,185.157385 Z M242.766105,145.036385 C239.981105,148.611385 229.762105,179.686385 230.254105,183.195385 C231.347105,187.843385 232.328105,189.058385 232.643105,189.343385 C234.850105,188.216385 238.613105,177.183385 240.240105,172.415385 C241.646105,168.290385 242.758105,165.032385 243.705105,163.490385 C244.563105,162.092385 245.549105,160.623385 246.594105,159.067385 C248.464105,156.283385 250.710105,152.937385 252.082105,149.967385 C251.727105,147.946385 251.083105,146.245385 250.063105,145.142385 C249.507105,144.541385 247.835105,142.733385 242.766105,145.036385 Z M492.650105,199.221385 C503.353105,199.221385 515.717105,203.020385 526.392105,206.299385 C526.883105,206.450385 527.369105,206.599385 527.851105,206.748385 C526.034105,205.598385 524.342105,204.260385 522.818105,202.742385 C509.851105,189.818385 503.810105,172.895385 497.967105,156.530385 C496.470105,152.338385 494.923105,148.005385 493.307105,143.906385 C492.242105,141.205385 490.712105,137.976385 489.091105,134.557385 C488.251105,132.783385 487.374105,130.934385 486.502105,129.033385 C488.850105,136.457385 489.820105,143.509385 490.199105,147.256385 C491.980105,164.870385 485.134105,168.348385 477.886105,172.030385 C473.027105,174.498385 468.003105,177.051385 464.082105,184.210385 C460.824105,190.158385 464.399105,193.729385 470.501105,199.065385 C472.409105,200.732385 474.345105,202.425385 475.897105,204.270385 C476.323105,203.920385 476.766105,203.588385 477.224105,203.275385 C481.516105,200.342385 486.839105,199.221385 492.650105,199.221385 Z M497.556105,85.0733855 C494.655105,85.0733855 491.612105,86.4083855 488.340105,89.1033855 C476.569105,98.7973855 485.896105,118.476385 492.706105,132.844385 C494.356105,136.325385 495.915105,139.613385 497.029105,142.439385 C498.668105,146.599385 500.227105,150.963385 501.734105,155.185385 C507.427105,171.132385 513.314105,187.623385 525.642105,199.908385 C529.044105,203.298385 533.413105,205.662385 538.060105,206.863385 C542.257105,199.794385 539.987105,193.428385 537.187105,185.573385 C536.717105,184.255385 536.242105,182.922385 535.793105,181.566385 C534.752105,178.418385 533.490105,172.207385 531.892105,164.344385 C526.713105,138.857385 517.073105,91.4163855 500.760105,85.6333855 C499.709105,85.2603855 498.642105,85.0733855 497.556105,85.0733855 Z M542.201105,207.617385 C546.713105,208.096385 551.292105,207.497385 555.351105,205.698385 C563.017105,202.296385 567.000105,195.441385 566.565105,186.391385 C566.267105,180.183385 563.305105,173.570385 560.440105,167.173385 C558.607105,163.081385 556.711105,158.848385 555.529105,154.743385 C553.503105,147.709385 552.353105,140.815385 551.240105,134.149385 C550.601105,130.321385 549.940105,126.364385 549.121105,122.424385 C545.513105,105.072385 531.502105,83.3293855 514.301105,76.9773855 C504.846105,73.4873855 496.461105,75.3963855 488.813105,80.2353855 C487.470105,84.5473855 484.566105,87.2453855 480.464105,87.9223855 C480.044105,87.9923855 479.630105,88.0153855 479.221105,88.0173855 C477.945105,89.2663855 476.690105,90.5743855 475.452105,91.9303855 C475.518105,92.4003855 475.551105,92.8743855 475.549105,93.3533855 C475.531105,96.5613855 473.891105,99.5523855 470.675105,102.247385 C470.259105,102.596385 469.718105,102.762385 469.175105,102.702385 C468.781105,102.659385 468.413105,102.501385 468.114105,102.252385 C467.837105,102.038385 466.263105,100.872385 465.922105,100.643385 C465.464105,100.379385 465.125105,99.9433855 464.987105,99.4243855 C464.824105,98.8123855 464.961105,98.1583855 465.356105,97.6633855 C467.195105,95.3573855 469.094105,93.0673855 471.060105,90.8523855 C469.515105,86.8063855 464.580105,82.5763855 460.136105,78.7673855 C456.876105,75.9733855 453.798105,73.3343855 452.126105,70.8283855 C452.107105,70.8013855 452.090105,70.7733855 452.073105,70.7463855 C449.253105,75.7423855 447.809105,81.1423855 448.130105,85.2203855 C448.399105,88.6423855 449.778105,90.9343855 452.227105,92.0333855 C452.786105,92.2853855 453.200105,92.7793855 453.348105,93.3743855 C453.496105,93.9703855 453.363105,94.6013855 452.986105,95.0853855 C447.779105,101.787385 445.244105,106.032385 445.079105,111.405385 C445.497105,109.231385 446.326105,107.324385 447.731105,105.800385 C450.532105,102.763385 455.085105,101.712385 461.651105,102.589385 C471.337105,103.881385 477.783105,110.483385 482.065105,118.373385 C477.742105,106.358385 476.152105,93.9583855 485.797105,86.0163855 C491.391105,81.4103855 496.875105,80.0113855 502.097105,81.8633855 C520.542105,88.4033855 530.101105,135.442385 535.812105,163.547385 C537.383105,171.280385 538.624105,177.389385 539.591105,180.310385 C540.030105,181.636385 540.495105,182.941385 540.955105,184.230385 C543.618105,191.702385 546.359105,199.392385 542.201105,207.617385 Z M317.119105,178.111385 C319.146105,182.693385 316.168105,189.267385 313.953105,194.160385 C313.182105,195.863385 312.307105,197.793385 312.244105,198.467385 C311.676105,204.464385 314.029105,207.607385 316.613105,208.061385 C319.238105,208.526385 322.752105,206.373385 324.258105,200.563385 C324.868105,198.211385 323.566105,189.329385 322.705105,183.450385 C322.299105,180.675385 321.933105,178.174385 321.723105,176.266385 C320.275105,176.965385 318.739105,177.582385 317.119105,178.111385 Z M531.337105,208.655385 C531.455105,208.985385 531.488105,209.348385 531.416105,209.714385 C531.031105,211.661385 530.577105,213.520385 530.059105,215.297385 C531.827105,214.039385 533.649105,212.530385 535.563105,210.286385 C534.119105,209.839385 532.706105,209.295385 531.337105,208.655385 Z M475.063105,211.228385 C473.925105,213.065385 473.063105,215.232385 472.470105,217.744385 C474.205105,215.638385 475.089105,213.709385 475.108105,211.980385 C475.111105,211.727385 475.096105,211.476385 475.063105,211.228385 Z M253.411105,177.480385 C252.939105,177.480385 252.526105,177.546385 252.188105,177.691385 C242.885105,181.678385 241.492105,214.381385 242.451105,229.083385 C247.526105,227.829385 251.848105,228.229385 255.416105,228.559385 C261.771105,229.150385 265.269105,229.472385 269.081105,221.315385 C273.280105,212.332385 276.155105,201.678385 278.937105,191.375385 C279.246105,190.230385 279.553105,189.092385 279.859105,187.968385 C277.549105,187.304385 275.322105,186.593385 273.167105,185.832385 C271.573105,185.268385 269.441105,184.148385 266.972105,182.852385 C265.606105,182.134385 263.961105,181.271385 262.256105,180.448385 C259.803105,179.696385 257.468105,178.826385 255.413105,177.761385 C254.673105,177.582385 253.997105,177.480385 253.411105,177.480385 Z M296.033105,191.619385 C295.402105,192.789385 294.754105,194.031385 294.085105,195.345385 C293.789105,195.928385 293.529105,196.440385 293.310105,196.861385 C292.108105,199.167385 290.767105,201.619385 289.346105,204.214385 C283.504105,214.888385 276.579105,227.541385 275.051105,238.173385 C278.673105,235.298385 279.988105,230.665385 281.536105,225.215385 C282.341105,222.378385 283.175105,219.444385 284.422105,216.623385 C286.283105,212.412385 289.128105,208.310385 291.879105,204.343385 C294.815105,200.110385 297.614105,196.075385 299.146105,192.131385 C298.093105,191.966385 297.055105,191.795385 296.033105,191.619385 Z M257.918105,232.771385 C263.063105,234.220385 267.814105,237.277385 270.594105,240.419385 C270.669105,240.398385 270.744105,240.374385 270.817105,240.352385 C271.602105,228.303385 279.356105,214.135385 285.837105,202.293385 C287.248105,199.717385 288.580105,197.283385 289.762105,195.013385 C289.977105,194.602385 290.230105,194.102385 290.520105,193.533385 C290.977105,192.632385 291.438105,191.738385 291.902105,190.854385 C289.062105,190.293385 286.339105,189.681385 283.720105,189.014385 C283.414105,190.137385 283.107105,191.273385 282.798105,192.418385 C279.973105,202.886385 277.051105,213.710385 272.705105,223.008385 C268.444105,232.125385 263.353105,233.075385 257.918105,232.771385 Z M491.239105,264.249385 C491.077105,266.618385 491.771105,270.921385 492.741105,276.911385 C499.473105,274.222385 503.764105,270.621385 506.720105,266.191385 C506.592105,264.607385 506.474105,263.022385 506.363105,261.432385 C502.014105,259.507385 495.656105,261.136385 491.239105,264.249385 Z M487.403105,268.100385 C485.362105,271.293385 485.801105,274.282385 488.704105,277.007385 C488.104105,273.304385 487.644105,270.413385 487.403105,268.100385 Z M252.479105,295.224385 C255.450105,295.224385 258.311105,295.738385 260.771105,296.923385 C261.051105,295.600385 261.336105,294.314385 261.609105,293.085385 C261.938105,291.600385 262.246105,290.217385 262.493105,288.985385 C264.133105,280.832385 264.681105,276.393385 262.719105,271.899385 C260.561105,270.916385 258.288105,270.306385 255.953105,270.182385 C255.741105,274.888385 254.525105,280.482385 253.249105,286.360385 C252.616105,289.269385 251.964105,292.271385 251.423105,295.245385 C251.776105,295.231385 252.128105,295.224385 252.479105,295.224385 Z M263.338105,305.133385 C262.778105,309.026385 262.527105,312.878385 263.038105,316.007385 C264.285105,311.549385 264.386105,307.882385 263.338105,305.133385 Z M265.744105,268.979385 C273.408105,273.055385 279.567105,280.959385 282.437105,288.722385 C287.073105,301.269385 282.584105,311.196385 277.831105,321.705385 C277.542105,322.342385 277.252105,322.984385 276.962105,323.629385 C288.544105,323.065385 304.711105,303.567385 311.679105,292.771385 C309.306105,284.900385 301.819105,279.588385 293.909105,273.975385 C284.628105,267.389385 275.031105,260.580385 271.606105,248.721385 C271.214105,247.362385 270.965105,245.950385 270.843105,244.497385 C270.660105,244.542385 270.476105,244.586385 270.288105,244.628385 C269.513105,244.800385 268.710105,244.499385 268.241105,243.862385 C265.436105,240.049385 258.255105,235.940385 252.038105,235.899385 C248.618105,235.900385 246.045105,237.042385 244.290105,239.364385 C240.635105,244.200385 245.023105,248.274385 252.135105,253.938385 C254.274105,255.642385 256.294105,257.251385 257.869105,258.904385 C261.625105,262.847385 264.155105,265.984385 265.744105,268.979385 Z M510.823105,267.292385 C512.288105,284.917385 514.692105,302.114385 516.904105,317.250385 C517.233105,319.505385 517.804105,321.856385 518.482105,324.296385 C518.440105,323.390385 518.398105,322.489385 518.357105,321.592385 C518.028105,314.439385 517.718105,307.681385 516.953105,300.336385 C516.835105,299.207385 516.716105,297.824385 516.581105,296.256385 C515.923105,288.639385 514.714105,274.648385 511.090105,266.838385 C511.002105,266.991385 510.913105,267.142385 510.823105,267.292385 Z M250.765105,299.286385 C249.644105,307.240385 249.792105,314.581385 253.855105,318.875385 C258.085105,323.347385 264.962105,325.595385 272.427105,326.610385 C272.348105,326.509385 272.279105,326.400385 272.220105,326.284385 C271.950105,325.752385 271.931105,325.128385 272.168105,324.582385 C272.834105,323.045385 273.515105,321.540385 274.186105,320.057385 C278.782105,309.893385 282.752105,301.116385 278.685105,290.109385 C276.620105,284.523385 272.692105,278.850385 267.750105,274.989385 C268.335105,278.955385 267.693105,283.419385 266.415105,289.774385 C266.162105,291.029385 265.850105,292.438385 265.514105,293.952385 C265.140105,295.639385 264.727105,297.498385 264.338105,299.436385 C267.629105,302.740385 270.377105,309.416385 265.000105,322.508385 C264.727105,323.176385 264.114105,323.644385 263.397105,323.733385 C262.680105,323.826385 261.973105,323.519385 261.543105,322.939385 C257.779105,317.855385 258.466105,309.157385 259.954105,301.029385 C257.487105,299.487385 254.184105,299.023385 250.765105,299.286385 Z M445.133105,333.441385 C446.150105,333.609385 447.247105,333.856385 448.441105,334.195385 C448.647105,333.774385 448.851105,333.358385 449.053105,332.946385 C449.810105,331.400385 450.544105,329.902385 451.204105,328.461385 C454.637105,320.970385 454.701105,313.474385 454.769105,305.538385 C454.799105,301.951385 454.831105,298.243385 455.206105,294.569385 C455.346105,293.191385 455.465105,291.675385 455.592105,290.075385 C455.860105,286.665385 456.152105,282.961385 456.714105,279.335385 C454.006105,284.519385 452.662105,290.789385 451.308105,299.142385 C450.922105,301.523385 450.608105,304.461385 450.276105,307.571385 C449.375105,316.013385 448.321105,325.896385 445.133105,333.441385 Z M472.213105,233.478385 C471.072105,233.478385 470.034105,233.656385 469.132105,234.017385 C463.064105,236.447385 443.343105,253.364385 440.616105,258.478385 C436.818105,265.597385 437.666105,277.102385 438.414105,287.251385 C438.796105,292.431385 439.156105,297.324385 438.950105,301.566385 C438.819105,304.257385 438.023105,307.968385 437.103105,312.266385 C435.507105,319.717385 433.379105,329.649385 435.143105,334.806385 C436.814105,333.967385 438.605105,333.342385 440.845105,333.192385 C444.283105,326.035385 445.416105,315.419385 446.299105,307.147385 C446.637105,303.981385 446.956105,300.991385 447.359105,298.501385 C449.535105,285.078385 451.824105,276.386385 459.441105,269.105385 C460.570105,266.504385 462.062105,264.219385 464.062105,262.469385 C468.510105,258.580385 475.190105,256.306385 481.651105,254.108385 C485.206105,252.899385 488.851105,251.659385 491.985105,250.178385 C492.525105,249.892385 493.062105,249.606385 493.596105,249.319385 C491.820105,244.412385 486.758105,239.081385 480.746105,235.936385 C477.651105,234.316385 474.690105,233.478385 472.213105,233.478385 Z M445.988105,359.465385 C446.111105,359.465385 446.234105,359.466385 446.355105,359.467385 C448.183105,354.184385 448.876105,349.039385 448.442105,343.908385 C446.456105,348.952385 445.135105,354.213385 445.819105,359.465385 C445.875105,359.465385 445.932105,359.465385 445.988105,359.465385 Z M513.065105,366.839385 C518.781105,369.225385 522.233105,373.481385 525.218105,377.434385 C525.154105,370.218385 523.705105,363.543385 522.300105,357.075385 C522.071105,356.017385 521.839105,354.953385 521.613105,353.879385 C520.350105,356.390385 518.591105,358.299385 517.048105,359.974385 C514.940105,362.262385 513.221105,364.129385 513.065105,366.839385 Z M499.193105,394.109385 C507.333105,395.764385 524.283105,398.166385 528.023105,397.017385 C531.246105,396.028385 533.042105,394.361385 533.364105,392.063385 C533.398105,391.816385 533.416105,391.564385 533.418105,391.306385 C531.843105,390.114385 530.201105,388.825385 528.434105,387.319385 C526.229105,385.442385 524.486105,383.120385 522.640105,380.661385 C519.487105,376.462385 516.228105,372.121385 510.451105,370.122385 C509.716105,369.868385 509.195105,369.209385 509.115105,368.436385 C508.585105,363.257385 511.392105,360.210385 514.106105,357.264385 C516.704105,354.444385 519.158105,351.781385 519.319105,346.936385 C519.491105,341.779385 517.707105,335.794385 515.981105,330.007385 C514.771105,325.947385 513.519105,321.747385 512.946105,317.829385 C510.912105,303.912385 508.717105,288.259385 507.229105,272.104385 C503.952105,275.658385 499.527105,278.647385 493.338105,280.972385 C493.920105,285.348385 494.327105,289.762385 494.722105,294.064385 C495.467105,302.173385 496.238105,310.559385 498.189105,318.317385 C499.226105,322.440385 500.562105,326.586385 501.854105,330.595385 C504.370105,338.407385 506.972105,346.484385 507.545105,354.902385 C508.316105,366.217385 504.940105,376.448385 501.676105,386.341385 C500.835105,388.890385 499.971105,391.506385 499.193105,394.109385 Z M1115.88611,521.640385 C1110.64611,521.640385 1104.08611,521.440385 1097.38611,521.074385 C1088.99611,520.616385 1068.37611,519.203385 1058.05611,515.979385 C1055.50611,515.184385 1052.97611,514.360385 1050.43611,513.535385 C1042.58611,510.980385 1034.46611,508.339385 1026.11611,506.663385 C1023.87611,506.212385 1015.86611,505.685385 1005.72611,505.018385 C977.996105,503.193385 931.590105,500.137385 915.881105,493.168385 C909.314105,490.254385 902.816105,487.025385 896.532105,483.902385 C880.735105,476.050385 865.815105,468.634385 849.358105,465.511385 C844.025105,464.498385 838.331105,464.121385 832.825105,463.754385 C826.296105,463.320385 819.545105,462.872385 813.119105,461.376385 C807.172105,459.994385 801.212105,457.568385 795.449105,455.223385 C791.660105,453.681385 788.082105,452.225385 784.524105,451.050385 C780.183105,449.616385 775.908105,447.822385 771.773105,446.087385 C766.255105,443.772385 760.550105,441.377385 754.417105,439.701385 C746.146105,437.441385 738.850105,438.254385 730.405105,439.197385 C728.667105,439.390385 726.897105,439.588385 725.077105,439.763385 C720.178105,440.233385 715.341105,440.886385 710.665105,441.518385 C694.401105,443.717385 679.042105,445.792385 662.645105,440.300385 C654.756105,437.657385 647.018105,434.655385 639.536105,431.751385 C627.551105,427.101385 616.232105,422.709385 604.183105,419.588385 C597.794105,417.933385 591.198105,417.481385 584.818105,417.043385 C571.792105,416.151385 558.321105,415.228385 547.917105,403.579385 C544.150105,399.361385 540.800105,396.790385 537.019105,393.987385 C536.319105,396.248385 534.392105,399.247385 529.197105,400.841385 C523.499105,402.588385 501.288105,398.748385 496.218105,397.555385 C495.688105,397.430385 495.231105,397.093385 494.954105,396.624385 C494.677105,396.155385 494.604105,395.593385 494.750105,395.068385 C495.690105,391.715385 496.802105,388.346385 497.877105,385.088385 C501.021105,375.560385 504.272105,365.707385 503.555105,355.173385 C503.015105,347.245385 500.602105,339.753385 498.046105,331.822385 C496.735105,327.751385 495.378105,323.542385 494.310105,319.291385 C492.284105,311.234385 491.499105,302.692385 490.739105,294.430385 C490.368105,290.394385 489.987105,286.257385 489.461105,282.174385 C489.071105,282.169385 488.685105,282.050385 488.354105,281.825385 C482.034105,277.498385 480.427105,271.546385 484.059105,265.906385 C484.974105,264.484385 486.182105,263.155385 487.593105,261.971385 C487.617105,261.893385 487.642105,261.816385 487.667105,261.740385 C488.842105,258.319385 491.979105,257.699385 496.728105,256.759385 C499.501105,256.211385 502.953105,255.529385 507.441105,254.156385 C508.027105,253.976385 508.665105,254.075385 509.169105,254.426385 C509.673105,254.778385 509.988105,255.340385 510.023105,255.954385 C510.083105,256.997385 510.146105,258.039385 510.214105,259.081385 C510.220105,259.085385 510.225105,259.089385 510.231105,259.094385 C511.865105,254.633385 512.918105,249.597385 514.081105,244.039385 C514.387105,242.576385 514.696105,241.094385 515.023105,239.589385 C509.752105,244.447385 503.642105,248.346385 497.144105,251.934385 C497.103105,251.964385 497.060105,251.993385 497.016105,252.020385 C495.983105,252.651385 494.878105,253.234385 493.721105,253.782385 C491.044105,255.198385 488.316105,256.581385 485.569105,257.974385 C480.944105,260.319385 476.162105,262.745385 471.413105,265.415385 C467.928105,267.375385 465.119105,269.346385 462.824105,271.444385 C460.631105,277.041385 460.045105,284.478385 459.580105,290.389385 C459.451105,292.023385 459.329105,293.569385 459.185105,294.975385 C458.829105,298.463385 458.798105,302.077385 458.769105,305.572385 C458.700105,313.579385 458.629105,321.859385 454.841105,330.127385 C454.167105,331.598385 453.418105,333.127385 452.645105,334.706385 C452.229105,335.554385 451.808105,336.415385 451.388105,337.286385 C453.427105,345.559385 452.840105,353.737385 449.604105,362.239385 C449.263105,363.133385 448.334105,363.656385 447.392105,363.498385 C447.001105,363.449385 444.873105,363.453385 444.431105,363.505385 C443.409105,363.626385 442.402105,362.954385 442.188105,361.943385 C440.387105,353.480385 443.352105,345.123385 446.695105,337.861385 C445.388105,337.515385 444.248105,337.303385 443.229105,337.207385 C442.209105,338.887385 441.029105,340.372385 439.654105,341.600385 C439.190105,342.015385 438.561105,342.190385 437.948105,342.074385 C436.360105,341.772385 435.008105,341.121385 433.906105,340.130385 C432.112105,341.220385 430.069105,342.432385 427.328105,343.503385 C424.370105,344.659385 420.798105,344.924385 417.344105,345.181385 C410.078105,345.722385 405.578105,346.383385 404.364105,350.993385 C404.221105,351.536385 403.857105,351.994385 403.360105,352.254385 C402.862105,352.516385 402.279105,352.557385 401.751105,352.365385 C391.680105,348.728385 381.447105,346.395385 370.614105,343.925385 C364.672105,342.571385 358.529105,341.170385 352.334105,339.522385 C347.794105,338.314385 343.650105,336.991385 339.642105,335.711385 C327.923105,331.969385 317.804105,328.738385 303.452105,330.169385 C291.308105,331.381385 262.868105,334.221385 250.950105,321.625385 C246.020105,316.415385 245.577105,308.435385 246.646105,299.921385 C244.859105,300.332385 243.119105,300.900385 241.529105,301.576385 C235.329105,304.211385 231.353105,308.313385 231.398105,312.025385 C231.406105,312.653385 231.118105,313.248385 230.621105,313.632385 C230.124105,314.016385 229.475105,314.144385 228.870105,313.978385 C221.157105,311.864385 213.674105,309.554385 205.752105,307.108385 C196.044105,304.111385 186.007105,301.012385 175.608105,298.342385 C167.633105,296.294385 160.273105,292.747385 153.156105,289.315385 C143.035105,284.435385 133.475105,279.827385 122.435105,279.291385 C118.417105,279.096385 114.201105,279.035385 110.124105,278.975385 C92.839105,278.722385 74.965105,278.460385 60.792105,268.662385 C57.802105,266.592385 55.321105,264.678385 53.133105,262.989385 C46.486105,257.859385 42.095105,254.469385 31.048105,252.246385 C24.223105,250.871385 18.340105,251.024385 12.112105,251.186385 C8.88510503,251.271385 5.54710503,251.356385 1.93610503,251.238385 C0.831105027,251.201385 -0.0338949728,250.277385 0.00102089668,249.172385 C0.0391050272,248.069385 0.934105027,247.170385 2.06710503,247.240385 C5.56210503,247.355385 8.83910503,247.271385 12.008105,247.188385 C18.467105,247.019385 24.570105,246.861385 31.837105,248.324385 C43.800105,250.732385 48.740105,254.545385 55.577105,259.823385 C57.727105,261.482385 60.163105,263.362385 63.068105,265.372385 C76.239105,274.479385 93.495105,274.731385 110.183105,274.975385 C114.293105,275.036385 118.544105,275.098385 122.628105,275.295385 C134.480105,275.871385 144.858105,280.873385 154.894105,285.711385 C161.834105,289.058385 169.012105,292.519385 176.603105,294.467385 C187.095105,297.162385 197.180105,300.275385 206.932105,303.287385 C214.064105,305.488385 220.839105,307.580385 227.726105,309.510385 C228.929105,304.986385 233.382105,300.693385 239.964105,297.895385 C242.243105,296.926385 244.740105,296.165385 247.279105,295.707385 C247.867105,292.289385 248.616105,288.843385 249.340105,285.510385 C250.754105,278.998385 252.091105,272.848385 251.979105,268.240385 C251.953105,267.163385 252.785105,266.258385 253.860105,266.195385 C255.735105,266.079385 257.581105,266.239385 259.377105,266.621385 C258.186105,265.127385 256.729105,263.507385 254.973105,261.663385 C253.587105,260.208385 251.671105,258.683385 249.643105,257.067385 C243.387105,252.084385 234.818105,245.260385 241.099105,236.952385 C242.950105,234.504385 245.484105,232.912385 248.541105,232.249385 C246.308105,232.339385 243.909105,232.697385 241.303105,233.588385 C240.725105,233.787385 240.087105,233.709385 239.573105,233.377385 C239.060105,233.047385 238.725105,232.499385 238.665105,231.891385 C237.851105,223.603385 236.644105,180.415385 250.416105,174.102385 C249.998105,173.644385 249.621105,173.162385 249.289105,172.653385 C248.879105,172.025385 248.854105,171.220385 249.226105,170.568385 C250.547105,168.250385 251.887105,162.959385 252.302105,157.686385 C251.520105,158.906385 250.708105,160.116385 249.915105,161.297385 C248.894105,162.818385 247.929105,164.254385 247.114105,165.582385 C246.400105,166.745385 245.247105,170.126385 244.025105,173.707385 C239.921105,185.737385 236.906105,193.593385 232.415105,193.387385 C228.941105,193.216385 227.351105,188.321385 226.353105,184.074385 C225.640105,181.039385 229.479105,168.799385 231.832105,161.773385 C238.196105,142.764385 240.092105,141.871385 240.806105,141.535385 C241.099105,141.397385 241.386105,141.269385 241.667105,141.151385 C241.356105,141.160385 241.036105,141.172385 240.709105,141.187385 C239.907105,141.221385 239.191105,140.796385 238.835105,140.097385 C235.315105,133.189385 244.935105,104.623385 246.844105,100.104385 C250.108105,92.3783855 254.177105,88.6163855 258.830105,86.2343855 C258.550105,86.2363855 258.266105,86.2403855 257.978105,86.2473855 C257.156105,86.2673855 256.413105,85.7843855 256.092105,85.0323855 C255.771105,84.2793855 255.940105,83.4073855 256.520105,82.8303855 C261.378105,77.9933855 272.924105,74.3513855 280.945105,76.9303855 C281.724105,76.2763855 282.454105,75.5663855 283.125105,74.8153855 C282.266105,73.9923855 281.310105,73.3243855 280.091105,72.9833855 C276.075105,71.8613855 271.031105,73.1593855 266.581105,74.3043855 C264.598105,74.8143855 262.726105,75.2963855 260.984105,75.5693855 C260.345105,75.6703855 259.699105,75.4553855 259.247105,74.9953855 C258.795105,74.5343855 258.593105,73.8833855 258.705105,73.2483855 C260.400105,63.5863855 264.045105,51.4703855 271.780105,48.6173855 C275.920105,47.0903855 280.541105,48.3993855 285.515105,52.5063855 C291.430105,57.3903855 291.979105,63.0103855 291.397105,66.8653855 C290.996105,69.5303855 289.905105,72.1903855 288.310105,74.6273855 C290.255105,76.9353855 291.307105,77.9393855 294.394105,76.4003855 C294.565105,68.5093855 298.494105,58.8353855 305.220105,55.3863855 C308.467105,53.7223855 313.713105,52.7913855 320.278105,57.8173855 C325.337105,61.6903855 325.895105,65.6803855 325.592105,68.1443855 C327.098105,68.7733855 328.606105,69.5273855 330.110105,70.4043855 C343.040105,77.9523855 342.968105,83.4023855 342.795105,96.5723855 L342.777105,97.9483855 C342.522105,117.506385 342.206105,141.846385 335.696105,161.190385 C333.931105,166.435385 330.437105,170.833385 325.548105,174.089385 C325.549105,174.106385 325.550105,174.123385 325.551105,174.139385 C325.641105,175.895385 326.138105,179.284385 326.663105,182.871385 C327.998105,191.982385 328.884105,198.657385 328.130105,201.567385 C325.988105,209.833385 320.300105,212.769385 315.921105,212.001385 C311.526105,211.229385 307.453105,206.627385 308.261105,198.090385 C308.388105,196.752385 309.194105,194.972385 310.310105,192.509385 C312.194105,188.348385 315.042105,182.060385 313.238105,179.319385 C313.209105,179.276385 313.180105,179.234385 313.149105,179.192385 C309.936105,179.903385 306.633105,180.251385 303.346105,180.255385 C301.819105,181.990385 300.069105,184.545385 298.105105,187.912385 C299.401105,188.126385 300.722105,188.332385 302.068105,188.527385 C302.633105,188.609385 303.135105,188.928385 303.449105,189.404385 C303.764105,189.879385 303.860105,190.467385 303.714105,191.018385 C302.311105,196.320385 298.679105,201.558385 295.166105,206.623385 C292.521105,210.435385 289.788105,214.377385 288.080105,218.240385 C286.946105,220.805385 286.152105,223.603385 285.384105,226.308385 C283.512105,232.899385 281.588105,239.678385 274.757105,243.078385 C274.814105,244.663385 275.036105,246.180385 275.449105,247.612385 C278.486105,258.126385 287.503105,264.525385 296.224105,270.712385 C305.023105,276.957385 313.334105,282.854385 315.783105,292.610385 C315.916105,293.140385 315.827105,293.701385 315.536105,294.163385 C315.328105,294.494385 296.879105,323.493385 279.971105,327.248385 C288.873105,327.603385 297.655105,326.727385 303.055105,326.189385 C318.229105,324.678385 329.221105,328.185385 340.858105,331.901385 C344.821105,333.165385 348.917105,334.474385 353.362105,335.657385 C359.488105,337.287385 365.596105,338.679385 371.503105,340.026385 C381.794105,342.372385 391.551105,344.596385 401.235105,347.941385 C404.002105,342.164385 410.896105,341.650385 417.047105,341.193385 C420.207105,340.957385 423.474105,340.714385 425.873105,339.777385 C428.210105,338.864385 429.972105,337.837385 431.637105,336.829385 C429.074105,330.652385 431.250105,320.490385 433.191105,311.428385 C434.039105,307.473385 434.839105,303.737385 434.955105,301.371385 C435.149105,297.373385 434.797105,292.600385 434.425105,287.545385 C433.637105,276.854385 432.744105,264.736385 437.086105,256.595385 C440.293105,250.582385 460.570105,233.137385 467.645105,230.304385 C471.648105,228.698385 476.960105,229.441385 482.601105,232.391385 C488.270105,235.357385 494.585105,240.957385 497.135105,247.363385 C504.720105,243.049385 511.497105,238.312385 516.827105,231.982385 C516.885105,231.758385 516.945105,231.533385 517.006105,231.306385 C518.812105,224.563385 521.514105,221.407385 524.537105,219.079385 C525.567105,216.503385 526.433105,213.723385 527.117105,210.706385 C526.492105,210.514385 525.858105,210.320385 525.218105,210.123385 C509.566105,205.315385 490.086105,199.330385 479.480105,206.578385 C479.004105,206.904385 478.549105,207.253385 478.116105,207.628385 C478.756105,208.985385 479.126105,210.438385 479.108105,212.024385 C479.063105,216.089385 476.382105,220.289385 470.912105,224.860385 C470.295105,225.374385 469.431105,225.472385 468.716105,225.104385 C468.001105,224.737385 467.576105,223.978385 467.635105,223.177385 C468.134105,216.429385 469.960105,211.059385 473.078105,207.137385 C471.717105,205.440385 469.821105,203.783385 467.869105,202.076385 C462.406105,197.299385 455.607105,191.356385 460.574105,182.289385 C465.089105,174.044385 471.180105,170.950385 476.074105,168.464385 C483.090105,164.899385 487.725105,162.545385 486.220105,147.659385 C485.312105,138.681385 480.818105,109.182385 461.122105,106.554385 C456.015105,105.872385 452.498105,106.531385 450.671105,108.512385 C447.133105,112.349385 449.103105,121.433385 451.008105,130.218385 C452.022105,134.896385 453.006105,139.431385 453.285105,143.471385 C454.854105,147.125385 456.867105,150.434385 459.675105,153.054385 C460.256105,153.597385 462.161105,154.270385 463.841105,154.865385 C468.649105,156.566385 476.698105,159.413385 474.047105,166.940385 C471.653105,173.740385 451.722105,170.956385 451.524105,170.916385 C442.343105,169.099385 436.438105,160.938385 437.484105,155.130385 C437.795105,153.409385 439.541105,148.137385 449.020105,149.073385 C449.332105,147.719385 449.410105,146.136385 449.326105,144.400385 C447.485105,139.931385 446.253105,135.096385 445.042105,130.343385 C444.380105,127.745385 443.754105,125.290385 443.038105,122.926385 C439.205105,110.280385 440.858105,104.542385 448.466105,94.4123855 C445.959105,92.4643855 444.446105,89.3943855 444.143105,85.5343855 C443.370105,75.7303855 450.244105,62.8463855 459.466105,56.8143855 C466.460105,52.2403855 474.240105,51.8213855 481.377105,55.6373855 C486.316105,58.2773855 489.947105,67.2493855 489.631105,75.2023855 C497.419105,71.0613855 506.049105,69.6673855 515.687105,73.2253855 C534.190105,80.0573855 549.208105,103.191385 553.037105,121.610385 C553.873105,125.627385 554.540105,129.624385 555.185105,133.490385 C556.280105,140.045385 557.412105,146.823385 559.373105,153.636385 C560.477105,157.470385 562.232105,161.389385 564.090105,165.539385 C567.107105,172.273385 570.227105,179.237385 570.561105,186.200385 C571.072105,196.857385 566.120105,205.296385 556.973105,209.354385 C551.708105,211.689385 545.685105,212.277385 539.877105,211.306385 C539.785105,211.427385 539.693105,211.547385 539.598105,211.668385 C536.049105,216.198385 532.742105,218.368385 529.823105,220.282385 C529.114105,220.747385 528.440105,221.189385 527.800105,221.642385 C525.830105,226.264385 523.357105,230.261385 520.490105,233.792385 C519.508105,237.625385 518.741105,241.295385 517.996105,244.857385 C516.648105,251.298385 515.408105,257.228385 513.232105,262.474385 C517.900105,269.711385 519.475105,283.282385 520.566105,295.913385 C520.699105,297.453385 520.816105,298.812385 520.932105,299.922385 C521.709105,307.382385 522.036105,314.513385 522.353105,321.409385 C522.648105,327.822385 522.953105,334.454385 523.617105,341.451385 C524.095105,346.491385 525.122105,351.219385 526.209105,356.225385 C527.688105,363.032385 529.213105,370.060385 529.220105,377.861385 C533.449105,380.899385 536.379105,385.124385 537.188105,389.134385 C537.661105,389.486385 538.129105,389.832385 538.594105,390.176385 C542.708105,393.219385 546.594105,396.093385 550.900105,400.915385 C560.219105,411.348385 572.300105,412.176385 585.091105,413.053385 C591.653105,413.503385 598.438105,413.968385 605.185105,415.715385 C617.460105,418.895385 629.418105,423.535385 640.982105,428.022385 C648.422105,430.909385 656.116105,433.894385 663.917105,436.507385 C679.429105,441.704385 694.342105,439.689385 710.128105,437.554385 C714.843105,436.917385 719.719105,436.258385 724.695105,435.781385 C726.494105,435.609385 728.244105,435.413385 729.961105,435.221385 C738.447105,434.274385 746.463105,433.380385 755.471105,435.842385 C761.857105,437.588385 767.685105,440.034385 773.321105,442.399385 C777.572105,444.182385 781.585105,445.867385 785.778105,447.251385 C789.464105,448.469385 793.273105,450.019385 796.957105,451.518385 C802.576105,453.804385 808.386105,456.169385 814.025105,457.480385 C820.135105,458.902385 826.721105,459.339385 833.090105,459.763385 C838.715105,460.137385 844.532105,460.524385 850.104105,461.582385 C867.102105,464.807385 882.968105,472.693385 898.312105,480.320385 C904.558105,483.424385 911.016105,486.634385 917.504105,489.512385 C932.562105,496.193385 978.526105,499.218385 1005.98611,501.027385 C1016.67611,501.730385 1024.40611,502.239385 1026.90611,502.741385 C1035.48611,504.463385 1043.71611,507.141385 1051.67611,509.731385 C1054.19611,510.551385 1056.71611,511.371385 1059.24611,512.161385 C1074.89611,517.044385 1118.59611,518.337385 1123.27611,517.361385 C1123.83611,517.037385 1124.54611,516.994385 1125.17611,517.308385 C1126.15611,517.806385 1126.55611,519.009385 1126.05611,519.996385 C1125.49611,521.119385 1125.23611,521.631385 1116.08611,521.640385 C1116.01611,521.640385 1115.95611,521.640385 1115.88611,521.640385 L1115.88611,521.640385 Z" id="Fill-3"></path>
        </g>
    </g>
</svg>