<svg xmlns="http://www.w3.org/2000/svg" width="1000" height="570" viewBox="0 0 1000 570">
  <defs>
    <linearGradient id="img-tax-grad-a" x1="26.74%" x2="75.412%" y1="93.581%" y2="93.581%">
      <stop offset="0%" stop-color="#A2BB68"/>
      <stop offset="100%" stop-color="#D7478C"/>
    </linearGradient>
  </defs>
  <path fill="url(#img-tax-grad-a)" fill-rule="evenodd" d="M399.807869,26.2309929 C399.317707,26.2309929 398.788848,26.2974179 398.201943,26.4344596 C390.672149,28.1992341 382.368415,46.7888588 380.214281,55.8452187 C378.066597,64.8615946 374.358133,86.6663786 386.241341,94.3926279 C392.145861,98.2330197 398.679206,98.4422905 405.651118,95.0143135 C408.41473,93.6567946 411.278309,91.7014515 414.154787,89.2240602 C415.828433,86.0005172 417.327942,82.7431168 418.434032,79.4766878 C421.436275,70.5886474 424.919006,61.8344242 428.285647,53.3681498 C429.565873,50.1533129 430.881571,46.8472225 432.158573,43.5585443 C424.335326,43.1451621 416.412113,40.1505593 410.133522,35.1832011 C408.372808,33.7924698 407.031312,32.1015365 405.844603,30.609878 C403.658222,27.8606605 402.229657,26.2309929 399.807869,26.2309929 Z M449.965648,107.07108 C450.378416,111.544443 451.761835,115.666013 454.696358,118.864727 C457.395475,121.805803 461.771462,123.461266 466.369957,123.75244 C463.209701,117.275688 454.144926,110.287207 450.384866,107.390307 C450.246202,107.283898 450.107537,107.177812 449.965648,107.07108 Z M346.941299,117.177018 C348.634294,117.251504 350.372435,117.308578 352.187969,117.368232 C360.575547,117.64296 370.078889,117.954448 378.456792,120.320271 C384.899845,122.140185 390.036873,124.98646 393.974295,128.941967 C390.785016,122.835711 385.177173,118.65997 379.3307,114.310751 C376.418749,112.143557 373.406832,109.903168 370.620647,107.367735 C366.583258,103.69663 364.000233,99.7985195 362.93929,95.7788449 C362.139551,96.5382171 361.314015,97.3040383 360.47558,98.0811453 C354.25181,103.860758 347.824881,109.825457 346.941299,117.177018 Z M290.962845,136.240001 C287.19956,138.130531 283.945786,142.083136 281.969014,147.389068 C280.662989,150.895401 279.869701,154.385933 279.128008,157.773604 C284.206991,151.253321 288.23793,143.336826 290.962845,136.240001 Z M558.942888,153.835832 C555.376313,158.138941 558.862269,163.55773 563.431741,169.651733 C563.692946,170.000625 563.947702,170.340488 564.192783,170.670355 C564.073467,164.475104 563.734868,155.831804 558.942888,153.835832 Z M474.483431,127.254258 C474.863952,127.254258 475.238023,127.402908 475.515352,127.68602 C477.617889,129.813874 478.843295,132.614684 480.033228,135.323273 C481.020002,137.579463 482.045473,139.912718 483.544982,141.735857 C486.018366,144.74497 489.665559,147.701523 492.880636,150.310152 C493.54171,150.844776 494.186661,151.368436 494.809037,151.880811 C496.837406,153.55143 498.898022,155.217857 500.887693,156.82979 C506.982473,161.760066 513.261063,166.843184 519.159133,172.484787 C521.184277,165.051969 520.278122,156.043009 519.40099,147.304263 C518.907603,142.387208 518.440014,137.743268 518.475486,133.395983 C518.504509,129.882556 518.111089,126.433943 517.730568,123.099154 C516.856661,115.429656 516.034349,108.186116 519.949197,100.490499 C524.089778,92.3557047 531.951721,72.9364134 521.813103,58.401288 C522.300041,61.984364 523.02561,65.7428532 524.26069,69.244994 C524.486422,69.889896 524.231667,70.6060598 523.647987,70.9633355 C523.067532,71.3206113 522.31294,71.2229086 521.842126,70.7285912 C519.775061,68.566557 516.537411,66.3616368 513.106275,64.0274137 C504.725147,58.3219651 494.531709,51.3847535 496.01187,40.8712374 C478.220918,55.9022925 481.719773,75.639198 488.185399,99.6063387 C490.784548,109.250204 488.391783,117.397252 481.442444,122.54615 C478.485347,124.738173 474.483431,126.139222 470.284805,126.559698 C470.28803,126.597425 470.294479,126.63483 470.297704,126.672556 C470.423469,127.656677 470.400896,128.601136 470.22676,129.501097 C471.400569,128.743659 472.600176,128.045875 473.815908,127.416773 C474.028741,127.307462 474.254474,127.254258 474.483431,127.254258 Z M607.95588,206.407281 C608.097769,206.906758 608.262232,207.391724 608.449267,207.859923 C608.284805,207.374312 608.120343,206.890313 607.95588,206.407281 Z M671.812402,214.449533 C672.695984,214.449533 673.363507,215.038328 673.792399,215.418176 C673.921389,215.532323 674.124549,215.711606 674.243864,215.78706 C676.784968,215.006728 677.913631,211.455252 679.010047,208.018892 C679.448613,206.634932 679.877505,205.286764 680.399914,204.073058 C678.755291,188.102059 671.57377,170.005784 660.045285,161.256075 C651.960834,155.117897 642.75417,154.28952 632.686497,158.792549 C621.799737,163.66156 613.096134,177.164519 609.303826,188.387105 C608.516987,190.717136 607.839789,193.491183 607.485067,196.345519 C608.955553,200.399374 610.400242,204.538678 611.815907,208.756337 C612.335092,210.30378 612.718838,211.746748 612.980042,213.102332 C613.805579,213.543768 614.724633,213.883309 615.740429,214.12418 C616.727203,214.358924 618.287983,213.869443 619.797166,213.397053 C622.006121,212.705073 624.289245,211.988909 626.236994,212.932078 C626.756179,213.183268 627.226993,213.451224 627.646211,213.735304 C624.979341,207.658391 623.502405,200.600583 623.531428,193.880059 C623.570125,185.307375 626.046734,178.357588 630.50334,174.310183 C630.938682,173.913568 631.573957,173.821025 632.106041,174.076083 C632.638125,174.331465 632.963825,174.884146 632.928353,175.473264 C632.676822,179.563233 633.495909,182.422728 635.366265,183.971138 C639.297236,187.230796 647.991165,185.030712 654.979201,183.263358 C656.346496,182.916401 657.642846,182.589113 658.897274,182.29794 C659.564797,182.143808 660.24522,182.474643 660.538672,183.091492 C661.257792,184.614751 662.202644,186.042241 663.202317,187.553247 C664.321305,189.243535 665.478991,190.991542 666.298078,192.894971 C667.684721,196.116257 667.755665,200.044033 667.82661,203.842506 C667.897554,207.656457 667.965274,211.258557 669.322894,213.620189 C669.545402,214.00971 669.89045,214.395361 670.325792,214.765212 C670.612795,214.706526 670.896573,214.638489 671.1868,214.54788 C671.406083,214.479521 671.615692,214.449533 671.812402,214.449533 Z M677.120342,217.531197 C678.284478,217.686941 679.406691,217.679525 680.367667,217.455099 C680.593399,215.695484 680.719165,213.84397 680.754637,211.925708 C679.919426,214.146751 678.845584,216.233654 677.120342,217.531197 Z M273.516941,210.104505 C274.094171,216.05018 275.28088,221.211976 278.605598,223.212785 C281.440155,224.91984 286.003177,224.339751 292.162452,221.489929 C297.476842,219.030917 308.299107,211.149569 313.710239,205.636301 C309.763144,208.146582 305.248492,209.398337 300.208206,209.357386 C297.518764,209.337394 294.829321,209.129736 292.230172,208.929171 C286.55461,208.491605 281.191849,208.078223 275.848436,209.456378 C275.068046,209.65791 274.290881,209.873953 273.516941,210.104505 Z M630.11637,179.220145 C627.749403,182.823535 626.462727,187.891176 626.433305,193.893279 C626.401457,201.330612 628.326633,209.198095 631.722296,215.478152 C634.082814,219.841559 640.741925,229.685344 651.615786,226.865832 C654.627703,226.084211 656.778612,223.802548 659.058511,221.386422 C661.067531,219.257278 663.141046,217.055582 665.904658,215.890566 C666.314201,215.717733 666.697947,215.578434 667.059119,215.463964 C666.968826,215.332404 666.881758,215.199554 666.807588,215.066059 C665.075897,212.058236 665.001728,207.908936 664.924334,203.896355 C664.859839,200.378092 664.792119,196.739877 663.631208,194.041929 C662.915314,192.377114 661.880169,190.811937 660.783753,189.154861 C659.98079,187.94438 659.158479,186.701331 658.449033,185.387666 C657.562227,185.603063 656.643173,185.835228 655.688646,186.076744 C647.671915,188.10625 638.581342,190.406294 633.512033,186.205724 C631.625554,184.641192 630.490441,182.299552 630.11637,179.220145 Z M569.507173,195.43524 C569.391082,196.133024 569.268541,196.843706 569.146,197.570188 C568.842874,199.337542 568.530073,201.165195 568.239845,203.163102 C567.020889,211.616478 571.938635,215.894113 578.162405,221.310323 C578.949244,221.994242 579.752207,222.692026 580.558395,223.413349 C582.074028,224.766999 583.579986,226.218673 585.066597,227.688405 C581.822497,222.108712 578.755759,216.395202 576.092114,210.505634 C575.734167,209.713372 575.36977,208.912081 575.002148,208.102407 C573.157591,204.050487 571.22274,199.789619 569.507173,195.43524 Z M342.368602,169.772329 C342.40085,169.772329 342.429873,169.773297 342.46212,169.775231 C345.37407,169.957416 347.347618,171.046978 348.321493,173.013285 C351.127026,178.675847 344.28088,189.735595 335.738514,202.540449 C332.833013,206.89515 330.08875,211.008013 329.740477,212.492255 C328.653736,217.144901 329.430901,221.262278 332.055848,224.730239 C335.222554,228.912107 341.033555,231.939599 347.77651,233.05528 C337.496003,221.99134 343.136093,211.99826 348.608496,202.308284 C350.75618,198.505296 352.974809,194.572361 354.393699,190.448212 C356.222133,185.136154 356.576856,177.168711 353.032854,172.228761 C351.120577,169.562736 348.29892,168.210699 344.648501,168.210699 C344.622703,168.210699 344.593681,168.211344 344.567883,168.211021 C344.138991,168.211021 343.729447,168.018518 343.452119,167.686071 C343.17479,167.351689 343.061924,166.910899 343.145767,166.484296 C344.393746,160.027537 341.378604,153.479846 334.874281,148.519904 C326.931719,142.464918 316.428704,140.684666 309.334252,144.191321 C308.624806,144.542793 307.760573,144.258069 307.399401,143.551578 C304.43908,137.770354 300.172734,134.739314 295.390428,135.019524 C295.080852,135.037581 294.771276,135.069504 294.464924,135.114324 C291.107958,144.503454 285.342103,155.752803 277.74459,163.775062 C276.661073,167.981114 275.174463,172.248753 272.410851,176.490274 C269.498901,180.959768 266.189661,183.816684 262.685647,186.841597 C261.86785,187.547765 261.028447,188.272313 260.178725,189.030717 C261.094877,190.583642 262.653722,191.857001 264.58309,192.60025 C267.035191,193.544065 269.653689,193.500856 271.765901,192.480944 C276.316025,190.284407 276.912604,185.644659 277.54143,180.73244 C277.838107,178.433042 278.144459,176.055288 278.876477,173.905184 C281.23377,166.994414 286.680375,162.635843 291.949618,158.420763 C294.539094,156.34837 297.04795,154.342402 299.095667,152.112653 C300.479085,150.10733 301.756087,148.174881 302.849277,146.427842 C303.249146,145.786486 304.077907,145.561093 304.748656,145.908695 C305.419404,146.25662 305.709631,147.062425 305.416179,147.759564 C304.451979,150.051869 303.045987,152.054935 301.398139,153.88162 C300.775762,154.784483 300.130812,155.700244 299.469738,156.620519 C307.354255,153.050019 316.883394,150.105718 324.848529,157.063567 C332.891059,164.090742 330.624059,176.878505 327.302565,186.368562 C324.854979,193.361235 321.559283,198.847739 317.502546,202.675556 C317.476748,202.699739 317.45095,202.724246 317.425152,202.74843 C317.615413,202.811307 317.789549,202.913202 317.944337,203.049921 C320.24036,205.123604 323.455437,203.883135 325.171005,202.95899 C328.498948,201.163905 331.930083,197.287076 331.543113,194.785501 C331.491517,194.447572 331.333504,193.419276 329.063279,192.986224 C328.608589,192.899807 328.224844,192.603475 328.024909,192.187836 C327.824975,191.771874 327.837874,191.286263 328.053932,190.879329 C329.705005,187.778318 331.846239,185.084562 333.919754,182.479802 C336.870402,178.772905 339.656587,175.271409 340.978735,170.810622 C341.162545,170.191838 341.730102,169.772329 342.368602,169.772329 Z M258.416721,203.12473 C253.762761,203.12473 249.327115,203.32465 244.878249,205.923605 C230.958288,214.056142 218.443674,233.142342 216.712305,248.475211 C222.176323,242.403458 228.004416,236.344603 234.232055,230.725571 C246.715067,219.465259 258.606337,212.005999 270.430854,208.038884 C270.308314,206.38213 270.218021,204.698613 270.127728,203.025737 C270.114829,202.788736 270.10193,202.551734 270.089031,202.315055 C266.544707,203.154395 263.06649,203.139563 259.686306,203.127954 C259.261606,203.126342 258.837874,203.12473 258.416721,203.12473 Z M598.423516,243.896406 C599.723091,245.960093 601.048463,248.072147 602.357712,250.177753 C603.647613,246.031032 605.62116,241.890761 607.96233,238.279309 C612.338317,231.528152 617.481795,227.111218 622.518856,225.58022 C622.841331,225.118793 623.176706,224.658655 623.524979,224.199807 C623.860353,223.760951 624.215075,223.324998 624.589147,222.86357 C625.949992,221.188115 627.642986,219.103146 627.33341,217.703064 C627.162498,216.946594 626.369209,216.220434 624.972892,215.544254 C624.060287,215.102496 622.335046,215.643569 620.664624,216.166585 C618.78137,216.756025 616.83362,217.366102 615.069681,216.947883 C614.492451,216.810519 613.934569,216.645102 613.39926,216.452276 C613.741084,222.742973 611.293498,227.108316 608.571808,231.959914 C606.520866,235.615864 604.402205,239.398214 603.015562,244.650942 C602.896246,245.095924 602.576995,245.460294 602.148103,245.631193 C601.722436,245.798867 601.238724,245.756949 600.848529,245.515111 C600.026217,245.005638 599.220029,244.467145 598.423516,243.896406 Z M707.674859,259.087075 L884.616954,259.087075 L882.033928,242.016517 L702.057343,242.016517 L707.674859,259.087075 Z M319.750198,221.18618 C319.024629,221.18618 318.241014,221.37965 317.376781,221.768204 C308.808617,225.620849 312.910501,243.245055 314.880824,251.715844 C315.048511,252.441359 315.203299,253.112057 315.338738,253.711816 C316.267467,257.855312 316.644763,261.789214 316.625414,265.587688 C318.960134,262.685628 325.899798,260.957291 330.636958,261.176557 C331.549562,261.218476 332.604056,261.347457 333.716595,261.482886 C338.802028,262.101992 343.097396,262.359953 344.132541,259.190259 C345.241856,255.788401 337.702387,245.966542 333.6521,240.691243 C331.620507,238.04392 330.014581,235.951213 329.208393,234.544036 C328.457026,233.23811 327.786278,231.714206 327.073608,230.100984 C325.483805,226.504365 323.684394,222.427616 321.075571,221.427696 C320.656353,221.266793 320.214562,221.18618 319.750198,221.18618 Z M59.3105901,266.122956 L201.523727,266.122956 L202.163195,265.361972 C205.945828,260.867004 209.932911,256.130199 214.141211,251.361148 C213.818413,251.074166 213.630733,250.648531 213.655563,250.193875 C214.560429,233.734362 228.188227,212.313295 243.414212,203.417838 C248.949497,200.184299 254.414805,200.206226 259.697915,200.225895 C263.590512,200.239116 267.267373,200.255238 270.991961,199.053141 C271.420853,198.915454 271.885217,198.983169 272.256063,199.236938 C272.62691,199.490062 272.859092,199.901187 272.888115,200.349071 C272.936486,201.186154 272.981632,202.027429 273.026779,202.869349 C273.104173,204.297807 273.181567,205.735293 273.278309,207.150854 C273.894237,206.973183 274.50694,206.805186 275.122867,206.64654 C280.933869,205.147465 286.790017,205.598897 292.45268,206.035818 C295.003458,206.232513 297.644529,206.43598 300.230779,206.455649 C300.298499,206.455972 300.362994,206.456294 300.430714,206.456294 C311.55933,206.456294 319.676029,199.377204 324.561527,185.41056 C327.586343,176.765325 329.759825,165.209002 322.939477,159.248817 C314.951768,152.271622 305.180772,157.022615 296.557788,161.214801 L295.496845,161.731045 C294.890591,162.022864 294.165022,161.86325 293.739355,161.344104 C293.629714,161.209642 293.549095,161.060025 293.494274,160.902669 C288.634574,164.791751 283.668458,168.843025 281.623965,174.841582 C280.985465,176.7147 280.711361,178.845779 280.421133,181.101969 C279.75361,186.310843 278.992568,192.214277 273.026779,195.094409 C270.195447,196.461924 266.736257,196.539312 263.539883,195.308194 C260.507972,194.140277 258.142295,191.926005 257.049104,189.233539 C256.820792,188.671185 256.966551,188.026283 257.414469,187.61677 C258.569252,186.561065 259.697915,185.58694 260.789171,184.644738 C264.278674,181.632723 267.293171,179.031511 269.979389,174.90575 C271.536944,172.514775 272.655932,170.128315 273.52339,167.719284 C271.011309,169.76846 268.337991,171.432952 265.520526,172.567335 C265.348001,172.636662 265.164191,172.672454 264.978445,172.672454 L71.3466512,172.672454 L59.3105901,266.122956 Z M603.657287,258.667888 C603.479926,262.11489 604.092628,265.071766 605.56634,267.096759 C605.995232,267.686844 606.46282,268.128602 606.972331,268.444604 C606.195166,265.181399 605.134223,261.940766 603.657287,258.667888 Z M439.459409,256.336567 C446.795718,258.803318 453.461279,262.811384 457.530914,268.796075 C458.285506,268.528441 459.023974,268.196317 459.746319,267.819049 C457.572836,264.568742 457.024629,261.495784 458.114594,258.664664 C461.094264,250.935513 475.654016,247.698104 483.95775,246.463117 C476.044211,236.047948 472.545356,226.049386 469.336728,212.692497 L469.227087,212.242355 C467.276112,204.106916 465.254193,195.694168 462.368041,187.813787 C461.123287,184.416443 459.27873,181.074883 457.492217,177.843279 C455.4574,174.161533 453.354862,170.354676 452.058512,166.349512 C449.123988,157.287348 452.680889,148.900396 456.182969,143.460325 C457.363227,141.626546 458.711173,139.84984 460.194559,138.162777 C460.155862,138.180189 460.117165,138.197601 460.078468,138.215014 C457.879188,139.196232 455.608963,140.210986 454.415805,141.148351 C448.39197,145.885479 444.17722,151.918215 441.532924,159.590938 C436.531335,174.101557 436.524886,188.353248 436.515211,203.441377 C436.515211,204.623805 436.515211,205.811069 436.511987,207.004138 C436.476514,220.27848 437.034396,238.305105 439.459409,256.336567 Z M604.39253,253.634428 C607.265784,258.887155 609.010374,263.991555 610.119688,269.134649 C611.00972,269.102404 611.996493,268.944403 613.102583,268.728361 C613.454081,264.507477 613.728185,260.144714 613.908771,255.623951 C614.237695,247.282142 615.253492,238.517923 619.777818,230.039718 C616.159647,232.312353 612.847828,236.080193 610.397017,239.859319 C607.462493,244.386532 605.421226,249.207175 604.39253,253.634428 Z M407.176426,261.537703 C410.584988,261.537703 413.916156,261.798888 417.09576,262.421218 C422.442397,263.469184 427.418188,265.806954 432.229517,268.067336 C434.52554,269.147547 436.72482,270.182615 438.943449,271.079029 C438.127587,266.941982 437.427816,262.73722 436.831237,258.529234 C431.378183,256.907306 425.596204,256.133423 420.359208,256.014116 C413.554983,255.85934 406.521801,256.933102 399.717576,257.971394 C397.943963,258.242253 396.112305,258.522785 394.322568,258.774297 C392.536056,259.025809 390.056222,259.196708 387.182969,259.393403 C377.995653,260.025407 362.616815,261.086271 359.014768,266.542143 C358.521381,267.290229 358.215029,268.109255 358.066691,268.979873 C359.88545,268.618727 361.733233,268.357542 363.555217,268.102806 C364.729027,267.938356 365.835116,267.783579 366.931532,267.599782 C370.45296,267.016146 374.119502,266.274508 378.002102,265.490952 C387.328082,263.607838 397.569892,261.537703 407.176426,261.537703 Z M316.183623,272.359159 C317.850819,273.000837 319.501892,273.558677 320.511239,273.071776 C320.846613,272.910551 321.14974,272.607447 321.417394,272.172138 C319.727625,271.701359 317.534794,270.882334 316.467401,269.495794 C316.396457,270.459923 316.299714,271.411153 316.183623,272.359159 Z M610.674345,272.010912 C611.209654,275.138687 611.545028,278.295483 611.790109,281.519993 C612.177079,278.340626 612.531802,275.080646 612.841378,271.733604 C612.122259,271.85936 611.393465,271.962545 610.674345,272.010912 Z M310.762816,273.76827 C310.414543,273.76827 310.104967,273.829536 309.853437,273.971415 C308.599008,274.677582 308.44422,275.48371 308.447445,276.109265 C308.460344,277.78601 309.843762,279.923861 311.446464,281.671545 C312.059166,279.211244 312.588026,276.747718 312.978221,274.248723 C312.165583,273.971415 311.398092,273.76827 310.762816,273.76827 Z M464.06426,268.580033 C467.363181,271.917402 472.642098,272.836387 478.217693,273.806965 C484.077066,274.82591 490.139598,275.883549 494.58008,279.869044 C497.540402,282.526041 499.536523,285.366834 500.603915,288.45914 C502.155021,284.966995 503.802868,281.723138 505.341075,279.059692 C509.971817,271.043559 516.360049,269.737632 523.125577,268.354318 C524.589614,268.054438 526.082674,267.751334 527.591857,267.370842 C522.148478,265.481279 516.124642,264.41719 510.25882,263.382123 C505.998924,262.627587 501.593914,261.85048 497.495255,260.767045 C496.605224,260.531655 495.692619,260.273695 494.809037,260.022183 C490.652333,258.851685 486.356965,257.636045 482.235733,258.064905 C476.889095,258.619521 472.658222,261.960113 468.566013,265.191073 C467.101976,266.348672 465.615366,267.522394 464.06426,268.580033 Z M693.41501,275.148361 C691.318922,280.520395 689.293778,286.637291 692.421786,290.274539 C694.714585,285.689285 695.095105,279.675573 693.41501,275.148361 Z M227.015062,269.95045 C226.583591,270.701761 226.23048,271.362786 226.046992,271.843238 C225.887367,272.2592 225.723227,272.68161 225.556507,273.11047 C223.385282,278.698547 220.740342,285.505488 222.720661,291.054871 C225.059573,287.395051 225.614875,281.987547 226.154699,276.73482 C226.388171,274.458316 226.625835,272.146342 227.015062,269.95045 Z M618.152543,317.924715 C618.213814,317.924715 618.278309,317.92794 618.339579,317.937614 C618.913585,318.011777 619.384398,318.418066 619.545636,318.972681 C619.816515,319.90134 620.061596,320.907388 620.319576,321.974701 C621.054819,325.00574 621.870681,328.356007 623.43791,330.545449 C623.612047,328.910622 623.089637,327.121019 622.547879,325.257252 C621.835209,322.813073 621.099966,320.288282 621.812636,317.773164 C621.977098,317.195976 622.476935,316.780014 623.070289,316.721973 C623.666868,316.667156 624.237649,316.979934 624.505303,317.515203 C625.001915,318.505127 625.421132,319.614359 625.866148,320.788081 C626.856147,323.403159 627.871943,326.095625 629.66813,327.091998 C630.284057,324.141571 629.490768,319.852973 627.404354,315.038779 C627.191521,314.548653 627.26569,313.981139 627.594615,313.561953 C627.926764,313.142767 628.458848,312.939622 628.987707,313.029909 C634.282748,313.961792 634.979295,313.000888 635.005093,312.95897 C635.040565,312.907377 635.317894,312.385007 634.366592,310.418055 C633.592652,308.825147 632.312425,306.890441 630.95803,304.842877 C628.162171,300.615544 625.269569,296.246332 624.989016,292.44141 C624.805205,289.948864 625.246996,287.162887 625.672663,284.47042 C626.788427,277.421641 627.107677,273.004062 622.186707,271.046784 C620.338925,270.31482 618.146094,270.653393 615.808149,271.133845 C614.998737,280.178597 613.857175,288.578447 612.609196,296.501069 C612.615646,296.630049 612.62532,296.762254 612.631769,296.891234 C612.651118,297.204012 612.567274,297.500667 612.409262,297.752179 C611.98037,300.447869 611.538579,303.085519 611.090338,305.678025 C610.135812,311.24353 607.6979,325.447498 613.953917,330.371326 C614.357011,328.984786 614.576294,327.501511 614.789128,326.053706 C615.163199,323.506343 615.553394,320.875142 616.911014,318.627659 C617.175444,318.189125 617.649482,317.924715 618.152543,317.924715 Z M589.078187,332.77681 C593.883066,334.243962 599.361918,334.75666 604.395755,334.234289 C598.723418,332.680075 593.467073,332.193174 589.078187,332.77681 Z M449.252978,283.61915 C450.755712,290.242294 457.540589,297.149195 464.119081,303.843279 C469.204514,309.018618 474.460858,314.371305 477.227694,319.617583 C478.646585,322.306825 480.191241,325.04121 481.687525,327.688533 C483.899704,331.599864 486.15703,335.591808 488.137027,339.674038 C487.995138,338.606725 487.843575,337.549086 487.679113,336.50112 C485.018693,319.485379 475.783006,306.725991 467.095526,296.488171 L466.889142,296.246332 C462.564751,291.145157 456.182969,283.61915 449.369069,283.61915 C449.330372,283.61915 449.291675,283.61915 449.252978,283.61915 Z M732.163619,343.495083 L858.628684,343.495083 L856.477775,328.878377 L732.163619,328.878377 L732.163619,343.495083 Z M2.90227601,351.524114 L114.599916,351.524114 C115.013329,351.524114 115.407393,351.701462 115.682787,352.011015 C115.958181,352.317343 116.088783,352.73008 116.041702,353.139593 L114.371281,367.753074 L119.859807,367.61442 L121.186792,355.013034 C121.264509,354.274621 121.887208,353.713556 122.629868,353.713556 L185.204874,353.713556 L191.185498,340.557554 L2.90227601,340.557554 L2.90227601,351.524114 Z M36.3136,361.155726 L35.8369817,369.732924 L44.567028,369.513657 C41.1574986,365.737755 38.2039491,362.890513 36.3136,361.155726 Z M613.91522,352.984817 C614.30864,352.984817 614.689161,353.146042 614.963264,353.433024 C619.88101,358.56322 619.381173,365.450774 618.239612,371.509629 L618.165442,371.899795 C617.468896,375.601533 617.046454,377.836118 617.639808,379.351638 C618.19769,380.776872 619.829414,381.98284 623.653969,383.801462 C629.448846,386.558419 639.416552,389.824848 643.115342,387.519323 C643.747393,387.125933 644.589053,386.364948 644.614851,384.307711 C644.62775,383.072723 644.056969,381.911899 642.867036,380.7543 C638.542645,376.552763 628.349206,374.576138 624.318267,374.737364 C623.731363,374.769609 623.173481,374.414913 622.931624,373.86997 C621.899704,371.516078 622.447912,369.855455 623.089637,368.875204 C625.679112,364.928403 634.224703,364.615626 643.511986,364.644646 C644.734167,364.647871 645.846706,364.651095 646.727063,364.628524 C646.77221,362.83892 646.759311,360.971929 646.743187,359.017876 C646.662568,349.499121 646.572275,338.709909 654.214935,332.164153 C657.562227,329.297564 661.522221,328.185107 665.985277,328.855806 C666.72697,328.965439 667.465438,329.12344 668.203906,329.326584 C667.217132,327.375755 666.549608,325.673214 666.336775,324.896107 C664.111696,316.896097 666.188436,308.789678 668.200681,300.950893 C669.397063,296.281802 670.635368,291.451485 670.893348,286.801741 C670.944944,285.850511 670.980416,284.889607 671.015889,283.873886 C671.302891,275.883549 671.660839,265.939159 682.860399,265.352298 C686.807495,265.152379 690.209607,266.351897 692.734587,268.796075 C692.779734,268.660646 692.82488,268.531666 692.863577,268.402685 C694.569471,262.966161 694.801653,257.033062 693.553674,250.764613 C691.14156,238.659802 682.654015,229.496066 670.196802,225.48284 C664.866288,233.101068 658.632844,239.846421 649.545496,239.846421 C648.829601,239.846421 648.100807,239.804503 647.34944,239.717441 C642.247884,239.133805 638.774827,235.90607 635.711313,233.05657 C633.276626,230.794898 630.980603,228.658338 628.194418,228.069542 C626.904518,227.795781 625.598494,227.828671 624.302144,228.108559 C618.700751,236.509053 617.22059,245.305517 616.807822,255.740033 C616.640135,260.002836 616.38538,264.126984 616.066129,268.125377 C618.481468,267.667497 620.929054,267.425659 623.257324,268.351093 C630.6936,271.304745 629.548814,278.540546 628.539467,284.925076 C628.120249,287.569175 627.726829,290.071395 627.884842,292.225368 C628.110575,295.275755 630.909659,299.509537 633.376593,303.240295 C636.594895,308.106081 639.139224,311.949698 637.43333,314.551878 C636.465905,316.028703 634.443986,316.573646 631.006401,316.241521 C632.393044,320.075464 633.650697,325.415253 631.967377,329.462014 C631.715847,330.064997 631.09347,330.426142 630.445295,330.345529 C628.603962,330.11014 627.246341,329.15891 626.188623,327.865881 C626.533671,329.871526 626.488525,331.951336 625.314716,333.960206 C625.108331,334.311677 624.763283,334.563189 624.366639,334.647026 C623.96677,334.734088 623.550777,334.647026 623.221852,334.411637 C620.245407,332.296358 618.942607,328.362456 617.962283,324.538186 C617.852641,325.17019 617.759124,325.818317 617.659156,326.476117 C617.333457,328.688131 616.994858,330.974309 616.040331,333.131506 C615.879094,333.489427 615.582417,333.766735 615.214795,333.902164 C614.847173,334.037594 614.43763,334.018247 614.086132,333.850572 C604.131325,329.068623 607.004579,312.333415 608.229984,305.184675 C608.671775,302.61474 609.113566,299.993213 609.539233,297.320094 C593.415477,279.504674 578.423609,272.804142 554.528204,272.659039 C554.363741,272.659039 554.196054,272.655814 554.031592,272.655814 C531.490582,272.655814 517.282328,282.174569 505.818338,305.204022 C509.34944,304.056096 512.799924,304.207648 516.118193,305.658678 C527.685375,310.71471 534.105855,330.329407 536.282562,338.293948 C537.836892,335.530542 538.784969,332.180276 539.774967,328.681682 C541.942,321.026694 544.39926,312.352762 554.615272,310.482546 C559.442724,309.59903 564.905453,311.133897 568.865447,314.484163 C571.754824,316.931566 573.612281,319.575665 575.405242,322.129477 C577.743187,325.457172 579.958591,328.613967 584.318454,330.877574 C594.118473,327.630492 606.669205,331.722395 610.716267,333.237915 C611.303172,333.457182 611.680468,334.02792 611.657895,334.650251 C611.635321,335.275806 611.212879,335.817524 610.60985,335.988423 C602.402859,338.364887 592.044958,337.594229 584.170116,334.031145 C583.241388,334.408413 582.380379,334.856619 581.599989,335.37899 C577.681917,337.98117 575.576154,342.424545 575.334298,348.576911 C575.289151,349.795776 575.340747,351.027539 575.466513,352.265751 C578.265597,351.891708 581.254941,352.233506 584.008878,352.549508 C586.053371,352.781673 587.984997,353.000939 589.810206,352.984817 L613.91522,352.984817 Z M718.442303,376.252884 C717.391034,380.551156 716.762208,385.113838 718.206896,387.33875 C718.503574,387.793406 718.884094,388.125531 719.364582,388.348022 C720.290086,384.694652 720.812495,379.777273 718.442303,376.252884 Z M572.602934,393.068705 C575.024722,393.084828 577.285272,393.297645 579.262045,393.713607 C578.60742,390.156972 578.462306,386.587439 578.323642,383.117866 C578.233349,380.857484 578.139831,378.522939 577.904425,376.24321 C577.51423,372.444737 576.385567,368.514059 575.298826,364.712361 C574.463615,361.807077 573.615506,358.843752 573.057624,355.848182 C570.284338,357.125088 568.320464,360.056168 567.552973,366.218207 C566.43721,375.182346 568.923493,384.181955 572.602934,393.068705 Z M682.654015,338.632521 C684.621114,340.676861 686.310883,342.830834 687.613683,344.881622 C692.154132,352.052933 694.372761,360.910663 694.201849,371.212974 C694.166377,373.563642 693.776182,376.349619 693.363414,379.296821 C692.18638,387.709569 690.851333,397.244446 696.794549,400.930061 C699.777444,402.777706 711.154366,404.428655 714.337195,401.884517 C714.840256,401.481453 715.288497,400.875245 714.791885,399.437113 C713.924427,396.92522 710.299807,396.351257 706.794502,395.796641 C704.533952,395.43872 702.399166,395.103371 700.92223,394.197284 C696.91064,391.736982 696.568816,390.914732 696.4624,387.393567 C696.436602,386.510051 696.404354,385.410493 696.256016,383.962688 C695.636863,377.7942 697.004158,373.186374 700.21601,370.639011 C703.479458,368.046505 708.281113,367.811115 714.488758,369.932843 C715.352992,370.229498 716.15273,370.584194 716.891198,370.996932 C717.197549,369.994109 717.500676,369.046103 717.778005,368.185159 C718.116603,367.133968 718.406831,366.224656 718.580968,365.592652 C720.88344,357.173456 721.318781,348.821974 719.948262,339.316117 C718.255268,327.553103 716.294619,317.157282 709.464596,309.041189 C705.852875,304.746142 698.839041,298.509939 694.350188,298.948472 C692.873252,299.09035 689.78394,301.0702 687.71365,303.685278 C686.543065,305.168552 685.943261,306.571214 686.075476,307.538568 C686.343131,309.492621 689.903256,311.975494 692.766835,313.971466 C695.391782,315.806212 697.871616,317.53455 699.058324,319.398317 C699.287282,319.759462 699.345327,320.204444 699.219562,320.610733 C699.090572,321.020245 698.79067,321.35237 698.394026,321.51682 C695.236994,322.838869 691.583351,321.942455 688.435994,320.95898 C688.910033,322.094007 689.548533,323.264505 690.209607,324.473696 C692.105761,327.93682 694.25022,331.861049 692.563676,335.952953 C692.260549,336.684917 691.422114,337.039613 690.683646,336.746183 C690.051594,336.494671 689.429217,336.33667 688.832638,336.185118 C688.323128,336.056137 687.807168,335.923932 687.291207,335.740135 C687.25251,336.098056 687.194465,336.433405 687.142869,336.749407 C687.049351,337.294349 686.968732,337.765128 686.99453,338.24558 C687.013879,338.706685 686.817169,339.151667 686.459222,339.441873 C686.101274,339.732079 685.627236,339.835263 685.18222,339.722406 C684.263166,339.483792 683.415057,339.119422 682.654015,338.632521 Z M441.207224,470.940631 C438.817684,473.030113 436.837687,475.338863 435.928307,478.021655 C437.282702,476.7383 438.550029,475.267924 439.70449,473.523463 C440.265597,472.675417 440.765433,471.814473 441.207224,470.940631 Z M895.287655,484.373941 L952.617281,484.373941 C952.665652,484.267532 952.710798,484.164348 952.749495,484.057939 C953.384771,482.384418 952.968778,480.623835 951.478943,478.676231 C947.680187,473.710485 940.746972,470.595608 934.042714,467.583915 C924.487777,463.288868 914.603914,458.845492 913.233395,448.794693 C912.453005,443.080861 907.403045,401.13643 922.49488,373.189599 C917.648079,378.326244 912.33369,384.749468 907.438517,392.356088 C894.762021,412.057847 882.430572,443.957928 895.287655,484.373941 Z M412.487591,483.612956 C412.161891,485.518642 411.913585,487.350164 411.736224,489.110747 C413.72912,487.656492 415.373743,485.915257 416.308921,483.838672 C415.277,483.667773 413.974201,483.593609 412.487591,483.612956 Z M290.005093,487.653268 C289.869654,488.901153 289.789035,490.161937 289.776136,491.435619 C290.969294,490.83586 292.039911,490.161937 292.929943,489.433198 C292.091507,488.710907 291.098284,488.124046 290.005093,487.653268 Z M272.55919,493.789511 C276.612702,494.934212 282.21087,494.318331 286.877085,492.660933 C286.87386,492.570646 286.87386,492.48036 286.87386,492.393298 C286.848062,490.484388 286.967378,488.601274 287.193111,486.740731 C282.620413,485.654071 277.125437,486.015217 273.055802,487.008366 C272.933261,489.294544 272.768799,491.554925 272.55919,493.789511 Z M435.43492,482.248989 C435.49619,482.86487 435.609056,483.496874 435.783193,484.15145 C437.405243,490.187733 442.081132,493.060772 446.776369,494.392495 C445.847641,489.594423 445.634808,484.203042 446.147543,478.286065 C446.508715,474.081304 447.195587,469.92491 448.027573,465.826557 C447.888909,465.923293 447.750244,466.023252 447.608355,466.119988 C446.992428,466.552072 446.370051,466.987381 445.747674,467.429139 C444.941486,470.05389 443.780576,472.620601 442.126278,475.122821 C440.149506,478.115166 437.859933,480.372324 435.43492,482.248989 Z M449.87858,495.066417 C452.99369,495.562992 455.805673,495.501726 457.340654,495.404991 C471.964901,494.486005 477.821049,485.744358 485.234751,474.677838 C486.366639,472.991419 487.533999,471.246959 488.762629,469.492826 C489.033508,469.105884 489.478524,468.87372 489.952562,468.87372 C490.426601,468.876944 490.871616,469.109109 491.142495,469.49605 C491.761648,470.389239 492.322754,471.27598 492.822591,472.156271 C493.883534,461.860409 496.321446,450.700379 500.216945,438.269892 C503.016029,429.344447 508.12726,419.706385 513.538392,409.50081 C520.342617,396.673708 527.379024,383.408072 530.368368,370.451989 C533.702761,356.002958 531.293872,344.139985 523.006261,334.189146 C522.548347,333.640979 522.061409,333.04122 521.545449,332.405992 C517.801513,327.782044 512.180772,320.849346 506.569705,320.849346 C506.44394,320.849346 506.321399,320.852571 506.195634,320.85902 C498.520726,321.28788 493.728746,330.635735 491.945458,348.638177 C492.77422,360.517273 492.3808,373.334702 490.75875,385.810332 C488.378884,404.10298 483.56433,420.635044 476.837499,433.620148 C471.058745,444.780178 462.139084,455.214694 451.539327,463.282419 C450.426788,468.299757 449.481936,473.400932 449.03692,478.534353 C448.501611,484.741535 448.782165,490.255448 449.87858,495.066417 Z M409.52082,483.761284 C403.268027,484.267532 395.257745,486.057135 390.104593,488.994664 C388.176192,490.094222 385.796326,491.867703 385.41258,494.06037 C385.267467,494.895518 385.293265,495.769361 385.457727,496.672223 C390.227134,496.430385 396.151002,495.559767 401.61373,493.866899 C403.877505,493.163956 406.354114,492.232073 408.653362,491.016432 C408.811374,488.72703 409.098377,486.311872 409.52082,483.761284 Z M313.068514,286.859783 C312.478384,288.958939 311.849558,291.064544 311.214282,293.186272 C309.289105,299.628844 307.296209,306.290682 306.264289,313.355584 C302.981492,335.823973 307.73155,365.418529 318.973033,392.523763 C325.5483,408.37868 335.638547,422.64069 345.393419,436.431921 C351.256016,444.722137 357.318548,453.292885 362.587792,462.157064 C365.019254,466.245744 366.30593,471.772554 367.547459,477.115568 C369.830583,486.927753 371.987941,496.19822 380.520633,496.688346 C381.139785,496.723816 381.813758,496.743163 382.532878,496.746387 C382.378089,495.672625 382.37164,494.608537 382.555451,493.560571 C383.019815,490.906799 385.073981,488.523886 388.666354,486.473097 C394.258073,483.284056 403.090666,481.262288 410.03678,480.810857 C411.732999,470.456954 410.156096,459.225984 405.56405,449.065552 C402.664999,442.648777 398.24709,436.876903 393.974295,431.295276 C389.830489,425.884547 385.54802,420.290022 382.490956,413.97643 C375.654483,399.853075 374.487123,382.302065 374.400055,373.096088 C374.261391,358.418117 375.328784,340.596248 384.893395,333.028322 C389.250034,329.58132 394.93527,328.688131 401.787867,330.37455 C412.842313,333.096037 421.997382,338.848563 428.991867,347.474129 C434.970556,354.845359 439.540028,364.541462 442.571294,376.294802 C448.12754,397.837756 447.734121,422.611669 447.447118,440.697948 C447.411645,442.945432 447.447118,445.218711 447.48259,447.421052 C447.566434,452.847903 447.650277,458.110304 446.760246,463.172785 C446.96018,463.030907 447.160115,462.892253 447.3536,462.753599 C447.885684,462.376331 448.414543,461.992614 448.940177,461.605673 C449.514183,459.067983 450.123661,456.559314 450.72669,454.073217 C451.37164,451.412996 452.039163,448.662489 452.645417,445.947451 C456.160395,430.253759 455.147823,419.641895 452.052062,405.54756 C451.207178,401.703944 450.404214,397.602367 449.55288,393.255727 C444.941486,369.68778 439.204654,340.35441 421.029956,326.314891 C414.361171,321.162124 407.092582,317.837654 400.062625,314.622817 C391.24938,310.592179 382.136233,306.426112 374.109828,298.648592 C368.498761,293.208843 357.067018,282.129426 355.283731,272.665488 C354.074449,273.042756 352.919988,273.503861 351.842921,274.087497 C350.217647,274.967788 348.898723,276.138286 347.621722,277.270089 C344.929055,279.656226 342.14287,282.126201 336.996167,281.339421 C333.890732,280.865418 332.320278,279.772309 331.3851,279.120958 C331.198064,278.991977 330.975557,278.837201 330.843342,278.766262 C330.198392,279.069366 328.408655,281.065337 327.802401,281.736036 C326.812403,282.842043 326.041687,283.938376 325.36449,284.908954 C322.639575,288.794489 320.611206,290.980707 313.532878,287.133866 C313.384539,287.053253 313.229751,286.959742 313.068514,286.859783 Z M57.7240126,496.781857 L96.7028693,496.781857 L111.109123,370.738971 L50.774029,372.26094 C51.9307472,373.663602 53.1119735,375.15655 54.3015842,376.726887 C62.8378229,388.015897 73.312137,405.779725 74.7342523,426.303734 C76.1450809,446.663292 68.5682057,466.016803 52.2148478,483.825774 C51.0529699,485.438029 48.4825208,490.071651 49.8633592,493.115588 C50.793055,495.166377 53.4376734,496.401365 57.7240126,496.781857 Z M411.481468,492.741545 C411.404074,494.714946 411.429872,496.585162 411.565312,498.361867 C412.248959,495.86932 413.85166,493.463836 416.308921,491.322761 C419.475626,488.56258 422.868065,486.6182 426.147637,484.735086 C428.337243,483.480752 430.472028,482.255438 432.487497,480.826979 C432.710005,474.174815 438.111463,469.399315 443.219469,465.675005 C444.780249,459.954724 444.680281,453.831379 444.580314,447.466195 C444.544842,445.244508 444.506145,442.945432 444.544842,440.652805 C445.118847,404.602779 446.076598,344.262516 401.094545,333.192772 C395.073935,331.712722 390.362573,332.402767 386.692806,335.304826 C378.021451,342.166584 377.179791,360.14323 377.302331,373.067067 C377.3894,382.031206 378.514838,399.09854 385.103004,412.712422 C388.034303,418.761604 392.223255,424.236822 396.276767,429.531468 C400.649529,435.242076 405.17063,441.149379 408.208346,447.869259 C412.94873,458.36504 414.628826,469.96038 412.990652,480.714122 C415.383417,480.720571 417.389212,480.965633 418.724259,481.471882 C419.427255,481.736291 419.811001,482.490827 419.611066,483.213117 C418.598494,486.901957 415.831658,490.120018 411.481468,492.741545 Z M450.723465,498.161947 C452.264896,502.930998 454.715707,506.906819 458.072673,510.073289 C477.392157,504.020883 489.185072,496.246588 492.232461,487.527512 C492.358227,487.17604 492.464643,486.821344 492.558161,486.466648 C492.303406,484.090184 492.200214,481.665352 492.306631,479.17603 C492.31953,478.895498 492.332429,478.614965 492.348552,478.331208 C491.829367,476.570626 491.019955,474.768124 489.913865,472.933378 C489.139925,474.065181 488.385333,475.190535 487.646865,476.293318 C480.097723,487.559757 473.577276,497.291329 457.52124,498.303826 C455.118801,498.452153 452.848576,498.403786 450.723465,498.161947 Z M432.793849,484.125654 C431.078281,485.254232 429.324016,486.260279 427.592325,487.253429 C424.435294,489.065603 421.168621,490.939044 418.217974,493.512203 C414.915828,496.388467 413.551759,499.596854 414.280552,502.779446 C415.218955,506.887472 419.462727,510.447332 425.354348,512.066036 C433.838668,514.397357 444.299761,514.023314 454.915641,511.024519 C452.300368,508.264338 450.242977,505.007583 448.759591,501.270375 C448.298452,500.106327 447.888909,498.890687 447.537411,497.629903 C439.972145,495.946709 434.754497,491.503333 432.980884,484.902761 C432.90994,484.641575 432.848669,484.383614 432.793849,484.125654 Z M272.256063,496.710918 C271.446651,503.895127 270.159975,510.850396 268.376688,517.750848 C267.947796,519.411471 267.351217,521.210747 266.723035,523.119658 C264.933298,528.543284 262.90493,534.692425 264.143879,539.355067 C265.184507,543.269623 267.544702,545.333309 271.156423,545.481637 C277.460812,545.749271 286.338551,539.803274 288.43464,533.924992 C291.465906,525.425182 289.98252,516.22243 288.547506,507.319557 C287.928354,503.492063 287.293078,499.55816 287.015749,495.67585 C285.603308,496.140179 284.119923,496.517447 282.60429,496.79153 C278.753937,497.491249 275.190587,497.44933 272.256063,496.710918 Z M598.039771,525.479999 C596.640229,527.405032 594.940785,529.365534 592.896292,531.367955 C592.083655,532.164409 590.632517,533.11564 588.791184,534.321607 C585.134317,536.720642 578.323642,541.18014 579.629666,543.785544 C580.964713,546.442541 586.769265,547.090668 590.34229,546.381275 C599.013645,544.66906 599.129736,538.536042 598.284852,528.643244 C598.197783,527.592053 598.10749,526.531189 598.039771,525.479999 Z M469.749496,537.829874 C471.471514,541.421978 474.763984,543.48889 477.324437,544.607795 C483.609477,547.361526 492.616207,547.551773 498.746459,545.065675 C506.798662,541.796022 505.27013,533.225273 502.435574,522.361898 C502.245314,521.633158 502.058278,520.920541 501.880917,520.224047 C500.7974,515.941897 499.37851,511.737136 498.007991,507.671028 C496.276299,502.540832 494.51236,497.310676 493.406271,491.845131 C487.737158,501.483193 473.477309,508.090215 460.723418,512.26918 C462.206804,513.346167 463.825629,514.303846 465.579893,515.132545 C470.0236,517.231702 475.063886,518.363505 480.3944,519.563023 C488.449828,521.375197 496.776136,523.245413 502.980557,528.749653 C503.506191,529.213982 503.622282,529.987865 503.26111,530.584399 C500.033134,535.924188 492.513015,535.714595 485.241201,535.514675 C479.368929,535.35345 473.309622,535.185775 469.749496,537.829874 Z M386.347758,499.525915 C387.779548,502.88263 390.465765,506.397347 392.790811,509.441285 C394.316118,511.437256 395.754357,513.32037 396.702434,514.961646 C399.075851,519.066448 400.417347,523.3357 401.716922,527.466297 C402.284478,529.272023 402.871383,531.142239 403.542131,532.986659 C406.357339,540.757729 409.965835,545.014083 416.408888,548.161205 C417.656867,548.770638 418.888722,549.460683 420.194746,550.192647 C427.78581,554.449 436.389446,559.272868 452.522876,549.995951 C456.773098,547.551773 461.60055,538.397388 459.98495,534.024952 C456.057203,523.371169 447.41487,523.638804 438.266251,523.922561 C433.084076,524.083786 427.72454,524.248236 423.477543,522.165202 C416.028367,518.508608 411.307332,512.423957 409.440201,504.078924 C408.779127,501.118823 408.469551,497.881415 408.514697,494.321555 C406.702387,495.179275 404.686918,495.953158 402.474739,496.636754 C397.063606,498.316724 391.204233,499.219587 386.347758,499.525915 Z M570.703555,396.025581 C562.615879,396.312563 552.748141,398.737394 546.67271,403.786978 C542.667569,407.111448 540.974575,411.077596 541.642098,415.569339 C541.980697,417.836169 544.589521,421.795868 546.688834,424.97846 C547.90779,426.829329 548.962283,428.428686 549.58466,429.673347 C553.79941,438.095768 556.58237,446.337617 559.529793,455.059917 C560.158619,456.917235 560.79067,458.787451 561.445295,460.683463 C562.828713,464.697979 564.437864,468.718943 565.992194,472.604478 C570.719679,484.412635 575.608402,496.620631 574.708696,510.079738 C574.453941,513.897558 573.357525,518.763344 572.196615,523.916112 C569.658736,535.189 566.495255,549.222069 571.767723,556.209583 C573.992801,559.16001 577.559376,560.736796 582.670607,561.030226 C590.055287,561.449412 599.397391,560.217649 601.954618,551.950005 C602.883347,548.944761 602.828526,545.230125 602.773705,541.641245 C602.738233,539.242209 602.702761,536.759336 602.960741,534.473159 C603.070382,533.476785 603.196148,532.483636 603.321913,531.493711 C604.028133,525.934655 604.698882,520.643234 602.847874,515.587201 C602.402859,517.321988 601.754684,519.079346 600.864653,520.859276 C600.732438,523.151903 600.951721,525.744409 601.177453,528.398181 C601.545075,532.725474 601.92882,537.19787 600.803382,540.967322 C599.455436,545.475188 596.217786,548.180552 590.906621,549.228518 C586.45324,550.108809 579.207224,549.405866 577.036966,545.088247 C574.570032,540.170868 581.870868,535.388919 587.201382,531.89355 C588.771836,530.864931 590.255221,529.891129 590.867924,529.294595 C594.150721,526.079758 596.466092,522.997126 598.020422,519.998331 C598.239705,517.496111 598.878206,515.219607 600.316445,513.404208 C601.783707,505.475137 598.752441,497.87819 595.440621,489.591199 C592.618964,482.519847 589.700564,475.206658 589.029816,466.800359 C588.71379,462.814865 588.655745,458.748757 588.600924,454.818079 C588.507406,448.249751 588.413888,441.458932 587.088516,434.990565 C585.321352,426.355326 581.080804,417.70074 576.591951,408.539906 C574.570032,404.409308 572.52554,400.236792 570.703555,396.025581 Z M582.506144,563.925836 C576.575827,563.590487 572.183716,561.581617 569.449127,557.957268 C563.370471,549.895992 566.556525,535.753289 569.365284,523.277659 C570.500396,518.237749 571.574238,513.478371 571.81287,509.886267 C572.667429,497.088185 568.117305,485.718562 563.299527,473.681464 C561.729073,469.763684 560.107023,465.713699 558.701032,461.628245 C558.043182,459.729008 557.411131,457.849119 556.782305,455.988576 C553.86713,447.363011 551.116417,439.214673 546.988735,430.9696 C546.443753,429.88294 545.386034,428.273909 544.263821,426.574592 C541.893629,422.976039 539.204186,418.897033 538.77207,415.994974 C537.956208,410.510082 540.045846,405.515315 544.815253,401.552392 C550.903583,396.49636 560.822918,393.66524 569.497498,393.152542 C565.892227,384.220649 563.522034,375.114631 564.673271,365.857062 C565.666494,357.879624 568.771929,354.361683 572.619057,352.946123 C572.45137,351.459623 572.377201,349.963451 572.435247,348.464053 C572.712575,341.328212 575.253679,336.110954 579.990838,332.960607 C580.332662,332.734892 580.68416,332.518849 581.038883,332.31893 C577.294947,329.871526 575.134363,326.792119 573.031826,323.799773 C571.342056,321.394289 569.594241,318.904967 566.988642,316.699402 C563.676823,313.894078 559.133148,312.604273 555.137682,313.339462 C546.698508,314.880778 544.692713,321.968251 542.567602,329.471687 C541.22933,334.202044 539.845912,339.093626 536.7566,342.676057 C536.401878,343.092019 535.840771,343.269367 535.308687,343.140387 C534.779828,343.008182 534.36706,342.588995 534.244519,342.053727 C531.848529,331.609538 525.092675,312.749376 514.957283,308.315675 C511.313314,306.722766 507.575827,307.080687 503.528765,309.402335 C502.980557,309.715112 502.293685,309.640948 501.826096,309.215313 C501.361732,308.789678 501.223067,308.11253 501.487497,307.538568 C507.41459,294.634077 513.815721,285.808592 521.635742,279.762635 C530.448987,272.94602 541.219656,269.68604 554.547552,269.75698 C567.475579,269.837592 577.733513,271.833564 586.836985,276.044775 C594.705378,279.685247 601.986866,285.124996 609.51666,293.031495 C609.477963,292.244715 609.442491,291.467608 609.403794,290.700174 C609.084543,284.07703 608.787866,277.892419 607.681776,271.83034 C606.046828,271.46597 604.515071,270.582454 603.218721,268.802524 C600.548627,265.133032 600.197129,259.780344 601.338691,254.121329 C601.000092,253.524794 600.645369,252.92826 600.274523,252.328501 C598.646024,249.697301 596.975603,247.043528 595.360002,244.476818 C593.976584,242.277702 592.580267,240.059239 591.190399,237.827878 C589.326493,236.067295 587.510958,234.243835 585.717996,232.441978 C583.3994,230.113237 581.00341,227.70485 578.623544,225.576996 C577.82703,224.864701 577.033742,224.175301 576.256577,223.499444 C569.913491,217.980694 563.921904,212.767628 565.369817,202.74843 C565.663269,200.712474 565.979295,198.866441 566.282421,197.080708 C566.759685,194.301825 567.178902,191.850874 567.365938,189.54277 C565.905126,185.106166 564.811935,180.626676 564.412066,176.223285 C563.841285,175.23465 563.173761,174.210868 562.403046,173.139363 C562.006401,172.589584 561.567835,172.00498 561.109921,171.392323 C557.014487,165.927746 550.822965,157.670419 557.49175,151.134659 C557.849697,150.783833 558.362433,150.642277 558.852595,150.761584 C566.766134,152.692098 566.972518,163.912749 567.107958,171.338152 C567.127306,172.435775 567.146655,173.4731 567.188577,174.348232 C567.2047,174.686161 567.227274,175.024734 567.253072,175.364598 C569.981211,180.347434 570.574565,184.63571 570.294012,189.151314 C572.335279,195.231128 575.082767,201.272894 577.64322,206.901276 C578.014066,207.712886 578.378463,208.516111 578.73641,209.310308 C582.941486,218.610441 588.00757,227.206663 593.45095,235.967335 C595.808243,238.1729 598.233256,240.249485 600.76146,241.993945 C602.228722,237.337752 604.240967,233.750162 606.040378,230.540484 C608.965227,225.327418 611.235452,221.275176 610.338971,214.879038 C608.791091,213.794635 607.523764,212.372626 606.553114,210.621072 C604.39253,206.71619 603.982987,201.623398 604.515071,196.669905 C599.961722,184.172025 595.172967,172.5022 590.2133,161.842613 C579.600644,139.024366 568.465578,125.679407 557.114454,122.178556 C548.207691,119.431273 532.628919,121.370171 527.488665,130.769942 C527.133943,131.418068 526.350328,131.696021 525.666681,131.416778 C524.983034,131.136891 524.618637,130.388482 524.818571,129.6778 C526.579286,123.474164 525.782772,118.116963 522.458054,113.755168 C522.051735,113.221834 522.061409,112.478907 522.487076,111.958471 C522.909519,111.438357 523.635088,111.277132 524.241341,111.56766 C531.690516,115.151381 537.501518,115.071413 541.516333,111.330658 C546.037434,107.116223 548.497919,98.1311252 548.446323,86.0314725 C548.394727,74.83565 546.198671,64.2615132 544.176752,59.1748481 C538.194839,44.1131601 527.459643,26.0023752 510.303967,25.255901 C502.761274,24.9250662 498.146655,28.430109 493.261157,32.1379735 C491.239238,33.6718731 489.149599,35.2580097 486.798756,36.622945 C466.531195,48.3904731 458.811141,66.268126 453.490301,83.8352585 C451.732812,89.6280914 449.933401,96.7226591 449.833434,103.399653 C450.633172,103.951044 451.410337,104.515333 452.158479,105.091876 C459.069121,110.421347 466.963312,117.160573 469.526989,123.738252 C473.245127,123.46965 476.889095,122.308826 479.717202,120.214507 C487.708136,114.292371 486.695564,105.234077 485.38309,100.361519 C482.155114,88.392459 479.323783,76.7535888 480.139645,65.9392259 C481.081272,53.4374768 486.840677,43.5998181 497.746786,35.8635728 C498.275645,35.4888847 498.988315,35.5095215 499.494601,35.91452 C499.997662,36.3191961 500.175023,37.0102087 499.926718,37.607388 C497.8919,42.4664027 498.549749,46.7588709 501.997008,51.1164742 C505.14114,55.0951975 510.020189,58.4164432 514.741224,61.628378 C516.640603,62.9217291 518.48516,64.177031 520.136233,65.4284635 C519.207505,61.4742464 518.727017,57.4742413 518.381968,53.8989042 C518.323923,53.2872146 518.656072,52.704868 519.210729,52.44465 C519.768611,52.184432 520.42646,52.3027716 520.858577,52.7403376 C536.721128,68.8277423 527.317754,92.413101 522.535448,101.806422 C519.017244,108.724287 519.791184,115.547673 520.613496,122.770899 C521.003691,126.191782 521.406785,129.729715 521.377762,133.418877 C521.345515,137.609451 521.803429,142.177614 522.287142,147.01438 C523.286815,156.950386 524.318735,167.224644 521.187502,175.662542 C521.01659,176.124615 520.619946,176.468025 520.139458,176.574434 C519.65897,176.68181 519.155908,176.53574 518.804411,176.189427 C512.53227,169.986114 505.98925,164.691146 499.062484,159.085657 C497.066363,157.469855 495.002523,155.799236 492.96448,154.120556 C492.348552,153.613018 491.706827,153.093872 491.055427,152.564085 C487.730709,149.869039 483.964199,146.81446 481.30378,143.579632 C479.54629,141.445973 478.443426,138.925696 477.372808,136.488611 C476.405383,134.281756 475.486329,132.179375 474.160956,130.524879 C461.47801,137.560116 450.65897,152.599232 454.818899,165.455677 C456.031405,169.195787 457.97593,172.714695 460.033321,176.439972 C461.871429,179.767667 463.770808,183.208542 465.092956,186.815801 C468.037154,194.853538 470.078421,203.349156 472.051969,211.565208 L472.158386,212.015027 C475.47343,225.824316 479.094825,235.918968 487.788754,246.646914 C488.120904,247.056427 488.204747,247.614267 488.008037,248.104392 C487.811328,248.591293 487.363087,248.936316 486.837453,249.000806 C475.734635,250.358325 463.067812,253.88594 460.823385,259.706181 C460.081693,261.634438 460.555731,263.849677 462.235826,266.319652 C463.751459,265.297482 465.241294,264.120535 466.766602,262.914569 C471.184511,259.425648 475.750758,255.817421 481.935831,255.178968 C486.608495,254.695292 491.177968,255.981871 495.599102,257.229757 C496.469784,257.47482 497.36949,257.729556 498.236948,257.961721 C502.216291,259.012911 506.563255,259.780344 510.765106,260.521982 C518.207832,261.837582 525.905313,263.198325 532.583772,266.235814 C533.122306,266.480877 533.45768,267.022595 533.435106,267.61268 C533.412533,268.202766 533.035237,268.718687 532.48058,268.918607 C529.436415,270.027838 526.524465,270.621148 523.709257,271.198336 C517.072719,272.555855 511.829274,273.626392 507.853156,280.510722 C505.728045,284.189888 503.451371,288.920245 501.526194,293.79248 C501.529419,293.879542 501.529419,293.969828 501.529419,294.060114 C501.542318,298.342264 500.146001,303.114539 497.008318,309.531315 C496.695517,310.172993 495.963498,310.488995 495.283076,310.282626 C494.602653,310.076257 494.170537,309.405559 494.264055,308.699391 C494.896106,304.014178 496.550403,298.53251 498.60457,293.26366 C498.382062,289.268492 496.614898,285.59255 492.642005,282.029466 C488.820675,278.598587 483.17736,277.615111 477.717857,276.667105 C471.703696,275.619139 465.486376,274.535704 461.548954,270.140696 C460.201008,270.882334 458.791792,271.498215 457.301957,271.914177 C456.67958,272.088301 456.015281,271.823891 455.676683,271.272499 C452.300368,265.758587 446.489367,261.973012 439.910874,259.551404 C440.581623,264.097964 441.374911,268.628401 442.313314,273.065327 C442.422955,273.578024 442.245594,274.110069 441.852175,274.455091 C441.458755,274.800114 440.910547,274.909747 440.413936,274.735624 C437.211758,273.616718 434.051502,272.130219 430.994437,270.695312 C426.344346,268.509094 421.533018,266.248712 416.537878,265.268461 C404.970696,263.004855 390.949478,265.835975 378.576108,268.33497 C374.670934,269.124976 370.978594,269.869837 367.40557,270.463147 C366.276907,270.650169 365.096648,270.817843 363.958311,270.975844 C362.007337,271.249928 360.030564,271.527236 358.115062,271.936749 C359.604897,280.546191 371.610645,292.186674 376.128522,296.565559 C383.79698,303.994831 392.284525,307.877141 401.268682,311.985167 C408.446978,315.267719 415.870355,318.659904 422.80357,324.015816 C441.8425,338.726032 447.698648,368.652713 452.40356,392.701111 C453.248445,397.028404 454.048183,401.113859 454.886619,404.92523 C458.072673,419.425853 459.111043,430.360168 455.479973,446.579455 C454.86727,449.320289 454.196522,452.086919 453.545122,454.760038 C453.225872,456.082087 452.903397,457.41381 452.584146,458.748757 C461.613449,451.290464 469.191615,442.071589 474.260923,432.2852 C485.389539,410.806737 491.01673,378.364938 489.104453,349.521693 C489.094778,349.499121 489.088329,349.473325 489.078655,349.450753 C486.727811,342.501934 482.880683,335.698217 479.15932,329.116991 C477.653362,326.453545 476.099031,323.699814 474.660792,320.968653 C472.093891,316.099643 466.985885,310.901732 462.048791,305.877945 C454.638313,298.339039 446.979529,290.542173 446.12497,282.474448 C446.044351,281.716689 446.566761,281.023419 447.318128,280.891214 C456.347431,279.324102 464.331915,288.739672 469.104546,294.369667 L469.31093,294.611506 C478.25639,305.158879 487.775855,318.327779 490.545917,336.052913 C490.607187,336.446303 490.668457,336.846142 490.726503,337.242757 C491.216665,335.011396 491.832592,332.760688 492.616207,330.622837 C495.570079,322.555112 500.08473,318.295534 506.031171,317.960185 C513.251389,317.56357 519.349394,325.083129 523.802775,330.577694 C524.305836,331.203249 524.786324,331.793335 525.234564,332.331828 C545.102256,356.183531 529.69762,385.233145 516.102069,410.861553 C510.755432,420.941373 505.705472,430.466576 502.987006,439.137285 C498.440107,453.647582 495.911902,466.368275 495.273402,477.976512 C496.079589,480.959184 496.153759,483.867693 495.495909,486.689139 C496.305322,493.547673 498.485254,500.006367 500.755479,506.742369 C502.145346,510.860069 503.583585,515.119647 504.696124,519.51143 C504.870261,520.201476 505.054072,520.907643 505.241107,521.626709 C507.624198,530.758523 510.887647,543.266398 499.836424,547.754917 C492.941907,550.553792 483.206383,550.353872 476.160302,547.268016 C471.452165,545.204329 468.159694,541.976594 466.637612,537.929834 C466.434452,537.388116 466.569892,536.778683 466.985885,536.37562 C471.274804,532.225675 478.414403,532.42237 485.32182,532.612616 C491.435948,532.783515 497.246949,532.944741 500.026685,530.062028 C494.463989,525.70249 486.995466,524.02252 479.759124,522.394143 C474.506004,521.213972 469.075524,519.991882 464.341589,517.757297 C461.748889,516.531983 459.420619,515.051933 457.363227,513.32682 C457.163293,513.388085 456.966583,513.446126 456.766648,513.507392 C445.289759,516.931822 433.861241,517.412274 424.586857,514.864911 C419.969013,513.597678 416.196055,511.227663 413.841986,508.261114 C416.005794,513.301023 419.636864,517.047904 424.754544,519.559798 C428.356591,521.32683 433.125998,521.178502 438.175958,521.020501 C447.495489,520.73352 458.056549,520.407844 462.709865,533.022129 C464.976865,539.174495 458.911108,549.667051 453.967564,552.51107 C446.644155,556.72228 440.67514,558.224902 435.63163,558.224902 C428.585548,558.224902 423.355002,555.293822 418.772631,552.723887 C417.508528,552.014495 416.312146,551.343797 415.135111,550.769834 C407.934242,547.248669 403.919427,542.540883 400.810767,533.976584 C400.12067,532.070898 399.524091,530.171662 398.946861,528.336915 C397.637612,524.174072 396.402532,520.24017 394.190353,516.412676 C393.335794,514.932626 391.952376,513.120451 390.485114,511.201867 C387.834368,507.72907 384.751506,503.695207 383.28102,499.645222 C382.220077,499.65812 381.236528,499.635548 380.352946,499.587181 C375.496471,499.306648 371.875075,496.839898 369.282375,492.045051 C367.108893,488.027311 365.893162,482.813278 364.722577,477.773368 C363.529419,472.646397 362.294339,467.342077 360.091834,463.640339 C354.883861,454.87612 348.853577,446.350515 343.023227,438.108666 C333.174837,424.18523 322.994298,409.791016 316.293265,393.632995 C311.024021,380.928424 307.005981,367.243602 304.677711,354.058579 C302.03019,339.051707 301.598074,325.218558 303.39426,312.936398 C304.455203,305.661903 306.477122,298.89688 308.434546,292.354348 C309.179464,289.858577 309.917932,287.388602 310.595129,284.925076 C308.118521,282.629225 305.570967,279.204795 305.545169,276.131837 C305.535495,274.738848 306.025657,272.797693 308.428097,271.443398 C309.946954,270.585679 311.678646,270.80817 313.37164,271.327316 C313.968219,265.926261 313.848903,260.344634 312.507407,254.347044 C312.375192,253.75051 312.220404,253.089485 312.052717,252.373644 C310.985324,247.785166 309.372949,240.852469 309.256858,234.481159 C309.108519,226.422785 311.440014,221.254862 316.186848,219.121203 C318.318408,218.162556 320.314529,218.027127 322.11394,218.71814 C325.851427,220.150467 327.908818,224.814076 329.727578,228.928874 C330.408,230.47019 331.049726,231.926379 331.723699,233.099778 C332.436369,234.339925 334.068093,236.46391 335.954572,238.924211 C342.803944,247.846432 348.356965,255.598155 346.889703,260.089897 C345.029022,265.787607 338.011964,264.929888 333.365097,264.362374 C332.307379,264.233393 331.307706,264.110862 330.504743,264.075392 C324.729214,263.810982 318.873066,266.545367 318.727952,267.661048 C318.734401,267.661048 319.163293,268.731585 323.732766,269.753755 C324.12941,269.844041 324.468009,270.092329 324.671168,270.440576 C324.874327,270.792047 324.922699,271.211234 324.803383,271.59495 C324.168107,273.668311 323.178108,275.006482 321.772117,275.68363 C319.892087,276.596166 317.757302,276.035101 315.757956,275.299913 C315.277468,278.198748 314.622844,281.052439 313.877926,283.899682 C314.251997,284.180214 314.603495,284.412379 314.919521,284.583278 C320.082347,287.388602 320.753095,286.427698 322.987848,283.241882 C323.713417,282.206814 324.535729,281.033092 325.645043,279.798105 C329.014908,276.044775 330.317707,274.842032 333.042622,276.738045 C333.864934,277.312007 334.993596,278.095563 337.434733,278.469607 C341.236715,279.046794 343.203813,277.305558 345.696545,275.096769 C347.031592,273.913373 348.544001,272.571977 350.462728,271.533685 C351.920315,270.746904 353.464971,270.160043 355.061223,269.702163 C355.145066,268.015744 355.622329,266.416387 356.592979,264.942786 C360.981866,258.287396 376.012431,257.255553 386.983034,256.497793 C389.801467,256.304322 392.232929,256.136648 393.916249,255.901258 C395.693087,255.649747 397.515071,255.372439 399.27901,255.10158 C406.205776,254.043941 413.374397,252.950832 420.426928,253.112057 C425.496237,253.228139 431.058932,253.940756 436.408795,255.407908 C434.109547,237.656979 433.577463,220.044703 433.609711,206.997044 C433.612935,205.80591 433.612935,204.620258 433.612935,203.439765 C433.62261,188.101736 433.629059,173.614978 438.788661,158.645189 C441.619992,150.428814 446.144318,143.959479 452.622843,138.86701 C454.096555,137.707798 456.42805,136.666926 458.894984,135.565111 C461.826283,134.256605 465.147777,132.773652 466.286114,131.308757 C467.256764,130.060227 467.62761,128.663691 467.418001,127.039183 C467.405102,126.924068 467.388979,126.808308 467.366405,126.692226 C461.800485,126.639666 456.228115,124.826524 452.558348,120.826841 C448.604803,116.518573 447.098845,110.901799 446.947281,104.978051 C440.081786,100.558859 430.472028,96.4231021 422.129597,95.4908961 C422.79712,100.740077 425.054446,106.294618 427.240827,111.683742 C428.388839,114.505834 429.472355,117.171214 430.339813,119.800157 C430.520399,120.340585 430.365611,120.936152 429.946393,121.322126 C429.527176,121.708745 428.920922,121.813542 428.398513,121.59234 C415.841332,116.281894 407.972939,118.119543 400.333504,128.14519 C399.940084,128.65821 399.259662,128.852003 398.656633,128.619193 C398.053605,128.386706 397.676309,127.784045 397.73113,127.140755 C398.643734,116.602733 404.100013,107.065921 409.378931,97.8434989 C409.833621,97.0470448 410.291535,96.2463989 410.74945,95.4431734 C409.472448,96.2699378 408.198672,96.9954527 406.931345,97.619073 C398.975884,101.529114 391.481562,101.262125 384.657989,96.825521 C379.005,93.1499016 375.809271,86.5602922 375.154647,77.2392001 C374.587091,69.1521281 376.057577,60.7758175 377.3894,55.1735531 C378.343926,51.1641969 380.968873,43.8845423 384.477402,37.3758681 C388.856615,29.2459101 393.25195,24.613901 397.540869,23.6091436 C402.974575,22.3367518 405.586623,25.6238176 408.114828,28.8038298 C409.25639,30.2397042 410.436649,31.7242688 411.932934,32.9070192 C418.26957,37.9191981 426.399167,40.7512856 434.248211,40.7051751 C434.251436,40.7051751 434.254661,40.7051751 434.257886,40.7051751 C434.735149,40.7051751 435.180164,40.9386297 435.451044,41.3307301 C435.725147,41.7254102 435.786418,42.2294012 435.612281,42.6772856 C434.099873,46.6102209 432.51652,50.590879 430.984763,54.4406219 C427.631022,62.8720717 424.16119,71.5901803 421.18152,80.4059917 C420.842921,81.4123614 420.46885,82.4142168 420.065756,83.4122027 C420.623638,82.7956763 421.17507,82.1617376 421.729727,81.5100641 C422.21344,80.9380359 423.0551,80.8290475 423.667803,81.2601645 C424.41917,81.7857597 426.702294,83.3870515 429.881898,80.1689902 C434.090199,75.9074773 436.279805,66.7879171 434.473944,64.2795704 C434.286908,64.0199973 433.719352,63.2303148 431.403981,64.3659873 C430.691311,64.7148793 429.830302,64.4275755 429.472355,63.7197954 C429.111183,63.011693 429.388511,62.1465568 430.091507,61.7779953 C436.370098,58.4880274 440.575173,51.6414245 441.345889,43.4624539 C442.132728,35.0803392 439.104687,27.0887127 433.445248,22.6056759 C428.124409,18.3912409 411.104173,7.64556007 403.329298,10.2967525 C401.497639,10.9216626 400.339953,12.3036878 399.788521,14.521506 C399.685329,14.9352107 399.408,15.2828129 399.024255,15.4720916 C398.643734,15.6613704 398.195494,15.6729786 397.805299,15.5036918 C392.92625,13.3977641 388.608309,16.7357773 386.470299,18.9132891 C382.084637,23.3753666 379.246856,30.2632432 379.288778,35.3979535 C379.933728,36.2418078 380.349721,37.6341514 380.136887,39.9106558 C380.075617,40.5661987 379.58223,41.0985654 378.930831,41.2078763 C378.282656,41.3171872 377.64093,40.9750666 377.370051,40.3756301 C376.925035,39.3921545 376.641257,38.2719596 376.509042,37.057609 C374.716081,37.1646627 370.498106,40.6890526 369.392017,43.132909 C367.728045,46.81401 366.50264,56.1347797 369.134037,59.7288189 C369.975697,60.8764222 371.117259,61.3217271 372.736084,61.1298687 C373.513249,61.0389375 374.229143,61.5829124 374.34201,62.3603419 C375.567415,70.7063421 374.025984,82.7515005 368.718044,89.6251893 C367.740944,90.8920994 366.615506,92.1348257 365.39655,93.377552 C366.015702,98.1214517 369.250128,102.197555 372.574846,105.221179 C375.254614,107.660198 378.208486,109.857702 381.062391,111.982332 C389.269383,118.089232 397.756928,124.404113 399.324157,136.52408 C399.41445,137.21993 398.995232,137.880309 398.327709,138.093127 C397.65696,138.3053 396.931391,138.009935 396.605691,137.390184 C388.147169,121.449817 368.992148,120.822327 352.094452,120.268679 C349.730709,120.19129 347.502406,120.118094 345.316025,120.004269 C344.53241,119.96364 343.922932,119.30842 343.939056,118.524541 C344.135766,109.288576 351.768752,102.204327 358.502032,95.9539358 C359.856428,94.6963768 361.178576,93.469773 362.410431,92.2592918 C362.378183,91.3767433 362.420105,90.4983867 362.542645,89.6245444 C357.973173,92.9702964 351.913866,95.3512748 347.034817,97.2692136 C345.970649,97.6867877 344.967752,98.0808229 344.064821,98.4526089 C338.440855,100.76813 332.571808,102.301062 326.899471,103.783369 C322.12039,105.031577 317.180071,106.322671 312.478384,108.064874 C301.862503,111.998777 299.45039,117.368877 296.473944,128.683683 C296.186941,129.774535 295.854792,130.921494 295.477496,132.109726 C300.927326,131.898198 305.909566,135.117871 309.324577,141.020015 C317.299387,137.822913 328.302238,139.860804 336.63177,146.212122 C343.510164,151.455176 346.944524,158.363367 346.238304,165.384738 C350.085432,165.759749 353.226339,167.520976 355.390147,170.537506 C359.533953,176.314216 359.201803,185.397662 357.137962,191.392671 C355.632004,195.767687 353.345655,199.817994 351.133476,203.734807 C345.022572,214.564325 340.191895,223.118306 352.800672,233.833677 C353.274711,234.235451 353.439173,234.893573 353.21344,235.470761 C352.984483,236.047948 352.413702,236.418767 351.797775,236.389746 C342.500817,235.967335 334.048744,232.171119 329.743702,226.481471 C326.615693,222.352163 325.638593,217.286135 326.915595,211.83123 C327.360611,209.927802 329.527643,206.617197 333.323175,200.929806 C338.814927,192.698276 348.008692,178.921555 345.719119,174.301799 C345.567555,173.995793 345.154787,173.16 343.377949,172.808528 C341.788147,177.254806 338.947141,180.825306 336.189979,184.286818 C334.56148,186.336317 332.884609,188.443212 331.491517,190.712622 C333.655325,191.686747 334.255128,193.325765 334.413141,194.342776 C335.022619,198.293124 330.804645,203.216628 326.547973,205.513125 C323.081366,207.383018 319.769546,207.574554 317.231667,206.105467 C312.094639,212.052109 299.618077,221.237772 293.381408,224.123709 C286.196662,227.448824 280.872598,227.964101 277.109314,225.699205 C272.862317,223.143135 271.378931,217.466385 270.695284,211.013172 C250.958839,217.840105 233.941183,233.680835 219.262438,249.968159 C224.791596,251.638456 231.462317,254.34382 231.307529,260.883127 C231.291405,261.576397 231.064382,262.382524 230.705468,263.256367 C230.833168,263.391796 230.960868,263.527226 231.089213,263.662655 C231.489082,264.091515 231.591952,264.71707 231.350095,265.252339 C229.929592,268.389787 229.498121,272.584875 229.041818,277.031475 C228.359784,283.667517 227.654853,290.5325 223.44365,294.782405 C223.129237,295.101631 222.685189,295.253183 222.243721,295.204815 C221.80064,295.149999 221.405608,294.898487 221.173426,294.517995 C216.868705,287.456317 220.185684,278.917814 222.850941,272.05928 C223.016693,271.633645 223.179221,271.214458 223.337556,270.801721 C223.736458,269.763429 224.549418,268.399461 225.490722,266.819451 C226.009262,265.952057 226.647441,264.88152 227.194358,263.85935 C224.195662,261.047577 220.514609,258.645317 217.457867,259.815814 C212.225064,261.818235 209.669771,273.268471 209.45855,283.728783 C209.417595,285.760225 209.493055,287.733625 209.565934,289.639311 C209.799083,295.740084 210.019656,301.505509 206.374398,307.474077 C205.692685,308.589758 204.807169,309.840868 203.869734,311.162917 C199.150955,317.821531 195.514726,323.738508 198.773014,328.275394 C200.390872,326.975916 201.255428,325.054108 202.232527,322.887237 C202.744618,321.748985 203.2738,320.572039 203.94229,319.456358 C204.226069,318.982355 204.754283,318.708272 205.30507,318.753415 C205.855858,318.798558 206.333443,319.150029 206.536925,319.665951 C207.049016,320.955755 207.282165,322.526092 207.528859,324.189939 C208.131887,328.249598 208.734916,330.326182 210.443389,330.874349 C210.491115,330.726022 210.539486,330.584143 210.586568,330.445489 C210.761349,329.929568 210.926456,329.442667 210.951932,329.007358 C210.992241,328.310863 211.523035,327.740125 212.215067,327.653063 C212.908066,327.562777 213.564948,327.978739 213.780361,328.642988 C214.117993,329.68128 214.661686,330.126263 215.414343,330.73892 C215.445623,330.764716 215.477225,330.790512 215.508828,330.816308 C216.519787,327.981963 215.900635,324.515615 215.298897,321.146001 C214.997382,319.456358 214.685549,317.708673 214.587839,316.067398 C214.547852,315.396699 214.974487,314.784042 215.618469,314.590572 C216.26213,314.397101 216.955451,314.671185 217.292438,315.254821 C218.39756,317.163731 218.88611,319.54342 219.358858,321.842496 C220.04186,325.17019 220.632312,327.524083 222.073131,328.768744 C222.142786,326.534158 221.553946,324.293123 220.938986,321.952129 C220.159241,318.985579 219.353054,315.915846 219.872884,312.65909 C219.955437,312.143168 220.309515,311.711084 220.799677,311.527287 C221.290162,311.34349 221.840627,311.440225 222.240818,311.778799 C222.95897,312.381782 223.595536,313.442646 224.333037,314.66796 C224.900915,315.612742 226.221451,317.808633 226.865756,317.976308 C227.502,317.676428 227.782553,316.102867 225.607458,310.376137 C225.374631,309.760255 225.190821,309.276579 225.078922,308.908984 C223.373673,303.266091 222.410763,299.670762 224.03636,296.939602 C225.508459,294.466403 228.765457,293.347497 233.202715,292.431736 C241.118189,290.79691 247.78246,290.342254 254.174561,290.996829 C257.732752,291.361199 261.31932,291.88357 264.788185,292.389818 C268.573398,292.941209 272.485021,293.511947 276.335373,293.873093 C277.999345,294.027869 280.682338,293.634479 283.281487,293.250762 C287.296303,292.660677 291.446557,292.054469 293.994111,293.005699 C294.922839,293.350722 295.670981,293.553866 295.983782,293.540968 C296.870589,293.505498 297.534887,294.102033 297.602607,294.988773 C297.62518,295.308 297.918633,296.043188 298.386222,296.9525 C300.375893,300.809014 299.621301,308.405961 299.011823,314.509959 C298.782866,316.818708 298.563583,319.001702 298.557133,320.478528 C298.47329,334.256861 295.851567,347.4967 293.313688,360.301231 C291.288544,370.519704 289.192456,381.0832 288.424965,391.807922 C287.644576,402.658399 290.192129,413.347651 292.659064,423.688656 C294.793849,432.646345 297.002803,441.910364 297.144692,451.442016 C297.254334,458.926105 295.280786,465.897496 293.368509,472.636723 C292.207599,476.735076 291.085385,480.694775 290.411412,484.702841 C292.655839,485.544438 294.642286,486.785875 296.119222,488.536784 C296.596485,489.101073 296.573912,489.929772 296.07085,490.465041 C294.610038,492.025704 292.433331,493.450938 289.85353,494.58919 C290.082488,498.629501 290.756461,502.802018 291.411085,506.858452 C292.904145,516.119245 294.452025,525.699266 291.169229,534.902018 C288.68617,541.857287 279.108659,548.39337 271.562742,548.39337 C271.38538,548.39337 271.211244,548.390145 271.037107,548.380472 C266.148062,548.180552 262.704028,545.236574 261.338668,540.099929 C259.878179,534.602139 262.050371,528.017689 263.966841,522.210346 C264.580511,520.349803 265.160321,518.592445 265.565672,517.025333 C267.37379,510.037819 268.657241,502.992264 269.447305,495.698421 C268.847501,495.404991 268.292844,495.066417 267.786558,494.692374 C263.602121,491.583946 263.436046,485.737909 263.302864,481.039797 C263.271262,479.93379 263.241594,478.889049 263.166457,477.928145 C262.373491,467.770937 261.068434,458.042589 259.175505,448.185261 C257.376739,438.814834 257.569257,429.296079 257.755325,420.086878 C257.962676,409.845833 258.1768,399.253316 255.575393,389.105782 C254.691166,385.655556 253.537028,382.240799 252.420619,378.938901 C250.65539,373.715194 248.830181,368.314139 247.993036,362.574511 C247.658307,360.281884 247.51932,357.90542 247.384848,355.606344 C247.123643,351.133948 246.875015,346.87437 245.324554,343.027529 C214.723278,370.751869 203.178669,413.208997 198.892653,444.177195 C198.573725,446.48272 198.386689,448.546406 198.221582,450.36503 C197.46957,458.66492 197.05519,463.234051 186.410286,466.587542 C184.703103,467.126035 182.228106,467.432363 179.607996,467.758039 C175.797953,468.228817 170.87021,468.83825 168.442295,470.331198 C174.646394,471.924106 187.580871,474.178039 195.285769,467.996653 C195.619208,467.729018 196.052937,467.622609 196.472477,467.703222 C196.891695,467.78706 197.253512,468.048245 197.461508,468.422288 C203.728812,479.66938 201.647235,484.67382 192.643085,493.141385 C189.610529,495.991852 187.273229,499.506568 185.013001,502.901977 C181.860162,507.642008 178.599939,512.543263 173.340047,515.990265 C166.482614,520.482008 153.1889,521.104339 148.466574,515.612997 C146.168294,512.936654 145.021895,508.05797 151.627153,499.683916 L99.292667,499.683916 L98.5219514,506.426367 C98.4381079,507.161556 97.8176658,507.712947 97.0801652,507.712947 L18.8568854,507.712947 C18.0555347,507.712947 17.4057474,507.06482 17.4057474,506.261917 C17.4057474,505.462239 18.0555347,504.810888 18.8568854,504.810888 C19.1313216,504.810888 19.3371488,504.810888 19.4743669,504.810888 C47.9247108,504.810888 73.3617311,504.810888 95.7854276,504.810888 L96.3713649,499.683916 L57.660485,499.683916 C57.6185632,499.683916 57.5766415,499.683916 57.5347197,499.680692 C52.0852128,499.206689 48.6134457,497.397738 47.2164835,494.308657 C44.8366172,489.043032 49.7134083,482.326377 49.9223722,482.04262 C49.9533298,482.000701 49.9868672,481.962007 50.0223395,481.923313 C65.8542551,464.707652 73.1944336,446.060309 71.8390707,426.503653 C70.4659717,406.692262 60.2854324,389.450805 51.9865354,378.477796 C50.3183716,376.272231 48.6589147,374.224667 47.060728,372.354451 L34.3374725,372.673677 C33.9269616,372.683351 33.5412814,372.52535 33.2591157,372.235144 C32.97695,371.944938 32.8292564,371.548323 32.8518296,371.145259 L33.5819133,358.005379 C33.6122259,357.457213 33.9469551,356.976761 34.4480814,356.757494 C34.9492078,356.535003 35.5312753,356.61884 35.9533953,356.963863 C36.2403981,357.202476 41.6325045,361.674872 48.3677197,369.416922 L111.441594,367.827238 L112.973351,354.426173 L1.45113801,354.426173 C0.649787352,354.426173 0,353.778046 0,352.975143 L0,339.106524 C0,338.306846 0.649787352,337.655494 1.45113801,337.655494 L193.438954,337.655494 C193.932341,337.655494 194.391868,337.907006 194.659199,338.319744 C194.926209,338.735705 194.964261,339.258076 194.760134,339.706283 L187.460265,355.767569 C187.224858,356.283491 186.708253,356.615615 186.139084,356.615615 L123.936215,356.615615 L122.6131,369.184757 C122.536673,369.910272 121.934935,370.468112 121.206463,370.484235 L114.038486,370.664807 L99.6241714,496.781857 L154.749357,496.781857 C155.322073,496.781857 155.840935,497.12043 156.074407,497.642801 C156.307879,498.165172 156.212104,498.774604 155.829971,499.203464 C150.021549,505.681505 148.188278,510.837498 150.66779,513.72021 C154.292732,517.937869 166.14208,517.234926 171.749278,513.562209 C176.512557,510.440883 179.467719,505.997507 182.596695,501.296171 C184.947861,497.762108 187.379001,494.105513 190.655026,491.026106 C198.541155,483.612956 200.260915,480.065995 195.703374,471.27598 C185.990746,477.670184 171.400682,474.310244 165.3733,472.488396 C164.975043,472.369089 164.647731,472.085332 164.474239,471.708064 C164.300425,471.327572 164.297523,470.895488 164.465855,470.514995 C166.248497,466.484357 173.156559,465.629862 179.251339,464.875327 C181.736332,464.568998 184.083628,464.278792 185.537991,463.820912 C194.339304,461.047833 194.609538,458.068385 195.331238,450.103845 C195.499247,448.252976 195.689507,446.150595 196.017787,443.78058 C198.93264,422.718078 204.081277,403.606405 211.320521,386.974381 C219.762275,367.578951 231.047614,351.624073 244.863092,339.551507 C245.196854,339.261301 245.646062,339.135545 246.081726,339.219382 C246.518035,339.299995 246.893073,339.574078 247.100425,339.967468 C249.6612,344.804234 249.976903,350.211738 250.282287,355.438669 C250.419016,357.776439 250.548329,359.985229 250.864677,362.155324 C251.664093,367.633767 253.367084,372.673677 255.170364,378.010242 C256.303542,381.360508 257.475417,384.830081 258.386731,388.383492 C261.086493,398.914742 260.868177,409.710403 260.657278,420.148143 C260.474113,429.202568 260.284497,438.566547 262.025863,447.637094 C263.939108,457.600831 265.258676,467.435588 266.060026,477.702429 C266.140645,478.734272 266.17128,479.814483 266.20385,480.959184 C266.325424,485.241334 266.463443,490.094222 269.51825,492.364278 C269.595644,492.422319 269.676262,492.477135 269.756881,492.531952 C269.953591,490.319938 270.10193,488.078903 270.208346,485.808848 C270.237369,485.186517 270.659811,484.651249 271.259615,484.48035 C275.438893,483.284056 281.962564,482.606909 287.615553,483.877366 C288.331448,479.766116 289.46656,475.767723 290.575874,471.846718 C292.430106,465.307411 294.345609,458.542388 294.242416,451.483935 C294.103752,442.271509 291.933495,433.165492 289.834182,424.359354 C287.318876,413.808756 284.716502,402.893788 285.529139,391.598328 C286.312753,380.696259 288.424965,370.042477 290.466233,359.736941 C292.978314,347.06784 295.574239,333.96343 295.654857,320.462405 C295.664532,318.846925 295.877365,316.705851 296.125671,314.222978 C296.664205,308.799351 297.402673,301.376528 295.809646,298.280998 C295.371079,297.432952 295.109875,296.807397 294.948637,296.326945 C294.464924,296.223761 293.832873,296.043188 292.978314,295.723962 C291.130532,295.033916 287.183436,295.611104 283.70393,296.123801 C280.808103,296.549436 278.073514,296.949276 276.067719,296.762254 C272.139972,296.39466 268.189652,295.820697 264.369289,295.262857 C260.930737,294.759833 257.374804,294.240687 253.878529,293.882766 C247.706678,293.250762 241.510964,293.679622 233.789619,295.275755 C229.486189,296.162495 227.314964,297.104052 226.530382,298.422877 C225.547478,300.073826 226.375917,303.169356 227.857045,308.067387 C227.939598,308.341471 228.116315,308.8058 228.320764,309.344293 C229.596476,312.704233 231.970537,318.959783 227.985067,320.652651 C225.892526,321.545841 224.252096,319.846524 222.954133,317.931165 C223.166322,319.008151 223.45268,320.10126 223.74581,321.216941 C224.589082,324.425328 225.461377,327.74335 224.672603,331.306434 C224.586502,331.693375 224.344968,332.028724 224.004112,332.235093 C223.663256,332.438237 223.253068,332.496278 222.869967,332.389869 C220.9851,331.870723 219.716483,330.777614 218.817745,329.384625 C218.600719,331.016228 218.088629,332.593013 217.107014,334.050492 C216.844197,334.437433 216.408856,334.676047 215.93901,334.688945 C215.470453,334.705067 215.022535,334.482576 214.741015,334.105309 C214.419507,333.676449 214.02899,333.357222 213.577524,332.986403 C213.396293,332.838076 213.206033,332.683299 213.01287,332.5124 C213.007388,332.551095 213.002551,332.586564 212.999004,332.622034 C212.925157,333.360447 212.306327,333.921511 211.564312,333.92796 C211.546899,333.92796 211.52884,333.92796 211.511426,333.92796 C206.040314,333.92796 205.241865,328.546253 204.658185,324.615575 C204.65625,324.602676 204.654638,324.589778 204.652703,324.57688 C203.461803,327.204856 202.138365,329.852179 199.199327,331.467659 C198.627578,331.783661 197.914908,331.677252 197.459573,331.209698 C190.891078,324.460798 197.276407,315.448292 201.501799,309.486172 C202.409566,308.202817 203.267028,306.993625 203.897466,305.961782 C207.085778,300.7413 206.891325,295.646573 206.665593,289.752168 C206.591101,287.80134 206.51403,285.786021 206.556919,283.670742 C206.634313,279.833574 207.473715,260.528431 216.420465,257.104001 C219.907711,255.769054 223.923171,257.087878 228.386549,261.021781 C228.398158,260.947617 228.404608,260.876678 228.405897,260.815412 C228.515217,256.210811 223.443006,254.201942 217.120558,252.363971 C212.65718,257.400656 208.414375,262.440566 204.383759,267.232188 L203.308949,268.509094 C203.033233,268.83477 202.626915,269.025016 202.19899,269.025016 L57.660485,269.025016 C57.2432022,269.025016 56.8462353,268.844443 56.5708416,268.531666 C56.2954478,268.218888 56.1680702,267.799702 56.2212786,267.386964 L68.6310883,171.036015 C68.7242836,170.312435 69.3405336,169.770395 70.0702947,169.770395 L264.69241,169.770395 C268.447632,168.20683 271.933588,165.611744 275.103519,162.39078 C275.480814,160.870101 275.816189,159.333622 276.158012,157.773926 C276.960975,154.094115 277.792961,150.289193 279.250548,146.376249 C281.910968,139.229445 286.738421,134.209849 292.259195,132.629517 C292.810627,130.985984 293.281441,129.41468 293.668411,127.945593 C296.557788,116.951302 298.966677,109.977654 311.469037,105.34371 C316.306164,103.551205 321.317427,102.241731 326.164228,100.975466 C331.746272,99.5173422 337.515352,98.0095612 342.961956,95.7688489 C343.884235,95.3886791 344.900032,94.9901297 345.970649,94.5683637 C352.333083,92.0684008 360.820628,88.7319999 364.548441,83.7478743 C364.877365,83.1513398 365.244987,82.5577075 365.651305,81.968267 C366.083422,81.3398099 366.928307,81.1527883 367.582931,81.5394071 C368.240781,81.9263483 368.485862,82.7560149 368.144038,83.4379988 C367.824788,84.0806437 367.444267,84.697815 367.01215,85.2917698 C366.3672,86.4916101 365.91896,87.6666217 365.641631,88.8155148 C365.91251,88.4940311 366.173715,88.1728698 366.422021,87.8513862 C370.920549,82.0237286 372.413609,71.5669639 371.629994,64.0622384 C369.633873,63.9519602 367.979576,63.0623178 366.792867,61.4436136 C363.245641,56.6016888 364.903163,46.0182008 366.747721,41.937583 C368.040846,39.0742178 372.881197,34.3748163 376.460671,34.1752192 C376.834742,28.4368805 379.820862,21.5409426 384.400008,16.879268 C388.518016,12.6883718 393.100387,11.1015903 397.457026,12.3091694 C398.405103,9.94366861 400.0594,8.34592372 402.39412,7.55011456 C412.097396,4.24176692 430.775154,16.7893041 435.247884,20.3311063 C441.668364,25.4171265 445.112398,34.3844899 444.235266,43.7339577 C443.554843,50.9571834 440.439734,57.2765788 435.644529,61.4636055 C436.179837,61.7960525 436.563583,62.2155613 436.828012,62.5844453 C439.862503,66.7969457 436.544234,77.5529449 431.945739,82.208493 C429.195026,84.9918904 426.050894,85.7241767 423.145393,84.3131309 C420.92354,86.864686 418.692012,89.1244228 416.460484,91.0842803 C415.002897,93.8563918 413.438892,96.5910991 411.897461,99.2851775 C407.63434,106.733152 403.251904,114.392653 401.407346,122.460056 C408.356685,115.442554 416.041266,114.036023 426.528157,117.750981 C425.918679,116.140338 425.247931,114.487132 424.554609,112.775562 C422.039304,106.589983 419.443379,100.194167 419.072533,93.9834375 C419.049959,93.5690879 419.201523,93.1647343 419.494975,92.8713039 C419.788427,92.5778735 420.191521,92.4221296 420.607514,92.4485706 C428.530728,92.9154797 438.685469,96.4988781 447.002102,101.566841 C447.356825,95.0949263 449.046594,88.4869371 450.710566,82.9939837 C454.28359,71.2064636 458.230685,62.2761821 463.138757,54.8885064 C468.875589,46.2510105 476.137728,39.4556773 485.341168,34.1133086 C487.537224,32.8383372 489.555918,31.3070172 491.506892,29.826322 C496.5891,25.9704525 501.838995,21.9817332 510.429732,22.3564213 C529.136513,23.1706102 540.574705,42.2452013 546.875869,58.1036657 C551.26798,69.1588995 555.521427,102.243988 543.493105,113.453676 C539.329952,117.335342 533.815627,118.140179 527.066223,115.863353 C528.278729,118.607411 528.79469,121.599434 528.604429,124.819108 C531.451885,122.266263 535.282889,120.330267 539.826563,119.198141 C545.879421,117.69036 552.661073,117.767748 557.969013,119.405477 C565.2634,121.654896 572.435247,127.528664 579.284618,136.864266 C583.902462,143.157543 588.339719,150.927646 592.844696,160.618912 C597.217459,170.015457 601.458007,180.190077 605.517968,191.016049 C605.82432,189.77429 606.175818,188.579931 606.553114,187.457479 C610.258353,176.50285 619.013552,161.728143 631.499788,156.143291 C642.454268,151.244293 652.931484,152.212613 661.79955,158.944423 C673.124876,167.539678 680.477308,184.622167 682.831377,200.448064 C686.139971,197.076838 688.452118,189.542447 681.499554,172.734687 C681.022291,171.580957 680.570826,170.491073 681.738186,169.847138 C682.018739,169.692039 682.499227,169.573699 682.98294,169.770395 L908.83161,169.770395 C909.499133,169.770395 910.082813,170.226663 910.240826,170.876079 L932.140111,260.193082 C932.246528,260.625166 932.14656,261.083047 931.872457,261.434518 C931.598353,261.782765 931.17591,261.989134 930.730895,261.989134 L887.990043,261.989134 L897.670746,325.976318 L996.428749,325.976318 C997.231712,325.976318 997.879887,326.627669 997.879887,327.427348 L997.879887,344.946112 C997.879887,345.749015 997.231712,346.397142 996.428749,346.397142 L861.9921,346.397142 L883.804316,494.592414 L932.049818,494.592414 C936.1646,493.770164 945.513154,491.180882 950.22129,487.276 L894.229937,487.276 C893.604335,487.276 893.046453,486.872936 892.852968,486.276402 C886.780762,467.729018 885.339298,449.339636 888.560824,431.617727 C891.1374,417.442779 896.687197,403.67412 905.055426,390.692241 C916.677429,372.667228 930.647051,361.133154 935.471279,357.44109 C935.990464,357.038026 936.525772,356.641412 937.070755,356.257695 C937.154599,356.196429 937.199745,356.164184 937.20942,356.160959 C937.867269,355.706304 938.766974,355.870754 939.224889,356.528554 C939.679579,357.183129 939.518341,358.085992 938.863717,358.543873 C938.821795,358.572893 938.776649,358.605138 938.734727,358.634159 C938.521893,358.785711 938.038181,359.133958 937.325511,359.675676 C926.051781,368.401201 918.886384,383.572522 916.01958,404.812372 C913.317239,424.826908 915.403653,443.235638 916.109873,448.401303 C917.261109,456.859194 925.990511,460.783423 935.232647,464.936592 C942.265829,468.096613 949.540868,471.366266 953.78464,476.912424 C955.713042,479.437216 956.354767,481.945885 955.696918,484.373941 L998.548862,484.373941 C999.351825,484.373941 1000,485.022067 1000,485.824971 C1000,486.624649 999.351825,487.276 998.548862,487.276 L954.236106,487.276 C952.17549,490.01361 948.257417,492.464237 942.549608,494.582741 C937.386781,496.4981 932.665745,497.429983 932.469036,497.468677 C932.378743,497.4848 932.285225,497.494474 932.191707,497.494474 L882.549888,497.494474 C881.830769,497.494474 881.221291,496.965654 881.114874,496.256262 L859.057576,346.397142 L730.712481,346.397142 C729.912743,346.397142 729.261343,345.749015 729.261343,344.946112 L729.261343,327.427348 C729.261343,326.627669 729.912743,325.976318 730.712481,325.976318 L857.732203,325.976318 C858.451323,325.976318 859.064026,326.505138 859.167218,327.217754 L861.563208,343.495083 L994.977611,343.495083 L994.977611,328.878377 L896.422767,328.878377 C895.703648,328.878377 895.09417,328.356007 894.987753,327.64339 L885.05552,261.989134 L706.62359,261.989134 C705.997989,261.989134 705.440107,261.58607 705.243397,260.99276 L698.674579,241.020143 C698.529465,240.575161 698.603634,240.091484 698.877738,239.714216 C699.151842,239.336949 699.587183,239.114457 700.054772,239.114457 L883.281907,239.114457 C883.997801,239.114457 884.607279,239.640053 884.716921,240.349445 L887.551477,259.087075 L928.879888,259.087075 L907.693273,172.672454 L684.608215,172.672454 C690.409542,187.164371 690.399868,197.29804 684.579192,202.799377 C684.111603,203.241457 683.705284,203.876363 683.340887,204.626707 C683.814926,209.678547 683.753655,214.504994 683.115155,218.771666 C683.037761,219.27727 682.702387,219.705807 682.228348,219.8996 C678.603728,221.385455 673.150674,220.097263 669.655044,217.832689 C668.842406,217.973923 668.042668,218.137405 667.033321,218.56433 C664.834041,219.4917 663.053978,221.379006 661.170723,223.377235 C658.710238,225.986186 656.16591,228.683489 652.344579,229.674703 C643.837686,231.879624 635.869326,227.892839 630.232461,218.706531 C629.955132,220.85857 628.320184,222.873244 626.840023,224.693157 C626.762629,224.79086 626.68201,224.887273 626.604616,224.983041 C627.346309,224.995939 628.075103,225.077841 628.794222,225.230038 C632.367246,225.985864 635.069588,228.500014 637.688086,230.931295 C640.690329,233.722109 643.524885,236.357501 647.681589,236.834729 C657.278449,237.937511 663.411925,230.252213 668.41029,222.962563 C668.768237,222.444061 669.416412,222.213509 670.01944,222.391502 C676.672102,224.354906 682.570172,227.82319 687.075149,232.421664 C691.889703,237.334528 695.027385,243.315995 696.397905,250.1971 C697.742626,256.949224 697.484646,263.366 695.633639,269.270078 C695.41758,269.960124 695.149926,270.698537 694.856474,271.472419 C694.904845,271.553032 694.953216,271.633645 694.998363,271.714257 C698.493993,277.747316 698.068326,287.04358 694.011589,293.337824 C693.79553,293.673173 693.453707,293.902113 693.066737,293.976277 C692.679767,294.053665 692.273448,293.966603 691.950973,293.734439 C684.901667,288.729999 688.610131,279.382143 691.315697,272.555855 C691.409215,272.320465 691.502732,272.085076 691.593025,271.852911 C690.016122,269.863388 687.368601,268.022193 683.011963,268.251133 C675.040378,268.667095 674.256763,274.471214 673.91494,283.980295 C673.879468,284.96377 673.843995,285.982716 673.789174,286.959742 C673.515071,291.896468 672.241294,296.865438 671.009439,301.669959 C669.006869,309.486172 667.117164,316.867076 669.132634,324.119 C669.616347,325.857011 670.954618,328.607518 672.486375,330.980758 C674.505069,331.980356 676.459268,333.247589 678.284478,334.679271 C678.610177,334.12788 678.852034,333.460406 678.981024,333.060567 C679.168059,332.480155 679.700143,332.080316 680.312846,332.057744 C680.909425,332.035173 681.480206,332.402767 681.709163,332.970281 C682.296068,334.443882 683.160301,335.533767 684.285739,336.230261 C684.456651,335.217765 684.575967,334.476127 684.072906,333.421712 C683.766554,332.773586 683.976163,331.999703 684.572742,331.596639 C685.166096,331.193576 685.96261,331.287086 686.449547,331.812682 C687.3815,332.821953 688.242509,333.04122 689.548533,333.373345 C689.764592,333.428161 689.990324,333.486203 690.225731,333.547468 C690.538532,331.119412 689.135765,328.555926 687.665279,325.866685 C686.449547,323.644997 685.195119,321.349146 684.846846,318.959783 C684.775902,318.466433 684.959712,317.973083 685.337008,317.647408 C685.714304,317.324957 686.233489,317.218548 686.707527,317.363651 C687.146094,317.49908 687.597559,317.644183 688.061923,317.795735 C690.341822,318.530923 692.853903,319.337051 695.043509,319.282234 C693.947094,318.334228 692.51208,317.33463 691.106088,316.351154 C687.436321,313.790893 683.640789,311.14357 683.202223,307.931958 C682.957142,306.135906 683.731082,304.043198 685.4402,301.882776 C687.878112,298.803369 691.589801,296.297924 694.072859,296.059311 C700.103144,295.488572 707.984435,302.769517 711.68645,307.170973 C719.00986,315.873927 721.060801,326.692159 722.821515,338.90338 C724.25008,348.815525 723.792165,357.54105 721.380052,366.360086 C721.189791,367.053356 720.889889,367.988464 720.541616,369.071899 C720.206242,370.11664 719.790249,371.409669 719.374256,372.831678 C723.21816,376.552763 724.114641,382.711578 721.776696,390.508444 C721.576761,391.179142 720.928586,391.604777 720.23204,391.533838 C718.293965,391.32747 716.752534,390.421382 715.775434,388.91876 C713.527783,385.462085 714.572602,379.293597 716.049538,373.889318 C715.333643,373.415314 714.504882,373.005802 713.550356,372.680126 C708.413327,370.922768 704.42431,371.003381 702.018646,372.912291 C699.654903,374.785731 698.635882,378.610001 699.145393,383.672482 C699.300181,385.220247 699.335653,386.377846 699.364676,387.306505 C699.44207,389.886113 699.44207,389.886113 702.437863,391.724084 C703.424637,392.327068 705.282094,392.620498 707.249192,392.930051 C711.189838,393.555606 716.097909,394.329489 717.532923,398.489107 C718.329437,400.788183 717.839275,402.800277 716.149505,404.151347 C711.460717,407.898228 698.632657,405.48307 695.266017,403.396812 C687.716875,398.714823 689.251856,387.725692 690.490161,378.896982 C690.886805,376.036841 691.267326,373.337926 691.299573,371.164606 C691.460811,361.439483 689.393745,353.120246 685.159647,346.435836 C683.424731,343.698227 680.980369,340.841311 678.171611,338.371336 C677.845911,338.461622 677.494414,338.506765 677.120342,338.500316 C674.714678,338.448724 672.370284,336.049688 670.48058,333.247589 C668.842406,332.499502 667.184884,331.967458 665.55316,331.72562 C661.960787,331.187127 658.781183,332.073867 656.101415,334.369718 C649.484225,340.038408 649.564844,349.673245 649.642238,358.99208 C649.664811,361.468504 649.68416,363.806274 649.580968,366.06988 C649.54872,366.788946 648.994063,367.372582 648.281393,367.446746 C647.230124,367.556379 645.585501,367.553155 643.505537,367.546706 C638.294339,367.533808 627.459175,367.508011 625.517875,370.464887 C625.346963,370.729297 625.166377,371.135586 625.305041,371.835304 C630.371125,371.986856 640.277561,374.192421 644.89218,378.674491 C646.656119,380.38993 647.5397,382.298841 647.517127,384.34318 C647.47843,387.548343 645.936999,389.179946 644.650323,389.979624 C638.439453,393.852261 624.031265,387.196872 622.40599,386.422989 C613.654015,382.260146 613.712061,379.864335 615.314762,371.361301 L615.388932,370.971136 C616.404728,365.566856 616.83362,360.017474 613.273495,355.886876 L589.826329,355.886876 C587.836658,355.906223 585.721221,355.664385 583.679954,355.43222 C580.8196,355.106545 578.172079,354.803441 575.869607,355.087198 C576.404915,358.040849 577.253025,361.007399 578.088235,363.912682 C579.210449,367.836912 580.374584,371.890121 580.793802,375.943331 C581.038883,378.313346 581.1324,380.696259 581.225918,383.001784 C581.39683,387.287158 581.558068,391.333919 582.596437,395.377455 C582.728652,395.893376 582.567415,396.441543 582.173995,396.802688 C581.7838,397.167058 581.222693,397.28314 580.719632,397.109017 C578.93957,396.49636 576.569378,396.125541 573.873486,396.025581 C575.540682,399.798258 577.37879,403.548364 579.19755,407.263 C583.570312,416.18522 588.088189,425.410544 589.932746,434.410153 C591.31294,441.14293 591.409682,448.075628 591.5032,454.77616 C591.558021,458.661695 591.612842,462.679435 591.922418,466.568195 C592.557694,474.539184 595.395475,481.642781 598.136513,488.514212 C601.193577,496.172424 604.160348,503.595247 603.55087,511.337297 C603.93784,511.443705 604.260315,511.704891 604.447351,512.059587 C607.884936,518.579547 607.030377,525.328447 606.201616,531.858081 C606.079075,532.835107 605.95331,533.815358 605.843668,534.798834 C605.608261,536.89799 605.640509,539.180944 605.675981,541.599326 C605.734027,545.413922 605.795297,549.360723 604.727904,552.807724 C602.477028,560.075771 595.540588,564 585.069822,564 C584.237836,564 583.383277,563.977428 582.506144,563.925836 Z"/>
</svg>
