<svg xmlns="http://www.w3.org/2000/svg" width="1000" height="570" viewBox="0 0 1000 570">
  <defs>
    <linearGradient id="img-investments-grad-a" x1="26.74%" x2="75.412%" y1="93.581%" y2="93.581%">
      <stop offset="0%" stop-color="#A2BB68"/>
      <stop offset="100%" stop-color="#D7478C"/>
    </linearGradient>
  </defs>
  <path fill="url(#img-investments-grad-a)" fill-rule="evenodd" d="M308.428346,56.0780942 C298.894259,56.0780942 289.887399,57.3278461 281.758994,59.8782973 C252.174841,69.1615073 245.92531,104.916455 245.89287,133.27633 C245.887485,138.00439 247.024536,142.574978 248.438708,147.024373 C248.136884,133.466996 248.105235,120.561126 251.554983,107.645994 C253.643049,99.8263597 259.959739,88.3616803 265.347026,82.6115863 C271.565681,75.9737747 280.612681,74.2369359 288.643051,73.4132884 C316.687207,70.5401712 354.876817,86.8193675 378.493191,103.164178 C379.196418,103.651265 379.859505,104.195474 380.485538,104.793718 C381.382519,104.235614 382.247079,103.566352 383.073814,102.772038 C387.229876,98.778853 388.989873,94.4521948 388.307488,89.9132562 C387.158087,82.2773413 379.632558,75.970687 372.973132,72.6151146 C351.41935,61.7540831 328.737008,56.0780942 308.428346,56.0780942 Z M553.172851,96.9679091 C566.423,96.9679091 576.766068,101.910566 584.638965,111.957213 C589.935165,118.71699 591.597899,123.697471 592.964212,131.07093 C593.220492,132.45577 593.388772,134.060609 593.567088,135.759623 C594.14063,141.231823 594.853892,148.041774 599.036972,150.400787 C602.28679,152.234117 608.013726,149.967736 613.065997,147.968441 C616.447815,146.630689 619.714616,145.338481 622.444926,145.150903 C622.863311,140.764806 623.47545,136.413446 624.078326,132.133876 C626.975373,111.558898 629.711859,92.1248309 609.981371,75.8865468 C596.709608,64.964533 577.638347,59.9794199 558.959225,62.552257 C541.370839,64.97534 526.692622,73.4765866 517.627867,86.4905261 C509.39834,98.304889 507.873781,110.832514 508.190272,123.949892 C514.437488,109.863744 528.562232,99.6712021 545.354761,97.4959081 C548.066545,97.1446807 550.671803,96.9679091 553.172851,96.9679091 Z M625.218465,149.162614 C625.013904,152.285064 624.94057,155.407514 625.075658,158.510666 C625.080289,158.622596 625.085693,158.735297 625.091868,158.847999 C625.121973,158.716771 625.149763,158.588631 625.176008,158.464351 C626.364006,152.613906 625.852218,150.176928 625.218465,149.162614 Z M271.300909,147.026689 C269.127159,147.026689 267.568636,147.83181 266.646954,149.438193 C264.265555,153.588851 265.945271,162.279992 269.239861,169.649592 C273.853676,161.657818 277.317319,153.320992 275.402165,147.745354 C273.854448,147.265986 272.485819,147.026689 271.300909,147.026689 Z M506.14003,141.210209 C502.427827,156.504425 502.063477,168.114998 505.108734,174.917231 C507.612869,163.821533 506.962906,152.374608 506.14003,141.210209 Z M282.328677,180.91743 C282.517028,180.91743 282.707694,180.951394 282.889097,181.022412 C283.399342,181.221569 283.765236,181.675463 283.852464,182.216585 C288.082631,208.602639 314.904824,238.088757 344.481258,238.088757 C344.499784,238.088757 344.514451,238.088757 344.532205,238.088757 C358.578985,238.072546 359.850351,232.127926 361.957715,222.278893 C362.542065,219.54781 363.204379,216.452378 364.231044,213.288244 C364.568377,212.246912 364.85013,211.084388 365.149639,209.853935 C366.247321,205.330435 367.613634,199.701533 372.916009,198.622377 C378.314104,197.52238 382.872341,196.423926 383.962304,194.108141 C384.714934,192.508705 384.09276,189.877202 382.058728,186.063876 C378.869121,180.084519 376.89144,172.501867 376.630528,165.259636 C376.493897,161.483362 378.730173,158.732982 380.892345,156.072145 C382.610657,153.959377 384.23325,151.962398 384.802934,149.461351 C387.59963,137.18769 387.083982,117.762114 379.820136,108.634834 C372.412712,111.882336 363.73701,109.747182 355.894218,107.81659 C350.403492,106.465715 345.217677,105.185086 340.765967,105.644383 C335.788573,106.153084 332.544158,107.458415 330.846688,109.634481 C328.527815,112.605633 329.187814,117.171589 329.886409,122.006176 C330.700793,127.635849 331.623248,134.016609 327.390765,138.514635 C324.238982,141.86326 319.821236,142.365785 315.549384,142.851328 C312.401461,143.209503 309.427993,143.547608 307.164699,144.981851 C299.279451,149.977771 298.983031,161.420836 299.221557,166.107985 C299.244715,166.556475 299.071031,166.993387 298.746049,167.303702 C298.420295,167.614017 297.975664,167.764543 297.52949,167.723631 C295.551809,167.529105 293.77869,167.136193 292.064237,166.756405 C290.132873,166.328756 288.308806,165.925038 286.202214,165.782231 C285.425654,165.72974 284.808883,165.107566 284.764883,164.330234 C284.677655,162.822658 284.666848,161.253328 284.655269,159.59291 C284.59969,151.890609 284.542568,143.926625 277.101179,141.244174 C273.000696,139.765931 268.969686,140.019123 266.042534,141.937365 C263.157066,143.82859 261.475806,147.255951 261.180157,151.848153 C260.703105,159.251717 261.458823,173.903689 261.466543,174.050355 C261.49356,174.55674 261.269701,175.043055 260.869842,175.352598 C258.764793,176.979823 256.555535,177.641366 254.2961,177.314068 C251.443825,176.901087 248.929655,174.954283 246.757448,172.611481 C246.860887,173.82804 246.917238,174.975897 246.915694,176.008737 C246.908746,180.590904 246.625449,185.312017 246.350642,189.877973 C246.036467,195.101612 245.713029,200.478093 245.822643,205.558925 C247.870569,201.880687 250.290564,198.278869 252.752244,194.61607 C253.812101,193.03902 254.881994,191.446532 255.935676,189.827026 C256.97392,188.232222 258.300093,186.320928 259.703458,184.29616 C261.979103,181.015464 264.734115,177.042349 267.323935,172.852322 C263.087592,164.50469 260.610474,153.754044 263.968362,147.901283 C265.576289,145.100728 269.154949,142.331821 277.074933,145.043605 C277.485599,145.184096 277.817528,145.490551 277.99044,145.888094 C281.118294,153.078607 276.631074,163.40778 270.884068,172.96734 C272.514381,175.940808 274.380131,178.488943 276.276759,180.126203 C279.388402,182.812514 280.881312,181.636095 281.371486,181.248587 C281.648608,181.030131 281.986713,180.91743 282.328677,180.91743 Z M244.143699,217.580165 C242.960333,222.350682 242.908614,227.399865 244.613804,233.075854 C245.770152,236.927005 247.703833,240.557383 250.217231,243.799482 C250.069793,242.373731 249.886074,240.941032 249.653724,239.504473 C248.932742,235.048131 247.728534,230.848841 246.563694,226.787726 C245.707626,223.801135 244.836119,220.761282 244.143699,217.580165 Z M241.332336,165.620126 C225.408999,182.5269 216.123473,213.143121 212.996392,259.055874 C221.935321,253.332797 237.362309,250.147821 246.43787,254.486058 C247.932323,255.200864 249.530215,256.242195 250.915826,257.755946 C250.904247,257.334473 250.89344,256.913773 250.882633,256.495387 C250.81702,254.012094 250.751406,251.490204 250.61323,248.941297 C246.477239,244.654779 243.325455,239.522228 241.656546,233.964344 C239.064411,225.336501 240.18911,218.003954 243.071491,211.150002 C242.964965,210.18432 242.882368,209.202427 242.829877,208.202008 C242.514159,202.239634 242.897807,195.86119 243.268332,189.692711 C243.540823,185.171527 243.821805,180.495957 243.827981,176.004106 C243.831068,173.614216 243.540823,170.830642 243.104684,168.058648 C242.853035,167.713596 242.608334,167.374719 242.371352,167.04665 C242.013177,166.5503 241.663494,166.066301 241.332336,165.620126 Z M254.491398,270.089817 C254.685152,270.229536 254.846485,270.413255 254.958415,270.627079 C254.843398,270.390869 254.661994,270.195571 254.443539,270.05508 C254.459749,270.066659 254.475188,270.077466 254.491398,270.089817 Z M322.271336,271.920831 C327.895606,271.920831 334.391383,274.158651 341.682246,278.613449 C341.205966,274.489036 340.811511,270.74364 340.369196,266.540491 L340.33909,266.250246 C340.242599,265.330879 340.151512,264.380635 340.058881,263.409549 C339.688355,259.542188 339.280777,255.290407 338.356007,251.5728 C335.861906,255.817634 332.127317,259.298259 328.489991,262.687796 C326.253714,264.772003 323.941789,266.927227 322.021231,269.183573 C321.225373,270.119922 320.456533,271.08792 319.699271,272.085252 C320.535269,271.975638 321.392882,271.920831 322.271336,271.920831 Z M260.154264,281.125304 C264.711729,287.925993 270.918033,293.086334 277.497178,295.215312 C284.872953,297.603658 292.519675,296.224222 299.610609,291.229846 C300.718326,290.448654 301.76892,289.59027 302.771655,288.670132 C303.209338,286.941012 303.641618,285.197998 304.075442,283.448037 C306.859015,272.224971 309.725185,260.668432 314.54279,250.058277 C305.513544,255.156864 299.381346,258.221419 296.288229,259.17861 C289.030559,261.426465 280.725382,262.084148 273.502449,260.986466 C266.271796,259.886468 259.417845,256.619668 253.836803,251.94487 C253.89161,253.447814 253.930206,254.937636 253.968803,256.414335 C254.042136,259.194821 254.112382,261.874956 254.272943,264.541196 C254.551609,265.909053 254.68824,267.438243 254.643468,269.146521 C254.634977,269.451432 254.539258,269.733186 254.380241,269.969396 C254.625714,270.124554 254.830275,270.349957 254.959959,270.630939 C254.997783,270.702728 255.029432,270.778377 255.055678,270.85557 C255.071116,270.901114 255.083467,270.945886 255.094274,270.991429 C255.151397,271.142727 255.213151,271.317955 255.278765,271.513253 C255.536589,272.221111 255.811396,272.920478 256.102413,273.610582 C257.941918,275.512613 259.172372,278.185801 260.154264,281.125304 Z M443.095872,300.643512 C442.246751,301.040283 441.494121,301.560563 440.900508,302.238316 C440.065282,303.190875 439.759598,303.962804 439.991949,304.531715 C440.350895,305.416345 441.516507,306.177466 443.211662,306.835149 C443.164574,304.772556 443.125206,302.710736 443.095872,300.643512 Z M446.322533,307.798515 C453.029818,309.496758 463.372886,310.308054 469.380804,310.778931 C474.722548,311.198088 477.810261,311.456684 479.164223,311.905174 C480.396993,312.312752 481.583446,312.803699 482.722813,313.376469 C482.505901,313.025242 482.278954,312.683278 482.041972,312.349805 C478.414681,307.252762 462.707483,300.119372 450.996559,299.528847 C449.509053,299.45397 447.803863,299.476356 446.172007,299.743443 C446.206744,302.43207 446.257691,305.115293 446.322533,307.798515 Z M620.728929,181.89855 C618.452513,185.329772 616.126693,188.674537 613.860311,191.933619 C600.980687,210.456811 588.815097,227.952566 591.061408,253.731112 C593.564,282.437582 610.866001,304.473048 638.832192,314.94194 C624.214186,294.952084 632.093258,262.971866 637.438862,241.272189 L637.560054,240.782786 C640.247909,229.870808 641.037592,221.53321 639.862717,212.743262 C627.038671,206.120117 623.963309,194.795929 620.728929,181.89855 Z M703.702732,303.59305 C703.630171,306.820482 703.673399,310.247844 703.855574,314.052679 C703.889539,314.770572 703.925048,315.486921 703.9621,316.200955 C705.610939,315.068536 706.886165,313.815697 707.625672,312.427769 C708.528056,310.734931 708.563565,308.921671 707.736058,306.882236 C707.117743,305.35845 705.763781,304.256908 703.702732,303.59305 Z M698.036779,302.849683 C686.68866,302.849683 670.34771,309.46974 666.695717,313.467557 C662.345901,318.229583 660.497904,324.911394 659.893485,332.03938 C662.055656,330.083314 664.625405,328.457633 667.687645,327.248021 C669.421396,326.563321 672.614863,325.897147 676.657452,325.053429 C683.704385,323.583678 694.032014,321.428454 700.962387,317.949373 C700.895229,316.704252 700.831159,315.4545 700.770949,314.200889 C700.574879,310.095774 700.537054,306.426027 700.62737,302.978595 C699.800635,302.891367 698.933759,302.849683 698.036779,302.849683 Z M376.225266,285.312243 C371.396854,285.312243 365.620515,294.323735 362.427047,299.307304 C361.635049,300.541617 360.951892,301.608422 360.389929,302.388842 C348.31697,319.149721 343.019998,338.862455 337.897481,357.926768 C337.188851,360.563676 336.474817,363.222197 335.738398,365.887665 C338.393831,362.352233 340.877125,358.526557 343.3774,354.192951 C349.125179,344.229672 355.161658,334.227797 360.99898,324.554763 C365.138832,317.693864 369.419174,310.600615 373.551306,303.596138 C373.741201,303.275015 373.959656,302.912209 374.198954,302.514666 C376.27081,299.071094 381.123923,291.009074 379.618663,287.296871 C379.381681,286.712521 378.869121,285.882698 377.163159,285.431892 C376.85516,285.35084 376.542529,285.312243 376.225266,285.312243 Z M301.482535,364.435668 L328.151886,374.745543 C329.070481,373.803018 329.957427,372.852002 330.820442,371.88632 C331.14774,370.778603 331.46809,369.66857 331.783809,368.559309 L304.680634,357.625716 L301.482535,364.435668 Z M356.917023,375.366945 L364.038834,378.240062 C365.656024,376.929328 367.431459,375.607787 369.587454,374.574175 C364.842411,373.971299 360.733437,374.214456 356.917023,375.366945 Z M332.65686,376.487013 L342.656419,380.35283 C342.904208,380.149813 343.146594,379.950655 343.383576,379.756901 L344.536065,378.811289 C346.072202,377.546871 347.589813,376.463083 349.097389,375.542173 L336.193835,370.33706 C335.346258,371.389198 334.477067,372.419723 333.583174,373.434036 C333.279806,374.452982 332.971807,375.471927 332.65686,376.487013 Z M659.661134,336.82302 C659.562327,343.03164 660.172151,349.329031 660.699378,354.795055 C660.830606,356.149018 660.957202,357.461296 661.069131,358.717995 C661.321552,361.564095 661.464359,364.668018 661.616429,367.953345 C661.844919,372.921476 662.085761,378.146659 662.72569,383.126368 L676.254505,343.82827 C676.452119,343.316481 680.784181,332.602888 695.918607,332.602888 L701.87249,332.602888 C701.623158,328.885281 701.374597,325.102832 701.149194,321.272524 C694.000365,324.590272 684.485577,326.5749 677.288117,328.0763 C673.544265,328.857492 670.309885,329.532157 668.822379,330.120367 C664.972773,331.640293 661.98927,333.947587 659.661134,336.82302 Z M351.710367,383.852753 C353.351486,384.001735 354.761799,383.845034 356.033165,383.472964 C357.643408,382.331282 359.243615,381.255986 360.826068,380.273321 L352.775628,377.025819 C350.649737,378.09494 348.580969,379.480551 346.499078,381.195004 L345.965676,381.631915 L351.710367,383.852753 Z M159.254742,242.619204 C158.864146,242.619204 158.478954,242.653941 158.099937,242.72573 C156.324502,243.063063 155.148083,243.965447 154.399313,245.566426 C149.544656,255.947318 165.165397,288.281852 171.020473,298.790884 C179.666843,314.311275 186.879741,328.514756 187.549003,345.179144 C188.259949,362.884864 175.279974,374.165824 162.723788,385.074715 C173.093101,381.448968 185.917918,378.496342 195.789337,381.135565 C196.801335,376.10954 195.370952,367.287943 194.551164,362.227181 C194.419937,361.419744 194.301832,360.688728 194.206112,360.058063 C192.863729,351.207132 192.524081,342.946727 192.244643,333.837201 C191.7151,316.523621 190.617418,296.293696 186.493005,277.51268 C184.550061,268.667925 169.921248,242.619204 159.254742,242.619204 Z M390.224958,378.15129 C394.20502,380.305742 398.286205,382.989737 402.447671,386.19324 C401.942058,384.716541 401.330691,383.275351 400.641359,381.868897 C397.526628,380.399918 393.831407,379.137815 390.224958,378.15129 Z M402.950196,379.630305 C406.691733,381.547003 409.647446,383.804121 410.850111,386.325239 C411.124145,386.898782 411.35032,387.56264 411.447583,388.295972 C415.175225,378.121185 417.577466,365.508648 419.135989,357.327752 C419.383778,356.027825 419.612269,354.825932 419.825321,353.744461 C423.677244,334.142113 425.674994,311.769315 425.602433,289.046061 C425.592398,286.057154 425.711275,283.007265 425.826292,280.058499 C426.3018,267.868979 426.793518,255.264162 418.825674,240.982716 C412.647932,229.909404 402.84367,218.41462 395.745017,211.140739 C403.335389,222.639383 412.024986,237.88188 415.195295,245.236813 C422.637456,262.503305 427.049027,317.03541 392.887339,337.543229 C387.715419,340.647153 384.897881,343.775779 384.272619,347.106649 C383.269884,352.447621 387.858226,358.370627 393.170637,365.22921 C396.516946,369.549693 400.207535,374.314035 402.950196,379.630305 Z M406.523453,389.497865 C406.991241,389.896952 407.462117,390.303758 407.930678,390.715968 C408.679448,389.377444 408.403098,388.36699 408.06345,387.655272 C407.523872,386.524397 406.475593,385.439838 405.073771,384.417033 C405.678963,386.060468 406.172997,387.753307 406.523453,389.497865 Z M375.623162,391.274844 C373.023307,391.346633 370.604084,391.704808 368.715175,392.472876 C368.201843,392.682069 367.742546,392.915191 367.340371,393.173787 C369.937138,392.958419 372.575589,392.177228 375.32211,391.364387 C375.422461,391.33351 375.522811,391.304177 375.623162,391.274844 Z M489.242519,322.614908 C490.605745,330.034683 490.326307,338.46028 490.068483,346.239774 C489.921816,350.670642 489.782869,354.855266 489.944974,358.570557 C490.076202,361.57413 489.889395,365.244649 489.691782,369.129764 C489.201607,378.789675 488.616485,390.310705 492.598092,397.132236 C493.027284,396.158834 493.408616,395.223257 493.725879,394.333224 C499.289938,378.748763 502.210915,347.355982 493.225669,328.951667 C492.062373,326.567952 490.733113,324.454413 489.242519,322.614908 Z M407.11089,395.784449 C407.101627,396.452167 407.069206,397.126832 407.012855,397.809217 C407.498398,397.024938 407.969274,396.188167 408.42394,395.308169 C408.34366,395.234064 408.263379,395.160731 408.182327,395.08817 C407.842678,395.359116 407.484503,395.589923 407.11089,395.784449 Z M661.727586,400.19216 C662.654672,400.19216 663.579442,400.198335 664.498809,400.210686 C663.51846,398.469988 662.712567,396.581079 662.044849,394.585644 L660.112712,400.198335 C660.653062,400.194475 661.190324,400.19216 661.727586,400.19216 Z M656.618965,341.565748 C653.293497,348.114788 652.022132,356.369789 651.295747,364.748299 C651.041783,367.67082 651.022484,370.594884 651.003958,373.422458 C650.968449,378.685465 650.931397,384.127559 649.341996,389.438426 C648.280595,392.986981 646.293651,395.98901 644.372322,398.89146 C643.928463,399.563038 643.49078,400.223037 643.070079,400.881492 C647.610561,400.578896 652.238271,400.347317 656.831245,400.246967 L660.617553,389.25162 C659.196433,382.518089 658.852925,375.062805 658.531803,368.096152 C658.381277,364.844018 658.240786,361.772515 657.992997,358.990486 C657.882611,357.741506 657.756787,356.437719 657.626331,355.092248 C657.223385,350.926922 656.776438,346.299212 656.618965,341.565748 Z M400.534833,396.388097 C401.877216,398.144234 402.794267,400.112651 403.161705,402.102682 C403.64416,400.216089 403.913563,398.385847 403.999247,396.608096 C402.899249,396.688377 401.734409,396.592658 400.534833,396.388097 Z M313.940686,391.319616 C314.838438,395.167678 315.08314,399.469635 314.54279,403.107733 C318.95822,399.669564 322.492108,395.247959 324.783191,389.582777 C326.245223,385.967837 327.562905,382.255633 328.78178,378.49557 C325.724172,381.498372 322.341582,384.450997 318.480396,387.530219 C316.930364,388.764533 315.415841,390.052109 313.940686,391.319616 Z M407.230539,402.777348 C410.72969,403.747662 415.155927,404.498748 418.382587,404.972712 C416.432696,402.984996 413.722456,400.2763 410.765199,397.485007 C409.678324,399.485845 408.502677,401.275175 407.230539,402.777348 Z M494.737877,399.886476 C495.386297,400.507878 496.108822,401.049 496.913171,401.500578 C506.126907,406.667094 525.533185,405.867377 539.702702,405.282255 C543.79315,405.113203 547.657423,404.954185 550.796855,404.954185 C568.783557,404.954185 587.381626,404.954185 605.977379,404.034819 C610.016108,403.834117 615.33701,403.322329 621.499314,402.729488 C626.958391,402.204577 633.001818,401.624087 639.289174,401.150123 C640.078857,399.784582 640.945732,398.474619 641.797169,397.187815 C643.677586,394.347118 645.453022,391.663124 646.383967,388.553796 C647.846771,383.665174 647.880736,378.680061 647.916245,373.401615 C647.935543,370.513832 647.955613,367.527241 648.219613,364.481212 C649.149786,353.749864 650.963046,343.192201 656.596579,335.669759 C656.862122,326.581847 658.691592,317.652952 664.416213,311.385666 C669.260835,306.080975 688.673288,298.7492 700.744703,299.89011 C701.139158,291.98788 702.212139,284.965648 703.586171,275.974999 L703.969048,273.460828 C705.94364,260.47545 704.107995,236.625181 690.772933,227.90625 C682.77344,222.674892 673.380616,221.004439 663.436636,219.235951 C657.76991,218.227813 651.910202,217.18571 646.397862,215.419538 C645.265443,215.056731 644.188603,214.66768 643.165026,214.254698 C644.046568,222.725067 643.158079,230.965402 640.558224,241.521522 L640.437803,242.011696 C634.869112,264.609126 626.47362,298.692077 644.548322,316.898006 C644.726637,316.98755 644.886426,317.111059 645.018426,317.263128 C646.075968,318.480459 645.56032,319.307967 645.158917,319.692387 C644.77604,320.058281 643.987902,320.510631 642.90257,319.598212 C610.754072,309.572407 590.748777,285.688944 587.986046,253.998971 C585.6417,227.107304 598.117605,209.166146 611.325299,190.171306 C614.223118,186.003665 617.219743,181.694761 620.068159,177.266209 C620.40086,176.750561 621.002192,176.478842 621.615103,176.577649 C622.221067,176.677227 622.712013,177.12649 622.863311,177.722418 C623.084083,178.592381 623.299451,179.453853 623.512503,180.30529 C626.676637,192.939441 629.125966,202.715141 639.225104,208.870498 C638.609105,205.70482 637.749177,202.427984 636.639916,198.908763 C635.158585,194.206176 632.889888,189.417132 630.486875,184.346335 C628.144845,179.40445 625.75727,174.363758 624.106888,169.313803 C620.480368,175.966281 614.889292,183.004724 608.601936,185.240228 C605.210082,186.444436 601.896194,186.096297 598.931218,184.238265 C597.812693,185.961981 596.723503,187.67103 595.648206,189.358466 C586.425207,203.828262 577.713996,217.495253 559.998241,225.314115 C550.366119,229.566668 541.299821,229.732633 533.052539,225.808921 C522.900138,220.978965 514.706119,209.910285 510.44739,195.330875 C496.12812,196.427013 482.161621,201.482372 466.6173,211.181651 C451.56933,220.571387 449.705895,232.376487 447.912705,250.858767 C446.435234,266.086597 446.011446,281.388532 446.138042,296.619449 C447.645618,296.411029 449.318387,296.352362 451.152488,296.445766 C462.927483,297.039378 480.098256,304.294733 484.557686,310.558931 C485.855298,312.382226 486.869612,314.417801 487.660066,316.611621 C490.987849,319.37358 493.777598,323.044872 496.000752,327.596933 C505.783399,347.636192 502.161512,379.885813 496.634505,395.372239 C496.125032,396.798763 495.474297,398.309426 494.737877,399.886476 Z M343.226874,383.88363 C336.097344,389.785794 324.931401,399.574617 323.855333,407.160357 C328.652868,405.177273 335.385626,399.729003 342.461893,394.002066 C345.405256,391.620668 348.391075,389.204532 351.369174,386.922712 C351.309736,386.916536 351.249525,386.910361 351.190087,386.904186 C351.054227,386.890291 350.920684,386.85787 350.793316,386.808466 L343.226874,383.88363 Z M668.183223,400.302545 C681.093724,400.761843 692.839385,402.739523 700.384985,407.681408 C705.249677,383.19507 703.728206,360.087396 702.081683,335.690601 L695.918607,335.690601 C682.96951,335.690601 679.301306,344.520689 679.15078,344.896618 L663.81874,389.433795 C664.749686,393.528874 666.116771,397.265007 668.183223,400.302545 Z M121.755236,412.59782 C123.605548,413.228485 125.766948,413.063292 128.313539,412.10147 C136.98847,408.82695 143.532878,401.33307 149.861918,394.086207 C150.047181,393.873926 150.232444,393.661646 150.418479,393.449366 C140.753936,397.934269 128.555153,404.676291 121.755236,412.59782 Z M638.060264,410.901121 C643.136465,411.723997 647.852947,412.514451 652.334762,413.31031 L655.76444,403.349346 C650.894344,403.483662 645.987196,403.758468 641.192749,404.10352 C640.866995,404.744221 640.570575,405.393413 640.311207,406.061131 C639.898997,407.12176 639.453595,407.928425 639.059911,408.640915 C638.606017,409.463791 638.256334,410.097544 638.060264,410.901121 Z M282.59808,412.080628 C283.584605,412.659574 284.967128,413.077187 286.649932,413.312625 C295.541774,412.106873 303.914109,409.808071 310.75185,405.702184 C311.932128,402.655383 312.02476,397.916515 311.275989,393.609155 C308.226101,396.212097 305.045756,398.81118 301.502605,401.004228 C299.332714,402.347384 296.816228,403.547732 294.382338,404.70794 C289.983119,406.804498 285.449584,408.965897 282.59808,412.080628 Z M201.804203,411.725541 C206.171001,411.725541 210.523905,411.967154 215.062072,412.218031 C219.576309,412.468136 224.243387,412.726732 229.009273,412.732135 C231.414601,412.734451 234.513893,412.907363 237.794589,413.089538 C246.97436,413.600555 258.398128,414.23508 264.18373,411.871435 C267.525408,410.505894 268.595301,407.371093 269.950035,403.401066 C270.730454,401.115386 271.561049,398.67918 272.937397,396.415114 C261.397069,394.235961 245.590293,393.48719 234.044561,396.539395 L233.437053,396.699956 C223.957002,399.201776 207.016263,403.672784 200.100557,411.738663 C200.668696,411.7294 201.236064,411.725541 201.804203,411.725541 Z M265.910534,414.482869 C270.574525,414.514518 275.323428,414.381746 279.992822,414.016624 C279.736542,413.805116 279.496472,413.576625 279.275701,413.331152 C278.790158,412.788486 278.748474,411.981049 279.176894,411.392068 C282.356467,407.020638 287.794702,404.42773 293.053849,401.920507 C295.520932,400.744088 297.851384,399.632512 299.876924,398.3789 C303.702601,396.010624 307.017261,393.203121 310.480903,390.223477 C309.82322,388.058218 308.928555,386.204047 307.838592,385.017593 C305.49579,385.623557 303.117479,386.160819 300.808641,386.682642 C294.113707,388.195622 287.190282,389.759548 280.828049,393.089647 C279.37528,393.849997 278.218159,394.76396 277.271003,395.782905 C277.186091,396.130273 276.983074,396.440588 276.692057,396.655956 C276.599425,396.724658 276.499847,396.782552 276.396408,396.828868 C274.678096,399.106828 273.765677,401.780788 272.872555,404.398397 C271.515505,408.3746 270.114456,412.479715 265.910534,414.482869 Z M368.10458,429.157998 C371.024013,430.199329 375.606951,429.9114 380.625257,428.265649 C380.832906,428.196947 381.040555,428.127474 381.245116,428.056456 C377.957473,426.80516 372.873553,426.972669 368.10458,429.157998 Z M197.638106,385.023768 C194.722532,390.052881 185.610691,395.139889 178.251126,399.248863 C175.83885,400.595106 173.756187,401.75763 172.257875,402.718681 C162.113193,409.225265 149.773146,418.14644 144.356525,429.476804 C142.1326,434.129988 141.835408,438.412647 143.598492,440.385695 C144.967121,441.917973 147.763045,442.05306 151.472161,440.7678 C156.945132,438.871172 161.772,433.876024 166.439851,429.044524 C168.737881,426.666213 170.907772,424.419902 173.133241,422.554151 C174.541239,421.373101 176.624673,419.8277 179.037721,418.03837 C188.314755,411.159717 203.842094,399.646406 203.683848,391.614492 C203.64448,389.657654 202.604693,388.009587 200.502732,386.575344 C199.610383,385.966293 198.651648,385.452188 197.638106,385.023768 Z M493.336827,402.77812 C492.87753,403.701346 492.402022,404.641554 491.918795,405.594886 C486.335437,416.625742 480.007169,429.127121 487.609119,437.570473 C494.735561,445.485826 511.635388,443.283514 523.97389,441.677131 C526.165395,441.391518 528.235706,441.121343 530.056685,440.936852 C534.472115,440.489906 538.879054,440.026749 543.282133,439.56282 C570.080397,436.742966 597.791079,433.828936 625.54885,435.1196 C634.415218,435.532582 636.987284,437.106544 639.965383,438.929838 C640.869311,439.482539 641.784818,440.043731 642.940395,440.597204 L651.317361,416.266023 C646.563826,415.425393 641.540889,414.588623 636.100338,413.712484 C635.333813,413.588976 634.778025,412.91431 634.802727,412.138522 C634.876832,409.830457 635.629462,408.468003 636.356618,407.14955 C636.720196,406.490323 637.095354,405.809482 637.433458,404.941063 C637.507563,404.749624 637.584756,404.55973 637.664265,404.37138 C632.067013,404.815238 626.692848,405.33243 621.794962,405.804079 C615.594834,406.399235 610.239967,406.914111 606.130221,407.117901 C587.458047,408.041899 568.82061,408.041899 550.796855,408.041899 C547.720721,408.041899 543.888097,408.200144 539.83007,408.366881 C524.480275,408.99909 505.378137,409.786457 495.403279,404.193836 C494.657596,403.776223 493.969808,403.301487 493.336827,402.77812 Z M698.158743,442.938462 C706.243149,442.938462 713.244538,443.385409 717.426846,444.909195 C718.520668,445.306738 719.541158,445.613966 720.476735,445.827018 C718.922071,444.236074 717.489372,442.610393 716.072112,441.001694 C710.948052,435.18753 706.107289,429.69526 696.224291,426.733371 C681.530635,422.330292 669.165116,419.504262 654.391951,416.81718 L645.809652,441.746605 C647.168246,442.200499 648.812454,442.640498 650.88045,443.059655 C656.679175,444.233758 667.838171,443.828496 679.653306,443.399303 C685.948381,443.170813 692.335316,442.938462 698.158743,442.938462 Z M655.409353,413.863782 C670.08371,416.544689 682.438423,419.378438 697.110465,423.775342 C707.840268,426.991195 713.202854,433.076306 718.388669,438.960716 C720.469787,441.322044 722.584871,443.722741 725.083603,445.971369 C725.7189,445.773755 726.202899,445.447229 726.51939,444.99102 C728.148158,442.64127 726.17125,436.595527 722.286907,432.052729 C718.153231,427.215826 702.012981,420.311699 695.936362,417.711845 L694.700504,417.182302 C691.504721,415.807498 688.404657,414.891991 685.405716,414.007361 C679.146921,412.16168 673.234722,410.417122 667.950872,404.912501 C667.46147,404.403801 667.000629,403.871942 666.564489,403.316154 C664.096634,403.254399 661.585551,403.24668 659.051311,403.281417 L655.409353,413.863782 Z M642.097449,452.530444 L728.571947,452.530444 C726.950898,451.494516 725.488865,450.396062 724.140307,449.256696 C722.222837,449.394871 719.702491,449.023573 716.370076,447.810102 C709.741528,445.39551 693.815103,445.973684 679.765235,446.485473 C667.76175,446.92084 656.425983,447.334594 650.266767,446.085614 C648.061367,445.638667 646.282844,445.1593 644.805374,444.665266 L642.097449,452.530444 Z M248.709655,458.822431 C252.857998,458.822431 257.000165,458.96215 261.079035,459.360465 C282.740887,461.477865 314.894789,462.364038 345.056344,454.563703 C356.117305,451.702936 369.944085,447.520629 378.757191,440.509976 C383.844199,436.462756 385.821879,432.726623 384.212408,430.227119 C383.339357,430.588381 382.459359,430.914135 381.587852,431.199748 C373.858534,433.733989 367.258547,433.360376 363.930764,430.196241 C363.584168,429.866628 363.410484,429.39498 363.459116,428.919472 C363.507747,428.443964 363.774834,428.01786 364.180869,427.766211 C371.194609,423.414851 380.236206,423.06208 384.90174,426.544249 C389.811976,424.171341 393.356671,420.943137 393.855337,418.148756 C394.150214,416.49683 393.394496,414.982306 391.546499,413.517958 C391.059413,413.131222 390.850992,412.48975 391.019272,411.889961 C391.188325,411.290945 391.700113,410.851718 392.317656,410.775297 C396.933015,410.209473 399.727396,408.144565 400.186693,404.960361 C400.751745,401.044369 397.670979,396.426693 393.120461,394.273785 C393.06797,394.256031 393.014707,394.236733 392.961444,394.218978 C390.360817,393.327401 387.904542,392.485227 386.259562,392.432736 C382.94413,392.329298 379.665751,393.297296 376.199021,394.323961 C372.225134,395.501151 368.115387,396.71771 363.879045,396.192027 C363.401221,396.133361 362.978976,395.854694 362.735819,395.439397 C362.493433,395.023328 362.457925,394.518487 362.641643,394.073084 C363.44908,392.109298 365.101779,390.60867 367.552651,389.61211 C375.202461,386.504327 388.798435,389.029304 393.940249,391.256317 C394.053723,391.304177 394.165652,391.355124 394.27681,391.406072 C397.653996,392.56242 401.308305,393.783611 403.966054,393.51112 C403.910475,392.71449 403.819388,391.928667 403.695879,391.152107 C403.000372,390.570073 402.312584,390.008881 401.639462,389.477795 C392.668111,382.39844 384.130584,377.817045 376.262319,375.858663 C376.243792,375.854032 376.224494,375.8494 376.205968,375.844769 C376.053126,375.855576 375.911863,375.86947 375.782951,375.888768 C371.118188,376.563434 368.129282,378.863008 365.317919,381.181881 C365.300937,381.19732 365.283182,381.211986 365.264656,381.226653 C365.120305,381.344758 364.976727,381.463635 364.833148,381.583284 C362.616942,383.418929 360.352104,385.293171 357.409513,386.282783 C353.112188,389.35583 348.712197,392.916735 344.404065,396.402764 C335.677415,403.464364 328.141079,409.564141 322.618704,410.796911 C322.191056,410.893402 321.744109,410.801542 321.386706,410.547578 C321.030076,410.293614 320.797725,409.89993 320.748322,409.465335 C319.729376,400.547247 331.413283,389.741794 339.929968,382.609176 L331.722827,379.435779 C330.482338,383.261456 329.139954,387.045448 327.645501,390.740669 C324.746138,397.911883 319.957867,403.584785 313.175705,407.831934 C312.958021,408.275021 312.717951,408.685687 312.454724,409.060072 C309.448835,413.335783 299.857626,416.113953 292.359886,416.557812 C290.776661,416.649671 288.639963,416.678233 286.488599,416.40111 C271.812698,418.34251 256.198132,417.429319 243.414227,416.68132 L241.559283,416.574022 C225.168157,415.623779 185.855392,415.022447 174.850782,429.889786 C171.462016,434.467321 171.063701,440.067661 173.631907,447.0127 C177.774846,458.214152 195.507584,458.806221 208.456681,459.238501 C210.186572,459.296395 211.820745,459.351202 213.314426,459.428395 C219.947606,459.770359 226.786119,459.499412 234.026807,459.211483 C238.86371,459.018501 243.790928,458.822431 248.709655,458.822431 Z M531.348121,461.206146 L617.625006,514.133411 L637.770019,455.618157 L531.348121,455.618157 L531.348121,461.206146 Z M618.457916,518 C618.176162,518 617.896724,517.923579 617.651251,517.772281 L528.996828,463.386071 C528.539074,463.10509 528.260408,462.606424 528.260408,462.069934 L528.260408,454.0743 C528.260408,453.221319 528.951284,452.530444 529.804265,452.530444 L638.832964,452.530444 L641.929941,443.533619 C640.483347,442.867445 639.388753,442.197411 638.353597,441.563658 C635.631006,439.897065 633.479641,438.580155 625.405271,438.204226 C597.876763,436.921281 570.288045,439.825275 543.605571,442.633551 C539.198632,443.097479 534.787062,443.56218 530.367,444.009899 C528.590793,444.188986 526.541324,444.456073 524.372977,444.738599 C511.353634,446.433754 493.52595,448.757258 485.314176,439.636153 C476.295738,429.621155 483.431443,415.525744 489.163783,404.200011 C489.819922,402.904716 490.462938,401.634894 491.065042,400.40444 C485.389825,392.966911 486.055227,379.864199 486.6087,368.973063 C486.801682,365.162053 486.985401,361.562551 486.860348,358.704872 C486.69284,354.871476 486.833331,350.628958 486.982313,346.137879 C487.292628,336.771301 487.635365,326.432093 485.03551,318.474284 C482.966742,316.87562 480.683378,315.660605 478.193909,314.836186 C477.12942,314.484187 473.248936,314.179275 469.13919,313.857381 C460.314506,313.165733 452.264837,312.407699 446.405901,310.990439 C446.744778,323.140591 447.335303,335.214322 447.918109,347.133667 C448.136564,351.610851 448.271652,356.777367 448.414459,362.247251 C449.168633,391.158283 450.201473,430.752802 464.936812,449.181818 C465.307338,449.644975 465.379127,450.280272 465.122075,450.814447 C464.865023,451.349393 464.323901,451.689814 463.73106,451.689814 L391.316465,451.689814 C390.878009,451.689814 390.459624,451.503007 390.166292,451.175709 C389.873731,450.848412 389.734012,450.412272 389.782643,449.975361 C390.831694,440.506116 396.324736,423.144676 400.394342,410.727437 C399.14459,411.846733 397.52354,412.705118 395.580597,413.263222 C397.048032,415.294165 397.152243,417.251776 396.895191,418.69065 C396.173438,422.73787 391.960253,426.379828 387.026859,428.924104 C388.275067,431.191257 389.227627,436.126967 380.679292,442.926111 C371.411521,450.298799 357.187198,454.615422 345.829817,457.553381 C315.23135,465.466418 282.689168,464.574841 260.778754,462.433512 C252.075263,461.582847 242.962649,461.946425 234.149543,462.296109 C227.158188,462.574775 219.928308,462.864248 213.155409,462.511477 C211.67871,462.435828 210.063064,462.381793 208.353243,462.32467 C194.52955,461.863057 175.598008,461.230076 170.735632,448.083364 C167.819287,440.196573 168.368128,433.456867 172.369032,428.053368 C177.802636,420.711558 188.946193,416.784759 201.398169,414.814026 C199.980908,414.819429 198.565192,414.851078 197.144844,414.918236 C196.574389,414.936762 196.054881,414.665816 195.760004,414.190308 C195.464356,413.7148 195.450461,413.115784 195.72218,412.626381 C201.684554,401.88577 221.827252,396.570272 232.648915,393.713365 L233.25565,393.553576 C245.550153,390.303758 262.392857,391.178353 274.359289,393.545857 C275.827497,371.639303 272.832415,349.149172 270.027228,331.875732 C267.85039,318.464249 264.706326,305.823923 260.417492,293.233 C259.853212,291.577986 259.371529,289.753919 258.862056,287.821782 C258.408935,286.102698 257.933427,284.300245 257.37841,282.586565 C255.907887,280.343341 254.604872,277.932609 253.49947,275.387561 C253.305716,275.214649 253.15905,274.996193 253.073366,274.75072 C253.018559,274.595563 252.917436,274.275212 252.79856,273.892336 C252.680454,273.514091 252.512946,272.976829 252.369367,272.547637 C252.304525,272.368549 252.241227,272.190234 252.177929,272.009603 C252.167894,271.984901 252.158631,271.963287 252.15014,271.943217 C252.123122,271.879919 252.099192,271.815077 252.080666,271.749463 C252.061368,271.682305 252.046701,271.614375 252.036666,271.546446 C251.964877,271.146587 252.054421,270.739009 252.273648,270.410167 C251.889228,270.16701 251.616737,269.755572 251.565018,269.270801 C251.411404,267.845049 251.296387,266.411579 251.207615,264.980423 C250.431055,261.425694 248.389305,258.841278 245.105522,257.272719 C236.265399,253.044868 219.645782,257.123737 212.244533,263.428076 C211.773657,263.829478 211.109027,263.912075 210.553238,263.63418 C209.999766,263.35783 209.664749,262.776568 209.702573,262.159797 C212.724673,212.452245 222.755881,179.74873 240.367426,162.181957 C240.673109,161.876274 241.086863,161.707221 241.523003,161.731923 C241.648827,161.737327 241.772335,161.758169 241.891212,161.792905 C241.15788,158.578596 240.374373,155.895373 239.853322,154.591586 C236.430591,155.851373 226.332225,159.520349 221.395744,160.783995 C215.496667,162.294659 210.011345,163.351429 204.204128,164.469953 C202.156974,164.864408 200.088978,165.262723 197.980842,165.686512 C183.714835,168.55191 168.221461,173.281515 150.616864,180.145501 C135.274017,186.127946 120.533274,194.402245 116.594123,214.277084 C114.510689,224.793063 112.804727,235.705042 111.154345,246.257302 C109.552593,256.503107 107.896035,267.098595 105.878215,277.473311 C100.835207,303.389261 104.330498,327.652512 108.031895,353.33997 C109.378138,362.685707 110.769924,372.350249 111.701642,382.041809 C111.778063,382.839211 111.854484,383.685245 111.933992,384.571418 C112.71364,393.244805 113.865357,406.045692 119.096715,410.958244 C126.734174,401.791595 140.870497,394.163399 153.308578,388.767621 C153.986331,388.473516 154.695733,388.172464 155.430609,387.86678 C157.129623,386.062012 158.874953,384.327489 160.688985,382.751983 C172.697874,372.319372 185.115113,361.530902 184.463605,345.303425 C183.821361,329.318333 176.773655,315.461448 168.323356,300.293828 C168.089462,299.874671 145.062068,258.243805 151.602617,244.25878 C152.775176,241.752328 154.767523,240.215419 157.524079,239.692824 C171.538437,237.032759 187.684862,268.54596 189.508929,276.851137 C193.687377,295.878398 194.796638,316.288183 195.330812,333.742254 C195.607162,342.750658 195.942179,350.913028 197.259089,359.594906 C197.353264,360.21708 197.469825,360.937289 197.598737,361.733919 C198.524279,367.443873 199.98554,376.458452 198.718805,382.126721 C199.96161,382.644685 201.140345,383.273035 202.242658,384.024893 C205.188337,386.034222 206.712123,388.566919 206.77079,391.55351 C206.959912,401.177912 191.263522,412.817047 180.877226,420.518576 C178.504318,422.277801 176.454849,423.797728 175.117097,424.919339 C173.015908,426.681652 170.900053,428.871612 168.660689,431.190485 C163.740417,436.282124 158.65341,441.547447 152.483387,443.684917 C146.122697,445.888 142.88909,444.225267 141.29583,442.442884 C138.660466,439.493346 138.766221,434.014199 141.570636,428.145228 C147.323046,416.111637 160.101547,406.846954 170.591281,400.119598 C172.169103,399.108372 174.290362,397.924234 176.745866,396.552518 C183.135888,392.985437 191.741345,388.180183 194.618322,384.026437 C183.017011,381.146372 166.480763,386.693449 157.217623,390.47281 C155.544083,392.273719 153.888296,394.168803 152.187738,396.117922 C145.607821,403.650399 138.804817,411.441471 129.403502,414.990026 C125.769263,416.363286 122.544147,416.411917 119.798398,415.135148 C117.846963,417.989739 116.658965,420.974014 116.573281,424.042429 C116.381071,430.898696 117.40928,447.01656 131.06392,448.612907 C131.875988,448.707854 132.473461,449.419572 132.425601,450.235501 C132.378514,451.052201 131.702305,451.689814 130.884832,451.689814 L55.5438566,451.689814 C54.6916478,451.689814 54,450.998166 54,450.145957 C54,449.292976 54.6916478,448.6021 55.5438566,448.6021 L122.438393,448.6021 C116.344019,444.266951 113.157499,435.725564 113.48634,423.956745 C113.589007,420.281594 114.957635,416.762373 117.228649,413.426871 C110.918906,407.757829 109.690769,394.098558 108.85863,384.847769 C108.779893,383.968542 108.704244,383.127912 108.628595,382.337458 C107.703825,372.717687 106.31667,363.090969 104.975058,353.780741 C101.40103,328.968649 97.7042656,303.312068 102.846852,276.88433 C104.854638,266.565192 106.506564,255.999037 108.103684,245.781022 C109.758698,235.197885 111.469291,224.254257 113.565849,213.677295 C117.804507,192.285618 134.106861,183.267951 149.495252,177.268524 C167.26813,170.338924 182.929012,165.559916 197.373334,162.659009 C199.489962,162.233677 201.564905,161.833818 203.62055,161.437818 C209.380679,160.328557 214.82123,159.280279 220.629991,157.792773 C226.343032,156.329969 239.78462,151.324786 239.920479,151.27461 C240.079497,151.2144 240.247777,151.181979 240.417601,151.177347 C240.876899,151.16654 241.344687,151.352575 241.706722,151.705346 C242.952614,152.918818 244.88861,159.93719 246.016397,166.807352 C248.455691,170.105802 251.52179,173.792531 254.737643,174.258004 C255.946483,174.43246 257.129077,174.139127 258.341005,173.362567 C258.183531,170.07724 257.672515,158.27214 258.098619,151.649767 C258.554829,144.575816 261.74984,141.059683 264.349695,139.355265 C268.097407,136.899761 273.12652,136.529235 278.147914,138.339407 C287.614842,141.752102 287.685088,151.632013 287.742211,159.570524 C287.750702,160.702171 287.758421,161.789818 287.79007,162.830377 C289.563961,163.040342 291.169572,163.396201 292.732727,163.742024 C293.864374,163.992901 294.954337,164.234515 296.085212,164.419778 C296.045072,158.46821 297.208368,147.634968 305.512772,142.373505 C308.374311,140.560245 311.844129,140.16579 315.200473,139.783685 C319.091764,139.34137 322.766142,138.923757 325.142138,136.39878 C328.354131,132.984541 327.614624,127.866656 326.830345,122.447719 C326.069996,117.185484 325.283401,111.744933 328.412026,107.734765 C330.65525,104.860876 334.593628,103.171897 340.451792,102.572109 C345.436133,102.06418 350.874368,103.40116 356.632182,104.81842 C363.831185,106.589996 371.215451,108.407887 377.454176,106.238768 C377.220282,106.05119 376.980984,105.872874 376.736283,105.70305 C353.571486,89.6700988 316.222506,73.687323 288.957998,76.4847912 C281.495767,77.2505441 273.123432,78.8275937 267.600285,84.7220383 C262.500155,90.1664487 256.518482,101.029024 254.537714,108.442624 C250.930493,121.945966 251.255475,135.652325 251.599755,150.164577 C251.654562,152.478046 251.710141,154.800007 251.748737,157.132002 C251.761088,157.897755 251.210703,158.556982 250.454213,158.68049 C249.696952,158.807087 248.965163,158.354737 248.733585,157.624493 C248.2272,156.029689 247.66678,154.398604 247.124886,152.822326 C244.997452,146.633005 242.797456,140.232948 242.805176,133.27247 C242.853807,91.122096 256.004378,64.7236914 280.834996,56.9326188 C307.026524,48.7131261 341.991017,53.5461693 374.362603,69.8570147 C381.712133,73.5607267 390.036608,80.6532041 391.360465,89.4539589 C392.189516,94.9624394 390.063625,100.337376 385.213599,104.998279 C384.356759,105.821155 383.469813,106.530557 382.557394,107.138065 C390.418712,117.586115 390.610922,137.866215 387.813454,150.146823 C387.083982,153.351097 385.067705,155.831303 383.28841,158.01972 C381.320765,160.440487 379.621751,162.530869 379.715926,165.148478 C379.960627,171.937587 381.80708,179.031609 384.783635,184.611107 C387.377315,189.475027 387.986366,192.809757 386.755912,195.422735 C385.049179,199.048482 380.198381,200.289743 373.532008,201.647565 C370.387172,202.288265 369.358964,205.601381 368.150124,210.581863 C367.850616,211.814632 367.541072,213.089086 367.167459,214.240803 C366.190198,217.253639 365.573427,220.136792 364.976727,222.924225 C362.884029,232.708416 361.076945,241.157944 344.536065,241.17647 C344.51831,241.17647 344.499012,241.17647 344.48203,241.17647 C314.159142,241.178014 286.615195,211.818492 281.172329,184.745422 C279.47949,185.197 277.135916,184.945352 274.259711,182.463602 C272.486591,180.93364 270.685683,178.651048 269.041475,175.945439 C266.740357,179.568099 264.350467,183.013987 262.240787,186.056156 C260.790333,188.148082 259.537494,189.954394 258.523952,191.511374 C257.461007,193.144002 256.382623,194.748841 255.314274,196.338242 C251.794281,201.577319 248.482708,206.505309 246.230221,211.592317 C246.856255,216.604448 248.16313,221.163456 249.532531,225.937061 C250.722072,230.084632 251.951754,234.373466 252.702068,239.011211 C253.172945,241.922925 253.450839,244.793726 253.628382,247.620528 C259.113705,252.97771 266.310393,256.76865 273.96715,257.93349 C280.743909,258.964786 288.54656,258.343384 295.375038,256.229844 C297.614402,255.536652 303.092777,253.094271 316.478014,245.401234 C317.439837,244.848533 317.439837,244.848533 317.5811,244.794498 C318.18166,244.569095 318.858641,244.736603 319.283202,245.216743 C319.707762,245.696882 319.791131,246.390074 319.493166,246.957441 C314.412334,256.619668 311.306866,267.437471 308.575784,278.178854 C310.429956,276.054507 312.54118,274.464335 314.899421,273.419144 C316.425523,271.273955 318.003345,269.141117 319.669938,267.182735 C321.706285,264.790529 324.084596,262.573551 326.384942,260.429134 C330.943951,256.180441 335.250539,252.165641 337.186535,246.872529 C337.405763,246.274285 337.969271,245.87211 338.606111,245.859759 C339.234461,245.820391 339.82267,246.226425 340.064284,246.816178 C342.028842,251.593643 342.614735,257.714262 343.131927,263.114673 C343.224559,264.075723 343.314102,265.017476 343.409821,265.92758 L343.440698,266.217825 C343.993399,271.480832 344.471223,276.025174 345.131221,281.488882 C345.203783,282.087127 344.920485,282.673021 344.406381,282.988739 C343.893048,283.304458 343.242313,283.292107 342.739788,282.956318 C332.325703,275.990437 323.755754,273.584336 317.266153,275.80363 C317.143416,275.846086 317.02068,275.890086 316.900259,275.93563 C316.498084,276.505313 316.093594,277.081172 315.685244,277.663978 C312.599846,282.063969 309.435712,286.57589 305.521264,290.328234 C305.344492,290.758198 304.990177,291.072373 304.571792,291.208232 C303.564425,292.112932 302.506884,292.966685 301.388359,293.75328 C293.473006,299.32969 284.882216,300.851932 276.546162,298.153271 C271.36112,296.475099 266.484077,293.226824 262.33419,288.86157 C262.659944,290.06269 262.986469,291.199741 263.340013,292.237212 C267.685197,304.993328 270.870173,317.797303 273.075573,331.380925 C275.808971,348.21591 278.720684,369.971938 277.57823,391.4493 C278.137879,391.062563 278.742298,390.696669 279.396122,390.354705 C286.115758,386.837028 293.239112,385.227557 300.128572,383.67135 C302.683655,383.093947 305.325966,382.496475 307.879505,381.813318 C308.363504,381.686722 308.880696,381.79788 309.265888,382.119002 C310.798938,383.394228 312.055637,385.525522 312.983495,388.074429 C314.146791,387.083273 315.336332,386.087485 316.555207,385.1164 C319.967902,382.39458 322.996949,379.774656 325.751961,377.128485 L298.824014,366.71826 C298.424155,366.563874 298.106892,366.250471 297.947103,365.852928 C297.788086,365.455385 297.800437,365.009211 297.982612,364.621703 L302.506884,354.991125 C302.855023,354.249302 303.722671,353.911197 304.481476,354.216109 L332.622895,365.568087 C333.406402,362.742057 334.164436,359.922203 334.916294,357.125507 C340.1106,337.793334 345.481677,317.803478 357.883477,300.584073 C358.39681,299.871583 359.059896,298.8372 359.827193,297.640711 C363.923816,291.249144 370.780084,280.552533 377.95207,282.446846 C380.204557,283.042002 381.728343,284.284035 382.480201,286.136663 C384.56518,291.278477 379.543014,299.623794 376.844353,304.106382 C376.609686,304.495434 376.395862,304.850521 376.210599,305.165468 C372.070748,312.182296 367.786546,319.283265 363.642063,326.149567 C357.81246,335.81025 351.784472,345.799003 346.052132,355.735264 C343.470804,360.210132 340.908002,364.15623 338.166112,367.803591 L352.666014,373.652492 C360.41849,370.161832 368.04437,370.68134 376.544844,372.747792 C376.626669,372.74702 376.710809,372.746248 376.796493,372.746248 C381.245116,372.746248 390.429519,374.503157 398.224451,377.531432 C395.954982,373.866316 393.287198,370.422744 390.729799,367.119663 C384.961179,359.67287 379.979153,353.241935 381.237397,346.536194 C382.035571,342.288273 385.325529,338.481122 391.297938,334.895515 C409.026044,324.253711 414.829401,304.304768 416.576275,289.444376 C418.589464,272.31683 415.978803,254.855812 412.360003,246.458775 C408.175379,236.753321 394.217371,213.077507 386.206299,203.063281 C385.868967,202.64258 385.776335,202.075985 385.961598,201.5696 C386.146089,201.063215 386.582228,200.689602 387.110999,200.585391 C387.816542,200.444128 389.961731,200.019568 402.018479,213.303682 C410.100568,222.207875 417.209256,231.748137 421.52202,239.478228 C429.912881,254.517707 429.403408,267.563296 428.91169,280.17892 C428.792813,283.229581 428.680111,286.111961 428.690146,289.035254 C428.763479,311.959209 426.745659,334.5412 422.854368,354.340389 C422.643632,355.415686 422.415913,356.612175 422.168896,357.905154 C420.197391,368.258257 417.264063,383.658227 412.208705,394.597223 C418.249044,400.246195 423.378507,405.695237 423.689595,406.027166 C424.132681,406.498042 424.234576,407.195865 423.945103,407.77404 C423.65563,408.352986 423.038859,408.688775 422.393527,408.618529 C421.93423,408.567582 411.863653,407.433619 405.380999,405.454395 L404.78507,407.262251 C401.212586,418.094721 394.724528,437.76963 393.078777,448.6021 L460.678084,448.6021 C447.055865,428.545087 446.061621,390.454284 445.327517,362.32676 C445.185482,356.876174 445.051167,351.727412 444.834255,347.284193 C444.234467,335.026743 443.627731,322.604872 443.292714,310.100406 C440.08458,309.008127 437.903883,307.593182 437.131954,305.695783 C436.644868,304.499294 436.500517,302.574876 438.578548,300.202741 C439.699388,298.923655 441.196157,297.964149 443.055732,297.330395 C442.909838,281.782987 443.326679,266.145263 444.838887,250.560031 C446.470743,233.751291 447.87874,219.234407 464.983128,208.561727 C481.429061,198.300483 496.209944,193.089967 511.497985,192.164425 C512.239036,192.118109 512.888228,192.593617 513.080438,193.298388 C516.995658,207.610711 524.758941,218.443181 534.379484,223.020716 C541.776873,226.540709 549.978611,226.362394 558.751577,222.489629 C575.613579,215.047468 583.690265,202.373949 593.044492,187.69882 C594.406174,185.56135 595.791013,183.389916 597.228344,181.195324 C597.467641,180.828658 597.852062,180.580869 598.285885,180.515255 C598.719709,180.449641 599.16048,180.56929 599.498585,180.847956 C601.988054,182.89125 604.627277,183.376793 607.567552,182.33083 C613.751469,180.131607 619.658265,171.763132 622.87103,164.901461 C622.393207,162.810307 622.081348,160.723013 621.991032,158.64421 C621.839734,155.184427 621.936997,151.720013 622.184014,148.272581 C619.973984,148.555879 616.966551,149.746192 614.202275,150.840015 C608.506988,153.092501 602.052896,155.645268 597.520133,153.090186 C591.949898,149.948437 591.144005,142.259259 590.496357,136.081517 C590.324217,134.445029 590.162112,132.898857 589.927446,131.633666 C588.652992,124.754241 587.109135,120.116496 582.208162,113.86156 C573.579548,102.849231 561.653255,98.4978711 545.751532,100.557376 C528.514372,102.791336 514.300856,113.992016 509.541146,129.09325 C509.209217,130.146932 508.889639,131.18672 508.583955,132.213384 C508.725218,134.380959 508.888095,136.5632 509.053288,138.76088 C510.049847,152.072012 511.081143,165.837038 507.170554,179.282485 C507.009221,179.835186 506.555328,180.252799 505.990276,180.365501 C505.422909,180.47743 504.845506,180.266694 504.485016,179.818976 C496.642224,170.063345 500.383761,149.068439 505.468453,131.857525 C504.46263,115.846188 504.732805,99.6009566 515.093627,84.7258979 C524.657047,70.9963809 540.085578,62.0358369 558.537752,59.493877 C578.050557,56.8037068 598.018026,62.0420124 611.942841,73.5028321 C633.010309,90.8411141 630.02449,112.05216 627.135934,132.56384 C626.53383,136.839551 625.921691,141.187823 625.509481,145.553078 C625.976498,145.7422 626.411094,146.000024 626.811725,146.335041 C629.131369,148.277984 629.572912,152.326749 628.201967,159.078034 C627.865407,160.735364 627.150601,162.870517 626.124708,165.211004 C627.626881,171.098501 630.486103,177.134209 633.278168,183.024022 C635.618655,187.965907 638.040194,193.076073 639.584822,197.980905 C641.015978,202.523703 642.050361,206.675906 642.694922,210.699968 C644.11527,211.346844 645.658354,211.940457 647.339614,212.479263 C652.655113,214.182137 658.41061,215.205714 663.976985,216.196098 C673.788966,217.940656 683.935192,219.745424 692.463456,225.321834 C707.110796,234.899921 709.194231,259.635592 707.022024,273.925529 L706.638376,276.441243 C705.259712,285.465085 704.187503,292.48037 703.81389,300.411161 C707.245111,301.296563 709.524616,303.078174 710.597596,305.721256 C711.774015,308.620619 711.691419,311.365596 710.350579,313.880539 C709.138652,316.152324 706.9402,318.072109 704.152767,319.710141 C704.399784,324.072308 704.683853,328.379668 704.967923,332.602888 L903.352729,332.602888 C904.286762,332.490186 910.029909,331.9591 912.832009,335.631163 C914.877619,338.317473 914.738672,342.380904 912.415167,347.713385 L856.944398,509.43314 C856.728258,510.056086 856.141593,510.475243 855.485454,510.475243 L633.170098,510.475243 L633.170098,514.912287 L944.650894,514.912287 C945.500015,514.912287 946.194751,515.603934 946.194751,516.456143 C946.194751,517.309124 945.500015,518 944.650894,518 L631.626241,518 C630.774033,518 630.082385,517.309124 630.082385,516.456143 L630.082385,508.931386 C630.082385,508.079177 630.774033,507.387529 631.626241,507.387529 L854.381596,507.387529 L909.512717,346.651983 C909.528155,346.612615 909.543594,346.572475 909.559033,346.533878 C911.396222,342.343851 911.674116,339.222945 910.377277,337.508492 C908.817981,335.451304 905.004655,335.485268 903.66922,335.675935 C903.599746,335.68597 903.522553,335.690601 903.45308,335.690601 L705.175572,335.690601 C706.884621,361.008306 708.440828,384.95661 702.920769,410.665683 C702.808068,411.192138 702.429823,411.62133 701.921894,411.798874 C701.413965,411.977189 700.850457,411.877611 700.434388,411.536418 C694.112295,406.364499 683.24586,404.141345 670.885744,403.483662 C675.421595,407.843513 680.473865,409.334107 686.279538,411.046244 C689.364936,411.956347 692.556859,412.897328 695.921695,414.346237 L697.151377,414.873464 C708.464758,419.712683 720.577857,425.300672 724.634341,430.046487 C728.918543,435.057846 731.924432,442.615796 729.055946,446.751016 C728.715526,447.241191 728.267035,447.719786 727.67651,448.127364 C729.868015,449.801677 732.366747,451.343218 735.344846,452.663215 C736.011792,452.958092 736.380774,453.679845 736.230248,454.393878 C736.07895,455.107912 735.449056,455.618157 734.719584,455.618157 L641.035276,455.618157 L619.917633,516.959441 C619.765563,517.401756 619.420511,517.751439 618.97974,517.909684 C618.810688,517.969895 618.633916,518 618.457916,518 L618.457916,518 Z"/>
</svg>
