<svg id="logo" width="147" height="60" viewBox="0 0 147 60" xmlns="http://www.w3.org/2000/svg">
  <g fill="none" fill-rule="evenodd">
    <g transform="translate(-60 -129)" fill-rule="nonzero">
      <g transform="translate(60 129)">
        <g transform="translate(32)" fill="#D7478C">
          <path d="M46.1 12.334c.02.005.079-.173.13-.394l.349-1.513c.05-.22.068-.407.037-.414-.03-.007-.096.169-.147.39l-.35 1.513c-.05.22-.039.414-.019.418M45.62 12.229c.02.004.075-.174.122-.396l.323-1.518c.047-.223.061-.41.03-.416-.033-.006-.095.17-.143.393l-.322 1.518c-.047.222-.033.416-.012.42M44.653 12.04c.02.004.07-.176.11-.4l.53-3.008c.04-.224.047-.412.014-.417-.032-.005-.089.174-.128.397l-.531 3.01c-.04.225-.016.416.005.42M64.18 25.733c.01.018.18-.058.375-.174l2.647-1.528c.196-.114.344-.229.328-.257-.015-.028-.19.043-.386.156l-2.649 1.53c-.196.112-.328.254-.318.272M45.136 12.131c.02.004.072-.175.115-.398l.297-1.526c.043-.222.054-.41.023-.415-.03-.005-.09.171-.134.394l-.297 1.526c-.043.223-.024.415-.004.42M46.579 12.45c.02.005.08-.17.136-.391l.376-1.507c.055-.22.075-.406.046-.414-.03-.008-.1.167-.155.387l-.376 1.507c-.055.22-.046.413-.026.418M47.53 12.704c.02.006.087-.168.15-.386l.428-1.49c.062-.22.09-.406.057-.414-.031-.008-.105.163-.167.38l-.428 1.492c-.062.218-.06.412-.04.418M48.002 12.845c.02.006.09-.167.158-.384l.453-1.484c.066-.217.096-.402.066-.41-.03-.01-.108.16-.174.377l-.455 1.483c-.066.218-.068.41-.048.417M47.056 12.574c.02.006.085-.169.145-.388l.79-2.951c.058-.22.082-.405.051-.413-.03-.008-.104.164-.164.383l-.79 2.952c-.058.219-.053.412-.032.418M48.472 12.994c.02.006.092-.165.163-.38l.48-1.476c.07-.217.103-.401.073-.41-.03-.01-.111.158-.18.374l-.48 1.476c-.071.216-.075.409-.056.416M40.246 11.619c.02 0 .04-.185.045-.412l.027-1.56c.004-.227-.018-.413-.05-.413-.03 0-.06.185-.064.411l-.027 1.56c-.004.227.048.414.069.414M48.939 13.15c.019.007.095-.162.17-.376l.505-1.467c.074-.215.11-.399.08-.41-.029-.01-.113.158-.187.373l-.505 1.467c-.074.215-.083.408-.063.415M40.738 11.632c.02 0 .044-.184.052-.411l.055-1.558c.008-.227-.011-.414-.043-.415-.03-.001-.063.183-.071.41l-.055 1.558c-.008.228.041.415.062.416M26.322 12.326c-.028.014.03.192.13.396l.682 1.395c.099.204.195.363.214.355.02-.009-.013-.201-.114-.405l-.68-1.395c-.1-.205-.204-.36-.231-.348M28.77 11.262c-.029.011.014.194.095.405l.556 1.45c.082.211.165.378.184.37.019-.007.004-.2-.078-.41l-.556-1.45c-.082-.212-.172-.376-.2-.365M43.191 11.824c.021.002.06-.18.087-.406l.19-1.545c.029-.225.025-.412-.006-.416-.032-.004-.079.178-.107.403l-.19 1.545c-.029.226.004.416.025.419M42.702 11.768c.021.002.058-.18.081-.405l.163-1.549c.023-.226.017-.412-.013-.416-.03-.003-.077.18-.1.405l-.163 1.547c-.023.226.012.416.032.419M41.722 11.683c.02 0 .05-.182.065-.41l.11-1.554c.016-.226.004-.413-.029-.415-.032-.003-.07.181-.087.407l-.109 1.556c-.016.226.026.415.047.416M43.68 11.888c.02.003.063-.178.095-.405l.215-1.541c.033-.225.033-.412.002-.417-.031-.004-.081.177-.113.401l-.217 1.542c-.031.225-.003.416.017.419M42.213 11.722c.021.001.055-.182.075-.408l.266-3.049c.02-.226.01-.413-.021-.416-.033-.004-.074.18-.094.406l-.267 3.05c-.02.225.02.415.041.417M55.932 16.725c.017.012.138-.13.269-.316l1.755-2.506c.13-.186.215-.353.189-.372-.027-.018-.154.12-.285.306l-1.755 2.506c-.13.186-.19.37-.174.383M58.986 19.205c.016.014.155-.11.31-.276l1.063-1.14c.155-.166.263-.318.24-.34-.023-.023-.167.096-.323.262l-1.063 1.141c-.155.166-.241.34-.227.353M55.527 16.444c.017.011.134-.133.262-.32l.87-1.29c.127-.189.21-.357.184-.374-.026-.016-.152.122-.278.31l-.869 1.29c-.127.189-.186.373-.168.384M57.882 18.226c.017.014.15-.117.295-.291l1.968-2.346c.144-.173.245-.333.22-.354-.024-.02-.163.106-.31.28l-1.967 2.345c-.144.174-.222.352-.206.366M49.404 13.314c.02.007.1-.162.177-.375l1.044-2.87c.079-.213.116-.396.087-.407-.029-.01-.118.155-.195.368l-1.045 2.87c-.078.213-.087.407-.068.414M57.118 17.604c.016.012.145-.123.284-.303l.958-1.226c.14-.179.234-.341.21-.36-.024-.02-.16.111-.299.289l-.96 1.228c-.138.179-.21.359-.193.37M57.502 17.912c.016.013.146-.121.29-.298l.98-1.21c.142-.177.24-.337.216-.356-.024-.02-.161.108-.305.285l-.98 1.21c-.143.177-.218.356-.201.369M62.855 23.658c.013.017.174-.075.36-.205l2.507-1.755c.186-.13.323-.258.305-.284-.019-.026-.186.058-.372.189l-2.506 1.754c-.186.13-.306.284-.294.301M62.569 23.256c.012.017.172-.078.356-.212l1.26-.915c.183-.134.318-.263.3-.29-.018-.025-.184.064-.367.197l-1.26.917c-.183.132-.301.286-.289.303M61.357 21.706c.014.016.167-.09.34-.236l2.346-1.967c.174-.145.3-.285.28-.31-.02-.024-.18.075-.354.22l-2.346 1.968c-.173.144-.28.308-.266.325M59.344 19.545c.015.014.156-.107.313-.27l1.083-1.123c.159-.163.269-.314.246-.336-.022-.022-.17.094-.327.257l-1.083 1.122c-.157.164-.247.335-.231.35M23.977 13.6c-.027.016.047.188.164.382l.801 1.333c.116.195.227.345.244.335.018-.01-.03-.199-.146-.392l-.802-1.334c-.116-.194-.234-.34-.26-.324M51.677 14.26c.019.008.114-.153.21-.358l1.292-2.77c.096-.205.15-.385.12-.398-.03-.013-.13.145-.226.347l-1.292 2.77c-.096.206-.123.399-.104.407M51.228 14.054c.02.008.11-.155.203-.363l.63-1.417c.093-.207.145-.387.116-.4-.029-.014-.128.146-.22.353l-.632 1.418c-.092.207-.117.4-.098.407M52.561 14.691c.02.01.119-.149.221-.351l.705-1.383c.104-.203.164-.38.137-.393-.028-.014-.135.14-.238.341l-.705 1.384c-.103.203-.138.393-.12.402M50.322 13.669c.02.007.104-.158.19-.368l.581-1.44c.084-.21.13-.392.102-.405-.03-.013-.123.151-.207.362l-.582 1.439c-.086.21-.103.403-.084.41M50.778 13.856c.019.009.107-.155.195-.365l.608-1.427c.088-.21.137-.39.108-.403-.028-.012-.125.149-.214.358l-.605 1.427c-.088.21-.11.402-.092.41M53.859 15.398c.018.01.126-.14.24-.337l1.528-2.648c.113-.197.184-.37.156-.386-.028-.016-.145.132-.257.328l-1.528 2.647c-.113.197-.157.386-.14.397M55.116 16.172c.017.012.133-.134.256-.324l.848-1.307c.123-.19.202-.36.177-.376-.025-.016-.148.125-.273.315l-.846 1.305c-.125.19-.18.376-.162.388M54.701 15.907c.018.012.13-.137.25-.33l.826-1.319c.12-.193.197-.363.17-.38-.027-.016-.147.128-.267.32l-.825 1.32c-.12.192-.171.378-.154.39M53.43 15.156c.018.01.122-.145.232-.343l.754-1.36c.11-.198.178-.373.15-.388-.026-.016-.139.135-.249.334l-.752 1.36c-.11.198-.152.387-.134.397M44.167 11.96c.02.003.067-.178.102-.401l.243-1.537c.035-.224.04-.41.009-.416-.03-.005-.085.174-.121.4l-.243 1.533c-.036.224-.01.416.01.42M9.702 33.986c-.006.029.171.091.394.134l1.527.297c.223.044.408.062.412.042.003-.02-.168-.11-.39-.153l-1.527-.297c-.223-.043-.41-.053-.416-.023M9.808 33.463c-.006.03.17.094.393.142l1.52.322c.22.047.406.07.41.05.005-.022-.166-.114-.387-.16l-1.52-.323c-.223-.047-.41-.061-.416-.03M9.517 35.038c-.006.031.173.086.399.12l1.535.243c.224.036.41.048.414.029.003-.02-.171-.104-.396-.14l-1.536-.243c-.224-.035-.411-.039-.416-.008M9.438 35.566c-.005.031.175.082.4.114l1.542.216c.224.031.411.04.414.02.002-.02-.174-.1-.398-.132l-1.542-.217c-.224-.032-.412-.032-.416-.001M9.368 36.094c-.004.032.178.08.403.107l1.545.19c.226.029.412.033.414.012.003-.021-.175-.097-.402-.125l-1.543-.19c-.226-.029-.413-.025-.417.006M9.924 32.94c-.007.031.168.098.39.148l1.512.35c.221.051.405.077.41.056.006-.022-.164-.116-.384-.166l-1.513-.35c-.22-.05-.408-.068-.415-.037M10.807 29.863c-.01.029.157.114.372.188l1.466.505c.215.074.396.118.403.1.007-.02-.15-.133-.365-.207l-1.468-.505c-.214-.074-.398-.11-.408-.081M10.638 30.37c-.01.029.159.11.374.181l1.476.48c.215.07.398.111.405.091.007-.02-.153-.13-.369-.2l-1.475-.48c-.217-.069-.401-.102-.41-.072M10.477 30.88c-.009.028.16.108.378.173l1.485.453c.216.067.399.105.405.085.006-.02-.156-.127-.373-.193l-1.484-.454c-.217-.066-.402-.095-.411-.066M10.049 32.422c-.008.03.167.1.387.155l1.507.376c.22.055.405.084.409.064.003-.02-.162-.118-.383-.174l-1.507-.376c-.22-.056-.405-.076-.413-.045M10.325 31.391c-.009.029.163.105.38.168l1.492.427c.218.063.402.098.408.079.006-.02-.158-.125-.376-.187l-1.492-.428c-.219-.063-.404-.09-.413-.058M11.172 28.861c-.011.029.153.119.364.2l1.45.557c.213.08.392.132.399.112.007-.02-.147-.137-.358-.218l-1.449-.556c-.212-.081-.394-.124-.405-.095M9.307 36.626c-.003.031.179.075.406.099l1.547.162c.226.025.412.027.415.006.002-.02-.176-.094-.402-.118l-1.548-.162c-.225-.024-.413-.018-.417.013M9.215 37.69c-.003.03.182.07.408.085l1.554.109c.227.016.413.012.414-.01 0-.02-.18-.088-.405-.104l-1.555-.108c-.226-.016-.413-.004-.415.029M21.751 15.072c-.025.019.064.184.197.367l.916 1.26c.133.184.256.325.273.313.018-.012-.049-.196-.181-.379l-.916-1.26c-.133-.183-.264-.318-.29-.3M9.145 39.29c0 .03.185.06.411.064l1.56.027c.227.004.413-.01.413-.031 0-.021-.185-.079-.411-.083l-1.56-.027c-.226-.004-.413.018-.413.05M9.159 38.756c0 .031.183.064.41.071l1.559.054c.227.008.413-.002.414-.023 0-.021-.183-.082-.41-.09l-1.56-.055c-.226-.007-.412.012-.413.043M9.182 38.223c-.002.03.183.066.41.078l1.555.082c.226.012.413.004.414-.017 0-.02-.181-.087-.408-.096l-1.556-.082c-.227-.012-.413.003-.415.035M16.645 19.752c-.021.024.102.165.273.313l1.176 1.022c.171.15.322.258.337.243.015-.014-.09-.179-.26-.327l-1.176-1.023c-.172-.148-.328-.251-.347-.228M16.998 19.352c-.02.024.1.166.269.318l1.159 1.044c.169.151.318.263.331.247.013-.015-.087-.18-.256-.332l-1.158-1.042c-.168-.152-.323-.257-.344-.234M15.626 20.988c-.02.024.111.16.289.299l1.226.96c.18.14.336.24.348.222.011-.017-.1-.173-.28-.313l-1.226-.958c-.18-.14-.34-.234-.36-.21M15.958 20.57c-.019.025.109.161.285.304l1.211.981c.177.143.332.246.345.232.013-.015-.097-.176-.273-.319l-1.211-.98c-.177-.143-.337-.24-.357-.216M17.36 18.959c-.021.022.097.168.263.323l1.141 1.063c.166.155.313.269.327.254.014-.015-.083-.182-.25-.337L17.7 19.197c-.166-.154-.32-.262-.341-.24M19.663 16.734c-.024.02.08.177.228.347l1.022 1.176c.149.172.284.3.3.287.015-.014-.066-.19-.215-.362l-1.021-1.175c-.15-.172-.29-.295-.314-.274M15.3 21.412c-.019.025.114.157.295.294l1.244.936c.182.137.34.236.353.22.013-.017-.102-.174-.284-.31l-1.244-.937c-.181-.137-.344-.229-.364-.202M21.324 15.39c-.025.02.066.183.202.364l.937 1.244c.137.182.26.318.279.307.018-.011-.052-.195-.189-.376l-.937-1.244c-.137-.182-.269-.315-.293-.296M17.726 18.572c-.021.022.095.17.258.327l1.121 1.083c.164.157.31.275.324.26.015-.014-.08-.183-.244-.34l-1.123-1.084c-.163-.158-.314-.269-.336-.246M19.263 17.088c-.023.02.083.176.234.344l1.043 1.158c.152.168.29.295.304.281.015-.014-.068-.188-.22-.357l-1.042-1.16c-.151-.168-.295-.288-.318-.268M14.076 23.161c-.018.026.125.149.314.272l1.306.848c.19.123.355.21.366.193.012-.017-.114-.164-.304-.29l-1.305-.847c-.19-.123-.36-.202-.376-.177M12.475 25.934c-.014.029.14.135.341.238l1.384.705c.203.103.376.174.385.153.008-.02-.131-.15-.334-.254l-1.383-.706c-.203-.102-.38-.164-.393-.136M12.236 26.412c-.014.03.142.132.348.232l1.395.68c.204.1.378.166.388.145.01-.02-.133-.149-.338-.248l-1.396-.682c-.202-.098-.381-.157-.395-.129M12.721 25.46c-.014.03.138.138.338.244l1.372.73c.2.106.373.179.382.16.01-.018-.129-.153-.329-.26l-1.372-.73c-.2-.106-.376-.17-.39-.144M11.573 27.87c-.012.028.149.124.358.213l1.427.607c.209.089.387.145.396.126.008-.018-.141-.141-.35-.231l-1.428-.608c-.209-.088-.39-.137-.403-.108M11.785 27.38c-.013.029.145.127.354.22l1.418.63c.207.093.383.153.391.134.008-.02-.14-.145-.347-.237l-1.418-.63c-.207-.093-.387-.145-.4-.116M11.368 28.363c-.011.028.151.121.361.207l1.44.581c.21.085.389.14.397.12.007-.02-.145-.14-.355-.225l-1.44-.582c-.21-.084-.392-.13-.403-.101M13.789 23.611c-.017.026.128.146.32.267l1.32.825c.193.12.359.204.37.186.011-.018-.118-.162-.31-.282l-1.32-.825c-.192-.12-.364-.197-.38-.17M14.37 22.716c-.017.026.123.15.31.277l1.291.87c.189.127.352.217.363.2.012-.018-.11-.167-.299-.294l-1.29-.868c-.188-.127-.356-.21-.374-.184M13.51 24.067c-.016.026.13.144.324.26l1.334.801c.195.116.362.198.372.18.01-.019-.12-.161-.315-.278l-1.332-.798c-.194-.118-.367-.191-.383-.165M12.976 24.991c-.015.027.134.14.334.25l1.36.754c.198.109.368.185.378.167.01-.019-.125-.156-.324-.267l-1.36-.752c-.199-.11-.374-.178-.389-.15M52.997 14.92c.019.01.121-.144.227-.347l.73-1.372c.107-.2.17-.376.144-.39-.026-.016-.137.137-.243.336l-.73 1.373c-.107.2-.144.39-.127.4M63.434 23.769c-.188.127-.332.244-.32.26.01.016.196-.04.384-.168l1.29-.87c.188-.127.328-.251.31-.277-.017-.026-.186.058-.374.184l-1.29.87zM62.256 22.156c-.179.14-.315.267-.302.284.012.016.193-.055.372-.195l1.226-.958c.18-.14.31-.275.29-.3-.02-.024-.181.07-.36.21l-1.226.959zM64.168 21.412c-.02-.026-.183.066-.364.202l-1.244.937c-.18.137-.318.26-.306.279.012.018.194-.052.376-.189l1.244-.937c.181-.137.314-.269.296-.293M62.824 19.752c-.02-.023-.178.079-.35.228L61.3 21.002c-.171.149-.3.283-.286.3.014.015.19-.066.361-.216l1.175-1.02c.171-.15.295-.29.275-.314M60.968 20.628c-.17.152-.296.29-.282.305.014.014.189-.068.357-.22l1.158-1.043c.168-.152.289-.295.27-.318-.02-.023-.177.081-.346.234l-1.157 1.042zM61.943 21.766c-.177.143-.31.273-.297.29.014.016.192-.058.368-.201l1.212-.982c.177-.142.304-.279.285-.303-.02-.025-.18.073-.357.215l-1.211.981zM64.744 25.895c-.198.11-.352.215-.342.234.01.018.199-.025.397-.134l1.36-.754c.199-.11.349-.223.334-.25-.015-.027-.19.04-.389.15l-1.36.754zM64.984 26.333c-.2.107-.357.21-.347.227.009.019.199-.02.4-.127l1.371-.73c.2-.105.353-.215.339-.242-.014-.028-.192.036-.392.144l-1.371.728zM63.71 24.186c-.19.123-.336.239-.325.256.012.017.198-.038.388-.162l1.304-.847c.19-.124.332-.246.316-.272-.017-.026-.187.053-.376.177l-1.306.848zM63.98 24.606c-.192.12-.34.233-.33.251.012.019.198-.034.39-.155l1.32-.825c.193-.12.336-.24.32-.266-.017-.026-.187.05-.38.17l-1.32.825zM65.958 24.066c-.016-.027-.188.047-.383.165l-1.33.8c-.196.117-.348.227-.336.244.013.018.198-.03.392-.146l1.333-.802c.195-.116.34-.234.324-.26M53.146 12.326c-.03-.014-.132.142-.232.347l-.68 1.395c-.1.205-.166.379-.147.388.018.01.15-.134.249-.337l.68-1.397c.1-.202.158-.381.13-.395M55.492 13.6c-.027-.017-.145.129-.26.323l-.802 1.333c-.116.195-.198.363-.18.373.018.01.161-.12.277-.315l.801-1.332c.116-.194.191-.367.165-.383M65.218 26.775c-.203.104-.36.203-.352.221.009.018.2-.016.402-.119l1.384-.705c.203-.104.356-.21.342-.238-.014-.028-.192.034-.393.136l-1.383.705zM56.513 16.633c-.133.183-.229.344-.212.357.016.012.17-.107.303-.29l.915-1.26c.134-.184.222-.35.197-.368-.025-.018-.154.116-.289.3l-.914 1.261zM50.699 11.261c-.03-.011-.12.153-.201.365l-.557 1.45c-.081.212-.132.39-.113.398.02.007.137-.145.22-.358l.556-1.45c.082-.21.124-.394.095-.405M58.47 18.183c-.149.171-.258.323-.243.336.016.014.18-.089.328-.26l1.023-1.176c.15-.172.25-.329.227-.348-.023-.018-.164.103-.313.274l-1.022 1.174zM60.206 17.087c-.024-.02-.166.1-.319.269l-1.043 1.159c-.152.169-.263.318-.248.331.016.013.181-.087.333-.256l1.042-1.157c.151-.169.256-.324.234-.345M60.284 19.9c-.164.158-.285.3-.27.314.014.015.185-.075.349-.231l1.121-1.083c.163-.158.28-.305.258-.328-.022-.022-.174.089-.336.246L60.284 19.9zM60.628 20.262c-.166.155-.29.294-.275.309.014.014.187-.072.353-.226l1.141-1.064c.165-.154.284-.3.263-.322-.021-.023-.174.086-.341.24l-1.14 1.063zM58.146 15.39c-.025-.02-.157.114-.294.295l-.937 1.244c-.136.182-.235.34-.217.353.018.013.171-.102.307-.284l.939-1.244c.136-.181.227-.345.202-.364M68.073 35.783c-.224.031-.405.075-.403.095.001.02.194.05.419.018l1.54-.217c.225-.032.406-.083.402-.113-.004-.03-.192-.031-.417 0l-1.541.217zM67.232 26.412c-.014-.03-.192.03-.396.13l-1.396.68c-.204.1-.363.196-.354.215.01.018.2-.013.405-.112l1.396-.681c.204-.1.36-.204.347-.232M68.14 36.278c-.225.03-.408.067-.405.087.002.02.193.053.418.025l1.545-.19c.225-.027.407-.075.402-.106-.004-.032-.191-.034-.416-.006l-1.544.19zM68 35.29c-.225.035-.406.08-.402.101.004.02.195.046.42.01l1.535-.243c.225-.036.404-.09.399-.12-.005-.032-.192-.028-.417.008L68 35.289zM69.767 33.986c-.006-.03-.193-.02-.416.022l-1.526.297c-.223.043-.402.096-.398.116.004.02.197.039.42-.005l1.526-.296c.222-.044.4-.105.394-.135M67.84 37.384c.001.021.188.023.414.003l3.049-.267c.227-.02.41-.062.407-.094-.003-.032-.19-.042-.417-.022l-3.05.267c-.225.02-.404.092-.404.113M67.725 33.816c-.222.047-.4.103-.396.123.004.02.197.035.419-.012l1.52-.323c.221-.047.398-.111.392-.142-.006-.03-.193-.016-.415.03l-1.52.324zM68.284 37.77c-.227.015-.41.046-.41.067.002.021.191.062.418.047l1.555-.11c.226-.015.41-.054.407-.085-.002-.031-.19-.044-.415-.029l-1.555.11zM70.31 38.756c0-.031-.188-.05-.414-.042l-1.56.054c-.226.008-.41.032-.41.052.001.021.188.07.415.062l1.559-.055c.227-.007.41-.04.41-.07M68.316 38.269c-.227.012-.411.038-.41.058 0 .02.189.066.416.054l1.555-.082c.227-.011.41-.047.41-.078-.001-.032-.19-.047-.416-.035l-1.555.083zM70.163 36.626c-.004-.032-.19-.038-.417-.013l-1.55.161c-.227.025-.41.06-.406.081.004.02.193.058.42.033l1.547-.163c.225-.024.407-.068.405-.1M66.257 29.046c-.21.086-.376.17-.368.19.008.019.2 0 .41-.084l1.44-.582c.21-.085.373-.179.36-.207-.011-.029-.192.016-.403.102l-1.44.581zM68.297 28.86c-.012-.03-.194.013-.406.094l-1.449.557c-.212.08-.379.163-.372.183.007.02.201.004.413-.078l1.449-.556c.212-.08.376-.171.365-.2M66.066 28.584c-.208.089-.373.178-.364.196.009.018.2-.003.41-.091l1.427-.608c.209-.088.37-.185.357-.214-.012-.028-.193.02-.401.11l-1.429.607zM67.617 33.328c-.221.051-.398.11-.394.13.004.02.197.032.418-.02l1.514-.35c.22-.05.396-.115.388-.147-.008-.032-.193-.014-.414.038l-1.512.349zM65.866 28.127c-.208.092-.37.183-.362.202.009.02.2-.006.407-.098l1.418-.632c.208-.092.367-.191.354-.22-.013-.029-.193.024-.4.116l-1.417.632zM66.786 30.449c-.215.073-.385.15-.376.17.008.02.2.011.414-.063l1.467-.505c.215-.074.382-.158.372-.189-.01-.03-.195.007-.409.081l-1.468.506zM67.5 32.843c-.221.054-.398.115-.392.136.005.02.198.029.418-.026l1.507-.376c.22-.055.394-.124.387-.155-.007-.03-.194-.01-.413.045l-1.508.376zM65.315 27.917c.008.019.185-.044.39-.14l2.77-1.291c.205-.096.363-.198.35-.227-.013-.03-.193.026-.4.121l-2.769 1.292c-.206.096-.35.226-.341.245M67.097 31.398c-.217.066-.39.138-.384.157.005.02.2.02.417-.048l1.485-.454c.216-.066.386-.144.376-.173-.011-.03-.194 0-.412.066l-1.482.452zM66.945 30.923c-.215.07-.387.144-.38.163.005.019.198.015.415-.056l1.475-.48c.217-.07.385-.15.375-.18-.01-.03-.194.003-.41.073l-1.475.48zM69.144 31.39c-.009-.029-.194-.003-.412.058l-1.491.43c-.219.062-.393.13-.386.149.006.019.2.022.418-.041l1.49-.428c.219-.061.39-.137.382-.168M67.524 34.943c.004.02.189.006.412-.034l3.012-.53c.223-.04.401-.098.396-.129-.005-.031-.193-.025-.416.014l-3.011.531c-.223.04-.396.127-.393.148M66.994 32.54c.005.02.19-.01.409-.07l2.951-.791c.219-.058.392-.132.383-.163-.008-.03-.194-.008-.413.05l-2.952.792c-.219.058-.383.16-.378.182M66.257 30.192c.007.02.187-.027.4-.104l2.87-1.044c.214-.079.379-.166.368-.197-.01-.03-.195.009-.408.087l-2.869 1.044c-.213.079-.368.195-.361.215M70.324 39.29c0-.032-.187-.054-.414-.05l-1.559.029c-.227.003-.412.023-.412.044 0 .02.186.072.413.069l1.56-.03c.228-.003.413-.031.412-.063M41.23 11.652c.02 0 .048-.184.058-.41l.08-1.556c.012-.226-.003-.413-.034-.414-.032-.002-.066.182-.079.409l-.081 1.555c-.012.227.033.415.054.416M23.973 16.423c.017-.011-.073-.174-.2-.363l-.868-1.29c-.127-.187-.252-.327-.278-.31-.026.017.058.186.184.374l.868 1.289c.127.189.277.311.294.3M38.278 11.65c.021 0 .03-.187.017-.414l-.082-1.556c-.012-.226-.048-.41-.079-.408-.031.001-.047.187-.035.414l.082 1.556c.011.226.077.41.097.408M36.803 11.764c.02-.003.018-.189-.006-.415L36.634 9.8c-.023-.225-.067-.408-.099-.405-.032.003-.037.19-.013.417l.163 1.548c.023.226.097.405.118.402M37.295 11.719c.021-.002.022-.189.002-.415l-.266-3.049c-.02-.226-.062-.409-.094-.405-.033.004-.042.19-.022.416l.267 3.05c.02.226.092.405.113.405M37.787 11.68c.02 0 .025-.187.01-.413l-.11-1.556c-.016-.226-.054-.409-.086-.407-.03.001-.043.19-.027.415l.109 1.555c.016.227.082.407.104.407M35.827 11.883c.02-.002.011-.188-.02-.414l-.217-1.54c-.032-.226-.082-.406-.114-.402-.03.005-.03.192.002.417l.216 1.541c.032.225.112.401.133.398M36.315 11.82c.02-.003.015-.19-.012-.415l-.19-1.545c-.03-.226-.077-.405-.107-.402-.03.003-.034.191-.006.417l.19 1.543c.026.226.104.406.125.401M35.34 11.954c.02-.003.007-.19-.028-.414l-.243-1.535c-.036-.224-.09-.404-.121-.398-.031.005-.027.192.009.416l.243 1.536c.036.224.118.399.14.396M39.262 11.617c.021 0 .035-.186.03-.413l-.028-1.56c-.004-.227-.032-.412-.064-.41-.032 0-.053.186-.05.413l.03 1.559c.003.227.061.41.082.41M38.769 11.63c.02 0 .03-.186.023-.413l-.055-1.558c-.008-.227-.04-.412-.071-.41-.031.001-.05.186-.042.413l.055 1.558c.008.227.069.411.09.41M16.922 23.226c.012-.016-.128-.14-.311-.273l-1.26-.915c-.184-.133-.348-.222-.368-.196-.02.025.116.154.3.289l1.26.914c.184.134.367.199.38.182M18.137 21.676c.014-.017-.116-.149-.291-.295L15.5 19.414c-.173-.147-.333-.246-.354-.221-.02.024.106.163.28.31l2.343 1.967c.174.146.353.222.367.206M16.637 23.626c.012-.017-.13-.138-.317-.269l-2.505-1.755c-.186-.13-.353-.215-.372-.189-.018.026.119.155.305.285l2.507 1.755c.186.13.37.19.382.173M15.31 25.7c.01-.019-.142-.127-.338-.24l-2.648-1.53c-.197-.113-.37-.183-.386-.156-.016.027.131.145.328.258l2.647 1.527c.196.114.386.158.396.14M21.996 17.888c.015-.013-.087-.168-.232-.344l-.98-1.211c-.142-.176-.28-.305-.304-.285-.024.02.073.18.217.356l.98 1.211c.144.177.302.286.318.273M14.17 27.881c.01-.019-.152-.114-.357-.21l-2.77-1.29c-.206-.097-.385-.152-.399-.122-.014.03.145.13.35.226l2.77 1.292c.206.097.398.123.407.104M22.38 17.58c.017-.011-.084-.168-.224-.346l-.959-1.228c-.14-.179-.274-.31-.299-.29-.025.021.07.182.21.36l.958 1.227c.14.179.298.29.314.279M20.51 19.18c.014-.014-.1-.162-.254-.328l-1.064-1.14c-.154-.167-.3-.285-.323-.264-.023.02.085.174.24.34l1.064 1.141c.155.167.32.265.337.251M21.616 18.2c.017-.013-.089-.166-.235-.34l-1.967-2.346c-.145-.173-.286-.299-.31-.279-.024.02.075.18.22.354l1.968 2.346c.146.173.308.28.324.266M20.152 19.518c.015-.014-.102-.16-.26-.323l-1.083-1.12c-.158-.164-.305-.28-.327-.259-.023.022.088.174.246.337l1.083 1.121c.157.164.326.26.34.244M13.224 30.154c.007-.02-.161-.1-.376-.177l-2.866-1.045c-.214-.078-.397-.116-.408-.087-.01.029.154.118.368.196l2.87 1.044c.214.078.407.087.414.068M11.951 34.905c.004-.021-.176-.07-.4-.11l-3.01-.53c-.224-.04-.41-.047-.417-.015-.006.03.174.09.397.13l3.011.53c.224.04.416.016.42-.005M12.484 32.502c.006-.021-.168-.085-.388-.145l-2.951-.79c-.22-.058-.405-.082-.414-.05-.009.03.165.103.384.162l2.951.791c.22.058.413.053.418.032M23.569 16.702c.017-.012-.075-.173-.205-.36l-1.755-2.506c-.13-.186-.258-.323-.284-.305-.026.019.058.185.188.371l1.755 2.507c.13.186.283.306.3.293M11.633 37.345c.002-.02-.182-.054-.408-.074l-3.05-.266c-.226-.02-.413-.01-.415.021-.003.032.18.074.405.093l3.049.268c.227.02.416-.02.418-.042M26.941 14.674c.02-.01-.05-.183-.153-.384l-.705-1.384c-.103-.202-.21-.356-.237-.342-.028.014.033.191.136.394l.704 1.382c.104.203.237.344.255.334M32.45 12.564c.021-.005-.01-.19-.07-.409l-.79-2.95c-.058-.22-.132-.392-.163-.384-.031.008-.008.195.05.414l.791 2.951c.058.22.161.383.182.378M31.502 12.834c.02-.006-.018-.188-.084-.405l-.454-1.485c-.066-.216-.144-.387-.173-.378-.03.009 0 .195.066.411l.454 1.484c.066.217.173.38.193.373M31.975 12.694c.02-.006-.015-.19-.078-.408l-.428-1.49c-.062-.219-.138-.39-.168-.382-.031.01-.003.194.06.412l.427 1.493c.062.218.167.381.187.376M30.565 13.137c.02-.007-.024-.188-.098-.402l-.505-1.465c-.074-.215-.16-.382-.189-.372-.03.01.007.194.081.408l.505 1.468c.074.215.187.372.206.365M31.033 12.982c.02-.006-.022-.188-.092-.405l-.48-1.475c-.07-.217-.152-.385-.181-.377-.03.009.003.194.073.41l.48 1.477c.07.216.18.376.2.369M32.926 12.441c.02-.005-.008-.19-.064-.41l-.376-1.507c-.055-.22-.125-.394-.154-.386-.03.008-.011.194.044.414l.376 1.507c.056.22.154.387.174.382M33.887 12.22c.02-.004-.002-.19-.049-.411l-.323-1.519c-.048-.222-.11-.398-.141-.392-.03.006-.017.194.03.415l.323 1.52c.047.223.14.392.16.388M34.37 12.124c.02-.003.001-.19-.042-.412l-.298-1.526c-.043-.223-.103-.4-.134-.394-.03.006-.02.193.024.415l.296 1.526c.044.222.132.394.153.39M33.405 12.326c.02-.005-.005-.189-.055-.41L33 10.402c-.051-.222-.118-.397-.149-.39-.03.007-.013.194.039.415l.348 1.513c.052.22.147.389.167.385M30.101 13.3c.02-.006-.026-.187-.104-.4l-1.045-2.87c-.077-.213-.166-.38-.196-.368-.03.012.01.194.087.408l1.045 2.87c.077.212.194.368.214.36M26.072 15.138c.018-.01-.058-.181-.167-.38l-.752-1.36c-.11-.198-.223-.348-.25-.333-.027.015.04.19.15.389l.754 1.36c.111.199.248.334.267.324M25.644 15.378c.018-.011-.06-.18-.174-.376l-1.528-2.646c-.113-.197-.228-.345-.257-.33-.028.017.043.191.156.388l1.53 2.647c.112.197.254.33.272.318M24.384 16.152c.018-.011-.07-.176-.193-.367l-.847-1.304c-.124-.19-.246-.332-.273-.314-.027.017.053.186.177.376l.849 1.305c.123.191.27.316.287.305M26.505 14.903c.018-.01-.054-.182-.16-.382l-.73-1.373c-.107-.2-.216-.352-.244-.337-.028.014.037.19.145.39l.73 1.373c.106.2.242.338.26.329M24.8 15.888c.017-.011-.066-.177-.187-.37l-.825-1.32c-.12-.192-.24-.336-.266-.32-.027.017.05.189.17.38l.825 1.32c.12.193.265.32.283.31M27.827 14.243c.02-.008-.043-.184-.139-.39l-1.29-2.77c-.098-.206-.2-.363-.229-.35-.03.013.026.194.122.4l1.292 2.768c.096.206.225.35.244.342M28.726 13.842c.019-.008-.038-.186-.127-.395l-.605-1.427c-.089-.21-.185-.371-.214-.358-.029.014.02.193.109.402l.607 1.428c.09.209.212.359.232.35M34.854 12.034c.02-.003.006-.188-.033-.412l-.532-3.011c-.039-.224-.097-.402-.128-.397-.031.005-.025.193.015.417l.53 3.009c.04.223.127.397.148.394M28.275 14.039c.019-.008-.04-.185-.133-.392l-.632-1.418c-.092-.208-.19-.367-.22-.354-.028.013.024.192.116.4l.631 1.418c.093.207.219.355.238.347M29.182 13.654c.019-.007-.035-.187-.12-.397l-.582-1.438c-.084-.21-.178-.372-.207-.36-.028.012.018.193.102.403l.582 1.44c.086.21.206.361.225.354M62.995 15.523l.467-.467c.073-.072.148-.145.226-.212l-.007-.006a7.428 7.428 0 01-.322.09l-.818.133-.004.004.458.458zm-.528.53l.38-.38-.65-.65.125-.125 1.516-.268.205.202-.868.87.196.195-.149.148-.196-.195-.38.381-.18-.178zM65.058 16.167l-.534-.534-.413.305c.044.033.085.069.123.107a.845.845 0 01.226.376.563.563 0 01-.16.559c-.273.273-.694.26-.997-.043a.972.972 0 01-.263-.434l.192-.097a.88.88 0 00.221.376c.179.178.447.216.635.029.178-.183.187-.434-.093-.712a1.982 1.982 0 00-.209-.18l.762-.578.669.669-.16.157zM14.746 17.866a.89.89 0 00.398-.22c.243-.244.164-.474.046-.588-.199-.193-.458-.1-.641.082l-.105.106-.143-.143.108-.105c.137-.137.24-.382.074-.547-.112-.112-.281-.14-.455.034a.73.73 0 00-.188.372l-.186-.089a.935.935 0 01.257-.473c.276-.274.564-.236.734-.066.145.145.18.352.07.587l.005.004c.207-.138.475-.148.671.047.224.225.245.594-.091.93a1.005 1.005 0 01-.458.268l-.096-.199z"/>
          <polygon points="15.2112832 15.3926937 15.2069433 15.3970337 15.0946829 15.7717172 14.914719 15.6640861 15.0564912 15.194502 15.2182272 15.033634 16.6154061 16.431681 16.4328383 16.6142488"/>
          <path d="M16.721 13.849l-.533.533.305.414a.965.965 0 01.105-.124.84.84 0 01.376-.225.561.561 0 01.56.159c.273.273.26.694-.044.997a.973.973 0 01-.434.264l-.097-.192a.881.881 0 00.377-.222c.179-.179.215-.448.028-.634-.182-.18-.432-.187-.71.092a1.898 1.898 0 00-.179.209l-.58-.762.668-.668.158.159zM21.28 12.148a.887.887 0 00.442-.111c.297-.172.28-.415.195-.555-.14-.238-.416-.216-.64-.087l-.128.074-.1-.173.129-.075c.168-.097.33-.307.214-.51-.079-.136-.235-.207-.45-.085a.726.726 0 00-.277.312l-.157-.134a.932.932 0 01.372-.39c.337-.195.605-.082.725.125.102.177.083.387-.083.585l.002.006c.236-.08.498-.02.637.219.157.275.082.636-.328.874-.192.11-.396.147-.512.141l-.04-.216zM22.632 11.368a.884.884 0 00.441-.111c.298-.172.28-.415.196-.556-.141-.238-.416-.216-.64-.086l-.129.075-.1-.174.129-.075c.169-.097.332-.307.215-.51-.08-.137-.237-.208-.45-.084a.734.734 0 00-.277.31l-.157-.133a.936.936 0 01.37-.39c.338-.195.607-.083.727.126.102.176.083.387-.084.584l.003.006c.235-.08.498-.02.636.219.159.275.083.636-.327.874a1.01 1.01 0 01-.512.142l-.04-.217zM23.8 9.917c.257.445.54.619.75.497.237-.136.191-.478-.06-.915-.244-.422-.512-.637-.753-.497-.203.117-.207.449.062.915m.914-.562c.337.581.306 1.027-.073 1.246-.334.193-.742.01-1.074-.553-.332-.574-.266-1.032.08-1.233.362-.208.753-.005 1.067.54M9.915 25.08a.902.902 0 00.327-.318c.173-.297.035-.498-.108-.578-.242-.136-.47.02-.598.244l-.075.13-.174-.101.075-.129c.097-.168.134-.432-.07-.55-.136-.079-.307-.062-.43.15a.723.723 0 00-.085.408l-.202-.036a.94.94 0 01.127-.524c.194-.337.482-.373.69-.254.177.102.266.294.22.55l.006.003c.164-.187.42-.266.66-.128.274.159.391.51.154.921a1.005 1.005 0 01-.373.378l-.144-.165zM10.2 23.24c.446.258.778.266.898.056.137-.237-.074-.51-.511-.762-.421-.244-.76-.295-.897-.056-.117.203.045.494.51.763m.511-.945c.582.336.78.738.56 1.117-.193.334-.636.38-1.206.058-.575-.331-.749-.762-.546-1.11.208-.36.648-.38 1.193-.065M10.981 21.888c.445.257.777.266.9.056.136-.238-.076-.511-.512-.762-.422-.244-.76-.295-.899-.055-.117.202.045.492.511.761m.51-.945c.582.336.78.738.56 1.117-.192.334-.636.38-1.206.058-.574-.33-.747-.76-.545-1.107.208-.361.648-.381 1.193-.067M29.072 8.316a.892.892 0 00.455.007c.332-.089.378-.328.333-.486-.075-.266-.347-.316-.596-.25l-.144.04-.052-.194.145-.04c.189-.05.4-.21.34-.437-.042-.153-.173-.26-.412-.198a.728.728 0 00-.347.229l-.118-.17c.08-.1.254-.226.46-.28.376-.101.606.076.669.308.052.198-.02.397-.232.545l.002.006c.247-.017.485.108.556.376.083.305-.084.636-.542.759-.214.057-.42.04-.531.003l.014-.218zM31.202 7.289l-.17-.637c-.027-.1-.05-.2-.071-.302l-.009.002a5.45 5.45 0 01-.084.325l-.292.774.001.006.625-.168zm.194.723l-.139-.52-.888.237-.045-.17.525-1.447.28-.075.318 1.186.267-.072.055.202-.267.072.138.521-.244.066zM32.79 5.824l-.728.195.058.51c.05-.021.1-.039.153-.053a.813.813 0 01.438-.007c.174.045.34.177.406.418.1.372-.122.73-.536.842a.977.977 0 01-.508.01l.012-.214a.89.89 0 00.437-.004c.244-.066.41-.28.342-.535-.07-.246-.281-.379-.663-.277a2.03 2.03 0 00-.26.092l-.123-.949.914-.245.059.217zM7.395 33.441l-.158-.043-.143-.255c-.333-.612-.52-.897-.81-.978-.194-.052-.398-.006-.475.278a.68.68 0 00.054.45l-.205.033a.868.868 0 01-.048-.594c.11-.41.439-.508.71-.434.354.094.57.426.85.932l.1.192h.006l.23-.857.215.057-.326 1.22zM7.572 30.797c-.232-.063-.387.068-.53.307.004.241.12.4.302.45.191.06.4-.04.466-.285.062-.231-.045-.421-.238-.472m-1.145.454c.19.051.331-.066.45-.27-.012-.18-.096-.337-.269-.384-.153-.04-.335.008-.398.24-.058.215.052.37.217.414m.463.061c-.157.184-.348.231-.51.188-.303-.082-.44-.392-.35-.727.099-.37.38-.492.618-.43.162.044.314.17.362.435l.01.002c.157-.213.364-.314.596-.253.332.09.479.434.381.798-.107.4-.41.577-.688.503-.241-.065-.373-.254-.41-.517l-.01.001zM6.816 28.834l-.195.728.47.205c.007-.054.017-.107.031-.159a.841.841 0 01.213-.384.562.562 0 01.563-.141c.373.1.574.47.463.885a.96.96 0 01-.246.444l-.179-.117a.878.878 0 00.215-.38c.065-.243-.037-.495-.293-.563-.248-.064-.468.054-.57.436a2.184 2.184 0 00-.05.27l-.883-.369.244-.913.217.058zM67.914 22.523c.116.198.358.237.604.096.245-.141.31-.367.187-.579a.439.439 0 00-.401-.21.233.233 0 00-.119.033c-.279.168-.412.417-.273.659l.002.001zm1.629-.41a1.033 1.033 0 00-.11-.167.804.804 0 00-.953-.244l.005.008a.586.586 0 01.435.3c.176.303.08.642-.255.835-.313.18-.725.135-.93-.221-.212-.366-.066-.77.38-1.027.336-.194.672-.227.937-.156.23.067.43.209.57.402.04.051.077.106.11.162l-.19.109zM69.179 23.1c-.446.257-.62.54-.498.751.137.238.479.19.916-.06.422-.245.637-.513.497-.753-.117-.203-.45-.208-.915.062m.562.914c-.582.336-1.027.305-1.246-.074-.193-.334-.01-.742.553-1.073.573-.332 1.033-.266 1.233.08.208.361.006.753-.54 1.067M55.03 10.331a.897.897 0 00.319.327c.297.171.5.035.579-.109.134-.242-.021-.468-.246-.598l-.129-.074.1-.173.13.074c.168.097.433.133.55-.07.078-.136.06-.308-.152-.43a.723.723 0 00-.408-.085l.037-.202c.128-.015.34.02.524.126.336.195.374.483.254.691-.102.177-.294.266-.55.22l-.004.006c.187.163.267.42.13.66-.16.274-.511.391-.921.153a1.004 1.004 0 01-.38-.372l.168-.144zM56.871 10.617c-.256.445-.265.777-.055.899.237.136.51-.075.762-.512.245-.421.295-.76.056-.899-.202-.117-.492.046-.763.512m.946.51c-.336.583-.738.779-1.118.56-.334-.193-.38-.637-.058-1.207.333-.574.762-.747 1.11-.546.36.208.38.649.066 1.193"/>
          <polygon points="73.3326549 30.5345375 73.162239 30.5799625 71.2008648 30.2148269 71.1294001 29.9469064 73.0395627 30.323326 73.0465067 30.32159 72.7950781 29.3879191 73.010051 29.3297636"/>
          <path d="M73.492 32l-.195-.728-.51.058c.022.05.04.1.054.152a.848.848 0 01.007.439.564.564 0 01-.418.405c-.373.099-.731-.123-.842-.537a.975.975 0 01-.01-.507l.214.012a.892.892 0 00.003.436c.066.244.281.41.536.342.246-.07.378-.28.275-.664a1.936 1.936 0 00-.09-.258l.949-.122.245.913-.218.06z"/>
          <polygon points="47.3605765 6.01576827 47.3571046 6.22640117 47.7378641 6.13584059 47.743072 6.13670859 47.2963451 7.80499061 47.5457483 7.87298337 48.057864 5.9636887 47.8371046 5.9037972"/>
          <path d="M49.836 6.673l-.729-.196-.204.472c.053.005.107.015.159.029.145.035.277.109.383.213a.563.563 0 01.142.564c-.1.373-.471.573-.886.463a.97.97 0 01-.444-.246l.117-.18a.886.886 0 00.38.216c.244.065.495-.038.563-.293.063-.247-.053-.468-.435-.57a1.978 1.978 0 00-.27-.05l.368-.884.914.245-.058.217zM61.118 20.175l.02.023.456-1.267.525-1.46-1.46.527-1.264.455.022.02c.59.544 1.156 1.112 1.7 1.702M17.432 17.567l.526 1.46.407 1.132.021-.022A28.835 28.835 0 0120 18.52l.022-.02-1.129-.408-1.46-.525z"/>
          <path d="M52.27 35.82c.035-.023 8.119-5.05 8.119-5.05l-10.9 2.785 9.396-13.348a27.237 27.237 0 017.884 17.59L52.271 35.82zm-10.922 2.866l2.745-3.153L64.3 38.814l-22.953-.128zm-5.546-3.184l3.5-22.153.333 25.82-3.833-3.667zm-3.678-.202l-7.306-10.032 9.802 9.662-2.496.37zm-5.208.688l-14.394 1.895c.396-6.746 3.2-12.835 7.6-17.384l9.853 13.223-10.74-2.246 7.68 4.514m10.844-23.692L35.852 26.9l-4.942-7.948c-.022.058 2.797 10.982 2.802 11.01L20.36 20.255a27.061 27.061 0 0117.4-7.958m16.407 12.34l-9.63 9.826-.375-2.495 10.005-7.331zm4.528-4.632l-13.035 9.8c.004-.03 2.57-11.28 2.57-11.28l-4.832 8.337-2.189-14.585a27.068 27.068 0 0117.487 7.728m9.826 18.034c-.74-14.913-12.674-26.85-27.576-27.515L39.367 0 37.99 10.539c-14.742.839-26.514 12.73-27.21 27.576L0 39.537l79.453.022-10.93-1.52z"/>
        </g>
        <path d="M6.557 43.233c1.574 0 2.795.415 3.663 1.244.869.829 1.351 1.77 1.447 2.826h-1.641c-.186-.801-.557-1.436-1.113-1.904-.555-.468-1.335-.702-2.34-.702-1.223 0-2.212.43-2.965 1.29-.753.86-1.129 2.178-1.129 3.955 0 1.455.34 2.636 1.02 3.541.68.905 1.693 1.358 3.041 1.358 1.24 0 2.186-.477 2.834-1.43.344-.502.601-1.162.77-1.98h1.642c-.147 1.309-.632 2.406-1.456 3.291-.987 1.066-2.318 1.6-3.993 1.6-1.444 0-2.657-.438-3.638-1.312C1.407 53.854.76 52.07.76 49.655c0-1.834.486-3.337 1.456-4.51 1.049-1.275 2.496-1.912 4.34-1.912zm10.669 11.786c1.01 0 1.702-.383 2.077-1.147s.562-1.614.562-2.55c0-.847-.135-1.535-.406-2.065-.428-.835-1.167-1.252-2.216-1.252-.931 0-1.608.355-2.03 1.066-.424.71-.635 1.568-.635 2.572 0 .964.211 1.768.634 2.411.423.643 1.094.965 2.014.965zm.059-8.343c1.168 0 2.155.39 2.961 1.168.807.778 1.21 1.923 1.21 3.435 0 1.46-.355 2.668-1.066 3.621-.71.953-1.813 1.43-3.308 1.43-1.247 0-2.236-.422-2.97-1.265-.733-.843-1.1-1.975-1.1-3.397 0-1.523.387-2.735 1.16-3.638.772-.902 1.81-1.354 3.113-1.354zm5.982.263h1.506v1.286c.36-.446.688-.77.981-.973a2.952 2.952 0 011.71-.516c.721 0 1.302.177 1.742.533.248.203.474.502.677.896.338-.485.736-.844 1.193-1.078.457-.234.97-.351 1.54-.351 1.218 0 2.047.44 2.487 1.32.237.473.355 1.11.355 1.912V56h-1.582v-6.295c0-.603-.15-1.018-.452-1.243-.302-.226-.67-.339-1.105-.339-.597 0-1.112.2-1.544.6-.431.401-.647 1.07-.647 2.006V56H28.58v-5.914c0-.615-.073-1.063-.22-1.345-.231-.423-.663-.635-1.295-.635-.575 0-1.098.223-1.569.669-.471.445-.706 1.252-.706 2.42V56h-1.523v-9.061zm18.258 8.037c.71 0 1.301-.297 1.772-.892.471-.595.707-1.485.707-2.67 0-.722-.105-1.342-.313-1.861-.395-.998-1.117-1.498-2.166-1.498-1.055 0-1.777.528-2.166 1.583-.209.564-.313 1.28-.313 2.149 0 .699.104 1.294.313 1.785.395.936 1.116 1.404 2.166 1.404zm-3.943-7.995h1.48v1.201c.305-.411.638-.73.999-.956.513-.338 1.117-.507 1.81-.507 1.027 0 1.898.393 2.615 1.18.716.787 1.074 1.91 1.074 3.372 0 1.974-.516 3.384-1.548 4.23a3.498 3.498 0 01-2.284.804c-.683 0-1.255-.15-1.718-.449-.27-.169-.572-.46-.905-.871v4.628h-1.523V46.98zm10.923 6.608c0 .44.16.787.482 1.04.321.254.702.381 1.142.381.536 0 1.055-.124 1.557-.372.846-.412 1.269-1.086 1.269-2.022v-1.227a2.605 2.605 0 01-.72.296 6.128 6.128 0 01-.862.17l-.922.118c-.553.073-.968.189-1.244.347-.468.265-.702.688-.702 1.269zm3.688-3.08c.35-.045.584-.192.703-.44.067-.135.101-.33.101-.584 0-.519-.185-.895-.554-1.13-.37-.233-.898-.35-1.586-.35-.796 0-1.36.214-1.692.643-.187.237-.308.59-.364 1.057h-1.422c.029-1.116.39-1.893 1.088-2.33.696-.438 1.504-.656 2.423-.656 1.067 0 1.932.203 2.598.609.66.406.99 1.038.99 1.895v5.22c0 .158.032.285.097.381.065.096.202.144.41.144.068 0 .144-.004.229-.013.084-.008.175-.021.27-.038v1.125l-.257.07c-.115.028-.21.047-.284.057a3.957 3.957 0 01-.508.026c-.524 0-.905-.187-1.142-.559-.124-.197-.211-.476-.262-.837-.31.406-.756.758-1.337 1.057a4.135 4.135 0 01-1.92.449c-.84 0-1.527-.256-2.06-.766-.533-.51-.8-1.15-.8-1.916 0-.84.262-1.492.787-1.955.524-.462 1.213-.747 2.064-.854l2.428-.305zm5.686 2.648c.045.508.172.897.38 1.168.384.49 1.05.736 1.997.736.564 0 1.06-.123 1.49-.368.428-.246.642-.625.642-1.138 0-.39-.172-.685-.516-.888-.195-.11-.56-.237-1.094-.378l-1.418-.359c-.773-.191-1.343-.406-1.71-.643-.654-.411-.98-.981-.98-1.709 0-.857.308-1.55.926-2.08.617-.531 1.448-.796 2.491-.796 1.365 0 2.35.4 2.953 1.201.378.508.561 1.055.55 1.642h-1.438a1.762 1.762 0 00-.364-.94c-.35-.4-.956-.6-1.82-.6-.575 0-1.01.11-1.306.33-.297.22-.445.51-.445.871 0 .395.195.71.584.948.226.14.559.265.999.372l1.006.245c1.095.265 1.828.522 2.2.77.592.39.888 1.001.888 1.836 0 .807-.306 1.503-.918 2.09-.612.587-1.544.88-2.796.88-1.348 0-2.302-.306-2.864-.918-.56-.612-.861-1.37-.9-2.272h1.463zm8.664 0c.045.508.172.897.38 1.168.384.49 1.05.736 1.997.736.564 0 1.06-.123 1.49-.368.428-.246.642-.625.642-1.138 0-.39-.172-.685-.516-.888-.196-.11-.56-.237-1.095-.378l-1.418-.359c-.773-.191-1.342-.406-1.709-.643-.654-.411-.981-.981-.981-1.709 0-.857.309-1.55.926-2.08.618-.531 1.448-.796 2.492-.796 1.365 0 2.349.4 2.953 1.201.377.508.56 1.055.55 1.642h-1.439a1.762 1.762 0 00-.364-.94c-.35-.4-.956-.6-1.819-.6-.575 0-1.01.11-1.307.33-.296.22-.444.51-.444.871 0 .395.195.71.584.948.225.14.558.265.998.372l1.007.245c1.094.265 1.827.522 2.2.77.592.39.888 1.001.888 1.836 0 .807-.306 1.503-.918 2.09-.612.587-1.544.88-2.796.88-1.348 0-2.303-.306-2.864-.918-.561-.612-.862-1.37-.901-2.272h1.464zm12.936-9.586H88.1v1.523h-6.937v3.774h6.1v1.48h-6.1V56h-1.684V43.571zm10.22 3.41h1.549V56h-1.549v-9.019zm0-3.41h1.549v1.726h-1.549v-1.726zm3.85 3.368h1.447v1.286c.428-.53.882-.911 1.362-1.142a3.632 3.632 0 011.599-.347c1.286 0 2.154.448 2.606 1.345.248.49.372 1.193.372 2.107V56h-1.548v-5.71c0-.554-.082-1-.246-1.338-.27-.564-.761-.846-1.472-.846-.36 0-.657.037-.888.11-.418.124-.784.373-1.1.745a2.241 2.241 0 00-.495.926c-.076.319-.114.774-.114 1.367V56h-1.523v-9.061zm10.804 6.65c0 .44.16.787.482 1.04.322.254.702.381 1.142.381.536 0 1.055-.124 1.557-.372.846-.412 1.27-1.086 1.27-2.022v-1.227a2.605 2.605 0 01-.72.296 6.128 6.128 0 01-.863.17l-.922.118c-.553.073-.967.189-1.244.347-.468.265-.702.688-.702 1.269zm3.689-3.08c.35-.045.584-.192.702-.44.068-.135.102-.33.102-.584 0-.519-.185-.895-.555-1.13-.369-.233-.898-.35-1.586-.35-.795 0-1.36.214-1.692.643-.186.237-.307.59-.364 1.057h-1.421c.028-1.116.39-1.893 1.087-2.33.697-.438 1.505-.656 2.424-.656 1.066 0 1.932.203 2.597.609.66.406.99 1.038.99 1.895v5.22c0 .158.033.285.097.381.065.096.202.144.41.144.069 0 .145-.004.23-.013.084-.008.174-.021.27-.038v1.125l-.257.07c-.115.028-.21.047-.284.057a3.957 3.957 0 01-.508.026c-.525 0-.905-.187-1.142-.559-.124-.197-.212-.476-.263-.837-.31.406-.755.758-1.336 1.057a4.135 4.135 0 01-1.92.449c-.841 0-1.528-.256-2.061-.766-.533-.51-.8-1.15-.8-1.916 0-.84.263-1.492.787-1.955.525-.462 1.213-.747 2.065-.854l2.428-.305zm4.78-3.57h1.447v1.286c.429-.53.883-.911 1.362-1.142a3.632 3.632 0 011.599-.347c1.286 0 2.155.448 2.606 1.345.248.49.372 1.193.372 2.107V56h-1.548v-5.71c0-.554-.082-1-.245-1.338-.271-.564-.762-.846-1.473-.846-.36 0-.657.037-.888.11-.417.124-.784.373-1.1.745a2.241 2.241 0 00-.495.926c-.076.319-.114.774-.114 1.367V56h-1.523v-9.061zm13.13-.263c1.022 0 1.852.249 2.493.745.64.496 1.025 1.35 1.154 2.564h-1.48c-.09-.559-.296-1.023-.618-1.392-.321-.37-.837-.554-1.548-.554-.97 0-1.664.473-2.081 1.421-.271.615-.407 1.373-.407 2.276 0 .908.192 1.672.576 2.293.383.62.987.93 1.81.93.632 0 1.133-.193 1.502-.58.37-.386.625-.914.766-1.586h1.48c-.169 1.202-.592 2.08-1.269 2.636-.677.555-1.542.833-2.597.833-1.185 0-2.13-.433-2.834-1.298-.705-.866-1.058-1.948-1.058-3.245 0-1.59.386-2.829 1.16-3.714.772-.886 1.756-1.329 2.952-1.329zm5.17.305h1.549V56h-1.549v-9.019zm0-3.41h1.549v1.726h-1.549v-1.726zm5.017 10.018c0 .44.161.787.483 1.04.321.254.702.381 1.142.381.536 0 1.055-.124 1.557-.372.846-.412 1.269-1.086 1.269-2.022v-1.227a2.605 2.605 0 01-.72.296 6.128 6.128 0 01-.862.17l-.923.118c-.552.073-.967.189-1.243.347-.468.265-.703.688-.703 1.269zm3.69-3.08c.349-.045.583-.192.702-.44.067-.135.101-.33.101-.584 0-.519-.185-.895-.554-1.13-.37-.233-.898-.35-1.586-.35-.796 0-1.36.214-1.693.643-.186.237-.307.59-.363 1.057h-1.422c.028-1.116.39-1.893 1.087-2.33.697-.438 1.505-.656 2.424-.656 1.066 0 1.932.203 2.598.609.66.406.99 1.038.99 1.895v5.22c0 .158.032.285.097.381.065.096.202.144.41.144.068 0 .144-.004.229-.013.084-.008.175-.021.27-.038v1.125l-.257.07c-.115.028-.21.047-.284.057a3.957 3.957 0 01-.508.026c-.524 0-.905-.187-1.142-.559-.124-.197-.211-.476-.262-.837-.31.406-.756.758-1.337 1.057a4.135 4.135 0 01-1.92.449c-.84 0-1.528-.256-2.06-.766-.534-.51-.8-1.15-.8-1.916 0-.84.262-1.492.787-1.955.524-.462 1.212-.747 2.064-.854l2.428-.305zm4.822-6.938h1.523V56h-1.523V43.571z" fill="#FFF"/>
      </g>
    </g>
  </g>
</svg>