<svg xmlns="http://www.w3.org/2000/svg" width="480" height="212"><g fill="#FFF"><path d="M262.896 42c.068.015.269-.591.44-1.341l1.19-5.152c.173-.751.232-1.388.128-1.412-.103-.023-.329.575-.503 1.327l-1.19 5.154c-.174.752-.132 1.41-.064 1.424m-1.639-.359c.071.015.258-.59.418-1.347l1.102-5.17c.16-.758.206-1.394.098-1.415-.108-.02-.32.578-.483 1.335l-1.098 5.173c-.16.754-.112 1.414-.042 1.43M257.968 41c.072.012.24-.601.373-1.362l1.809-10.246c.133-.76.157-1.4.047-1.418-.11-.017-.304.591-.438 1.35l-1.809 10.252c-.133.764-.053 1.415.018 1.427m66.49 46.621c.039.062.616-.197 1.28-.59l9.013-5.205c.669-.388 1.172-.778 1.119-.874-.053-.095-.645.146-1.317.53l-9.018 5.208c-.669.385-1.12.867-1.084.93m-64.839-46.314c.068.012.245-.598.394-1.356l1.01-5.195c.148-.758.183-1.398.08-1.415-.104-.018-.31.583-.458 1.34l-1.01 5.199c-.148.758-.083 1.412-.015 1.427m4.913 1.086c.068.018.275-.582.465-1.332l1.281-5.13c.186-.752.254-1.385.154-1.412-.1-.027-.341.568-.527 1.317l-1.281 5.133c-.186.75-.157 1.406-.089 1.424m3.238.864c.068.02.295-.571.51-1.314l1.455-5.077c.213-.744.306-1.38.197-1.407-.108-.028-.357.557-.57 1.297l-1.457 5.077c-.213.743-.207 1.403-.14 1.424m1.612.48c.068.02.308-.569.536-1.309l1.542-5.05c.225-.74.328-1.371.225-1.4-.103-.03-.367.547-.591 1.287l-1.55 5.05c-.224.74-.23 1.397-.162 1.418m-3.223-.92c.07.021.29-.574.493-1.32l2.69-10.049c.197-.746.279-1.38.175-1.406-.105-.026-.355.56-.557 1.306l-2.69 10.049c-.198.746-.181 1.403-.11 1.424m4.82 1.427c.068.02.316-.562.556-1.296l1.634-5.025c.24-.737.352-1.365.249-1.397-.103-.033-.38.542-.616 1.276l-1.634 5.024c-.24.737-.254 1.395-.19 1.418m-28.01-4.682c.072 0 .14-.63.155-1.403l.091-5.31c.015-.773-.062-1.407-.168-1.407-.107 0-.204.628-.219 1.4l-.093 5.312c-.014.772.164 1.408.235 1.408m29.6 5.215c.065.024.326-.554.577-1.28l1.723-4.998c.251-.732.377-1.356.275-1.392-.101-.035-.387.536-.64 1.267l-1.718 4.995c-.253.731-.282 1.388-.217 1.412m-27.925-5.174c.07 0 .151-.628.178-1.401l.186-5.305c.027-.773-.038-1.41-.145-1.412-.106-.003-.216.624-.243 1.398l-.186 5.304c-.027.776.139 1.413.21 1.416m-49.087 2.363c-.098.048.104.654.445 1.347l2.318 4.752c.337.695.666 1.237.73 1.208.066-.03-.046-.684-.387-1.38l-2.316-4.75c-.34-.696-.695-1.226-.788-1.183m8.333-3.617c-.098.038.047.66.322 1.379l1.895 4.935c.279.722.56 1.29.625 1.264.065-.027.014-.68-.264-1.4l-1.894-4.935c-.279-.723-.586-1.28-.684-1.243m49.106 1.912c.071.009.205-.613.296-1.38l.645-5.26c.099-.767.086-1.403-.02-1.418-.107-.015-.267.607-.362 1.373l-.648 5.261c-.099.767.015 1.415.085 1.424m-1.66-.19c.07.009.196-.613.274-1.38l.554-5.271c.08-.77.06-1.406-.044-1.418-.104-.012-.26.61-.341 1.38l-.553 5.265c-.08.77.038 1.419.11 1.428m-3.34-.292c.07 0 .17-.622.224-1.394l.374-5.294c.053-.769.011-1.405-.099-1.414-.11-.01-.237.618-.296 1.388l-.372 5.296c-.054.77.089 1.415.16 1.418m6.674.699c.071.009.217-.607.327-1.38l.734-5.248c.109-.764.112-1.404.005-1.419-.106-.014-.277.601-.385 1.366l-.74 5.248c-.106.767-.009 1.419.06 1.428m-4.992-.563c.071.006.187-.619.255-1.388l.906-10.382c.068-.77.035-1.406-.074-1.418-.11-.012-.25.613-.317 1.385l-.912 10.382c-.065.77.071 1.415.142 1.421m46.714 17.038c.06.04.47-.445.915-1.078l5.977-8.533c.441-.63.731-1.202.642-1.264-.088-.062-.524.406-.968 1.04l-5.976 8.534c-.445.634-.649 1.261-.591 1.303m10.402 8.443c.055.047.528-.377 1.055-.942l3.62-3.88c.527-.566.895-1.085.817-1.161-.078-.077-.57.33-1.1.896l-3.621 3.885c-.527.565-.82 1.155-.77 1.202m-11.782-9.402c.06.038.458-.453.894-1.093l2.963-4.393c.433-.64.714-1.214.625-1.27-.089-.056-.515.414-.947 1.057l-2.957 4.39c-.433.643-.634 1.27-.575 1.309m8.019 6.068c.056.047.506-.4 1.004-.992l6.7-7.987c.492-.592.834-1.134.751-1.205-.083-.071-.557.358-1.054.95l-6.7 7.988c-.492.59-.757 1.199-.701 1.246m-28.871-16.727c.068.023.34-.55.604-1.276l3.556-9.772c.266-.726.394-1.35.295-1.386-.098-.035-.402.527-.666 1.253l-3.558 9.772c-.264.725-.296 1.385-.231 1.409m26.268 14.609c.056.041.493-.421.968-1.03l3.262-4.178c.477-.607.796-1.16.714-1.226-.083-.065-.542.38-1.018.985l-3.266 4.18c-.474.61-.716 1.223-.66 1.265m1.307 1.05c.056.045.498-.41.986-1.012l3.338-4.123c.486-.601.815-1.146.735-1.21-.08-.066-.547.369-1.036.97l-3.34 4.124c-.485.6-.74 1.208-.684 1.252m18.23 19.567c.042.06.592-.254 1.226-.698l8.535-5.978c.634-.44 1.102-.875 1.039-.965-.063-.09-.634.197-1.267.642l-8.532 5.975c-.634.444-1.042.965-1 1.024m-.977-1.367c.042.056.587-.266 1.214-.722l4.29-3.118c.624-.456 1.084-.896 1.022-.985-.063-.088-.625.217-1.25.67l-4.29 3.12c-.624.453-1.027.977-.985 1.033m-4.127-5.278c.048.056.569-.305 1.16-.803l7.988-6.7c.591-.492 1.019-.97.95-1.053-.067-.082-.612.255-1.204.75l-7.987 6.699c-.591.492-.954 1.05-.907 1.107m-6.854-7.36c.05.05.53-.364 1.066-.92l3.689-3.822c.539-.554.914-1.07.837-1.143-.077-.074-.577.319-1.113.876l-3.689 3.82c-.536.556-.84 1.138-.788 1.19M187.564 46.308c-.093.056.16.643.56 1.303l2.726 4.538c.394.663.772 1.175.831 1.14.06-.036-.103-.675-.5-1.335l-2.73-4.542c-.393-.66-.795-1.157-.886-1.104m94.32 2.247c.065.03.388-.518.714-1.216l4.402-9.433c.325-.698.512-1.311.411-1.355-.102-.045-.443.492-.772 1.182l-4.4 9.431c-.326.702-.417 1.357-.352 1.387m-1.53-.696c.066.027.376-.527.69-1.234l2.148-4.828c.315-.704.493-1.317.394-1.363-.098-.045-.435.498-.748 1.205l-2.153 4.828c-.314.705-.4 1.36-.335 1.386m4.544 2.175c.065.033.403-.506.751-1.196l2.401-4.71c.353-.69.56-1.29.465-1.338-.094-.047-.459.476-.81 1.164l-2.398 4.712c-.353.69-.471 1.336-.41 1.368m-7.625-3.481c.066.026.356-.536.646-1.253l1.98-4.902c.287-.716.445-1.335.347-1.38-.099-.044-.417.516-.705 1.232l-1.98 4.9c-.296.716-.353 1.373-.288 1.4m1.552.642c.065.03.367-.53.666-1.243l2.069-4.861c.301-.714.467-1.33.37-1.37-.098-.042-.426.506-.729 1.219l-2.06 4.858c-.302.713-.38 1.368-.314 1.397m10.49 5.25c.062.036.43-.478.817-1.148l5.205-9.017c.384-.67.625-1.261.53-1.315-.094-.055-.493.45-.874 1.119l-5.204 9.013c-.385.671-.536 1.314-.474 1.352m4.28 2.633c.06.04.453-.458.874-1.107l2.886-4.447c.42-.648.69-1.226.604-1.28-.086-.056-.506.423-.93 1.071l-2.883 4.444c-.424.648-.61 1.28-.55 1.32m-1.413-.904c.06.039.444-.467.853-1.122l2.81-4.493c.41-.658.671-1.238.58-1.294-.092-.056-.5.435-.91 1.09l-2.81 4.493c-.407.654-.582 1.288-.523 1.326m-4.33-2.56c.062.036.417-.492.793-1.166l2.567-4.63c.373-.675.604-1.27.512-1.323-.091-.054-.474.462-.85 1.136l-2.562 4.631c-.372.676-.518 1.318-.456 1.354m-31.544-10.885c.07.012.227-.604.346-1.365l.829-5.231c.118-.764.133-1.4.03-1.418-.104-.017-.29.591-.412 1.359l-.829 5.222c-.121.763-.035 1.417.036 1.43m-117.359 75.007c-.02.098.584.311 1.341.456l5.2 1.013c.76.147 1.39.21 1.402.142.012-.068-.571-.374-1.329-.522l-5.196-1.012c-.76-.145-1.397-.18-1.418-.077m.362-1.78c-.02.098.58.319 1.336.481l5.174 1.099c.755.16 1.385.237 1.4.166.015-.07-.565-.385-1.32-.545l-5.174-1.098c-.759-.16-1.395-.207-1.416-.099m-.993 5.357c-.018.107.59.296 1.36.412l5.227.825c.764.123 1.397.164 1.409.099.012-.065-.582-.353-1.347-.474l-5.23-.83c-.765-.12-1.401-.133-1.42-.03m-.268 1.796c-.015.106.598.279 1.361.388l5.253.737c.763.107 1.4.136 1.408.068.01-.068-.59-.343-1.355-.45l-5.248-.737c-.765-.11-1.404-.11-1.42-.006m-.236 1.8c-.012.106.604.269 1.37.364l5.264.645c.767.098 1.4.112 1.41.041.009-.07-.598-.33-1.369-.425l-5.257-.646c-.766-.098-1.406-.086-1.418.021m1.893-10.739c-.024.105.571.332 1.327.504l5.15 1.19c.753.174 1.38.26 1.398.189.018-.072-.56-.394-1.311-.565l-5.151-1.19c-.752-.172-1.39-.231-1.413-.128m3.006-10.48c-.033.099.536.389 1.267.64l4.994 1.72c.731.251 1.347.403 1.37.338.024-.065-.51-.45-1.243-.703l-4.997-1.719c-.731-.252-1.356-.376-1.391-.276m-.576 1.725c-.033.099.541.379 1.275.62l5.025 1.633c.734.237 1.356.379 1.38.311.023-.068-.522-.441-1.256-.68l-5.024-1.635c-.737-.237-1.365-.35-1.398-.249m-.55 1.735c-.029.099.549.37 1.288.592l5.057 1.544c.737.226 1.358.356 1.379.288.02-.068-.53-.432-1.27-.657l-5.053-1.545c-.74-.225-1.37-.325-1.4-.225m-1.458 5.259c-.027.103.568.34 1.317.527l5.134 1.28c.749.187 1.38.284 1.391.216.012-.068-.55-.402-1.303-.59l-5.13-1.282c-.75-.189-1.38-.257-1.41-.153m.942-3.51c-.03.098.553.357 1.296.57l5.078 1.457c.743.213 1.367.33 1.388.266.02-.065-.536-.423-1.28-.637l-5.08-1.456c-.744-.213-1.375-.305-1.404-.197m2.886-8.618c-.038.098.521.404 1.24.683l4.939 1.895c.722.275 1.332.45 1.355.381.024-.069-.5-.467-1.22-.743l-4.932-1.894c-.722-.275-1.343-.421-1.379-.322m-6.353 26.44c-.011.106.607.257 1.38.337l5.27.553c.77.083 1.403.092 1.412.021.008-.07-.598-.322-1.368-.402l-5.273-.554c-.766-.08-1.406-.062-1.418.045m-.318 3.621c-.009.108.619.238 1.388.291l5.294.37c.772.057 1.406.042 1.409-.029.003-.07-.613-.302-1.38-.356l-5.293-.37c-.77-.053-1.409-.012-1.415.098m42.686-77.018c-.086.062.216.625.669 1.25l3.12 4.292c.453.624.87 1.104.93 1.063.06-.042-.167-.666-.619-1.29l-3.118-4.29c-.452-.625-.897-1.084-.985-1.025m-42.924 82.464c0 .106.63.205 1.4.22l5.311.091c.773.012 1.406-.035 1.406-.106s-.628-.267-1.4-.282l-5.311-.092c-.77-.015-1.406.062-1.406.169m.047-1.817c0 .106.625.216 1.397.242l5.308.184c.773.026 1.406-.01 1.41-.08.002-.071-.622-.278-1.395-.305l-5.311-.187c-.772-.026-1.406.039-1.409.146m.079-1.817c-.006.107.623.225 1.395.266l5.296.28c.77.04 1.406.014 1.41-.057.002-.071-.616-.296-1.39-.33l-5.298-.277c-.773-.041-1.407.012-1.413.118m25.412-62.894c-.071.08.348.56.932 1.066l4.003 3.479c.583.509 1.098.879 1.148.828.05-.05-.308-.61-.886-1.116l-4.005-3.48c-.583-.507-1.116-.857-1.183-.777m1.196-1.363c-.071.081.34.566.914 1.084l3.947 3.553c.574.515 1.083.896 1.127.843.043-.053-.296-.616-.873-1.133l-3.941-3.547c-.574-.518-1.102-.877-1.172-.797m-4.677 5.568c-.065.082.379.542.985 1.017l4.176 3.266c.61.477 1.143.82 1.183.761.039-.06-.34-.591-.95-1.069l-4.178-3.262c-.61-.477-1.16-.796-1.225-.713m1.14-1.423c-.064.083.371.548.972 1.034l4.124 3.341c.601.486 1.128.838 1.173.789.044-.05-.33-.598-.93-1.084l-4.124-3.34c-.601-.486-1.146-.817-1.214-.734m4.773-5.494c-.07.077.332.575.898 1.102l3.883 3.62c.566.528 1.066.915 1.114.865.047-.05-.284-.622-.85-1.15l-3.887-3.624c-.566-.526-1.09-.893-1.16-.817m7.845-7.57c-.08.07.27.603.776 1.181l3.48 4.005c.507.583.966 1.022 1.02.975.052-.048-.222-.649-.729-1.232l-3.479-4.002c-.509-.583-.985-1.004-1.068-.933m-14.856 15.934c-.065.086.388.535 1.004 1l4.237 3.188c.618.468 1.157.803 1.202.747.044-.056-.35-.591-.969-1.051l-4.236-3.191c-.616-.468-1.172-.78-1.238-.69m20.51-20.507c-.085.065.225.621.69 1.237l3.191 4.237c.465.618.887 1.083.948 1.045.061-.039-.175-.663-.642-1.28l-3.19-4.237c-.466-.619-.917-1.072-1-1.007M166.28 63.239c-.074.077.324.578.877 1.116l3.819 3.686c.557.536 1.051.936 1.101.887.05-.05-.274-.625-.831-1.16l-3.823-3.69c-.553-.538-1.068-.915-1.143-.838m5.233-5.053c-.08.07.28.598.796 1.172l3.553 3.941c.515.575.985 1.007 1.035.96.05-.047-.233-.642-.752-1.217l-3.546-3.947c-.515-.574-1.003-.985-1.084-.914m-17.665 20.686c-.06.088.425.506 1.07.927l4.445 2.886c.648.42 1.211.717 1.25.658.038-.06-.389-.56-1.037-.986l-4.443-2.886c-.649-.421-1.226-.69-1.281-.604m-5.457 9.446c-.048.099.477.46 1.163.812l4.714 2.4c.69.35 1.28.592 1.308.521.027-.07-.446-.514-1.137-.867l-4.71-2.4c-.69-.35-1.29-.56-1.338-.466m-.811 1.629c-.047.098.483.449 1.182.788l4.752 2.318c.695.337 1.288.563 1.32.493.033-.07-.452-.507-1.149-.845l-4.753-2.32c-.69-.338-1.3-.536-1.348-.441m1.647-3.234c-.05.099.468.468 1.149.83l4.674 2.486c.681.361 1.268.607 1.3.545.033-.062-.438-.524-1.119-.886l-4.672-2.484c-.684-.365-1.28-.583-1.332-.493m-3.91 8.205c-.04.099.507.424 1.217.726l4.862 2.07c.71.3 1.317.492 1.346.429.03-.063-.478-.483-1.19-.788l-4.864-2.07c-.71-.302-1.329-.467-1.37-.37m.722-1.665c-.044.099.493.433 1.205.749l4.827 2.15c.705.313 1.306.518 1.332.453.027-.065-.473-.493-1.182-.806l-4.827-2.149c-.705-.314-1.318-.492-1.362-.394m-1.415 3.344c-.038.099.515.415 1.232.705l4.9 1.98c.715.29 1.325.475 1.352.409.027-.066-.493-.476-1.208-.767l-4.902-1.98c-.717-.287-1.335-.445-1.374-.347m8.245-16.18c-.057.09.434.498 1.088.91l4.495 2.809c.657.409 1.222.696 1.26.633.04-.062-.402-.553-1.056-.961l-4.494-2.81c-.654-.409-1.237-.669-1.293-.58m1.98-3.05c-.06.09.418.513 1.057.945l4.393 2.964c.642.431 1.2.737 1.237.678.039-.06-.379-.566-1.018-.998l-4.393-2.956c-.64-.434-1.214-.716-1.273-.628m-2.933 4.595c-.056.092.444.493 1.104.887l4.541 2.73c.663.393 1.235.671 1.267.61.033-.063-.408-.549-1.07-.945l-4.54-2.719c-.66-.4-1.249-.651-1.302-.56m-1.82 3.146c-.05.092.46.477 1.137.85l4.63 2.567c.675.372 1.256.63 1.291.568.036-.062-.426-.53-1.104-.906l-4.63-2.562c-.679-.376-1.274-.606-1.325-.512m136.281-34.297c.062.032.411-.493.773-1.183l2.484-4.671c.364-.684.583-1.281.492-1.332-.09-.052-.468.468-.828 1.148l-2.485 4.674c-.364.684-.493 1.33-.432 1.363m35.535 30.13c-.64.432-1.13.832-1.091.887.038.056.669-.139 1.308-.571l4.393-2.964c.64-.431 1.116-.855 1.057-.943-.059-.09-.633.197-1.273.627l-4.394 2.965zm-4.01-5.493c-.61.476-1.073.911-1.031.968.041.056.657-.187 1.267-.663l4.177-3.263c.61-.476 1.054-.935.985-1.018-.069-.083-.615.237-1.225.713l-4.174 3.263zm6.509-2.533c-.065-.086-.622.225-1.238.69l-4.236 3.19c-.616.466-1.084.888-1.043.949.042.06.66-.176 1.281-.643l4.237-3.192c.615-.464 1.069-.914 1.007-.997m-4.586-5.648c-.068-.08-.604.269-1.187.775l-4.005 3.482c-.583.506-1.021.965-.974 1.018.047.053.648-.222 1.231-.731l4-3.476c.584-.509 1.003-.985.935-1.068m-6.32 2.984c-.574.517-1.006.985-.958 1.036.047.05.642-.231 1.216-.746l3.941-3.553c.575-.518.985-1.006.918-1.084-.067-.078-.6.278-1.175.796l-3.942 3.551zm3.321 3.874c-.6.486-1.057.93-1.01.985.048.055.652-.197 1.253-.684l4.127-3.342c.6-.485 1.035-.95.97-1.033-.065-.083-.615.248-1.216.734l-4.124 3.34zm9.54 14.061c-.675.376-1.199.731-1.166.794.032.063.678-.084 1.352-.456l4.631-2.567c.678-.376 1.187-.758 1.137-.85-.05-.091-.648.136-1.323.513l-4.63 2.566zm.815 1.49c-.68.365-1.214.712-1.182.774.031.062.678-.068 1.361-.432l4.672-2.484c.681-.362 1.2-.734 1.152-.829-.047-.094-.651.124-1.332.493l-4.671 2.479zm-4.335-7.312c-.648.42-1.146.814-1.107.873.038.06.672-.13 1.32-.55l4.44-2.887c.649-.42 1.131-.838 1.075-.926-.056-.089-.636.183-1.28.604l-4.448 2.886zm.917 1.43c-.655.41-1.16.795-1.122.857.039.062.672-.118 1.326-.527l4.495-2.81c.657-.408 1.146-.817 1.09-.905-.057-.089-.637.168-1.294.58l-4.495 2.806zm6.737-1.837c-.056-.091-.642.16-1.305.56l-4.532 2.723c-.663.4-1.182.776-1.14.835.042.059.672-.104 1.335-.5l4.538-2.73c.664-.394 1.157-.796 1.104-.887m-43.63-39.979c-.098-.047-.45.483-.787 1.183l-2.319 4.751c-.337.696-.562 1.288-.5 1.32.062.033.51-.456.85-1.148l2.314-4.755c.341-.69.54-1.3.445-1.347m7.987 4.332c-.093-.056-.493.442-.887 1.105l-2.729 4.538c-.394.663-.675 1.234-.613 1.27.062.035.548-.412.944-1.072l2.727-4.538c.394-.66.652-1.25.56-1.303m33.115 44.867c-.69.353-1.226.69-1.196.752.03.062.68-.053 1.369-.405l4.712-2.401c.69-.353 1.21-.716 1.163-.812-.047-.095-.65.116-1.338.465l-4.71 2.401zm-29.64-34.536c-.452.625-.779 1.172-.722 1.214.056.042.58-.362 1.033-.985l3.114-4.294c.457-.624.758-1.187.672-1.249-.085-.062-.527.394-.985 1.02l-3.112 4.294zm-19.8-18.292c-.098-.039-.405.52-.684 1.243l-1.894 4.936c-.278.722-.45 1.332-.385 1.356.065.023.467-.493.746-1.22l1.896-4.935c.279-.72.423-1.342.323-1.38m26.462 23.57c-.507.583-.88 1.099-.827 1.146.053.047.61-.305 1.116-.887l3.482-4.006c.51-.583.855-1.119.776-1.182-.08-.063-.56.35-1.066.933l-3.481 3.996zm5.91-3.731c-.08-.07-.565.34-1.084.914l-3.552 3.947c-.519.574-.897 1.084-.844 1.128.054.045.616-.295 1.133-.87l3.547-3.942c.515-.574.874-1.104.797-1.175m.27 9.576c-.557.536-.972 1.019-.922 1.07.05.05.633-.258 1.19-.789l3.819-3.686c.554-.539.95-1.039.877-1.116-.074-.077-.591.302-1.143.838l-3.822 3.683zm1.172 1.233c-.566.527-.986 1-.938 1.05.047.05.636-.242 1.202-.77l3.886-3.62c.563-.527.966-1.02.895-1.099-.071-.077-.591.296-1.16.818l-3.885 3.62zm-8.452-16.592c-.085-.065-.536.388-1 1.007l-3.192 4.236c-.465.619-.8 1.158-.74 1.202.06.044.584-.35 1.048-.968l3.195-4.237c.464-.616.775-1.172.69-1.237m33.801 69.44c-.763.106-1.38.254-1.373.322.006.068.663.17 1.426.062l5.249-.74c.764-.106 1.379-.28 1.365-.384-.014-.103-.654-.104-1.419 0l-5.248.74zm-2.864-31.91c-.047-.099-.654.103-1.347.44l-4.754 2.321c-.696.338-1.238.666-1.205.728.032.062.684-.044 1.38-.381l4.75-2.318c.696-.341 1.226-.696 1.183-.788m3.085 33.595c-.767.098-1.388.227-1.38.295.01.068.658.18 1.424.086l5.261-.648c.767-.093 1.385-.256 1.37-.362-.014-.106-.65-.115-1.417-.02l-5.258.649zm-.479-3.369c-.765.122-1.38.276-1.366.347.014.07.665.157 1.428.035l5.23-.828c.765-.122 1.375-.306 1.357-.412-.018-.106-.654-.092-1.418.03l-5.231.828zm6.019-4.438c-.021-.099-.657-.068-1.415.077l-5.196 1.01c-.76.147-1.37.326-1.356.393.015.068.67.133 1.427-.014l5.199-1.01c.757-.148 1.361-.356 1.34-.46m-6.562 11.576c.006.071.643.077 1.412.009l10.382-.91c.774-.067 1.395-.21 1.386-.319-.008-.109-.648-.141-1.418-.074l-10.385.909c-.77.068-1.38.314-1.38.385m-.388-12.15c-.755.16-1.362.35-1.347.418.015.068.672.118 1.427-.041l5.175-1.099c.755-.16 1.356-.38 1.335-.483-.02-.103-.657-.056-1.412.099l-5.178 1.106zm1.905 13.463c-.772.054-1.397.157-1.394.229.003.072.649.213 1.421.16l5.294-.374c.772-.053 1.397-.183 1.388-.29-.01-.106-.646-.148-1.415-.098l-5.294.373zm6.899 3.359c0-.106-.64-.172-1.409-.145l-5.311.186c-.773.027-1.4.107-1.397.178.003.07.64.236 1.412.21l5.308-.187c.772-.026 1.4-.136 1.397-.242m-6.791-1.66c-.773.042-1.4.13-1.397.198.003.067.645.225 1.418.183l5.296-.278c.772-.038 1.397-.16 1.394-.267-.003-.107-.642-.16-1.415-.118l-5.296.283zm6.29-5.595c-.012-.107-.649-.127-1.418-.044l-5.282.55c-.77.083-1.391.204-1.38.275.012.071.658.197 1.427.112l5.27-.553c.767-.083 1.388-.234 1.38-.34m-13.298-25.809c-.716.29-1.28.58-1.252.645.028.065.68 0 1.397-.286l4.902-1.982c.717-.29 1.27-.606 1.229-.704-.042-.098-.657.056-1.374.347l-4.902 1.98zm6.946-.636c-.039-.099-.66.047-1.38.323l-4.934 1.894c-.723.275-1.291.557-1.267.625.023.068.683.015 1.406-.264l4.932-1.895c.723-.275 1.281-.583 1.244-.683m-7.596-.936c-.71.301-1.27.604-1.24.666.029.062.683-.01 1.394-.31l4.861-2.07c.71-.301 1.259-.63 1.217-.728-.041-.097-.658.068-1.368.37l-4.864 2.072zm5.28 16.152c-.752.175-1.356.373-1.341.44.014.069.672.111 1.424-.064l5.154-1.19c.752-.172 1.35-.395 1.323-.503-.026-.108-.657-.048-1.412.127l-5.148 1.19zm-5.962-17.711c-.707.313-1.261.625-1.232.69.03.065.681-.021 1.387-.335l4.827-2.152c.709-.314 1.25-.651 1.205-.749-.044-.097-.657.083-1.361.394l-4.826 2.152zm3.132 7.906c-.731.252-1.308.512-1.28.58.027.07.68.04 1.411-.213l4.995-1.72c.731-.252 1.3-.538 1.267-.643-.032-.104-.663.024-1.392.276l-5.001 1.72zm2.43 8.152c-.75.186-1.351.394-1.333.465.017.071.675.099 1.424-.089l5.133-1.28c.749-.188 1.341-.424 1.317-.527-.023-.104-.66-.033-1.408.153l-5.133 1.278zm-7.439-16.773c.03.065.63-.149 1.33-.474l9.432-4.4c.698-.325 1.234-.671 1.19-.773-.045-.101-.657.09-1.359.415l-9.43 4.4c-.7.325-1.192.767-1.163.832m6.07 11.856c-.74.225-1.326.468-1.308.533.017.065.68.065 1.42-.163l5.055-1.545c.736-.225 1.317-.493 1.28-.592-.036-.098-.66 0-1.4.226l-5.047 1.54zm-.518-1.62c-.734.239-1.317.492-1.297.556.021.064.678.05 1.415-.19l5.025-1.634c.737-.237 1.308-.515 1.276-.616-.033-.1-.66.012-1.398.249l-5.021 1.634zm7.487 1.592c-.03-.098-.66-.012-1.403.197l-5.078 1.461c-.743.213-1.335.445-1.315.51.021.065.681.074 1.424-.14l5.078-1.456c.743-.21 1.326-.468 1.296-.572m-5.518 12.098c.012.07.643.02 1.403-.115l10.255-1.806c.762-.134 1.368-.332 1.35-.439-.018-.106-.657-.086-1.418.047l-10.252 1.81c-.76.132-1.35.432-1.338.503m-1.805-8.184c.018.07.646-.036 1.392-.237l10.05-2.694c.745-.197 1.335-.45 1.305-.554-.03-.104-.663-.027-1.409.172l-10.049 2.694c-.746.197-1.305.548-1.288.619m-2.511-7.994c.024.068.636-.092 1.365-.355l9.769-3.556c.729-.266 1.29-.565 1.255-.669-.035-.103-.663.03-1.388.296l-9.77 3.555c-.725.267-1.255.663-1.231.731m13.85 30.975c0-.107-.637-.18-1.41-.169l-5.308.099c-.772.012-1.403.08-1.403.15 0 .071.634.247 1.406.235l5.314-.098c.773-.012 1.403-.11 1.4-.216m-99.07-94.11c.07 0 .163-.625.197-1.394l.275-5.3c.04-.77-.012-1.406-.119-1.412-.106-.006-.224.622-.267 1.394l-.278 5.296c-.038.773.116 1.413.187 1.416M187.55 55.923c.06-.038-.248-.591-.68-1.237l-2.956-4.39c-.433-.64-.858-1.117-.947-1.058-.089.06.197.634.628 1.273l2.955 4.39c.433.644.942 1.06 1.001 1.022m48.711-16.252c.071 0 .099-.637.057-1.41l-.28-5.299c-.04-.769-.162-1.397-.268-1.39-.107.005-.16.639-.118 1.411l.277 5.297c.039.772.261 1.394.332 1.39m-5.024.387c.07-.009.062-.642-.02-1.413l-.555-5.269c-.08-.767-.23-1.389-.338-1.379-.107.01-.127.648-.044 1.419l.554 5.272c.08.77.332 1.379.403 1.368m1.675-.15c.074-.007.076-.643.009-1.413l-.909-10.382c-.068-.77-.21-1.392-.32-1.38-.11.014-.142.646-.074 1.417l.91 10.385c.067.77.313 1.38.384 1.38m1.675-.138c.07 0 .085-.64.032-1.409l-.373-5.296c-.054-.77-.184-1.394-.29-1.388-.106.006-.149.645-.093 1.414l.37 5.294c.054.772.282 1.388.354 1.385m-6.674.69c.07-.008.038-.641-.068-1.409l-.737-5.248c-.11-.767-.282-1.38-.388-1.365-.107.015-.104.654.005 1.418l.737 5.248c.107.765.38 1.366.45 1.357m1.663-.218c.07-.009.05-.642-.042-1.41l-.648-5.263c-.098-.767-.258-1.379-.362-1.368-.103.01-.115.652-.02 1.419l.645 5.257c.092.767.356 1.379.427 1.365m-3.322.458c.07-.012.026-.645-.092-1.409l-.829-5.228c-.122-.764-.305-1.374-.411-1.356-.107.018-.092.654.03 1.418l.828 5.23c.12.764.403 1.36.474 1.347m13.358-1.15c.071 0 .118-.633.104-1.405l-.099-5.312c-.012-.772-.11-1.403-.217-1.4-.107.003-.18.637-.168 1.41l.098 5.308c.012.772.211 1.4.282 1.4m-1.68.046c.07 0 .106-.637.08-1.41l-.187-5.304c-.028-.773-.137-1.403-.243-1.398-.107.006-.169.637-.142 1.41l.186 5.305c.027.772.234 1.4.305 1.397m-74.39 39.485c.04-.056-.436-.475-1.06-.929l-4.293-3.117c-.625-.453-1.182-.756-1.25-.669-.066.087.395.526 1.022.985l4.293 3.115c.624.456 1.246.675 1.287.618m4.137-5.282c.048-.058-.394-.507-.99-1.004l-7.988-6.7c-.591-.497-1.134-.834-1.205-.752-.07.083.358.557.95 1.054l7.98 6.7c.591.497 1.202.758 1.25.702m-5.106 6.64c.041-.06-.443-.471-1.077-.914l-8.532-5.978c-.633-.441-1.202-.73-1.264-.642-.062.089.402.527 1.036.967l8.538 5.978c.633.444 1.258.648 1.3.59m-4.52 7.06c.035-.063-.48-.43-1.149-.819l-9.018-5.204c-.669-.388-1.26-.624-1.314-.533-.053.092.447.493 1.116.876l9.015 5.202c.67.388 1.314.54 1.35.477m22.768-26.598c.053-.044-.295-.571-.788-1.172l-3.336-4.123c-.486-.601-.953-1.04-1.036-.972-.084.068.249.613.738 1.214l3.336 4.124c.492.601 1.03.973 1.083.93M154.171 94.94c.03-.065-.518-.389-1.217-.715l-9.431-4.396c-.703-.328-1.313-.515-1.36-.414-.047.102.493.444 1.193.77l9.43 4.399c.701.329 1.355.42 1.385.356m27.956-35.075c.057-.042-.287-.575-.764-1.182l-3.265-4.18c-.477-.61-.933-1.055-1.019-.986-.085.069.24.616.714 1.226l3.263 4.174c.476.61 1.014.992 1.07.95m-6.37 5.443c.05-.048-.338-.55-.864-1.116l-3.62-3.885c-.528-.565-1.022-.967-1.102-.896-.08.07.29.59.817 1.16l3.623 3.884c.527.565 1.093.9 1.146.853m3.77-3.335c.056-.047-.305-.568-.802-1.16l-6.7-7.988c-.492-.59-.971-1.017-1.054-.95-.083.069.254.613.752 1.206l6.7 7.987c.497.59 1.047.952 1.104.905m-4.988 4.487c.05-.05-.346-.545-.886-1.1l-3.686-3.817c-.539-.557-1.038-.953-1.115-.88-.077.075.301.592.837 1.147l3.689 3.818c.536.557 1.11.887 1.16.832m-23.588 36.216c.024-.068-.55-.34-1.28-.603l-9.761-3.56c-.728-.262-1.353-.393-1.388-.295-.036.099.524.403 1.252.67l9.772 3.555c.729.263 1.386.296 1.41.23m-4.34 16.182c.012-.072-.6-.24-1.361-.377L135 116.675c-.76-.133-1.397-.156-1.418-.05-.02.107.591.308 1.35.442l10.255 1.808c.76.133 1.415.054 1.426-.017m1.815-8.183c.02-.072-.574-.291-1.323-.493l-10.05-2.692c-.745-.197-1.378-.278-1.408-.171-.03.106.563.353 1.308.554l10.05 2.693c.745.197 1.405.178 1.423.108m37.745-53.8c.059-.04-.255-.59-.697-1.225l-5.976-8.535c-.444-.633-.88-1.101-.968-1.038-.09.063.197.63.642 1.264l5.974 8.535c.445.633.965 1.041 1.025 1m-40.644 70.292c.006-.07-.619-.186-1.388-.254l-10.386-.907c-.77-.068-1.407-.035-1.416.074-.008.11.613.253 1.38.318l10.383.91c.773.067 1.418-.07 1.424-.14m52.13-77.2c.065-.033-.173-.622-.522-1.309l-2.4-4.71c-.35-.69-.714-1.214-.808-1.167-.095.047.112.651.464 1.341l2.398 4.707c.352.69.806 1.17.868 1.137m18.76-7.185c.07-.018-.036-.645-.237-1.391l-2.692-10.05c-.197-.745-.45-1.331-.557-1.305-.106.027-.026.663.172 1.41l2.694 10.05c.197.745.548 1.305.62 1.287m-3.228.92c.068-.022-.062-.641-.288-1.38l-1.545-5.056c-.226-.737-.493-1.317-.591-1.288-.099.03 0 .663.228 1.4l1.542 5.053c.228.738.592 1.292.658 1.271m1.603-.478c.068-.02-.05-.645-.263-1.389l-1.457-5.077c-.213-.742-.47-1.326-.574-1.296-.105.03-.009.66.205 1.403l1.453 5.08c.214.744.568 1.3.636 1.281m-4.798 1.508c.068-.024-.082-.643-.335-1.37l-1.72-4.99c-.251-.73-.542-1.3-.642-1.267-.1.033.024.66.276 1.391l1.72 4.997c.251.732.636 1.268.701 1.244m1.592-.533c.068-.022-.074-.64-.314-1.38l-1.631-5.024c-.24-.737-.518-1.309-.619-1.281-.1.028.012.66.25 1.394l1.636 5.03c.237.735.61 1.28.678 1.256m6.446-1.838c.068-.017-.027-.645-.217-1.394l-1.28-5.134c-.187-.748-.426-1.34-.527-1.314-.1.027-.036.66.151 1.409l1.28 5.13c.19.753.525 1.321.592 1.303m3.273-.75c.068-.015-.006-.649-.166-1.403l-1.101-5.172c-.16-.755-.377-1.356-.48-1.335-.103.022-.056.66.103 1.415l1.099 5.174c.16.76.477 1.336.545 1.32m1.643-.328c.071-.012.006-.646-.142-1.403l-1.013-5.198c-.147-.759-.352-1.363-.456-1.342-.103.02-.068.657.08 1.416l1.01 5.194c.148.757.45 1.343.521 1.329m-3.283.69c.068-.014-.017-.642-.189-1.397l-1.193-5.154c-.171-.756-.4-1.35-.503-1.327-.104.024-.045.66.13 1.412l1.187 5.151c.175.753.5 1.326.568 1.311m-11.25 3.324c.068-.023-.091-.639-.356-1.364l-3.558-9.772c-.263-.727-.566-1.292-.666-1.253-.1.04.032.66.295 1.389l3.558 9.769c.264.725.661 1.255.73 1.231m-13.723 6.256c.062-.036-.197-.616-.568-1.291l-2.562-4.63c-.376-.678-.758-1.188-.85-1.137-.093.05.137.648.512 1.323l2.567 4.63c.376.678.844 1.14.906 1.105m-1.463.818c.062-.038-.204-.615-.591-1.28l-5.204-9.012c-.385-.67-.779-1.173-.874-1.12-.096.054.146.649.53 1.318l5.208 9.015c.384.669.867 1.122.929 1.083m-4.288 2.632c.06-.039-.236-.601-.657-1.25l-2.886-4.44c-.42-.648-.838-1.13-.93-1.072-.091.06.184.634.604 1.281l2.89 4.446c.42.65.92 1.075.98 1.037m7.22-4.257c.062-.033-.183-.62-.545-1.3l-2.484-4.675c-.364-.68-.737-1.199-.831-1.148-.095.05.127.648.492 1.332l2.484 4.671c.365.681.827 1.152.887 1.12m-5.809 3.355c.06-.038-.225-.604-.636-1.26l-2.807-4.491c-.408-.659-.817-1.146-.909-1.09-.091.056.172.64.58 1.294l2.81 4.49c.408.657.903 1.093.962 1.057m10.31-5.6c.064-.03-.148-.628-.475-1.33l-4.396-9.432c-.329-.702-.674-1.235-.775-1.19-.1.044.089.658.414 1.36l4.4 9.428c.325.701.766 1.193.831 1.163m3.06-1.366c.065-.027-.13-.634-.431-1.344l-2.061-4.861c-.302-.714-.63-1.262-.728-1.217-.098.046.068.657.37 1.368l2.07 4.86c.302.714.718 1.223.787 1.194m20.86-6.155c.071-.012.02-.642-.113-1.404l-1.809-10.254c-.133-.761-.33-1.368-.437-1.35-.107.017-.087.656.05 1.418l1.806 10.246c.133.762.431 1.354.502 1.342m-22.402 6.827c.065-.027-.138-.628-.453-1.335l-2.151-4.828c-.315-.708-.65-1.249-.747-1.205-.098.045.08.655.394 1.362l2.149 4.827c.317.708.743 1.211.808 1.183m3.09-1.313c.064-.026-.12-.636-.41-1.352l-1.98-4.896c-.288-.717-.607-1.27-.704-1.228-.098.041.059.657.345 1.373l1.98 4.902c.296.717.703 1.232.768 1.205m115.14 6.359l1.589-1.59c.25-.246.503-.493.77-.722l-.024-.021c-.426.13-.746.216-1.098.307l-2.783.454-.015.014 1.56 1.558zm-1.8 1.805l1.293-1.297-2.209-2.211.424-.424 5.163-.914.695.69-2.956 2.96.67.666-.507.503-.669-.666-1.294 1.3-.61-.607zm8.822.389l-1.817-1.818-1.404 1.039c.147.11.286.232.417.361.365.352.63.794.77 1.281.16.591.057 1.303-.544 1.904-.93.93-2.365.886-3.396-.145-.521-.521-.814-1.108-.895-1.478l.653-.331c.14.483.4.924.754 1.28.607.608 1.521.735 2.16.1.608-.623.637-1.479-.315-2.425a6.75 6.75 0 00-.71-.61l2.592-1.97 2.277 2.276-.542.536zm-171.317 5.786c.508-.129.974-.388 1.352-.752.829-.83.56-1.613.157-2.001-.675-.658-1.56-.343-2.181.278l-.359.362-.486-.486.367-.356c.468-.468.817-1.303.254-1.865-.381-.383-.959-.477-1.55.115a2.488 2.488 0 00-.64 1.267l-.634-.302c.065-.432.364-1.098.876-1.61.94-.935 1.919-.805 2.499-.225.492.492.613 1.199.24 1.998l.015.015c.704-.471 1.619-.507 2.285.16.761.764.835 2.022-.31 3.165-.534.532-1.17.834-1.558.914l-.327-.677zM157.715 52.415l-.015.014-.382 1.276-.613-.366.483-1.599.551-.548 4.757 4.761-.622.621zM162.856 47.156l-1.815 1.818 1.04 1.407c.107-.15.226-.29.357-.42a2.857 2.857 0 011.28-.767c.592-.163 1.307-.06 1.905.542.93.929.887 2.364-.149 3.395-.52.521-1.103.815-1.477.897l-.33-.654c.484-.14.925-.4 1.281-.755.611-.607.732-1.525.099-2.158-.622-.61-1.472-.637-2.422.313-.219.222-.422.46-.607.712l-1.978-2.595 2.277-2.275.539.54zm15.525-5.79a3.02 3.02 0 001.503-.379c1.013-.583.957-1.412.666-1.889-.479-.81-1.417-.737-2.178-.295l-.438.252-.343-.591.44-.254c.574-.33 1.128-1.046.731-1.735-.269-.465-.802-.709-1.53-.29a2.47 2.47 0 00-.945 1.06l-.535-.454c.175-.402.637-.967 1.264-1.329 1.148-.663 2.063-.28 2.472.427.346.6.281 1.317-.285 1.992l.01.017c.801-.272 1.693-.068 2.167.746.536.936.28 2.168-1.116 2.979-.655.376-1.35.5-1.744.48l-.14-.737zm4.604-2.658a3.009 3.009 0 001.501-.376c1.015-.586.956-1.412.666-1.892-.48-.81-1.415-.737-2.18-.295l-.437.255-.343-.591.441-.255c.574-.331 1.131-1.045.731-1.734-.27-.468-.805-.712-1.531-.291-.41.254-.738.621-.944 1.057l-.536-.453c.175-.403.637-.965 1.264-1.33 1.149-.662 2.063-.28 2.472.43.347.601.285 1.318-.284 1.99l.01.02c.801-.27 1.695-.07 2.167.746.539.936.282 2.168-1.116 2.975-.655.38-1.35.504-1.743.483l-.138-.739zm3.975-4.939c.876 1.516 1.841 2.108 2.555 1.694.808-.465.651-1.629-.207-3.117-.83-1.437-1.741-2.168-2.562-1.694-.69.4-.705 1.53.21 3.117m3.114-1.915c1.146 1.98 1.043 3.5-.248 4.245-1.14.658-2.529.036-3.659-1.882-1.128-1.955-.906-3.518.275-4.201 1.231-.708 2.561-.018 3.632 1.838m-50.39 53.55a3.07 3.07 0 001.113-1.084c.59-1.012.12-1.699-.368-1.97-.822-.463-1.598.07-2.036.831l-.255.441-.591-.342.255-.439c.33-.571.456-1.472-.238-1.872-.464-.27-1.047-.214-1.468.513-.23.424-.329.907-.286 1.388l-.69-.124c-.05-.436.072-1.158.432-1.786.663-1.145 1.644-1.27 2.354-.865.601.35.904 1.001.749 1.872l.018.012c.56-.636 1.433-.905 2.25-.434.93.538 1.329 1.735.521 3.135-.38.654-.915 1.11-1.27 1.287l-.49-.563zm.974-6.266c1.516.876 2.647.905 3.054.189.468-.808-.251-1.735-1.74-2.596-1.433-.829-2.588-1.004-3.054-.19-.4.69.154 1.682 1.74 2.597m1.738-3.218c1.981 1.146 2.653 2.513 1.906 3.804-.657 1.137-2.167 1.293-4.108.197-1.957-1.127-2.548-2.592-1.858-3.776.707-1.229 2.205-1.294 4.06-.225m.919-1.387c1.515.874 2.646.906 3.061.19.465-.809-.255-1.741-1.74-2.596-1.436-.83-2.591-1.004-3.062-.187-.4.69.154 1.675 1.741 2.593m1.738-3.218c1.98 1.143 2.652 2.513 1.906 3.804-.657 1.137-2.167 1.292-4.109.197-1.953-1.122-2.544-2.587-1.854-3.771.707-1.229 2.206-1.298 4.062-.226m59.86-43c.505.14 1.039.149 1.548.023 1.132-.303 1.288-1.116 1.134-1.655-.255-.906-1.182-1.078-2.028-.85l-.493.133-.174-.66.493-.133c.642-.172 1.361-.72 1.157-1.49-.142-.52-.591-.886-1.403-.674-.461.139-.872.41-1.182.778l-.4-.577c.272-.343.864-.77 1.565-.956 1.281-.344 2.064.26 2.277 1.051.178.672-.068 1.35-.788 1.853l.006.021c.84-.056 1.652.37 1.895 1.281.28 1.038-.287 2.167-1.848 2.584-.728.197-1.43.136-1.809.012l.05-.742zm7.253-3.5l-.58-2.167c-.092-.34-.172-.684-.243-1.03l-.03.008c-.098.433-.184.758-.284 1.105l-.997 2.635.006.021 2.128-.571zm.66 2.464l-.474-1.774-3.023.81-.153-.581 1.788-4.926.95-.255L213 24.596l.91-.246.186.69-.908.245.47 1.773-.83.225zm4.749-7.45l-2.481.662.197 1.738c.17-.072.343-.132.521-.18a2.767 2.767 0 011.493-.024c.59.151 1.157.601 1.38 1.421.34 1.267-.416 2.49-1.825 2.87-.71.188-1.364.147-1.729.032l.042-.73c.489.12 1 .116 1.486-.011.832-.225 1.398-.953 1.164-1.824-.234-.837-.957-1.288-2.256-.94a6.91 6.91 0 00-.887.313l-.417-3.233 3.112-.834.2.74zm-86.477 94.04l-.539-.146-.484-.87c-1.137-2.084-1.774-3.054-2.76-3.33-.66-.179-1.355-.021-1.616.947-.156.59.012 1.16.181 1.53l-.695.113a2.956 2.956 0 01-.167-2.02c.377-1.397 1.496-1.73 2.422-1.478 1.202.32 1.939 1.45 2.893 3.174l.34.651h.021l.782-2.918.73.197-1.108 4.15zm.601-9.005c-.788-.214-1.317.233-1.803 1.047.015.82.406 1.361 1.028 1.53.651.205 1.364-.138 1.589-.968.21-.788-.154-1.435-.814-1.61m-3.898 1.548c.65.175 1.13-.224 1.533-.917-.042-.613-.325-1.152-.915-1.31-.52-.135-1.142.027-1.356.819-.197.73.178 1.258.738 1.408m1.576.207c-.533.628-1.182.788-1.735.64-1.032-.278-1.497-1.335-1.193-2.475.338-1.261 1.296-1.675 2.105-1.462.551.148 1.07.574 1.235 1.478l.03.008c.538-.725 1.243-1.07 2.033-.86 1.128.304 1.628 1.477 1.296 2.717-.363 1.362-1.394 1.963-2.343 1.71-.821-.22-1.271-.863-1.395-1.758l-.033.002zm-.25-8.44l-.663 2.482 1.602.698c.02-.183.055-.364.103-.542.122-.492.372-.944.725-1.308.427-.433 1.099-.699 1.916-.48 1.272.341 1.954 1.602 1.576 3.014-.19.71-.55 1.258-.835 1.513l-.61-.4c.35-.363.6-.807.732-1.293.221-.829-.128-1.685-.998-1.919-.844-.216-1.593.184-1.942 1.486a7.438 7.438 0 00-.169.918l-3.008-1.255.832-3.108.739.195zm208.048-21.488c.394.676 1.22.806 2.056.326.835-.48 1.06-1.249.639-1.97a1.495 1.495 0 00-1.368-.716.793.793 0 00-.403.112c-.95.571-1.402 1.42-.93 2.243l.006.005zm5.546-1.394a3.518 3.518 0 00-.376-.571c-.921-1.116-2.206-1.25-3.242-.829l.015.027a1.996 1.996 0 011.483 1.019c.598 1.032.269 2.187-.867 2.844-1.066.616-2.472.462-3.171-.752-.72-1.246-.222-2.62 1.294-3.496 1.148-.66 2.29-.773 3.194-.53a3.66 3.66 0 011.94 1.368c.138.174.264.358.375.55l-.645.37zm-1.238 3.362c-1.52.874-2.109 1.838-1.697 2.555.468.808 1.63.649 3.12-.207 1.436-.832 2.168-1.744 1.694-2.562-.4-.69-1.531-.707-3.117.21m1.915 3.115c-1.984 1.142-3.5 1.039-4.245-.252-.657-1.14-.036-2.528 1.882-3.656 1.954-1.131 3.518-.906 4.201.276.708 1.228.018 2.561-1.838 3.632M293.307 35.18c.259.458.632.841 1.083 1.113 1.013.583 1.7.119 1.97-.37.459-.824-.071-1.596-.835-2.037l-.44-.252.343-.59.438.253c.575.33 1.478.454 1.872-.236.269-.465.21-1.051-.515-1.468a2.463 2.463 0 00-1.388-.288l.124-.69c.435-.05 1.157.069 1.785.43 1.146.666 1.273 1.646.864 2.354-.346.6-1 .905-1.872.752l-.012.017c.637.557.91 1.433.439 2.248-.542.932-1.738 1.332-3.135.52-.657-.376-1.11-.914-1.29-1.267l.569-.489zm6.267.973c-.872 1.516-.905 2.647-.189 3.06.808.466 1.738-.254 2.596-1.74.833-1.436 1.004-2.587.19-3.061-.69-.4-1.674.154-2.597 1.74m3.22 1.739c-1.144 1.983-2.512 2.652-3.806 1.906-1.137-.657-1.293-2.168-.197-4.11 1.131-1.953 2.593-2.542 3.778-1.859 1.228.709 1.296 2.21.225 4.063M355.628 103.975l-.581.155-6.679-1.244-.243-.912 6.504 1.282.024-.006-.856-3.179.732-.198zM356.171 108.966l-.666-2.48-1.735.196c.073.169.133.342.182.519.14.487.149 1.002.026 1.494-.154.591-.6 1.158-1.424 1.38-1.27.336-2.49-.418-2.868-1.827-.19-.711-.15-1.366-.034-1.73l.73.042c-.12.489-.116 1 .011 1.486.222.83.956 1.398 1.824 1.163.837-.236 1.287-.955.938-2.259a6.594 6.594 0 00-.31-.878l3.232-.418.834 3.111-.74.201zM267.188 20.485l-.011.717 1.296-.308.018.002-1.521 5.681.849.232 1.744-6.502-.752-.204z"/><path d="M275.616 22.722l-2.48-.666-.696 1.605c.182.02.364.052.541.099.493.12.945.371 1.306.728.432.423.701 1.098.483 1.918-.341 1.27-1.605 1.95-3.017 1.576-.707-.19-1.255-.55-1.513-.835l.4-.613c.363.349.807.601 1.293.734.83.223 1.685-.127 1.918-.997.214-.842-.183-1.593-1.482-1.942a6.735 6.735 0 00-.922-.17l1.256-3.01 3.112.835-.199.738zM314.035 68.7l.068.078 1.554-4.314 1.787-4.97-4.97 1.79-4.307 1.552.076.068a100.982 100.982 0 015.788 5.796m-148.756-8.88l1.792 4.97 1.388 3.855.07-.077a98.186 98.186 0 015.492-5.503l.074-.071-3.842-1.386-4.974-1.788z"/><path d="M283.908 121.973c.118-.077 27.644-17.197 27.644-17.197l-37.118 9.483 31.997-45.452c15.482 15.56 25.418 36.573 26.848 59.9l-49.371-6.734zm-37.192 9.76l9.345-10.738 68.813 11.173-78.158-.434zM227.83 120.89l11.915-75.435 1.137 87.922-13.052-12.487zm-12.526-.69l-24.877-34.157 33.376 32.898-8.5 1.26zm-17.734 2.344L148.558 129c1.347-22.974 10.898-43.706 25.877-59.197l33.552 45.026-36.568-7.647s26.026 15.296 26.147 15.37m36.926-80.675L227.999 91.6l-16.827-27.065c-.074.197 9.524 37.394 9.542 37.491l-45.467-33.053a92.148 92.148 0 0159.248-27.1m55.869 42.02l-32.787 33.458-1.281-8.496 34.068-24.963zm15.421-15.771l-44.389 33.367c.015-.098 8.751-38.411 8.751-38.411L253.694 91.47l-7.451-49.664c23.141 1.323 44.018 11.048 59.543 26.315m33.461 61.409c-2.519-50.783-43.16-91.429-93.902-93.695L239.97 0l-4.693 35.887c-50.2 2.857-90.284 43.35-92.656 93.902l-36.703 4.842 270.55.074-37.22-5.174zM22.323 199.57c1.18 0 2.469-.06 3.865-.178a20.132 20.132 0 003.924-.708l.295-4.838c-2.006.708-4.386 1.062-7.14 1.062-3.54 0-6.657-.62-9.351-1.858-2.695-1.24-4.8-3.127-6.314-5.665-1.514-2.537-2.271-5.752-2.271-9.646 0-3.816.757-6.963 2.271-9.44 1.515-2.479 3.56-4.328 6.137-5.547 2.576-1.22 5.457-1.83 8.643-1.83 1.416 0 2.754.09 4.013.266 1.258.177 2.438.502 3.54.974l-.295-5.015a27.482 27.482 0 00-3.482-.65c-1.258-.157-2.694-.235-4.307-.235-2.95 0-5.723.442-8.319 1.327-2.596.885-4.897 2.213-6.903 3.983-2.006 1.77-3.58 4.012-4.72 6.726-1.141 2.714-1.711 5.9-1.711 9.559 0 4.838.983 8.87 2.95 12.095 1.966 3.226 4.621 5.635 7.965 7.228 3.343 1.593 7.08 2.39 11.21 2.39zm27.731 0c2.754 0 5.252-.58 7.494-1.741 2.242-1.16 4.041-2.901 5.398-5.222 1.357-2.32 2.036-5.172 2.036-8.555 0-3.265-.63-6.087-1.888-8.467-1.259-2.38-2.96-4.209-5.104-5.487-2.144-1.279-4.592-1.918-7.346-1.918-2.714 0-5.202.58-7.463 1.74-2.262 1.161-4.072 2.892-5.429 5.193-1.357 2.301-2.035 5.143-2.035 8.526 0 3.265.63 6.097 1.888 8.496 1.259 2.4 2.97 4.238 5.133 5.517 2.164 1.278 4.602 1.917 7.316 1.917zm.472-4.544c-2.753 0-5.054-.954-6.903-2.861-1.849-1.908-2.773-4.888-2.773-8.94 0-3.618.885-6.273 2.655-7.965 1.77-1.69 3.993-2.537 6.667-2.537 2.754 0 5.055.954 6.904 2.862 1.848 1.908 2.773 4.868 2.773 8.88 0 3.658-.885 6.333-2.655 8.024-1.77 1.692-3.993 2.537-6.668 2.537zm27.377 3.835a41.795 41.795 0 01-.265-4.16c-.02-1.396-.03-2.763-.03-4.1v-13.688c1.417-1.495 2.862-2.567 4.337-3.216 1.475-.65 3-.974 4.573-.974 2.203 0 3.796.689 4.779 2.065.983 1.377 1.475 3.383 1.475 6.019v18.054h5.251a72.652 72.652 0 01-.236-4.16c-.04-1.396-.059-2.763-.059-4.1v-10.207c0-1.18-.078-2.282-.236-3.304 1.456-1.574 2.93-2.695 4.425-3.364a11.294 11.294 0 014.662-1.003c2.202 0 3.795.689 4.779 2.065.983 1.377 1.475 3.383 1.475 6.019v18.054h5.251a72.651 72.651 0 01-.236-4.16c-.04-1.396-.059-2.763-.059-4.1v-10.207c0-4.091-.875-7.15-2.626-9.175-1.75-2.026-4.258-3.039-7.522-3.039-1.967 0-3.944.492-5.93 1.475a17.107 17.107 0 00-5.163 3.894c-1.534-3.579-4.523-5.369-8.968-5.369-1.849 0-3.698.423-5.546 1.269a12.861 12.861 0 00-4.662 3.57l.236-5.016-5.25.708c.157 1.023.245 2.065.265 3.127.02 1.062.03 2.164.03 3.304v23.72h5.25zm54.578 12.39a41.795 41.795 0 01-.266-4.159 291.28 291.28 0 01-.03-4.1v-4.78c.905.433 1.967.767 3.187 1.003a20.15 20.15 0 003.835.354c2.557 0 4.946-.6 7.169-1.8 2.222-1.199 4.022-3.028 5.398-5.486 1.377-2.459 2.065-5.556 2.065-9.293 0-3.344-.55-6.107-1.652-8.29-1.101-2.183-2.566-3.816-4.395-4.897-1.83-1.082-3.845-1.623-6.048-1.623-1.81 0-3.6.403-5.37 1.21-1.77.806-3.244 1.917-4.424 3.333l.236-4.543-5.252.708c.118 1.023.197 2.114.236 3.275.04 1.16.06 2.31.06 3.452v35.637h5.25zm5.782-16.107c-1.062 0-2.085-.088-3.068-.265a14.173 14.173 0 01-3.01-.915v-17.11c1.26-1.456 2.597-2.508 4.013-3.157 1.416-.65 2.851-.974 4.307-.974 1.573 0 2.98.354 4.219 1.062 1.239.708 2.222 1.85 2.95 3.423.727 1.573 1.091 3.697 1.091 6.372 0 4.051-.973 6.992-2.92 8.82-1.947 1.83-4.475 2.744-7.582 2.744zm29.973 4.425c2.203 0 4.16-.462 5.87-1.386a9.35 9.35 0 003.924-3.983 30 30 0 00.472 2.596c.197.866.374 1.554.531 2.065h4.898c-.394-.983-.718-2.202-.974-3.658-.256-1.455-.384-3.048-.384-4.779V180.04c0-3.776-.944-6.697-2.832-8.762-1.888-2.065-4.76-3.098-8.614-3.098-1.534 0-3.137.167-4.809.502a22.3 22.3 0 00-4.75 1.504l-.648 5.015c1.81-.904 3.52-1.534 5.133-1.888 1.613-.354 3.147-.53 4.602-.53 2.36 0 4.13.57 5.31 1.71 1.18 1.141 1.77 3.167 1.77 6.078v.059l-7.021 1.416c-4.13.865-7.04 2.085-8.732 3.658-1.692 1.573-2.537 3.56-2.537 5.96 0 2.399.786 4.316 2.36 5.752 1.573 1.436 3.717 2.153 6.43 2.153zm.885-4.012c-1.613 0-2.832-.423-3.658-1.268-.826-.846-1.24-1.938-1.24-3.275 0-1.455.532-2.635 1.594-3.54 1.062-.905 3.029-1.514 5.9-1.83l6.018-.648v.944c0 2.203-.413 4.022-1.239 5.458-.826 1.435-1.888 2.488-3.186 3.156a9.015 9.015 0 01-4.189 1.003zm29.855 4.012c3.5 0 6.313-.668 8.437-2.006 2.125-1.337 3.187-3.48 3.187-6.43 0-1.85-.551-3.55-1.652-5.105-1.102-1.553-3.167-2.94-6.196-4.16l-3.245-1.297c-1.849-.748-3.048-1.446-3.599-2.095-.55-.649-.826-1.465-.826-2.448 0-1.141.501-2.007 1.505-2.597 1.003-.59 2.586-.885 4.75-.885 1.376 0 2.733.109 4.07.325 1.338.216 2.636.6 3.895 1.15l-.236-4.779c-2.046-.708-4.465-1.062-7.258-1.062-3.697 0-6.569.669-8.614 2.006-2.046 1.338-3.068 3.285-3.068 5.842 0 1.848.54 3.461 1.622 4.838 1.082 1.376 2.98 2.615 5.694 3.717l3.245 1.298c2.006.787 3.334 1.544 3.983 2.271.649.728.973 1.643.973 2.744 0 1.259-.481 2.291-1.445 3.098-.964.806-2.842 1.21-5.635 1.21-3.107 0-5.782-.453-8.024-1.358l.177 4.78c.944.275 2.163.5 3.658.678 1.495.177 3.029.265 4.602.265zm25.784 0c3.5 0 6.313-.668 8.437-2.006 2.125-1.337 3.187-3.48 3.187-6.43 0-1.85-.551-3.55-1.653-5.105-1.1-1.553-3.166-2.94-6.195-4.16l-3.245-1.297c-1.849-.748-3.048-1.446-3.599-2.095-.55-.649-.826-1.465-.826-2.448 0-1.141.501-2.007 1.505-2.597 1.003-.59 2.586-.885 4.75-.885 1.376 0 2.733.109 4.07.325 1.338.216 2.636.6 3.895 1.15l-.237-4.779c-2.045-.708-4.464-1.062-7.257-1.062-3.697 0-6.569.669-8.614 2.006-2.046 1.338-3.068 3.285-3.068 5.842 0 1.848.54 3.461 1.622 4.838 1.082 1.376 2.98 2.615 5.694 3.717l3.245 1.298c2.006.787 3.334 1.544 3.983 2.271.649.728.973 1.643.973 2.744 0 1.259-.481 2.291-1.445 3.098-.964.806-2.842 1.21-5.635 1.21-3.107 0-5.782-.453-8.024-1.358l.177 4.78c.944.275 2.163.5 3.658.678 1.495.177 3.029.265 4.602.265zm37.113-.708a37.05 37.05 0 01-.207-3.274c-.02-1.082-.03-2.173-.03-3.275v-12.095h8.379c1.101 0 2.3.03 3.599.088 1.298.06 2.498.128 3.6.207v-4.956a47.402 47.402 0 01-3.6.236c-1.298.039-2.498.059-3.6.059h-8.377v-14.515h10.738c1.22 0 2.419.01 3.6.03 1.18.02 2.379.108 3.598.265v-4.661h-23.247c.079 1.101.138 2.212.177 3.333.04 1.121.06 2.193.06 3.216v28.793a90.111 90.111 0 01-.237 6.55h5.547zm27.023-35.696c1.062 0 1.956-.354 2.684-1.062.728-.708 1.092-1.613 1.092-2.714s-.364-2.006-1.092-2.714c-.728-.708-1.622-1.062-2.684-1.062a3.73 3.73 0 00-2.656 1.062c-.747.708-1.12 1.613-1.12 2.714s.373 2.006 1.12 2.714a3.73 3.73 0 002.656 1.062zm3.127 35.696a45.396 45.396 0 01-.266-4.218c-.02-1.357-.03-2.705-.03-4.042v-22.42l-5.25.707c.078 1.023.147 2.065.206 3.127.059 1.062.088 2.164.088 3.304v23.542h5.252zm14.868 0a41.795 41.795 0 01-.265-4.16c-.02-1.396-.03-2.763-.03-4.1v-13.688c1.416-1.495 2.862-2.567 4.337-3.216 1.475-.65 3-.974 4.573-.974 2.202 0 3.795.689 4.779 2.065.983 1.377 1.475 3.383 1.475 6.019v18.054h5.251a72.652 72.652 0 01-.236-4.16c-.04-1.396-.059-2.763-.059-4.1v-10.207c0-4.091-.875-7.15-2.626-9.175-1.75-2.026-4.258-3.039-7.522-3.039-1.85 0-3.698.423-5.547 1.269a12.861 12.861 0 00-4.66 3.57l.235-5.016-5.251.708c.118 1.023.197 2.065.236 3.127a89.35 89.35 0 01.06 3.304v23.72h5.25zm35.992.708c2.202 0 4.16-.462 5.87-1.386a9.35 9.35 0 003.924-3.983 30 30 0 00.472 2.596c.197.866.374 1.554.531 2.065h4.897c-.393-.983-.718-2.202-.973-3.658-.256-1.455-.384-3.048-.384-4.779V180.04c0-3.776-.944-6.697-2.832-8.762-1.888-2.065-4.76-3.098-8.614-3.098-1.534 0-3.137.167-4.809.502a22.3 22.3 0 00-4.75 1.504l-.649 5.015c1.81-.904 3.52-1.534 5.134-1.888 1.612-.354 3.146-.53 4.602-.53 2.36 0 4.13.57 5.31 1.71 1.18 1.141 1.77 3.167 1.77 6.078v.059l-7.021 1.416c-4.13.865-7.041 2.085-8.733 3.658-1.691 1.573-2.537 3.56-2.537 5.96 0 2.399.787 4.316 2.36 5.752 1.574 1.436 3.718 2.153 6.432 2.153zm.885-4.012c-1.613 0-2.832-.423-3.658-1.268-.827-.846-1.24-1.938-1.24-3.275 0-1.455.531-2.635 1.594-3.54 1.062-.905 3.028-1.514 5.9-1.83l6.018-.648v.944c0 2.203-.413 4.022-1.24 5.458-.825 1.435-1.887 2.488-3.185 3.156a9.015 9.015 0 01-4.19 1.003zm28.144 3.304a41.795 41.795 0 01-.266-4.16c-.02-1.396-.03-2.763-.03-4.1v-13.688c1.417-1.495 2.862-2.567 4.337-3.216 1.475-.65 3-.974 4.573-.974 2.203 0 3.796.689 4.78 2.065.983 1.377 1.474 3.383 1.474 6.019v18.054h5.252a72.652 72.652 0 01-.236-4.16c-.04-1.396-.06-2.763-.06-4.1v-10.207c0-4.091-.875-7.15-2.625-9.175-1.75-2.026-4.258-3.039-7.523-3.039-1.849 0-3.697.423-5.546 1.269a12.861 12.861 0 00-4.661 3.57l.236-5.016-5.251.708c.118 1.023.196 2.065.236 3.127a89.35 89.35 0 01.059 3.304v23.72h5.25zm43.248.708c1.102 0 2.213-.059 3.334-.177s2.095-.314 2.92-.59l.237-4.838c-.984.394-1.967.689-2.95.885-.984.197-2.125.295-3.423.295-3.422 0-6.155-.934-8.2-2.802-2.046-1.869-3.069-4.809-3.069-8.821 0-3.776.993-6.54 2.98-8.29 1.986-1.75 4.592-2.626 7.817-2.626 1.023 0 2.065.08 3.128.236 1.062.158 2.202.472 3.422.944l-.236-4.72a14.751 14.751 0 00-2.921-.678c-1.042-.138-2.252-.207-3.629-.207-2.95 0-5.605.58-7.965 1.74-2.36 1.161-4.228 2.902-5.605 5.222-1.377 2.321-2.065 5.232-2.065 8.733 0 3.5.718 6.411 2.153 8.732 1.436 2.32 3.373 4.061 5.812 5.222 2.439 1.16 5.192 1.74 8.26 1.74zm15.872-36.404c1.062 0 1.957-.354 2.685-1.062.727-.708 1.091-1.613 1.091-2.714s-.364-2.006-1.091-2.714c-.728-.708-1.623-1.062-2.685-1.062a3.73 3.73 0 00-2.655 1.062c-.747.708-1.121 1.613-1.121 2.714s.374 2.006 1.12 2.714a3.73 3.73 0 002.656 1.062zm3.127 35.696a45.395 45.395 0 01-.265-4.218c-.02-1.357-.03-2.705-.03-4.042v-22.42l-5.251.707c.079 1.023.147 2.065.206 3.127.06 1.062.089 2.164.089 3.304v23.542h5.251zm16.344.708c2.203 0 4.16-.462 5.87-1.386a9.35 9.35 0 003.924-3.983 30 30 0 00.472 2.596c.197.866.374 1.554.531 2.065h4.897c-.393-.983-.718-2.202-.973-3.658-.256-1.455-.384-3.048-.384-4.779V180.04c0-3.776-.944-6.697-2.832-8.762-1.888-2.065-4.76-3.098-8.614-3.098-1.534 0-3.137.167-4.809.502a22.3 22.3 0 00-4.75 1.504l-.649 5.015c1.81-.904 3.52-1.534 5.134-1.888 1.612-.354 3.146-.53 4.602-.53 2.36 0 4.13.57 5.31 1.71 1.18 1.141 1.77 3.167 1.77 6.078v.059l-7.021 1.416c-4.13.865-7.041 2.085-8.732 3.658-1.692 1.573-2.538 3.56-2.538 5.96 0 2.399.787 4.316 2.36 5.752 1.574 1.436 3.718 2.153 6.432 2.153zm.885-4.012c-1.613 0-2.832-.423-3.658-1.268-.826-.846-1.24-1.938-1.24-3.275 0-1.455.532-2.635 1.594-3.54 1.062-.905 3.028-1.514 5.9-1.83l6.018-.648v.944c0 2.203-.413 4.022-1.239 5.458-.826 1.435-1.888 2.488-3.186 3.156a9.015 9.015 0 01-4.19 1.003zm28.144 3.304a50.044 50.044 0 01-.236-3.363c-.04-1.101-.06-2.32-.06-3.658v-37.997l-5.25.708c.078.826.147 1.691.206 2.596.06.905.089 1.868.089 2.89v38.824h5.25z"/></g></svg>