<svg width="75" height="38" viewBox="0 0 75 38" xmlns="http://www.w3.org/2000/svg">
        <g fill="none" fill-rule="evenodd">
            <g transform="translate(-714)" fill="#D7478C" fill-rule="nonzero">
                <g>
                    <g transform="translate(714)">
                        <path
                            d="M43.223 11.565c.019.004.074-.163.122-.37l.327-1.418c.048-.207.064-.382.036-.389-.029-.006-.091.158-.14.365l-.327 1.42c-.048.207-.036.387-.017.392M42.772 11.466c.02.004.071-.163.115-.371l.304-1.424c.044-.208.057-.384.027-.39-.03-.005-.088.16-.133.368l-.303 1.425c-.043.207-.03.39-.01.393M41.866 11.29c.02.002.067-.166.103-.376l.498-2.821c.037-.21.043-.385.013-.39-.03-.005-.084.162-.12.371l-.498 2.823c-.037.21-.015.39.004.393M60.174 24.127c.01.017.17-.054.353-.163l2.481-1.433c.185-.106.323-.214.309-.24-.015-.027-.178.04-.363.146L60.47 23.87c-.184.106-.308.238-.299.256M42.32 11.374c.018.004.067-.164.108-.373l.278-1.43c.04-.21.05-.385.022-.39-.029-.005-.086.16-.126.369l-.279 1.431c-.04.21-.022.39-.004.393M43.672 11.673c.019.005.076-.16.128-.366l.353-1.413c.051-.207.07-.381.042-.389-.027-.007-.094.157-.145.363l-.352 1.413c-.052.206-.044.387-.025.392M44.565 11.911c.018.006.08-.157.14-.362l.4-1.398c.06-.204.085-.38.055-.387-.03-.008-.099.153-.157.357l-.401 1.398c-.059.205-.057.387-.039.392M45.007 12.043c.019.006.085-.156.148-.36l.424-1.39c.062-.204.09-.378.062-.386-.028-.008-.101.15-.163.354l-.426 1.39c-.062.205-.064.386-.045.391M44.12 11.79c.02.005.08-.159.135-.364l.741-2.767c.054-.206.077-.38.048-.388-.029-.007-.098.155-.153.36l-.741 2.767c-.054.205-.05.386-.03.392M45.447 12.183c.019.006.087-.155.153-.357l.45-1.383c.066-.203.097-.376.069-.385-.029-.01-.105.15-.17.351l-.45 1.384c-.066.203-.07.384-.052.39M37.735 10.894c.02 0 .038-.174.042-.386l.025-1.463c.004-.213-.017-.387-.046-.387-.03 0-.056.173-.06.386l-.026 1.462c-.004.213.045.388.065.388M45.885 12.33c.018.006.09-.153.159-.353l.474-1.376c.07-.201.104-.373.076-.383-.028-.01-.107.147-.176.349l-.474 1.375c-.069.201-.077.382-.06.389M38.196 10.906c.02 0 .042-.173.049-.386l.051-1.46c.007-.213-.01-.388-.04-.39-.03 0-.06.173-.067.386l-.051 1.46c-.007.214.038.39.058.39M24.68 11.557c-.027.013.028.18.122.37l.639 1.31c.092.19.183.34.2.332.019-.008-.012-.189-.106-.38l-.638-1.308c-.093-.192-.191-.338-.217-.326M26.975 10.56c-.027.01.013.18.089.379l.521 1.359c.077.199.154.355.172.348.018-.007.004-.188-.072-.386l-.522-1.358c-.077-.2-.161-.353-.188-.343M40.496 11.086c.02.002.057-.169.082-.38l.177-1.449c.027-.21.024-.386-.005-.39-.03-.004-.074.167-.1.378l-.179 1.449c-.027.21.005.39.024.392M40.038 11.033c.02.003.054-.168.075-.38l.153-1.451c.022-.212.016-.387-.012-.39-.029-.004-.072.168-.094.38l-.152 1.45c-.023.212.01.39.03.392M39.118 10.954c.02 0 .047-.171.062-.384l.103-1.457c.014-.212.003-.387-.027-.39-.03-.002-.066.17-.082.382l-.102 1.459c-.015.212.024.39.044.39M40.954 11.146c.02.003.06-.167.09-.38l.201-1.444c.03-.21.031-.387.002-.391-.03-.004-.076.165-.106.376l-.204 1.445c-.029.211-.002.39.017.393M39.58 10.99c.019.002.05-.17.07-.382l.249-2.859c.019-.212.01-.387-.02-.39-.03-.003-.07.169-.088.381l-.25 2.859c-.019.212.019.39.038.391M52.442 15.681c.016.012.13-.122.252-.296l1.645-2.35c.122-.174.202-.33.177-.348-.024-.017-.144.112-.266.286l-1.646 2.35c-.122.175-.178.348-.163.359M55.306 18.007c.015.013.145-.104.29-.26l.997-1.068c.145-.156.246-.299.225-.32-.022-.02-.157.091-.303.247l-.997 1.07c-.145.156-.226.318-.212.33M52.062 15.418c.016.01.126-.125.246-.3l.816-1.21c.119-.177.196-.335.172-.35-.025-.016-.142.114-.26.29l-.815 1.21c-.12.177-.175.35-.158.36M54.27 17.089c.016.013.14-.11.277-.273l1.845-2.2c.135-.162.23-.312.207-.331-.023-.02-.154.098-.29.261l-1.845 2.2c-.136.162-.209.33-.193.343M46.321 12.483c.019.007.094-.152.166-.351l.98-2.691c.073-.2.108-.372.08-.381-.026-.01-.11.145-.183.344l-.98 2.691c-.072.2-.08.382-.063.388M53.554 16.506c.015.01.135-.116.266-.284l.899-1.15c.131-.168.219-.32.196-.338-.023-.018-.15.105-.28.271l-.9 1.151c-.13.168-.197.337-.181.348M53.914 16.794c.015.012.137-.113.271-.279l.92-1.135c.133-.166.224-.316.202-.334-.022-.018-.151.102-.286.268l-.92 1.135c-.133.166-.203.333-.187.345M58.933 22.182c.012.016.163-.07.338-.193l2.35-1.645c.174-.122.303-.242.286-.266-.018-.025-.175.054-.35.177L59.21 21.9c-.175.122-.287.265-.276.282M58.664 21.805c.012.016.162-.073.335-.199l1.18-.858c.173-.126.3-.247.282-.271-.017-.025-.172.06-.344.184l-1.181.86c-.172.124-.283.268-.271.284M57.528 20.351c.013.016.157-.084.32-.22l2.2-1.845c.162-.136.28-.268.26-.29-.018-.023-.168.07-.33.206l-2.2 1.845c-.163.135-.263.289-.25.304M55.641 18.325c.014.014.146-.1.294-.254l1.015-1.052c.149-.152.252-.294.23-.315-.02-.02-.158.088-.306.242l-1.015 1.051c-.148.154-.232.314-.217.328M22.481 12.751c-.026.016.044.177.154.359l.75 1.25c.11.182.213.323.23.313.016-.01-.029-.186-.138-.367l-.752-1.251c-.108-.182-.219-.319-.244-.304M48.452 13.37c.018.008.107-.143.197-.335l1.212-2.597c.09-.193.14-.361.113-.374-.028-.012-.122.136-.213.326l-1.211 2.597c-.09.193-.115.373-.097.382M48.031 13.177c.019.007.104-.145.19-.34l.592-1.33c.087-.193.136-.362.108-.374-.027-.013-.12.137-.206.331l-.592 1.33c-.087.194-.11.374-.093.381M49.281 13.774c.018.01.111-.14.207-.329l.662-1.297c.097-.19.154-.355.128-.368-.026-.013-.127.13-.224.32l-.66 1.298c-.097.19-.13.367-.113.376M47.182 12.816c.018.007.098-.148.178-.345l.545-1.35c.079-.197.122-.368.095-.38-.027-.012-.115.142-.194.34l-.545 1.348c-.081.198-.097.379-.08.386M47.609 12.992c.018.008.101-.146.183-.343l.57-1.338c.083-.197.129-.366.102-.377-.027-.012-.117.139-.2.335l-.568 1.338c-.083.196-.104.377-.086.385M50.498 14.437c.017.01.118-.131.225-.316l1.433-2.483c.106-.184.172-.347.146-.362-.026-.015-.136.124-.24.308l-1.433 2.482c-.106.185-.148.362-.13.372M51.677 15.163c.016.011.124-.126.24-.304l.795-1.225c.116-.178.19-.337.166-.353-.024-.015-.14.117-.256.296l-.794 1.223c-.116.179-.168.353-.151.364M51.288 14.915c.016.01.122-.129.234-.31l.774-1.236c.113-.181.185-.341.16-.357-.025-.015-.138.12-.25.3l-.774 1.238c-.112.18-.16.354-.144.365M50.095 14.21c.018.01.115-.136.219-.321l.707-1.275c.102-.186.166-.35.14-.365-.025-.014-.13.128-.233.314l-.706 1.275c-.102.186-.142.363-.125.372M41.41 11.213c.02.003.064-.166.096-.375l.229-1.441c.032-.21.036-.385.008-.39-.029-.005-.08.162-.114.374l-.228 1.438c-.033.21-.01.39.01.393M9.097 31.865c-.006.027.16.086.369.126l1.431.279c.21.04.383.057.387.039.003-.019-.158-.103-.366-.144l-1.43-.279c-.21-.04-.386-.05-.391-.02M9.196 31.375c-.005.027.16.088.368.133l1.425.302c.208.044.381.066.385.046.004-.02-.155-.106-.363-.15l-1.425-.302c-.209-.044-.384-.057-.39-.028M8.923 32.851c-.005.03.163.082.374.114l1.44.227c.21.034.384.045.388.027.003-.018-.16-.097-.371-.13l-1.44-.229c-.211-.033-.386-.036-.391-.008M8.849 33.346c-.004.03.164.077.375.107l1.446.203c.21.03.385.038.388.019.002-.019-.163-.094-.373-.124l-1.446-.203c-.21-.03-.386-.03-.39-.002M8.784 33.842c-.004.03.166.074.377.1l1.45.178c.21.027.385.03.387.011.003-.02-.164-.09-.376-.117l-1.448-.178c-.211-.027-.387-.024-.39.006M9.305 30.885c-.007.029.157.092.365.139l1.418.327c.207.048.38.072.385.053.005-.02-.154-.109-.361-.156l-1.418-.328c-.207-.047-.383-.063-.39-.035M10.132 28c-.008.027.148.106.35.176l1.374.473c.202.07.371.111.378.093.006-.018-.141-.124-.343-.193l-1.376-.473c-.2-.07-.373-.104-.383-.076M9.974 28.475c-.01.027.149.104.351.17l1.384.45c.202.065.373.104.38.085.006-.018-.144-.121-.346-.187l-1.384-.45c-.203-.065-.375-.096-.384-.068M9.823 28.952c-.008.027.151.102.355.163l1.392.425c.203.063.374.098.38.08.005-.02-.146-.12-.35-.181l-1.391-.426c-.204-.062-.378-.09-.386-.062M9.422 30.4c-.008.028.156.093.362.144l1.414.353c.206.051.38.078.383.06.003-.02-.152-.111-.359-.163L9.81 30.44c-.207-.052-.38-.07-.388-.042M9.68 29.432c-.007.027.153.099.358.157l1.398.401c.204.059.376.092.382.074.006-.018-.147-.117-.352-.176l-1.4-.4c-.204-.06-.378-.085-.386-.055M10.475 27.06c-.01.027.144.112.342.188l1.36.522c.198.076.366.124.373.105.006-.019-.138-.129-.336-.205l-1.358-.521c-.2-.076-.37-.116-.38-.089M8.727 34.34c-.004.03.167.071.38.093l1.45.153c.212.022.387.025.39.005.002-.02-.165-.088-.377-.11l-1.452-.153c-.211-.022-.387-.017-.39.012M8.64 35.338c-.003.03.17.065.382.08l1.458.102c.212.015.387.011.388-.009 0-.02-.17-.083-.38-.097l-1.458-.102c-.212-.015-.388-.004-.39.027M20.394 14.132c-.024.017.06.172.184.344l.86 1.182c.124.172.239.304.255.293.017-.012-.045-.184-.17-.356l-.859-1.181c-.124-.172-.246-.298-.27-.282M8.574 36.838c0 .03.174.056.386.06l1.462.026c.213.003.387-.01.387-.03 0-.02-.173-.073-.385-.077l-1.463-.025c-.212-.004-.387.017-.387.046M8.587 36.338c0 .03.172.06.385.067l1.462.05c.212.007.387-.002.387-.022.001-.02-.17-.077-.383-.084l-1.463-.051c-.212-.008-.387.01-.388.04M8.609 35.838c-.002.029.171.061.384.073l1.458.077c.212.01.388.004.388-.016.001-.02-.17-.081-.382-.09l-1.459-.077c-.213-.011-.387.003-.389.033M15.606 18.52c-.02.022.096.154.257.293l1.102.958c.16.14.302.242.316.228.014-.014-.085-.168-.244-.307l-1.103-.958c-.16-.14-.307-.236-.325-.214M15.938 18.145c-.02.022.093.155.252.298l1.086.978c.158.142.299.247.31.232.013-.014-.08-.17-.24-.312l-1.085-.976c-.158-.143-.303-.242-.323-.22M14.65 19.678c-.017.023.105.15.272.28l1.15.9c.168.131.314.226.325.21.011-.017-.093-.163-.261-.295l-1.15-.898c-.168-.131-.32-.22-.338-.197M14.962 19.287c-.018.022.102.15.268.284l1.135.92c.166.134.31.231.323.217.012-.013-.09-.164-.256-.298l-1.136-.92c-.165-.133-.315-.224-.334-.202M16.277 17.776c-.02.02.091.158.247.303l1.07.997c.155.145.293.252.306.238.013-.014-.078-.171-.234-.316l-1.07-.999c-.156-.144-.3-.246-.32-.224M18.436 15.69c-.022.02.074.166.214.325l.958 1.103c.14.16.266.281.28.268.015-.013-.06-.178-.2-.339l-.958-1.102c-.14-.16-.271-.276-.294-.257M14.346 20.076c-.018.023.107.147.276.275l1.167.878c.17.129.318.221.33.206.013-.016-.096-.163-.266-.29l-1.167-.878c-.17-.13-.322-.215-.34-.19M19.993 14.43c-.024.018.062.171.19.34l.879 1.167c.128.17.244.299.26.288.017-.01-.048-.183-.176-.353l-.878-1.166c-.129-.17-.253-.295-.276-.277M16.62 17.413c-.02.02.09.159.242.307l1.051 1.015c.153.147.29.258.303.244.014-.014-.075-.172-.228-.32l-1.053-1.015c-.152-.149-.294-.252-.315-.231M18.061 16.022c-.022.02.077.164.22.322l.977 1.086c.142.158.272.277.286.264.013-.013-.065-.177-.207-.335l-.977-1.087c-.142-.158-.276-.271-.298-.252M13.198 21.716c-.017.024.117.14.294.255l1.224.795c.179.116.334.197.344.181.01-.016-.107-.154-.285-.271l-1.224-.795c-.178-.116-.337-.19-.352-.166M11.696 24.316c-.013.027.131.126.32.223l1.298.661c.19.096.353.163.36.143.008-.02-.122-.141-.313-.238l-1.296-.661c-.19-.096-.356-.154-.369-.128M11.473 24.764c-.013.027.133.124.325.217l1.309.638c.191.093.354.155.363.136.01-.02-.124-.14-.316-.232l-1.309-.64c-.19-.092-.358-.147-.371-.12M11.927 23.872c-.013.027.13.129.317.228l1.287.685c.187.1.349.167.358.15.009-.017-.12-.144-.308-.244l-1.287-.684c-.188-.1-.352-.16-.367-.136M10.851 26.13c-.011.028.14.117.335.2l1.339.57c.195.083.362.136.37.118.009-.017-.131-.133-.327-.217l-1.34-.57c-.195-.083-.366-.128-.377-.101M11.05 25.671c-.012.027.136.12.332.206l1.329.592c.194.087.36.143.367.125.007-.018-.13-.136-.326-.222l-1.33-.591c-.193-.087-.362-.136-.374-.109M10.658 26.593c-.01.027.142.114.34.194l1.349.545c.197.08.365.13.372.113.007-.019-.136-.132-.333-.212l-1.35-.545c-.197-.079-.367-.122-.378-.095M12.929 22.138c-.016.024.12.137.3.25l1.237.774c.18.112.336.191.347.174.01-.017-.11-.152-.291-.265l-1.237-.773c-.18-.113-.341-.185-.356-.16M13.474 21.298c-.017.025.115.141.29.26l1.21.816c.177.12.33.203.341.187.01-.016-.104-.156-.28-.275l-1.21-.814c-.176-.12-.334-.197-.35-.172M12.667 22.565c-.015.025.122.135.304.244l1.25.751c.183.109.34.185.35.168.008-.017-.113-.15-.296-.26l-1.25-.748c-.181-.11-.343-.18-.358-.154M12.166 23.432c-.014.025.126.131.313.234l1.275.707c.186.102.346.173.355.156.01-.017-.117-.146-.304-.25l-1.275-.705c-.186-.103-.35-.167-.364-.14M49.69 13.99c.017.008.113-.136.213-.326l.684-1.286c.1-.189.16-.353.135-.367-.024-.014-.128.129-.228.316l-.684 1.287c-.1.188-.135.366-.119.375M59.476 22.286c-.176.118-.311.229-.3.244.01.015.183-.038.36-.158l1.21-.816c.175-.118.306-.235.29-.26-.016-.024-.174.055-.35.173l-1.21.817zM58.371 20.773c-.168.131-.295.25-.283.266.011.016.18-.05.349-.182l1.15-.898c.168-.132.29-.258.271-.28-.019-.024-.17.065-.337.196l-1.15.898zM60.164 20.076c-.018-.024-.171.061-.341.19l-1.166.878c-.17.128-.299.244-.287.261.01.017.181-.048.352-.177l1.167-.879c.17-.127.294-.251.277-.274M58.903 18.52c-.018-.022-.166.074-.327.213l-1.102.959c-.16.14-.282.265-.269.28.013.015.179-.061.34-.201l1.1-.957c.162-.14.277-.272.258-.294M57.163 19.341c-.158.143-.277.271-.264.285.013.014.177-.063.335-.205l1.085-.978c.158-.143.272-.277.253-.299-.018-.021-.165.077-.323.22l-1.086.977zM58.078 20.408c-.166.134-.291.256-.278.271.013.015.179-.054.344-.188l1.137-.92c.165-.134.285-.262.267-.285-.018-.023-.17.069-.335.202l-1.135.92zM60.704 24.28c-.185.103-.33.2-.32.218.008.018.186-.023.372-.125l1.275-.707c.186-.104.327-.209.313-.234-.014-.025-.179.037-.365.14l-1.275.708zM60.929 24.69c-.188.1-.334.196-.326.213.009.017.187-.019.375-.12l1.286-.683c.188-.1.33-.202.318-.228-.013-.026-.18.034-.367.135l-1.286.683zM59.735 22.677c-.178.115-.315.224-.305.24.01.016.185-.036.364-.152l1.222-.795c.179-.115.312-.23.296-.255-.015-.024-.175.05-.352.167l-1.225.795zM59.988 23.07c-.18.113-.32.22-.31.236.011.017.186-.032.366-.145l1.237-.774c.181-.112.316-.225.3-.249-.015-.024-.175.046-.356.16l-1.237.772zM61.843 22.565c-.016-.026-.177.043-.36.154l-1.248.75c-.182.11-.325.213-.314.23.012.015.185-.03.368-.138l1.25-.752c.182-.109.318-.22.304-.244M49.83 11.557c-.028-.013-.125.133-.218.325l-.638 1.309c-.093.191-.155.354-.138.363.017.009.14-.126.234-.316l.638-1.31c.094-.19.148-.357.122-.37M52.03 12.75c-.026-.015-.136.122-.245.305l-.751 1.25c-.109.182-.186.34-.17.349.018.01.152-.114.26-.295l.752-1.25c.108-.182.179-.344.154-.358M61.148 25.104c-.19.098-.338.19-.33.207.009.018.188-.014.377-.111l1.298-.661c.19-.097.333-.197.32-.224-.013-.026-.179.032-.368.128l-1.297.661zM52.987 15.595c-.125.172-.215.323-.2.334.016.012.16-.1.285-.27l.858-1.183c.125-.172.208-.327.185-.344-.024-.017-.145.108-.271.28l-.857 1.183zM47.535 10.558c-.027-.01-.112.144-.189.343l-.521 1.359c-.077.199-.124.367-.106.373.018.007.129-.136.205-.336l.522-1.359c.077-.198.117-.37.09-.38M54.821 17.048c-.139.161-.242.303-.227.316.015.013.168-.084.307-.244l.959-1.103c.14-.16.235-.308.213-.326-.022-.017-.154.096-.293.257l-.959 1.1zM56.449 16.021c-.022-.02-.156.094-.299.252l-.978 1.087c-.142.158-.247.298-.232.31.015.012.17-.081.312-.24l.977-1.085c.141-.158.24-.304.219-.323M56.522 18.658c-.153.148-.267.28-.254.295.014.014.175-.071.328-.217l1.052-1.015c.152-.149.261-.286.241-.307-.02-.022-.163.083-.315.23l-1.052 1.014zM56.845 18.998c-.156.145-.271.275-.258.289.013.014.175-.067.33-.212l1.07-.997c.156-.145.267-.28.247-.302-.02-.022-.163.081-.32.225l-1.07.997zM54.518 14.43c-.024-.019-.148.106-.276.276l-.878 1.167c-.128.17-.22.319-.204.33.016.013.16-.095.288-.266l.88-1.166c.128-.17.214-.323.19-.341M63.825 33.55c-.21.03-.38.07-.378.089.002.019.183.047.393.017l1.445-.204c.21-.03.38-.077.376-.106-.004-.028-.18-.028-.39 0l-1.446.204zM63.037 24.764c-.013-.027-.18.028-.371.121l-1.31.64c-.191.092-.34.183-.331.2.009.017.188-.013.38-.105l1.308-.639c.191-.094.337-.191.325-.217M63.888 34.015c-.211.027-.382.062-.38.08.002.02.181.05.392.025l1.449-.179c.21-.025.381-.07.377-.1-.004-.029-.18-.031-.39-.005l-1.448.179zM63.756 33.087c-.21.034-.38.076-.376.096.004.02.183.043.393.01l1.44-.229c.21-.033.379-.084.374-.113-.005-.03-.18-.025-.39.008l-1.441.228zM65.413 31.865c-.005-.027-.18-.019-.39.021l-1.43.278c-.21.04-.377.09-.373.109.004.018.184.036.392-.004l1.432-.278c.209-.041.375-.098.37-.127M63.606 35.051c.002.02.177.022.389.003l2.859-.25c.213-.02.384-.058.381-.088-.002-.03-.178-.04-.39-.02l-2.86.25c-.212.018-.38.086-.38.105M63.499 31.706c-.208.044-.375.096-.371.115.004.019.185.033.393-.011l1.425-.303c.207-.044.373-.104.367-.133-.006-.028-.18-.015-.389.027l-1.425.305zM64.023 35.413c-.213.015-.384.043-.384.063.001.02.179.059.392.044l1.457-.103c.213-.015.385-.05.382-.08-.002-.029-.177-.04-.39-.027l-1.457.103zM65.923 36.338c0-.03-.176-.048-.388-.04l-1.463.051c-.212.007-.385.03-.384.049 0 .02.176.065.388.058l1.462-.051c.213-.008.385-.038.385-.067M64.053 35.88c-.213.012-.386.037-.385.055 0 .019.178.062.39.05l1.459-.076c.213-.01.384-.044.384-.073-.001-.03-.177-.044-.39-.033l-1.458.078zM65.785 34.34c-.004-.03-.179-.035-.39-.012l-1.455.152c-.212.022-.383.056-.38.075.003.02.181.054.393.031l1.451-.152c.211-.023.382-.065.38-.094M62.122 27.234c-.197.08-.352.16-.344.177.007.018.187 0 .384-.079l1.35-.545c.197-.08.35-.167.338-.194-.011-.027-.18.015-.378.095l-1.35.546zM64.035 27.058c-.01-.027-.182.014-.38.09l-1.359.521c-.199.076-.355.153-.349.172.007.019.189.004.388-.073l1.358-.521c.199-.076.352-.16.342-.189M61.944 26.8c-.196.084-.35.167-.342.184.008.017.188-.002.384-.085l1.339-.57c.195-.083.346-.174.335-.2-.012-.027-.182.018-.377.102l-1.34.57zM63.397 31.248c-.207.048-.373.103-.369.122.004.018.185.03.392-.018l1.42-.328c.206-.047.371-.109.364-.138-.008-.03-.181-.014-.389.035l-1.418.327zM61.756 26.372c-.195.086-.347.172-.34.19.009.017.188-.006.382-.093l1.33-.592c.195-.087.344-.18.331-.206-.012-.027-.18.022-.374.108l-1.33.593zM62.618 28.549c-.201.069-.36.14-.352.16.007.018.187.01.388-.06l1.376-.473c.201-.07.358-.148.349-.177-.01-.029-.183.007-.384.076l-1.377.474zM63.287 30.793c-.206.051-.372.109-.367.128.005.02.186.027.392-.024l1.414-.353c.206-.051.369-.117.362-.145-.006-.028-.181-.009-.387.042l-1.414.352zM61.24 26.175c.007.018.173-.041.365-.13l2.597-1.212c.193-.09.34-.185.328-.213-.012-.028-.181.025-.374.114l-2.597 1.211c-.193.09-.328.212-.32.23M62.91 29.44c-.203.061-.365.128-.36.146.005.018.188.018.391-.045l1.392-.425c.203-.062.363-.136.353-.163-.01-.027-.182 0-.386.062l-1.39.424zM62.768 28.993c-.202.066-.363.136-.357.153.005.018.186.014.39-.052l1.383-.45c.203-.065.36-.142.351-.17-.009-.027-.182.004-.385.069l-1.382.45zM64.83 29.432c-.009-.028-.183-.004-.387.054l-1.398.402c-.205.059-.368.123-.362.14.005.018.187.02.392-.038l1.398-.401c.204-.058.365-.129.357-.157M63.31 32.763c.004.02.177.005.387-.032l2.824-.497c.21-.037.376-.092.371-.121-.005-.03-.18-.024-.39.013l-2.823.498c-.21.037-.372.12-.368.139M62.814 30.51c.004.019.177-.01.383-.066l2.767-.742c.205-.054.367-.124.36-.152-.009-.029-.183-.008-.389.047l-2.767.742c-.205.054-.36.15-.354.17M62.122 28.308c.007.019.176-.025.376-.098l2.69-.979c.2-.073.355-.155.346-.184-.01-.028-.183.008-.383.081l-2.69.98c-.2.073-.345.182-.339.2M65.936 36.837c0-.029-.176-.05-.388-.046l-1.462.027c-.213.003-.386.022-.386.042 0 .02.174.068.387.064l1.463-.027c.213-.003.386-.03.386-.06M38.657 10.925c.02 0 .045-.172.054-.384l.076-1.46c.011-.211-.003-.386-.033-.388-.029-.002-.062.171-.073.384l-.077 1.458c-.01.213.032.389.052.39M22.477 15.398c.016-.01-.068-.163-.187-.34l-.814-1.21c-.12-.175-.236-.307-.26-.29-.025.016.053.174.172.35l.814 1.209c.119.177.26.292.275.281M35.89 10.923c.02 0 .027-.175.015-.388l-.076-1.459c-.012-.212-.045-.385-.074-.383-.03.002-.044.176-.033.389l.076 1.458c.011.213.072.384.092.383M34.506 11.03c.02-.003.017-.177-.005-.39l-.153-1.45c-.022-.212-.063-.383-.093-.38-.03.003-.035.178-.012.39l.152 1.452c.022.212.092.38.111.377M34.968 10.988c.02-.002.02-.177.002-.39l-.25-2.858c-.019-.212-.058-.383-.088-.38-.03.004-.04.178-.02.39l.25 2.86c.018.211.086.38.106.38M35.429 10.952c.02 0 .023-.176.009-.388l-.103-1.459c-.015-.211-.05-.383-.08-.382-.03.002-.04.178-.025.39l.102 1.457c.014.213.077.383.097.382M33.591 11.142c.02-.003.01-.177-.019-.388l-.203-1.445c-.03-.211-.077-.38-.106-.376-.03.004-.029.18.001.39l.203 1.445c.03.21.105.376.124.374M34.049 11.082c.02-.003.014-.177-.012-.388l-.178-1.45c-.027-.21-.071-.38-.1-.376-.028.003-.031.18-.005.39l.177 1.448c.026.211.098.38.118.376M33.134 11.208c.02-.003.007-.178-.025-.388l-.228-1.44c-.034-.21-.084-.378-.114-.373-.03.005-.025.18.008.39l.229 1.44c.033.211.11.375.13.372M36.812 10.892c.02 0 .033-.174.029-.387l-.027-1.463c-.004-.212-.03-.386-.06-.385-.03 0-.05.175-.046.388l.027 1.462c.003.212.058.385.077.385M36.35 10.905c.019 0 .029-.175.021-.388l-.05-1.461c-.008-.213-.039-.386-.068-.385-.03.002-.046.176-.039.388l.051 1.461c.008.213.065.386.084.385M15.866 21.777c.012-.015-.12-.131-.292-.256l-1.182-.858c-.172-.125-.325-.208-.344-.184-.018.024.109.145.282.27l1.182.858c.172.126.343.186.354.17M17.005 20.323c.013-.016-.108-.14-.273-.276l-2.199-1.845c-.163-.137-.312-.23-.332-.207-.02.023.099.153.262.29l2.197 1.845c.163.137.331.209.344.193M15.598 22.152c.012-.017-.122-.13-.296-.252l-2.35-1.646c-.174-.121-.33-.201-.347-.177-.017.025.11.145.285.267l2.35 1.645c.175.123.347.179.358.163M14.354 24.096c.01-.017-.132-.119-.316-.226l-2.483-1.432c-.184-.107-.347-.172-.362-.147-.015.025.123.135.307.241l2.482 1.432c.185.107.362.149.372.132M20.623 16.772c.015-.012-.081-.157-.217-.323l-.918-1.135c-.134-.166-.263-.286-.286-.268-.023.02.069.17.204.335l.918 1.135c.136.166.284.268.298.256M13.286 26.142c.008-.018-.142-.107-.335-.197l-2.597-1.21c-.193-.09-.361-.142-.374-.114-.013.027.136.122.329.211l2.596 1.212c.193.09.373.115.381.098M20.984 16.484c.016-.012-.08-.158-.21-.326l-.9-1.15c-.13-.169-.256-.291-.28-.272-.024.019.066.17.196.337l.899 1.15c.13.168.28.273.295.262M19.23 17.983c.014-.013-.093-.151-.238-.307l-.997-1.07c-.145-.156-.281-.266-.303-.247-.022.02.08.163.224.32l.998 1.07c.145.155.301.247.316.234M20.268 17.065c.015-.013-.084-.157-.221-.32l-1.845-2.199c-.136-.163-.267-.28-.29-.261-.023.018.07.168.207.331l1.845 2.2c.137.162.288.262.304.249M18.894 18.3c.014-.014-.095-.15-.244-.303l-1.015-1.05c-.148-.154-.286-.263-.307-.243-.02.02.083.163.23.316l1.017 1.051c.147.154.305.245.32.23M12.4 28.272c.006-.018-.152-.093-.353-.166l-2.688-.98c-.2-.072-.372-.108-.382-.081-.01.027.144.11.345.184l2.69.98c.2.072.382.08.388.063M11.206 32.727c.003-.02-.166-.066-.375-.104l-2.823-.497c-.21-.036-.385-.043-.39-.014-.006.03.162.085.371.122l2.824.498c.21.037.39.015.393-.005M11.705 30.474c.006-.02-.158-.08-.364-.136l-2.767-.74c-.205-.055-.38-.077-.388-.048-.008.03.155.097.36.152l2.767.742c.206.054.387.05.392.03M22.098 15.66c.016-.011-.07-.163-.192-.337l-1.645-2.35c-.123-.175-.242-.304-.267-.286-.024.017.054.173.177.348l1.645 2.35c.122.174.266.287.282.275M10.907 35.015c.002-.02-.17-.051-.382-.07l-2.86-.25c-.212-.018-.387-.01-.39.02-.002.03.17.07.38.088l2.86.251c.212.018.39-.02.391-.039M25.26 13.758c.018-.009-.048-.17-.144-.36l-.66-1.297c-.097-.19-.197-.334-.223-.321-.026.013.03.18.128.37l.66 1.295c.097.19.222.322.239.313M30.425 11.78c.02-.005-.01-.178-.065-.383l-.74-2.767c-.055-.206-.125-.367-.154-.36-.03.008-.008.183.047.389l.742 2.767c.054.205.15.36.17.354M29.537 12.033c.018-.006-.017-.176-.08-.38l-.425-1.392c-.062-.203-.136-.362-.163-.354-.027.008 0 .182.063.385l.425 1.392c.062.203.163.355.18.35M29.98 11.902c.018-.006-.015-.178-.073-.383l-.401-1.397c-.059-.205-.13-.366-.158-.357-.03.008-.003.181.056.386l.4 1.399c.059.204.157.358.175.353M28.658 12.318c.019-.007-.023-.177-.092-.378l-.474-1.374c-.069-.2-.149-.357-.177-.348-.027.009.007.181.076.383l.474 1.376c.07.201.175.349.193.342M29.096 12.172c.019-.006-.02-.176-.086-.38l-.45-1.383c-.065-.203-.142-.36-.17-.353-.027.008.004.182.07.384l.45 1.385c.065.202.168.353.186.346M30.871 11.665c.019-.005-.007-.178-.06-.384l-.352-1.414c-.051-.206-.117-.369-.145-.361-.028.007-.01.181.042.387l.352 1.413c.052.207.145.364.163.359M31.772 11.458c.019-.004-.001-.178-.045-.386l-.304-1.424c-.044-.208-.103-.374-.132-.368-.028.006-.015.182.029.39l.302 1.425c.044.209.131.368.15.363M32.225 11.368c.02-.004.001-.178-.04-.387l-.278-1.431c-.041-.209-.097-.375-.126-.37-.028.006-.019.181.022.39l.278 1.43c.04.21.124.37.144.366M31.32 11.557c.02-.004-.004-.177-.051-.385l-.329-1.42c-.047-.207-.11-.371-.138-.364-.029.006-.013.181.035.388l.327 1.419c.049.207.138.365.157.36M28.223 12.47c.019-.006-.025-.175-.098-.375l-.98-2.69c-.072-.2-.155-.356-.183-.345-.028.01.009.181.081.382l.98 2.69c.073.2.182.345.2.339M24.445 14.193c.017-.01-.054-.17-.156-.355l-.706-1.275c-.103-.187-.208-.327-.234-.313-.025.014.038.178.141.364l.707 1.275c.104.187.233.314.25.304M24.044 14.419c.017-.011-.056-.17-.163-.353l-1.433-2.481c-.106-.185-.214-.323-.24-.309-.027.015.04.179.145.363l1.434 2.482c.106.185.24.31.256.299M22.863 15.144c.016-.01-.065-.165-.181-.344l-.795-1.222c-.116-.179-.23-.312-.256-.295-.025.016.05.174.166.352l.796 1.224c.116.18.253.296.27.286M24.85 13.973c.018-.01-.05-.17-.15-.358l-.683-1.287c-.1-.188-.203-.33-.229-.317-.026.014.035.179.136.367l.684 1.286c.1.188.227.318.244.309M23.252 14.897c.016-.011-.062-.167-.175-.348l-.773-1.236c-.112-.181-.225-.316-.25-.3-.025.015.047.176.16.356l.773 1.237c.113.18.249.3.265.29M26.09 13.354c.019-.008-.04-.172-.13-.366l-1.21-2.597c-.09-.193-.186-.34-.214-.327-.027.012.025.18.114.374l1.212 2.596c.09.193.21.329.229.32M26.933 12.978c.018-.007-.035-.174-.118-.37l-.568-1.338c-.083-.197-.174-.348-.2-.335-.027.012.018.18.102.376l.57 1.339c.083.196.197.336.216.328M32.679 11.283c.02-.003.005-.176-.031-.386l-.498-2.824c-.037-.21-.091-.376-.12-.371-.03.004-.025.18.013.39l.497 2.821c.037.21.12.373.139.37M26.51 13.163c.018-.008-.038-.173-.124-.368l-.593-1.33c-.086-.194-.179-.343-.205-.331-.027.012.022.18.108.375l.592 1.33c.087.194.205.333.223.325M27.361 12.802c.018-.007-.033-.175-.113-.372l-.545-1.348c-.08-.198-.167-.35-.194-.338-.027.011.016.18.095.378l.546 1.35c.081.197.193.339.211.331M59.064 14.554l.438-.438c.068-.067.138-.135.212-.198l-.007-.006c-.117.036-.205.06-.302.085l-.766.124-.004.004.43.43zm-.495.497l.356-.357-.608-.609.116-.116 1.422-.252.191.19-.814.815.185.183-.14.139-.184-.183-.356.357-.168-.167zM60.998 15.158l-.5-.5-.387.286c.04.03.079.064.115.1.1.096.173.218.212.352a.528.528 0 01-.15.524c-.256.256-.651.244-.935-.04a.911.911 0 01-.246-.407l.18-.09c.038.132.11.254.207.352.167.167.419.202.595.027.167-.171.175-.407-.087-.668a1.859 1.859 0 00-.196-.168l.714-.542.627.627-.15.147zM13.826 16.752a.834.834 0 00.373-.207c.228-.229.154-.445.043-.552-.186-.18-.43-.094-.6.077l-.1.1-.133-.134.1-.098c.13-.13.225-.359.07-.514-.104-.105-.263-.131-.426.032a.685.685 0 00-.176.349l-.175-.083c.018-.12.1-.303.241-.444.259-.257.528-.221.688-.062.136.136.169.33.066.55l.004.005c.194-.13.446-.14.63.044.21.21.23.557-.086.871a.942.942 0 01-.429.252l-.09-.186z" />
                        <polygon
                            points="14.2620961 14.4321865 14.258027 14.4362557 14.1527716 14.7875589 13.9840376 14.686644 14.1169631 14.2463621 14.2686067 14.0955323 15.5786015 15.4063408 15.4074259 15.5775164" />
                        <path
                            d="M15.678 12.984l-.5.5.286.388a.904.904 0 01.099-.116.787.787 0 01.352-.21.526.526 0 01.525.149c.255.255.244.65-.041.934a.912.912 0 01-.407.248l-.09-.18a.826.826 0 00.352-.209c.168-.167.201-.42.027-.594-.171-.168-.405-.175-.667.087a1.78 1.78 0 00-.167.195l-.545-.714.627-.627.149.15zM19.952 11.39a.832.832 0 00.414-.104c.28-.16.264-.39.184-.52-.132-.224-.39-.203-.6-.082l-.12.07-.095-.163.121-.07c.158-.09.31-.288.201-.478-.074-.128-.22-.195-.42-.08a.68.68 0 00-.261.292l-.147-.125a.874.874 0 01.348-.366c.316-.182.568-.077.68.118.096.165.078.362-.078.548l.002.005c.221-.075.467-.019.597.206.148.257.077.596-.307.82a.953.953 0 01-.48.132l-.039-.203zM21.22 10.658a.828.828 0 00.413-.103c.28-.162.264-.39.184-.521-.132-.224-.39-.203-.6-.082l-.12.07-.095-.162.121-.07c.158-.092.312-.288.202-.478-.075-.129-.222-.196-.422-.08a.688.688 0 00-.26.291l-.148-.125a.877.877 0 01.349-.366c.316-.182.568-.077.68.119.096.165.079.362-.078.547l.002.006c.221-.074.467-.02.597.205.149.258.078.597-.307.82a.947.947 0 01-.48.133l-.038-.204zM22.315 9.298c.24.418.507.58.703.467.223-.128.18-.449-.057-.859-.228-.395-.48-.597-.705-.466-.19.11-.194.421.058.858m.857-.527c.316.545.287.963-.068 1.169-.314.18-.697.01-1.008-.519-.31-.538-.25-.968.076-1.156.339-.195.705-.005 1 .506M9.296 23.516a.845.845 0 00.307-.299c.162-.278.033-.467-.102-.542-.226-.128-.44.02-.56.229l-.07.121-.163-.094.07-.121c.091-.157.126-.405-.065-.515-.128-.075-.289-.06-.405.14a.678.678 0 00-.079.383l-.19-.034a.882.882 0 01.12-.492c.182-.315.452-.35.648-.238.165.096.248.276.206.515l.005.004c.154-.176.394-.25.62-.12.255.148.365.478.143.863a.943.943 0 01-.35.355l-.135-.155zM9.564 21.79c.418.241.73.25.841.052.13-.222-.069-.477-.479-.714-.394-.229-.712-.277-.84-.053-.11.19.042.464.478.715m.479-.886c.545.316.73.692.525 1.048-.181.313-.597.356-1.131.054-.54-.31-.702-.714-.512-1.04.195-.338.607-.356 1.118-.062M10.296 20.522c.417.241.729.25.843.053.128-.223-.07-.48-.48-.715-.395-.229-.713-.277-.842-.052-.11.19.042.462.479.714m.479-.886c.545.315.73.692.524 1.048-.18.313-.596.355-1.131.054-.538-.309-.7-.712-.51-1.038.194-.339.607-.358 1.118-.063M27.258 7.797c.14.04.286.042.427.007.311-.083.354-.308.312-.456-.07-.25-.326-.297-.559-.234l-.135.037-.048-.182.135-.037c.177-.047.375-.198.319-.41-.04-.143-.163-.244-.386-.186a.682.682 0 00-.326.215l-.11-.16a.87.87 0 01.431-.262c.353-.095.568.071.627.29.049.184-.019.37-.217.51l.002.005c.231-.015.455.102.521.353.078.286-.079.597-.508.711a.939.939 0 01-.498.004l.013-.205zM29.255 6.834l-.16-.597a4.787 4.787 0 01-.066-.284l-.008.003a5.11 5.11 0 01-.079.304l-.274.726.001.005.586-.157zm.182.678l-.13-.488-.833.223-.042-.16.492-1.357.262-.07.299 1.112.25-.067.051.19-.25.067.13.488-.229.062zM30.745 5.46l-.683.183.054.479c.046-.02.094-.037.143-.05a.762.762 0 01.411-.006.527.527 0 01.38.39c.094.35-.114.686-.502.79a.916.916 0 01-.476.01l.011-.2a.834.834 0 00.41-.004c.229-.062.384-.262.32-.502-.065-.23-.263-.355-.621-.26a1.902 1.902 0 00-.244.087l-.115-.89.857-.23.055.204zM6.934 31.354l-.149-.04-.133-.24c-.313-.573-.489-.84-.76-.916-.182-.05-.373-.006-.445.26a.637.637 0 00.05.422l-.192.031a.814.814 0 01-.045-.556c.103-.385.411-.477.666-.407.331.088.534.4.797.874l.094.18h.005l.215-.804.202.054-.305 1.142zM7.099 28.875c-.217-.059-.363.064-.496.288.004.226.111.375.283.422.179.056.375-.038.437-.267.058-.217-.042-.395-.224-.443m-1.073.426c.179.048.31-.062.422-.252-.012-.17-.09-.318-.252-.361-.144-.037-.315.007-.374.225-.054.201.05.347.204.388m.434.057c-.147.173-.326.217-.478.176-.284-.076-.412-.367-.329-.681.093-.348.357-.461.58-.403.152.04.294.158.34.407l.008.002c.149-.2.343-.294.56-.237.31.084.449.407.357.749-.1.375-.384.54-.645.47-.226-.06-.35-.237-.384-.483h-.01zM6.39 27.034l-.182.683.441.193a.99.99 0 01.029-.15.789.789 0 01.2-.36.527.527 0 01.527-.132c.35.094.538.441.434.83a.9.9 0 01-.23.417l-.168-.11a.823.823 0 00.201-.357c.061-.228-.035-.464-.274-.528-.233-.06-.439.05-.535.41-.02.083-.036.167-.046.252l-.829-.345.23-.856.203.053zM63.676 21.118c.109.186.336.221.566.09.23-.133.292-.345.176-.543a.412.412 0 00-.376-.197c-.04 0-.078.01-.111.03-.262.158-.387.392-.256.618l.001.002zm1.527-.384a.969.969 0 00-.103-.158.753.753 0 00-.893-.228l.004.008a.55.55 0 01.408.28c.165.284.075.602-.238.783-.294.17-.68.127-.874-.207-.198-.343-.06-.721.357-.963.316-.181.63-.212.88-.146.214.063.402.196.533.377.038.048.073.099.104.152l-.178.102zM64.862 21.66c-.418.24-.58.505-.467.703.129.222.45.178.86-.057.394-.23.596-.48.466-.706-.11-.19-.422-.194-.859.058m.528.858c-.547.314-.964.286-1.17-.07-.18-.313-.01-.696.52-1.006.537-.312.968-.25 1.156.076.195.338.005.705-.506 1M51.597 9.686a.841.841 0 00.298.307c.28.16.468.033.543-.102.126-.227-.02-.44-.23-.561l-.122-.07.095-.162.12.07c.159.09.408.125.516-.065.074-.128.058-.29-.142-.404a.678.678 0 00-.382-.08l.034-.19a.878.878 0 01.492.119c.315.183.35.453.238.648-.096.165-.276.25-.516.207l-.003.005c.175.153.25.394.12.619-.149.256-.478.366-.863.143a.941.941 0 01-.355-.349l.157-.135zM53.323 9.954c-.24.418-.25.73-.052.843.222.128.478-.07.714-.48.23-.395.277-.712.053-.842-.19-.11-.461.042-.715.48m.886.478c-.315.546-.692.73-1.048.525-.313-.181-.356-.597-.054-1.132.311-.538.714-.7 1.04-.512.338.195.357.608.062 1.119" />
                        <polygon
                            points="68.7566826 28.6291763 68.5969007 28.6717667 66.7579166 28.3294156 66.6909113 28.0782135 68.4818794 28.4311443 68.48839 28.4295167 68.2526507 27.5541071 68.4542092 27.4995805" />
                        <path
                            d="M68.906 30.003l-.183-.683-.478.055c.02.046.037.094.05.142a.795.795 0 01.008.412.529.529 0 01-.393.38c-.35.092-.685-.115-.79-.503a.914.914 0 01-.009-.476l.201.011a.836.836 0 00.003.41c.061.228.264.384.503.32.23-.066.354-.264.258-.623a1.816 1.816 0 00-.086-.242l.89-.115.23.857-.204.055z" />
                        <polygon
                            points="44.4052671 5.64038312 44.4020118 5.83787249 44.7590118 5.75296291 44.7638948 5.75377674 44.3450437 7.31795763 44.5788841 7.38170763 45.0590437 5.59155333 44.8520597 5.53539908" />
                        <path
                            d="M46.726 6.256l-.683-.183-.192.442c.05.005.1.014.15.027.135.033.26.102.359.2.119.117.193.303.133.529-.094.35-.442.537-.83.434a.91.91 0 01-.418-.23l.11-.169a.83.83 0 00.357.202c.228.061.464-.035.528-.274.059-.232-.05-.44-.408-.535a1.854 1.854 0 00-.254-.047l.346-.829.857.23-.055.203zM57.304 18.916l.019.022.428-1.188.492-1.369-1.369.493-1.186.428.022.018c.552.51 1.083 1.043 1.593 1.596M16.344 16.471l.493 1.369.382 1.061.02-.021c.483-.524.987-1.03 1.512-1.515l.02-.02-1.058-.382-1.37-.492z" />
                        <path
                            d="M49.009 33.585l7.612-4.735-10.22 2.61 8.81-12.514a25.537 25.537 0 017.392 16.493l-13.594-1.854zm-10.24 2.687l2.572-2.957 18.948 3.077-21.52-.12zm-5.2-2.985l3.28-20.771.313 24.209-3.594-3.438zm-3.45-.19l-6.85-9.405 9.19 9.058-2.34.347zm-4.883.645L11.741 35.52c.37-6.325 3-12.034 7.125-16.3l9.238 12.399-10.068-2.106 7.199 4.232M35.402 11.53l-1.787 13.692-4.634-7.453c-.02.055 2.623 10.297 2.628 10.324l-12.52-9.101a25.373 25.373 0 0116.314-7.462M50.787 23.1l-9.028 9.212-.353-2.34 9.38-6.873zm4.246-4.343L42.81 27.945c.005-.027 2.41-10.577 2.41-10.577l-4.53 7.818-2.052-13.675a25.38 25.38 0 0116.395 7.246m9.213 16.909C63.553 21.683 52.363 10.49 38.391 9.867L36.91 0l-1.292 9.881c-13.823.787-24.86 11.936-25.513 25.856L0 37.07l74.495.02-10.249-1.424z" />
                    </g>
                </g>
            </g>
        </g>
    </svg>