<svg width="783" height="347" viewBox="0 0 783 347" xmlns="http://www.w3.org/2000/svg" xmlns:xlink="http://www.w3.org/1999/xlink">
  <defs>
    <linearGradient x1="0%" y1="94.287%" x2="50%" y2="94.287%" id="c">
      <stop stop-color="#A2BB68" offset="0%"/>
      <stop stop-color="#D7478C" offset="100%"/>
    </linearGradient>
    <rect id="a" x="0" y=".885" width="790" height="361"/>
  </defs>
  <g fill="none" fill-rule="evenodd">
    <g transform="translate(-324 -25)">
      <g transform="translate(324 10)">
        <mask id="b" fill="#fff">
          <use xlink:href="#a"/>
        </mask>
        <g mask="url(#b)" fill="url(#c)">
          <g transform="translate(0 15.885)">
            <path d="M222.943 12.07c.45 0 .852.306.965.753 1.236 4.87.577 9.057-.121 13.49-.458 2.911-.93 5.91-.839 9.196 1.146-.453 1.865-1.293 2.292-1.997.848-1.398 1.16-3.253.856-4.851-.19.05-.397.094-.623.1a.999.999 0 01-.963-1.34c2.48-6.796 4.04-12.136 1.466-18.734-1.96-1.624-4.73-3.276-8.24-4.91-1.267-.591-2.488-.742-3.78-.9-1.105-.136-2.241-.276-3.423-.698l-.07.113c-.168.267-.358.57-.63.816a.995.995 0 01-1.268.061c-.53-.398-1.045-.52-1.57-.375-.88.244-1.768 1.232-2.316 2.577a.996.996 0 01-.987.62c-3.528-.242-7.391 5.03-8.23 9.532-.334 1.795-.478 4.937 2.314 5.817a.999.999 0 01-.492 1.93c-1.127-.221-2.647-.279-3.494.705-.763.888-.873 2.535-.279 4.196.589 1.646 1.97 3.535 4.084 3.904.21.037.396.138.539.282-.27-8.078 1.807-16.355 4.152-21.925a.997.997 0 011.295-.536c5.033 2.055 12.235 2.87 19.263 2.179a.931.931 0 01.099-.005zm466.994 23.762c1.53 0 3.31.268 5.39.804 11.292 2.913 11.192 11.105 10.04 19.963-.04.313-.149 1.085-.353 2.145a.999.999 0 01.558-.27c1.092-.15 2.513-1.882 3.305-4.028.659-1.791.733-3.482.175-4.11-.28-.314-.813-.38-1.586-.194a.992.992 0 01-.892-.224.99.99 0 01-.329-.861c.194-1.688.738-3.427 1.266-5.108 1.117-3.56 2.17-6.921.334-10.038-2.891-4.92-7.304-5.255-12.753-5.178-5.33.073-9.019 1.397-11.292 4.049-2.727 3.188-3.151 8.047-2.767 13.293.01-.03.015-.06.025-.09.947-3.98 1.77-7.42 4.576-9.11 1.152-.696 2.568-1.043 4.303-1.043zm-491.27 1.753c-.099 1.799-.358 3.665-.612 5.5-.82 5.905-1.595 11.483 2.31 14.796 3.317 2.813 6.861 2.418 9.252 1.591 3.335-1.154 6.47-3.875 8.44-7.071.069-.985.11-1.999.155-3.035.046-1.097.093-2.207.173-3.325-1.88 2.014-4.442 3.171-7.374 3.214h-.172c-5.349 0-10.071-3.595-11.52-8.795a30.58 30.58 0 01-.651-2.875zM97.553 60.863c-.067.21-.123.422-.168.633.566-.108 1.165-.16 1.783-.166a15.705 15.705 0 01-1.615-.467zM64.23 49.959c-.478 4.056-.45 8.206-.198 12.822.017.31.03.617.041.92a.928.928 0 01.158-.006c.778-.88 1.397-1.827 1.782-2.848.6-1.595.58-3.198.288-4.836-1.109-1.844-1.866-3.912-2.071-6.052zm491.903 7.661a.98.98 0 01-.26.199c-1.296.7-1.52 2.296-1.166 3.567.264.957.942 2.018 2.064 2.442-.19-1.484-.329-2.962-.464-4.401-.06-.606-.114-1.21-.174-1.807zm-253.13-20.674c-4.095 0-7.02 5.802-7.402 11.305-.31 4.475 1.045 9.848 5.88 10.268a.998.998 0 01.04 1.985c-.836.106-1.337.384-1.49.826-.242.697.262 1.923 1.171 2.852.89.91 1.955 1.34 2.712 1.094a.977.977 0 01.348-.049c-.986-1.953-1.649-4.072-1.877-6.192-.292-2.693.3-5.168.87-7.561.572-2.395 1.113-4.658.673-6.86a.998.998 0 011.903-.568c1.164 2.91 5.045 2.646 9.996 1.998 1.245-.162 2.421-.316 3.442-.351 6.83-.236 9.636 1.318 11.616 7.02.848-1.73 1.114-3.95.747-6.442-.69-4.7-3.458-9.357-6.73-11.324-3.012-1.812-12.45-3.188-17.523-1.342-1.693.616-2.755 1.517-3.155 2.677a1 1 0 01-.994.67 4.292 4.292 0 00-.226-.006zM56.895 58.743c.127 0 .253.024.373.072 2.565 1.032 3.407 2.822 3.662 4.142.152.786.137 1.63-.03 2.487.407-.213.81-.432 1.205-.657a44.818 44.818 0 00-.063-1.898c-.509-9.326-.123-16.834 3.367-25.434 1.92-4.73 4.377-7.635 7.512-8.883 3.037-1.21 6.645-.824 11.031 1.177a32.3 32.3 0 002.354.942c3.444 1.268 5.202 2.22 4.362 8.442-.287 2.119-1.052 4.243-1.792 6.298-.738 2.05-1.435 3.984-1.684 5.882-.663 5.035 2.373 9.532 6.706 12.612.184-.425.426-.8.743-1.109.193-.188.402-.354.625-.503a8.909 8.909 0 01.813-3.157.997.997 0 011.294-.499c.755.32 2.399.928 4.138 1.003-3.508-4.984-3.136-10.518-2.775-15.886.212-3.154.432-6.415-.09-9.652-.716-4.454-4.08-11.739-8.531-13.832-1.95-.918-3.896-.776-5.946.433a.995.995 0 01-1.44-.51c-.926-2.474-2.618-3.915-5.03-4.28-5.431-.827-12.926 3.85-15.702 7.432-1.132 1.46-2.02 2.997-2.88 4.484-1.077 1.86-2.19 3.783-3.777 5.559-2.43 2.72-3.506 4.349-4.692 7.312 1.48.069 2.942.065 4.363-.012a.997.997 0 01.89 1.54c-.921 1.421-2.127 2.486-3.293 3.516-2.23 1.97-3.993 3.525-3.58 6.991.335 2.807 3.508 6.054 5.854 8.351.114-.167.234-.333.351-.498.295-.41.628-.876.703-1.14a.999.999 0 01.96-.725zm523.903 6.85c.214.037.429.097.623.16.15-.305.314-.623.484-.951 1.82-3.56 3.195-6.684 1.72-8.546-.16.143-.334.29-.529.414a.997.997 0 01-1.53-.854c.06-6.755-1.795-12.268-5.096-15.125-2.338-2.025-5.42-2.757-9.148-2.18-4.592.712-10.515 4.38-12.474 9.288-1.147 2.868-.758 5.653 1.156 8.28-.244-5.112 1.546-9.881 4.707-12.363 1.93-1.52 5.304-2.95 10.4-1.128 6.955 2.486 10.35 9.323 9.811 19.77-.05 1.062-.09 2.131-.124 3.235zM446.499 36.235a6.82 6.82 0 00-.301.007c-7.056.315-12.084 12.072-12.917 18.565-.704 5.495 1.059 9.27 4.964 10.628 3.288 1.144 7.98.316 11.83-2.591.28-.567.56-1.123.832-1.663 1.11-2.206 2.158-4.29 2.52-5.647.976-3.662.976-12.754-2.5-17.08-1.197-1.491-2.648-2.219-4.428-2.219zm237.49 24.46c.718 4.168 2.204 8.738 4.98 10.977 1.526 1.231 3.281 1.61 5.355 1.164 1.117-.24 2.114-.816 3.007-1.627 1.221-2.083 2.238-4.467 3.04-6.671-1.789 2.452-3.898 4.625-5.787 4.72-2.787.14-4.961.25-7.085-1.703-1.954-1.79-2.677-4.143-3.44-6.634a3.83 3.83 0 00-.07-.227zM65.296 65.481c.796 4.96 3.79 8.46 8.319 9.668 4.496 1.2 9.464-.292 11.813-3.549 2.259-3.132 1.972-7.439-.781-12.239-2.548 3.53-6.215 4.793-10.267 3.466-2.086-.683-4.175-2.091-5.914-3.953a9.563 9.563 0 01-.587 2.675c-.549 1.459-1.457 2.758-2.583 3.932zm493.818.51c.828 4.601 2.448 8.845 6.497 11.762 2.333 1.68 4.312 2.229 6.052 1.677 3.355-1.062 5.474-6.114 7.035-10.493.025-.69.045-1.38.065-2.065.044-1.529.094-3.11.17-4.617.338-6.609-.863-15.06-8.496-17.789-3.35-1.198-6.292-.915-8.496.819-2.857 2.243-4.372 6.823-3.874 11.67.08.753.15 1.516.225 2.283.164 1.735.329 3.484.573 5.2.105.148.17.326.18.52.014.317.04.664.07 1.033zM451.71 64.05c-3.38 6.938-5.415 12.73-1.149 15.184 1.482.853 3.185.909 5.025.578l.008-.82c.008-.748.016-1.493.028-2.237-2.145-3.533-2.85-9.353-2.36-14.096-.493.494-1.012.959-1.552 1.391zM315.465 75.74a4.24 4.24 0 00-.881 1.098c-.507.913-.608 1.924-.284 2.847.051.148.1.282.148.404.584-1.336.921-2.885 1.017-4.35zm4.89 2.42c1.06.832 1.283 2.247 1.272 3.565.559-.46.884-1.118 1.012-1.72.181-.846-.008-1.616-.471-1.918-.402-.261-1.033-.228-1.812.073zm-12.586 3.271c1.525.244 2.916.859 4.219 1.7.09-.05.179-.106.266-.165.346-.235.663-.525.953-.857-.315-.5-.565-1.122-.79-1.764-.514-1.469-.363-3.058.424-4.477a6.22 6.22 0 011.48-1.773 17.645 17.645 0 01-2.65-1.081c-1.344-.685-2.61-1.623-3.75-2.743.924 2.432 1.196 5.134.745 7.872a16.608 16.608 0 01-.897 3.288zm-66.786-1.71c-1.934.728-2.878 3.48-3.293 6.954 1.77-2.358 3.4-4.752 3.293-6.953zm313.754-1.124c-.718.513-1.381 1.012-1.86 1.549-2.488 2.804-4.382 6.585-6.217 10.242l-.688 1.366c3.884-1.367 8.067-1.824 11.811-1.063-3.021-3.528-4.946-7.37-3.046-12.094zm145.884 5.791a1.01 1.01 0 01.838.455c1.117 1.727 1.94 3.735 2.732 5.677.494 1.217.977 2.393 1.506 3.456.244-.817.508-1.677.782-2.562 1.63-5.259 3.66-11.803 2.229-15.73a14.82 14.82 0 00-.474-1.126c-.324-.38-.648-.748-.967-1.098-1.132 2.735-3.066 5.18-4.95 7.558-.913 1.154-1.776 2.245-2.518 3.333-.205.298-.4.6-.594.907.265-.227.529-.447.803-.66a.998.998 0 01.613-.21zm-386.93 0c1.499 1.234 2.898 2.71 4.277 4.163 2.42 2.551 4.709 4.963 7.302 5.903-.313-.383-.64-.76-.985-1.127-1.092-1.168-2.28-2.154-3.428-3.107-2.565-2.13-5.032-4.178-4.995-7.407-.283.225-.6.367-.968.379a7.254 7.254 0 01-1.204 1.195zm5.14-4.807c-2.32 4.438-.166 6.225 3.3 9.103 1.14.946 2.432 2.019 3.61 3.278a24.82 24.82 0 012.173 2.688c1-.321 1.777-1.146 2.749-2.177.884-.938 1.876-1.991 3.22-2.752-3.849-5.015-6.913-10.956-7.505-17.207a8.352 8.352 0 01-.502.409c-2.366 1.774-5.423 2.227-8.389 1.866.006.925-.078 1.897-.252 2.862 3.107-2.24 4.989-1.91 6.022-1.236 1.167.76 1.69 2.334 1.333 4.007-.432 2.02-1.961 3.522-3.898 3.827a.995.995 0 01-1.148-1.073c.207-2.355.07-3.271-.712-3.595zm-140.32 6.261c-.478 2.483.307 6.014 1.45 9.635.362-3.84.194-7.312-1.45-9.635zm243.568-6.515c5.465 1.03 6.988 5.597 8.472 10.042.597 1.793 1.215 3.647 2.091 5.373a9.597 9.597 0 001.4 2.043 44.33 44.33 0 01-1.153-3.546c-1.087-3.912-1.046-8.165-1.005-12.28.03-3.102.058-6.082-.355-8.883-1.977 3.568-5.782 5.557-9.45 7.25zM48.847 92.304c2.766 1.099 5.327 3.564 7.438 6.629.076-.447.157-.889.243-1.327 1.398-7.124 3.025-13.755 7.516-16.615 2.324-1.479 5.237-1.798 8.658-.947 10.13 2.52 16.468.607 19.944-6.019.62-1.182.636-3.167.652-5.086.008-1.025.016-2.027.113-2.94-5.224-3.475-9.001-8.842-8.198-14.947.278-2.11 1.045-4.24 1.786-6.298.705-1.957 1.434-3.98 1.691-5.888.665-4.925-.201-5.244-3.074-6.302-.734-.27-1.565-.576-2.492-.999-3.865-1.763-6.962-2.136-9.467-1.138-2.603 1.036-4.697 3.58-6.4 7.78a44.676 44.676 0 00-2.508 8.396.997.997 0 011.496.753c.156 1.442.585 2.903 1.039 4.45.333 1.135.67 2.283.903 3.448 1.701 2.699 4.26 4.84 6.812 5.677 3.605 1.18 6.726-.217 8.789-3.936a.996.996 0 011.706-.064c5.376 8.197 3.28 13.441 1.552 15.838-2.86 3.966-8.595 5.739-13.946 4.31-4.415-1.178-7.66-4.321-9.13-8.678-.854 9.937-5.833 16.058-14.155 23.07-.32.27-.643.548-.968.833zm61.127-.932c-.155 2.198.465 4.513 1.116 6.945.223.834.45 1.679.644 2.528.28-4.04.024-7.293-1.142-8.886a2.15 2.15 0 00-.618-.587zm-65.47 2.197c-3.202.016-6.03 1.38-8.435 4.072-1.76 1.97-3.178 4.565-4.248 7.436 3.457-2.682 6.8-5.886 9.947-8.901.93-.893 1.841-1.766 2.735-2.607zm425.891-2.737c-2.455 1.918-1.659 8.826-1.068 13.958.057.492.112.97.163 1.432 1.749-4.992 3.316-12.434.905-15.39zM25.257 109.306c-1.088.052-2.183.397-3.026.983-.163.113-.337.25-.505.412a21.89 21.89 0 003.531-1.395zm329.865 3.458c.11.495.195.988.254 1.478.01.082.019.163.027.245.063-.2.121-.402.176-.604-.154-.37-.308-.743-.457-1.12zm83.32-10.817c1.08 2.237 2.25 4.445 3.402 6.622 1.062 2.005 2.155 4.068 3.16 6.12 2.519-2.191 5.03-6.867 7.49-13.944-3.43 2.01-7.942 2.677-12.193 1.73a16.68 16.68 0 01-1.86-.528zm-203.418 13.185l.217.018c.303-2.853.487-5.838.648-8.98.062-1.212-.05-3.207-.178-5.518-.12-2.137-.254-4.534-.292-6.953a6.044 6.044 0 00-.33 1.066c-1.218 6.01-1.236 13.734-.065 20.367zm434.462-.925c.05.877.24 1.634.648 2.145.19.233.429.412.723.538a11.526 11.526 0 00-1.371-2.683zm-249.912-7.181c-.585 2.194.942 4.568 2.307 6.69l.232.362c.2.31.21.706.03 1.027a7.594 7.594 0 01-1.903 2.233c2.271-.421 4.797-.383 7.368-.114-.964-1.201-1.755-2.597-2.533-3.968-1.517-2.676-2.958-5.217-5.501-6.23zm250.111 4.34c1.62 1.56 2.842 3.724 3.495 6.32.733-.088 1.451-.173 2.154-.25-2.378-5.352-3.973-7.935-5.035-9.101-.205.887-.444 1.953-.614 3.03zm-14.991 5.71c4.237 1.781 9.427 1.597 14.433 1.078a3.714 3.714 0 01-.543-.548c-1.097-1.36-1.242-3.366-1.022-5.434-1.092-.83-2.344-1.347-3.695-1.49-3.535-.377-6.955 1.943-8.929 6.052l-.015.034h-.005a.991.991 0 01-.224.309zm-184.917-6.361l-.003.068a72.405 72.405 0 01-.13 1.98c-.23 3.002-.23 3.002 2.99 5.015.697.436 1.796.828 2.96 1.244 1.137.408 2.335.836 3.417 1.383l.134-.212c4.352-6.943 4.188-17.129 2.092-24.143-1.07-3.582-5.133-15.11-12.507-13.1-4.284 1.168-6.517 4.996-8.882 9.05-1.338 2.291-2.712 4.647-4.507 6.502-3.244 10.204-6.575 16.274-10.178 18.555a.996.996 0 01-1.434-.416c-1.122-2.371-2.406-4.794-3.646-7.137-1.535-2.898-3.099-5.85-4.455-8.867-2.082-1.249-3.733-2.958-4.764-4.991-.942-1.859-1.584-3.783-2.205-5.645-1.854-5.558-3.194-9.575-10.747-8.8a.998.998 0 01-.542-1.888 94.19 94.19 0 012.706-1.265c4.798-2.182 9.76-4.438 10.68-9.733a.998.998 0 011.933-.13c1.273 4.015 1.23 8.478 1.188 12.793-.038 3.976-.078 8.086.933 11.727.61 2.196 1.433 4.37 2.375 6.522a13.978 13.978 0 003.55 1.3c4.317.962 8.914.062 11.997-2.347.296-.232.58-.48.854-.742 1.586-5.139 1.88-10.42 1.971-15.6-2.091.326-4.124.2-5.99-.873-5.147-2.962-3.576-9.112-1.035-14.857-3.575 1.829-7.569 2.386-10.941 1.213-4.821-1.677-7.113-6.33-6.288-12.768.884-6.89 6.134-19.919 14.807-20.305 2.56-.114 4.705.88 6.372 2.954 3.946 4.913 3.968 14.73 2.872 18.846-.14.526-.352 1.11-.617 1.746a.997.997 0 011.286 1.262c-1.493 4.342-1.185 12.838 1.436 16.875.108.167.164.361.161.56-.014.838-.022 1.679-.031 2.522l-.004.32c1.05-.302 2.13-.676 3.23-1.057 2.108-.73 4.248-1.472 6.305-1.727-2.098-.822-4.35-1.897-5.663-4.95-1.263-2.938-1.049-7.612-.86-11.736.09-1.91.172-3.712.1-5.132-.802-15.887-3.993-20.976-6.53-22.448-1.494-.866-3.241-.77-5.34.297a.998.998 0 01-1.342-.44c-.947-1.874-2.408-2.955-4.342-3.214-3.694-.496-8.528 2.12-11.065 4.933-6.015 6.67-7.448 14.816-8.967 23.44-1.405 7.983-2.858 16.237-8.327 22.984-5.088 6.28-4.748 12.844-4.318 21.153l.076 1.478c.031.634.045 1.419.06 2.328.053 3.254.144 8.7 1.423 10.435.705.954 2.053 1.464 3.606 1.37 1.434-.09 3.292-.78 4.46-2.426-1.626-2.53-3.73-5.939-1.986-9.289a.995.995 0 011.122-.508c3.904.96 5.774 4.257 7.582 7.446 1.246 2.197 2.43 4.284 4.186 5.42 1.923.318 3.818.708 5.598 1.075l1.4.287c5.32.135 11.983-.594 15.15-.94l.154-.018c6.486-.709 11.45-2.34 14.496-7.895-.002-1.32-.219-3.201-.447-5.18-.743-6.455-1.669-14.488 2.835-16.352a.997.997 0 011.018.153c5.23 4.344.808 17.53-1.395 21.841l-.027.054zm-20.866 9.838c1.972.164 4.045.275 6.132.282h.034c2.021 0 3.896-.563 5.71-1.108 2.045-.615 4.158-1.25 6.509-1.109 1.602.098 3.2.58 4.715 1.101a6.798 6.798 0 01-.433-.248c-3.413-2.134-4.064-2.947-4.003-5.454-3.704 4.309-8.893 5.496-14.062 6.062l-.153.016c-1.185.13-2.723.298-4.449.458zm-212.58.96l-.071.346c.783-.231 1.494-.472 2.076-.795-.556.025-1.195.205-2.006.45zm92.698-25.16c1.236 2.026 2.249 4.144 3.242 6.221.855 1.787 1.738 3.635 2.742 5.37 2.97 5.137 9.218 13.933 13.79 14.32 1.122.092 2.073-.355 2.918-1.374 1.416-1.706 1.98-3.863 1.674-6.41-.625-5.234-4.918-11.28-8.707-14.1-3.02-2.248-6.458-5.366-9.539-9.074-1.22.61-2.144 1.59-3.036 2.537-.888.943-1.838 1.951-3.084 2.51zm-271.49 8.935c-.4 5.768-.054 11.82 1.022 17.299 1.834-2.952 2.021-7.714.44-13.223a33.373 33.373 0 00-1.463-4.076zm653.487 15.174c.065.715.658 1.383 1.157 1.826.154.137.319.27.493.4 1.047-2.478 2.389-4.887 3.82-7.233.393-.642 1.071-1.515 1.924-2.62 2.333-3.018 6.68-8.635 5.255-10.74-.424-.627-.713-.605-.813-.595-.334.03-2.159.533-5.374 7.672-.394.87-.753 1.81-1.097 2.719-.589 1.543-1.197 3.14-2.034 4.585-.19.329-.584.762-1.322 1.563-.588.639-1.784 1.94-2.009 2.423zm-237.865.396c.409.133.807.292 1.195.48.908.442 1.88 1.074 2.803 1.838.252-.36.502-.723.749-1.088-.93-.45-1.986-.828-2.985-1.186a36.926 36.926 0 01-2.09-.793c.127.126.22.285.265.462.024.096.045.192.063.287zm-443.763-2.544c-.02 1.805.095 3.526.348 5.081.258-1.247.139-2.962-.348-5.081zm573.68-7.173c-.09 0-.14.033-.18.057-1.436.923-1.99 6.55-2.104 12.23 1.755-4.504 4.328-11.178 2.717-12.133-.204-.119-.339-.154-.433-.154zm-422.308-7.368c-.814 4.99-1.51 10.007-.203 13.317.93 2.352 2.08 4.858 3.46 7.534-.003-5.022-.469-10.328-1.378-14.878-.313-1.565-1.044-3.678-1.88-5.973zm176.906 9.954c.642 1.533 1.283 3.122 1.572 4.853.393 2.355.102 4.72-.428 7.056 4.25-4.028 4.42-9.526 3.735-13.605-1.522-9.06-8.696-18.51-15.668-20.638-2.889-.881-6.683-1.44-9.723-.777 2.842 3.313 5.963 6.115 8.714 8.162 3.044 2.267 6.448 6.447 8.27 10.914a11.267 11.267 0 01-.21-3.644.997.997 0 011.407-.798l.264.123c.366.172.654.308 1.044.417.322.089.576.334.68.651.868 2.662.847 5.054.343 7.286zm120.95 10.83a12.423 12.423 0 011.777 2.392c.366-.82.418-1.63.16-2.443-.163-.516-.504-.964-.963-1.36-.32.475-.645.945-.973 1.41zm-127.05 2.948c1.3 1.228 2.679 1.257 4.693.058.834-2.997 1.478-5.86 1.012-8.654a13.52 13.52 0 00-.572-2.182c-.654 1.598-1.477 3.13-2.29 4.646-1.056 1.967-2.145 3.995-2.844 6.132zm-50.49-37.975c1.448 6.487 10.984 14.03 15.135 17.311 2.636 2.085 5.145 4.364 7.572 6.568 3.29 2.987 6.691 6.076 10.4 8.664 5.187 3.62 11.11 7.401 16.83 7.533a6.778 6.778 0 01-1.32-1.173.998.998 0 01-.21-.94c.357-1.228.83-2.399 1.358-3.532-.69.26-1.43.359-2.216.291-6.499-.548-13.925-12.847-15.348-15.307-1.043-1.804-1.944-3.687-2.815-5.509-1.11-2.322-2.183-4.564-3.517-6.644-.681-.003-1.437-.134-2.287-.433-3.07-1.085-5.65-3.804-8.146-6.434-1.592-1.678-3.14-3.309-4.77-4.532-1.369.415-3.198.421-5.505-.685a1.124 1.124 0 01-.124-.071c-1.316 2.005-3.041 3.703-5.037 4.893zm231.799 20.878c-2.817 4.742-.045 10.263 2.637 15.611.638 1.27 1.257 2.502 1.785 3.696.913-8.076.693-15.946-4.422-19.307zM320.85 124.751c-1.694 1.18-3.252 3.161-4.331 5.517 1.84-.486 3.154-1.627 3.842-3.357a7.538 7.538 0 00.489-2.16zm156.591 1.46c-.452.625-.906 1.242-1.355 1.854-1.175 1.597-2.321 3.157-3.397 4.747 2.414-1.071 4.464-2.276 5.92-3.583.163-.147.318-.293.462-.438-.336-.89-.92-1.772-1.63-2.58zm1.749 5.133c-1.02.801-2.235 1.56-3.599 2.27 1.479-.217 2.741-.65 3.403-1.844a3.05 3.05 0 00.196-.426zm195.36-4.778c-.917.96-1.63 1.988-2.019 3.052-.538 1.474-.394 2.87.449 4.23.558-1.891.942-3.93 1.316-5.917l.254-1.365zM424 119.014c-2.559 0-4.897.39-6.712 1.46-1.886 1.11-2.687 2.661-2.379 4.611.565 3.587 4.725 7.664 8.727 8.554 6.205 1.38 12.4-1.152 18.39-3.6 1.612-.658 3.28-1.339 4.913-1.929 1.706-.615 3.734-1.544 5.882-2.527 4.3-1.967 9.25-4.234 13.808-4.989h-.008c-1.787 0-3.479.509-5.261 1.044-1.951.587-3.968 1.193-6.281 1.193h-.042c-4.947-.016-9.788-.6-13.453-1.106-1.164-.161-2.476-.411-3.87-.692-2.838-.093-5.353-.43-6.942-1.186a7.997 7.997 0 01-.478-.25c-2.135-.342-4.283-.583-6.294-.583zm255.437 3.916c.324 2.045.19 4.123.06 6.155-.144 2.261-.284 4.417.145 6.516 2.707-.897 5.434-2.531 8.091-4.12 1.715-1.029 3.495-2.092 5.245-2.943 5.554-2.705 9.937-3.616 15.565-4.086-3.44-3.862-10.574-5.23-21.717-4.181-1.85.174-4.696 1.16-7.389 2.659zm-64.17 11.768c-.134.308-.249.632-.344.97.14-.295.255-.618.344-.97zm-257.56-4.9c-.136.471-.27.945-.402 1.42a76.612 76.612 0 00-1.28 5.332c.627-.674 1.226-1.385 1.815-2.083 1.272-1.508 2.587-3.068 4.135-4.209 2.165-1.594 4.302-2.285 6.368-2.954.699-.226 1.413-.457 2.135-.725-.3-.368-.66-.625-1.086-.78-2.325-.834-6.525 1.337-9.9 3.084-.617.32-1.213.628-1.785.914zm80.85 6.062c.185.324.582.719 1.435 1.095 5.186 2.286 19.296.767 29.51-2.877 1.548-2.529 3.281-4.887 4.978-7.196.504-.685 1.012-1.378 1.52-2.079-.83-.698-1.71-1.278-2.515-1.67a7.19 7.19 0 00-.453-.2c-.116.357-.28.709-.494 1.055-2.985 4.841-15.404 7.566-25.382 9.755-3.622.795-6.82 1.496-8.6 2.117zm165.877 2.616c2.044.288 4.242.288 5.618.028 1.012-.19 1.84-.42 2.523-.71.05-.809.16-1.587.34-2.326-1.257.293-2.558.423-3.83.55-1.81.182-3.535.354-5.01.958.124.458.244.96.359 1.5zm93.714-9.964c.045.154.055.318.025.481-.668 3.31-.902 6.895-.708 10.616l.449-.895c2.254-4.495 4.696-8.986 7.857-11.97-2.667.343-5.075.866-7.623 1.768zm-17.145 8.726c1.456.76 2.842 1.667 4.203 2.554 1.45.948 2.846 1.862 4.282 2.59-.683-1.994-.738-4.086-.15-6.165.53-1.847 1.561-3.591 2.957-5.08-1.156.63-2.323 1.33-3.54 2.057-2.517 1.508-5.105 3.055-7.752 4.044zm32.686-11.625c-1.706 5.019-1.735 9.86.982 15.024a32.055 32.055 0 011.914 4.323c.474-.116.952-.27 1.431-.464 7.728-3.137 11.547-21.144 12.803-27.062 1.48-7.003 1.745-17.975-1.186-25.515-2.015-5.172-5.754-6.895-10.086-8.89-2.433-1.123-4.956-2.283-7.25-4.155a16.278 16.278 0 01-1.151-1.039c.299 4.305-1.371 9.682-2.762 14.171-.539 1.74-1.047 3.382-1.371 4.738a.994.994 0 01-.778.747.995.995 0 01-1.002-.397c-1.192-1.656-2.054-3.772-2.887-5.818-.608-1.491-1.236-3.022-1.984-4.38-2.393 2.1-4.497 4.902-6.387 7.538a26.206 26.206 0 01-1.216 1.702.996.996 0 01-1.595-1.196l.463-.651c.23-.324.464-.651.703-.98 1.007-1.533 1.89-3.19 2.757-4.807.947-1.775 1.925-3.61 3.066-5.277.783-1.147 1.666-2.264 2.603-3.447 2.109-2.665 4.287-5.42 5.13-8.412.04-.147.115-.28.21-.39-1.257-1.898-2.503-3.85-2.643-6.366-1.002 2.865-2.473 5.873-4.602 7.903-1.525 2.52-3.37 4.658-5.539 5.703-1.64.792-3.34.922-5.065.39-.274 3.777.932 7.976 2.01 11.725.298 1.044.582 2.03.832 3 .114.44-.08.9-.474 1.122a.998.998 0 01-1.206-.177c-4.059-4.2-6.611-2.35-10.784 1.279a.994.994 0 01-1.177.095.995.995 0 01-.444-1.098c.943-3.66 2.563-7.13 4.258-10.49-1.94 1.174-4.098 2.318-6.212 3.417-3.78 1.966-4.477 3.229-6.551 6.975-.254.462-.534.958-.833 1.493-1.67 2.96-3.63 5.92-5.524 8.783a253.52 253.52 0 00-3.2 4.914c1.605-.796 3.35-1.135 5.135-.948a9.251 9.251 0 013.824 1.29c.16-.828.344-1.63.518-2.37.1-.441.195-.85.274-1.21a.994.994 0 011.346-.72c2.369.952 4.996 6.052 7.39 11.545.248-.02.503-.04.752-.057a1 1 0 01.932 1.495c-.214.368-.409.749-.588 1.14.015.043.035.084.05.126l.1.233c.1.248.194.498.279.748 2.832-1.503 5.743-2.45 7.683-2.632 12.374-1.165 20.221.628 23.92 5.475l.205-.066c-1.127-1.031-1.71-2.134-1.735-3.28-.025-.848.758-1.786 2.543-3.726.403-.44.957-1.04 1.062-1.213.757-1.305 1.336-2.825 1.894-4.294.354-.936.723-1.904 1.142-2.829 2.597-5.765 4.896-8.657 7.025-8.84.713-.061 1.74.144 2.632 1.465 2.234 3.302-2.134 8.955-5.33 13.081-.782 1.015-1.46 1.891-1.8 2.44-1.415 2.324-2.647 4.56-3.594 6.75 2.174.14 4.467.909 6.865 2.3a.998.998 0 01-.409 1.857c-1.805.17-4.826-.54-7.368-1.791zm-12.225 17.666c2.154 0 4.272.508 6.366 1.009 2.294.55 4.507 1.078 6.746.964a31.68 31.68 0 00-1.67-3.684c-2.977-5.658-2.867-10.995-1.277-16.05l-.174.05c-.03.01-.06.02-.095.029a.823.823 0 01-.07.181 1.006 1.006 0 01-.817.532c-.304.02-.603.041-.898.063-4.128 2.317-7.139 7.77-9.876 13.236a1400.56 1400.56 0 00-1.895 3.786l.06.434a11.457 11.457 0 013.6-.55zm-5.385 3.647c-.09.178-.174.356-.259.535.204-.038.404-.08.603-.125-.04-.189-.074-.378-.11-.566-.08.05-.159.103-.234.156zm-391.324-9.277c.877 3.317 2.01 6.495 4.308 8.656 5.881 5.53 9.679 2.689 14.487-.91 2.216-1.658 4.508-3.372 7.12-4.212 3.798-1.221 7.31-.816 10.704-.423 4.394.508 8.224.95 12.224-1.998.409-2.55.984-5.15 1.73-7.875-.755.297-1.448.508-2.073.592-.642.086-1.287.127-1.93.127-6.382 0-12.738-4.032-18.273-7.896-3.813-2.661-7.262-5.793-10.599-8.823-2.402-2.18-4.886-4.436-7.469-6.48a161.382 161.382 0 01-3.154-2.554c2.401 3.163 4.797 6.194 7.55 9.125 1.722 1.832 2.867 4.287 3.302 6.768 1.777-.422 3.615-.192 5.379.683 1.854.92 3.01 2.222 3.437 3.87.992 3.833-2.21 8.484-4.782 12.221l-.325.473c-2.794 4.069-6.641 5.754-11.134 4.873-3.686-.723-7.384-3.116-10.502-6.217zm138.303 6.82c-1.02 1.395-1.156 4.04-.934 7.036l.022-.082c.636-2.428 1.342-5.124.912-6.954zm-261.404 4.526c1.788 1.313 3.395 2.206 4.741 2.623 1.972-3.306 4.205-6.375 7.113-7.607-3.004-4.401-5.603-8.474-7.818-12.254-.147 1.49-.344 2.9-.592 4.19-.801 4.192-2.08 8.5-3.444 13.048zm-.835 2.79c.934.248 1.883.524 2.815.824a23.36 23.36 0 01-2.587-1.593l-.228.768zm54.93-27.703c-.988 3.9-2.486 7.762-4.814 11.437-.388.613-1.013 1.488-1.805 2.596-2.786 3.898-9.308 13.027-7.677 15.77.548.92 2.29.91 3.652.739 9.113-1.142 17.687-13.853 20.951-21.597.652-1.548 1.313-3.03 1.952-4.462 2.92-6.544 5.442-12.196 5.07-19.531-.133-2.614-.244-5.309-.351-7.915-.284-6.934-.58-14.102-1.321-20.873-1.082-9.862-2.621-13.488-10.734-18.518-1.852-1.148-3.757-2.297-5.6-3.41-4.555-2.747-9.252-5.58-13.562-8.65a17.028 17.028 0 01-1.506 3.38c-.436 5.24-1.811 10.252-8.217 13.401-5.865 2.884-12.752 2.443-17.138-1.095-3-2.421-4.457-5.877-4.246-9.932-2.577 1.972-6.017 2.853-9.372 3.713-3.831.981-7.45 1.908-9.488 4.319-1.822 2.156-2.48 5.657-3.117 9.043-.308 1.639-.598 3.186-1.017 4.594a298.22 298.22 0 01-.807 2.666c-1.264 4.124-2.57 8.39-3.007 12.69-1.697 16.713-1.737 37.762 13.149 52.311a53.257 53.257 0 003.223 2.917c1.265-4.224 2.433-8.237 3.173-12.103.392-2.048.653-4.402.785-6.911-2.176-3.932-3.905-7.53-5.212-10.837-1.61-4.075-.652-9.886.275-15.506.13-.79.26-1.583.385-2.373-2.21-6.152-4.18-12.623-2.139-16.472a1 1 0 011.527-.292c4.135 3.522 3.676 9.946 2.66 16.566.239.658.477 1.308.71 1.94 1.063 2.9 2.068 5.638 2.474 7.668 1.15 5.754 1.607 12.695 1.336 18.828 2.65 4.743 5.96 9.985 9.972 15.808a.998.998 0 01-.624 1.545c-3.035.614-5.424 4.08-7.554 7.736a1 1 0 01-.932.493c.63.263 1.229.537 1.783.822.986-.766 1.915-1.817 2.896-2.928 1.655-1.872 3.367-3.808 5.665-4.738 4.984-2.018 10.538 1.206 15.063 4.384-1-1.42-1.666-3.103-1.285-5.322.53-3.074 5.107-6.735 9.145-9.965 1.838-1.47 3.574-2.859 4.422-3.82.777-.883 1.484-1.967 2.231-3.115 1.156-1.775 2.351-3.61 3.964-4.908 1.005-.808 2.205-1.298 3.385-1.675l.098-.445a9.13 9.13 0 01-.432.058.997.997 0 01-1.053-1.31c.426-1.266 1.328-2.128 2.212-2.864.038-.267.074-.536.11-.805a3.853 3.853 0 00-.71-.013.997.997 0 01-1.081-.802c-1.367-7.046-1.397-15.457-.08-21.951.32-1.584 1.219-3.13 2.33-4.706.276-6.308 1.67-11.834 6.264-12.115.46-.028.889.27 1.02.718 1.056 3.652-1.561 7.102-4.093 10.439-.42.553-.834 1.1-1.224 1.636-.106 3.496.103 7.232.269 10.201.132 2.368.246 4.412.18 5.73-.151 2.934-.308 5.992-.636 9.096.175 0 .336-.008.472-.037a1 1 0 011.082 1.45c-.491.914-1.257 1.575-2.021 2.198l-.055.346c1.32-.34 2.742-.485 4.14.494.445.311.559.92.258 1.372-1.125 1.687-3.152 2.262-5.112 2.818l-.26.074zm301.922 16.746c-.483 3.085-.877 5.923-.877 8.077 0 3.21.747 5.782 2.283 7.805-.838-3.49-.997-7.376-1.157-11.138a152.777 152.777 0 00-.249-4.744zm-357.418 12.876a163.058 163.058 0 00-1.454 5.28c.647-.235 1.29-.46 1.92-.68 2.083-.727 4.08-1.424 5.912-2.442-1.933-.861-4.262-1.597-6.378-2.158zm-.689 7.127c1.907.475 4.362.264 6.235-.663 1.077-.534 2.33-1.479 2.648-3.06-2.21 1.384-4.582 2.212-7.07 3.08-.598.21-1.204.42-1.813.643zm28.439-4.825c.764.758 1.857 1.428 3.041 2.152 1.638 1.003 3.428 2.1 4.592 3.69.206-.325.395-.657.566-.995.874-1.736.866-3.028.373-4.165-2.569 2.718-5.655.969-7.948-.331a89.84 89.84 0 00-.624-.351zm473.035-16.474c.533 1.147 1.116 2.21 1.69 3.252 1.52 2.759 3.09 5.612 3.485 9.726.12 1.26.324 2.691.538 4.208.254 1.773.519 3.623.698 5.464 1.476-4.264 3.23-8.417 5.08-12.424a.994.994 0 01-.787-.424 1.017 1.017 0 01-.19-.838c.065-.28.245-.509.479-.644.833-.913 1.655-1.66 2.478-2.264.414-.857.832-1.705 1.246-2.545-.493-4.285-.463-8.457.1-12.334-2.259 1.534-3.924 3.7-4.597 6.056-.683 2.392-.294 4.817 1.122 7.013a.998.998 0 01-1.142 1.491c-2.567-.828-4.886-2.341-7.124-3.805-1.042-.681-2.054-1.344-3.076-1.932zm-131.546 22.38c6.192.979 13.486.273 19-.261l.693-.068c7.997-.768 17.948-1.724 25.108-6.178 6.386-3.973 6.157-9.43 5.354-16.28-.847-.468-1.515-1.064-1.9-1.81-.941-1.832-.228-4.924 1.083-8.674-.19-6.866.035-17.222 2.991-19.123.469-.3 1.436-.69 2.702.059 3.091 1.827.768 7.802-1.924 14.72-.588 1.517-1.227 3.155-1.785 4.736.06 2.3.18 4.302.314 5.596.105.974.22 1.933.334 2.875l.03.28c.254.093.524.178.803.257-.115-.468-.24-.899-.37-1.286-.149-.457.05-.956.47-1.188 1.974-1.082 4.272-1.312 6.49-1.535 1.91-.19 3.71-.37 5.256-1.053a.995.995 0 011.126.23c.095.096.16.208.21.327.085-.728.12-1.557.12-2.505.01-6.163-1.79-14.114-5.36-23.632l-.459-1.23c-2.453-6.611-4.766-12.856-11.826-14.13l-.613-.11c-3.784-.68-7.473-1.344-10.32-2.956.03.444.06.884.085 1.32.134 2.24.264 4.357.628 5.836a.994.994 0 01-.539 1.138.993.993 0 01-1.221-.295c-2.518-3.31-5.938-4.969-9.159-4.436-1.35.224-2.597.82-3.684 1.738-.095.141-.185.283-.28.423-1.101 1.662-2.233 3.38-3.255 5.18a1 1 0 01-1.276.419.995.995 0 01-.539-1.228c.858-2.572 2.184-4.66 3.844-6.137 2.164-3.28 4.168-6.445 5.36-10.33.723-2.38 1.131-4.961 1.376-7.62-1.49 2.964-3.42 5.508-6.093 6.353-2.353.746-4.985.086-7.822-1.96-2.423-1.75-4.073-3.913-5.22-6.296-.12.706-.31 1.355-.598 1.905a5.23 5.23 0 01-.32.524.997.997 0 01-.104.992c-4.642 6.415-1.147 10.856 3.7 15.65 2.208 1.179 4.082 2.96 5.404 5.44a.999.999 0 01-1.615 1.147c-1.127-1.225-2.374-2.43-3.575-3.593-.479-.465-.963-.93-1.436-1.398-5.11-2.546-11.97-1.243-16.428.873a.997.997 0 01-1.301-1.378c.643-1.186 1.266-2.43 1.924-3.747 1.895-3.772 3.85-7.673 6.512-10.673.04-.041.074-.083.114-.123-2.473 1.468-5.03 3.612-7.413 5.61-2.239 1.88-4.358 3.655-6.217 4.714-1.222.696-2.668 1.281-4.203 1.901-2.309.932-4.692 1.896-6.118 3.205-1.655 1.52-2.981 5.283-3.948 8.032-.25.715-.484 1.377-.703 1.941-3.894 10.155-6.342 18.567-7.264 25.005-.464 3.2-.09 4.042 2.487 4.883.065-1.147.13-2.313.195-3.505.668-12.765 4.612-25.44 11.711-37.672a.998.998 0 011.855.412c.394 4.392 4.203 8.79 7.887 13.042 2.254 2.598 4.377 5.05 5.798 7.533 4.433 7.761 6.472 18.373 5.46 28.385-.18 1.748-.499 3.641-.838 5.645-.798 4.75-1.69 10.022-.698 14.083zm-325.832-1.06c.177.524.628 1.084 1.737 1.487 1.794.652 4.43.554 6.714.097a6.59 6.59 0 00-.687-.665c-1.835-1.53-4.38-1.833-7.764-.919zm320.956 4.255c1.44.447 2.967.778 4.537 1.023a11.107 11.107 0 01-1.221-2.479 24.535 24.535 0 01-4.054-1.15c.35.813.623 1.67.738 2.606zm50.245-4.934a1.001 1.001 0 01.987.872c.25 1.972 1.267 4.857 2.673 7.708.11-.084.214-.17.319-.259 5.265-4.478 5.404-19.793 3.913-28.276a15.302 15.302 0 01-1.007-.25c.713 6.626.629 12.761-6.401 17.132-7.558 4.701-17.764 5.682-25.965 6.47l-.693.068c-5.325.514-12.245 1.182-18.442.39.045.09.09.177.14.264a9.65 9.65 0 001.605 2.19c3.864.367 7.907.346 11.721.327.813-.004 1.615-.008 2.393-.008 7.404 0 13.387-1.932 19.718-3.976 2.807-.907 5.714-1.845 8.795-2.621a.97.97 0 01.244-.03zm-62.35-23.748a1 1 0 01.972 1.22c-.414 1.804-.922 3.555-1.416 5.248-1.44 4.968-2.807 9.66-1.685 15.263.509 2.556 1.331 4.841 2.129 7.052.583 1.624 1.157 3.214 1.6 4.86 1.381-2.137 2.653-4.321 3.964-6.578l.184-.311a.993.993 0 011.406-.333c.858.56 1.775 1.042 2.747 1.456-.324-1.098-.887-2.127-1.475-3.19-.02-.035-.04-.07-.055-.106a13.138 13.138 0 01-1.85-1.405c-2.812-2.556-4.238-6.155-4.233-10.697 0-2.824.614-6.614 1.262-10.625.22-1.358.448-2.758.658-4.176-.055-.23-.11-.458-.17-.685-.523-1.955-1.635-4.164-2.807-6.502-2.951-5.881-6.301-12.547-1.969-18.437a1 1 0 011.266-.293c7.953 4.15 7.245 15.447 5.709 25.836.838 3.714 1.007 7.65 1.167 11.466.164 3.997.324 7.772 1.201 11.171.264 1.02.733 1.959 1.257 2.924 1.47.858 3.16 1.477 4.995 1.912-.783-4.289.08-9.379.858-14 .334-1.97.643-3.83.817-5.514.973-9.613-.972-19.78-5.21-27.193-1.316-2.311-3.38-4.693-5.569-7.215-3.185-3.68-6.466-7.464-7.797-11.48-6.132 11.247-9.548 22.84-10.16 34.495-.07 1.346-.145 2.66-.22 3.95v.01c.269.073.558.148.857.226l.718.188c3.176.835 7.977 2.095 10.625 1.488.074-.017.15-.025.224-.025zm134.702.836c.324 0 .633.158.822.435 3.405 4.989 3.375 15.386 2.523 21.158-.075.517-.15 1.01-.224 1.48-1.032 6.776-1.222 7.997 6.177 10.324 2.403.757 5.165 1.296 8.111 1.602 0-.026.005-.052.01-.078a77.84 77.84 0 01.918-3.832c.344-3.533-.26-7.76-.773-11.35-.22-1.54-.424-2.994-.549-4.3-.353-3.702-1.76-6.253-3.245-8.953-.932-1.695-1.895-3.44-2.652-5.548a14.838 14.838 0 00-.559-.206 1 1 0 01-.055-1.866c-.518-2.413-.364-4.826-.21-7.17.106-1.689.215-3.321.066-4.886-.18.124-.364.25-.544.377a94.345 94.345 0 00-.773 3.852c-.503 2.683-1.027 5.456-1.979 7.955a1.007 1.007 0 01-.728.62 1 1 0 01-.917-.28c-2.872-2.944-2.657-5.793-1.974-7.665.782-2.124 2.512-4.05 4.606-5.664.3-1.191.653-2.356 1.092-3.46-.065-.153-.124-.303-.19-.452-1.056.11-2.153.242-3.285.378-6.89.83-14.638 1.764-20.615-1.623-1.376 8.679-.235 15.514 3.126 18.448 2.517 2.201 6.391 2.455 11.506.755a1 1 0 01.315-.05zm-112.137 31.427c3.66 1.844 8.456 2.293 12.873 2.706.483.045.967.09 1.44.137 6.297.614 20.247 1.975 27.447-1.72-1.332-2.7-2.324-5.404-2.768-7.403-2.642.705-5.175 1.523-7.637 2.317-6.482 2.094-12.61 4.072-20.327 4.072-.778 0-1.57.004-2.383.008-2.727.015-5.679.03-8.645-.117zm131.59 3.745c8.59.567 18.308-.787 25.053-4.407.374-1.404.938-2.984 1.705-4.841 2.548-6.176 3.156-10.973 1.785-15.977-2.717.248-5.31-.372-7.842-.98-3.246-.777-6.202-1.486-9.194-.386.115.667.245 1.336.39 2.006a1.002 1.002 0 01-.679 1.159c-.932.292-2.014.506-3.091.621-2.837 6.06-5.49 12.454-7.259 19.032-.145 1.344-.414 2.617-.868 3.773zm26.758-3.082c-.394 1.8-.394 3.268-.02 4.804.434-.225.858-.455 1.282-.69.548-1.652.483-3.446.239-5.049-.479.325-.982.637-1.5.935zm-517.084-3.55a.997.997 0 01.98 1.185c-.22 1.16-1.015 2.351-1.855 3.612-.814 1.22-1.827 2.738-1.612 3.481.068.236.32.452.745.64.661.293 2.2-.3 3.556-.826 1.78-.688 3.771-1.46 5.574-1.148.978-.947 2.08-1.85 3.245-2.769-3.006-.676-4.96-2.065-7.13-3.61-1.292-.918-2.628-1.868-4.35-2.797a29.763 29.763 0 01-1.552-.898 12.46 12.46 0 01-1.093 2.343l-.247.418c-.995 1.684-2.19 3.706-2.671 5.603 1.278-.364 2.09-1.356 2.998-2.466.837-1.023 1.702-2.08 2.996-2.677a1 1 0 01.416-.09zm403.113 4.743c1.516 2.732 3.32 5.242 5.06 6.647 3.62-5.348 8.127-12.307 9.533-19.046.638-3.045 0-7.036-.618-10.896-.394-2.468-.798-4.978-.878-7.323-.633.211-1.336.39-2.129.54-1.191.225-3.37.321-5.613.078 1.405 9.002 1.151 24.515-4.677 29.472-.214.183-.444.36-.678.528zm-79.486-33.962c-.648 11.539-.867 20.973 4.358 32.374.927 2.02 2.612 5.697 4.671 8.355.464-.799 1.092-1.653 1.88-2.662a60.373 60.373 0 001.705-2.307c-.419-2.228-1.172-4.31-1.945-6.456-.822-2.28-1.67-4.636-2.213-7.338-1.212-6.083.284-11.232 1.73-16.213.354-1.221.718-2.473 1.047-3.743-3.041.138-7.02-.904-10.046-1.7l-.713-.186-.474-.124zm10.435 42.307c.678.64 1.386 1.128 2.104 1.384.055-.523.125-1.048.204-1.575.18-1.204.24-2.34.2-3.427-.15.202-.304.405-.464.606-.967 1.24-1.64 2.156-2.044 3.012zm4.288-6.087a20.46 20.46 0 01-.01 6.195c-.065.448-.125.897-.175 1.346 1.082-.314 2.189-1.194 3.306-2.632 1.8-2.309 4.606-8.414 4.846-11.052.005-.04.01-.08.01-.12a21.006 21.006 0 01-3.196-1.475c-1.55 2.656-3.056 5.217-4.781 7.738zm-114.578-31.724c-.17.25-.334.52-.516.822a25.36 25.36 0 01-.727 1.153c-4.817 7.105-7.176 17.858-7.731 24.907-.617 7.825 6.974 9.625 14.314 11.366.71.169 1.41.335 2.09.504.668.166 1.276.334 1.838.489 2.837.784 4.166 1.151 6.368-.505-6.506-3.39-13.548-7.68-16.164-15.357-1.931-5.669-1.06-11.684-.216-17.5.28-1.942.57-3.93.744-5.879zm24.092 40.165a45.766 45.766 0 006.87 1.65c-4.067-1.84-6.841-5.613-8.465-9.738-.868 2.514-1.997 4.57-3.379 6.149.829.378 1.661.731 2.5 1.057.162-.14.326-.277.49-.414a.997.997 0 011.542.35c.15.327.298.642.442.946zM43.2 177.34a1 1 0 01.328.055c6.84 2.38 14.86 2.419 22.615 2.457 2.987.014 5.81.028 8.586.168 1.307.065 2.797.11 4.376.157 7.404.223 17.14.516 23.573 3.347-.009-3.21-.296-6.47-.594-9.86-.377-4.266-.765-8.678-.555-13.077.438-9.185 1.51-17.962 3.1-25.383.201-.936.625-2.57 1.162-4.64 1.267-4.885 3.366-12.98 4.728-20.587-.056-1.125-.104-2.264-.154-3.418l-.088-2.056c-.082-1.814-.583-3.686-1.114-5.67-.783-2.923-1.593-5.947-1.005-8.913a.995.995 0 011.03-.802c1.222.064 2.263.638 3.012 1.661 2.271 3.105 1.926 10.3.322 19.31.16 3.147.387 6.184.873 9.164.167 1.032.274 2.329.388 3.703.278 3.355.623 7.532 2.012 9.352 1.773 2.326 3.006 1.881 5.048 1.146 1.092-.393 2.382-.852 3.857-.827a708.583 708.583 0 01-1.673-24.79c-1.265-25.72-6.612-40.177-15.894-42.967-2.079-.625-7.075-2.127-9.849-1.31.063.485.191.946.386 1.366.446.967 1.22 1.68 2.254 2.085.172.06.344.117.517.172a.998.998 0 01-.57 1.912 7.198 7.198 0 01-.658-.218 25.955 25.955 0 01-3.886-1.721c-.027.589-.032 1.207-.036 1.8-.018 2.156-.036 4.387-.88 5.997-3.917 7.469-11.174 9.768-22.19 7.028-2.912-.723-5.237-.497-7.107.694-3.825 2.436-5.319 8.635-6.63 15.316a55.632 55.632 0 00-.578 3.57 35.276 35.276 0 013.01 7.252c2.095 7.297 1.261 13.548-2.23 16.722a.997.997 0 01-1.64-.51c-1.686-7.16-2.097-15.502-1.197-23.08-2.49-4.274-5.709-7.372-8.718-8.098-1.289 1.186-2.615 2.457-3.985 3.77-3.858 3.698-8.003 7.67-12.356 10.697a41.01 41.01 0 00-.955 4.611c2.666 7.235 2.701 11.905.095 13.911a.998.998 0 01-1.563-.506c-.975-3.269-1.237-8.116-.578-13.174a66.46 66.46 0 00-.966-2.41c-2.221 1.168-4.49 2.013-6.793 2.383a.999.999 0 01-1.145-1.13c.19-1.301.974-2.491 2.207-3.349 1.676-1.167 3.981-1.62 6.015-1.186.27.057.502.224.644.457.427-.263.853-.536 1.277-.82 1.155-4.058 2.97-7.897 5.553-10.79 3.257-3.647 7.37-5.232 11.931-4.601a77.109 77.109 0 012.018-1.766c8.054-6.787 12.657-12.407 13.452-21.677-1.405.991-2.906 1.884-4.356 2.715a.996.996 0 01-1.454-1.14c-.285.124-.568.245-.851.367-3.894 1.673-7.572 3.254-10.514 5.614-3.318 2.662-6.29 5.962-9.437 9.457-3.154 3.5-6.415 7.121-10.091 10.09-1.403 1.13-2.818 2.16-4.187 3.156-6.076 4.417-10.875 7.906-9.167 16.248 1.065 5.205 4.695 9.661 8.206 13.972 1.2 1.472 2.436 2.99 3.54 4.508 1.255-.313 2.613-1.218 4.04-2.17 2.278-1.517 4.631-3.087 7.21-2.662 2.256.371 3.726 1.966 5.147 3.509 1.567 1.701 2.921 3.175 5.165 3.04 1.978-.117 3.475-1.718 5.06-3.412 1.24-1.327 2.524-2.698 4.144-3.45 4.44-2.058 10.283-1.99 14.27-1.24a.998.998 0 01.764 1.288c-1.087 3.356-4.085 3.555-6.552 3.663 2.232.093 4.39.347 6.543 1.237a.998.998 0 01.614.867c.028.497-.107.851-.292 1.104.49.501.903 1.042 1.285 1.541.19.25.262.59.177.892-.087.303-.3.561-.594.674-.164.062-.313.18-.52.344a8.41 8.41 0 01-.336.257c.284.406.467.816.64 1.2.162.36.315.702.548 1.03a1 1 0 01-.721 1.573c-2.773.254-5.245-.262-7.635-.76-1.546-.323-3.033-.633-4.55-.73.634.424 1.419.791 2.228 1.17 1.597.747 3.407 1.595 4.575 3.136a.998.998 0 01-.391 1.516c-3.11 1.374-6.089.83-8.716.35-3.488-.637-6.498-1.186-9.572 2.408-4.523 5.29-5.464 13.364-5.456 19.206.005 4.063.54 6.854 1.466 9.309l.048-.138a.997.997 0 01.94-.666zm427.089 4.092c.753 0 1.427.12 1.994.414 1.247.645 2.033 1.69 2.537 2.926-.868-5.306-2.211-10.748-3.515-16.026-.776-3.141-1.577-6.39-2.258-9.531-.12-.557-.27-1.204-.434-1.921-.707-3.076-1.633-7.107-2.026-10.96-1.223 6.161.086 11.49 2.175 18.485 1.668 5.581 1.387 10.53-.79 13.937-1.405 2.2-3.539 3.737-6.36 4.587.913-.188 1.955-.481 2.977-.768 2.075-.582 4.072-1.143 5.7-1.143zM128 171.781a1.08 1.08 0 01.596.188c2.026 1.391 3.299 4.372 4.646 7.528 1.41 3.302 2.863 6.706 4.987 7.512 1.544-5.513-1.714-10.133-5.154-15.01-2.53-3.59-5.147-7.3-5.603-11.38-.94-8.432-1.734-16.262-2.396-23.672-.54.496-1.062.857-1.533 1.181-1.324.912-2.053 1.414-1.879 4.6.132 2.416.534 5.2.923 7.893.284 1.97.578 4.009.768 5.906.155 1.56.216 3.195.279 4.926.224 6.099.455 12.382 4.872 15.792-.486-1.074-1.231-2.002-1.898-2.694-.337-.325-.4-.85-.155-1.252.527-.859.93-1.518 1.548-1.518zm317.435 11.9c2.45 4.447 4.626 5.518 10.604 4.854 2.672-.296 5.498-.957 8.231-1.597 2.834-.663 5.74-1.342 8.588-1.652-.343-.732-.82-1.32-1.49-1.667-1.094-.566-3.946.234-6.24.878-1.903.534-3.701 1.04-5.093 1.046-5.192.023-10.015-.586-14.6-1.862zm-144.984 32.418h.03c3.57 0 6.366.86 9.326 1.772 1.165.358 2.37.729 3.64 1.049 14.393 3.62 35.052 4.973 48.82-2.14 1.076-4.273 2.018-8.533 1.827-11.95-.502-8.988-3.056-17.659-5.525-26.044-2.148-7.292-4.37-14.833-5.269-22.622-.599-5.185-.634-9.943-.064-14.797-4.11 2.299-8.158 1.832-12.09 1.376-3.185-.367-6.478-.748-9.866.34-2.296.739-4.451 2.351-6.536 3.911-4.662 3.488-9.946 7.443-17.046.765-3.322-3.123-4.44-7.744-5.522-12.212a356.22 356.22 0 00-.279-1.144c-2.462-3.192-4.265-6.717-4.943-9.825a.998.998 0 011.56-1.02c3.01 2.187 4.23 6.018 5.213 9.939 3.247 4.1 7.64 7.572 11.914 8.41 3.703.726 6.766-.635 9.106-4.044l.327-.476c2.218-3.222 5.257-7.637 4.493-10.588-.279-1.077-1.061-1.921-2.392-2.581-1.443-.716-2.885-.869-4.299-.46.023 1.375-.19 2.708-.661 3.892-1.167 2.933-3.727 4.66-7.207 4.862a.982.982 0 01-.852-.393.996.996 0 01-.15-.927c1.08-3.148 3.398-6.981 6.77-8.729-.319-2.227-1.319-4.49-2.849-6.118-3.577-3.808-6.53-7.739-9.658-11.901a493.133 493.133 0 00-2.927-3.868c-.332-.434-.69-.914-1.068-1.423-2.597-3.49-6.523-8.765-10.259-9.026-1.326-.094-2.573.46-3.79 1.693-2.924 2.96-4.018 9.595-3.165 19.187.394 4.425 1.756 8.585 3.073 12.608 1.294 3.95 2.631 8.033 3.052 12.358.663 6.819.614 14.226.565 21.39-.013 2.02-.026 3.997-.022 5.899.038 17.002-5.193 36.095-9.158 50.291 1.943.498 3.724.376 5.454.259 2.829-.193 5.53-.377 7.866 2.346.742-.044 1.59-.06 2.56-.06zm148.565-19.057c2.73 4.11 4.771 9.457 6.19 13.17l.224.589c2.873 7.5 4.54 15.655 6.134 24.048 1.088 5.731 2.52 10.796 4.181 15.879-1.613-5.768-2.717-11.636-2.969-17.313a453.1 453.1 0 01-.093-2.292c-.28-7.132-.663-16.9-3.93-22.782-1.837-3.308-5.858-8.113-9.737-11.299zm-348.322 11.74c-.266 1.102-.533 2.2-.8 3.292-2.135 8.743-4.342 17.784-4.81 27.293-.364 7.37 1.051 13.237 2.55 19.448.162.672.325 1.35.489 2.039 1.495-4.089 1.1-9.802.763-14.677-.131-1.89-.255-3.675-.253-5.195.009-9.047.535-17.903 1.656-27.873.153-1.358.282-2.808.405-4.327zm-27.678-10.363c.305 0 .593.138.782.378 3.655 4.62 4.496 13.828 5.171 21.227.194 2.128.378 4.137.609 5.81.68 4.933.751 10.032.821 14.965.069 4.808.14 9.78.784 14.477.72 5.243 3.198 9.543 6.312 10.956 2.234 1.014 4.78.594 7.566-1.247a6.995 6.995 0 001.625-1.495 289.384 289.384 0 00-.99-4.205c-1.534-6.356-2.982-12.358-2.604-20.017.477-9.7 2.708-18.834 4.865-27.668 1.89-7.739 3.843-15.741 4.56-23.982.056-.637.096-1.274.122-1.913-5.965-3.002-16.033-3.305-23.593-3.533-1.588-.047-3.089-.092-4.416-.159-2.732-.136-5.532-.15-8.496-.165-7.565-.037-15.377-.075-22.297-2.249-.134.442-.254.887-.36 1.336.565 1.088 1.204 2.184 1.902 3.38.866 1.486 1.847 3.169 2.88 5.167 4.76 9.223 7.314 16.906 8.036 24.18.224 2.254.324 4.403.42 6.482.288 6.193.537 11.542 3.846 16.99 2.17 3.572 3.514 7.225 4.813 10.759.706 1.92 1.428 3.882 2.285 5.826.1-3.076.072-6.14.044-9.132-.046-4.98-.094-10.13.442-15.36a818.43 818.43 0 011.11-10.01c.195-1.69.386-3.354.565-4.959.126-1.126.166-2.517.208-3.988.116-4.054.248-8.65 2.17-11.422a.997.997 0 01.787-.429h.031zm456.917-17.303c.035.965.32 2.099.833 3.683 4.018 12.44 3.355 25.054 2.328 34.654-.902 8.419.813 15.546 2.628 23.093.538 2.227 1.092 4.529 1.595 6.922 1.391 6.616.868 13.455-.05 20.205 1.586-4.203 4.273-8.596 7.105-13.224 7.025-11.48 14.284-23.35 5.549-33.808-8.082-9.669-18.367-24.082-17.57-40.33-.847-.211-1.65-.623-2.418-1.195zm-232.962 37.13c-.781.104-1.36.275-1.587.554-.419.513-.093 2.114.358 4.328l.2.99c1.306 6.53 1.372 13.247 1.436 19.742.03 3.035.06 6.174.217 9.26.256 5.043.673 13.29 2.858 19.802-.281-5.04.678-10.174 1.615-15.193 1.206-6.463 2.452-13.144.908-19.3-.424-1.692-.817-3.495-1.197-5.24-1.024-4.701-2.083-9.563-3.968-13.451a12.557 12.557 0 00-.84-1.492zm67.013-.123c-.106.42-.214.84-.321 1.258-.757 2.95-1.473 5.738-1.886 8.297-1.401 8.67-2.393 16.512-.326 24.692 2.282 9.027 4.058 17.25 2.669 26.476-.351 2.33-.821 4.65-1.346 6.945 5.174-1.522 5.405-8.124 5.628-14.525.06-1.723.117-3.35.269-4.876 1.781-17.808.716-35.676-2.917-49.31-.575.364-1.166.712-1.77 1.043zm-19.23 71.684c-.03.572-.063 1.162-.097 1.765a262.722 262.722 0 00-.312 6.632c.795-3.246 1.31-6.118 1.135-8.188a3.252 3.252 0 00-.726-.21zm-23.998-.894c-.982 1.959-1.534 4.03-1.014 6.823.266 1.427.68 3.073 1.194 4.787-.304-4.214 0-8.445.856-11.739-.33.035-.676.08-1.036.13zm363.403-75.872c-.075.194-.145.38-.215.556-2.144 5.486-2.288 11.288-2.438 17.432-.07 2.705-.134 5.502-.394 8.246-.388 4.127-1.216 9.934-2.966 14.164-1.785 4.32-1.655 4.718-.813 7.3.265.81.594 1.82.948 3.18 1.685 6.452-.34 15.818-1.965 23.345-.284 1.317-.558 2.57-.787 3.727-.26 1.284-.828 2.85-1.426 4.506-.948 2.63-2.03 5.61-1.77 7.362.334 2.301 2.692 4.922 4.592 7.028.005.01.015.02.024.03.275-4.147.499-8.248.713-12.236.639-11.781 1.242-22.91 3.121-34.914 1.486-9.468 2.21-19.14 2.21-29.567 0-.927-.02-1.98-.046-3.118-.09-5.059-.22-11.842 1.212-17.041zm-81.057-30.151c-3.888 5.987-7.274 12.125-8.246 17.736-1.166 6.759.429 13.458 1.975 19.937.393 1.644.762 3.197 1.091 4.762l.1.465c3.27 15.532 6.975 33.136.803 49.429a114.01 114.01 0 01-1.87 4.551c-2.627 6.134-4.362 10.186-.339 16.732 2.378 3.873 3.854 8.893 4.851 13.77 1.112-.931 1.955-1.997 2.403-3.205 2.319-6.195 1.117-15.264.06-23.265-.479-3.62-.932-7.04-1.067-10.072-.174-3.99-.23-7.883-.284-11.647-.09-6.318-.17-12.287-.778-18.6-.379-3.963-1.072-7.992-1.74-11.888-.862-5.034-1.755-10.242-2.009-15.462a99.797 99.797 0 01.982-19.618c.593-3.915 1.895-7.538 3.151-11.041.314-.876.623-1.734.917-2.584zm-67.25 96.345c-.255 1.75-.48 3.466-.659 5.181-.568 5.482-.339 11.225-.11 16.78.16 3.992.325 8.102.185 12.042.608-.343 1.256-.68 1.92-1.026 2.428-1.264 5.18-2.698 6.256-4.65 1.546-2.815-.194-6.14-1.88-9.354-.423-.814-.862-1.654-1.24-2.468-1.76-3.826-4.149-10.087-4.473-16.505zm-487.01-16.984c1.206 3.484 2.573 7.07 3.897 10.547 1.985 5.207 4.036 10.592 5.584 15.72 1.417 4.694 1.785 9.725 2.141 14.59.344 4.695.698 9.535 2.006 14.017 2.95-3.075.937-10.786-.567-16.554-.366-1.402-.711-2.726-.951-3.854-.73-3.443-1.171-7.016-1.598-10.473-.604-4.904-1.23-9.975-2.69-14.557-.91-2.853-2.405-5.251-3.85-7.57a97.256 97.256 0 01-1.372-2.246c-.894.022-1.761.136-2.6.38zm184.63 55.718c1.578.751 3.902.222 6.55-.381 3.136-.715 6.652-1.516 10.254-.592.488-3.227 1.077-8.104-.042-11.032-.62-1.62-1.396-2.943-2.146-4.223-1.173-2-2.386-4.067-2.867-7.108-.938-5.93-.777-11.68-.622-17.242.097-3.466.198-7.05.026-10.612-.118-2.435-.918-4.674-1.766-7.045-.577-1.612-1.173-3.28-1.539-5.023-.644-3.07-.596-6.39-.548-9.6.025-1.686.05-3.43-.027-5.1-.25-5.444-.224-15.967-.198-26.144.027-10.588.056-21.536-.22-27.123-.44-8.885-1.22-16.409-3.515-23.857-.462.268-1 .516-1.592.74 3.306 7.011 1.757 19.65.575 29.304-.613 5.002-1.143 9.323-.82 11.365 1.483 9.417 4.54 37.922 4.45 47.458-.053 5.46-1.664 7.085-4.101 9.545a57.123 57.123 0 00-1.73 1.8c-1.9 2.09-1.81 2.642-1.804 2.664.115.222 1.08.56 1.718.785 1.331.468 2.988 1.05 4.465 2.343 3.434 3.005 4.134 7.816 1.702 11.7-.953 1.521-2.636 2.49-4.264 3.428-2.182 1.257-3.595 2.15-3.691 3.614 2.997 1.562 4.467 4.59 5.892 7.523.632 1.3 1.285 2.643 2.05 3.79.658.986 1.547 2.017 2.488 3.11 2.397 2.782 5.114 5.934 4.926 9.58a.998.998 0 01-.516.824c-.96.528-2.54 1.09-4.368 1.74-2.67.95-6.205 2.208-8.72 3.769zm476.108.724a17.724 17.724 0 01.36.374 80.846 80.846 0 011.69-.18c.977-.933 2.173-1.595 3.33-2.239 1.72-.954 3.345-1.856 4.168-3.541 2.852-5.821-1.446-13.876-4.582-19.757-.28-.53-.553-1.04-.808-1.524-2.901-5.54-2.687-7.197 1.531-11.831.469-.515.902-.97 1.301-1.385 2.513-2.637 3.106-3.264 1.411-7.433-1.35-3.318-3.779-5.242-6.127-7.103-3.196-2.53-6.496-5.146-6.686-10.986-.04-1.249-.07-2.502-.095-3.755-.184-8-.374-16.274-3.829-23.6-.653-1.378-1.306-2.81-1.979-4.267-2.857-6.234-6.082-13.264-10.056-18.58-1.496 1.325-2.842 4.362-3.859 6.977.613-1.208 1.371-2.236 2.314-3.014a.995.995 0 011.5.28c.29.51.549 1.043.798 1.56.354.74.693 1.441 1.107 2.067 5.25 7.92 7.448 18.703 8.29 24.426.749 5.099 1.985 9.933 3.177 14.609.847 3.327 1.73 6.768 2.418 10.257.917 4.643.937 9.558.952 14.311.015 4.351.03 8.461.678 12.39.274 1.7.897 3.372 1.56 5.143.933 2.513 1.9 5.112 1.805 7.819-.05 1.275-.443 2.56-.827 3.802-.943 3.062-1.312 4.715 1.246 5.896.284.13.489.385.554.689.573 2.562-.115 4.686-.783 6.74a33.732 33.732 0 00-.559 1.855zm-555.561.875a91.01 91.01 0 003.474.401c1.523.157 3.092.319 4.542.571l.28-.221c1.243-.979 2.381-1.875 3.143-2.99-2.95-.328-5.715-1.054-7.539-2.136-.725 1.746-2.341 3.187-3.9 4.375zM435.77 190.04c-3.639 5.286-6.445 11.628-8.176 18.609-2.042 8.235-2.772 17.407-3.478 26.278-.08 1.004-.159 2.002-.24 2.99-.374 4.582-1.643 9.216-2.87 13.698-1.595 5.825-3.102 11.327-2.797 16.675.164 2.897.435 5.717.696 8.444.602 6.276 1.171 12.203.533 18.872-.086.894-.443 2.44-.896 4.396-1.389 6.005-3.975 17.182-.745 20.594.68.718 1.624 1.044 2.845.998-.227-1.319-.4-2.616-.306-3.432.63-5.5.382-11.705.143-17.705-.132-3.287-.268-6.686-.259-9.944.027-9.97 1.018-19.475 3.313-31.785 1.518-8.141 2.224-16.754 2.907-25.083.31-3.785.63-7.698 1.022-11.48 1.132-10.939 4.743-22.164 8.308-32.125zm34.371 73.505c2.115 7.027 2.48 14.005 2.866 21.353.068 1.294.136 2.601.215 3.922.515 8.626 2.41 17.79 5.334 25.803.156.43.35 1.063.574 1.798.448 1.464 1.379 4.513 1.939 5.05.105.101.201.192.29.273.164-1.566.489-3.134.798-4.63.288-1.39.562-2.702.691-3.923 1.272-11.65 1.72-20.737-4.167-31.605-2.807-5.184-5.86-11.374-8.54-18.041zm-224.184 61.828c.18.106 1.237.516 6.115-.293a13.83 13.83 0 00-1.391-.852c-2.36-1.266-5.317-1.58-5.764-1.056-.067.078-.087.715 1.04 2.2zm241.249 1.042c.997.31 2.198.275 3.49.043-1.172-.26-2.364-.293-3.49-.077v.034zm176.516-12.92c-.908.788-2.513 1.944-4.463 3.345-2.866 2.066-8.2 5.912-8.565 7.03-.439 2.054.39 2.707.658 2.922 2.314 1.824 8.935.229 11.133-.825 5.315-2.55 10.944-6.282 12.026-9.61-2.094-.905-5.136-1.566-7.4-2.058-1.315-.286-2.482-.54-3.39-.804zm-63.667 9.315c-1.81 0-3.58.712-4.856 2.485-.773 1.076-1.57 2.64-.967 3.977.553 1.226 2.244 2.12 4.407 2.33 3.7.36 6.202-1.187 9.104-2.981.055-.037.115-.074.175-.111-.519-1.915-2.03-3.547-3.73-4.53-1.246-.722-2.702-1.17-4.133-1.17zm-242.584 6.947c3.27 0 6.627.033 9.749.689.99.207 1.906.409 2.764.597 6.098 1.338 9.036 1.983 15.209.07-1.303-2.62-6.634-4.966-11.061-6.669-4.166.392-8.28 1.09-10.116 1.801-5.071 1.964-12.043 1.832-16.186-2.895-2.738-3.124-4.19-7.421-4.91-12.118-1.51 6.096-2.432 11.954-.585 15.178.702 1.224 1.775 2.012 3.28 2.41 3.567.942 7.505.94 11.315.937h.54zM82.06 277.49c.081 1.075.179 2.188.294 3.354.423 4.286 1.074 8.69 1.705 12.947.908 6.138 1.846 12.485 2.149 18.735.064 1.31.011 2.975-.044 4.738-.17 5.444-.403 12.9 2.708 15.403 1.183.951 2.808 1.146 4.968.599 2.348-.596 3.859-1.638 4.62-3.186.537-1.093.673-2.39.552-3.782-2.712.168-5.523-.05-7.237-1.074-5.159-3.082-5.226-8.147-5.29-13.043-.01-.773-.02-1.556-.05-2.343-.35-9.497-1.19-21.296-4.375-32.348zm511.929 54.518c2.368 2.37 5.648 4.245 8.475 4.165 2.264-.076 3.999-1.413 5.15-3.973.215-.478.36-.953.434-1.421-2.807 1.72-5.579 3.208-9.602 2.812-1.795-.175-3.336-.736-4.457-1.583zm116.863 5.227c1.386 1.395 2.752 1.842 4.163 1.367 2.961-1.002 5.539-5.664 6.73-9.453-4.507 2.544-8.959 5.7-10.893 8.086zm1.002 8.766c-3.171 0-6.227-1.13-7.698-4.283-1.5-3.211-.11-5.708 1.236-8.122.474-.85.963-1.729 1.362-2.675.498-1.18.882-2.6 1.286-4.102.543-2.004 1.097-4.06 1.99-5.752l-.325.038a.997.997 0 01-.788-.25 14.117 14.117 0 01-.638-.637c-.17-.173-.334-.348-.483-.488a.998.998 0 01-.29-.938c.195-.892.469-1.745.738-2.569.564-1.74 1.097-3.39.818-5.235-3.71-2.003-2.677-5.351-1.845-8.061.344-1.12.698-2.276.738-3.288.085-2.31-.773-4.612-1.68-7.05-.663-1.781-1.351-3.624-1.66-5.517-.668-4.085-.688-8.467-.703-12.705-.015-4.658-.03-9.476-.913-13.93-.683-3.435-1.55-6.85-2.393-10.15-1.206-4.726-2.453-9.612-3.22-14.813-.818-5.558-2.947-16.017-7.977-23.614-.489-.738-.873-1.533-1.242-2.302-.045-.086-.085-.171-.125-.255-3.405 4.256-3.225 14.077-3.1 20.743.024 1.152.044 2.217.044 3.155 0 10.532-.733 20.305-2.233 29.876-1.865 11.905-2.463 22.983-3.096 34.713-.26 4.762-.524 9.686-.883 14.664a.999.999 0 01-1.77.56 50.934 50.934 0 00-1.565-1.79c-2.074-2.306-4.657-5.176-5.08-8.075-.33-2.247.787-5.34 1.87-8.33.572-1.585 1.116-3.082 1.34-4.22.235-1.167.509-2.428.798-3.756 1.58-7.32 3.55-16.427 1.984-22.419-.339-1.301-.658-2.279-.912-3.065-.992-3.037-1.132-3.848.867-8.682 1.65-4 2.443-9.597 2.822-13.588.25-2.675.32-5.437.384-8.109.15-6.045.304-12.297 2.578-18.109.18-.468.384-1.012.603-1.604 1.43-3.866 3.39-9.161 6.277-10.628a1 1 0 011.236.274c4.383 5.578 7.833 13.091 10.874 19.721a479.935 479.935 0 001.964 4.247c3.64 7.71 3.834 16.198 4.019 24.408.03 1.247.06 2.493.1 3.736.159 4.914 2.831 7.033 5.927 9.485 2.433 1.927 5.19 4.111 6.736 7.914 2.104 5.161 1.032 6.579-1.815 9.565-.389.406-.813.85-1.266 1.352-3.635 3.988-3.74 4.793-1.242 9.558l.803 1.512c3.15 5.908 7.912 14.837 4.612 21.576-1.097 2.248-3.166 3.396-4.99 4.408l-.53.295h.055c3.296 0 6.572.532 9.643 2.294-.055-2.214-.554-4.291-1.072-6.464-.584-2.428-1.187-4.939-1.112-7.656.065-2.49.598-4.945 1.112-7.32.543-2.49 1.102-5.065 1.102-7.639 0-3.276-.883-6.209-1.82-9.313-.494-1.63-1.002-3.316-1.361-5.035-.584-2.804-.683-5.754-.778-8.606-.08-2.286-.155-4.65-.494-6.865-.693-4.588-1.91-8.97-3.086-13.208-1.181-4.256-2.408-8.656-3.116-13.306-1.042-6.789.16-14.936 1.217-22.125.254-1.719.493-3.342.703-4.918.22-1.699.498-3.352.763-4.951 1.166-6.994 2.173-13.034-1.471-19.838l-.554-1.032c-1.226-2.276-2.203-4.094-2.881-5.75-13.865 6.51-32.103 8.033-45.205-2.381-3.445 6.111-4.502 15.477-3.146 27.868.364 3.34.917 6.65 1.456 9.85.932 5.585 1.9 11.36 1.89 17.454-.006 2.978-.31 5.656-.604 8.246-.184 1.645-.379 3.347-.498 5.139-.215 3.247.2 6.098.638 9.117.21 1.426.424 2.9.578 4.469.439 4.408-.553 8.788-1.51 13.025-.948 4.167-1.925 8.477-1.501 12.75.434 4.423-.444 9.06-1.296 13.544-.778 4.114-1.586 8.361-1.312 12.285 1.112.364 2.792.424 4.557.488 4.363.157 10.34.373 10.4 6.39v.037c.768.474 1.381 1.017 1.765 1.652.922 1.518 1.177 3.029.758 4.49-.967 3.377-5.215 5.512-8.321 7.07-.578.291-1.122.566-1.55.804-1.546.857-2.937 1.794-4.283 2.702-3.266 2.201-6.352 4.28-10.909 4.784-3.525.385-8.86-1.791-10.893-5.54-1.092-2.015-1.062-4.204.05-6.31h-26.958c-.429.293-1.48 1.105-2.348 1.775-1.486 1.143-3.016 2.325-3.664 2.708l-.23.138c.065 1.124-.14 2.306-.678 3.51-1.86 4.123-4.781 5.075-6.9 5.146-4.826.177-10.485-4.208-12.718-8.39-1.566-2.935-2.732-6.522.483-10.866 2.573-3.48 4.871-3.14 7.304-2.78.908.135 1.845.27 2.907.25-.14-.908-.29-1.845-.449-2.796-4.656 2.54-10.953 3.623-15.256 3.66a1.033 1.033 0 01-.733-.31.987.987 0 01-.269-.747c.28-4.67-.11-9.4-.518-14.406-.33-4.014-.668-8.164-.629-12.261.02-2.229.085-4.456.145-6.61.264-9.167.513-17.824-2.244-26.682-.932-3.004-1.974-6.066-2.981-9.026-1.964-5.77-3.993-11.736-5.414-17.771-.314-1.352-.663-2.75-1.017-4.186-1.546-6.237-3.231-13.058-3.545-19.558-2.977 9.229-5.774 17.962-6.347 28.279-.588 10.519-2.493 21.037-4.337 31.209-.374 2.071-.748 4.138-1.112 6.2-.459 2.594-1.017 5.108-1.56 7.54-1.417 6.354-2.758 12.356-2.154 19.07.14 1.518.433 3.166.752 4.91 1.132 6.251 2.538 14.03-5.105 15.97-1.78.454-4.033.3-6.212.15-2.119-.145-4.303-.295-5.474.202-2.413 1.027-3.82 3.985-5.066 6.594-.319.668-.623 1.308-.937 1.91 2.014 1.592 8.236 1.093 10.43-.274 1.52-.944 2.603-2.681 3.654-4.361.838-1.343 1.706-2.73 2.812-3.765a1.003 1.003 0 011.44.084c1.118 1.315 1.612 2.553 1.502 3.783-.17 1.938-1.825 3.298-3.28 4.498-.584.48-1.137.935-1.581 1.4-.987 1.04-1.725 2.145-2.438 3.213-1.386 2.072-2.817 4.214-5.898 5.424-4.004 1.575-7.837.841-10.255-1.96-2.423-2.814-2.877-7.024-1.277-10.875h-22.226c-.084 0-.17-.011-.254-.033-.698-.185-2.867.653-4.776 1.392-.579.224-1.177.455-1.79.682.319.275.429.721.28 1.116-1.207 3.118-3.426 5.094-6.093 5.422-2.702.332-5.395-1.095-7.379-3.916-1.166-1.656-1.607-3.516-1.661-5.439-.448-.224-.946-.602-1.57-1.2-.865-.832-1.597-3.07-2.464-5.907-.216-.708-.402-1.318-.54-1.697-2.99-8.19-4.925-17.554-5.452-26.368-.08-1.327-.148-2.639-.216-3.938-.417-7.962-.811-15.482-3.47-22.982l-.284-.8c-3.14-8.852-5.853-16.497-7.657-26-1.636-8.617-3.22-16.35-6.036-23.706l-.226-.59c-1.94-5.077-5.548-14.527-10.247-17.216a.997.997 0 01.697-1.843c5.922 1.232 14.141 10.89 16.704 15.505 3.497 6.299 3.875 15.933 4.179 23.674.03.789.06 1.551.093 2.281.734 16.544 8.925 34.859 15.667 47.31 6.147 11.354 5.664 21.148 4.397 32.772-.144 1.316-.423 2.674-.722 4.113-.325 1.58-.659 3.183-.798 4.727a7.25 7.25 0 012.204-.074c3.425.366 7.139-.47 10.758-1.35-3.026-7.193-6.46-15.345-7.837-22.885-.972-5.318-.758-10.803-.548-16.107.15-3.888.309-7.909-.02-11.734-.763-8.837-3.754-16.566-6.576-22.962-4.882-11.06-5.354-22.783-5.81-34.12-.25-6.19-.508-12.592-1.47-18.885-.127-.834-.168-1.824-.213-2.872-.055-1.295-.115-2.732-.356-4.026-2.85.275-5.823.97-8.721 1.649-2.79.652-5.675 1.327-8.466 1.637-7.931.883-10.478-1.516-13.492-7.666-.202-.069-.402-.14-.602-.21a41.017 41.017 0 00-3.791 3.97 1.001 1.001 0 01.345 1.145c-3.845 10.552-8.049 22.8-9.271 34.613-.39 3.762-.71 7.664-1.019 11.438-.686 8.38-1.396 17.044-2.934 25.286-2.272 12.184-3.252 21.583-3.278 31.425-.01 3.215.126 6.593.256 9.858.243 6.076.494 12.36-.153 18.013-.094.823.3 2.953.467 3.862.049.263-.006.549-.158.768a1.015 1.015 0 01-.644.429c-2.409.424-4.304-.075-5.634-1.48-3.66-3.867-1.883-13.195.25-22.417.419-1.81.78-3.374.853-4.136.62-6.479.06-12.314-.532-18.492-.263-2.745-.536-5.585-.703-8.522-.323-5.672 1.298-11.59 2.866-17.315 1.203-4.393 2.447-8.936 2.806-13.333l.24-2.986c.712-8.95 1.448-18.206 3.529-26.6 1.896-7.649 5.053-14.568 9.168-20.246-2.235-.55-4.424-1.442-6.562-2.314-2.034-.829-4.137-1.686-6.179-2.193-4.831-1.202-9.744-2.725-13.946-4.322-3.546 7.986-1.402 18.797.497 28.373.524 2.644 1.02 5.143 1.367 7.453 1.588 10.565.102 20.83-1.335 30.757-1.184 8.177-2.408 16.633-1.98 25.396.2 4.05.785 8.161 1.351 12.137.706 4.95 1.436 10.067 1.423 15.109-.007 2.56-.533 5.456-1.089 8.521-1.169 6.438-2.377 13.093 1.311 16.611 3.294 1.171 5.948 1.206 9.292 1.25 1.082.014 2.2.028 3.433.082a.997.997 0 01.937 1.179c-.078.422-.152.832-.223 1.23-.602 3.366-1.078 6.025-3.006 7.305-1.258.835-2.957.973-5.342.434-3.451-.78-8.018-3.107-9.891-6.373-.686-1.195-.971-2.425-.855-3.669h-18.219a.994.994 0 01-.474-.12c-1.026-.555-3.6-.714-6.649-.618 4.35 1.933 8.237 4.345 8.741 7.447a.998.998 0 01-.669 1.108c-7.35 2.45-10.85 1.681-17.202.288-.853-.188-1.763-.387-2.746-.594-3.091-.648-6.38-.645-9.88-.645-3.926 0-8.008.004-11.824-1.004-2.02-.534-3.534-1.66-4.502-3.347-2.777-4.846-.575-13.417 1.77-21.886-.226-4.842.05-9.778.29-14.058.053-.949.104-1.863.147-2.734a.999.999 0 01.95-.949c1.182-.053 1.963.114 3.082.67a1 1 0 01.543.74c.573 3.679-1.05 9.524-2.77 15.713l-.236.847c.324 6.344 1.55 12.41 4.948 16.287 3.508 4.004 9.543 4.065 13.967 2.35 1.218-.47 3.785-1.013 6.8-1.446-.996-.374-1.86-.711-2.525-1.016-9.302-4.26-12.682-10.122-10.962-19.007.687-3.55 1.605-7.125 2.492-10.582a435.47 435.47 0 001.053-4.16c-7.142.494-15-.951-22.813-4.21a.998.998 0 01-.607-1.039c1.513-12.747-.642-25.839-2.725-38.5-.17-1.028-.339-2.054-.505-3.078-6.276 6.33-6.443 14.837-6.62 23.811-.086 4.37-.176 8.888-1.015 13.181-.626 3.2-2.13 5.608-3.457 7.734-.144.23-.287.459-.427.686.41-.037.797-.06 1.16-.064.318 0 .63.149.82.412a1 1 0 01.135.908c-2.24 6.562-1.627 19.227 2.495 25.113a.997.997 0 01-1.597 1.194c-2.943-3.702-6.165-12.573-7.217-18.219-.51-2.73-.13-4.914.633-6.835-3.57.558-7.915 1.204-11.311.253 2.5 5.126 4.012 11.641 5.292 17.155.426 1.83.827 3.56 1.228 5.082.269 1.019.45 2.089.641 3.221.494 2.926 1.004 5.95 3.092 7.785 1.384 1.217 3.556 1.83 5.81 1.632 2.05-.177 3.804-1 4.813-2.255a.986.986 0 01.801-.372c.31.007.599.159.782.409 1.064 1.459 2.444 2.972 3.78 4.435 1.74 1.909 3.542 3.882 4.72 5.818 1.463 2.405 1.792 4.267 1.004 5.695-1.26 2.284-4.956 2.526-8.632 2.579h-.187c-5.152.001-14.442-2.923-18.154-8.344-1.564-2.284-2.02-4.843-1.347-7.47h-48.376l-.355.088c-2.222.555-4.155 1-5.84 1.355 1.642 2.328 1.947 4.852 1.307 6.854-1.155 3.613-5.048 5.54-9.921 4.92-4.427-.567-7.69-2.493-9.973-5.891-.595-.886-.932-1.697-1.23-2.413-.445-1.072-.797-1.919-1.896-2.804-.493-.396-1.065-.442-1.79-.5-1.105-.089-2.618-.21-3.613-2.016-.796-1.444-.937-2.869-.42-4.235.343-.903.965-1.723 1.78-2.471-1.118-1.749-1.721-4.444-1.873-8.276-.18-4.543-1.338-8.73-2.457-12.781-1.156-4.18-2.35-8.5-2.533-13.305-.102-2.699.396-5.224.878-7.666.425-2.153.827-4.186.812-6.239-.02-2.542-1.13-4.815-2.307-7.222-.734-1.501-1.493-3.055-1.99-4.71-1.03-3.441-1.532-7.005-2.018-10.452-.697-4.944-1.355-9.615-3.44-13.944-1.794-3.726-2.606-11.918-3.465-20.591-.897-9.05-1.825-18.408-3.865-21.948-.852-1.478-2.146-3.218-3.45-3.096-2.856.256-5.702 8.192-7.07 12.005-.158.44-.307.855-.446 1.235-2.2 6.01-3.956 21.29-5.368 33.57-.684 5.948-1.274 11.085-1.805 14.224-.385 2.274-1.147 4.392-1.884 6.441-.95 2.638-1.847 5.13-1.984 7.9-.083 1.65-.087 3.3-.092 5.045-.009 3.059-.018 6.222-.472 9.445l-.04.284c-1.6 11.378-3.112 22.126-6.04 32.927a.998.998 0 01-1.676.435c-.193-.198-.434-.421-.672-.642-.4-.37-.776-.72-1.008-1.014a.996.996 0 01-.202-.781c.51-3.097-1.282-5.935-3.18-8.941a86.429 86.429 0 01-1.206-1.946c-3.43-5.771-7.284-19.758-2.75-27.09 1.008-1.63 2.862-2.716 4.655-3.766 2.265-1.327 4.405-2.58 4.638-4.687.19-1.713-1.133-3.27-2.535-4.92-1.217-1.43-2.475-2.91-2.979-4.716-2.424-8.69 3.916-36.446 7.237-44.181 3.268-7.608 1.495-11.68-1.188-17.844-.624-1.435-1.27-2.918-1.907-4.577-3.088-8.046-2.425-16.374-.547-24.672a1 1 0 01.326-1.389 150.382 150.382 0 011.799-6.67c-.429-.099-.837-.189-1.219-.269-3.106 9.806-4.211 21.312-5.282 32.45-.495 5.154-1.008 10.484-1.71 15.456-.77 5.437-3.022 30.077-2.773 35.298.12 2.516.8 4.626 1.459 6.665.455 1.41.925 2.868 1.202 4.43.736 4.165-1.231 8.077-3.314 12.22-1.938 3.852-3.941 7.837-3.782 12.202.086 2.367.536 5.152 1.012 8.101 1.08 6.687 2.304 14.264-.413 19.623-.678 1.337-1.613 2.313-2.437 3.174-1.666 1.741-2.672 2.792-1.047 5.866.91 1.723 2.58 2.601 4.35 3.53 1.278.673 2.6 1.368 3.692 2.419a1 1 0 01.298.854c-.014.102-.03.203-.048.301 3.742.1 7.374-.45 8.862-1.766a.999.999 0 011.535.27c1.154 2.12 1.445 3.802.888 5.147-.797 1.921-3.014 2.572-5.158 3.202-.755.222-1.535.45-2.2.725-1.863.77-3.233 2-4.684 3.302-1.243 1.115-2.527 2.268-4.191 3.196-3.691 2.06-16.241.765-18.375-2.595-.245-.386-.592-1.172-.206-2.134H105.99c-.89.44-2.8.931-4.999 1.217.154 1.732-.025 3.393-.743 4.855-1.02 2.075-3.011 3.5-5.918 4.238-2.77.705-5.028.375-6.708-.977-3.887-3.126-3.646-10.83-3.452-17.021.054-1.723.105-3.35.045-4.58-.297-6.15-1.23-12.448-2.13-18.539-.634-4.281-1.288-8.709-1.717-13.043-.385-3.899-.576-7.226-.6-10.467a.998.998 0 011.924-.375c5.158 13.047 6.31 27.998 6.736 39.566.029.803.04 1.602.05 2.39.063 4.747.117 8.845 4.318 11.355 1.332.797 3.635.958 5.9.826-.575-2.56-1.74-5.261-2.71-7.508l-.168-.39c-3.62-8.405-2.92-17.834-1.625-26.771.348-2.398.901-4.877 1.436-7.273 1.216-5.454 2.472-11.083 1.552-16.526a8.932 8.932 0 01-1.022.785c-4.23 2.794-7.495 2.303-9.488 1.399-4.518-2.05-6.819-7.802-7.464-12.502-.662-4.817-.734-9.852-.803-14.721-.069-4.871-.14-9.91-.803-14.721-.237-1.718-.423-3.75-.619-5.901-.588-6.442-1.306-14.307-3.86-18.832-.914 2.398-1.012 5.847-1.101 8.954-.044 1.514-.085 2.945-.22 4.154-.179 1.605-.37 3.272-.565 4.965-.381 3.309-.775 6.73-1.108 9.984-.525 5.12-.477 10.212-.431 15.138.039 4.264.08 8.672-.248 13.096a.997.997 0 01-1.866.41c-1.75-3.154-2.935-6.376-4.082-9.492-1.266-3.444-2.576-7.005-4.645-10.41-3.573-5.884-3.846-11.738-4.134-17.935-.095-2.054-.194-4.176-.413-6.379-.696-7.013-3.182-14.468-7.824-23.46-1.008-1.952-1.975-3.612-2.83-5.076-.242-.416-.48-.824-.71-1.224-.877 8.523 2.291 18.02 5.374 27.262 1.643 4.926 3.195 9.579 4.05 13.89 1.563 7.867.164 16.223-1.54 24.807-.786 3.965.196 6.923 1.784 9.836 1.722.08 3.46.39 5.172.695 4.084.73 7.942 1.419 11.209-.936a.998.998 0 011.57.669c1.197 8.378 1.565 14.892 1.23 21.779l-.092 1.8c-.32 6.123-.716 13.744 1.115 18.906 1.065 3.001 1.744 6.136 2.401 9.166.82 3.782 1.667 7.692 3.268 11.297 1.519 3.422 3.946 6.334 6.294 9.15 1.786 2.142 3.634 4.358 5.113 6.82a.999.999 0 01-.149 1.22c-7.12 7.126-12.61 3.263-17.454-.146-2.737-1.925-5.567-3.916-8.666-4.071a.998.998 0 01-.946-1.056c.079-1.324.042-4.178-.547-10.297H1.137a.998.998 0 010-1.996h61.9c.511 0 .94.388.991.898.477 4.77.703 8.31.674 10.554 3.25.475 6.034 2.435 8.736 4.335 4.846 3.41 8.707 6.127 14.33.914-1.331-2.074-2.949-4.014-4.519-5.897-2.434-2.92-4.952-5.94-6.585-9.617-1.684-3.792-2.553-7.805-3.394-11.685-.643-2.97-1.309-6.04-2.331-8.92-1.964-5.538-1.556-13.379-1.228-19.679l.092-1.794c.308-6.337.007-12.364-1.005-19.897-3.598 1.835-7.538 1.132-11.362.449-1.225-.219-2.426-.433-3.594-.563l.663 1.069c1.511 2.424 3.073 4.93 4.058 8.02 1.517 4.76 2.154 9.925 2.77 14.92.422 3.414.857 6.944 1.57 10.302.23 1.083.57 2.386.929 3.764 1.818 6.967 4.308 16.51-1.42 19.575a.995.995 0 01-1.413-.557c-1.738-5.084-2.137-10.547-2.524-15.83-.348-4.757-.708-9.676-2.061-14.16-1.527-5.058-3.566-10.41-5.538-15.584-1.45-3.805-2.948-7.74-4.24-11.547a.998.998 0 01.557-1.24 10.882 10.882 0 013.193-.785c-1.467-2.936-2.336-6.117-1.511-10.27 1.662-8.379 3.03-16.52 1.54-24.03-.832-4.187-2.365-8.782-3.987-13.647-3.312-9.928-7.023-21.049-5.049-30.781-1.598-3.236-2.62-6.669-2.627-12.373-.007-6.18 1.016-14.752 5.936-20.506 3.82-4.466 7.695-3.758 11.445-3.073 2.076.379 4.06.74 6.087.275-.809-.594-1.794-1.055-2.757-1.505-1.825-.854-3.712-1.738-4.482-3.567a1 1 0 01.83-1.382c2.564-.227 4.934.267 7.225.746 1.856.387 3.632.757 5.517.784-.258-.571-.466-.966-1.034-1.34a.999.999 0 01.346-1.811c.44-.091.675-.263.974-.499-.363-.436-.747-.837-1.186-1.147a.999.999 0 01-.258-1.362c-2.158-.614-4.438-.653-6.828-.693-1.003-.017-2.04-.034-3.09-.095a.997.997 0 01-.776-1.544c1.37-2.088 3.815-2.193 5.972-2.286 2.04-.087 3.486-.21 4.331-1.215-3.568-.472-8.177-.342-11.727 1.304-1.269.588-2.366 1.76-3.527 3.002-1.783 1.906-3.627 3.877-6.4 4.04-3.186.19-5.078-1.867-6.747-3.679-1.248-1.353-2.426-2.633-4.005-2.893-1.805-.297-3.825 1.052-5.781 2.355-1.766 1.178-3.593 2.395-5.488 2.592a.993.993 0 01-.917-.417c-1.153-1.632-2.451-3.227-3.826-4.914-3.663-4.497-7.45-9.147-8.614-14.833-1.966-9.601 3.822-13.809 9.95-18.264 1.348-.98 2.742-1.994 4.106-3.095 3.553-2.868 6.76-6.428 9.861-9.872 3.062-3.4 6.228-6.914 9.672-9.678 3.153-2.529 7.13-4.238 10.974-5.89 1.288-.554 2.593-1.115 3.88-1.71.536-1.155.749-2.331.556-3.33-.184-.952-.732-1.71-1.633-2.263-.153.236-.32.47-.486.7-.313.438-.67.935-.758 1.248a.996.996 0 01-1.657.442l-.499-.488c-2.57-2.505-6.451-6.292-6.891-9.982-.537-4.507 2.001-6.748 4.24-8.725.568-.501 1.119-.988 1.625-1.502-1.24.003-2.494-.04-3.757-.137a.995.995 0 01-.86-1.34c1.493-4.047 2.636-5.94 5.558-9.211 1.45-1.622 2.463-3.374 3.537-5.229.892-1.544 1.816-3.14 3.03-4.706 3.075-3.97 11.106-9.169 17.578-8.184 2.777.423 4.885 1.98 6.15 4.525 2.293-1.05 4.58-1.05 6.814 0 5.304 2.495 8.896 10.617 9.652 15.322.557 3.46.33 6.837.11 10.103-.386 5.757-.752 11.196 3.474 15.931a1 1 0 01-.534 1.641 8.073 8.073 0 01-1.166.16c1.99.35 3.888.92 5.21 1.318 15.336 4.61 16.823 34.845 17.312 44.781.396 8.058.959 16.377 1.716 25.287a.999.999 0 01.329 1.306c-.063.116-.125.227-.188.336.697 8.012 1.55 16.51 2.578 25.73.398 3.57 2.754 6.911 5.25 10.45 3.746 5.312 7.62 10.804 5.134 17.666-.153.422-.57.686-1.016.655-3.747-.297-5.612-4.664-7.415-8.888-.128-.3-.257-.603-.387-.904a.998.998 0 01-1.419.852c-7.4-3.468-7.698-11.561-7.96-18.703-.063-1.698-.122-3.303-.272-4.8-.185-1.854-.476-3.87-.757-5.82-.395-2.735-.803-5.564-.94-8.07-.22-4.004.942-5.115 2.74-6.353.694-.478 1.405-.967 2.101-1.864-1.04.01-1.998.355-2.995.713-2.18.784-4.65 1.674-7.309-1.813-1.742-2.284-2.1-6.595-2.413-10.399-.111-1.333-.215-2.592-.37-3.546a60.092 60.092 0 01-.335-2.368c-.977 4.436-2.142 9.126-3.37 13.86-.53 2.046-.95 3.663-1.141 4.557-1.569 7.316-2.626 15.982-3.06 25.06-.203 4.263.18 8.606.55 12.806.32 3.639.65 7.372.593 11.059.362.219.707.449 1.035.692a.997.997 0 01.341 1.151c-2.04 5.465-2.631 13.144-3.152 19.92-.192 2.501-.374 4.864-.617 7.022-1.113 9.894-1.636 18.68-1.644 27.65-.002 1.451.12 3.202.248 5.056.419 6.052.922 13.306-2.047 17.897l.145.673c1.3 6.128-.07 12.274-1.396 18.218-.551 2.47-1.072 4.801-1.409 7.124-1.254 8.648-1.943 17.745 1.482 25.695l.168.389c1.037 2.404 2.281 5.286 2.876 8.113 2.167-.276 3.988-.744 4.433-1.053.167-.115.4-.202.602-.202h41.201a.998.998 0 01.583 1.809c-.748.538-1.033.959-.848 1.25 1.405 2.214 12.717 3.597 15.72 1.923 1.47-.82 2.616-1.85 3.83-2.94 1.512-1.357 3.076-2.76 5.257-3.66.761-.315 1.593-.56 2.397-.795 1.695-.498 3.447-1.013 3.877-2.052.237-.572.132-1.39-.314-2.44-2.243 1.2-6 1.677-9.764 1.512-.919 1.866-2.54 3.143-4.12 4.388-.207.164-.416.328-.624.494a1.002 1.002 0 01-.81.202c-1.487-.286-3.108-.452-4.825-.629-2.004-.206-4.078-.419-5.96-.84a.996.996 0 01-.37-1.78l.57-.414c1.872-1.35 4.396-3.172 4.748-5.17-.313-.573-.016-.992.151-1.165.2-.208.753-.617 1.544.08.09.08.163.173.218.275 1.404 1.307 4.6 2.16 8.016 2.476-.805-.647-1.766-1.152-2.772-1.681-1.96-1.03-3.986-2.095-5.185-4.364-2.298-4.348-.349-6.384 1.37-8.18.764-.798 1.554-1.624 2.099-2.698 2.423-4.779 1.254-12.015.223-18.4-.487-3.012-.946-5.857-1.037-8.348-.178-4.877 1.943-9.094 3.994-13.172 1.93-3.837 3.752-7.462 3.131-10.972-.253-1.43-.682-2.76-1.136-4.166-.698-2.164-1.42-4.402-1.553-7.184-.273-5.716 2.1-30.792 2.79-35.673.697-4.927 1.184-9.999 1.7-15.368 1.112-11.567 2.261-23.526 5.647-33.726a.998.998 0 011.133-.665 59.73 59.73 0 012.272.482c.154-.522.31-1.04.465-1.56a53.295 53.295 0 01-3.997-3.556c-15.495-15.145-15.482-36.782-13.739-53.94.457-4.497 1.792-8.857 3.084-13.074.27-.885.542-1.768.803-2.65.389-1.31.67-2.808.968-4.393.685-3.641 1.392-7.407 3.555-9.965 2.45-2.897 6.55-3.947 10.515-4.963 4.319-1.106 8.398-2.151 10.496-5.31a.998.998 0 011.798.792c-1.149 4.644-.058 8.592 3.071 11.117 3.794 3.06 9.824 3.405 15.007.857 4.128-2.03 5.837-4.866 6.602-8.216-2.028 2.22-4.556 3.988-7.242 4.918-4.071 1.408-8.046.714-11.192-1.955-4.742-4.023-3.855-10.414-2.996-16.594.451-3.255.88-6.342.48-8.932-2.178-.651-4.028-2.522-4.927-5.034-.844-2.362-.596-4.727.646-6.171.45-.524 1.142-1.066 2.177-1.345-1.076-1.481-1.43-3.617-.954-6.17.978-5.252 5.085-10.881 9.61-11.16.809-1.611 2.03-2.761 3.35-3.127a3.536 3.536 0 012.423.183c.215-.332.486-.697.902-.928a.997.997 0 01.893-.038c1.148.516 2.3.658 3.519.808 1.389.17 2.826.347 4.379 1.07 3.786 1.765 6.773 3.567 8.878 5.358a.991.991 0 01.279.387c2.735 6.789 1.463 12.413-.779 18.797.363.053.67.302.795.653.825 2.32.508 5.22-.806 7.387-1.09 1.798-2.794 2.94-4.797 3.218a.994.994 0 01-1.13-.919c-.28-3.987.268-7.473.799-10.844.624-3.964 1.215-7.721.35-11.863-6.642.538-13.38-.21-18.408-2.038-2.857 7.24-5.117 18.506-2.52 27.82 1.426 5.116 6.042 7.393 9.743 7.337 4.01-.058 7.067-2.595 8.237-6.809.03-.122.063-.244.096-.366a.996.996 0 011.93.503c-.031.125-.064.248-.097.37-.519 2.05-.721 4.163-.84 6.255a.995.995 0 011.196-.011c4.554 3.35 9.66 6.43 14.598 9.408 1.847 1.115 3.758 2.267 5.62 3.422 8.762 5.433 10.52 9.553 11.666 19.997.75 6.839 1.045 14.042 1.332 21.008.106 2.602.217 5.292.349 7.896.396 7.814-2.216 13.668-5.24 20.446a231.808 231.808 0 00-1.936 4.425c-3.573 8.478-12.525 21.547-22.54 22.8-2.842.357-4.73-.214-5.613-1.696-2.121-3.566 2.674-10.824 7.768-17.954.743-1.04 1.384-1.937 1.742-2.503 1.948-3.075 3.288-6.26 4.232-9.611-.566.24-1.093.528-1.546.892-1.365 1.098-2.472 2.798-3.542 4.442-.754 1.157-1.533 2.354-2.406 3.345-.963 1.092-2.682 2.467-4.673 4.06-3.386 2.708-8.024 6.417-8.424 8.744-.442 2.567 1.053 4.134 2.783 5.947 2.173 2.278 4.636 4.86 2.308 9.482-.378.753-.829 1.465-1.333 2.143.025.09.05.182.071.275a.999.999 0 01-.287.956c-.557.526-1.205.977-1.83 1.413-1.286.894-2.5 1.74-2.918 3.151-.128.43-.535.713-.978.714a23.195 23.195 0 01-.982-.043l-.313.244c-1.73 1.345-3.365 2.615-4.667 3.942a.996.996 0 01-1.024.248c-1.277-.421-3.174.313-4.847.96-1.886.73-3.667 1.42-5.084.79-.989-.439-1.612-1.081-1.852-1.909-.24-.825-.054-1.69.336-2.565-.916.663-2.06 1.128-3.558 1.108a.995.995 0 01-.98-1.069c.19-2.685 1.83-5.462 3.148-7.693l.245-.415c.687-1.168.924-1.953 1.066-2.421.14-.462.297-.985.874-1.202.596-.225 1.072.068 1.727.476.376.233.89.552 1.642.958 1.832.987 3.281 2.017 4.56 2.927 2.455 1.747 4.459 3.172 8.118 3.565 1.902-1.489 3.78-3.03 5.25-4.75-.84-1.535-2.56-2.59-4.363-3.692-2.378-1.457-4.837-2.962-5.062-5.764a.999.999 0 011.227-1.05c1.163.28 2.321.937 3.442 1.572 2.496 1.415 3.923 2.018 5.182 1.007-.492-.35-1.004-.724-1.534-1.11-4.454-3.246-10.553-7.692-15.363-5.746-1.864.755-3.417 2.512-4.92 4.211-.839.95-1.702 1.927-2.63 2.738.11.161.172.353.173.554.017 2.431-1.344 4.449-3.835 5.683-2.7 1.338-6.182 1.466-8.697.457-1.683 7.757-2.203 15.483.615 22.824.62 1.616 1.257 3.08 1.873 4.495 2.68 6.161 4.8 11.028 1.191 19.43-3.154 7.344-9.425 34.694-7.148 42.855.386 1.384 1.45 2.635 2.577 3.96 1.614 1.9 3.283 3.863 2.998 6.433-.344 3.103-3.143 4.743-5.612 6.19-1.656.97-3.22 1.886-3.967 3.095-3.768 6.092-.877 18.886 2.768 25.017.38.637.779 1.27 1.177 1.9 1.927 3.052 3.917 6.202 3.53 9.838l.028.028c2.618-10.142 4.05-20.319 5.56-31.061l.04-.284c.435-3.088.444-6.181.453-9.173.004-1.691.01-3.44.093-5.138.153-3.068 1.143-5.819 2.1-8.478.74-2.056 1.44-3.999 1.795-6.098.522-3.086 1.11-8.199 1.79-14.119 1.424-12.383 3.196-27.795 5.477-34.028.137-.376.284-.786.44-1.222 1.85-5.157 4.646-12.95 8.77-13.32 1.916-.172 3.67 1.165 5.355 4.087 2.255 3.912 3.162 13.062 4.122 22.75.805 8.117 1.636 16.513 3.278 19.921 2.22 4.608 2.93 9.653 3.618 14.532.476 3.373.967 6.86 1.954 10.157.45 1.498 1.14 2.91 1.87 4.405 1.223 2.502 2.487 5.09 2.51 8.086.016 2.255-.424 4.484-.85 6.64-.459 2.329-.935 4.738-.841 7.204.173 4.571 1.336 8.779 2.462 12.847 1.15 4.16 2.34 8.461 2.528 13.235.132 3.346.613 5.7 1.463 7.128 2.722-1.812 6.477-3.148 9.52-4.23 1.427-.508 2.694-.96 3.558-1.353-.16-2.64-2.334-5.162-4.44-7.607-.984-1.14-1.911-2.217-2.637-3.305-.841-1.26-1.524-2.667-2.185-4.026-1.416-2.916-2.755-5.67-5.464-6.837a.996.996 0 01-.594-.789c-.413-3.195 2.28-4.746 4.655-6.114 1.416-.815 2.88-1.659 3.57-2.759 1.93-3.082 1.397-6.754-1.325-9.136-1.188-1.04-2.583-1.53-3.813-1.963-1.438-.505-2.68-.942-2.992-2.18-.285-1.13.35-2.391 2.264-4.495.65-.713 1.254-1.324 1.788-1.863 2.315-2.336 3.478-3.51 3.522-8.159.09-9.263-2.989-38.007-4.425-47.127-.366-2.319.153-6.555.81-11.919 1.173-9.574 2.72-22.205-.502-28.473-2.84.703-6.242.857-8.596 0-2.033-.739-3.154-2.187-3.159-4.077a.998.998 0 01.699-.955c4.424-1.388 7.939-1.034 10.444 1.054a8.66 8.66 0 011.507 1.644c1.112-.377 1.975-.831 2.359-1.288a.996.996 0 011.709.326c2.7 8.105 3.569 16.146 4.042 25.726.279 5.639.251 16.614.224 27.227-.026 10.153-.053 20.651.196 26.048.08 1.73.053 3.505.028 5.22-.048 3.245-.093 6.309.506 9.16.338 1.61.885 3.14 1.465 4.762.859 2.403 1.748 4.889 1.88 7.62.175 3.638.074 7.261-.024 10.765-.153 5.47-.312 11.126.598 16.874.422 2.668 1.487 4.485 2.616 6.41.792 1.35 1.61 2.745 2.29 4.52 1.45 3.796.526 9.678-.027 13.192a.998.998 0 01-1.324.784c-3.45-1.25-7.08-.422-10.282.307-3.296.751-6.41 1.461-8.713-.287-.584.54-1.019 1.11-1.246 1.709-.305.804-.206 1.643.301 2.563.458.83.952.904 2.026.99.85.068 1.91.154 2.88.935 1.497 1.203 2.001 2.418 2.49 3.592.273.661.558 1.345 1.042 2.066 1.971 2.932 4.695 4.529 8.57 5.025 4.7.604 7.095-1.438 7.77-3.548.531-1.66.131-3.834-1.6-5.807-8.281 1.554-9.127.446-9.583-.15-1.58-2.07-1.918-3.665-1.002-4.742 1.67-1.965 6.347-.418 8.225.59 1.201.644 2.206 1.366 3.033 2.136 1.869-.373 4.134-.88 6.876-1.565.28-.07.458-.114.515-.126a.971.971 0 01.208-.022h49.868a.997.997 0 01.925 1.371c-1.003 2.49-.77 4.835.69 6.968 3.204 4.676 11.69 7.477 16.497 7.477l.17-.001c2.136-.03 6.109-.087 6.915-1.548.505-.915-.244-2.513-.96-3.69-1.079-1.772-2.814-3.673-4.49-5.512-1.097-1.2-2.223-2.434-3.206-3.67-1.355 1.167-3.232 1.915-5.326 2.096-2.784.243-5.514-.552-7.299-2.12-2.619-2.304-3.215-5.836-3.742-8.953-.183-1.087-.356-2.114-.602-3.044-.409-1.551-.813-3.295-1.242-5.14-1.5-6.46-3.328-14.336-6.637-19.396a6.695 6.695 0 01-1.357-1.855.997.997 0 011.652-1.092c.424.5.827 1.04 1.212 1.61 2.78 2.466 8.396 1.587 13.032.862.383-.06.756-.119 1.118-.173.398-.708.824-1.391 1.248-2.07 1.295-2.075 2.636-4.221 3.19-7.059.807-4.122.894-8.552.98-12.836.188-9.591.384-19.51 8.657-26.527a1 1 0 01.99-.175.999.999 0 01.639.78c.26 1.628.53 3.263.8 4.903 2.065 12.55 4.2 25.523 2.823 38.306 7.53 3.032 15.052 4.317 21.847 3.728.589-2.513 1.118-5.05 1.5-7.584 1.333-8.859-.403-16.875-2.63-25.69-2.16-8.55-1.147-16.608.29-25.5.407-2.52 1.114-5.321 1.815-8.053-14.238 6.506-34.454 5.124-48.662 1.55-1.321-.333-2.551-.711-3.74-1.077-2.813-.866-5.47-1.683-8.74-1.684-.43-.006-.856.003-1.268.01.133.242.263.495.393.762 1.987 4.102 3.072 9.082 4.122 13.897.394 1.809.766 3.517 1.182 5.179 1.65 6.579.363 13.48-.883 20.152-1.39 7.444-2.701 14.475-.347 21.173a.999.999 0 01-1.725.948c-4.917-6.279-5.857-17.226-6.351-26.995-.16-3.126-.19-6.286-.22-9.34-.064-6.403-.128-13.025-1.397-19.372l-.199-.982c-.603-2.957-.966-4.742.052-5.99.37-.453.868-.768 1.537-.985-1.459-1.005-3.113-.893-5.218-.749-2.09.143-4.458.304-7.141-.636a.998.998 0 01-.63-1.21c3.96-14.175 9.384-33.586 9.346-50.69-.005-1.909.009-3.891.022-5.918.048-7.112.097-14.467-.556-21.182-.4-4.107-1.644-7.907-2.962-11.93-1.352-4.13-2.75-8.4-3.164-13.052-.92-10.341.336-17.329 3.732-20.768 1.628-1.648 3.417-2.418 5.349-2.281 1.794.125 3.504 1.02 5.1 2.303a10.652 10.652 0 01-.264-1.295.998.998 0 01.524-1.02c3.707-1.953 6.46-5.902 7.184-10.305.65-3.95-.354-7.657-2.83-10.5-1.356.162-2.838-.46-4.09-1.74-1.496-1.526-2.136-3.452-1.632-4.904.086-.247.234-.56.49-.871-3.504-1.648-5.423-5.938-5.025-11.69.442-6.397 3.903-12.85 9.01-13.152.722-1.425 2.089-2.51 4.075-3.233 5.754-2.094 15.754-.585 19.233 1.507 3.748 2.253 6.904 7.494 7.676 12.744.58 3.95-.245 7.387-2.324 9.677a.998.998 0 01-1.698-.404c-1.686-6.079-3.235-7.806-10.246-7.566-.926.033-2.056.18-3.253.337-3.248.424-7.396.966-10.041-.713-.118 1.568-.487 3.113-.849 4.627-.531 2.228-1.081 4.533-.828 6.883.546 5.048 3.998 10.269 8.21 12.413 3.505 1.786 8.788 2.576 12.104.091.548-.41 1.092-.972 1.604-1.63.095-3.271.92-6.603 2.705-9.907a.998.998 0 011.807.116c1.077 2.794-.332 7.292-2.522 10.433-.009 6.73 3.283 13.217 7.494 18.58 4.499-1.396 9.985.044 11.7.567 7.742 2.363 15.392 12.33 17.052 22.217.929 5.53-.13 10.341-2.995 13.923 3.06-1.459 6.166-2.555 8.54-1.703 1.244.448 2.177 1.378 2.77 2.766a1 1 0 01-.525 1.31c-1.161.497-2.276.858-3.354 1.207-2.004.648-3.896 1.26-5.8 2.662-1.358 1-2.54 2.403-3.793 3.889-1.154 1.367-2.347 2.782-3.757 3.964l-.157.13c-.784 5.321-.82 10.444-.169 16.086.88 7.618 3.077 15.075 5.2 22.287 2.502 8.494 5.089 17.277 5.604 26.497.178 3.18-.52 6.902-1.427 10.694.38-.241.754-.49 1.122-.745a.997.997 0 011.53.545c3.989 14.022 5.209 32.747 3.346 51.376-.146 1.46-.202 3.056-.261 4.746-.239 6.857-.534 15.346-8.132 16.62-.4 1.641-.817 3.268-1.23 4.875-.879 3.428-1.79 6.973-2.465 10.465-1.555 8.03 1.294 12.9 9.834 16.812.886.405 2.215.897 3.754 1.466.736.272 1.505.556 2.29.854 4.713-.433 9.504-.462 11.594.466h19.208a.995.995 0 01.95 1.3c-.363 1.147-.227 2.25.417 3.372 1.503 2.622 5.464 4.71 8.6 5.419 1.794.406 3.037.356 3.8-.15 1.218-.809 1.608-2.984 2.147-5.994l.018-.103a150.05 150.05 0 00-2.229-.04c-3.454-.046-6.437-.085-10.137-1.439a.991.991 0 01-.325-.196c-4.683-4.226-3.298-11.852-2.077-18.579.54-2.976 1.05-5.786 1.057-8.17.012-4.897-.707-9.942-1.402-14.82-.574-4.021-1.167-8.18-1.369-12.322-.438-8.957.8-17.51 1.997-25.78 1.482-10.234 2.881-19.9 1.337-30.173-.34-2.265-.831-4.741-1.351-7.362-2.027-10.222-4.325-21.808.066-30.476a.997.997 0 011.252-.478c4.307 1.686 9.481 3.312 14.569 4.576 2.18.542 4.35 1.427 6.45 2.283 2.345.957 4.754 1.94 7.138 2.413a44.047 44.047 0 013.936-4.326c-.802-.33-1.599-.681-2.389-1.055-3.443 2.945-5.53 2.37-8.854 1.45-.547-.15-1.138-.314-1.787-.476-.673-.167-1.366-.332-2.07-.498-7.393-1.754-16.593-3.936-15.842-13.466.575-7.292 3.033-18.443 8.068-25.87.256-.378.467-.727.672-1.066.658-1.09 1.28-2.12 2.871-3.04a.998.998 0 011.495.895c-.087 2.81-.508 5.714-.915 8.521-.81 5.583-1.646 11.356.13 16.57 2.43 7.132 9.323 11.19 15.592 14.435l.29.15c1.867-1.92 3.267-4.838 4.173-8.694a26.96 26.96 0 01-.23-1.061c-.591-3.026-.707-6.531-.348-10.452-1.076-7.032-1.985-14.082 2.005-16.227a.998.998 0 011.29.308c1.717 2.462.715 6.285-.168 9.657-.323 1.232-.628 2.395-.772 3.376a56.807 56.807 0 00-.346 2.826l.101.662c.602 3.901 1.17 7.586.734 9.847-.068.356-.14.706-.217 1.05 1.776 6.964 6.575 13.469 15.205 12.23 3.509-.502 6.037-1.929 7.513-4.24 1.86-2.909 2.058-7.273.56-12.289-2.786-9.325-4.312-16.233-.172-25.901.187-1 .475-1.908.888-2.691-10.384 3.175-23.217 4.26-28.38 1.982-2.288-1.008-2.78-2.473-2.79-3.524a.998.998 0 01.581-.917c1.7-.781 5.252-1.56 9.75-2.547 8.589-1.885 21.57-4.732 24.11-8.854.107-.172.192-.342.256-.511-5.038-.71-11.829 2.4-17.446 4.97-2.186 1.001-4.251 1.947-6.034 2.59-1.595.576-3.243 1.249-4.836 1.9-6.276 2.563-12.764 5.213-19.576 3.7-4.78-1.063-9.577-5.825-10.265-10.192-.41-2.596.615-4.838 2.89-6.363l-.074.005c-2.234.14-4.225-.674-5.333-2.174-1.66-2.249-1.75-7.648-1.815-11.589a76.061 76.061 0 00-.057-2.262l-.075-1.473c-.436-8.392-.811-15.638 4.76-22.514 5.144-6.346 6.488-13.985 7.912-22.073 1.5-8.523 3.052-17.336 9.45-24.431 2.844-3.154 8.297-6.179 12.81-5.575 2.28.306 4.124 1.494 5.38 3.455 2.367-.982 4.51-.931 6.381.154 4.37 2.536 6.831 10.411 7.52 24.074.078 1.517-.008 3.366-.098 5.325-.18 3.908-.383 8.338.699 10.855 1.098 2.554 2.956 3.267 5.108 4.093 1.95.747 4.159 1.595 5.81 3.958a.998.998 0 01-1.525 1.275c-2.844-2.873-6.91-1.465-11.216.027-1.296.449-2.607.903-3.907 1.247-.062 4.01-.225 8.094-.983 12.173a90.507 90.507 0 001.55-2.59c2.463-4.222 5.01-8.586 10.08-9.97 9.113-2.484 13.742 10.436 14.942 14.456 2.713 9.086 1.805 19.204-2.313 25.775l-.133.209c.813.647 1.445 1.436 1.763 2.44.42 1.329.479 3.25-1.188 5.396.217 1.228.036 2.404-.538 3.44-1.445 2.605-4.315 2.847-6.846 3.06-1.381.116-2.697.228-3.509.706a38.082 38.082 0 00-1.793 3.593c-.776 4.81 1 12.541 1.967 16.748.167.726.317 1.382.439 1.946.674 3.114 1.473 6.347 2.245 9.475 1.437 5.817 2.922 11.832 3.782 17.702a.997.997 0 01-.986 1.142c-.062.006-.13 0-.194 0-.13 0-.26 0-.39.003.226 1.35.285 2.766.34 4.061.041.993.08 1.93.191 2.654.98 6.403 1.24 12.861 1.491 19.107.47 11.664.914 22.68 5.642 33.394 2.887 6.545 5.948 14.468 6.736 23.596.344 3.95.18 8.035.025 11.985-.204 5.195-.414 10.567.518 15.668 1.342 7.328 4.732 15.375 7.718 22.474l.454 1.076a1 1 0 01-.683 1.356l-.444.108c-4.003.98-8.146 1.994-12.135 1.566-.922-.097-1.46.015-1.94.113l-.109.023c.075 1.495.434 2.892 1.291 4.107 1.55 2.2 3.55 3.327 5.504 3.085 1.725-.212 3.221-1.465 4.178-3.473-.14-.1-.289-.194-.433-.286-2.872.894-5.809 1.37-8.057.244a.993.993 0 01-.544-.999c.02-.2.02-1.061 0-1.243a1.013 1.013 0 01.708-1.083c2.588-.77 5.534-.411 8.107.913a78.908 78.908 0 003.17-1.174c2.618-1.013 4.533-1.756 5.859-1.493h23.717a1 1 0 01.862.498.99.99 0 010 .997c-2 3.482-1.87 7.53.324 10.07 1.865 2.165 4.786 2.677 8.017 1.41 2.498-.984 3.645-2.696 4.97-4.678.759-1.138 1.546-2.314 2.648-3.478.529-.554 1.152-1.07 1.76-1.567 1.212-.998 2.463-2.028 2.563-3.133.035-.416-.09-.88-.374-1.384-.594.735-1.137 1.608-1.705 2.516-1.172 1.873-2.379 3.81-4.288 4.999-2.867 1.783-11.278 2.606-13.526-.71a.995.995 0 01-.045-1.056c.409-.718.803-1.547 1.222-2.423 1.396-2.93 2.976-6.251 6.087-7.573 1.605-.683 3.929-.525 6.387-.357 2.024.14 4.118.282 5.588-.092 5.435-1.38 4.966-6.312 3.63-13.68-.31-1.71-.628-3.48-.773-5.088-.633-7.023.738-13.173 2.194-19.684.538-2.41 1.092-4.902 1.54-7.45a990.71 990.71 0 011.117-6.21c1.83-10.113 3.725-20.569 4.303-30.964.593-10.642 3.465-19.54 6.501-28.961.778-2.415 1.586-4.912 2.343-7.428a.996.996 0 011.935.475c-1.56 8.232.882 18.11 3.041 26.824.359 1.443.708 2.85 1.027 4.208 1.396 5.94 3.41 11.86 5.36 17.586 1.007 2.972 2.054 6.046 2.996 9.075 2.857 9.176 2.602 17.995 2.333 27.332-.06 2.146-.124 4.364-.144 6.574-.04 4.005.294 8.109.618 12.078.369 4.491.748 9.124.578 13.601 4.393-.2 9.976-1.394 13.835-3.695-.962-4.956-2.398-10.117-4.766-13.977-4.562-7.428-2.458-12.343.204-18.565.604-1.407 1.227-2.863 1.84-4.472 5.968-15.745 2.478-32.3-.892-48.31l-.1-.465c-.32-1.539-.688-3.079-1.077-4.71-1.59-6.675-3.236-13.577-2-20.74 1.192-6.899 5.72-14.367 10.5-21.441-2.048-1.607-4.023-4.346-5.638-7.274-7.818 3.97-22.086 2.578-28.558 1.947l-1.436-.137c-5.938-.555-12.524-1.172-16.701-5.005-2.22-.245-4.398-.625-6.452-1.208-.459 3.367-3.46 9.511-5.22 11.77-1.61 2.069-3.305 3.235-5.05 3.483-.599 11.85 4.906 24.329 17.115 38.94 9.653 11.557 1.67 24.612-5.38 36.13-3.035 4.97-5.907 9.664-7.333 14.01-2.672 8.153.982 18.162 3.4 23.403.354.768.763 1.55 1.197 2.377 1.834 3.51 3.918 7.49 1.854 11.245-1.366 2.48-4.402 4.062-7.08 5.457-1.26.657-2.452 1.276-3.354 1.923a1.001 1.001 0 01-1.067.06 1.003 1.003 0 01-.509-.938c.29-4.406.105-8.945-.09-13.752-.229-5.624-.463-11.44.12-17.067.314-3.031.798-6.18 1.261-9.224 1.277-8.359 2.598-17.002.898-25.106-.499-2.365-1.052-4.653-1.58-6.866-1.86-7.719-3.615-15.01-2.678-23.772 1.007-9.403 1.66-21.748-2.244-33.828-.872-2.703-1.131-4.428-.752-6.014-2.1-2.402-3.919-5.938-5.6-9.61-5.493-11.988-5.194-21.74-4.511-33.754-3.43-1.052-5.04-2.358-4.343-7.214.948-6.585 3.43-15.143 7.38-25.437.208-.548.438-1.193.682-1.89 1.092-3.11 2.458-6.981 4.482-8.839 1.69-1.553 4.243-2.586 6.716-3.584 1.47-.594 2.862-1.155 3.963-1.785 1.705-.97 3.755-2.689 5.923-4.509 4.243-3.556 9-7.545 13.417-7.87a3.62 3.62 0 00.633-.85c.812-1.55.538-4.795.334-7.165l-.06-.699c-.015-.077-.025-.155-.04-.233-2.288-.333-3.789-2.171-4.307-4.04-.559-2.027-.065-3.99 1.236-5.205-1.99-3.033-2.343-6.353-1.022-9.658 2.308-5.778 8.944-9.732 14.02-10.519 4.332-.671 7.952.217 10.753 2.643 3.416 2.955 5.47 8.26 5.759 14.738.25-.03.508.033.723.192 3.869 2.905 1.196 8.137-.574 11.6-.309.6-.598 1.168-.817 1.654a1 1 0 01-1.092.567 4.45 4.45 0 01-.553-.146l-.005.017c-.17.489-.344.995-.529 1.512-.164 4.76-.479 9.566-1.795 13.87-.862 2.823-2.144 5.313-3.56 7.65a9.48 9.48 0 011.162-.269c3.041-.503 6.187.527 8.83 2.801a95.002 95.002 0 01-.205-2.952c-.06-.979-.12-1.985-.204-2.98-2.07-1.947-3.316-4.844-3.226-9.363a.998.998 0 011.575-.792c2.384 1.698 3.176 5.305 3.555 9.118 2.558 2.071 6.462 2.772 10.879 3.566l.613.11c8.177 1.477 10.804 8.555 13.342 15.4l.458 1.224c3.65 9.743 5.495 17.932 5.485 24.337-.005 3.808-.569 6.39-3.062 7.974-.01 2.442.434 5.21.868 7.925.648 4.038 1.316 8.214.603 11.62-1.485 7.111-6.122 14.273-9.836 19.76a.996.996 0 01.174.863c-.618 2.36-1.46 4.705-2.273 6.972-1.227 3.414-2.498 6.943-3.062 10.665a98.072 98.072 0 00-.962 19.22c.25 5.1 1.132 10.247 1.99 15.224.673 3.932 1.37 7.997 1.754 12.034.614 6.395.698 12.402.788 18.763.055 3.75.11 7.627.284 11.587.13 2.946.574 6.323 1.047 9.898 1.092 8.233 2.329 17.564-.164 24.227-.698 1.863-2.08 3.412-3.854 4.681.29 1.625.538 3.212.753 4.71a1.008 1.008 0 01-.868 1.132c-1.775.214-3.2.003-4.457-.184-2.288-.338-3.55-.525-5.414 1.994-2.403 3.249-1.87 5.842-.324 8.736.264.49.583.986.947 1.477a1.946 1.946 0 01-.105-.218c-.553-1.217-.797-3.241 1.167-5.966 2.996-4.166 8.116-3.893 11.601-1.876 1.96 1.133 3.71 2.97 4.497 5.17.713-.496 2.02-1.503 3.106-2.34 2.817-2.172 2.842-2.173 3.261-2.19h29.126a1 1 0 01.773 1.63c-1.61 1.968-1.925 3.893-.932 5.724 1.58 2.92 6.087 4.818 8.919 4.508 4.073-.449 6.825-2.305 10.016-4.455 1.381-.93 2.807-1.893 4.427-2.792a46.82 46.82 0 011.626-.841c2.617-1.315 6.57-3.302 7.298-5.837.265-.917.085-1.866-.548-2.903a2.231 2.231 0 00-.499-.563c-1.884 4.664-9.407 8.725-12.907 10.404-1.92.92-9.777 3.313-13.227.593-.947-.748-1.955-2.208-1.371-4.922.319-1.508 3.016-3.658 9.348-8.218 2.074-1.497 4.038-2.91 4.661-3.548a.99.99 0 011.037-.246c.848.293 2.19.584 3.74.922 2.398.522 4.975 1.082 7.064 1.886-.578-2.914-3.759-3.263-8.38-3.429-2.274-.082-4.428-.16-5.879-.906a.998.998 0 01-.538-.79c-.434-4.372.444-8.984 1.286-13.444.823-4.346 1.675-8.84 1.267-12.978-.45-4.593.563-9.063 1.54-13.386.967-4.269 1.885-8.3 1.476-12.385-.15-1.524-.36-2.975-.564-4.379-.458-3.126-.887-6.08-.658-9.538.125-1.838.32-3.563.509-5.23.3-2.653.583-5.158.588-8.025.01-5.925-.902-11.363-1.864-17.121-.539-3.228-1.097-6.566-1.471-9.963-1.48-13.527-.125-23.665 4.033-30.13.16-.242.409-.406.693-.447.29-.043.579.04.793.228 12.534 10.695 30.552 9.208 44.158 2.75a11.471 11.471 0 01-.354-4.58c-10.22 4.746-25.597 5.14-35.324 2.08-8.615-2.71-8.675-5.169-7.548-12.53.07-.466.145-.956.22-1.47.792-5.38.713-14.592-1.81-19.116-5.474 1.661-9.737 1.196-12.694-1.385-5.888-5.14-4.427-16.943-3.524-21.78a.998.998 0 011.56-.63c.294.212.598.41.912.593a.922.922 0 01.095-.336l.015-.03c2-4.186 4.717-8.286 7.339-12.251 1.88-2.833 3.819-5.763 5.45-8.66.303-.531.573-1.023.827-1.48 2.104-3.8 3.066-5.536 7.379-7.78 2.617-1.362 6.576-3.421 9.158-5.415a.998.998 0 011.5 1.242l-.702 1.375c-1.496 2.918-3.031 5.91-4.158 8.987 2.468-1.815 5.2-2.943 8.396-1.057-1.252-4.359-2.663-9.293-1.9-13.807a1 1 0 011.426-.728c1.605.793 3.106.83 4.592.114.778-.374 1.51-.926 2.198-1.61-2.622.54-4.95.008-6.925-1.582-4.94-3.984-6.281-13.678-6.296-18.778a.998.998 0 011.84-.541c1.405 2.198 2.098 4.445 2.706 6.428.708 2.32 1.327 4.325 2.877 5.749 1.51 1.388 3.051 1.312 5.604 1.182 2.114-.106 6.063-6.118 8.201-10.354.15-.295.43-.486.733-.536.005-.012.005-.023.005-.035 1.301-9.987.334-15.478-8.56-17.772-3.839-.99-6.506-.984-8.167.016-2.088 1.26-2.786 4.174-3.664 7.864-.384 1.604-.818 3.422-1.42 5.265a.989.989 0 01-1.033.685 1 1 0 01-.902-.855c-1.067-7.567-1.486-15.235 2.647-20.061 2.662-3.112 6.84-4.665 12.773-4.746 4.557-.064 10.794-.148 14.503 6.161 2.284 3.88.993 8.008-.15 11.649-.383 1.214-.747 2.379-.981 3.502 1.052.053 1.71.513 2.109.961 1.091 1.228 1.166 3.519.204 6.127-.763 2.07-2.328 4.551-4.352 5.19-2.045 4.404-.559 6.646 1.475 9.714.678 1.02 1.416 2.14 2.044 3.416.13.15.26.3.384.45 1.017 1.205 2.07 2.451 3.26 3.42 2.1 1.711 4.498 2.818 6.821 3.888 4.333 1.994 8.805 4.056 11.113 9.98 3.081 7.922 2.822 19.37 1.277 26.654-2.274 10.716-6.198 25.328-14.005 28.497-.534.217-1.062.39-1.59.525 1.42 5.366.772 10.587-1.91 17.077a61.091 61.091 0 00-.962 2.471c.24-.171.468-.347.693-.527a.997.997 0 011.595.573c.494 2.288.918 5.27-.164 8.05-.085.213-.24.391-.44.505a53.3 53.3 0 01-1.948 1.056c.638 1.573 1.595 3.354 2.846 5.685l.559 1.034c3.963 7.404 2.856 14.062 1.68 21.11-.264 1.583-.539 3.219-.758 4.882-.21 1.592-.449 3.223-.703 4.95-1.037 7.05-2.214 15.04-1.221 21.532.693 4.532 1.9 8.874 3.066 13.073 1.196 4.295 2.428 8.736 3.14 13.444.355 2.33.434 4.753.514 7.097.09 2.768.185 5.63.738 8.264.34 1.635.838 3.278 1.316 4.867.938 3.107 1.905 6.32 1.905 9.89 0 2.788-.584 5.47-1.147 8.063-.518 2.39-1.007 4.646-1.067 6.948-.065 2.456.479 4.73 1.057 7.14.658 2.758 1.341 5.611 1.072 8.815a.996.996 0 01-1.58.722c-3.934-2.879-8.321-3.156-12.893-2.784a1.85 1.85 0 00-.1.13c-1.186 1.55-1.85 4.016-2.493 6.4-.409 1.501-.827 3.053-1.376 4.358-.443 1.048-.957 1.974-1.456 2.871-1.3 2.334-2.243 4.02-1.176 6.306 1.575 3.378 5.873 3.585 9.373 2.653 2.926-.779 6.072-3.822 8.022-7.752 1.475-2.981 2.024-5.982 1.56-8.309-.254.127-.508.256-.768.39-.967 4.447-4.222 11.192-8.495 12.637-1.665.56-4.198.576-6.85-2.541a1.01 1.01 0 01-.075-1.195c1.89-2.875 7.837-7.134 13.636-10.193.04-.275.064-.535.08-.775a.993.993 0 01.917-.941c.802-.06 1.46-.057 2.208.014.065.007.135.02.2.04 3.485-1.553 6.586-2.435 8.26-2.008h47.344a.999.999 0 010 1.996H733.89a.981.981 0 01-.314-.05c-1.161-.383-3.749.382-6.81 1.753.733 2.857.164 6.452-1.625 10.069-2.224 4.49-5.784 7.86-9.294 8.795-1.276.34-2.647.544-3.993.544z"/>
          </g>
        </g>
      </g>
    </g>
  </g>
</svg>