<svg xmlns="http://www.w3.org/2000/svg" viewBox="0 0 180 68">
<g fill="none" fill-rule="evenodd">
<path d="M180 47.557h-12V12H12v35.633H0V0h180v47.557z" fill="#FA6E34"/>
<path d="M52.804 47.5V28.828h2.312v-5.234h-9.859v5.234h2.313v10.297h-.427l-8.12-15.531H28.35v5.234h2.312v13.438h-2.312V47.5h9.86v-5.234h-2.313V31.578l.424.001L44.648 47.5h8.156zm21.065 0l3.82-12.015h.247l3.62 12.015h7.938l5.5-18.672h1.828v-5.234H86.744v5.234h2.89L86.34 40.907h-.276l-4.022-12.079h2.594v-5.234H72.18v5.234h2.61l-4.023 12.079h-.281l-3.274-12.079h2.797v-5.234H58.572v5.234h1.844L65.9 47.5h7.969zm26.84-23.906v5.234h2.36v13.438h-2.36V47.5h11.078v-5.234h-2.344V37.75h4.22c1.524 0 2.855-.149 3.992-.446l.335-.093c1.209-.36 2.196-.865 2.961-1.516.766-.65 1.33-1.411 1.695-2.28.365-.87.547-1.806.547-2.806 0-2.208-.783-3.93-2.351-5.164-1.568-1.234-3.914-1.851-7.04-1.851H100.71zm8.734 5.235h4.11c.906 0 1.638.171 2.195.515.557.343.836.896.836 1.656 0 .719-.258 1.26-.773 1.625-.516.365-1.269.547-2.258.547h-4.11v-4.343zm18.476 11.14V47.5h6.39v-4.546h.204c.195 1.523.782 2.687 1.76 3.491l.201.157c1.099.807 2.638 1.21 4.617 1.21 2.552 0 4.503-.627 5.852-1.882 1.349-1.256 2.023-3.04 2.023-5.352 0-1.698-.367-3.135-1.101-4.312-.735-1.177-1.855-2.112-3.36-2.805-1.505-.693-3.414-1.148-5.726-1.367-1.105-.146-1.985-.336-2.641-.57-.656-.235-1.13-.516-1.422-.844a1.636 1.636 0 01-.437-1.117c0-.573.237-1.01.71-1.313.475-.302 1.144-.453 2.008-.453 1.292 0 2.383.292 3.274.875.89.583 1.424 1.37 1.601 2.36h6.391v-7.438h-6.39l-.001 4.531h-.187c-.103-.975-.373-1.807-.81-2.495l-.151-.224c-.526-.729-1.247-1.278-2.164-1.648-.917-.37-2.01-.555-3.281-.555-2.427 0-4.3.615-5.618 1.844-1.317 1.229-1.976 2.922-1.976 5.078 0 1.677.372 3.107 1.117 4.29.745 1.181 1.872 2.127 3.383 2.835 1.51.708 3.411 1.167 5.703 1.375 1.073.125 1.938.286 2.594.484.656.198 1.135.459 1.437.782.302.323.453.724.453 1.203 0 .687-.26 1.21-.78 1.57-.522.36-1.272.54-2.25.54-1.272 0-2.376-.298-3.313-.892-.938-.593-1.51-1.374-1.72-2.343h-6.39zM32.8 66.995c1.151 0 2.179-.22 3.085-.66a5.986 5.986 0 002.234-1.838c.583-.787.959-1.707 1.127-2.76l-3.402-.52a3.292 3.292 0 01-.545 1.38c-.277.393-.63.7-1.058.919a3.11 3.11 0 01-1.44.33c-.456 0-.874-.082-1.253-.245a2.893 2.893 0 01-.985-.687 3.067 3.067 0 01-.639-1.054 3.874 3.874 0 01-.224-1.343c0-.645.132-1.212.395-1.7.263-.489.63-.87 1.103-1.144.472-.274 1.02-.41 1.644-.41.743 0 1.384.192 1.924.577.54.385.905.903 1.095 1.554h3.32v-5.07h-3.32l-.001 3.533h-.105c-.067-.722-.217-1.341-.452-1.857l-.106-.215a2.96 2.96 0 00-1.22-1.253c-.518-.28-1.146-.419-1.884-.419-.787 0-1.533.156-2.238.468a5.763 5.763 0 00-1.867 1.322 6.314 6.314 0 00-1.278 2.027c-.312.78-.468 1.643-.468 2.587 0 .95.16 1.819.48 2.608.32.79.772 1.473 1.355 2.051a6.113 6.113 0 002.075 1.343c.8.317 1.683.476 2.649.476zm12.454-.017c1.064 0 1.987-.2 2.771-.602a4.398 4.398 0 001.819-1.68c.428-.719.643-1.553.643-2.502 0-.955-.216-1.795-.647-2.519a4.441 4.441 0 00-1.819-1.693c-.781-.404-1.703-.606-2.767-.606-1.058 0-1.978.202-2.762.606a4.408 4.408 0 00-1.82 1.693c-.428.724-.642 1.564-.642 2.519 0 .949.214 1.783.643 2.502a4.398 4.398 0 001.819 1.68c.784.402 1.704.602 2.762.602zm0-2.823c-.374 0-.7-.083-.98-.248a1.71 1.71 0 01-.651-.688 2.166 2.166 0 01-.232-1.025c0-.396.077-.744.232-1.042.154-.298.371-.53.65-.696.28-.165.607-.248.981-.248.375 0 .702.083.98.248.28.166.497.398.652.696.155.298.232.646.232 1.042 0 .39-.077.732-.232 1.025a1.71 1.71 0 01-.651.688c-.28.165-.606.248-.98.248zm10.59-6.575h-4.41v2.636h1.155v3.922h-1.156v2.637h5.38v-2.637h-.97v-1.774c0-.493.07-.916.208-1.269.139-.353.331-.625.578-.818.247-.192.53-.289.85-.289.37 0 .654.122.855.367.2.244.3.575.3.992v2.791h-.951v2.637h5.273v-2.637H61.89v-3.76c0-.965-.24-1.707-.72-2.225s-1.176-.777-2.088-.777c-.58 0-1.087.111-1.521.334a2.663 2.663 0 00-1.062 1c-.274.446-.457.999-.55 1.66l-.106.001V57.58zm7.883 6.16v3.035h3.255v-1.684h.098c.059.339.17.632.331.878l.104.143a2 2 0 00.891.618c.374.139.836.208 1.384.208 1.068 0 1.883-.255 2.445-.765.561-.51.842-1.215.842-2.116 0-.933-.34-1.661-1.021-2.185-.681-.523-1.738-.866-3.17-1.03-.64-.07-1.113-.178-1.42-.325-.306-.146-.46-.339-.46-.578 0-.184.076-.33.228-.439.152-.108.372-.163.66-.163.39 0 .73.105 1.017.314.287.208.466.495.537.858h3.255v-2.954h-3.255l-.001 1.628h-.113a2.511 2.511 0 00-.293-.878l-.09-.14a1.618 1.618 0 00-.793-.581c-.34-.122-.758-.183-1.257-.183-1.01 0-1.797.244-2.364.732s-.85 1.142-.85 1.961c0 .917.363 1.652 1.09 2.205.727.554 1.844.914 3.352 1.083.608.065 1.031.164 1.27.297.239.133.358.318.358.557a.58.58 0 01-.252.509c-.168.116-.415.175-.74.175-.457 0-.851-.11-1.185-.33-.333-.22-.533-.503-.598-.85h-3.255zm14.761 3.198c.82 0 1.487-.15 2.002-.448a2.707 2.707 0 001.14-1.261c.244-.543.366-1.18.366-1.912v-.822h-2.743v.838c0 .239-.04.418-.122.537-.081.12-.203.179-.366.179a.4.4 0 01-.35-.175c-.081-.117-.122-.297-.122-.541v-3.109h3.646l.016-2.644h-3.662v-2.482h-3.255v2.482h-1.359v2.644h1.359v3.109c0 .721.12 1.352.362 1.892.242.54.616.96 1.123 1.261.507.301 1.162.452 1.965.452zm8.917-9.358h-4.41v2.636h1.155v3.922h-1.155v2.637h5.452v-2.637h-1.042v-1.44c0-.71.205-1.252.614-1.623.41-.372 1.005-.558 1.787-.558.135 0 .25.006.346.017.094.01.185.027.272.048V57.49a1.883 1.883 0 00-.447-.049c-.505 0-.93.106-1.274.318-.344.211-.616.526-.814.944-.198.417-.324.944-.378 1.578l-.106.001V57.58zm7.248 9.415c.89 0 1.587-.243 2.091-.729.505-.485.825-1.208.96-2.168h.106v2.677h4.37v-2.637h-1.115V57.58H96.68v2.636h1.131v1.774c0 .553-.075 1.006-.227 1.36-.152.352-.35.61-.594.776a1.38 1.38 0 01-.79.248c-.363 0-.645-.123-.846-.37-.2-.247-.301-.576-.301-.989V57.58h-4.313v2.644h1.058v3.809c0 .927.236 1.653.708 2.176.472.524 1.188.786 2.148.786zm13.496-.017c1.28 0 2.352-.265 3.214-.797.863-.532 1.43-1.259 1.7-2.18l-3.213-.937c-.098.331-.292.596-.582.794-.29.198-.65.297-1.078.297-.397 0-.737-.084-1.022-.253a1.697 1.697 0 01-.659-.708c-.154-.303-.232-.664-.232-1.082 0-.412.076-.776.228-1.09.152-.315.366-.558.643-.729.277-.17.6-.256.968-.256.315 0 .593.064.834.191.242.128.436.315.582.562a2.1 2.1 0 01.269.883h3.255V57.58H109.8l-.001 2.417h-.105a4.369 4.369 0 00-.281-1.276l-.077-.173a1.95 1.95 0 00-.81-.879c-.35-.195-.788-.293-1.314-.293-.575 0-1.12.117-1.636.35a4.24 4.24 0 00-1.367.989 4.65 4.65 0 00-.931 1.517c-.226.586-.338 1.24-.338 1.962 0 .949.211 1.783.635 2.502.423.719 1.025 1.279 1.806 1.68.781.402 1.704.602 2.767.602zm10.33-.04c.819 0 1.486-.15 2.001-.448a2.707 2.707 0 001.14-1.261c.244-.543.366-1.18.366-1.912v-.822h-2.743v.838c0 .239-.04.418-.122.537-.081.12-.203.179-.366.179a.4.4 0 01-.35-.175c-.081-.117-.122-.297-.122-.541v-3.109h3.646l.016-2.644h-3.662v-2.482h-3.255v2.482h-1.359v2.644h1.36v3.109c0 .721.12 1.352.361 1.892.242.54.616.96 1.123 1.261.507.301 1.163.452 1.965.452zm9.055-10.327v-2.636h-3.5v2.636h3.5zm.976 10.164v-2.637h-1.033V57.58h-4.411v2.636h1.156v3.922h-1.156v2.637h5.444zm5.97.203c1.062 0 1.986-.2 2.77-.602a4.398 4.398 0 001.819-1.68c.428-.719.643-1.553.643-2.502 0-.955-.216-1.795-.647-2.519a4.44 4.44 0 00-1.82-1.693c-.78-.404-1.703-.606-2.766-.606-1.058 0-1.979.202-2.762.606a4.408 4.408 0 00-1.82 1.693c-.428.724-.642 1.564-.642 2.519 0 .949.214 1.783.643 2.502a4.398 4.398 0 001.819 1.68c.783.402 1.704.602 2.762.602zm0-2.823c-.375 0-.702-.083-.981-.248a1.71 1.71 0 01-.651-.688 2.166 2.166 0 01-.232-1.025c0-.396.077-.744.232-1.042.154-.298.371-.53.65-.696.28-.165.607-.248.981-.248.375 0 .701.083.98.248.28.166.497.398.652.696.154.298.232.646.232 1.042 0 .39-.078.732-.232 1.025a1.71 1.71 0 01-.651.688c-.28.165-.606.248-.98.248zm10.589-6.575h-4.411v2.636h1.156v3.922h-1.156v2.637h5.379v-2.637h-.968v-1.774c0-.493.069-.916.207-1.269.138-.353.331-.625.578-.818.247-.192.53-.289.85-.289.37 0 .654.122.855.367.2.244.3.575.3.992v2.791h-.951v2.637h5.273v-2.637h-1.066v-3.76c0-.965-.24-1.707-.72-2.225s-1.176-.777-2.088-.777c-.58 0-1.087.111-1.521.334a2.663 2.663 0 00-1.062 1c-.274.446-.457.999-.55 1.66l-.106.001V57.58z" fill="#014D7E" fill-rule="nonzero"/></g></svg>