<svg xmlns="http://www.w3.org/2000/svg" viewBox="0 0 405 400"><path d="M461.403 396s-172.233-.814-193.816-2.443c-21.584-1.63.409 2.035 11.81 0 11.402-2.036 0-24.43-2.443-20.765-2.444 3.664 32.173 12.622 45.206 12.622 13.03 0 3.255-10.993 3.255-20.765 0-9.77 16.7 7.33 23.622 10.178 6.923 2.85-3.259-8.957-6.11-26.872-2.851-17.914 33.396 28.91 43.576 34.202 10.18 5.292-21.585-48.86-22.806-56.188-1.22-7.329 4.072-3.256 5.701-7.736 1.63-4.48-4.888-4.48-.406-11.4 4.48-6.92 32.729-72.847 28.248-98.905-4.48-26.057-38.281-41.122-45.611-48.857-7.33-7.737 8.705-59.236 11.964-74.71 3.259-15.47-.815-44.378-10.18-57.813-9.367-13.437-27.288-14.66-29.323-14.66-2.036 0-.407 31.353 2.035 33.795 2.444 2.444 3.259-31.352-2.442-37.458-5.703-6.106-13.846-4.885-26.47-.815-12.627 4.073-14.255 30.945-10.998 37.459 3.259 6.514 6.518-31.35 6.518-34.2 0-2.851-4.074.814-17.92 15.064-13.845 14.25-8.551 35.829-10.588 43.565-2.036 7.737-8.96 8.956-16.698 8.551-7.737-.408 30.137-32.166 65.974-26.466 35.838 5.7 61.902 19.95 63.125 25.652 1.221 5.7-14.256 3.663-21.178-.408-6.924-4.07 14.66.408 12.217 3.258-2.443 2.85 20.207 53.533 15.32 75.52-4.886 21.987-57.012 13.436-59.863 8.958-2.852-4.478 10.994.408 26.063-10.179 15.068-10.586 1.628-38.678-1.628-54.966-3.259-16.284-2.291-18.114-5.548-23.406-3.259-5.291 9.367 6.108 13.846 5.292 4.48-.811 5.294-8.956-8.55-13.027-13.85-4.072-57.017-8.958-68.012-4.478-10.995 4.478-18.325 13.436-17.512 21.17.814 7.737 18.987 51.907 18.987 59.237 0 7.328 1.22 19.542 7.737 20.765 6.516 1.22-34.209-7.329-40.318-20.765-6.107-13.436 6.924-25.245 14.254-40.715 7.33-15.472 8.34-26.492 9.968-26.492 1.628 0-1.886 12.36 3 32.31 4.888 19.951 13.16 36.257 31.717 34.802 19.723-1.546 38.675-27.455 38.675-27.455 5.702-7.736-5.168 12.893-5.576 17.37-.406 4.479 8.552 10.586 2.852 21.173-5.702 10.585-41.947 39.087-57.83 36.236-15.882-2.85 0-35.83 2.444-35.015 2.443.816-15.477 8.959-29.73 23.208-14.254 14.25-30.137 24.022-32.173 46.823-2.036 22.798 15.069 59.038 6.11 59.85-8.96.815 21.992-7.736 26.063-8.142 4.074-.407 72.898-71.25 78.6-76.544 5.7-5.293-6.517-8.551-8.552-11.402-2.036-2.849 16.696-4.886 23.212-7.329 6.517-2.442 4.886-35.828 1.63-45.6-3.258-9.772-8.146 16.692-28.509 41.937-17.978 22.288-50.562 77.591-62.99 92.751-1.647 2.01-2.94 3.314-3.799 3.745-7.33 3.663-11.808-50.08-13.846-63.519-2.036-13.434 15.069-15.062 17.513-19.134 2.442-4.072-7.33-3.664-13.846-6.922-6.517-3.258 38.28-30.129 39.095-35.828.813-5.702 2.85-.815-4.481 13.434-7.33 14.25-23.619 91.202-27.692 110.746-4.073 19.543-33.542 50.046-29.879 55.747 3.667 5.698 47.393 12.749 73.864 12.749 26.47 0 96.108-103.92 93.664-128.348-2.442-24.43-16.064-35.727-36.834-26.771-20.768 8.959-32.474 37.88-49.613 67.64-21.642 37.581-36.133 37.306-47.129 37.306-10.995 0 24.435-19.544 30.95-19.95 6.516-.408-4.479 20.355-9.773 25.24-5.293 4.887-34.357 13.811-50.24 24.398 0 0-40.443 17.81-42.819 12.11-2.377-5.702-8.554 38.963 0 44.664 8.555 5.703 26.14 9.98 25.188.95-.95-9.026-6.177-48.94-8.553-41.813-2.378 7.128 3.326 36.111 4.753 37.537 1.424 1.425 23.76 9.029 25.662-.95 1.901-9.977-15.208-56.067-16.158-51.791-.95 4.276-29.473 13.82-40.876 11.66-23.307-4.412-15.856-22.9-8.12-38.779 7.74-15.878 25.234-15.085 12.202-17.528-13.033-2.443-42.762-142.504-35.838-149.424 6.924-6.922 30.544-9.772 35.43-4.887 4.887 4.887 24.435 132.325 18.734 148.205-5.703 15.878-25.658-157.16-22.806-162.454 2.85-5.293 36.653-13.843 41.946 1.627 5.293 15.473-.406 169.376 8.96 166.12 9.366-3.258-33.394-21.58-43.983-16.287-10.588 5.293-9.775 19.543-8.552 26.06 1.221 6.512 6.924 7.734 25.25 7.734 18.325 0 57.422-11.4 61.086-11.4 3.666 0 5.294 8.958 8.146 20.358 2.85 11.399-46.168 20.323-35.986 32.538 10.18 12.214-17.105 56.595-6.924 56.187 10.182-.408-238.146.711-238.146.711" stroke="#FA6E34" stroke-width="2" fill="none" fill-rule="evenodd" stroke-linecap="round" stroke-linejoin="round"/></svg>