<svg xmlns="http://www.w3.org/2000/svg" viewBox="0 0 683 95"><g fill="#FA6E34" fill-rule="evenodd"><path d="M251.424 53.74l.772.714a50.185 50.185 0 006.407 5.056c6.72 4.48 14.277 7.25 22.338 8.184 1.876.217 2.594.258 5.119.29 2.63.032 3.646-.008 5.972-.236l1.346-.132 3.636 2.586c2.003 1.423 3.637 2.603 3.638 2.626.003.06-1.462.39-2.91.672l-.411.079c-.341.064-.673.124-.975.175-9.472 1.589-19.223.8-28.212-2.282-9.576-3.283-18.25-9.167-24.88-16.88a18.365 18.365 0 01-.647-.777c-.029-.05.676-.07 2.986-.074l.52-.001h5.301zm75.54 0c2.195.002 3.918.02 3.918.04 0 .097-1.546 1.846-2.692 3.047-6.263 6.562-13.872 11.473-22.537 14.547l-.44.151-.336.112c-1.218.401-2.83.888-2.863.854-.029-.029 1.256-7.069 1.308-7.162.024-.044.538-.266 1.141-.492 6.384-2.394 12.01-5.879 16.959-10.506l.632-.591zm-77.38-28.724c.538-.05 2.606.024 3.227.114 1.933.282 3.556.895 5.067 1.912.98.66 2.023 1.652 2.754 2.618.21.279.234.336.162.404l-.036.03c-.208.166-1.253.978-2.471 1.92l-2.423 1.871-.716-.725c-1.363-1.381-2.604-1.985-4.252-2.069-1.556-.079-2.916.415-4.022 1.458a5.975 5.975 0 00-1.623 2.543c-.631 1.863-.507 3.926.34 5.642.596 1.207 1.436 2.068 2.554 2.618.885.434 1.364.54 2.478.542 1.16.002 1.749-.124 2.652-.57.79-.39 1.271-.762 2.086-1.615l.665-.697 2.493 1.773c1.25.89 2.305 1.64 2.49 1.773l.029.02c.014.012-.134.23-.335.49-2.191 2.86-4.909 4.45-8.316 4.866-.986.12-2.824.12-3.743 0-4.678-.615-8.535-3.783-10.013-8.225-.445-1.34-.631-2.56-.631-4.144 0-2.17.377-3.877 1.253-5.67.663-1.358 1.384-2.352 2.479-3.415 2.085-2.026 4.683-3.172 7.852-3.464zm73.248.064c.617-.045 2.612.025 3.366.117 2.676.327 4.89 1.16 6.895 2.592.296.211.553.42.569.46.016.042-.718 1.13-1.631 2.418l-1.66 2.342-.377-.259c-1.911-1.31-4.278-2.103-6.268-2.103-1.15 0-1.883.256-2.262.79-.154.216-.185.321-.202.693-.017.365.003.483.12.71.367.712 1.224 1.047 4.834 1.89 2.228.521 4.219 1.295 5.45 2.118 1.02.684 1.875 1.708 2.26 2.707.35.915.391 1.184.391 2.577 0 1.132-.016 1.351-.142 1.863-.82 3.342-3.624 5.443-7.878 5.904-.858.093-2.716.078-3.75-.03-2.849-.297-5.41-1.196-7.631-2.679-.848-.565-1.603-1.173-1.555-1.25.082-.134 3.641-4.358 3.685-4.374.028-.011.26.135.51.32 2.287 1.691 5.189 2.647 7.627 2.513 1.38-.077 2.155-.475 2.375-1.222.16-.546.083-.948-.255-1.323-.475-.527-1.4-.874-4.134-1.548-.157-.038-.318-.079-.482-.12l-.494-.129a40.053 40.053 0 01-1.804-.51c-4.185-1.364-5.903-3.31-5.903-6.683 0-1.381.198-2.313.713-3.366 1.252-2.558 4.017-4.158 7.633-4.418zm-53.254.384v9.019h8.531v-9.019h6.703v24.132h-6.703v-9.141h-8.531v9.14h-6.704v-24.13h6.704zm33.614 0l5.07 11.993c2.79 6.6 5.07 12.028 5.07 12.07 0 .038-.35.057-1.41.061h-.934l-.962-.003h-.272l-3.578-.018-1.718-4.324-9.269-.035-1.74 4.388h-4.739c-2.123-.004-2.261-.02-2.238-.105.016-.057 2.285-5.452 5.04-11.987 2.757-6.535 5.025-11.918 5.041-11.962.02-.055.604-.074 2.59-.077h4.05zm-4.692 11.17c-.727 1.822-1.32 3.33-1.32 3.354 0 .023 1.084.041 2.45.043h.443c1.907-.001 2.415-.018 2.391-.075-.017-.04-.549-1.39-1.202-3.05l-.172-.436a213.951 213.951 0 00-1.22-3.06c-.033-.058-.495 1.03-1.37 3.223zm38.029-5.55c.872.322 1.428 1.147 1.43 2.122.002 1.004-.575 1.838-1.517 2.194-.287.108-.447.129-.842.109-.87-.044-1.554-.489-1.933-1.258-.165-.335-.192-.427-.196-.856v-.157c0-.534.02-.657.163-.96.522-1.113 1.746-1.617 2.895-1.194zm-1.991.718v2.745h.853v-.398c0-.348.014-.397.113-.397.063 0 .17.102.309.292l.071.102.267.395 1.016.006-.104-.168-.044-.069c-.07-.106-.18-.269-.273-.399-.185-.26-.2-.306-.113-.354.305-.171.503-.63.432-1-.048-.256-.304-.562-.56-.671-.108-.046-.346-.073-.748-.081l-.16-.002-1.059-.001zm1.129.731c.15 0 .33.029.394.064a.254.254 0 01.12.215c0 .168-.124.252-.4.27l-.111.002h-.279v-.551h.276zM66.441 54.859c.302 0 .551.051.748.154.197.103.348.252.452.446l.058.122c.07.168.116.364.135.586h.049v-1.205h1.361v2.047h-1.361l-.027-.148a1.212 1.212 0 00-.159-.383 1.008 1.008 0 00-.383-.352 1.172 1.172 0 00-.555-.125c-.253 0-.475.06-.665.18a1.2 1.2 0 00-.44.496c-.105.212-.157.46-.157.744 0 .271.053.51.159.718.106.208.256.369.452.484.195.115.429.172.7.172.284 0 .524-.06.72-.183a.93.93 0 00.4-.497l1.32.443-.062.163a1.92 1.92 0 01-.81.894c-.433.257-.96.385-1.58.385-.553 0-1.03-.108-1.434-.325a2.309 2.309 0 01-.933-.9c-.22-.383-.33-.829-.33-1.337 0-.379.06-.727.178-1.043.118-.316.283-.59.497-.82a2.221 2.221 0 011.667-.716zm-5.872 0c.302 0 .55.051.748.154.197.103.348.252.452.446l.058.122c.07.168.115.364.135.586h.048v-1.205h1.362v2.047H62.01l-.027-.148a1.212 1.212 0 00-.159-.383 1.008 1.008 0 00-.383-.352 1.172 1.172 0 00-.555-.125c-.254 0-.475.06-.665.18a1.2 1.2 0 00-.44.496c-.105.212-.157.46-.157.744 0 .271.053.51.159.718.105.208.256.369.452.484.195.115.429.172.7.172.284 0 .523-.06.719-.183a.93.93 0 00.4-.497l1.321.443-.062.163a1.92 1.92 0 01-.81.894c-.433.257-.96.385-1.581.385-.552 0-1.03-.108-1.433-.325a2.309 2.309 0 01-.933-.9c-.22-.383-.33-.829-.33-1.337 0-.379.06-.727.178-1.043.117-.316.283-.59.497-.82a2.221 2.221 0 011.667-.716zm16.304 0c.53 0 .99.109 1.376.327.387.218.685.52.893.909.21.388.314.839.314 1.352v.215l-.002.084-.007.073h-3.76l.015.068c.025.092.059.178.1.259.105.203.252.362.442.477.19.115.417.172.682.172.272 0 .506-.06.701-.181.196-.12.341-.283.437-.486l1.316.385-.075.168a2.23 2.23 0 01-.85.92c-.431.266-.944.399-1.538.399-.546 0-1.018-.108-1.417-.325a2.274 2.274 0 01-.92-.9c-.215-.383-.322-.828-.322-1.332 0-.508.107-.956.322-1.346.215-.39.518-.693.91-.911.39-.218.851-.327 1.383-.327zm8.552-2.038v5.956h.726v1.12h-2.087v-1.383h-.049l-.04.183c-.06.238-.143.445-.25.62-.135.22-.313.388-.534.506A1.66 1.66 0 0182.4 60c-.34 0-.647-.067-.92-.202a2.095 2.095 0 01-.7-.555 2.53 2.53 0 01-.446-.82 3.138 3.138 0 01-.155-.994c0-.522.095-.976.285-1.36a2.12 2.12 0 01.797-.894c.341-.21.74-.316 1.197-.316.361 0 .693.078.996.235l.148.085c.145.092.28.203.404.334l.059.067v-1.64h-.971v-1.119h2.332zm25.65 2.038c.542 0 1.018.109 1.425.327.408.218.723.52.947.909.224.388.336.837.336 1.348 0 .504-.112.949-.336 1.332a2.347 2.347 0 01-.945.9c-.405.217-.882.325-1.428.325-.546 0-1.022-.108-1.428-.325a2.363 2.363 0 01-.947-.9c-.225-.383-.338-.828-.338-1.332 0-.51.113-.96.338-1.348.226-.388.541-.691.947-.91.406-.217.882-.326 1.428-.326zm-18.956-1.191v1.294h1.8l-.01 1.124h-1.79v2.203l.005.114c.011.105.039.189.082.25.059.08.143.12.253.12a.29.29 0 00.253-.123c.058-.082.088-.202.088-.36v-.47h1.168v.46l-.007.206c-.017.266-.07.501-.159.706-.11.255-.283.451-.519.589-.236.137-.54.206-.913.206s-.679-.07-.916-.21a1.274 1.274 0 01-.526-.592 2.18 2.18 0 01-.17-.896v-2.203h-.766v-1.124h.766v-1.294h1.361zm5.042 1.178c.463 0 .855.06 1.175.18.321.122.565.31.732.567.168.257.251.589.251.995v2.185h.591v1.124h-1.338l-.113-.007a.536.536 0 01-.342-.17l-.057-.076a.794.794 0 01-.102-.423v-.725h-.04l-.03.18c-.082.41-.25.722-.503.939-.29.248-.674.372-1.155.372-.516 0-.907-.12-1.173-.359s-.398-.576-.398-1.012c0-.424.132-.747.398-.97l.094-.071c.266-.186.651-.324 1.155-.414l1.652-.31v-.098l-.007-.122a.634.634 0 00-.412-.55c-.135-.053-.299-.08-.49-.08-.268 0-.487.054-.656.163-.168.11-.278.282-.329.518l-1.253-.193.04-.203c.063-.263.168-.492.313-.688.183-.245.438-.432.766-.56.328-.128.739-.192 1.231-.192zm5.265-1.178v1.294h1.8l-.01 1.124h-1.79v2.203l.005.114c.011.105.039.189.082.25.058.08.143.12.253.12a.29.29 0 00.253-.123c.058-.082.087-.202.087-.36v-.47h1.169v.46l-.007.206c-.017.266-.07.501-.159.706-.11.255-.283.451-.52.589-.235.137-.54.206-.912.206-.373 0-.679-.07-.916-.21a1.274 1.274 0 01-.526-.592 2.18 2.18 0 01-.17-.896v-2.203h-.766v-1.124h.766v-1.294h1.36zm15.94 1.191c.498 0 .88.146 1.146.437.266.29.399.708.399 1.251v2.23h.711v1.12h-2.704v-1.12h.632v-1.894l-.008-.161a.948.948 0 00-.192-.508c-.132-.166-.329-.249-.588-.249-.221 0-.418.06-.59.181-.17.121-.306.295-.404.52a1.998 1.998 0 00-.148.804v1.307h.631v1.12h-2.762v-1.12h.77v-2.695h-.77v-1.12h2.13v1.474h.05l.035-.203c.055-.261.142-.485.263-.67.15-.234.345-.41.582-.527.237-.118.51-.177.817-.177zm-11.265.103v3.815h.703v1.12h-2.834v-1.12h.77v-2.695h-.77v-1.12h2.131zm-18.172 0v3.815h.703v1.12h-2.834v-1.12h.77v-2.695h-.77v-1.12h2.131zm-15.433-.076a1.375 1.375 0 01.264.027v1.37l-.08-.02-.088-.014a1.65 1.65 0 00-.2-.01c-.414 0-.738.12-.97.362-.234.242-.35.587-.35 1.034v1.142h.707v1.12h-2.838v-1.12h.77v-2.695h-.77v-1.12h2.13v1.46h.05l.025-.198c.04-.254.105-.473.197-.655.115-.229.27-.4.463-.513.194-.113.424-.17.69-.17zm-18.47-1.787l2.185 5.611h.528v1.187h-3.098V58.71h1.057l-.36-.98h-2.496l-.359.98h1.093v1.187H50.58V58.71h.546l2.18-5.611h1.72zm42.97 4.412l-1.296.277-.122.028a.77.77 0 00-.348.184.54.54 0 00-.148.397c0 .176.056.31.168.403.112.092.273.139.481.139.24 0 .455-.06.647-.18.193-.119.344-.29.455-.512l.06-.14a1.78 1.78 0 00.099-.481l.003-.115zm-15.158-1.47c-.263 0-.488.058-.676.175-.188.116-.332.279-.432.488-.1.209-.15.45-.15.725 0 .275.052.516.156.724.105.207.251.37.44.486.187.116.408.174.662.174.26 0 .483-.058.671-.174.188-.117.332-.28.432-.489.08-.167.128-.357.144-.57l.006-.164-.006-.159a1.555 1.555 0 00-.141-.557 1.127 1.127 0 00-.43-.484 1.259 1.259 0 00-.676-.175zm28.236.018a1.3 1.3 0 00-.678.175 1.22 1.22 0 00-.459.486c-.11.207-.166.447-.166.718 0 .275.056.514.166.717.11.203.263.36.459.472.195.112.422.168.678.168.257 0 .483-.056.679-.168.195-.112.348-.269.458-.472.11-.203.166-.442.166-.717 0-.271-.055-.51-.166-.718a1.22 1.22 0 00-.458-.486 1.3 1.3 0 00-.679-.175zm-62.513-3.778l-.263.69c-2.08 5.461-2.203 5.711-2.697 5.518-1.415-.553-7.27-2.047-10.603-2.706-7.112-1.406-17.154-2.574-27.01-3.143-2.915-.169 2.715-.262 18.175-.302l22.398-.057zm28.334 3.724c-.25 0-.47.06-.658.177a1.167 1.167 0 00-.437.502l-.055.134c-.017.046-.031.094-.043.143l-.005.021h2.384l-.01-.055a1.464 1.464 0 00-.093-.266 1.096 1.096 0 00-.418-.483 1.228 1.228 0 00-.665-.173zm-22.747-1.522h-.116l-.797 2.177h1.71l-.797-2.177zm52.993-1.603v1.29h-1.522v-1.29h1.522zm-18.171 0v1.29h-1.523v-1.29h1.523zM61.26 20v12.611c.006 8.217.097 10.96.36 11.118.192.116.804.19 1.321.158.947-.056.966-.029 1.162 1.639.222 1.897.165 2.006-1.32 2.498-2.442.81-4.92.065-5.822-1.751a2.86 2.86 0 01-.054-.116l-.035-.081c-.366-.912-.431-2.58-.438-11.353L56.434 20h4.827zm18.41 11.268c.971 1.582 1.137 2.8 1.233 9.557l.006.389.092 6.87-1.868-.014c-1.638-.013-1.912-.098-2.227-.69a10.34 10.34 0 00-.43-.762c-.04-.048-.79.289-1.682.753-3.42 1.784-7.597.808-9.006-2.104-.89-1.84-.858-4.603.07-5.98 1.402-2.082 3.19-2.832 7.528-3.162 2.471-.187 2.644-.245 2.644-.89 0-.996-1.092-2.198-2.299-2.53-1.236-.34-3.534.01-4.971.758-.517.27-.953.44-.995.392-.228-.259-1.39-2.71-1.39-2.932 0-.352 2.73-1.604 4.138-1.897 3.592-.749 7.98.326 9.157 2.242zm-33.351-2.11c1.53-.505 5.028-.314 6.723.366l1.265.508v2.121c-.008 1.826-.133 1.945-1.006 1.279-.318-.243-1.293-.587-2.184-.771-3.966-.818-6.752 1.597-6.752 5.85 0 3.881 2.22 6.136 5.747 5.836.92-.078 2.142-.376 2.672-.651 1.132-.589 1.288-.47 1.863 1.427.306 1.006.277 1.204-.225 1.583-1.19.896-3.592 1.5-6.006 1.511-2.04.01-2.69-.125-4.195-.864-2.968-1.458-4.67-4.558-4.694-8.554-.03-4.714 2.428-8.203 6.792-9.642zm-16.207.002c1.696-.48 5.332-.313 6.84.314 1.055.44 1.062.457 1.062 2.412v1.969l-1.436-.632c-.901-.397-2.07-.635-3.132-.64-3.077-.014-5.002 1.876-5.308 5.21-.47 5.117 3.927 8.185 8.411 5.87 1.106-.572 1.305-.437 1.898 1.288.55 1.6.573 1.57-1.927 2.563-2.126.846-6.221.93-7.93.163-7.796-3.499-6.753-16.175 1.522-18.517zm70.802.14c2.672-.933 4.953-.551 6.609 1.106l1.005 1.006 1.294-.87c2.442-1.642 5.377-2.162 7.643-1.353 1.494.533 2.285 1.267 2.956 2.74.485 1.066.551 2.084.564 8.667l.014 7.46h-4.54v-6.124c0-6.467-.245-8.15-1.264-8.696-.95-.509-3.39-.157-4.626.667l-1.092.728-.115 13.28-4.655.173-.013-6.123c-.013-6.41-.262-8.179-1.223-8.69-.955-.506-2.672-.318-4.224.464l-1.494.753-.144 13.424-4.683.172V29.342l2.04.086c1.982.084 2.043.11 2.13.92.106.987.169.994 1.347.157.518-.37 1.638-.915 2.47-1.205zm-11.609.042v18.713H84.48V29.342h4.827zm-75.57-7.531l4.912 12.475c2.706 6.87 4.992 12.773 5.087 13.137.168.646.114.66-2.328.575l-2.5-.086-2.471-6.325-3.994-.086c-2.184-.047-3.994-.17-3.994-.273 0-.103.289-.977.646-1.954l.647-1.768h2.773c1.717-.008 2.284-.107 2.212-.374a92.883 92.883 0 00-.617-1.898l-.275-.829-.544-1.628-1.337-3.981-7.01 19.116-2.314.086c-1.264.047-2.313-.005-2.313-.115 0-.053.538-1.505 1.361-3.698l.232-.616c.874-2.321 2.01-5.323 3.16-8.344l.313-.824c2.35-6.175 4.656-12.18 4.766-12.36.076-.127.915-.23 1.863-.23h1.724zM76.03 39.317l-.977.04c-1.724.073-3.675.433-4.339.8-.363.202-.75.77-.859 1.258-.53 2.386 2.41 3.85 5.14 2.559.954-.451 1.029-.499 1.035-2.16v-2.497zm-73.66-1.811c.69 0 .973.12.876.374-.078.203-.399 1.092-.704 1.954-.52 1.466-.633 1.581-1.552 1.581-.546 0-.991-.09-.991-.201 0-.112.299-.977.675-1.955.642-1.667.726-1.753 1.696-1.753zM84.856 21.58c.708-.772 2.726-.943 3.56-.303 2.718 2.09.086 6.216-2.96 4.64-1.695-.878-1.968-2.845-.6-4.337zM409.983 85.408c.788 0 1.5.147 2.139.442.638.295 1.197.759 1.676 1.391l-1.426 1.078-.1-.174a2.367 2.367 0 00-.844-.801c-.407-.23-.893-.346-1.458-.346-.497 0-.91.087-1.24.263-.33.175-.494.425-.494.75 0 .188.05.344.148.468.098.124.235.229.41.314.176.086.377.156.604.212l.726.173 1.118.243.338.084c.223.06.44.128.65.205.318.115.598.27.842.462s.441.436.591.73c.15.296.225.661.225 1.097 0 .556-.12 1.026-.36 1.41-.24.386-.55.695-.931.93a4.051 4.051 0 01-1.291.507c-.48.103-.955.154-1.426.154-.377 0-.754-.04-1.13-.122a5.07 5.07 0 01-1.086-.365 4.835 4.835 0 01-.97-.603c-.3-.24-.556-.517-.77-.834l1.464-1.051.144.197c.297.38.65.664 1.057.854.475.223.996.334 1.56.334a4 4 0 00.656-.058c.231-.038.441-.102.63-.192.188-.09.344-.21.468-.36a.844.844 0 00.187-.557.78.78 0 00-.122-.449 1.035 1.035 0 00-.367-.314 2.975 2.975 0 00-.59-.237 12.214 12.214 0 00-.81-.206l-1.015-.23-.361-.092a8.758 8.758 0 01-.686-.216c-.33-.12-.62-.276-.873-.468a2.134 2.134 0 01-.604-.719c-.15-.286-.225-.639-.225-1.058 0-.478.105-.897.315-1.256.21-.36.482-.656.816-.892.334-.235.713-.41 1.137-.525.424-.116.85-.173 1.278-.173zm71.282 2.718c.54 0 1.006.088 1.4.263.394.175.72.425.976.75.257.325.445.72.565 1.187.12.466.18.99.18 1.57h-4.804l.014.176c.023.172.07.331.14.479.094.196.22.363.379.5.158.137.336.243.533.32.197.077.402.116.617.116.308 0 .571-.039.79-.116.218-.077.402-.166.552-.269.15-.103.265-.205.347-.308.081-.102.143-.18.186-.23l1.323.769-.096.14a3.742 3.742 0 01-.36.424c-.184.188-.405.36-.661.513a3.595 3.595 0 01-.9.372 4.478 4.478 0 01-1.181.141c-.531 0-1.002-.085-1.414-.256a2.945 2.945 0 01-1.04-.712 3.113 3.113 0 01-.649-1.077 3.952 3.952 0 01-.225-1.353c0-.488.075-.939.225-1.353.15-.415.366-.774.649-1.078.283-.303.63-.54 1.04-.711.412-.171.883-.257 1.414-.257zm-8.723-2.488v3.194l.148-.128c.202-.162.425-.293.668-.392a2.719 2.719 0 011.034-.186c.42 0 .803.09 1.15.27.347.18.644.423.892.73.249.308.442.667.579 1.078.137.41.205.85.205 1.32 0 .47-.068.911-.205 1.322-.137.41-.33.769-.579 1.077a2.776 2.776 0 01-.892.73c-.347.18-.73.27-1.15.27-.471 0-.844-.073-1.118-.218a2.393 2.393 0 01-.706-.564h-.026v.628h-1.567v-9.13h1.567zm-42.43 2.488c.54 0 1.007.088 1.4.263.394.175.72.425.977.75s.445.72.565 1.187c.12.466.18.99.18 1.57h-4.804l.014.176c.022.172.069.331.14.479.094.196.22.363.379.5.158.137.336.243.533.32.197.077.402.116.616.116.309 0 .572-.039.79-.116.219-.077.403-.166.553-.269.15-.103.265-.205.347-.308.08-.102.143-.18.186-.23l1.323.769-.096.14a3.742 3.742 0 01-.36.424c-.184.188-.405.36-.662.513a3.595 3.595 0 01-.899.372 4.478 4.478 0 01-1.182.141c-.53 0-1.002-.085-1.413-.256a2.945 2.945 0 01-1.04-.712 3.113 3.113 0 01-.649-1.077 3.952 3.952 0 01-.225-1.353c0-.488.075-.939.225-1.353.15-.415.366-.774.649-1.078.282-.303.63-.54 1.04-.711.411-.171.882-.257 1.413-.257zm25.46 0c.54 0 1.007.088 1.401.263.394.175.72.425.976.75.257.325.446.72.566 1.187.12.466.18.99.18 1.57h-4.805l.014.176c.023.172.07.331.14.479.094.196.22.363.38.5.158.137.335.243.532.32.197.077.403.116.617.116.308 0 .571-.039.79-.116.218-.077.402-.166.552-.269.15-.103.266-.205.347-.308.081-.102.143-.18.186-.23l1.323.769-.096.14a3.742 3.742 0 01-.36.424c-.184.188-.404.36-.661.513a3.595 3.595 0 01-.9.372 4.478 4.478 0 01-1.181.141c-.531 0-1.002-.085-1.413-.256a2.945 2.945 0 01-1.04-.712 3.113 3.113 0 01-.65-1.077 3.952 3.952 0 01-.224-1.353c0-.488.075-.939.225-1.353.15-.415.366-.774.648-1.078.283-.303.63-.54 1.04-.711.412-.171.883-.257 1.414-.257zm33.516 0v1.59l-.197.007a2.77 2.77 0 00-.568.096 1.82 1.82 0 00-.648.327c-.189.15-.339.346-.45.59-.111.244-.167.54-.167.891v3.142h-1.567V88.28h1.567v.898h.026l.085-.155c.18-.296.418-.514.711-.653.343-.163.745-.244 1.208-.244zm-51.153 0v1.59l-.197.007a2.77 2.77 0 00-.567.096 1.82 1.82 0 00-.649.327c-.188.15-.338.346-.45.59-.11.244-.166.54-.166.891v3.142h-1.567V88.28h1.567v.898h.025l.086-.155c.18-.296.417-.514.71-.653.343-.163.746-.244 1.208-.244zm7.194-2.488l1.67 7.08h.026l1.67-7.08h2.556v9.131h-1.644v-7.617h-.026l-1.798 7.617h-1.619l-1.798-7.617h-.026v7.617h-1.644v-9.13h2.633zm-28.543 2.642v6.49h-1.568v-6.49h1.568zm3.108-2.642v9.131h-1.567v-9.13h1.567zm2.441 2.642l1.297 4.489h.026l1.298-4.489h1.657l-2.146 6.49h-1.644l-2.145-6.49h1.657zm45.025-.154c.71 0 1.267.171 1.67.513.402.342.603.864.603 1.565v4.565h-1.567v-3.937l-.007-.182a1.416 1.416 0 00-.25-.735c-.17-.235-.44-.352-.809-.352-.223 0-.42.049-.59.147-.172.098-.318.23-.438.398a1.91 1.91 0 00-.276.57 2.305 2.305 0 00-.096.667v3.424h-1.567v-3.937l-.007-.182a1.416 1.416 0 00-.25-.735c-.171-.235-.45-.352-.835-.352-.214 0-.405.049-.572.147-.167.098-.31.23-.43.398a1.91 1.91 0 00-.276.57 2.305 2.305 0 00-.097.667v3.424H459.8V88.28h1.567v.641l.148-.142c.2-.181.419-.328.655-.441.296-.141.653-.212 1.073-.212.188 0 .38.017.578.052.197.034.38.09.552.166.172.077.326.178.463.302s.244.275.32.455a2.46 2.46 0 01.855-.725c.33-.166.713-.25 1.15-.25zm6.872 1.437c-.3 0-.546.057-.738.173a1.404 1.404 0 00-.47.455c-.12.188-.205.4-.256.635a3.266 3.266 0 00-.077.699c0 .23.025.463.077.699.051.235.137.446.257.634s.276.34.469.456c.192.115.439.173.738.173.291 0 .536-.058.733-.173.196-.116.355-.268.475-.456s.205-.4.257-.634a3.266 3.266 0 000-1.398 1.94 1.94 0 00-.257-.635 1.385 1.385 0 00-.475-.455c-.197-.116-.442-.173-.733-.173zm7.233-.154c-.463 0-.838.126-1.124.378a1.73 1.73 0 00-.56.904h3.16c0-.085-.027-.2-.083-.346a1.411 1.411 0 00-.263-.423 1.696 1.696 0 00-.456-.36 1.368 1.368 0 00-.674-.153zm-25.692 0c-.463 0-.837.126-1.124.378a1.73 1.73 0 00-.559.904h3.16c0-.085-.028-.2-.083-.346a1.411 1.411 0 00-.264-.423 1.696 1.696 0 00-.456-.36 1.368 1.368 0 00-.674-.153zm-25.46 0c-.463 0-.838.126-1.125.378a1.73 1.73 0 00-.558.904h3.16c0-.085-.028-.2-.084-.346a1.411 1.411 0 00-.263-.423 1.696 1.696 0 00-.456-.36 1.368 1.368 0 00-.675-.153zm-13.527-3.77v1.59h-1.568v-1.59h1.568zM367.363 61.74c1.765 0 3.27.457 4.512 1.371 1.243.914 2.076 2.285 2.501 4.113l-3.163.808-.04-.241a3.687 3.687 0 00-.39-1.093c-.22-.4-.502-.743-.845-1.028a3.783 3.783 0 00-1.177-.661 4.187 4.187 0 00-1.398-.233c-.867 0-1.61.175-2.232.526a4.57 4.57 0 00-1.533 1.396c-.4.58-.695 1.236-.883 1.97a8.95 8.95 0 00-.282 2.229c0 .767.094 1.513.282 2.24a6.1 6.1 0 00.883 1.958c.4.58.912 1.045 1.533 1.396.621.35 1.365.526 2.232.526.572 0 1.083-.09 1.532-.27.45-.179.846-.423 1.19-.734.343-.31.637-.681.883-1.114.245-.432.45-.901.613-1.407l2.992 1.37-.144.347c-.686 1.589-1.578 2.779-2.677 3.57-1.177.85-2.64 1.274-4.39 1.274-1.405 0-2.627-.245-3.666-.734a7.555 7.555 0 01-2.611-1.996 8.352 8.352 0 01-1.57-2.925 11.78 11.78 0 01-.515-3.501c0-1.225.192-2.392.576-3.501a8.954 8.954 0 011.656-2.926 7.838 7.838 0 012.624-1.995c1.03-.49 2.199-.735 3.507-.735zm164.53 5.19c1.03 0 1.922.168 2.674.502a4.845 4.845 0 011.863 1.433c.49.62.85 1.375 1.08 2.264.228.89.343 1.89.343 3h-9.172l.015.224c.036.37.13.711.28 1.024a2.9 2.9 0 00.723.955c.302.26.641.465 1.017.612.376.147.769.22 1.178.22.588 0 1.09-.073 1.508-.22a4.53 4.53 0 001.054-.514c.286-.196.507-.392.662-.588.156-.196.274-.343.356-.44L538 76.87l-.145.216a7.054 7.054 0 01-.726.862c-.351.359-.772.685-1.263.979-.49.294-1.062.53-1.716.71-.654.18-1.406.27-2.256.27-1.014 0-1.913-.164-2.698-.49a5.623 5.623 0 01-1.987-1.36 5.943 5.943 0 01-1.238-2.056 7.545 7.545 0 01-.43-2.583c0-.93.144-1.791.43-2.583a5.943 5.943 0 011.238-2.056 5.623 5.623 0 011.987-1.359c.785-.326 1.684-.49 2.698-.49zm-150.012 0c.997 0 1.892.164 2.685.49a5.6 5.6 0 011.999 1.359c.54.58.952 1.265 1.238 2.056.286.792.43 1.653.43 2.583 0 .93-.144 1.792-.43 2.583a5.943 5.943 0 01-1.238 2.057 5.6 5.6 0 01-1.999 1.358c-.793.327-1.688.49-2.685.49-1.014 0-1.913-.163-2.698-.49a5.623 5.623 0 01-1.986-1.358 5.943 5.943 0 01-1.239-2.057 7.545 7.545 0 01-.429-2.583c0-.93.143-1.791.43-2.583a5.943 5.943 0 011.238-2.056 5.623 5.623 0 011.986-1.359c.785-.326 1.684-.49 2.698-.49zm96.796 0c.997 0 1.892.164 2.685.49a5.6 5.6 0 011.999 1.359c.54.58.952 1.265 1.238 2.056.286.792.43 1.653.43 2.583 0 .93-.144 1.792-.43 2.583a5.943 5.943 0 01-1.238 2.057 5.6 5.6 0 01-1.999 1.358c-.793.327-1.688.49-2.685.49-1.014 0-1.913-.163-2.698-.49a5.623 5.623 0 01-1.986-1.358 5.943 5.943 0 01-1.239-2.057 7.545 7.545 0 01-.429-2.583c0-.93.143-1.791.43-2.583a5.943 5.943 0 011.238-2.056 5.623 5.623 0 011.986-1.359c.785-.326 1.684-.49 2.698-.49zm-69.697 0c.735 0 1.39.082 1.962.245a6.763 6.763 0 011.483.6c.417.237.765.486 1.043.747.278.26.49.481.637.66l-2.084 1.96-.08-.149a4.109 4.109 0 00-.313-.464 2.575 2.575 0 00-.637-.575 3.569 3.569 0 00-.908-.416 3.988 3.988 0 00-1.177-.16c-.703-.016-1.259.086-1.667.307-.41.22-.614.518-.614.893 0 .36.193.625.577.796.384.171.866.31 1.447.416.58.106 1.21.216 1.888.33a8.055 8.055 0 011.888.552c.58.253 1.063.603 1.447 1.052.384.45.577 1.065.577 1.849 0 .75-.156 1.4-.466 1.946-.311.547-.72.996-1.227 1.347a5.437 5.437 0 01-1.765.783 8.284 8.284 0 01-2.06.257c-1.472 0-2.702-.22-3.691-.66-.99-.442-1.762-.972-2.318-1.592l2.257-1.739.135.184c.33.416.768.739 1.311.967.622.261 1.333.392 2.134.392.36 0 .687-.045.981-.135a2.97 2.97 0 00.76-.343c.213-.138.376-.293.49-.465a.904.904 0 00.172-.502c0-.342-.188-.6-.564-.77-.376-.172-.85-.315-1.422-.43-.572-.113-1.19-.232-1.852-.354a7.9 7.9 0 01-1.851-.576 3.915 3.915 0 01-1.423-1.077c-.376-.457-.564-1.077-.564-1.86 0-.702.143-1.306.43-1.812a3.626 3.626 0 011.164-1.249c.49-.326 1.071-.567 1.742-.722a9.56 9.56 0 012.158-.233zm43.309 0c.752 0 1.414.098 1.986.294a5.198 5.198 0 011.484.771c.417.319.768.694 1.055 1.127.286.432.527.877.723 1.334l-2.624 1.2-.07-.202a2.727 2.727 0 00-.948-1.255 2.667 2.667 0 00-1.606-.527c-.54 0-1.01.107-1.41.319-.4.212-.736.49-1.006.832-.27.343-.47.739-.6 1.188a5.318 5.318 0 00-.012 2.815c.122.449.306.845.551 1.187.245.343.56.62.944.833.384.212.838.318 1.361.318.442 0 .826-.073 1.153-.22.327-.147.609-.335.846-.563.237-.229.437-.486.6-.772a7.33 7.33 0 00.418-.844l2.55 1.346-.167.342c-.175.342-.372.68-.593 1.017a5.322 5.322 0 01-1.104 1.212 5.56 5.56 0 01-1.581.881c-.614.229-1.337.343-2.17.343-.949 0-1.803-.163-2.564-.49a5.453 5.453 0 01-1.925-1.358 6.149 6.149 0 01-1.214-2.057 7.545 7.545 0 01-.429-2.583c0-.93.143-1.791.43-2.583a5.943 5.943 0 011.238-2.056 5.623 5.623 0 011.986-1.359c.785-.326 1.684-.49 2.698-.49zm-16.652.294v7.345l.005.23c.029.747.203 1.294.522 1.643.352.383.912.575 1.68.575.556 0 1.026-.094 1.41-.281.385-.188.687-.429.908-.723.22-.293.38-.628.478-1.003.098-.376.147-.751.147-1.127v-6.659h2.992v12.388h-2.992V78.39h-.049l-.148.178c-.314.348-.726.648-1.237.9-.597.293-1.32.44-2.17.44a6.76 6.76 0 01-1.595-.196 3.836 3.836 0 01-1.459-.697c-.433-.335-.789-.792-1.067-1.372-.278-.579-.417-1.317-.417-2.215v-8.202h2.992zm27.27-4.382v4.382h2.674v2.155h-2.673v6.267l.005.203c.02.392.1.7.24.923.164.262.531.392 1.104.392.212 0 .429-.016.65-.049.22-.033.445-.065.674-.098v2.448l-.363.078c-.243.049-.49.092-.74.13a8.551 8.551 0 01-1.276.086c-1.226 0-2.08-.26-2.563-.783-.482-.523-.723-1.257-.723-2.204V69.38H458.1v-2.155h1.815v-4.382h2.992zm-43.161 0v4.382h2.673v2.155h-2.673v6.267l.005.203c.02.392.1.7.24.923.163.262.531.392 1.104.392.212 0 .429-.016.65-.049.22-.033.445-.065.674-.098v2.448l-.363.078c-.243.049-.49.092-.74.13a8.551 8.551 0 01-1.276.086c-1.226 0-2.08-.26-2.563-.783-.482-.523-.723-1.257-.723-2.204V69.38h-1.815v-2.155h1.815v-4.382h2.992zm11.134 4.088v3.036l-.302.008c-.399.021-.785.084-1.158.188-.466.13-.878.339-1.238.624a3 3 0 00-.858 1.127c-.213.465-.32 1.032-.32 1.701v5.998h-2.991V67.225h2.992v1.714h.049l.112-.21c.35-.609.82-1.053 1.408-1.332.654-.31 1.423-.466 2.306-.466zm88.237 0c1.487 0 2.57.36 3.249 1.078.679.718 1.018 1.762 1.018 3.133v8.471h-2.992v-7.565l-.007-.207a3.105 3.105 0 00-.104-.613 2.05 2.05 0 00-.343-.71 1.752 1.752 0 00-.625-.502c-.262-.13-.589-.196-.981-.196-.36 0-.7.062-1.018.184-.319.122-.6.318-.846.588-.245.269-.437.608-.576 1.016-.14.408-.209.897-.209 1.469v6.536h-2.992V67.225h2.992v1.224h.05l.169-.195c.404-.438.87-.76 1.4-.968a4.95 4.95 0 011.815-.355zm-122.301 0c1.488 0 2.57.36 3.25 1.078.678.718 1.017 1.762 1.017 3.133v8.471h-2.992v-7.565l-.007-.207a3.105 3.105 0 00-.103-.613 2.05 2.05 0 00-.344-.71 1.752 1.752 0 00-.625-.502c-.262-.13-.589-.196-.98-.196-.36 0-.7.062-1.019.184-.318.122-.6.318-.846.588-.245.269-.437.608-.576 1.016-.139.408-.208.897-.208 1.469v6.536h-2.992V67.225h2.992v1.224h.049l.169-.195c.404-.438.87-.76 1.4-.968a4.95 4.95 0 011.815-.355zm96.796 0c1.488 0 2.57.36 3.25 1.078.678.718 1.017 1.762 1.017 3.133v8.471h-2.992v-7.565l-.007-.207a3.105 3.105 0 00-.103-.613 2.05 2.05 0 00-.344-.71 1.752 1.752 0 00-.625-.502c-.262-.13-.589-.196-.981-.196-.36 0-.699.062-1.018.184-.319.122-.6.318-.846.588-.245.269-.437.608-.576 1.016-.14.408-.209.897-.209 1.469v6.536h-2.992V67.225h2.992v1.224h.05l.169-.195c.404-.438.87-.76 1.4-.968a4.95 4.95 0 011.815-.355zm-23.445.294v12.388h-2.992V67.225h2.992zm33.647-5.043v17.431h-2.992V62.182h2.992zm5.934 5.043v12.388h-2.991V67.225h2.991zm-31.071 2.448c-.54 0-1.01.107-1.41.319-.401.212-.736.49-1.006.832-.27.343-.47.739-.6 1.188-.132.448-.197.918-.197 1.407 0 .49.065.96.196 1.408.131.449.331.845.601 1.187.27.343.605.62 1.006.833.4.212.87.318 1.41.318.54 0 1.01-.106 1.41-.318.4-.212.736-.49 1.005-.833.27-.342.47-.738.601-1.187.13-.449.196-.918.196-1.408 0-.49-.065-.959-.196-1.407a3.465 3.465 0 00-.6-1.188 3.121 3.121 0 00-1.006-.832c-.4-.212-.87-.319-1.41-.319zm-96.796 0c-.54 0-1.01.107-1.41.319-.4.212-.736.49-1.006.832-.27.343-.47.739-.6 1.188-.131.448-.197.918-.197 1.407 0 .49.066.96.196 1.408.131.449.331.845.601 1.187.27.343.605.62 1.006.833.4.212.87.318 1.41.318.54 0 1.01-.106 1.41-.318.4-.212.736-.49 1.005-.833.27-.342.47-.738.601-1.187.131-.449.196-.918.196-1.408 0-.49-.065-.959-.196-1.407a3.465 3.465 0 00-.6-1.188 3.121 3.121 0 00-1.006-.832c-.4-.212-.87-.319-1.41-.319zm150.013-.293c-.883 0-1.599.24-2.146.722-.548.481-.904 1.057-1.067 1.726h6.033c0-.163-.053-.384-.16-.661a2.694 2.694 0 00-.502-.808 3.238 3.238 0 00-.87-.686c-.352-.195-.782-.293-1.288-.293zm-22.146-7.198v3.036h-2.991v-3.036h2.991zm-39.581 0v3.036h-2.992v-3.036h2.992zM461.39 8.21c17.278 8.36 20.236 32.384 5.57 45.263-10.953 9.618-25.87 9.627-36.824.022-6.46-5.667-9.34-12.147-9.326-20.984.036-21.243 20.976-33.785 40.58-24.301zm-4.957 21.857c-.588 0-.976 4.16-.991 10.528v.377c0 7.05.35 10.689.99 10.293.562-.346.992-5.076.992-10.904 0-6.204-.393-10.294-.991-10.294zm-5.477 0c-.978 0-1.339.89-1.36 4.855v.797c.006 1.208.036 2.661.085 4.407.196 6.956.677 10.174 1.559 10.434.948.28 1.263-2.078 1.273-9.654v-1.203c-.016-8.048-.292-9.636-1.557-9.636zm-5.35 0h-.079c-1.797 0-1.973.575-1.982 8.581v.773c0 5.17.19 9.353.424 9.353.232 0 1.133.278 1.982.612 1.311.513 1.545-.632 1.558-8.577v-1.943c-.013-8.072-.205-8.779-1.902-8.798zm-4.045 0h-5.948v8.884c0 2.932.122 5.544.31 7.164l.043.343c.116.87.255 1.376.402 1.376.418 0 1.747.273 2.975.61 2.078.573 2.21.526 2.218-7.438V30.068zm18.224 10.09v.298c0 6.016.168 8.3.377 5.123.21-3.196.21-8.002 0-10.858-.205-2.791-.372-.365-.377 5.437zm-10.046-16.011h-2.382c-9.965.01-10.69.173-10.706 1.906v.067c0 1.82.63 1.968 11.094 1.974h1.606c10.466-.006 11.094-.155 11.094-1.974v-.067l-.003-.13c-.057-1.611-.993-1.767-10.703-1.776zm-.574-2.538h-1.327c-9.052.007-12.666.152-8.023.328 4.79.183 12.51.183 17.326 0 4.669-.176 1.075-.321-7.976-.328zm-.141-4.418h-.476c-15.202 0-17.846.222-17.846 1.503 0 1.268 2.59 1.5 17.37 1.504h.476c15.202 0 17.846-.223 17.846-1.504 0-1.268-2.588-1.498-17.37-1.503zM628.975 45.034V80.07H683V10h-54.025v35.034zm53.423.065l.064 34.43h-52.95V10.54l26.411.064 26.411.065.064 34.43zM590.866 14.107c-.15 1.078-.223 2.008-.162 2.079.216.253.428-.308.552-1.463.071-.668.243-1.232.375-1.232.131 0 .243.154.243.333 0 .668.551 2.362.769 2.362.126 0 .541-.693.921-1.54l.692-1.54.012 1.694c.008 1.052.115 1.63.282 1.527.146-.09.269-1.027.269-2.053 0-1.592-.066-1.873-.423-1.797-.23.049-.703.757-1.039 1.553-.652 1.549-.625 1.565-1.211-.719-.457-1.779-.965-1.463-1.28.796M587.304 13.824c-.16.77-.364 1.692-.448 2.028-.09.36-.031.616.14.616.17 0 .295-.231.295-.54 0-.82 1.345-1.046 1.835-.307.799 1.207.797.513-.003-1.31-.462-1.051-.987-1.898-1.179-1.898-.195 0-.474.616-.64 1.411zm1.334.693c.006.178-.259.334-.566.334-.466 0-.544-.115-.41-.603.092-.334.173-.787.18-1.014.015-.465.781.77.796 1.283zM597.328 12.96c-2.154.87-1.69 3.804.615 3.883 1.024.035 1.051.01 1.126-.978.068-.898.008-1.014-.525-1.014-.46 0-.523.078-.269.334.58.581.385 1.283-.358 1.283-.875 0-1.58-1.052-1.34-2.002.224-.891 1.007-1.322 2.006-1.102.921.203 1.086-.26.179-.502-.717-.193-.717-.193-1.434.097M600.388 13.978c.105.406.18 1.386.166 2.156-.014.77.085 1.342.218 1.258.13-.082.243-.334.243-.539 0-.21.498-.937 1.101-1.604.603-.668.985-1.22.845-1.22-.138 0-.542.309-.875.668-.785.847-1.071.854-1.071.026 0-.822-.253-1.49-.563-1.49-.141 0-.17.335-.064.745M581.764 14.697c.166.873.13.934-.67 1.106-.844.18-1.312-.137-1.325-.9-.003-.18-.136-.334-.287-.334-.37 0-.34.205.304 2.104.314.924.68 1.669.823 1.669.23 0 .161-.462-.22-1.489-.063-.172.27-.447.757-.622 1.101-.398 1.035-.421 1.353.494.16.462.403.82.555.82.144 0 .21-.153.14-.333a62.715 62.715 0 01-.615-1.873c-.537-1.694-1.1-2.138-.815-.642M603.025 16.34c-.416.975-.698 1.828-.627 1.897.307.305 2.1.898 2.1.695 0-.125-.372-.39-.807-.578-.436-.186-.807-.376-.807-.41 0-.035.306-.757.679-1.604.747-1.694.766-1.771.448-1.771-.127 0-.57.795-.986 1.77M577.024 15.591c-1.101.454-1.38.98-.384.726.543-.139.696.036 1.319 1.498.403.95.824 1.585.985 1.49.173-.103-.034-.796-.538-1.797-.451-.899-.784-1.66-.742-1.694.044-.037.307-.194.614-.366.805-.45-.05-.352-1.254.143M605.724 17.033c-.919 1.103-.88 1.923.13 2.776.82.692 1.332.888 1.332.509 0-.113-.359-.414-.794-.667-.94-.546-1.049-1.386-.306-2.362.487-.64 1.177-.685 2.585-.17.434.158.41.09-.128-.355-.999-.826-1.985-.732-2.819.269M574.323 17.161c-.41.23-.73.523-.73.667 0 .202 1.386 2.67 1.803 3.209.123.16 1.96-.899 1.96-1.13 0-.311-.332-.238-.921.202-.691.517-.84.491-1.154-.202-.24-.528-.177-.687.437-1.115.701-.489.615-.503-.743-.127-.46.128-1.129-.865-.69-1.027.511-.189 1.318-.888 1.023-.888-.143 0-.576.18-.985.411M608.98 19.368c-1.263 1.643-1.425 2.551-.2 1.13l.684-.796.666.565c.645.547.651.59.192 1.385-.266.463-.406.884-.32.963.092.085.187.1.237.039 1.438-1.772 2.295-3.058 2.172-3.26-.086-.143-.395.051-.693.436l-.538.693-.781-.564c-.743-.537-.76-.598-.344-1.232.895-1.368.11-.899-1.075.641M587.982 18.902c-11.163 1.775-19.802 9.726-22.538 20.742-.72 2.901-.781 8.83-.121 11.756 2.31 10.24 9.761 17.947 19.945 20.627 3.232.85 8.399.975 11.702.283 5.658-1.186 9.956-3.526 13.99-7.615 5.163-5.233 7.794-11.627 7.786-18.916-.008-7.29-2.739-13.956-7.833-19.121-4.87-4.94-11.127-7.669-18.117-7.901-1.767-.059-3.944.007-4.814.145zm7.63.914c14.57 2.237 24.436 15.938 21.915 30.429-1.452 8.341-6.902 15.544-14.49 19.146-14.943 7.095-32.427-1.129-36.615-17.221-.956-3.67-1.018-8.81-.15-12.346 2.617-10.655 11.213-18.52 21.967-20.101 2.462-.363 4.583-.336 7.373.093zM571.043 19.394c-.077.128.113 1.001.424 1.95.63 1.925 1.197 2.783.95 1.438-.127-.693-.037-.91.497-1.194.512-.271.739-.274 1.05-.012.23.193.537.285.73.218.185-.064-.384-.598-1.28-1.2-2.151-1.448-2.206-1.476-2.371-1.2zm1.423 1.084c.666.507.666.507.103.803-.49.256-.6.192-.842-.501-.323-.924-.162-.99.74-.302zM612.422 22.127l-1.319 1.348.768.796c.421.436.873.732.999.654.128-.078-.077-.404-.461-.731l-.691-.59.563-.514c.538-.49.588-.491 1.1-.026.308.279.621.405.73.295.107-.107-.012-.308-.268-.454-.538-.305-.6-.806-.154-1.253.264-.264.461-.21.947.257.333.32.709.496.82.385.175-.175-1.178-1.478-1.562-1.504-.085-.005-.744.593-1.472 1.337M567.397 22.833c0 .177 2.663 2.798 2.842 2.798.07 0 .435-.307.82-.692.85-.851.614-1.244-.257-.425l-.614.578-1.182-1.207c-1.081-1.103-1.61-1.448-1.61-1.052M614.918 24.591c-.717.611-1.28 1.193-1.28 1.322 0 .487 1.51 1.592 2.176 1.592 1.025 0 2.126-.958 2.126-1.848 0-.796-.918-2.18-1.434-2.166-.173.006-.871.49-1.588 1.1zm2.177-.244c.463.465.39 1.566-.145 2.156-.58.642-1.763.616-2.365-.05-.47-.522-.46-.56.282-1.154 1.843-1.475 1.747-1.433 2.228-.952zM565.707 24.853c-1.7.986-.59 3.73 1.51 3.73 1.793 0 2.146-2.59.487-3.57-.896-.53-1.305-.562-1.997-.16zm2.1.906c.72.723.788 1.027.392 1.771-.388.73-1.494.667-2.287-.128-.722-.723-.789-1.027-.393-1.771.388-.73 1.493-.668 2.287.128zM617.325 27.697l-1.562.937.455.718c.633 1.001 1.19 1.386 2.003 1.386.82 0 2.15-1.08 2.15-1.745 0-.693-.828-2.278-1.177-2.254-.171.012-.999.436-1.87.958zm2.176-.13c.184.178.333.656.333 1.067 0 1.309-1.883 2.077-2.816 1.149-.656-.652-.512-1.006.717-1.77 1.357-.842 1.357-.842 1.766-.446zM563.018 28.57c-.256.436-.46.84-.46.91 0 .072.742.576 1.664 1.13 1.587.955 1.681.978 2.029.513.691-.924.915-1.463.608-1.463-.155 0-.415.296-.576.655-.254.565-.384.614-.948.36-.435-.198-.593-.437-.473-.72.102-.241.234-.654.307-.962.106-.447.048-.423-.345.141l-.538.77c-.034.048-.333-.06-.64-.23-.53-.296-.543-.373-.157-.963.47-.719.514-.924.195-.924-.114 0-.409.346-.666.783M561.855 30.79c-.08.128.165.35.549.5.774.3.824.5.372 1.476-.226.488-.442.642-.73.522-2.129-.886-1.537-.118.742.964 1.638.778 2.377.659.845-.137-.82-.425-.82-.425-.398-1.246.42-.818.628-.861 1.806-.38.256.106.486.079.486-.057-.001-.359-3.5-1.924-3.672-1.642M619.604 31.155c-.487.212-.972.65-1.101.995-.25.667.066 1.821.589 2.154.616.392 1.997.216 2.714-.346.819-.642.915-1.572.242-2.347-.662-.761-1.42-.903-2.444-.456zm1.869.414c.324.173.511.555.51 1.043-.002 1.489-2.787 2.08-3.14.667-.177-.706.249-1.378 1.094-1.728.742-.308.928-.306 1.536.018zM621.358 35.153c-1.818.535-1.83.545-1.66 1.36.258 1.232.718 1.582.608.462-.085-.865-.037-.915 1.32-1.369 1.409-.47 1.884-.73 1.665-.909-.056-.045-.935.162-1.933.456M559.863 35.743c-.463 1.222-.327 1.387 1.62 1.954 1.817.53 2.71.331 1.074-.24-.665-.232-.75-.361-.524-.803.188-.37.55-.526 1.216-.526.614 0 .884-.103.768-.295-.105-.172-.563-.23-1.101-.14-.666.11-.965.042-1.076-.245-.085-.222-.499-.398-.934-.398-.589 0-.846.17-1.043.693zm1.61-.025c.481.586.086 1.477-.58 1.305-.691-.178-.92-.767-.498-1.28.422-.513.671-.519 1.077-.025zM558.128 42.57c-.072.2-.128.706-.128 1.143 0 .727.077.782 1.075.782h1.076v1.207c0 .667.091 1.206.204 1.206.426 0 1.745-1.052 2.22-1.77.813-1.233.699-1.72-.402-1.72-.768 0-.947.102-.947.538 0 .36-.18.54-.538.54-.691 0-.756-.955-.076-1.132.267-.07.503-.357.524-.64.034-.45-.14-.513-1.42-.513-.973 0-1.503.12-1.588.36M620.776 42.981c-.281 1.412-.218 1.514.927 1.514h1.076v1.207c0 .667.091 1.206.205 1.206.111 0 .588-.233 1.05-.512.904-.548 1.509-1.336 1.814-2.363.167-.565.093-.616-.906-.616-.921 0-1.088.083-1.088.54 0 .359-.18.538-.538.538-.358 0-.537-.17-.537-.513 0-.293.23-.574.537-.654.308-.08.538-.35.538-.629 0-.41-.23-.49-1.46-.5-1.408-.013-1.464.014-1.618.782M620.491 50.681c-.08.127-.208.821-.286 1.54-.113 1.052-.086 1.183.137.667.3-.69.414-.696 2.923-.16.538.115.87.083.87-.084 0-.148-.767-.413-1.715-.59-1.613-.302-1.708-.359-1.592-.962.128-.668-.044-.877-.337-.41M560.535 51.06l-1.357.314.166 1.014c.093.564.263 1.099.384 1.206.119.105.148-.256.064-.795-.115-.745-.052-1.026.256-1.14.82-.306 1.178-.15 1.178.51 0 .36.124.668.269.668.15 0 .235-.32.192-.732-.06-.564.052-.751.486-.82.435-.07.628.115.845.808.266.847.284.857.31.18.065-1.64-.284-1.792-2.793-1.212M561.61 53.721c-1.741.595-1.899.678-1.69.887.07.07.704-.07 1.396-.308.69-.238 1.32-.384 1.382-.32.063.062-.363.654-.934 1.295-1.003 1.13-1.35 1.874-.87 1.874.563 0 3.558-1.145 3.558-1.36 0-.308 0-.308-1.357.163-1.715.596-1.768.515-.558-.856.997-1.13 1.398-2.006.891-1.949-.114.013-.922.268-1.818.574M619.667 54.428c.078.127.692.388 1.358.578.665.19 1.158.433 1.088.539-.07.105-.87.338-1.767.513-.921.18-1.593.45-1.536.616.056.16.896.583 1.844.926 1.997.725 1.869.698 1.869.396 0-.141-.692-.488-1.537-.77l-1.536-.513 1.741-.357c2.612-.534 2.739-.796.743-1.53-1.793-.66-2.503-.785-2.267-.398M563.172 58.047c-.768.77-1.408 1.505-1.408 1.617 0 .238 1.894.25 3.277.02 1.713-.285 1.127-.625-.768-.446l-1.792.17 1.254-1.162c1.153-1.067 1.518-1.63 1.05-1.616-.112.003-.845.647-1.613 1.417M618.106 58.201c-.238.462-.423.945-.423 1.104-.002.257 3.192 2.038 3.313 1.848.785-1.232.987-1.667.895-1.925-.061-.17-.272.026-.47.436-.246.514-.529.72-.908.667-.453-.063-.54-.243-.487-1.013l.064-.937-.486.616c-.325.41-.64.556-.948.437-.508-.196-.544-.489-.154-1.233.161-.308.228-.6.154-.68-.072-.08-.312.218-.55.68M564.657 61.214c-.87.452-1.562.937-1.562 1.094 0 .354.026.345 1.972-.702.819-.44 1.514-.906 1.52-1.018.013-.324-.291-.225-1.93.626M616.749 60.614c-.076.124.301.757.82 1.373.517.616.889 1.213.806 1.296-.085.085-.692.015-1.357-.158-1.537-.398-1.766-.394-1.763.03.004.385 2.9 2.505 3.12 2.284.07-.07-.435-.565-1.127-1.1-1.41-1.092-1.357-1.147.538-.566.742.228 1.422.312 1.536.19.113-.12-.21-.744-.717-1.386-.506-.641-.922-1.225-.922-1.296 0-.07.564.19 1.255.579 1.383.778 1.434.794 1.434.448 0-.24-2.868-1.925-3.277-1.925-.123 0-.262.092-.346.23M565.656 62.692c-1.716 1.19-2.182 2.117-.513 1.02.59-.387.728-.397.934-.07.344.545.321.637-.293 1.188-.59.529-.713.943-.282.943.155 0 .494-.334.755-.744.262-.411.663-.705.896-.655.242.051.626-.141.897-.45.458-.521.458-.564-.013-1.36-.274-.461-.61-.815-.768-.808-.157.007-.87.421-1.613.936zm2.189.784c-.091.23-.423.423-.73.423-.768 0-1.012-.79-.384-1.245.435-.316.57-.314.896.013.21.21.308.578.218.809zM613.81 64.669l-.735.77 3.123 2.798.729-.899c.873-1.078.74-1.354-.217-.45-.614.582-.699.596-1.1.18-.404-.415-.402-.5.017-1.141.485-.745.196-.966-.37-.283-.19.232-.507.411-.723.411-.615 0-.733-.777-.207-1.36.764-.847.29-.87-.517-.026M567.576 65.413c-1.966 1.971.333 4.414 2.458 2.612.922-.781 1.009-1.837.218-2.637-.871-.881-1.78-.873-2.676.025zm2.458.155c.536.537.358 1.505-.384 2.09-.845.666-1.53.713-2.1.142-.6-.6-.538-1.103.23-1.873.718-.719 1.734-.881 2.254-.36zM611.768 66.902c-.74.796-.715 2.21.052 2.926.794.74 2.12.705 2.85-.077.743-.796.738-1.04-.034-1.762l-.64-.6-.512.578c-.5.565-.5.574.052.41.358-.105.694-.007.924.27.766.924-1.443 1.767-2.288.873-.724-.766-.72-1.488.011-2.361.796-.95.437-1.172-.415-.257M570.695 68.493c-1.451 1.746-1.502 2.438-.058.796l1.061-1.206-.18 1.976c-.211 2.336-.09 2.371 1.497.436 1.411-1.72 1.413-2.258.003-.693l-1.064 1.181.18-1.925c.1-1.078.072-1.925-.065-1.925-.133 0-.755.616-1.374 1.36M608.726 69.443c-.165.168.969 3.789 1.276 4.073.126.116.155-.172.064-.634-.12-.616-.03-.97.333-1.296.471-.423.538-.424 1.178-.013.384.247.74.336.82.206.077-.128-.602-.733-1.524-1.356-1.716-1.159-1.892-1.24-2.147-.98zm1.507 1.155c.437.488.437.522 0 .69-.455.176-.878-.228-.886-.844-.006-.478.38-.41.886.154zM573.633 71.137c-1.149 1.643-1.282 1.925-.91 1.925.112 0 .552-.552.972-1.22.42-.667.815-1.172.871-1.116.056.057-.036.732-.205 1.502-.169.77-.238 1.468-.154 1.553.085.085.692-.282 1.357-.822.666-.54 1.278-.975 1.37-.975.092 0-.148.539-.537 1.206-.39.668-.659 1.35-.602 1.527.056.177.558-.5 1.114-1.5.555-1.002.942-1.893.857-1.977-.21-.211-1.152.286-2.278 1.201-.666.541-.874.62-.75.287.344-.924.53-3.182.263-3.182-.14 0-.758.718-1.368 1.59M607.186 70.547c0 .098.305.706.678 1.347.373.642.61 1.168.525 1.168-.086 0-.742-.297-1.485-.672-2.176-1.098-2.338-.898-1.019 1.262 1.05 1.72 1.014 1.673 1.173 1.515.071-.072-.166-.655-.538-1.322s-.666-1.273-.666-1.373c0-.098.64.177 1.409.604 2.201 1.226 2.473 1.083 1.384-.733-.508-.847-.924-1.638-.924-1.758 0-.125-.115-.218-.268-.218-.154 0-.27.077-.27.18"/><path d="M577.651 73.486c-.483.975-.848 1.813-.806 1.849.179.153 1.837.96 1.971.96.43 0 .051-.443-.64-.75-.717-.318-.765-.417-.5-1.02.17-.385.447-.608.654-.526.201.08.537.214.768.308.23.094.41.043.41-.116 0-.161-.231-.353-.538-.447-.587-.18-.658-.374-.39-1.067.141-.363.249-.363.94 0 .435.229.781.286.781.128 0-.22-1.331-1.103-1.664-1.103-.056 0-.503.808-.986 1.784M602.859 72.647c-.215.214.076 4.188.307 4.188.138 0 .256-.308.256-.667 0-.95 1.2-1.524 1.716-.822.188.257.497.44.652.385.162-.056-.31-.795-1.051-1.642-1.278-1.463-1.606-1.714-1.88-1.442zm1.175 1.365c.263.359.359.687.207.71-.794.121-.908.049-1.003-.633-.129-.924.156-.952.796-.077zM580.968 73.113c-.308.847-1.204 3.54-1.204 3.62 0 .06.087.102.217.102.12 0 .446-.68.73-1.527l.512-1.527.227.923c.607 2.464.76 2.927.976 2.927.25 0 1.383-3.03 1.383-3.696 0-.778-.513 0-.846 1.283-.39 1.5-.55 1.386-1.048-.744-.336-1.438-.719-1.988-.947-1.36M600.516 73.665c-.164.193-.329 1.001-.372 1.822l-.076 1.476-.897-1.283c-.501-.719-1.065-1.283-1.28-1.283-.477 0-.478-.077.035 2.181.234 1.027.53 1.81.657 1.733.127-.078.07-.745-.128-1.489-.198-.744-.279-1.342-.18-1.335.099.007.525.5.942 1.091.908 1.284 1.248 1.331 1.284.18.015-.488.107-1.15.207-1.502.157-.552.238-.461.666.745.263.744.592 1.373.716 1.373.198 0-.896-3.67-1.177-3.953-.053-.053-.245.065-.397.244M585.09 74.454c.662.339.669.456.16 2.843-.11.513-.076.873.082.873.15 0 .411-.72.59-1.617.294-1.489.376-1.617 1.036-1.617 1.18 0 .359-.465-1.126-.638-1.178-.137-1.276-.117-.743.156M588.136 76.604c-.462 1.052-.77 2-.678 2.092.097.097.212.038.277-.141.34-.95.773-1.223 1.502-.948.46.174.743.49.743.832 0 .308.124.552.281.552.347 0 .34-.077-.188-2.361-.25-1.078-.595-1.951-.772-1.951-.175 0-.703.873-1.165 1.925zm1.37-.32c.099.692.03.808-.487.808-.553 0-.577-.065-.294-.809.166-.436.39-.808.487-.808.096 0 .232.372.294.808zM591.593 76.963v2.028h1.075c.589 0 1.075-.122 1.075-.27 0-.145-.37-.27-.806-.27h-.807v-1.757c0-1.001-.115-1.758-.268-1.758-.157 0-.27.846-.27 2.027M655.437 13.773c.127.41.069.5-.243.372-.304-.123-.41.013-.41.526 0 .514.106.653.41.536.584-.223.46.558-.18 1.137-.487.44-.539.701-.384 1.934.104.82.071 1.424-.076 1.424-.145 0-.201-.295-.128-.68.106-.565.032-.68-.436-.68-.384 0-.563.171-.563.539 0 .308-.115.539-.269.539-.15 0-.198-.283-.109-.642.224-.898-.397-1.206-.984-.488-.272.334-.57.59-.686.59-.12 0-.077-.128.102-.307.417-.418.128-1.027-.486-1.027-.35 0-.52.193-.538.603l-.026.603-.287-.59c-.337-.693-.964-.814-1.191-.231-.084.216-.391.41-.647.41-.717 0-.955.564-.41.968.282.209.352.411.18.521-.165.105-.282.052-.282-.128 0-.413-1.145-.231-1.29.205-.064.196.138.428.445.51.8.215.691.524-.18.512-.895-.013-1.007.746-.127.869.333.046.614.191.614.317 0 .132-.23.17-.537.09-.666-.172-1.081.675-.538 1.099.213.165.35.569.307.902-.042.334.05.604.205.604.158 0 .282.18.282.41 0 .23.317 1.207.717 2.207.399 1.001.717 1.985.717 2.22 0 .243.18.617.422.873.396.42.55.415 2.445-.09 1.675-.446 2.625-.516 5.518-.41 2.279.084 3.905.281 4.673.568 1.305.488 1.745.375 1.508-.389-.08-.256 0-.578.169-.68.226-.136.27-.064.153.244-.088.231-.046.436.09.436s.256-.295.256-.629c0-.348.348-1.475.78-2.528.434-1.052.713-1.973.628-2.066-.082-.09 0-.166.18-.166.198 0 .296-.244.243-.604-.05-.333.082-.735.294-.9.55-.424.154-1.273-.512-1.1-.307.08-.537.04-.537-.091 0-.126.281-.27.614-.317.902-.126.768-.882-.154-.869-.87.012-.979-.288-.179-.497.307-.08.538-.272.538-.448 0-.436-.778-.647-1.178-.319-.205.168-.435.222-.538.127-.095-.089.026-.318.256-.488.485-.357.307-.962-.281-.962-.208 0-.514.218-.666.475-.227.382-.27.32-.218-.321.046-.565-.073-.826-.41-.899-.322-.07-.473.077-.473.462 0 .308-.122.565-.269.565-.154 0-.269-.231-.269-.54 0-.358-.179-.538-.537-.538-.308 0-.538.11-.538.257 0 .141-.333.233-.743.205-.665-.046-.737.024-.691.68.029.41-.055.732-.192.732-.139 0-.243-.231-.243-.54 0-.359-.18-.538-.538-.538-.42 0-.538-.167-.538-.758 0-.41-.246-.979-.537-1.242-.64-.578-.746-1.357-.154-1.133.304.115.41-.024.41-.538 0-.513-.11-.65-.423-.526-.322.127-.383.039-.256-.372.14-.45.051-.54-.537-.54-.59 0-.677.09-.538.54zm1.293 3.722c.505.242.397.282-.755.282-1.153 0-1.257-.042-.73-.295.333-.16.626-.49.64-.719.023-.374.04-.372.14.013.066.247.372.56.705.719zm3.828 1.116c.09.147.038.27-.115.27a.278.278 0 01-.282-.27c0-.154.05-.27.115-.27.066 0 .187.116.282.27zm-3.022.552c.081.308.037.539-.102.539-.14 0-.243-.231-.243-.54 0-.307.044-.538.102-.538.059 0 .163.231.243.539zm-1.139-.013c0 .152-.18.27-.41.27-.23 0-.41-.118-.41-.27 0-.152.18-.27.41-.27.23 0 .41.118.41.27zm-3.585.618l1.946.601.013 1.258c.008.77-.121 1.307-.333 1.386-.235.087-.153.333.255.77.721.77.776 1.027.219 1.027-.22 0-.456-.231-.551-.54-.343-1.106-.652-.462-.652 1.36 0 2.003-.212 2.273-1.127 1.443-.538-.489-.673-1.185-.23-1.185.164 0 .281.128.281.308 0 .218.115.21.397-.026.23-.194.397-.485.397-.693 0-.402-.794-.906-1.204-.765-.154.054-.483-.262-.729-.698-.584-1.038-1.012-1.027-1.012.026 0 .539-.232 1.061-.64 1.437l-.64.59-.691-1.643-.205.809c-.166.654-.185.59-.102-.334.055-.616-.016-1.215-.154-1.3-.5-.31-.302-2.434.3-3.204 1.06-1.358 1.774-1.459 4.462-.627zm10.632.473c.57.636.737 1.09.737 2.015 0 .667-.113 1.261-.256 1.347-.138.083-.215.68-.167 1.296.073.924.053.988-.102.334l-.192-.809-.666 1.695-.653-.655c-.4-.401-.653-.962-.653-1.45 0-1.027-.431-1.038-1.007-.026-.248.436-.637.79-.862.783-.221-.007-.627.076-.883.18-.392.16-.474.064-.474-.552v-.744l-.666.628c-.358.339-.76.534-.87.424-.111-.111.14-.505.55-.86.615-.533.677-.683.333-.809-.301-.11-.422-.513-.422-1.411v-1.258l1.818-.585c2.304-.742 3.467-.622 4.435.457zm-7.047-.27c0 .147-.192.27-.422.27-.23 0-.347-.123-.257-.27.096-.154.277-.27.423-.27.146 0 .256.116.256.27zm0 .796c0 .147-.192.27-.422.27-.23 0-.347-.123-.257-.27.096-.154.277-.27.423-.27.146 0 .256.116.256.27zm-.102 1.373c0 .462-.124.777-.282.719-.16-.058-.268-.36-.25-.693.043-.796.06-.847.301-.847.13 0 .23.36.23.821zm-8.783 1.322c0 .154-.049.27-.115.27s-.186-.116-.282-.27c-.09-.147-.038-.27.116-.27.153 0 .281.123.281.27zm11.427 2.734c.115.188.3.175.556-.038.566-.47.51.243-.07.884-.662.734-1.159.59-1.159-.333 0-.796.342-1.057.673-.513zm-7.919.59c0 .59-.435 1.258-.82 1.258-.1 0-.317-.296-.498-.68-.29-.617-.269-.665.23-.514.384.116.55.039.55-.257 0-.23.123-.423.27-.423.145 0 .268.282.268.616zm4.302-.385c0 .36-1.057 1.224-1.255 1.026-.102-.102.029-.41.306-.718.51-.565.949-.708.949-.308zm2.28.308c.277.308.408.616.306.718-.198.198-1.255-.667-1.255-1.026 0-.4.44-.257.948.308zm3.89-.116c0 .303.154.376.538.257.498-.154.514-.115.22.526-.354.77-.518.83-.981.36-.38-.386-.404-1.566-.033-1.566.14 0 .256.192.256.423zm-11.957 1.4c-.178.178-.947-.488-.947-.822 0-.162.23-.073.538.205.307.279.482.543.409.616zm13.579-.36c-.192.23-.465.41-.623.41-.161 0-.072-.23.207-.538.55-.605.928-.488.416.128zm-6.593.975c.286.462-.331.973-.713.59-.303-.303-.102-.872.308-.872.125 0 .31.128.405.282zm-3.35.385c0 .289-.282.41-.948.41-1.05 0-1.283-.437-.332-.623 1.126-.219 1.28-.193 1.28.213zm6.913-.228c.857.23.742.639-.18.639-.793 0-1.235-.31-.914-.642.204-.21.3-.21 1.094.003zm-10.677 1.024c0 .282-.516.4-.67.154-.095-.154.017-.283.248-.283.23 0 .422.059.422.129zM651.66 35.468c-2.1.458-4.543 1.444-6.452 2.604-1.613.98-4.404 3.36-4.404 3.754 0 .556.87.175 2.1-.92 5.79-5.157 14.236-6.451 21.277-3.262 1.638.742 4.031 2.277 4.04 2.591.003.113-3.298.205-7.343.205-4.122 0-8.046.128-8.936.291-3.38.62-7.201 2.571-9.755 4.983-1.28 1.209-1.438 1.453-.948 1.464.338.007 1.255-.57 2.151-1.353 4.24-3.706 10.933-5.36 16.822-4.155 1.92.393 6.137 2.292 7.476 3.369l.666.534h-6.862c-8.398 0-11.56.482-15.08 2.295-1.409.726-4.03 2.673-5.066 3.763l-.952 1 1.64 1.534c7.756 7.261 19.996 7.26 27.882 0l1.664-1.533-.66-.719c-1.227-1.336-3.615-3.022-6.048-4.27l-2.432-1.248 3.981.025c2.202.015 4.036-.031 4.104-.102.142-.149-2.58-2.293-4.014-3.163-.57-.345-1.741-.924-2.56-1.265l-1.511-.629h4.096c2.253 0 4.097-.069 4.097-.153 0-.652-4.558-3.689-6.99-4.657-3.381-1.346-8.424-1.76-11.983-.983zm9.013 11.623c1.587.381 6.387 2.439 6.17 2.645-.055.054-.716.003-1.459-.113-1.306-.202-3.725.008-4.839.422-.3.112-.922.483-1.408.841-.731.539-.87.809-.87 1.682 0 .82.171 1.185.818 1.735 1.223 1.037 3.483 1.608 5.71 1.443l1.844-.137-1.101.654c-.605.36-1.92.942-2.92 1.292-6.656 2.332-13.483 1.164-19.151-3.276l-1.972-1.545 1.537-1.393c2.459-2.231 6.529-4.12 10.088-4.68 1.927-.304 5.3-.112 7.553.43zM586.177 25.554c-.162.41-.863 2.438-1.561 4.517l-1.268 3.773-4.89.141c-3.022.087-4.876.244-4.853.41.022.15 1.383 1.29 3.047 2.555a371.798 371.798 0 013.752 2.874l.742.59-1.523 4.762c-.838 2.617-1.46 4.824-1.383 4.902.078.078 1.92-1.144 4.122-2.733 2.202-1.59 4.165-2.83 4.392-2.773.224.057 2.073 1.282 4.096 2.714 3.482 2.466 4.25 2.899 4.25 2.394 0-.113-.67-2.207-1.484-4.646-.816-2.438-1.486-4.503-1.486-4.581 0-.078 1.754-1.467 3.905-3.093 2.15-1.626 3.905-3.044 3.905-3.157 0-.113-2.266-.24-5.032-.282l-5.03-.077-1.486-4.517c-.818-2.49-1.583-4.517-1.702-4.517-.12 0-.35.333-.513.744zm-1.113 11.113l1.408 2.13.038 2.477c.029 1.848-.056 2.536-.333 2.708-.204.127-1.882 1.318-3.725 2.644-1.843 1.326-3.383 2.383-3.418 2.348-.035-.035.536-1.938 1.267-4.222.732-2.284 1.332-4.28 1.332-4.427 0-.148-1.178-1.161-2.612-2.246-1.434-1.085-3.039-2.33-3.559-2.76l-.947-.782h9.14l1.409 2.13zM602.5 32.046c-1.28.437-1.354.514-1.315 1.362.056 1.18.149 1.237 1.162.714 2.355-1.218 5.13-.626 5.676 1.21.591 1.991-.863 3.53-3.526 3.73l-1.613.12v.899c0 .878.026.898 1.152.904 2.638.012 4.413 1.218 4.68 3.177.202 1.488-.47 2.664-1.889 3.305-1.615.73-3.15.62-5.581-.402-.325-.136-.514.036-.743.677-.165.462-.241.967-.164 1.09.271.44 2.904 1.053 4.517 1.053 2.048 0 3.401-.416 4.634-1.424 1.241-1.015 1.741-2.169 1.741-4.017 0-1.797-.861-3.191-2.407-3.898-1.1-.503-1.429-.902-.742-.902.62 0 2.28-2.053 2.467-3.054.361-1.925-.693-3.917-2.467-4.66-1.197-.5-3.943-.444-5.582.116"/><path d="M649.976 89.85v-1.437h.691l.1-.593h-.791v-3.74h-.708l-2.74 3.79v.543h2.748v1.437h.7zm-.7-2.03h-1.99l1.99-2.78v2.78zm5.63 2.03v-1.437h.69l.1-.593h-.79v-3.74h-.708l-2.74 3.79v.543h2.748v1.437h.7zm-.7-2.03h-1.99l1.99-2.78v2.78zm4.189 2.18c.416 0 .756-.088 1.02-.263.263-.175.471-.413.624-.714.153-.3.257-.653.312-1.056.056-.404.084-.837.084-1.299 0-.328-.03-.657-.092-.985a2.794 2.794 0 00-.316-.886 1.797 1.797 0 00-.608-.634c-.256-.162-.58-.242-.975-.242-.3 0-.571.047-.816.142a1.774 1.774 0 00-.624.4c-.172.173-.305.38-.4.623a2.178 2.178 0 00-.141.797c0 .267.033.518.1.752.066.233.172.435.316.605.144.17.326.303.545.4.22.098.485.147.796.147.65 0 1.149-.256 1.499-.768 0 .434-.028.8-.084 1.098a2.27 2.27 0 01-.25.73c-.11.19-.25.326-.42.41-.17.083-.365.125-.587.125-.322 0-.566-.063-.733-.188-.166-.125-.277-.33-.333-.614h-.708c.05.49.226.85.529 1.078.303.228.723.342 1.262.342zm-.025-2.823c-.223 0-.408-.034-.558-.104a.968.968 0 01-.558-.697 2.208 2.208 0 01-.059-.518c0-.418.113-.743.338-.977.225-.234.528-.35.911-.35.206 0 .382.038.53.116.146.078.268.182.366.313.097.131.169.279.216.443.047.164.07.33.07.497 0 .222-.034.415-.103.576a1.098 1.098 0 01-.679.626c-.15.05-.308.075-.474.075zm6.903 2.673l.108-.668h-2.815c.161-.145.327-.288.496-.43.17-.142.334-.283.495-.422.306-.262.57-.504.791-.727.222-.222.406-.44.55-.651.144-.212.251-.426.32-.643.07-.217.105-.451.105-.702 0-.25-.04-.478-.121-.684a1.472 1.472 0 00-.35-.53 1.602 1.602 0 00-.57-.347 2.265 2.265 0 00-.783-.125c-.339 0-.625.046-.858.137a1.67 1.67 0 00-.95.864c-.088.19-.157.385-.207.585l.691.109c.05-.173.107-.323.17-.451a1.02 1.02 0 01.246-.322c.1-.086.222-.151.367-.196.144-.044.319-.067.524-.067.339 0 .603.094.791.28.19.187.284.455.284.806 0 .212-.034.41-.1.593a2.11 2.11 0 01-.3.543c-.133.178-.3.363-.5.555-.2.192-.433.405-.7.639-.25.223-.496.44-.74.651-.245.212-.472.412-.683.601v.602h3.739zM573.248 58.93c.235 0 .44-.03.615-.087.175-.057.32-.136.437-.236a.983.983 0 00.262-.352c.059-.134.088-.278.088-.432 0-.336-.092-.591-.278-.765-.186-.173-.476-.298-.873-.373l-.535-.096a1.987 1.987 0 01-.332-.089.652.652 0 01-.217-.129.436.436 0 01-.117-.182.775.775 0 01.01-.489.467.467 0 01.153-.198.805.805 0 01.284-.132c.117-.032.264-.048.439-.048.153 0 .283.014.39.043.107.028.198.07.27.126a.628.628 0 01.177.21c.045.083.082.179.11.286l.46-.09a1.866 1.866 0 00-.125-.369.947.947 0 00-.244-.32 1.187 1.187 0 00-.415-.222 2.066 2.066 0 00-.634-.083c-.2 0-.385.021-.557.064-.171.043-.32.11-.444.199a.94.94 0 00-.407.795c0 .178.026.33.078.456.051.125.128.23.23.314.102.084.226.153.372.207.146.053.314.096.503.128l.482.086c.143.025.26.06.35.102a.67.67 0 01.215.15c.051.058.086.121.104.191a.874.874 0 01-.016.483.527.527 0 01-.145.22.737.737 0 01-.27.15 1.342 1.342 0 01-.42.057c-.336 0-.588-.06-.758-.18-.17-.12-.275-.314-.318-.582h-.493c.018.207.068.386.15.537.082.15.191.273.327.37.135.097.295.167.479.212.184.045.388.067.613.067zm4.582-.097l.08-.435h-2.082v-1.32h1.874v-.441h-1.874v-1.203h1.98V55h-2.472v3.833h2.494zm1.172 0v-1.59h.823l.077-.002c.053-.002.103-.006.15-.014l.722 1.606h.552l-.803-1.724c.232-.096.399-.23.5-.402.102-.172.153-.38.153-.623 0-.132-.02-.263-.06-.392a.805.805 0 00-.216-.346 1.172 1.172 0 00-.43-.25 2.137 2.137 0 00-.702-.096h-1.253v3.833h.487zm.814-2.014h-.814v-1.4h.75c.182 0 .332.015.45.045.117.03.211.075.28.134.07.06.12.13.148.212a1.118 1.118 0 01.005.585.5.5 0 01-.134.228.636.636 0 01-.262.145c-.11.034-.252.051-.423.051zm4.577 2.014l.08-.435h-2.082v-1.32h1.874v-.441h-1.874v-1.203h1.98V55h-2.473v3.833h2.495zm1.162 0v-3.028l1.959 3.028h.47V55h-.475v3.043L585.565 55h-.487v3.833h.477zm5.824.096c.235 0 .44-.028.615-.086.175-.057.32-.136.437-.236a.983.983 0 00.262-.352c.059-.134.088-.278.088-.432 0-.336-.092-.591-.278-.765-.186-.173-.476-.298-.873-.373l-.535-.096a1.987 1.987 0 01-.332-.089.652.652 0 01-.217-.129.436.436 0 01-.117-.182.775.775 0 01.01-.489.467.467 0 01.153-.198.805.805 0 01.284-.132c.117-.032.264-.048.439-.048.153 0 .283.014.39.043.107.028.198.07.27.126a.628.628 0 01.177.21c.045.083.082.179.11.286l.46-.09a1.866 1.866 0 00-.125-.369.947.947 0 00-.244-.32 1.187 1.187 0 00-.415-.222 2.066 2.066 0 00-.634-.083c-.2 0-.386.021-.557.064-.171.043-.32.11-.444.199a.94.94 0 00-.407.795c0 .178.026.33.078.456.051.125.128.23.23.314.102.084.226.153.372.207.146.053.314.096.503.128l.482.086c.143.025.26.06.35.102a.67.67 0 01.215.15c.051.058.086.121.104.191a.874.874 0 01-.016.483.527.527 0 01-.145.22.737.737 0 01-.27.15 1.342 1.342 0 01-.42.057c-.336 0-.588-.06-.758-.18-.17-.12-.275-.314-.318-.582h-.493c.018.207.068.386.15.537.082.15.191.273.327.37.135.097.295.167.479.212.184.045.388.067.613.067zm3.661 0c.243 0 .456-.034.64-.102.184-.068.34-.163.468-.284.129-.122.23-.266.306-.432.074-.167.123-.347.144-.54h-.508a1.704 1.704 0 01-.102.376.903.903 0 01-.19.295.8.8 0 01-.305.19 1.314 1.314 0 01-.447.068c-.193 0-.363-.038-.512-.113a1.044 1.044 0 01-.374-.322 1.532 1.532 0 01-.233-.502 2.441 2.441 0 01-.08-.647c0-.236.026-.452.08-.647a1.5 1.5 0 01.233-.5 1.08 1.08 0 01.374-.321c.149-.077.317-.116.506-.116.16 0 .297.021.41.062a.8.8 0 01.289.18c.08.079.146.174.198.287.052.113.094.24.126.379l.482-.08a2.28 2.28 0 00-.17-.51 1.293 1.293 0 00-.288-.398 1.244 1.244 0 00-.436-.258 1.827 1.827 0 00-.61-.091 1.7 1.7 0 00-.678.134c-.209.09-.39.22-.543.392a1.822 1.822 0 00-.359.633 2.65 2.65 0 00-.128.86c0 .318.04.602.12.85.08.249.194.46.34.631.146.172.325.303.535.392.21.09.448.134.712.134zm2.72-.096v-1.75h1.932v1.75h.493V55h-.493v1.62h-1.932V55h-.493v3.833h.493zm5.765 0l.08-.435h-2.082v-1.32h1.874v-.441h-1.874v-1.203h1.98V55h-2.473v3.833h2.495zm1.135 0V55.82l1.178 3.012h.401l1.2-3.023v3.023h.454V55h-.589l-1.252 3.242L604.82 55h-.61v3.833h.45zm6.573 0l.08-.435h-2.082v-1.32h1.874v-.441h-1.874v-1.203h1.981V55h-2.473v3.833h2.494zm-28.31 5.964c.258 0 .473-.028.648-.085.175-.058.316-.136.423-.237a.886.886 0 00.233-.351 1.286 1.286 0 00.043-.709.78.78 0 00-.107-.252.905.905 0 00-.204-.22 1.238 1.238 0 00-.318-.175c.2-.093.34-.21.42-.349a.93.93 0 00.12-.472c0-.136-.02-.264-.058-.384a.69.69 0 00-.212-.311 1.114 1.114 0 00-.415-.21 2.401 2.401 0 00-.669-.078h-1.268v3.833h1.365zm-.032-2.211h-.85v-1.214h.77c.325 0 .554.047.688.14.134.093.2.243.2.45 0 .205-.062.36-.187.465-.124.106-.331.159-.62.159zm.017 1.803h-.868v-1.385h.905c.31 0 .532.06.664.18s.198.293.198.518a.946.946 0 01-.04.287.46.46 0 01-.145.215.725.725 0 01-.278.137 1.661 1.661 0 01-.436.048zm3.388.505c.236 0 .44-.029.616-.086.175-.057.32-.136.436-.236a.983.983 0 00.262-.352c.06-.134.089-.278.089-.432 0-.336-.093-.591-.279-.765-.185-.173-.476-.298-.872-.373l-.536-.097a1.987 1.987 0 01-.332-.088.652.652 0 01-.216-.129.436.436 0 01-.118-.183.775.775 0 01.01-.488.467.467 0 01.153-.199.805.805 0 01.284-.131c.118-.032.264-.049.439-.049.153 0 .284.015.39.043.108.03.198.071.27.127a.628.628 0 01.178.209c.044.084.08.18.11.287l.46-.091a1.866 1.866 0 00-.126-.368.947.947 0 00-.244-.32 1.187 1.187 0 00-.415-.222 2.066 2.066 0 00-.634-.083c-.2 0-.385.021-.557.064-.17.043-.319.11-.444.199a.94.94 0 00-.407.795c0 .178.026.33.078.456.052.125.128.23.23.314.102.084.226.153.372.206.146.054.314.097.503.13l.482.085c.143.025.26.06.35.102a.67.67 0 01.215.15c.052.058.086.121.104.191a.874.874 0 01-.016.483.527.527 0 01-.144.22.737.737 0 01-.27.15 1.342 1.342 0 01-.421.057c-.335 0-.588-.06-.757-.18-.17-.12-.276-.314-.319-.582h-.492c.017.207.067.386.15.536.082.15.19.274.326.37.136.098.295.168.48.213.183.045.387.067.612.067zm4.443 0c.229 0 .427-.026.597-.078.17-.052.311-.126.426-.223a.891.891 0 00.254-.349c.055-.136.083-.286.083-.45a.902.902 0 00-.228-.615.989.989 0 00-.217-.183 1.118 1.118 0 00-.23-.11.876.876 0 00.4-.298c.108-.141.162-.33.162-.566 0-.147-.024-.284-.072-.41a.85.85 0 00-.225-.33 1.058 1.058 0 00-.388-.218 1.8 1.8 0 00-.562-.078c-.214 0-.4.027-.557.08a1.116 1.116 0 00-.39.22.869.869 0 00-.23.328c-.05.125-.076.261-.076.408 0 .236.056.427.166.572.111.145.245.248.402.308a1.27 1.27 0 00-.225.108.929.929 0 00-.217.18c-.066.073-.122.16-.168.26a.81.81 0 00-.07.344c0 .164.028.314.083.45.055.136.14.253.254.35.115.096.257.17.429.222.17.052.37.078.6.078zm0-2.185c-.278 0-.48-.055-.607-.166-.127-.111-.19-.278-.19-.5a.78.78 0 01.042-.257.554.554 0 01.14-.218.668.668 0 01.248-.147 1.11 1.11 0 01.367-.054c.143 0 .265.018.367.054a.689.689 0 01.249.145c.064.06.11.132.139.214a.78.78 0 01.043.258c0 .226-.064.394-.19.505-.127.11-.33.166-.608.166zm.005 1.799c-.31 0-.536-.066-.677-.196a.666.666 0 01-.211-.513c0-.1.015-.193.045-.28a.498.498 0 01.15-.217c.07-.059.16-.105.273-.14.113-.033.253-.05.42-.05.165 0 .303.016.415.048a.678.678 0 01.27.14.53.53 0 01.148.217.81.81 0 01.045.277c0 .214-.07.387-.208.518-.14.13-.363.196-.67.196zm3.186.386c.37 0 .666-.11.886-.327.219-.219.329-.54.329-.961 0-.161-.022-.314-.065-.46a1.054 1.054 0 00-.2-.38.934.934 0 00-.354-.258 1.293 1.293 0 00-.516-.094c-.171 0-.32.02-.444.062a1.243 1.243 0 00-.36.19l.103-1.154h1.622v-.424h-2.013l-.166 2.03h.407c.1-.108.21-.188.332-.24.12-.052.265-.078.433-.078.268 0 .46.075.576.223.116.149.174.345.174.588 0 .3-.067.52-.201.66s-.319.21-.554.21c-.254 0-.437-.051-.552-.153-.114-.102-.19-.262-.23-.48h-.46c.028.346.147.608.356.783.209.175.508.263.897.263zm3.169 0c.37 0 .666-.11.886-.327.219-.219.329-.54.329-.961 0-.161-.022-.314-.064-.46a1.054 1.054 0 00-.201-.38.934.934 0 00-.354-.258 1.293 1.293 0 00-.516-.094c-.171 0-.32.02-.444.062a1.243 1.243 0 00-.36.19l.103-1.154h1.622v-.424h-2.013l-.166 2.03h.407c.1-.108.21-.188.332-.24.121-.052.266-.078.433-.078.268 0 .46.075.576.223.116.149.174.345.174.588 0 .3-.067.52-.201.66s-.319.21-.554.21c-.253 0-.437-.051-.551-.153-.115-.102-.191-.262-.23-.48h-.461c.029.346.147.608.356.783.209.175.508.263.897.263zm3.169 0c.37 0 .666-.11.886-.327.219-.219.329-.54.329-.961 0-.161-.022-.314-.064-.46a1.054 1.054 0 00-.201-.38.934.934 0 00-.354-.258 1.293 1.293 0 00-.516-.094c-.171 0-.32.02-.444.062a1.243 1.243 0 00-.359.19l.102-1.154h1.622v-.424h-2.013l-.166 2.03h.407c.1-.108.21-.188.332-.24.121-.052.266-.078.433-.078.268 0 .46.075.576.223.116.149.174.345.174.588 0 .3-.067.52-.201.66s-.319.21-.554.21c-.253 0-.437-.051-.551-.153-.115-.102-.191-.262-.23-.48h-.461c.029.346.147.608.356.783.209.175.508.263.897.263zM590.885 31.394v-.715h.47a.814.814 0 00.289-.05.67.67 0 00.226-.138.608.608 0 00.147-.218.858.858 0 00.006-.573.615.615 0 00-.369-.375.898.898 0 00-.325-.054h-.842v2.123h.398zm.396-1.05h-.396v-.74h.381c.058 0 .11.007.158.019a.285.285 0 01.122.062c.033.03.06.07.078.118.02.049.029.11.029.184 0 .105-.031.191-.092.258-.062.066-.155.1-.28.1zm1.422 1.05v-.957h.91v.957h.398v-2.123h-.398v.796h-.91v-.796h-.399v2.123h.399zm1.915 0l.122-.411h.803l.122.411h.416l-.708-2.123h-.464l-.708 2.123h.417zm.818-.763h-.59l.292-.972h.006l.292.972zm1.558.817c.109 0 .219-.012.33-.036a.935.935 0 00.299-.118.61.61 0 00.299-.544.503.503 0 00-.189-.425.697.697 0 00-.195-.107 1.852 1.852 0 00-.229-.067l-.259-.057-.168-.04a.697.697 0 01-.14-.05.27.27 0 01-.095-.073.17.17 0 01-.034-.108c0-.076.038-.134.115-.175a.605.605 0 01.287-.061.67.67 0 01.337.08c.094.054.167.13.219.227l.33-.25a1.03 1.03 0 00-.388-.324 1.162 1.162 0 00-.791-.063.831.831 0 00-.263.123.652.652 0 00-.19.207.57.57 0 00-.072.292c0 .098.017.18.052.246a.496.496 0 00.14.167.757.757 0 00.202.11c.076.027.157.05.242.07l.235.054c.072.016.134.032.188.048.053.016.099.034.136.055a.24.24 0 01.085.073.182.182 0 01.028.105.197.197 0 01-.043.13.315.315 0 01-.108.083.543.543 0 01-.146.045.839.839 0 01-.513-.064.687.687 0 01-.278-.245l-.34.245c.05.073.11.138.18.194a1.118 1.118 0 00.475.225c.087.019.175.028.262.028zm2.78-.054v-.37h-1.177v-.548h1.011v-.352h-1.011v-.483h1.1v-.37h-1.499v2.123h1.577zM642.26 75.534v-3.407h-.439v3.407h.438zm1.174 0v-2.691l1.742 2.691h.419v-3.407h-.424v2.706l-1.727-2.706h-.433v3.407h.423zm4.116.086c.21 0 .392-.025.548-.076.155-.051.284-.121.387-.21a.874.874 0 00.234-.313.945.945 0 00.078-.384c0-.3-.082-.526-.247-.68-.165-.154-.424-.265-.776-.332l-.476-.086a1.766 1.766 0 01-.295-.078.58.58 0 01-.193-.115.387.387 0 01-.104-.162.69.69 0 01.01-.434.415.415 0 01.135-.177.716.716 0 01.252-.117c.105-.028.235-.043.39-.043.137 0 .252.013.348.038a.687.687 0 01.24.113c.065.049.117.11.157.186.04.074.072.16.097.255l.41-.081a1.658 1.658 0 00-.112-.327.842.842 0 00-.217-.284 1.055 1.055 0 00-.368-.198 1.837 1.837 0 00-.564-.074c-.178 0-.343.02-.495.057a1.152 1.152 0 00-.395.177.835.835 0 00-.362.706c0 .16.023.294.07.406a.706.706 0 00.204.279c.09.075.2.136.33.184.13.047.28.086.448.114l.428.076c.127.023.23.053.312.091.08.038.144.083.19.134.046.05.077.107.093.17a.777.777 0 01-.014.429.468.468 0 01-.129.195c-.06.056-.14.1-.24.134-.1.033-.225.05-.374.05-.298 0-.522-.053-.673-.16-.15-.106-.245-.279-.283-.518h-.438c.016.185.06.344.133.478.073.133.17.243.29.329.121.086.263.149.427.188.163.04.344.06.544.06zm2.29-.086v-1.322h.703c.248 0 .452-.028.614-.086a.979.979 0 00.386-.233.818.818 0 00.2-.344 1.457 1.457 0 00.002-.8.745.745 0 00-.195-.321.977.977 0 00-.386-.22 2.008 2.008 0 00-.62-.081h-1.138v3.407h.433zm.699-1.694h-.7V72.5h.695c.162 0 .296.013.402.04a.624.624 0 01.254.121.429.429 0 01.134.206.978.978 0 01.038.286c0 .105-.012.2-.036.284a.49.49 0 01-.126.217.58.58 0 01-.252.138 1.474 1.474 0 01-.41.048zm4.063 1.694l.072-.386h-1.851v-1.174h1.665v-.392h-1.665v-1.068h1.76v-.387h-2.198v3.407h2.217zm2.008.086c.216 0 .405-.03.569-.09.163-.061.302-.145.416-.254.114-.108.205-.236.271-.384.067-.148.11-.308.129-.48h-.452c-.02.122-.05.233-.09.335a.711.711 0 01-.44.432c-.11.04-.243.06-.398.06a.99.99 0 01-.454-.101.928.928 0 01-.334-.286 1.362 1.362 0 01-.207-.446 2.17 2.17 0 01-.07-.575c0-.21.023-.402.07-.575.048-.174.117-.322.207-.444a.96.96 0 01.334-.287.961.961 0 01.45-.102c.142 0 .263.018.363.055.1.036.186.09.257.16a.85.85 0 01.176.255c.046.1.083.212.112.336l.428-.071a2.026 2.026 0 00-.15-.454 1.106 1.106 0 00-.645-.582 1.624 1.624 0 00-.542-.08c-.216 0-.416.039-.602.118-.185.08-.346.196-.483.349a1.62 1.62 0 00-.319.563 2.355 2.355 0 00-.114.763c0 .283.036.536.107.757.072.22.172.408.302.56.13.153.29.27.476.349.187.08.398.119.633.119zm3.255-.086v-3.016h1.123v-.391h-2.689v.391h1.123v3.016h.443zm2.022 0v-3.407h-.438v3.407h.438zm2.198.086c.235 0 .449-.04.64-.12.192-.079.357-.195.493-.348.136-.152.242-.34.316-.565.075-.224.112-.48.112-.766 0-.286-.038-.54-.114-.761a1.597 1.597 0 00-.319-.558 1.327 1.327 0 00-.492-.344 1.673 1.673 0 00-.636-.117c-.228 0-.438.04-.63.12a1.36 1.36 0 00-.495.348c-.138.152-.246.34-.323.563a2.311 2.311 0 00-.117.763c0 .287.038.541.114.764.076.222.183.41.321.56.138.152.303.266.495.344.192.078.404.117.635.117zm0-.382c-.187 0-.35-.033-.487-.1a.935.935 0 01-.345-.284 1.274 1.274 0 01-.207-.444 2.261 2.261 0 01-.07-.58c0-.21.024-.401.07-.574.046-.174.116-.323.21-.447a.946.946 0 01.346-.286c.138-.067.3-.1.483-.1.181 0 .34.033.476.1a.951.951 0 01.345.286c.094.124.164.273.212.447.048.173.071.365.071.575 0 .213-.023.406-.071.58a1.306 1.306 0 01-.21.443.935.935 0 01-.344.284c-.138.067-.298.1-.479.1zm2.618.296v-2.691l1.741 2.691h.419v-3.407h-.424v2.706l-1.727-2.706h-.433v3.407h.424zM644.285 69.72c.35 0 .665-.048.945-.142.28-.095.516-.245.708-.451.191-.206.339-.467.441-.781.103-.315.154-.695.154-1.14v-3.6h-.766v3.6c0 .612-.11 1.073-.333 1.382-.222.309-.602.464-1.14.464-.534 0-.915-.154-1.146-.46-.23-.306-.345-.768-.345-1.386v-3.6h-.766v3.567c0 .896.195 1.544.587 1.945.391.401.945.602 1.661.602zm6.056-.15V67.33l.983-.985 2.015 3.223h.882l-2.34-3.733 2.124-2.23h-.874l-2.79 2.857v-2.856h-.774v5.962h.774zm6.864 0l.624-1.663h2.549l.624 1.662h.833l-2.307-5.962h-.808l-2.314 5.962h.799zm2.94-2.33h-2.082l1.032-2.765 1.05 2.764zm6.205 2.48c.367 0 .686-.045.958-.134.272-.09.498-.212.679-.367.18-.156.316-.339.408-.547.091-.21.137-.433.137-.673 0-.523-.144-.92-.433-1.19-.289-.27-.741-.463-1.357-.58l-.833-.15a3.091 3.091 0 01-.516-.138 1.014 1.014 0 01-.337-.2.677.677 0 01-.184-.284 1.206 1.206 0 01.017-.76.726.726 0 01.237-.31c.111-.086.258-.154.442-.204.183-.05.41-.075.682-.075.24 0 .442.022.608.067.167.044.307.11.42.196a.978.978 0 01.276.326c.07.13.126.28.17.446l.717-.142a2.902 2.902 0 00-.196-.572 1.473 1.473 0 00-.38-.497 1.847 1.847 0 00-.644-.346c-.264-.086-.593-.13-.987-.13-.311 0-.6.034-.866.1-.267.068-.497.17-.691.31a1.461 1.461 0 00-.633 1.236c0 .278.04.515.12.71.081.194.2.357.359.488.158.13.35.238.578.321.228.084.489.15.783.2l.75.134c.222.04.403.092.545.16.142.066.253.144.333.233.08.089.135.188.162.296a1.36 1.36 0 01-.025.752.819.819 0 01-.224.342 1.146 1.146 0 01-.42.234 2.087 2.087 0 01-.655.088c-.521 0-.914-.093-1.178-.28-.264-.186-.429-.488-.495-.906h-.766c.027.323.105.601.233.835.127.234.297.426.508.576.21.15.46.26.745.33.286.07.604.105.953.105z" fill-rule="nonzero"/><path d="M217.975 0l.017 39.97v1.314l.001.653v1.944l.001.642v1.909l.001.63v2.485l.001.306v2.718l.001.592v2.9l.001.567v3.832l.001.527v16.926l-.001.195v.835l-.001.138v.457l-.001.089v.254l-.001.02v.068c-.002.003-.63.006-1.789.01h-.384l-1.613.003h-.535l-.862.002h-.614l-.977.002h-.688l-.355.001h-.73l-.187.001h-.961l-.197.001h-1.011l-.207.001h-1.059l-.434.001h-.887l-.452.001h-1.393l-.475.001h-1.459l-.497.001-2.04.001h-2.659l-.272.001-3.637.001h-.286l-6.846.001h-5L141 79.998V14.99l.192-.258c.107-.143.203-.267.216-.28.013-.01.334-.424.713-.916A707.657 707.657 0 01144.08 11l.982-1.276.263-.342 1.159-1.498.056-.07c.114-.145.374-.48.644-.829l.202-.262.098-.128 1.069-1.384a2471.4 2471.4 0 001.655-2.144c.365-.474 1.872-2.419 2.147-2.772l.03-.04.201-.255h65.389zm-3.05 71.898h-.444c-.237.002-.248.014-.27.103-.01.042-.018.336-.02.72v1.006c-.002.47-.019.484-.09.542-.264.212-.635.293-.847.184a.67.67 0 01-.183-.164c-.076-.102-.085-.169-.103-1.065l-.004-.178-.021-1.128-.336-.012c-.268-.01-.34 0-.36.048-.007.02-.012.207-.013.482v.254l.002.212.002.225.013 1.113.132.264c.303.606.984.751 1.594.34a6.24 6.24 0 01.258-.17c.014-.006.037.047.05.117.038.186.081.231.292.239l.087.001h.26v-3.133zm-21.215-.938h-.22c-.128 0-.236.022-.26.052-.022.029-.078.243-.124.475-.046.233-.107.438-.136.456a.716.716 0 01-.184.048l-.065.01-.196.025v.17c0 .19.042.256.198.27l.074.002h.17l.015 1.008c.016 1.113.034 1.205.273 1.406.315.264.875.246 1.302-.043.042-.029.025-.083-.077-.246-.145-.233-.137-.227-.25-.166-.143.077-.368.054-.448-.047-.056-.07-.069-.159-.071-.711l-.001-1.2h.816v-.532h-.816v-.977zm-25.749.95c-.583.166-.878.64-.73 1.17.08.283.412.525.92.67.467.134.63.3.543.552-.095.274-.59.333-.997.119-.14-.074-.264-.113-.31-.098-.035.012-.09.073-.136.149l-.032.059-.09.182.102.078c.277.214.897.332 1.294.247.578-.124.95-.633.85-1.162-.057-.3-.369-.537-.94-.712-.357-.11-.552-.25-.552-.401 0-.351.463-.47.964-.247.194.086.28.078.374-.059l.04-.066.087-.155-.12-.09a1.863 1.863 0 00-.311-.17c-.24-.103-.711-.135-.956-.065zm4.879.446c-.326.363-.45.923-.33 1.489.111.527.37.873.81 1.08.512.242 1.257.16 1.695-.167l.103-.088.113-.108-.115-.15a.73.73 0 00-.17-.172c-.032-.013-.18.037-.327.11-.234.117-.311.134-.58.134-.267 0-.33-.014-.475-.11-.253-.168-.48-.718-.334-.808.029-.018.408-.032.87-.033h.452c.504-.003.657-.017.682-.053.047-.067.014-.574-.051-.775-.088-.273-.321-.532-.609-.675a1.436 1.436 0 00-1.734.326zm-20.013-1.396h-.194c-.109 0-.222.023-.258.052-.04.033-.09.208-.13.46-.067.409-.092.474-.304.514l-.07.012-.182.028v.198c0 .194.024.236.21.243l.077.001h.16v1.137c.003.495.02.871.044.957.099.35.453.543.912.495.217-.023.571-.159.621-.24.023-.036-.167-.374-.233-.414-.021-.013-.078-.003-.124.022-.128.068-.36.057-.44-.022-.052-.052-.065-.181-.076-.839l-.003-.161-.014-.935h1.477v2.563h.734l-.023-3.07-1.08-.022-1.08-.021-.024-.958zm53.42 1.353a1.365 1.365 0 00-.392.81c-.055.35.006.853.134 1.117.299.614.959.923 1.697.795.26-.045.574-.178.748-.31l.074-.066.095-.101-.315-.353-.283.137c-.568.272-1.047.195-1.295-.21-.137-.225-.19-.515-.104-.57.027-.018.41-.032.879-.035H208.595l.027-.144c.032-.173-.045-.636-.135-.81a1.181 1.181 0 00-.556-.552 1.449 1.449 0 00-1.684.292zm-49.729-.42c-.656.124-1.023.774-.739 1.312.115.218.413.41.825.53.155.045.353.127.437.181.128.083.154.122.154.239 0 .194-.035.262-.168.33-.2.105-.559.077-.843-.065-.259-.129-.35-.128-.456.048l-.04.075-.083.158.105.083c.298.235.925.343 1.352.233.443-.113.7-.355.787-.742.126-.557-.142-.878-.926-1.11-.373-.111-.544-.247-.544-.433 0-.288.38-.413.796-.264.375.135.404.148.514.002l.035-.048.127-.175-.093-.072a2.272 2.272 0 00-.31-.175c-.235-.112-.65-.16-.93-.107zm13.829.132a.888.888 0 00-.49.94c.056.364.365.615.983.798.459.136.61.298.508.543-.111.27-.597.324-1.001.111-.245-.128-.338-.126-.455.054l-.046.075-.09.16.156.096c.299.187.54.252.928.252.334 0 .395-.012.637-.132.38-.186.568-.476.568-.876 0-.417-.28-.675-.956-.882-.358-.11-.552-.25-.552-.401 0-.351.463-.469.964-.246.217.097.29.078.413-.11.118-.18.1-.208-.25-.38a1.478 1.478 0 00-1.317-.002zm6.244-.143c-.404.102-.648.28-.782.574-.217.474-.05.885.46 1.129.155.074.348.149.427.165.33.068.532.225.532.413 0 .186-.036.254-.167.322-.2.103-.556.076-.843-.063-.26-.126-.33-.129-.447.052l-.046.076-.09.155.151.096c.3.188.54.253.93.251.31-.001.404-.018.594-.106.291-.135.472-.327.549-.582.183-.611-.06-.936-.9-1.202-.36-.115-.547-.252-.547-.403 0-.349.462-.465.964-.243.197.088.28.081.374-.058l.041-.067.09-.16-.123-.087a2.085 2.085 0 00-.305-.167c-.178-.08-.699-.136-.862-.095zm9.842.466c-.36.398-.476.97-.32 1.578.13.512.369.809.82 1.022.199.093.279.106.656.104.4-.001.448-.01.714-.135a2.42 2.42 0 00.347-.2l.05-.039.11-.104-.11-.156a.688.688 0 00-.167-.178c-.031-.013-.177.036-.325.108-.54.265-1.04.182-1.283-.213a1.187 1.187 0 01-.118-.282l-.019-.088-.025-.188.138-.023c.045-.008.226-.013.467-.016h.539c.73.007.875-.001.91-.052.022-.034.032-.188.02-.355-.034-.535-.288-.935-.714-1.126a1.457 1.457 0 00-1.69.343zm-7.503-.365c-.571.294-.737.963-.342 1.38.147.156.33.25.75.387s.54.228.54.409a.728.728 0 01-.026.201c-.043.11-.242.183-.499.183a.867.867 0 01-.478-.124c-.248-.13-.332-.13-.452.05l-.046.077-.092.16.155.102c.274.18.494.24.906.243.338.003.417-.01.613-.103.304-.142.48-.333.558-.603.17-.587-.087-.925-.903-1.183-.362-.114-.552-.253-.552-.403 0-.348.497-.473.956-.24.18.09.285.077.383-.061l.041-.067.089-.16-.12-.087a1.997 1.997 0 00-.3-.165c-.315-.139-.909-.137-1.181.004zm24.12-.089l-.672.024-.042 2.276-.175.132a.795.795 0 01-.703.14c-.279-.084-.299-.114-.321-1.224l-.004-.185-.021-1.14-.328-.011c-.18-.006-.341 0-.356.015-.017.018-.026.357-.028.775v.371c.002.57.015 1.154.038 1.235.069.248.268.514.476.636.174.103.237.116.524.113.35-.003.533-.07.793-.287.138-.115.21-.101.21.042 0 .164.124.234.392.219.132-.007.233-.027.227-.044a25.066 25.066 0 01-.008-.785v-.29l-.001-2.012zm6.998-.008c-.295.067-.878.368-.878.454 0 .093.14.3.23.342.085.039.14.026.36-.085.602-.304 1.029-.168 1.08.326l.005.104v.201l-.377.05c-.59.076-.857.157-1.076.324-.264.203-.35.327-.374.549-.03.271.019.457.161.62.2.23.33.28.726.28.369 0 .54-.06.85-.293.11-.083.144-.092.173-.047.02.031.037.076.037.101 0 .024.04.085.084.132.051.054.104.077.202.084l.083.003h.202v-1.33c-.002-1.134-.033-1.232-.33-1.525a.916.916 0 00-.408-.254 1.88 1.88 0 00-.75-.036zm-64.622-1.251h-1.08v4.404l1.048-.016c1.038-.015 1.053-.016 1.321-.128.517-.213.793-.562.84-1.062.02-.217.007-.29-.08-.48-.113-.246-.266-.383-.58-.52-.203-.088-.205-.09-.106-.133.19-.082.452-.32.54-.492.172-.333.095-.884-.158-1.143-.187-.192-.386-.288-.759-.366-.176-.037-.41-.056-.806-.062l-.18-.002zm13.77-.121h-.735v4.517h.735v-2.3l.207-.14c.183-.125.24-.142.465-.142.198 0 .277.018.35.082.175.155.2.258.201 1.23v1.274l.712-.023.012-.977c.016-1.268-.034-1.566-.313-1.865-.192-.207-.399-.287-.74-.287-.32 0-.455.046-.723.245a.75.75 0 01-.15.096c-.01 0-.02-.313-.021-.717v-.993zm31.122 1.625c-.167.134-.24.134-.24 0 0-.044-.038-.115-.084-.161-.057-.057-.107-.076-.232-.075l-.085.003-.233.012-.02 3.113h.735v-1.607c.003-.654.016-.671.093-.74.21-.184.33-.232.59-.234.2 0 .25.006.339.085l.048.046.134.131.024 2.323.71-.023v-1.327c0-.822-.013-.993-.072-1.159a1.058 1.058 0 00-.495-.56c-.361-.172-.873-.098-1.212.173zm-25.461-1.503c-.187 0-.35.009-.4.022l-.014.007-.033.079c-.088.215-.341.859-.75 1.906a3173.177 3173.177 0 01-.732 1.871 9.41 9.41 0 00-.185.489c0 .012.15.021.336.021.257 0 .356-.016.422-.07.04-.033.132-.219.22-.437l.042-.111.177-.48h1.814l.08.214.171.465c.143.39.184.42.596.42.342 0 .35-.003.321-.094a1.658 1.658 0 00-.025-.075l-.023-.062-.04-.103c-.069-.182-.189-.491-.398-1.028l-.285-.733-.304-.773-.302-.775-.051-.13-.241-.621-.396-.002zm17.193 1.465c-.187.142-.221.155-.24.092-.076-.244-.131-.3-.37-.293l-.097.005-.18.013-.022 3.113h.738v-2.31l.169-.137c.147-.117.2-.135.406-.135.202 0 .252.015.342.104a.631.631 0 01.142.264c.018.08.034.527.038 1.033v.154l.002 1.027h.696v-1.245c.001-.78.013-.916.071-1.03.216-.424.818-.426.97-.005.032.092.049.405.054 1.033v.179l.005 1.068h.699l-.014-1.231c-.013-1.17-.018-1.239-.1-1.394-.2-.37-.473-.523-.931-.523-.393 0-.582.081-.825.356-.175.198-.217.222-.217.124 0-.109-.322-.42-.481-.464-.315-.088-.546-.034-.855.202zm-31.628-.207v3.137h.735l-.02-3.113-.715-.024zm54.68-.007c-.118.023-.41.279-.486.426-.08.154-.123.12-.148-.116-.025-.223-.088-.292-.306-.294l-.09.003-.225.012-.023 3.113h.738v-1.977l.118-.186c.15-.238.372-.334.675-.295.124.015.224.01.239-.014.014-.022.037-.17.052-.33.027-.286.027-.288-.085-.33a.932.932 0 00-.459-.012zm-55.764.05a.981.981 0 00-.257.196l-.079.089-.165.207-.047-.225c-.05-.239-.106-.302-.328-.301l-.091.003-.214.012-.02 3.113h.735v-1.305c.002-.656.013-.684.101-.831.144-.243.392-.36.688-.323.124.016.231.011.244-.01.013-.022.037-.166.053-.317.026-.244.02-.283-.045-.331-.107-.078-.377-.068-.575.023zm47.31-1.307v4.401h1.124c.802-.005 1.028-.041 1.382-.199.398-.177.676-.63.676-1.104 0-.371-.158-.627-.506-.814l-.124-.06-.24-.107.174-.085c.406-.199.603-.55.56-1-.042-.458-.292-.755-.766-.913-.217-.072-.358-.087-1.092-.1l-.18-.003-1.009-.016zm14.197 3.06v.372c-.003.188-.022.208-.152.314-.195.16-.532.237-.753.171-.173-.051-.237-.14-.237-.326 0-.268.155-.393.586-.471.128-.024.274-.044.365-.053l.057-.004.134-.003zm-65.202-.613c.754 0 1.03.12 1.11.485a.67.67 0 01-.348.771c-.171.09-1.195.126-1.249.043-.037-.057-.046-1.21-.01-1.268.01-.017.233-.031.497-.031zm51.774-.008l.563.015c.672.019.89.09 1.004.33.157.334.046.719-.258.887-.153.085-.21.1-.594.102h-.692l-.012-.667-.011-.667zm-32.552-1.59c.044.05.652 1.78.652 1.858 0 .053-.063.064-.52.065h-.276c-.393-.002-.52-.015-.533-.052-.01-.029.094-.362.232-.742.122-.338.246-.693.296-.846l.014-.048.02-.066.038-.112c.01-.03.02-.051.024-.059.013-.02.034-.019.053.002zm9.668 1.249c.035.073.065.162.077.227l.007.056v.109h-1.438l.028-.113c.059-.24.201-.435.388-.529.361-.183.783-.07.938.25zm13.372-.234c.137.1.221.212.262.348l.023.107.022.17h-1.45l.029-.112c.073-.295.228-.493.45-.574.182-.067.535-.035.664.06zm19.39-.095l.072.003c.29.015.51.186.586.445l.02.102.024.17h-.86c-.436-.002-.578-.015-.578-.05 0-.028.044-.143.098-.26.095-.201.248-.35.411-.395a.775.775 0 01.155-.014h.071zm-9.874-1.16l.54.015c.649.017.769.064.893.346.15.337.049.67-.256.85-.1.059-.2.078-.524.09l-.133.004-.52.013V71.24zm-51.743.015c.59.016.76.071.889.287.1.171.098.512-.005.69-.124.215-.294.286-.765.298l-.15.001h-.509l-.012-.59-.002-.12v-.313a1.36 1.36 0 01.012-.212c.017-.044.13-.053.542-.041zm4.923-.683a.406.406 0 00-.26.397c0 .205.063.332.21.418a.463.463 0 00.687-.391c0-.12-.03-.187-.131-.295-.154-.163-.327-.207-.506-.13zm3.645.44c.017.433.595.589.823.22.156-.251.078-.526-.19-.67-.284-.153-.646.104-.633.45zm61.046-47.278c-.023 0-.155.171-.293.377-.264.392-.535.79-1.062 1.558-.432.63-.87 1.272-1.418 2.078a726.645 726.645 0 01-1.651 2.42l-.675.99-.316.462-.792 1.157c-.16.235-.51.747-.775 1.138a857.289 857.289 0 01-1.889 2.769l-.821 1.2c-.217.314-.566.826-.78 1.14a633.78 633.78 0 01-1.054 1.547 4990.634 4990.634 0 00-2.475 3.625 659.423 659.423 0 01-2.198 3.219c-.146.21-.698 1.017-1.224 1.789-.525.772-1.372 2.01-1.876 2.747-.505.737-1.075 1.572-1.265 1.853-.19.282-.638.939-.995 1.458-.646.943-1.204 1.76-2.016 2.959a160.155 160.155 0 01-1.09 1.589l-.12.176a988.088 988.088 0 01-2.001 2.927l-1.5 2.198c-.241.353-.437.658-.437.68 0 .022 1.38.034 4.16.038h.909l.16.001h1.553l6.782-.002.605-.903c.56-.836.765-1.14 1.827-2.695l.793-1.16a3681.431 3681.431 0 002.978-4.356 502.658 502.658 0 011.263-1.853l.612-.896 1.065-1.558.228-.334 1.432-2.095.777-1.14a483.81 483.81 0 011.504-2.205 1009.897 1009.897 0 001.206-1.766l.298-.433.208-.301.112-.162.268-.387.012-9.924.001-1.183.001-1.11v-2.602-1.103c-.004-2.59-.014-3.927-.031-3.927zm-59.936 5.426H149.6l-1.107.001h-.765l-.706.002h-.435a147.64 147.64 0 00-2.583.015c-.007.007-.013 1.703-.018 4.46l-.001.546-.002 1.475v.632l-.001.161v.827l-.001.169v.864l-.001.177v1.267l-.001.186v1.714l-.001.195v20.359h25.294l-.01-16.52-.01-16.52-12.61-.01h-1.285zm-3.298 29.78c.155.062.165.076.142.19-.03.148-.106.236-.134.156-.038-.103-.19-.213-.296-.213-.159 0-.287.107-.287.24 0 .136.101.236.396.394.284.15.367.233.421.417a.529.529 0 010 .325c-.082.303-.34.465-.735.464-.392-.002-.503-.08-.42-.32l.028-.07.053-.124.07.132c.092.178.327.25.51.155.155-.08.203-.229.115-.36-.034-.052-.178-.156-.321-.232-.276-.146-.39-.247-.449-.4a.603.603 0 01.3-.736.666.666 0 01.607-.018zm3.151.026c.096.062.101.08.06.2-.06.178-.06.178-.191.035-.082-.09-.156-.128-.246-.128-.14 0-.287.123-.287.24 0 .082.148.291.206.291.097 0 .532.302.586.407a.601.601 0 01-.276.808c-.206.105-.571.126-.769.043-.107-.044-.114-.06-.09-.196.044-.244.09-.271.18-.104.124.231.542.213.626-.027.054-.154-.048-.293-.312-.425-.272-.136-.468-.322-.502-.475-.06-.271.105-.589.366-.707.16-.072.513-.051.65.038zm6.861.099c-.008.022-.02.06-.03.098l-.026.095c-.01.035-.021.06-.027.06a.942.942 0 01-.134-.121c-.149-.149-.287-.158-.439-.03-.098.083-.107.111-.072.216.03.09.119.164.352.294.377.211.486.347.486.606 0 .24-.172.5-.377.571-.175.06-.568.065-.715.01-.102-.04-.107-.054-.083-.232.027-.198.064-.27.095-.183.01.03.06.101.11.16.184.212.597.108.597-.152 0-.127-.11-.232-.405-.389a1.297 1.297 0 01-.32-.237c-.092-.109-.101-.151-.086-.384.017-.244.028-.27.173-.396a.767.767 0 01.245-.15c.295-.059.703.044.656.164zm-3.772-.155v.28l-.305-.022c-.3-.021-.305-.02-.33.077-.01.042-.016.127-.015.214l.003.087.014.201.316-.015.317-.016v.252h-.657l.024.675.633-.02v.146c0 .116-.013.14-.066.12a2.897 2.897 0 00-.439-.024h-.598v-1.955h1.103zm.595 0c.09 0 .132.066.411.651.17.357.325.652.342.652.017 0 .174-.287.35-.64.264-.531.335-.642.416-.653.054-.008.111 0 .13.019.018.018.072.39.12.828.043.39.09.768.113.906l.008.04.033.151h-.51l-.03-.457c-.028-.423-.087-.887-.1-.78-.003.04-.19.436-.355.772l-.117.235c-.071.14-.125.24-.135.246-.07.043-.13-.05-.4-.617-.152-.318-.29-.564-.308-.547-.014.015-.037.197-.052.422l-.014.23c-.031.492-.057.53-.21.507a.364.364 0 01-.124-.03c0-.007.028-.148.06-.31.033-.164.097-.58.14-.921.044-.341.091-.641.105-.663.014-.022.072-.041.127-.041zm-4.958 0c.066 0 .12.02.12.045 0 .02-.096.211-.22.44l-.056.1-.276.497v.88l-.474.015.02-.814-.294-.554c-.162-.307-.282-.565-.268-.578a.557.557 0 01.176-.022l.071-.001h.222l.204.405c.12.24.22.395.246.38.024-.014.126-.2.226-.41.167-.352.192-.383.303-.383zm1.589 0l1.445.023v.244h-.49v1.691l-.466-.004v-1.718l-.49.05v-.286zm1.263-2.529c.221.07.225.073.22.224a.46.46 0 01-.03.176c-.013.013-.09-.034-.167-.102-.302-.262-.757-.189-.988.16-.097.147-.118.225-.131.493-.014.287-.005.336.094.504.165.28.496.409.78.301.097-.037.108-.04.094-.27l-.006-.097-.022-.326h.443v.81l-.383.069c-.322.057-.42.06-.623.018-.583-.12-.87-.434-.87-.951 0-.539.26-.88.777-1.02a1.37 1.37 0 01.812.011zm-9.388-.026c.11.003.134.04.428.657.208.438.324.64.351.613.023-.023.18-.32.346-.658.29-.585.31-.615.414-.603.138.016.16.072.194.491.015.178.064.572.109.87.034.224.063.423.075.512l.007.049c0 .006-.07.012-.165.014l-.076.001h-.241l-.053-.572-.01-.115-.024-.207c-.02-.155-.037-.261-.047-.267-.016-.01-.16.258-.32.595-.174.365-.313.607-.343.6-.024-.007-.152-.23-.296-.514l-.055-.11-.1-.2c-.236-.47-.255-.433-.288.157l-.006.118-.028.507-.138.016c-.097.01-.138-.002-.138-.043 0-.06.239-1.679.27-1.826.013-.068.045-.088.134-.085zm17.07-.012l-.026.522c-.011.23-.02.56-.024.817l-.001.175v.471l-.136-.023c-.105-.018-.205-.103-.438-.37a17.17 17.17 0 00-.492-.538l-.11-.114-.3-.304.026 1.322h-.291l.031-.294c.015-.143.028-.495.032-.832l.001-.144.002-.68.12.003c.138.004.188.042.709.619l.11.122.51.566.04-1.295.118-.011.118-.012zm-10.191.01l.034.002c.101.01.128.042.211.256.053.134.169.438.259.674.09.237.22.555.29.706.069.151.125.288.125.302 0 .015-.116.025-.256.022-.214-.005-.259-.019-.27-.082a1.995 1.995 0 00-.069-.218l-.108-.284h-.63l-.09.285c-.09.28-.095.285-.232.285-.077 0-.14-.011-.14-.025 0-.014.046-.13.1-.254.113-.262.354-.841.556-1.342.102-.25.131-.315.192-.326l.028-.002zm-3.595.614c.132.342.303.764.378.939.076.174.138.335.138.356 0 .022-.108.04-.245.04-.233 0-.246-.006-.271-.113a2.044 2.044 0 00-.071-.21l-.03-.075-.074-.173h-.61l-.08.214a7.279 7.279 0 00-.105.296c-.016.055-.039.074-.107.072l-.06-.004-.142-.016.065-.147c.095-.214.373-.88.505-1.21.063-.155.144-.352.18-.436.054-.124.087-.153.177-.153.105 0 .123.031.352.62zm7.296-.604l.54.003v.245l-.633-.027.023.593.306.002c.269.001.3.002.314.08l.004.034.014.113h-.66l.022.67.638-.023-.027.26-.53-.004-.501-.004-.05-.001c-.005 0-.009-.237-.01-.545l-.001-.559c0-.368.004-.713.01-.818 0-.01.139-.017.332-.02h.21zm6.722 0l1.469.003v.26l-.245-.023-.245-.023-.02 1.733h-.45V56.61l-.509.007v-.255zm-5.554-.004c.07-.007.135.099.398.641.173.357.326.65.34.65.014 0 .162-.28.329-.62.166-.342.306-.626.31-.633.016-.03.206-.043.245-.017.024.016.084.405.134.863.04.366.08.711.101.865l.012.077c.02.107.017.109-.212.122-.132.008-.238-.004-.245-.027a11.14 11.14 0 01-.051-.525l-.01-.123-.051-.606-.156.321-.305.64c-.226.48-.216.489-.734-.612-.066-.14-.13-.253-.146-.254-.015-.001-.04.178-.054.395-.015.217-.04.49-.057.601-.028.198-.032.203-.15.19a.518.518 0 01-.135-.027c-.009-.008.023-.223.07-.475.047-.252.107-.665.134-.91.027-.247.071-.465.099-.488a.291.291 0 01.134-.048zm2.602.003h.108l.54.004v.245l-.633-.027v.424c.002.16.032.165.275.158l.102-.003.237-.006v.249h-.614v.697l.633-.027v.113a.222.222 0 01-.019.103l-.012.01h-1.072l.007-.968c.005-.531.01-.97.012-.971l.012-.001h.424zm-10.124-.007c.114 0 .167.029.27.15.07.082.293.327.497.548.179.193.357.39.43.478l.025.03.085.108.04-1.303h.121c.113 0 .123.012.119.144-.002.07-.008.421-.013.817l-.003.15-.011.824h-.134c-.117 0-.174-.044-.43-.335a32.824 32.824 0 00-.484-.536l-.11-.118-.3-.317V58.3h-.295l.026-.188c.012-.091.022-.45.025-.83v-.928h.142zm-1.404.632c-.032-.034-.249.504-.221.55.01.018.107.031.22.031.234 0 .241-.019.117-.333a1.47 1.47 0 00-.116-.248zm3.966-.05l-.05.123c-.036.089-.071.181-.1.261l-.046.138a.374.374 0 00-.018.074c0 .02.103.035.228.035.221 0 .226-.002.202-.1a2.25 2.25 0 00-.089-.243l-.032-.073-.095-.216zm-2.214-5.254l-.022.957a46.54 46.54 0 01-.04 1.249c-.022.333-.165.761-.323.97-.496.649-2.04.616-2.526-.055-.23-.316-.244-.354-.258-1.59l-.003-.205-.015-1.326.42.001.42.002v1.824c.002.776.016.815.097.976.054.108.161.242.243.304.125.095.192.113.472.126.567.026.732-.073.917-.55.102-.262.108-.282.112-1.279v-.199l.004-1.198.25-.004.252-.003zm11.504-.096c.175-.003.641.11.754.183.094.062.105.09.082.215-.035.186-.129.411-.171.411-.02 0-.07-.066-.115-.147-.108-.2-.282-.299-.526-.299-.381 0-.617.272-.512.59.062.187.216.31.671.534.21.103.442.237.517.298.344.283.45.87.232 1.284-.14.268-.283.398-.586.539-.193.089-.268.109-.542.112h-.13c-.357 0-.462-.015-.641-.094-.179-.08-.21-.11-.194-.182l.073-.332c.063-.29.148-.337.226-.124.084.232.295.362.614.38.229.013.289.001.412-.081.28-.19.292-.564.027-.796a3.159 3.159 0 00-.494-.296c-.676-.339-.862-.595-.835-1.15.013-.248.037-.337.138-.5.152-.246.375-.406.674-.484.124-.032.27-.06.326-.06zm-4.112.078l.215.002.161.436c.09.24.204.531.257.648a1.77 1.77 0 01.101.259l.045.12c.111.29.381.962.557 1.388l.101.24c.014.033.025.06.035.08.181.409.212.41-.198.408h-.542l-.122-.376a11.958 11.958 0 00-.166-.476l-.02-.054-.065-.153h-1.173l-.103.297c-.043.122-.097.287-.137.416l-.034.113-.068.233h-.233c-.25 0-.312-.024-.255-.097l.016-.027c.026-.052.074-.163.12-.281.056-.146.19-.468.294-.712.267-.624.62-1.485.78-1.896l.175-.457c.04-.104.06-.113.259-.11zm-2.862.033c0 .009-.14.165-.313.347-.137.146-.354.385-.532.586l-.124.141-.344.396.417.622c.23.341.535.791.676.996.142.206.259.394.259.417 0 .025-.122.039-.353.042h-.564l-.224-.354c-.098-.157-.261-.413-.4-.63l-.099-.153-.276-.429-.004.204v.783l.004.58h-.839v-3.56h.835l.024 1.563.309-.374c.136-.166.343-.422.51-.634l.436-.555.3-.002c.168 0 .302.005.302.014zm2.658 1.004l-.065.153c-.035.086-.093.221-.13.307-.036.084-.099.244-.14.356-.04.113-.086.235-.103.274-.023.057.004.068.312.07h.205a2.85 2.85 0 00.364-.014 14.78 14.78 0 00-.335-.9l-.027-.062-.081-.184zm3.984-16.812c.014.015.027.085.03.155l.031 1.741.003.184.031 1.797-1.095 1.623c-.603.892-1.464 2.17-1.913 2.836-1.235 1.834-3.012 4.47-3.642 5.402-.31.457-.58.836-.604.844-.008.003-.034-.016-.092-.072l-.056-.057c-.25-.255-.871-.944-2.317-2.562l-.193-.216-1.03-1.152.001-2.797v-.409c.005-1.126.018-1.966.035-1.966.019 0 .31.36.643.798.334.44.981 1.288 1.438 1.885.456.597.988 1.3 1.183 1.56.193.26.364.477.377.478.017.003.511-.685.894-1.243.034-.05.32-.454.633-.896l1.031-1.458c.942-1.338 4.09-5.803 4.303-6.103.157-.22.295-.387.31-.372zm-6.44-5.56c.179 0 .326.008.326.017 0 .01-.036.1-.08.196-.114.252-.107.29.05.257a.473.473 0 00.17-.064c.112-.105.148-.034.148.288 0 .178-.014.325-.031.324a.545.545 0 01-.134-.06.486.486 0 00-.193-.06c-.078-.002-.086.013-.066.13.038.213.13.381.26.477.343.25.386.846.082 1.121-.105.095-.106.13-.004.156.064.017.079.048.068.145-.017.153.007.198.122.185l.055-.009.14-.028-.105-.07c-.137-.09-.175-.21-.114-.357a.317.317 0 01.386-.163c.179.067.242.314.116.454-.093.103-.007.098.234-.013.17-.079.177-.087.097-.124-.187-.086-.214-.383-.047-.5.094-.066.263-.08.338-.03.087.057.148.225.124.341-.027.131-.003.138.218.06.117-.042.132-.059.082-.088-.08-.046-.16-.193-.16-.294 0-.22.358-.34.51-.17a.32.32 0 01.004.4c-.068.074-.063.077.135.092.195.015.255-.01.164-.066-.066-.041-.046-.248.033-.34.115-.137.264-.15.398-.035.082.07.112.131.11.224-.004.139-.023.191-.11.238l-.062.028-.117.048.358.167-.022-.109a.287.287 0 01.399-.322c.236.098.213.495-.032.549l-.15.033c-.014.003.019.05.076.111l.047.048.156.151.009-.128c.012-.172.1-.252.274-.252.173 0 .255.07.29.248.02.105.006.147-.079.233-.11.113-.263.138-.343.058-.083-.083-.079-.02.016.21.06.143.094.19.094.131.004-.224.327-.339.492-.174.233.233-.046.606-.315.484l-.058-.033-.116-.087.004.278c.003.228.01.258.043.168.053-.145.248-.217.396-.146.234.113.202.45-.05.537-.144.05-.317-.038-.355-.181-.03-.111-.032-.109-.13.213-.06.19-.06.19.026.13.307-.214.663.236.369.467a.407.407 0 01-.165.085c-.045 0-.048.02-.012.097.038.083.005.198-.227.784a37.6 37.6 0 01-.345.849c-.148.33-.177.466-.129.6.068.19.056.226-.093.28a.288.288 0 00-.173.143l-.027.06-.06.154-.261-.085a11.353 11.353 0 00-1.484-.363c-.464-.083-.657-.095-1.57-.093-.882.001-1.12.015-1.55.09-.476.082-.831.162-1.208.274l-.23.07-.319.103-.058-.138a.403.403 0 00-.202-.206c-.159-.075-.168-.102-.1-.296.038-.11.032-.167-.038-.341-.634-1.584-.703-1.763-.674-1.86l.01-.025c.036-.077.033-.097-.012-.097a.388.388 0 01-.163-.085.255.255 0 01-.107-.225c0-.227.202-.352.4-.271l.066.034.101.067-.056-.177a3.08 3.08 0 01-.072-.258c-.013-.069-.026-.062-.083.047-.155.291-.558.201-.558-.124 0-.24.252-.358.448-.236l.057.044.101.095-.002-.23c-.002-.226-.004-.23-.08-.162-.154.138-.445.054-.496-.143-.033-.128.076-.325.197-.356.148-.037.312.027.371.146.049.097.049.097.114-.058.077-.186.082-.259.013-.19-.14.14-.44-.035-.44-.256 0-.315.408-.39.557-.142l.032.069.045.135.14-.145c.138-.144.138-.145.039-.145a.31.31 0 01-.302-.24c-.034-.152.027-.266.174-.326.205-.085.406.052.409.255l-.006.07-.023.113.354-.171-.124-.063c-.175-.088-.227-.26-.122-.402a.476.476 0 01.188-.141c.22-.074.416.176.326.416-.039.105-.039.105.16.09.19-.016.195-.02.127-.094a.29.29 0 01.214-.485c.255 0 .38.263.246.453l-.048.055-.1.093.159.048c.206.062.202.064.18-.11-.017-.128-.003-.176.072-.246.177-.164.452-.075.51.165.017.072.007.117-.049.184l-.05.054-.127.126.17.077c.23.103.312.105.222.005-.136-.15-.035-.44.16-.456.248-.02.345.06.345.29 0 .102-.013.15-.065.196l-.045.034-.111.072.1.027c.192.05.203.042.203-.151 0-.156.012-.183.082-.183.103 0 .1-.048-.008-.146-.188-.167-.256-.571-.142-.839.031-.073.13-.197.223-.28.173-.156.22-.24.263-.476.022-.116.014-.131-.064-.13a.486.486 0 00-.193.06.562.562 0 01-.132.06c-.016.002-.029-.145-.029-.323 0-.35.016-.37.202-.264.128.073.245.077.245.008a.76.76 0 00-.082-.213.917.917 0 01-.081-.192c0-.018.147-.033.326-.033zm2.658 2.855c-.257.021-.56.09-.805.183-.369.14-.887.298-1.084.33-.105.016-.156.046-.158.09V34.93l.002.071c0 .03.06.05.145.05.206 0 .19.13-.031.254-.206.116-.389.336-.424.51-.025.12-.018.132.074.132.156 0 .369-.167.481-.376.06-.112.104-.167.154-.185l.039-.007.091-.002v1.034c0 .685-.008.719-.077.719-.053 0-.092-.043-.122-.132-.083-.244-.365-.48-.574-.48-.102 0-.103.053-.005.267.138.3.413.468.767.467.333-.001.644-.258.753-.622.04-.132.037-.166-.023-.225-.095-.095-.212-.016-.196.132.016.143-.076.136-.255-.021-.12-.106-.143-.154-.143-.29 0-.128.026-.19.124-.287.124-.123.186-.13.544-.064.054.01.086-.017.106-.087.088-.31.358-.694.488-.694.11 0 .174.462.113.803-.03.17-.028.174.082.174.063 0 .17.036.244.08.36.22.222.734-.198.734-.163 0-.206-.057-.112-.15.072-.072.007-.175-.11-.175-.135 0-.238.22-.198.43.071.384.569.624.918.443.132-.068.374-.373.34-.427-.043-.07-.246.046-.414.236-.27.304-.29.194-.069-.36.405-1.012.452-1.114.52-1.128.058-.01.063.026.04.31-.025.317.024.527.111.474.063-.039.045-.568-.027-.777-.056-.163-.058-.219-.014-.349.03-.085.068-.155.086-.155.018 0 .063-.105.1-.233a1.432 1.432 0 00-.965-1.768 1.47 1.47 0 00-.318-.072zm-5.615.06c-.434.119-.849.528-.978.966-.1.337-.059.878.08 1.047.028.034.078.116.111.182.056.11.054.136-.024.307-.146.321-.091 1.007.058.728.034-.063.042-.195.025-.412-.023-.284-.018-.319.04-.308.07.014.721 1.566.683 1.628-.044.07-.125.023-.25-.148-.122-.166-.354-.3-.397-.228-.034.054.21.358.341.426.285.148.68.016.849-.283.107-.19.114-.305.03-.47-.045-.084-.092-.12-.164-.12-.112 0-.175.105-.105.175.094.094.05.151-.112.151-.42 0-.559-.514-.198-.733a.573.573 0 01.248-.08c.101 0 .113-.013.09-.094-.071-.248-.073-.522-.004-.702.038-.1.089-.182.112-.182.106 0 .35.326.424.566.068.221.088.249.16.225.043-.015.16-.036.254-.046.151-.017.188-.004.297.104.174.174.168.376-.018.562-.173.175-.266.179-.266.012 0-.14-.09-.196-.186-.117-.147.122.081.585.373.755.156.091.217.104.427.09.376-.027.636-.247.75-.635.022-.073.01-.093-.054-.093-.161 0-.377.14-.497.322-.067.1-.121.207-.121.238 0 .036-.033.052-.091.045-.086-.01-.091-.013-.097-.726v-.152l-.006-.867h.11c.09 0 .125.031.187.167.094.205.33.403.48.403.13 0 .136-.027.048-.233a.8.8 0 00-.398-.423c-.183-.094-.207-.21-.068-.235l.06-.005h.144v-.911c-.002-.413-.014-.43-.082-.43-.134 0-.649-.147-1.045-.3a4.108 4.108 0 00-.633-.185c-.315-.053-.329-.052-.587.018zm-3.897-16.099c-1.884.014-3.32 1.266-3.592 3.13-.07.477-.03 1.435.078 1.838.349 1.314 1.162 2.193 2.345 2.535.472.136.621.155 1.188.154.962-.001 1.776-.283 2.347-.808l.138-.137.193-.205-.08-.11a4.054 4.054 0 00-.325-.352c-.271-.268-.388-.3-.57-.153-.482.387-.855.534-1.446.567-.715.04-1.28-.166-1.747-.638a2.325 2.325 0 01-.617-1.09c-.123-.452-.123-1.36 0-1.818.228-.842.765-1.415 1.532-1.637.19-.055.346-.065.735-.05.563.022.799.093 1.27.384.427.263.51.261.869-.229l.081-.112.208-.291-.186-.164c-.404-.355-1.123-.677-1.73-.775a5.21 5.21 0 00-.69-.039zm16.58.083c-.914.002-1.171.016-1.182.046a.703.703 0 00-.009.12l-.001.073V17.748l.002.107.012.528 1.12.019 1.122.02.023 6.312 1.387-.023v-6.309l2.262-.02v-1.14l-2.95-.01-.71-.003h-.21l-.865-.001zm22.465-.009h-4.732l-.024 7.495 2.378-.002 2.378-.001v-1.098h-3.307v-2.117l2.592-.02v-1.058l-2.592-.023v-2.036h3.307v-1.14zm-13.67 0v7.495l1.407-.023v-2.99l1.388-.011 1.387-.012.023-1.12h-2.774l-.006-1.006a63.235 63.235 0 00-.012-1.088c-.005-.076.025-.081 1.453-.1l.195-.003 1.653-.021v-1.097l-2.357-.012-2.356-.012zm-14.542.01h-.805a3.263 3.263 0 00-.41.016c-.012.013-.024 1.116-.027 2.617v.217l-.002 4.632h1.426v-2.89l.542.001c.28.003.33.018.414.091.049.043.119.132.31.414l.076.115.118.178c.194.293.465.709.852 1.303.219.338.458.656.527.702.108.073.17.084.72.085h.89l-.95-1.413c-.486-.724-.966-1.4-1.112-1.57l-.026-.03-.189-.185.226-.092c.547-.222.903-.557 1.164-1.099.154-.32.166-.368.184-.787.024-.546-.03-.826-.232-1.198-.273-.502-.79-.84-1.555-1.015-.252-.058-.581-.074-1.817-.088l-.324-.003zm29.436-.01v7.492h1.91c1.555-.003 1.86-.034 2.348-.206 1.588-.56 2.458-1.939 2.376-3.761-.047-1.016-.36-1.78-.999-2.435-.552-.565-1.283-.914-2.189-1.044-.147-.022-.88-.04-1.68-.043h-.187l-1.58-.003zm-7.631 0h-.81c-.32.003-.576.014-.589.028-.013.012-.023 1.222-.026 2.832v.448l-.001 4.184h1.426v-7.492zm-8.933 0h-.81c-.322.003-.58.014-.592.028-.013.012-.024 1.222-.027 2.832V24.711h1.43v-7.492zm-17.97.01h-1.15c-.554.003-.916.009-.925.018-.012.012-.022 1.115-.026 2.615v.665l-.001.231v3.953h4.771v-1.098h-3.345v-2.117h2.61v-1.101h-2.61v-2.032l3.326-.023v-1.097l-2.349-.012-.3-.001zm37.05 1.13c.551.004.807.02.973.063.847.216 1.433.845 1.632 1.752.105.477.098 1.202-.016 1.663-.208.842-.68 1.37-1.464 1.642-.284.099-.355.11-1.093.124l-.168.002-.943.016-.026-.097c-.013-.049-.02-.848-.023-1.802v-1.166c.002-1.13.01-2.154.026-2.17.014-.013.36-.024.795-.026h.308zm-31.21-.038c.645 0 1.012.048 1.24.163.444.226.672.732.565 1.252-.103.5-.349.779-.834.945-.163.056-.319.075-.711.082l-.16.002-.64.006-.01-1.225-.01-1.225h.56zM168.17 5.56l-.37.062c-1.145.185-2.207.98-2.745 2.055-.334.668-.462 1.338-.423 2.214.026.574.084.887.256 1.365.095.264.363.79.426.837.015.01.045.05.064.086.193.343.803.866 1.315 1.129.542.277.898.374 1.749.476.266.032 1.041-.048 1.434-.148 1.263-.322 2.284-1.294 2.69-2.562.163-.51.192-.733.187-1.466-.005-.78-.044-.995-.3-1.66a3.919 3.919 0 00-1.287-1.658 4.254 4.254 0 00-1.788-.707c-.283-.04-1.05-.054-1.208-.023zm-8.84.725c-.494.493-.702 1.059-.657 1.788.06 1.002.595 1.6 1.784 1.995l.356.116.289.092.136.044c.533.167.817.336.994.59.107.154.121.21.119.466-.004.372-.072.568-.272.783-.28.303-.84.44-1.4.342-.357-.062-.606-.169-1.034-.442-.582-.373-.71-.342-1.076.263-.27.446-.275.42.16.73.337.24.76.443 1.173.562 1.904.553 3.595-.324 3.856-1.997.128-.822-.04-1.405-.546-1.896-.307-.298-.742-.512-1.663-.819-.78-.26-.947-.337-1.181-.547-.2-.179-.28-.348-.278-.589.002-.287.076-.473.265-.663.226-.227.48-.306.98-.306.455 0 .673.061 1.1.308.179.103.396.199.48.212.132.02.169.006.266-.1.052-.055.151-.215.24-.38l.051-.1.18-.359-.14-.114c-.398-.323-1.07-.61-1.601-.683-1.088-.15-1.965.09-2.58.704zm32.296-.724c-.474.086-.968.304-1.297.574-.54.442-.99 1.375-1.153 2.395-.08.504-.07 1.865.018 2.35.096.523.275 1.067.486 1.473.211.407.704.92 1.068 1.11.692.361 1.574.41 2.335.128.845-.313 1.463-1.113 1.761-2.273l.055-.236.033-.166c.037-.206.051-.385.057-.75l.001-.169V9.27c-.003-.63-.02-.746-.108-1.115-.327-1.376-.99-2.197-2.032-2.513-.217-.067-1.013-.118-1.224-.08zm-6.632.032c-1.514.337-2.343 1.77-2.343 4.05 0 1.264.254 2.3.736 3.001.143.208.5.562.713.709.384.263.937.42 1.488.419 1.957-.002 3.089-1.717 2.962-4.49-.042-.919-.184-1.537-.497-2.179-.365-.744-.868-1.195-1.614-1.447-.331-.112-1.08-.144-1.445-.063zm14.629.025l-.583.002h-.249c-.377.002-.367.028-.719.34-.08.07-.252.218-.388.331a27 27 0 00-.367.31c-.067.059-.385.331-.704.603-.36.309-.57.514-.553.543.108.182.475.643.54.678a.568.568 0 00.221.043c.15 0 .244-.057.82-.54l.132-.11.443-.373.01 2.574.002.67V11.397c-.002.92-.014 1.21-.043 1.23-.028.02-.373.034-.765.032l-.252-.002h-.514c-.033.001-.047.104-.05.394v.628h4.487v-.51c0-.38-.012-.511-.05-.514a34.883 34.883 0 00-.604-.009h-.12l-.675-.007-.02-7.022zm-42.43 0h-1.507v8.061h1.508V5.62zm19.908.733c-1.154 1.167-.904 3.228.472 3.89.375.18.567.22 1.06.22.405 0 .67-.048.976-.177.09-.038.166-.06.175-.05.008.01-.208.297-.484.642a401.79 401.79 0 00-1.14 1.432l-.128.16-.108.133a40.47 40.47 0 00-.353.443c-.134.169-.285.355-.364.45l-.033.038-.11.128.754.011c1.097.017.974.101 1.984-1.353.329-.473.661-.949.742-1.062.924-1.295 1.191-1.915 1.238-2.87.03-.62-.047-1.03-.282-1.504a2.426 2.426 0 00-1.72-1.283c-1.038-.198-2.01.075-2.679.752zm15.439.45c.672.252 1.044 1.268 1.043 2.85-.002 1.644-.387 2.637-1.125 2.9-.69.245-1.342-.128-1.636-.934-.172-.47-.22-.803-.244-1.69-.032-1.207.052-1.809.338-2.42.162-.346.421-.622.672-.715.256-.096.68-.092.952.01zm-7.027-.075l.114.004c.51.02.791.19 1.052.633.303.516.417 1.14.417 2.288 0 .884-.061 1.4-.22 1.869-.191.558-.451.865-.864 1.02a1.182 1.182 0 01-1.267-.287c-.424-.438-.664-1.373-.664-2.583 0-1.543.353-2.557.995-2.858a.744.744 0 01.344-.086h.093zm-16.139.174c.874.223 1.455.824 1.736 1.793.082.281.095.415.095.977 0 .593-.01.684-.113 1.016-.151.489-.326.805-.598 1.082-.267.272-.451.393-.836.547-.242.098-.365.119-.78.135-.61.023-.964-.035-1.345-.22-.574-.277-.984-.768-1.214-1.45-.113-.335-.125-.392-.128-.946v-.473c.004-.394.023-.505.093-.73.298-.95.95-1.575 1.824-1.75.287-.059 1.006-.047 1.266.02zM147.285 0c2.364.004 3.01.017 2.99.05-.018.028-.226.307-.465.62a4812.811 4812.811 0 00-2.959 3.892l-1.039 1.368c-.302.4-1.302 1.716-2.222 2.926l-.146.191-.29.38-1.664 2.19c-.236.31-.442.57-.459.581-.015.01-.027-1.982-.03-4.653L141 0zm32.406 6.793c.24.09.517.353.644.609.082.165.095.252.095.66 0 .406-.013.49-.092.639-.253.47-.596.669-1.195.693-.322.014-.426.002-.613-.068a1.132 1.132 0 01-.645-.61c-.091-.198-.106-.283-.107-.636-.002-.364.01-.433.117-.663.173-.371.394-.551.84-.684.236-.07.688-.042.956.06z"/></g></svg>