<svg width="982" height="865" xmlns="http://www.w3.org/2000/svg" xmlns:xlink="http://www.w3.org/1999/xlink"><defs><path id="a" d="M0 .035h183.248v259.6H0z"/><path id="c" d="M.299.134h310.683V45.43H.299z"/></defs><g fill="none" fill-rule="evenodd"><path fill="#00111F" d="M48.417 495.338L-.001 506.784l242 37.348v-48.794z"/><path fill="#6C040C" d="M372.016 561.302L671 521l-62-16-236.984-14.312z"/><path fill="#7E1B2B" d="M462.512.5L225.11 10.643v252.455h237.423V.5z"/><path d="M265.646 210.999l12.098-.105c4.514-.04 5.926-1.903 5.926-10.228V70.23c0-8.017-1.412-9.82-5.926-9.666l-12.098.41V33.92l87.75-3.37v27.452l-14.132.478c-4.6.156-6.036 2.07-6.036 10.154v141.774l27.115-.237c14.814-.13 19.184-1.734 21.81-11.473l6.72-32.076 29.095-.461v71.25l-152.322.64v-27.053z" fill="#F5F5F3"/><path fill="#6C040C" d="M462.533.5l65.002 34.333v228.354h-65.002z"/><path d="M462.533 44.283l3.387 1.491c-1.596-4.453-1.946-7.84-1.97-11.043-.036-4.778 1.004-8.212 2.293-11.409 1.131-2.807 2.452-5.432 3.406-8.635.394-1.319.725-2.736.956-4.312.257-1.76.368-3.578.361-5.422l-2.114-1.116.021.011c-3.467-1.83-6.318 6.687-6.34 19.071v21.364zM462.533 131.848l3.387.895c-1.596-4.172-1.946-7.5-1.97-10.694-.036-4.778 1.004-8.398 2.293-11.823 1.131-3.004 2.452-5.854 3.406-9.225.394-1.39.725-2.873.956-4.49.79-5.511.2-11.472-.956-16.368-.954-4.05-2.275-7.832-3.406-11.634-1.289-4.33-2.33-8.682-2.293-13.427.024-3.181.374-6.26 1.97-9.308l-3.387-1.49v21.362c.022 12.404 2.873 23.43 6.34 24.653-3.467-1.221-6.318 7.798-6.34 20.186v21.363z" fill="#931F33"/><path d="M474.675 6.913l-3.285-1.735c1.552 4.506 1.888 7.85 1.912 10.994.036 4.696-.97 8.053-2.227 11.212-1.113 2.808-2.428 5.453-3.387 8.698-1.737 5.881-1.737 13.53 0 20.94.96 4.088 2.274 7.89 3.387 11.68 1.258 4.266 2.263 8.507 2.227 13.172-.023 3.122-.36 6.172-1.912 9.31l3.285 1.157 3.242 1.142c-1.52-4.195-1.854-7.466-1.877-10.589-.035-4.665.955-8.107 2.181-11.35 1.08-2.854 2.336-5.534 3.245-8.752.375-1.323.69-2.739.911-4.305.751-5.32.19-11.184-.91-16.048-.91-4.017-2.167-7.806-3.246-11.608-1.226-4.32-2.216-8.635-2.18-13.27.022-3.102.355-6.079 1.874-8.937l-3.24-1.71zM468.5 46.91c3.425 1.507 6.17-7.065 6.19-19.148.023 12.102 2.735 23.076 6.037 24.53-3.302-1.454-6.015 7.13-6.037 19.213-.02-12.1-2.765-23.088-6.19-24.595z" fill="#931F33"/><path d="M478.358 8.859c0 3.492.415 7.198 1.24 10.872.913 4.062 2.164 7.875 3.226 11.649 1.197 4.258 2.156 8.48 2.121 13.023-.022 3.046-.343 5.998-1.82 8.944l3.128 1.377 3.088 1.36c-1.447-4.21-1.765-7.43-1.787-10.478-.034-4.55.91-7.844 2.08-10.917 1.025-2.7 2.224-5.23 3.092-8.303.357-1.266.658-2.624.868-4.131.235-1.683.335-3.42.328-5.175l-1.919-1.014.018.01c-3.146-1.662-5.732 6.518-5.753 18.31-.02-11.814-2.635-22.74-5.896-24.463l.02.01-2.034-1.074zM462.533 219.404l3.387.298c-1.596-3.88-1.946-7.146-1.97-10.34-.036-4.773 1.004-8.575 2.293-12.224 1.131-3.203 2.452-6.289 3.406-9.827.394-1.455.725-2.998.956-4.654.79-5.658.2-11.517-.956-16.209-.954-3.875-2.275-7.422-3.406-11.026-1.289-4.103-2.33-8.273-2.293-13.024.024-3.186.374-6.325 1.97-9.656l-3.387-.894v21.362c.022 12.391 2.873 22.93 6.34 23.54-3.467-.612-6.318 8.908-6.34 21.293v21.361z" fill="#931F33"/><path d="M474.675 92.342l-3.285-1.157c1.552 4.23 1.888 7.518 1.912 10.658.036 4.68-.97 8.22-2.227 11.605-1.113 2.995-2.428 5.873-3.387 9.293-1.737 6.188-1.737 13.834 0 20.94.96 3.919 2.274 7.489 3.387 11.075 1.258 4.043 2.263 8.118 2.227 12.788-.023 3.128-.36 6.234-1.912 9.64l3.285.579 3.242.57c-1.52-3.921-1.854-7.132-1.877-10.251-.035-4.658.955-8.284 2.181-11.74 1.08-3.038 2.336-5.94 3.245-9.316.375-1.392.69-2.868.911-4.465.751-5.453.19-11.221-.91-15.888-.91-3.864-2.167-7.433-3.246-11.036-1.226-4.108-2.216-8.253-2.18-12.886.022-3.107.355-6.145 1.874-9.268l-3.24-1.141zm-6.175 41.082c3.425.905 6.17-8.15 6.19-20.236.023 12.098 2.735 22.593 6.037 23.465-3.302-.872-6.015 8.193-6.037 20.269-.02-12.087-2.765-22.593-6.19-23.498z" fill="#931F33"/><path d="M486.253 54.724l-3.129-1.377c1.478 4.247 1.8 7.48 1.821 10.545.035 4.573-.924 7.954-2.12 11.157-1.063 2.839-2.314 5.55-3.227 8.809-1.653 5.904-1.653 13.367 0 20.435.913 3.9 2.164 7.486 3.226 11.07 1.197 4.049 2.156 8.106 2.121 12.66-.022 3.048-.343 6.057-1.82 9.263l3.128.826 3.088.816c-1.447-3.954-1.765-7.118-1.787-10.162-.034-4.55.91-8.011 2.08-11.292 1.025-2.877 2.224-5.612 3.092-8.837.357-1.331.658-2.75.868-4.294.717-5.265.181-10.937-.868-15.583-.868-3.844-2.067-7.424-3.093-11.026-1.17-4.102-2.113-8.226-2.079-12.747.022-3.03.34-5.97 1.787-8.904l-3.088-1.36zm-5.88 39.624c3.26 1.148 5.875-7.478 5.895-19.274.022 11.812 2.606 22.268 5.753 23.376-3.146-1.108-5.732 7.526-5.753 19.323-.02-11.812-2.635-22.277-5.896-23.425z" fill="#931F33"/><path d="M497.292 18.86l-2.984-1.576c1.409 4.258 1.715 7.438 1.737 10.434.032 4.475-.881 7.698-2.023 10.737-1.013 2.699-2.205 5.248-3.076 8.36-1.577 5.638-1.577 12.923 0 19.95.87 3.877 2.063 7.475 3.076 11.067 1.142 4.045 2.055 8.07 2.023 12.517-.021 2.978-.328 5.889-1.737 8.906l2.984 1.05 2.947 1.038c-1.383-3.975-1.684-7.09-1.706-10.066-.032-4.448.868-7.747 1.985-10.86.979-2.743 2.123-5.322 2.95-8.407.34-1.271.629-2.627.83-4.125.684-5.09.173-10.674-.83-15.292-.826-3.814-1.971-7.402-2.95-11.004-1.117-4.097-2.017-8.188-1.985-12.607.022-2.96.323-5.807 1.706-8.566l-2.947-1.556zm-5.608 38.254c3.109 1.369 5.603-6.858 5.622-18.378.02 11.538 2.486 21.947 5.489 23.27-3.003-1.323-5.47 6.914-5.49 18.435-.018-11.538-2.512-21.958-5.621-23.327z" fill="#931F33"/><path d="M500.642 20.629c0 3.33.377 6.855 1.127 10.34.832 3.855 1.97 7.465 2.935 11.043 1.091 4.038 1.962 8.048 1.933 12.384-.02 2.908-.313 5.73-1.66 8.57l2.852 1.254 2.813 1.239c-1.32-3.991-1.608-7.058-1.63-9.968-.03-4.342.83-7.506 1.897-10.465.935-2.598 2.03-5.04 2.818-7.994.327-1.217.601-2.521.793-3.964a36.73 36.73 0 00.298-4.951l-1.75-.924.017.009c-2.87-1.516-5.225 6.35-5.244 17.607-.017-11.276-2.4-21.645-5.368-23.212l.018.009-1.85-.977zM470.966 263.187c-.015-3.792-.537-7.4-1.317-10.427-.954-3.706-2.275-7.025-3.406-10.426-1.29-3.88-2.33-7.862-2.292-12.62.024-3.191.373-6.395 1.97-10.011l-3.388-.3v21.372c.023 12.359 2.86 22.367 6.314 22.412h2.119z" fill="#931F33"/><path d="M474.675 177.77l-3.285-.578c1.552 3.957 1.888 7.182 1.912 10.317.036 4.675-.97 8.395-2.227 12-1.113 3.192-2.428 6.298-3.387 9.879-1.737 6.493-1.737 14.14 0 20.949.96 3.75 2.274 7.089 3.387 10.476 1.258 3.826 2.263 7.724 2.227 12.393-.023 3.127-.36 6.296-1.912 9.98h6.527c-1.52-3.657-1.854-6.813-1.877-9.924-.035-4.645.955-8.446 2.181-12.121 1.08-3.224 2.336-6.348 3.245-9.884.375-1.458.69-2.993.911-4.63.751-5.59.19-11.256-.91-15.733-.91-3.696-2.167-7.041-3.246-10.454-1.226-3.893-2.216-7.866-2.18-12.505.022-3.11.355-6.204 1.874-9.594l-3.24-.571zm-6.175 42.16c3.425.3 6.17-9.234 6.19-21.318.023 12.088 2.735 22.103 6.037 22.394-3.302-.291-6.015 9.256-6.037 21.34-.02-12.087-2.765-22.115-6.19-22.416z" fill="#931F33"/><path d="M486.253 138.112l-3.129-.826c1.478 3.988 1.8 7.163 1.821 10.225.035 4.567-.924 8.118-2.12 11.531-1.063 3.027-2.314 5.952-3.227 9.37-1.653 6.201-1.653 13.662 0 20.44.913 3.738 2.164 7.106 3.226 10.504 1.197 3.835 2.156 7.723 2.121 12.284-.022 3.047-.343 6.12-1.82 9.577l3.128.275 3.088.272c-1.447-3.689-1.765-6.798-1.787-9.84-.034-4.546.91-8.172 2.08-11.657 1.025-3.058 2.224-6.006 3.092-9.384.357-1.389.658-2.862.868-4.442.717-5.398.181-10.977-.868-15.438-.868-3.685-2.067-7.052-3.093-10.474-1.17-3.896-2.113-7.856-2.079-12.382.022-3.034.34-6.028 1.787-9.22l-3.088-.815zm-5.88 40.661c3.26.574 5.875-8.52 5.895-20.314.022 11.8 2.606 21.812 5.753 22.365-3.146-.554-5.732 8.535-5.753 20.328-.02-11.8-2.635-21.804-5.896-22.378z" fill="#931F33"/><path d="M497.292 100.305l-2.984-1.05c1.409 4.007 1.715 7.136 1.737 10.13.032 4.461-.881 7.85-2.023 11.092-1.013 2.868-2.205 5.63-3.076 8.901-1.577 5.915-1.577 13.2 0 19.95.87 3.724 2.063 7.111 3.076 10.518 1.142 3.841 2.055 7.716 2.023 12.167-.021 2.982-.328 5.946-1.737 9.206l2.984.525 2.947.52c-1.383-3.729-1.684-6.788-1.706-9.76-.032-4.443.868-7.909 1.985-11.218.979-2.907 2.123-5.688 2.95-8.918.34-1.333.629-2.744.83-4.27.684-5.21.173-10.708-.83-15.147-.826-3.675-1.971-7.063-2.95-10.484-1.117-3.902-2.017-7.84-1.985-12.258.022-2.963.323-5.866 1.706-8.866l-2.947-1.038zm-5.608 39.241c3.109.821 5.603-7.844 5.622-19.367.02 11.534 2.486 21.508 5.489 22.301-3.003-.793-5.47 7.881-5.49 19.394-.018-11.523-2.512-21.507-5.621-22.328z" fill="#931F33"/><path d="M507.828 64.22l-2.85-1.254c1.346 4.025 1.64 7.104 1.66 10.029.03 4.363-.842 7.607-1.933 10.683-.966 2.727-2.104 5.336-2.935 8.459-1.505 5.656-1.505 12.774 0 19.492.831 3.706 1.97 7.11 2.935 10.515 1.091 3.847 1.962 7.705 1.932 12.054-.02 2.907-.313 5.783-1.659 8.859l2.85.753 2.813.743c-1.319-3.758-1.607-6.774-1.628-9.68-.03-4.342.83-7.659 1.895-10.807.937-2.761 2.03-5.388 2.82-8.481a34.28 34.28 0 00.792-4.113c.655-5.04.165-10.449-.793-14.87-.789-3.656-1.882-7.056-2.819-10.478-1.065-3.895-1.926-7.817-1.895-12.132.021-2.893.31-5.705 1.628-8.534l-2.813-1.238zm-5.354 37.91c2.967 1.045 5.35-7.228 5.368-18.488.018 11.274 2.374 21.214 5.243 22.224-2.869-1.01-5.225 7.271-5.243 18.531-.019-11.273-2.4-21.222-5.368-22.267z" fill="#931F33"/><path d="M517.894 29.742l-2.724-1.44c1.288 4.037 1.567 7.068 1.585 9.93.03 4.276-.803 7.373-1.845 10.299-.923 2.6-2.011 5.057-2.805 8.046-1.439 5.415-1.439 12.37 0 19.05.793 3.687 1.881 7.103 2.805 10.516 1.043 3.844 1.875 7.675 1.845 11.924-.019 2.844-.298 5.63-1.585 8.534l2.725.959 2.69.948c-1.262-3.78-1.538-6.75-1.558-9.595-.029-4.25.793-7.417 1.811-10.411.897-2.637 1.944-5.122 2.7-8.086.31-1.22.573-2.523.755-3.96.625-4.878.16-10.208-.755-14.603-.756-3.63-1.803-7.038-2.7-10.461-1.017-3.891-1.84-7.782-1.81-12.006.019-2.83.295-5.555 1.557-8.224l-2.69-1.42zm-5.117 36.656c2.837 1.249 5.113-6.658 5.13-17.666.019 11.024 2.27 20.924 5.014 22.132-2.744-1.208-4.995 6.707-5.014 17.715-.017-11.023-2.293-20.932-5.13-22.181z" fill="#931F33"/><path d="M520.953 31.357c0 3.183.344 6.544 1.03 9.86.76 3.666 1.8 7.094 2.684 10.495.996 3.838 1.795 7.657 1.765 11.803-.018 2.781-.286 5.486-1.515 8.227l2.604 1.146.014.006v-18.62.05c-.017-10.785-2.194-20.65-4.908-22.083l.016.01-1.69-.894zM486.253 221.492l-3.129-.275c1.478 3.733 1.8 6.855 1.821 9.913.035 4.561-.924 8.276-2.12 11.904-1.063 3.21-2.314 6.36-3.227 9.937-.825 3.238-1.24 6.724-1.24 10.215h2.04c3.25-.043 5.85-9.574 5.87-21.342.022 11.77 2.593 21.3 5.73 21.342h1.924c-.014-3.613-.488-7.05-1.196-9.935-.868-3.53-2.067-6.69-3.093-9.93-1.17-3.693-2.113-7.483-2.079-12.015.022-3.038.34-6.09 1.787-9.542l-3.088-.272z" fill="#931F33"/><path d="M497.292 181.752l-2.984-.525c1.409 3.759 1.715 6.83 1.737 9.819.032 4.456-.881 8.009-2.023 11.453-1.013 3.047-2.205 6.014-3.076 9.43-1.577 6.195-1.577 13.479 0 19.96.87 3.57 2.063 6.749 3.076 9.975 1.142 3.643 2.055 7.358 2.023 11.808-.021 2.98-.328 6.003-1.737 9.515h5.931c-1.383-3.488-1.684-6.498-1.706-9.463-.032-4.43.868-8.055 1.985-11.563.979-3.076 2.123-6.06 2.95-9.435.34-1.392.629-2.858.83-4.42.684-5.337.173-10.741-.83-15.007-.826-3.521-1.971-6.705-2.95-9.954-1.117-3.705-2.017-7.488-1.985-11.911.022-2.966.323-5.92 1.706-9.162l-2.947-.52zm-5.608 40.219c3.109.274 5.603-8.828 5.622-20.348.02 11.523 2.486 21.062 5.489 21.326-3.003-.264-5.47 8.848-5.49 20.368-.018-11.523-2.512-21.072-5.621-21.346z" fill="#931F33"/><path d="M507.828 143.81l-2.85-.753c1.346 3.789 1.64 6.816 1.66 9.738.03 4.357-.842 7.756-1.933 11.024-.966 2.898-2.104 5.7-2.935 8.969-1.505 5.928-1.505 13.043 0 19.495.831 3.56 1.97 6.766 2.935 10 1.091 3.653 1.962 7.358 1.932 11.712-.02 2.908-.313 5.842-1.659 9.146l2.85.25 2.813.249c-1.319-3.517-1.607-6.483-1.628-9.388-.03-4.338.83-7.805 1.895-11.138.937-2.926 2.03-5.748 2.82-8.981a37.46 37.46 0 00.792-4.247c.655-5.162.165-10.487-.793-14.74-.789-3.51-1.882-6.714-2.819-9.973-1.065-3.708-1.926-7.48-1.895-11.8.021-2.896.31-5.757 1.628-8.82l-2.813-.743zm-5.354 38.854c2.967.522 5.35-8.18 5.368-19.434.018 11.262 2.374 20.798 5.243 21.303-2.869-.506-5.225 8.188-5.243 19.445-.019-11.262-2.4-20.791-5.368-21.313v-.001z" fill="#931F33"/><path d="M517.894 107.56l-2.724-.959c1.288 3.807 1.567 6.792 1.585 9.65.03 4.263-.803 7.512-1.845 10.625-.923 2.753-2.011 5.405-2.805 8.54-1.439 5.667-1.439 12.622 0 19.05.793 3.546 1.881 6.77 2.805 10.013 1.043 3.66 1.875 7.352 1.845 11.606-.019 2.85-.298 5.683-1.585 8.808l2.725.48 2.69.472c-1.262-3.55-1.538-6.472-1.558-9.314-.029-4.243.793-7.564 1.811-10.736.897-2.789 1.944-5.457 2.7-8.554.31-1.278.573-2.63.755-4.092.625-4.989.16-10.239-.755-14.47-.756-3.504-1.803-6.729-2.7-9.987-1.017-3.714-1.84-7.465-1.81-11.687.019-2.832.295-5.61 1.557-8.498l-2.69-.947zm-5.117 37.556c2.837.75 5.113-7.557 5.13-18.568.019 11.02 2.27 20.523 5.014 21.247-2.744-.724-4.995 7.591-5.014 18.592-.017-11.01-2.293-20.522-5.13-21.27z" fill="#931F33"/><path d="M527.521 72.888l-2.604-1.146c1.23 3.823 1.497 6.763 1.515 9.56.03 4.171-.769 7.288-1.765 10.248-.884 2.623-1.924 5.136-2.684 8.134-1.375 5.43-1.375 12.233 0 18.632.76 3.531 1.8 6.77 2.684 10.013.996 3.664 1.794 7.344 1.765 11.502-.018 2.781-.286 5.534-1.515 8.491l2.604.688.014.003v-18.62.05c-.017-10.782-2.195-20.262-4.909-21.217 2.714.955 4.891-6.993 4.91-17.762v.04-18.61l-.015-.006zM507.828 223.392l-2.85-.251c1.346 3.557 1.64 6.535 1.66 9.454.03 4.352-.842 7.9-1.933 11.363-.966 3.065-2.104 6.07-2.935 9.486-.752 3.088-1.129 6.413-1.129 9.743h1.854c2.96-.041 5.328-9.138 5.347-20.37.018 11.232 2.362 20.329 5.221 20.37h1.755c-.012-3.452-.444-6.734-1.09-9.49-.79-3.37-1.883-6.386-2.82-9.476-1.065-3.524-1.926-7.14-1.895-11.466.021-2.9.31-5.816 1.628-9.115l-2.813-.248z" fill="#931F33"/><path d="M517.894 185.379l-2.724-.48c1.288 3.582 1.567 6.514 1.585 9.369.03 4.257-.803 7.656-1.845 10.952-.923 2.916-2.011 5.756-2.805 9.023-1.439 5.92-1.439 12.875 0 19.059.793 3.408 1.881 6.439 2.805 9.518 1.043 3.478 1.875 7.025 1.845 11.277-.019 2.848-.298 5.735-1.585 9.09h5.415c-1.262-3.333-1.538-6.21-1.558-9.043-.029-4.232.793-7.698 1.811-11.053.897-2.942 1.944-5.796 2.7-9.026.31-1.332.573-2.733.755-4.228.625-5.105.16-10.27-.755-14.344-.756-3.363-1.803-6.4-2.7-9.501-1.017-3.534-1.84-7.144-1.81-11.371.019-2.834.295-5.657 1.557-8.768l-2.69-.474zm-5.117 38.449c2.837.25 5.113-8.456 5.13-19.464.019 11.01 2.27 20.115 5.014 20.357-2.744-.242-4.995 8.474-5.014 19.48-.017-11.01-2.293-20.123-5.13-20.373z" fill="#931F33"/><path d="M527.521 149.01l-2.604-.688c1.23 3.608 1.497 6.5 1.515 9.294.03 4.167-.769 7.425-1.765 10.561-.884 2.78-1.924 5.469-2.684 8.6-1.375 5.678-1.375 12.479 0 18.634.76 3.399 1.8 6.456 2.684 9.544.996 3.486 1.794 7.024 1.765 11.188-.018 2.781-.286 5.589-1.515 8.754l2.604.228.014.001v-18.61.042c-.017-10.772-2.195-19.868-4.909-20.345v-.001c2.714.478 4.891-7.862 4.91-18.627v.041-18.613l-.015-.002z" fill="#931F33"/><path d="M527.521 225.126l-2.604-.23c1.23 3.397 1.497 6.244 1.515 9.035.03 4.162-.769 7.556-1.765 10.87-.884 2.932-1.924 5.808-2.684 9.073-.687 2.952-1.03 6.13-1.03 9.313h1.694c2.704-.04 4.871-8.74 4.888-19.482v.042-18.62l-.014-.001z" fill="#931F33"/><g transform="translate(0 506.75)"><mask id="b" fill="#fff"><use xlink:href="#a"/></mask><path fill="#1B7492" mask="url(#b)" d="M0 231.203l183.248 28.433V13.154L0 .034z"/></g><path d="M27.914 652.923v-89.228c0-7.341-1.06-9.128-4.446-9.426l-7.799-.687v-24.74l63.64 5.035v25.306l-9.207-.811c-3.491-.306-4.798 1.295-4.798 8.735v89.277c0 30.904 7.642 41.682 30.818 44.859 20.845 2.859 30.132-9.022 30.132-37.668v-90.907c0-7.6-1.363-9.474-4.991-9.793l-11.054-.973v-25.58l55.431 4.386v26.072l-10.237-.9c-3.936-.347-5.091 1.32-5.091 8.983v94.61c0 47.158-20.418 66.839-61.294 60.804-44.466-6.564-61.104-26.527-61.104-77.354" fill="#F5F5F3"/><path d="M60.325 477.963c-1.64-.661-2.963-6.82-2.963-13.758v25.128c1.632.696 2.963-4.391 2.963-11.37" fill="#CFCDC9"/><path d="M66.353 480.393c-1.678-.677-3.031-6.91-3.031-13.927 0 7.017-1.346 12.162-2.997 11.496 0 6.98 1.338 13.206 2.997 13.914 1.67.713 3.031-4.426 3.031-11.483M72.519 482.879c-1.718-.692-3.102-7.003-3.102-14.1 0 7.097-1.376 12.295-3.064 11.615 0 7.056 1.368 13.36 3.065 14.086 1.707.728 3.1-4.463 3.1-11.601M78.827 485.422c-1.757-.708-3.172-7.098-3.172-14.275 0 7.177-1.41 12.428-3.136 11.732 0 7.138 1.399 13.52 3.136 14.262 1.747.746 3.172-4.5 3.172-11.72" fill="#CFCDC9"/><path d="M85.283 488.024c-1.798-.725-3.247-7.196-3.247-14.457 0 7.261-1.441 12.567-3.21 11.854 0 7.221 1.433 13.685 3.21 14.444 1.789.763 3.247-4.536 3.247-11.84M91.891 490.688c-1.84-.74-3.324-7.296-3.324-14.643 0 7.347-1.475 12.708-3.284 11.98 0 7.305 1.466 13.851 3.284 14.628 1.832.781 3.325-4.573 3.325-11.965M98.659 493.417c-1.885-.76-3.404-7.4-3.404-14.834 0 7.435-1.511 12.853-3.363 12.105 0 7.393 1.5 14.025 3.363 14.82 1.875.8 3.404-4.612 3.404-12.091M105.59 496.212c-1.93-.78-3.486-7.506-3.486-15.03 0 7.524-1.547 13-3.445 12.235 0 7.48 1.537 14.2 3.445 15.014 1.92.82 3.487-4.65 3.487-12.22" fill="#CFCDC9"/><path d="M112.693 499.074c-1.98-.797-3.573-7.614-3.573-15.23 0 7.616-1.585 13.15-3.53 12.368 0 7.57 1.576 14.38 3.53 15.214 1.968.839 3.573-4.688 3.573-12.352M112.693 499.074c0 7.665 1.614 14.565 3.617 15.42v-27.923c0 7.71-1.625 13.307-3.617 12.503M60.325 452.695c-1.64-.583-2.963-6.679-2.963-13.617v25.127c1.632.62 2.963-4.531 2.963-11.51" fill="#CFCDC9"/><path d="M66.353 454.84c-1.678-.598-3.031-6.767-3.031-13.783 0 7.016-1.346 12.226-2.997 11.638 0 6.979 1.338 13.142 2.997 13.772 1.67.634 3.031-4.57 3.031-11.627M72.519 457.033c-1.718-.611-3.102-6.855-3.102-13.953 0 7.098-1.376 12.36-3.064 11.76 0 7.056 1.368 13.296 3.065 13.94 1.707.648 3.1-4.61 3.1-11.747M78.827 459.276c-1.757-.625-3.172-6.947-3.172-14.126 0 7.18-1.41 12.497-3.136 11.882 0 7.138 1.399 13.455 3.136 14.114 1.747.662 3.172-4.649 3.172-11.87" fill="#CFCDC9"/><path d="M85.283 461.573c-1.798-.64-3.247-7.042-3.247-14.304 0 7.262-1.441 12.636-3.21 12.007 0 7.221 1.433 13.617 3.21 14.291 1.789.679 3.247-4.689 3.247-11.994M91.891 463.924c-1.84-.654-3.324-7.138-3.324-14.486 0 7.348-1.475 12.779-3.284 12.135 0 7.305 1.466 13.783 3.284 14.473 1.832.694 3.325-4.73 3.325-12.122M98.659 466.33c-1.885-.67-3.404-7.236-3.404-14.672 0 7.436-1.511 12.925-3.363 12.266 0 7.39 1.5 13.952 3.363 14.659 1.875.712 3.404-4.772 3.404-12.252M105.59 468.797c-1.93-.687-3.486-7.34-3.486-14.865 0 7.525-1.547 13.074-3.445 12.399 0 7.48 1.537 14.127 3.445 14.85 1.92.729 3.487-4.813 3.487-12.384" fill="#CFCDC9"/><path d="M112.693 471.323c-1.98-.704-3.573-7.445-3.573-15.063 0 7.618-1.585 13.228-3.53 12.537 0 7.571 1.576 14.305 3.53 15.047 1.968.747 3.573-4.857 3.573-12.521M112.693 471.323c0 7.664 1.614 14.488 3.617 15.248v-27.923c0 7.711-1.625 13.384-3.617 12.675M60.325 427.428c-1.64-.505-2.963-6.538-2.963-13.478v25.127c1.632.543 2.963-4.671 2.963-11.65" fill="#CFCDC9"/><path d="M66.353 429.286c-1.678-.517-3.031-6.622-3.031-13.64 0 7.018-1.346 12.29-2.997 11.782 0 6.977 1.338 13.078 2.997 13.629 1.67.553 3.031-4.715 3.031-11.771M72.519 431.187c-1.718-.529-3.102-6.709-3.102-13.806 0 7.097-1.376 12.425-3.064 11.905 0 7.055 1.368 13.23 3.065 13.794 1.707.567 3.1-4.757 3.1-11.893M78.827 433.132c-1.757-.542-3.172-6.797-3.172-13.976 0 7.179-1.41 12.564-3.136 12.03 0 7.137 1.399 13.388 3.136 13.965 1.747.58 3.172-4.8 3.172-12.02" fill="#CFCDC9"/><path d="M85.283 435.122c-1.798-.555-3.247-6.888-3.247-14.15 0 7.262-1.441 12.705-3.21 12.16 0 7.219 1.433 13.548 3.21 14.137 1.789.594 3.247-4.843 3.247-12.147M91.891 437.159c-1.84-.567-3.324-6.98-3.324-14.328 0 7.348-1.475 12.849-3.284 12.29 0 7.305 1.466 13.713 3.284 14.316 1.832.609 3.325-4.887 3.325-12.278M98.659 439.246c-1.885-.581-3.404-7.077-3.404-14.513 0 7.436-1.511 12.997-3.363 12.426 0 7.39 1.5 13.88 3.363 14.499 1.875.622 3.404-4.933 3.404-12.412M105.59 441.382c-1.93-.596-3.486-7.175-3.486-14.7 0 7.525-1.547 13.147-3.445 12.563 0 7.48 1.537 14.053 3.445 14.687 1.92.637 3.487-4.98 3.487-12.55" fill="#CFCDC9"/><path d="M105.59 441.382c0 7.57 1.576 14.23 3.53 14.878 1.968.654 3.573-5.024 3.573-12.688-1.978-.61-3.573-7.276-3.573-14.892 0 7.615-1.585 13.301-3.53 12.702M112.693 443.572c0 7.663 1.614 14.411 3.617 15.076v-27.923c0 7.711-1.625 13.46-3.617 12.847M60.325 402.16c-1.64-.428-2.963-6.399-2.963-13.338v25.128c1.632.464 2.963-4.813 2.963-11.79" fill="#CFCDC9"/><path d="M66.353 403.733c-1.678-.438-3.031-6.48-3.031-13.497 0 7.018-1.346 12.355-2.997 11.925 0 6.977 1.338 13.014 2.997 13.486 1.67.475 3.031-4.858 3.031-11.914M72.519 405.341c-1.718-.448-3.102-6.562-3.102-13.66 0 7.098-1.376 12.492-3.064 12.052 0 7.056 1.368 13.165 3.065 13.649 1.707.485 3.1-4.905 3.1-12.041M78.827 406.986c-1.757-.458-3.172-6.647-3.172-13.826 0 7.18-1.41 12.632-3.136 12.181 0 7.136 1.399 13.321 3.136 13.815 1.747.497 3.172-4.95 3.172-12.17" fill="#CFCDC9"/><path d="M85.283 408.67c-1.798-.468-3.247-6.734-3.247-13.996 0 7.262-1.441 12.773-3.21 12.312 0 7.22 1.433 13.48 3.21 13.986 1.789.509 3.247-4.997 3.247-12.301M91.891 410.394c-1.84-.479-3.324-6.824-3.324-14.172 0 7.348-1.475 12.92-3.284 12.448 0 7.304 1.466 13.643 3.284 14.161 1.832.52 3.325-5.046 3.325-12.437M98.659 412.16c-1.885-.492-3.404-6.916-3.404-14.352 0 7.436-1.511 13.07-3.363 12.586 0 7.39 1.5 13.81 3.363 14.339 1.875.534 3.404-5.094 3.404-12.573M98.659 412.16c0 7.479 1.538 13.979 3.445 14.522 1.92.547 3.487-5.144 3.487-12.714-1.931-.503-3.487-7.01-3.487-14.535 0 7.525-1.547 13.222-3.445 12.727" fill="#CFCDC9"/><path d="M105.59 413.969c0 7.569 1.576 14.154 3.53 14.71 1.968.56 3.573-5.195 3.573-12.857-1.978-.517-3.573-7.108-3.573-14.726 0 7.618-1.585 13.38-3.53 12.873M112.693 415.821c0 7.662 1.614 14.334 3.617 14.904v-27.924c0 7.711-1.625 13.54-3.617 13.02M60.325 376.892c-1.64-.35-2.963-6.257-2.963-13.195v25.126c1.632.387 2.963-4.953 2.963-11.931" fill="#CFCDC9"/><path d="M66.353 378.178c-1.678-.358-3.031-6.335-3.031-13.352 0 7.017-1.346 12.418-2.997 12.065 0 6.978 1.338 12.951 2.997 13.345 1.67.396 3.031-5 3.031-12.058M72.519 379.494c-1.718-.367-3.102-6.415-3.102-13.51 0 7.095-1.376 12.554-3.064 12.194 0 7.057 1.368 13.101 3.065 13.503 1.707.405 3.1-5.049 3.1-12.187M78.827 380.84c-1.757-.374-3.172-6.495-3.172-13.673 0 7.178-1.41 12.696-3.136 12.328 0 7.137 1.399 13.253 3.136 13.666 1.747.413 3.172-5.1 3.172-12.32" fill="#CFCDC9"/><path d="M85.283 382.219c-1.798-.385-3.247-6.58-3.247-13.841 0 7.26-1.441 12.84-3.21 12.463 0 7.22 1.433 13.411 3.21 13.832 1.789.425 3.247-5.15 3.247-12.454M91.891 383.63c-1.84-.394-3.324-6.667-3.324-14.014 0 7.347-1.475 12.99-3.284 12.602 0 7.305 1.466 13.573 3.284 14.004 1.832.435 3.325-5.202 3.325-12.593" fill="#CFCDC9"/><path d="M91.891 383.63c0 7.39 1.501 13.737 3.363 14.178 1.875.445 3.404-5.255 3.404-12.735-1.885-.402-3.404-6.754-3.404-14.188.001 7.434-1.51 13.14-3.363 12.744M98.659 385.074c0 7.48 1.538 13.906 3.445 14.358 1.92.455 3.487-5.309 3.487-12.88-1.931-.412-3.487-6.844-3.487-14.368 0 7.524-1.547 13.294-3.445 12.89" fill="#CFCDC9"/><path d="M105.59 386.553c0 7.57 1.576 14.08 3.53 14.543 1.968.467 3.573-5.364 3.573-13.027-1.978-.423-3.573-6.937-3.573-14.554 0 7.617-1.585 13.453-3.53 13.038M112.693 388.069c0 7.664 1.614 14.258 3.617 14.733V374.88c0 7.71-1.625 13.614-3.617 13.189M60.325 351.624c-1.64-.272-2.963-6.116-2.963-13.055v25.128c1.632.309 2.963-5.095 2.963-12.073" fill="#CFCDC9"/><path d="M66.353 352.624c-1.678-.279-3.031-6.19-3.031-13.208 0 7.017-1.346 12.481-2.997 12.208 0 6.977 1.338 12.888 2.997 13.203 1.67.317 3.031-5.146 3.031-12.203M72.519 353.648c-1.718-.285-3.102-6.267-3.102-13.364 0 7.097-1.376 12.62-3.064 12.34 0 7.057 1.368 13.038 3.065 13.36 1.707.324 3.1-5.198 3.1-12.336M78.827 354.695c-1.757-.293-3.172-6.346-3.172-13.524 0 7.178-1.41 12.764-3.136 12.476 0 7.139 1.399 13.19 3.136 13.52 1.747.332 3.172-5.252 3.172-12.472" fill="#CFCDC9"/><path d="M78.827 354.695c0 7.22 1.432 13.346 3.209 13.683 1.789.339 3.247-5.308 3.247-12.611-1.798-.3-3.247-6.426-3.247-13.688 0 7.262-1.441 12.909-3.21 12.615M85.283 355.766c0 7.305 1.466 13.505 3.285 13.85 1.83.348 3.324-5.36 3.324-12.753-1.84-.305-3.324-6.507-3.324-13.855 0 7.348-1.476 13.058-3.285 12.758" fill="#CFCDC9"/><path d="M91.891 356.863c0 7.392 1.501 13.668 3.363 14.022 1.875.356 3.404-5.418 3.404-12.897-1.885-.313-3.404-6.592-3.404-14.027.001 7.435-1.51 13.21-3.363 12.902M98.659 357.987c0 7.48 1.538 13.835 3.445 14.197 1.92.365 3.487-5.476 3.487-13.047-1.931-.32-3.487-6.678-3.487-14.202 0 7.524-1.547 13.367-3.445 13.052" fill="#CFCDC9"/><path d="M105.59 359.137c0 7.571 1.576 14.007 3.53 14.378 1.968.373 3.573-5.535 3.573-13.199-1.978-.328-3.573-6.767-3.573-14.384 0 7.617-1.585 13.528-3.53 13.205M112.693 360.317c0 7.664 1.614 14.183 3.617 14.563v-27.924c0 7.71-1.625 13.692-3.617 13.36M60.325 326.357c-1.64-.194-2.963-5.978-2.963-12.916v25.128c1.632.232 2.963-5.235 2.963-12.212" fill="#CFCDC9"/><path d="M66.353 327.072c-1.678-.2-3.031-6.05-3.031-13.067 0 7.017-1.345 12.548-2.997 12.351 0 6.978 1.338 12.825 2.997 13.06 1.67.238 3.031-5.288 3.031-12.344M72.519 327.803c-1.718-.204-3.102-6.123-3.102-13.22 0 7.097-1.376 12.688-3.064 12.488 0 7.056 1.368 12.971 3.065 13.212 1.707.244 3.1-5.344 3.1-12.48M72.519 327.803c0 7.137 1.398 13.122 3.135 13.368 1.748.25 3.172-5.401 3.172-12.62-1.756-.209-3.171-6.197-3.171-13.375 0 7.178-1.409 12.832-3.136 12.627M78.827 328.55c0 7.22 1.432 13.276 3.209 13.53 1.789.254 3.247-5.46 3.247-12.764-1.798-.213-3.247-6.273-3.247-13.535 0 7.262-1.441 12.978-3.21 12.77M85.283 329.316c0 7.304 1.466 13.434 3.285 13.692 1.83.261 3.324-5.518 3.324-12.909-1.84-.218-3.324-6.35-3.324-13.699 0 7.348-1.476 13.13-3.285 12.916" fill="#CFCDC9"/><path d="M91.891 330.1c0 7.39 1.501 13.595 3.363 13.86 1.875.267 3.404-5.58 3.404-13.058-1.885-.223-3.404-6.432-3.403-13.867 0 7.435-1.51 13.284-3.364 13.065M98.659 330.902c0 7.48 1.538 13.761 3.445 14.033 1.92.273 3.487-5.64 3.487-13.21-1.931-.23-3.487-6.516-3.487-14.04 0 7.524-1.547 13.442-3.445 13.217" fill="#CFCDC9"/><path d="M105.59 331.724c0 7.57 1.576 13.931 3.53 14.208 1.968.281 3.573-5.704 3.573-13.367-1.978-.234-3.573-6.599-3.573-14.215 0 7.616-1.585 13.604-3.53 13.374M112.693 332.566c0 7.663 1.614 14.105 3.617 14.39v-27.924c0 7.711-1.625 13.77-3.617 13.534M60.326 301.089c-1.641-.117-2.964-5.836-2.964-12.774v25.126c1.633.155 2.964-5.374 2.964-12.352" fill="#CFCDC9"/><path d="M66.353 301.517c-1.678-.119-3.031-5.904-3.031-12.92 0 7.016-1.345 12.608-2.997 12.491.001 6.978 1.338 12.76 2.997 12.917 1.67.16 3.031-5.43 3.031-12.488M66.353 301.517c0 7.057 1.368 12.906 3.065 13.066 1.708.163 3.101-5.49 3.101-12.628-1.717-.122-3.101-5.974-3.101-13.069 0 7.096-1.377 12.751-3.065 12.631M72.519 301.956c0 7.137 1.398 13.054 3.135 13.22 1.748.165 3.172-5.552 3.172-12.772-1.756-.124-3.171-6.045-3.171-13.222 0 7.178-1.409 12.896-3.136 12.774M78.827 302.405c0 7.22 1.432 13.207 3.209 13.375 1.789.171 3.247-5.611 3.247-12.917-1.798-.127-3.247-6.118-3.247-13.378 0 7.261-1.441 13.045-3.21 12.92M85.283 302.864c0 7.305 1.466 13.364 3.285 13.536 1.83.174 3.324-5.675 3.324-13.066-1.84-.131-3.324-6.193-3.324-13.54 0 7.347-1.476 13.198-3.285 13.07" fill="#CFCDC9"/><path d="M91.891 303.334c0 7.391 1.501 13.524 3.364 13.7 1.874.18 3.404-5.739 3.404-13.219-1.886-.133-3.404-6.27-3.404-13.704 0 7.435-1.51 13.354-3.364 13.223M98.659 303.816c0 7.479 1.538 13.688 3.445 13.869 1.92.182 3.487-5.806 3.487-13.376-1.931-.137-3.487-6.348-3.487-13.872 0 7.524-1.547 13.513-3.445 13.379" fill="#CFCDC9"/><path d="M105.59 304.309c0 7.57 1.576 13.855 3.53 14.04 1.968.188 3.573-5.871 3.573-13.535-1.978-.14-3.573-6.43-3.573-14.045 0 7.617-1.585 13.678-3.53 13.54M112.693 304.814c0 7.664 1.614 14.027 3.617 14.218V291.11c0 7.71-1.625 13.845-3.617 13.704M60.326 275.82c-1.641-.039-2.964-5.694-2.964-12.633v25.127c1.633.078 2.964-5.516 2.964-12.494" fill="#CFCDC9"/><path d="M60.326 275.82c0 6.978 1.337 12.698 2.997 12.777 1.669.08 3.03-5.577 3.03-12.634-1.678-.039-3.03-5.759-3.03-12.776 0 7.017-1.346 12.672-2.997 12.633M66.353 275.963c0 7.057 1.368 12.842 3.065 12.923 1.708.081 3.101-5.639 3.101-12.777-1.717-.04-3.101-5.826-3.101-12.922 0 7.096-1.377 12.816-3.065 12.776M72.519 276.11c0 7.137 1.398 12.99 3.135 13.072 1.748.083 3.172-5.703 3.172-12.923-1.756-.041-3.171-5.893-3.171-13.072 0 7.179-1.409 12.963-3.136 12.923M78.827 276.259c0 7.22 1.432 13.141 3.209 13.226 1.789.085 3.247-5.768 3.247-13.074-1.798-.042-3.247-5.962-3.247-13.224 0 7.262-1.441 13.114-3.21 13.072M85.283 276.412c0 7.304 1.466 13.296 3.285 13.382 1.83.087 3.324-5.835 3.324-13.226-1.84-.043-3.324-6.034-3.324-13.382 0 7.348-1.476 13.268-3.285 13.226" fill="#CFCDC9"/><path d="M91.891 276.57c0 7.39 1.501 13.453 3.364 13.541 1.874.09 3.404-5.902 3.404-13.382-1.886-.044-3.404-6.107-3.404-13.542 0 7.435-1.51 13.425-3.364 13.382M98.659 276.73c0 7.478 1.538 13.616 3.445 13.706 1.92.091 3.487-5.972 3.487-13.543-1.931-.045-3.487-6.182-3.487-13.706 0 7.524-1.547 13.586-3.445 13.542" fill="#CFCDC9"/><path d="M105.59 276.894c0 7.57 1.576 13.783 3.53 13.875 1.968.094 3.573-6.043 3.573-13.708-1.978-.045-3.573-6.257-3.573-13.874 0 7.617-1.585 13.752-3.53 13.707M112.693 277.062c0 7.663 1.614 13.953 3.617 14.048v-27.923c0 7.71-1.625 13.921-3.617 13.875" fill="#CFCDC9"/><path d="M60.325 477.963c0 6.979-1.33 12.066-2.963 11.37l5.96 2.544c-1.659-.708-2.997-6.935-2.997-13.914M66.353 480.393c0 7.057-1.361 12.196-3.031 11.483l6.096 2.603c-1.697-.725-3.065-7.029-3.065-14.086" fill="#A8A49E"/><path d="M72.519 482.879c0 7.138-1.394 12.329-3.102 11.6l6.237 2.662c-1.736-.741-3.135-7.124-3.135-14.262M78.827 485.422c0 7.22-1.425 12.465-3.172 11.719l6.38 2.724c-1.776-.758-3.208-7.223-3.208-14.443M85.283 488.024c0 7.306-1.458 12.604-3.247 11.841l6.532 2.788c-1.82-.776-3.285-7.324-3.285-14.629" fill="#A8A49E"/><path d="M91.891 490.688c0 7.393-1.493 12.746-3.324 11.965l6.689 2.854c-1.864-.795-3.365-7.427-3.365-14.819" fill="#A8A49E"/><path d="M98.659 493.417c0 7.48-1.53 12.89-3.404 12.09l6.849 2.924c-1.907-.814-3.445-7.535-3.445-15.014M105.59 496.212c0 7.57-1.565 13.039-3.486 12.219l7.016 2.995c-1.954-.834-3.53-7.644-3.53-15.214M112.693 499.074c0 7.665-1.605 13.19-3.573 12.352l7.19 3.069c-2.003-.856-3.617-7.757-3.617-15.421M60.325 477.963c1.651.666 2.997-4.48 2.997-11.496-1.659-.63-2.997-6.793-2.997-13.772 0 6.979-1.33 12.13-2.963 11.51 0 6.939 1.322 13.097 2.963 13.758" fill="#A8A49E"/><path d="M66.353 454.84c0 7.057-1.361 12.26-3.031 11.627 0 7.017 1.353 13.25 3.031 13.927 1.688.68 3.065-4.518 3.065-11.614-1.697-.644-3.065-6.883-3.065-13.94" fill="#A8A49E"/><path d="M72.519 457.033c0 7.137-1.394 12.395-3.102 11.747 0 7.096 1.385 13.406 3.102 14.099 1.727.696 3.135-4.555 3.135-11.733-1.736-.66-3.135-6.976-3.135-14.113M78.827 459.276c0 7.221-1.425 12.532-3.172 11.87 0 7.178 1.415 13.567 3.172 14.276 1.768.712 3.209-4.594 3.209-11.855-1.777-.674-3.21-7.07-3.21-14.29M85.283 461.573c0 7.305-1.458 12.673-3.247 11.994 0 7.261 1.449 13.733 3.247 14.457 1.809.73 3.285-4.632 3.285-11.978-1.82-.691-3.285-7.168-3.285-14.473" fill="#A8A49E"/><path d="M91.891 463.924c0 7.392-1.493 12.816-3.324 12.122 0 7.347 1.484 13.9 3.325 14.643 1.853.747 3.362-4.671 3.362-12.106-1.862-.707-3.363-7.267-3.363-14.66M98.659 466.33c0 7.48-1.53 12.964-3.404 12.253 0 7.435 1.519 14.074 3.404 14.834 1.898.765 3.445-4.711 3.445-12.235-1.907-.724-3.445-7.371-3.445-14.851M105.59 468.797c0 7.57-1.565 13.113-3.486 12.385 0 7.524 1.556 14.25 3.487 15.03 1.944.783 3.529-4.752 3.529-12.368-1.954-.741-3.53-7.476-3.53-15.047M112.693 471.323c0 7.664-1.605 13.268-3.573 12.521 0 7.616 1.594 14.433 3.573 15.23 1.992.804 3.617-4.792 3.617-12.503-2.003-.76-3.617-7.584-3.617-15.248M60.325 452.695c1.651.588 2.997-4.622 2.997-11.639-1.659-.55-2.997-6.651-2.997-13.629 0 6.978-1.33 12.193-2.963 11.651 0 6.938 1.322 13.033 2.963 13.617" fill="#A8A49E"/><path d="M66.353 454.84c1.688.6 3.065-4.662 3.065-11.76-1.697-.563-3.065-6.738-3.065-13.794 0 7.056-1.361 12.325-3.031 11.77 0 7.017 1.353 13.186 3.031 13.784" fill="#A8A49E"/><path d="M72.519 431.187c0 7.136-1.394 12.46-3.102 11.893 0 7.097 1.385 13.341 3.102 13.952 1.727.615 3.135-4.703 3.135-11.882-1.736-.576-3.135-6.827-3.135-13.963M78.827 433.132c0 7.219-1.425 12.599-3.172 12.019 0 7.178 1.415 13.5 3.172 14.126 1.768.628 3.209-4.746 3.209-12.007-1.777-.59-3.21-6.92-3.21-14.138M85.283 435.122c0 7.304-1.458 12.74-3.247 12.147 0 7.262 1.449 13.665 3.247 14.304 1.809.644 3.285-4.787 3.285-12.136-1.82-.603-3.285-7.011-3.285-14.315" fill="#A8A49E"/><path d="M91.891 437.159c0 7.39-1.493 12.887-3.324 12.278 0 7.349 1.484 13.832 3.325 14.487 1.853.659 3.362-4.83 3.362-12.266-1.862-.618-3.363-7.108-3.363-14.5M98.659 439.246c0 7.479-1.53 13.034-3.404 12.412 0 7.436 1.519 14.003 3.404 14.673 1.898.675 3.445-4.874 3.445-12.4-1.907-.632-3.445-7.206-3.445-14.685M105.59 441.382c0 7.57-1.565 13.188-3.486 12.55 0 7.524 1.556 14.178 3.487 14.864 1.944.692 3.529-4.918 3.529-12.536-1.954-.649-3.53-7.308-3.53-14.877M112.693 443.572c0 7.663-1.605 13.342-3.573 12.688 0 7.618 1.594 14.359 3.573 15.063 1.992.709 3.617-4.964 3.617-12.675-2.003-.665-3.617-7.413-3.617-15.076M60.325 427.428c1.651.51 2.997-4.764 2.997-11.781-1.659-.472-2.997-6.51-2.997-13.486 0 6.976-1.33 12.253-2.963 11.788 0 6.94 1.322 12.972 2.963 13.478" fill="#A8A49E"/><path d="M66.353 429.286c1.688.52 3.065-4.808 3.065-11.904-1.697-.484-3.065-6.593-3.065-13.65 0 7.057-1.361 12.39-3.031 11.914 0 7.018 1.353 13.122 3.031 13.64" fill="#A8A49E"/><path d="M72.519 431.187c1.727.532 3.135-4.853 3.135-12.03-1.736-.495-3.135-6.68-3.135-13.816 0 7.136-1.394 12.526-3.102 12.04 0 7.097 1.385 13.276 3.102 13.806M78.827 406.986c0 7.22-1.425 12.667-3.172 12.17 0 7.18 1.415 13.434 3.172 13.976 1.768.544 3.209-4.898 3.209-12.16-1.777-.507-3.21-6.766-3.21-13.986M85.283 408.67c0 7.305-1.458 12.81-3.247 12.302 0 7.262 1.449 13.595 3.247 14.15 1.809.558 3.285-4.943 3.285-12.291-1.82-.517-3.285-6.856-3.285-14.16" fill="#A8A49E"/><path d="M91.891 410.394c0 7.391-1.493 12.957-3.324 12.437 0 7.347 1.484 13.76 3.325 14.328 1.853.571 3.362-4.99 3.362-12.426-1.862-.529-3.363-6.948-3.363-14.339M98.659 412.16c0 7.479-1.53 13.107-3.404 12.573 0 7.436 1.519 13.93 3.404 14.512 1.898.586 3.445-5.037 3.445-12.563-1.907-.543-3.445-7.043-3.445-14.522M105.59 413.969c0 7.569-1.565 13.26-3.486 12.714 0 7.524 1.556 14.103 3.487 14.7 1.944.6 3.529-5.087 3.529-12.703-1.954-.558-3.53-7.142-3.53-14.712M112.693 415.821c0 7.662-1.605 13.418-3.573 12.858 0 7.617 1.594 14.283 3.573 14.893 1.992.614 3.617-5.136 3.617-12.847-2.003-.57-3.617-7.242-3.617-14.904M60.325 402.16c1.651.431 2.997-4.907 2.997-11.924-1.659-.394-2.997-6.367-2.997-13.345 0 6.978-1.33 12.318-2.963 11.931 0 6.94 1.322 12.91 2.963 13.338" fill="#A8A49E"/><path d="M66.353 403.733c1.688.44 3.065-4.954 3.065-12.051-1.697-.403-3.065-6.447-3.065-13.503 0 7.056-1.361 12.453-3.031 12.057 0 7.018 1.353 13.059 3.031 13.497" fill="#A8A49E"/><path d="M72.519 405.341c1.727.451 3.135-5.002 3.135-12.181-1.736-.411-3.135-6.528-3.135-13.666 0 7.138-1.394 12.593-3.102 12.187 0 7.098 1.385 13.212 3.102 13.66M78.827 406.986c1.768.462 3.209-5.05 3.209-12.313-1.777-.42-3.21-6.612-3.21-13.833 0 7.221-1.424 12.735-3.171 12.32 0 7.18 1.415 13.368 3.172 13.826M85.283 382.219c0 7.305-1.458 12.879-3.247 12.454 0 7.262 1.449 13.529 3.247 13.998 1.809.471 3.285-5.1 3.285-12.448-1.82-.432-3.285-6.7-3.285-14.005" fill="#A8A49E"/><path d="M91.891 383.63c0 7.39-1.493 13.027-3.324 12.592 0 7.348 1.484 13.693 3.325 14.172 1.853.484 3.362-5.15 3.362-12.586-1.862-.44-3.363-6.788-3.363-14.179M98.659 385.074c0 7.48-1.53 13.18-3.404 12.734 0 7.435 1.519 13.86 3.404 14.351 1.898.497 3.445-5.202 3.445-12.726-1.907-.452-3.445-6.88-3.445-14.36M105.59 386.553c0 7.57-1.565 13.335-3.486 12.88 0 7.525 1.556 14.032 3.487 14.535 1.944.507 3.529-5.254 3.529-12.872-1.954-.463-3.53-6.972-3.53-14.543M112.693 388.069c0 7.664-1.605 13.495-3.573 13.028 0 7.617 1.594 14.208 3.573 14.724 1.992.52 3.617-5.308 3.617-13.02-2.003-.474-3.617-7.068-3.617-14.732M60.325 376.892c1.651.353 2.997-5.048 2.997-12.065-1.659-.314-2.997-6.226-2.997-13.203 0 6.977-1.33 12.382-2.963 12.073 0 6.938 1.322 12.845 2.963 13.195" fill="#A8A49E"/><path d="M66.353 378.178c1.688.36 3.065-5.099 3.065-12.195-1.697-.322-3.065-6.303-3.065-13.359 0 7.056-1.361 12.52-3.031 12.202 0 7.017 1.353 12.994 3.031 13.352" fill="#A8A49E"/><path d="M72.519 379.494c1.727.37 3.135-5.15 3.135-12.328-1.736-.329-3.135-6.38-3.135-13.519 0 7.138-1.394 12.66-3.102 12.336 0 7.096 1.385 13.144 3.102 13.511M78.827 380.84c1.768.377 3.209-5.201 3.209-12.462-1.777-.337-3.21-6.464-3.21-13.683 0 7.22-1.424 12.803-3.171 12.471 0 7.178 1.415 13.3 3.172 13.675M85.283 382.219c1.81.385 3.285-5.255 3.285-12.603-1.82-.344-3.285-6.544-3.285-13.85 0 7.305-1.458 12.95-3.247 12.611 0 7.262 1.449 13.457 3.247 13.841" fill="#A8A49E"/><path d="M91.891 356.863c0 7.392-1.493 13.101-3.324 12.753 0 7.348 1.484 13.62 3.325 14.014 1.853.394 3.362-5.31 3.362-12.745-1.862-.353-3.363-6.63-3.363-14.022M98.659 357.987c0 7.48-1.53 13.254-3.404 12.898 0 7.435 1.519 13.786 3.404 14.188 1.898.405 3.445-5.364 3.445-12.889-1.907-.362-3.445-6.717-3.445-14.197M105.59 359.137c0 7.571-1.565 13.412-3.486 13.047 0 7.524 1.556 13.956 3.487 14.37 1.944.413 3.529-5.423 3.529-13.039-1.954-.37-3.53-6.807-3.53-14.378M112.693 360.317c0 7.664-1.605 13.572-3.573 13.199 0 7.616 1.594 14.13 3.573 14.553 1.992.425 3.617-5.48 3.617-13.19-2.003-.38-3.617-6.898-3.617-14.562M60.325 351.624c1.651.274 2.997-5.19 2.997-12.207-1.659-.236-2.997-6.083-2.997-13.06 0 6.977-1.33 12.444-2.963 12.212 0 6.939 1.322 12.783 2.963 13.055" fill="#A8A49E"/><path d="M66.353 352.624c1.688.28 3.065-5.244 3.065-12.34-1.697-.242-3.065-6.157-3.065-13.213 0 7.056-1.361 12.583-3.031 12.345 0 7.017 1.353 12.93 3.031 13.208" fill="#A8A49E"/><path d="M72.519 353.648c1.727.287 3.135-5.298 3.135-12.477-1.736-.247-3.135-6.231-3.135-13.368 0 7.137-1.394 12.724-3.102 12.48 0 7.098 1.385 13.08 3.102 13.365M78.827 354.695c1.768.293 3.209-5.354 3.209-12.615-1.777-.253-3.21-6.31-3.21-13.53 0 7.22-1.424 12.87-3.171 12.621 0 7.178 1.415 13.231 3.172 13.524M85.283 355.766c1.81.3 3.285-5.41 3.285-12.758-1.82-.259-3.285-6.388-3.285-13.693 0 7.305-1.458 13.018-3.247 12.764 0 7.262 1.449 13.39 3.247 13.687" fill="#A8A49E"/><path d="M91.891 356.863c1.853.308 3.363-5.467 3.363-12.902-1.862-.266-3.363-6.471-3.363-13.862 0 7.39-1.493 13.17-3.324 12.91 0 7.347 1.484 13.548 3.325 13.854M98.659 330.902c0 7.48-1.53 13.325-3.404 13.058 0 7.435 1.519 13.714 3.404 14.027 1.898.315 3.445-5.528 3.445-13.052-1.907-.272-3.445-6.554-3.445-14.033M105.59 331.724c0 7.57-1.565 13.483-3.486 13.21 0 7.525 1.556 13.883 3.487 14.203 1.944.323 3.529-5.588 3.529-13.205-1.954-.277-3.53-6.639-3.53-14.208M112.693 332.566c0 7.663-1.605 13.647-3.573 13.367 0 7.616 1.594 14.055 3.573 14.383 1.992.331 3.617-5.649 3.617-13.36-2.003-.285-3.617-6.727-3.617-14.39M60.325 326.357c1.651.196 2.997-5.334 2.997-12.351-1.659-.157-2.997-5.94-2.997-12.918 0 6.979-1.33 12.507-2.963 12.353 0 6.938 1.322 12.72 2.963 12.916" fill="#A8A49E"/><path d="M66.353 327.072c1.688.2 3.065-5.392 3.065-12.488-1.697-.16-3.065-6.01-3.065-13.067 0 7.057-1.361 12.647-3.031 12.488 0 7.017 1.353 12.868 3.031 13.067" fill="#A8A49E"/><path d="M72.519 327.803c1.727.204 3.135-5.449 3.135-12.627-1.736-.164-3.135-6.082-3.135-13.22 0 7.137-1.394 12.79-3.102 12.627 0 7.097 1.385 13.015 3.102 13.22M78.827 328.55c1.768.21 3.209-5.507 3.209-12.77-1.777-.167-3.21-6.155-3.21-13.375 0 7.22-1.424 12.937-3.171 12.77 0 7.18 1.415 13.167 3.172 13.375M85.283 329.316c1.81.214 3.285-5.568 3.285-12.916-1.82-.172-3.285-6.23-3.285-13.537 0 7.306-1.458 13.087-3.247 12.917 0 7.263 1.449 13.323 3.247 13.536" fill="#A8A49E"/><path d="M91.891 330.1c1.853.22 3.363-5.63 3.364-13.065-1.862-.176-3.364-6.31-3.364-13.701 0 7.392-1.493 13.24-3.324 13.066 0 7.348 1.484 13.48 3.325 13.7M98.659 330.902c1.898.225 3.445-5.693 3.445-13.218-1.907-.18-3.445-6.389-3.445-13.869 0 7.48-1.53 13.398-3.403 13.22 0 7.435 1.518 13.643 3.403 13.867M105.59 304.309c0 7.57-1.565 13.558-3.486 13.375 0 7.525 1.556 13.81 3.487 14.04 1.944.23 3.529-5.757 3.529-13.374-1.954-.185-3.53-6.471-3.53-14.041M112.693 304.814c0 7.664-1.605 13.722-3.573 13.536 0 7.616 1.594 13.981 3.573 14.215 1.992.237 3.617-5.822 3.617-13.533-2.003-.19-3.617-6.554-3.617-14.218M60.326 301.089c1.65.118 2.997-5.476 2.997-12.492-1.66-.078-2.997-5.8-2.997-12.777 0 6.978-1.331 12.572-2.964 12.495 0 6.938 1.323 12.657 2.964 12.774" fill="#A8A49E"/><path d="M66.353 301.517c1.688.12 3.065-5.536 3.065-12.63-1.697-.082-3.065-5.868-3.065-12.925 0 7.057-1.361 12.714-3.031 12.635 0 7.016 1.353 12.8 3.031 12.92" fill="#A8A49E"/><path d="M72.519 301.956c1.727.123 3.135-5.597 3.135-12.774-1.736-.083-3.135-5.935-3.135-13.074 0 7.14-1.394 12.86-3.102 12.778 0 7.096 1.385 12.947 3.102 13.07M78.827 302.405c1.768.125 3.209-5.66 3.209-12.92-1.777-.085-3.21-6.006-3.21-13.226 0 7.22-1.424 13.006-3.171 12.923 0 7.178 1.415 13.097 3.172 13.223M85.283 302.864c1.81.129 3.285-5.723 3.285-13.07-1.82-.086-3.285-6.077-3.285-13.383 0 7.306-1.458 13.159-3.247 13.074 0 7.261 1.449 13.251 3.247 13.379" fill="#A8A49E"/><path d="M91.891 303.334c1.853.132 3.364-5.789 3.364-13.223-1.862-.088-3.364-6.152-3.364-13.543 0 7.391-1.493 13.313-3.324 13.226 0 7.347 1.484 13.41 3.325 13.54M98.659 303.816c1.898.135 3.445-5.855 3.445-13.38-1.907-.09-3.445-6.227-3.445-13.707 0 7.48-1.53 13.472-3.403 13.383 0 7.434 1.518 13.569 3.403 13.704M105.59 304.309c1.945.138 3.53-5.924 3.53-13.54-1.954-.092-3.53-6.305-3.53-13.876 0 7.57-1.565 13.635-3.486 13.543 0 7.525 1.556 13.735 3.487 13.873M112.693 277.062c0 7.663-1.605 13.8-3.573 13.707 0 7.616 1.594 13.903 3.573 14.044 1.992.143 3.617-5.993 3.617-13.703-2.003-.095-3.617-6.385-3.617-14.048M60.326 275.82c1.65.04 2.997-5.616 2.997-12.633h-5.961c0 6.94 1.323 12.594 2.964 12.633" fill="#A8A49E"/><path d="M66.353 275.963c1.688.04 3.065-5.68 3.065-12.776h-6.096c0 7.017 1.353 12.735 3.031 12.776M72.519 276.11c1.727.04 3.135-5.744 3.135-12.923h-6.236c0 7.097 1.383 12.88 3.1 12.923M78.827 276.259c1.768.042 3.209-5.81 3.209-13.072h-6.381c0 7.178 1.415 13.03 3.172 13.072M85.283 276.412c1.81.042 3.285-5.878 3.285-13.226h-6.532c0 7.263 1.449 13.183 3.247 13.226" fill="#A8A49E"/><path d="M91.891 276.57c1.853.043 3.364-5.948 3.364-13.383h-6.688c0 7.347 1.484 13.338 3.325 13.382M98.659 276.73c1.898.044 3.445-6.019 3.445-13.543h-6.848c0 7.435 1.518 13.497 3.403 13.542M105.59 276.894c1.945.046 3.53-6.09 3.53-13.707h-7.016c0 7.525 1.556 13.66 3.487 13.707M112.693 277.062c1.992.047 3.617-6.165 3.617-13.875h-7.19c0 7.616 1.594 13.827 3.573 13.875" fill="#A8A49E"/><path fill="#7E1B2B" d="M414.881 791.323l256.417-15.479V520.626l-256.417 14.279z"/><path d="M510.312 710.413v-83.34l-20.738 1.194V601.92s11.04-1.63 10.37-1.591c13.041-3.41 21.732-8.904 24.071-23.034l3.342-27.85 37.73-2.115v47.289l29.682-1.69v29.29l-31.015 1.783v83.258c0 16.65 6.338 21.27 19.346 20.498 6.334-.376 10.336-1.613 14.001-3.161v30.287c-7.332 2.769-19.337 5.819-31.68 6.56-40.069 2.404-55.11-11.695-55.11-51.032" fill="#F5F5F3"/><path fill="#CFCDC9" d="M805.05 864.75l176.932-38.101V573.99L805.05 599.18z"/><path d="M895.776 655.177c3.443-14.705 8.301-26.091 14.557-34.159 6.234-8.037 13.847-12.723 22.824-14.067 9.661-1.447 17.798 1.33 24.432 8.298 6.61 6.944 9.905 16.103 9.905 27.496 0 7.629-1.908 16.996-5.73 28.125-3.833 11.154-9.412 23.466-16.759 36.966l-5.255 9.694c-25.185 46.182-39.93 80.135-43.974 101.397-4.429-19.926-19.484-48.286-45.437-85.443a481.664 481.664 0 00-5.313-7.455c-7.807-11.186-13.78-21.881-17.902-32.07-4.134-10.21-6.203-19.392-6.203-27.533 0-11.874 3.572-22.51 10.695-31.877 7.095-9.328 15.76-14.75 25.974-16.279 9.242-1.385 17.015 1.014 23.338 7.17 6.3 6.136 11.246 16.05 14.848 29.736" fill="#6C040C"/><path fill="#E8E8E3" d="M805.05 864.75V599.182L671.306 573.99v244.936z"/><path d="M704.825 705.278c-7.003-6.713-12.228-14.926-15.708-24.645-3.464-9.675-5.19-20.88-5.19-33.652 0-13.815 1.965-25.086 5.91-33.844 3.966-8.8 8.817-12.64 14.57-11.48 3.873.78 8.493 4.536 13.875 11.296 5.417 6.806 11.302 16.332 17.664 28.615l4.586 8.82c21.99 42.535 38.741 68.662 49.923 77.62-11.386 3.521-28.184 20.9-50.069 51.56a374.001 374.001 0 00-4.294 6.148c-6.365 8.91-12.25 15.31-17.668 19.238-5.382 3.905-10.05 5.19-14.018 3.883-5.752-1.895-10.603-8.31-14.569-19.217-3.945-10.853-5.91-23.218-5.91-37.139 0-12.663 1.714-22.879 5.156-30.67 3.457-7.823 8.692-13.337 15.742-16.533" fill="#A62339"/><g transform="translate(671 553.75)"><mask id="d" fill="#fff"><use xlink:href="#c"/></mask><path fill="#F5F5F3" mask="url(#d)" d="M155.64.134L.3 20.24 134.05 45.43l176.932-25.19z"/></g><path d="M852.13 579.45c5.295 1.81 7.113 3.509 5.35 5.084-1.788 1.598-7.274 3.05-16.481 4.347-10.02 1.41-21.027 2.177-32.907 2.294-11.791.116-21.021-.44-27.67-1.65-4.392-.8-7.553-2.01-9.5-3.614-1.913-1.578-2.495-3.446-1.783-5.591l.479-1.505c2.319-6.826.13-11.11-6.308-13.152 14.234 1.072 43.765 1.73 89.689 1.963 4.133.019 7.289.03 9.462.036 14.125.07 26.272.299 36.403.685 10.256.39 17.946.923 23.019 1.6 7.5 1 10.756 2.31 9.663 3.937-1.11 1.65-6.438 3.156-16.02 4.505-8.762 1.234-18.514 1.939-29.165 2.11-10.583.17-22.032-.183-34.23-1.048" fill="#A62339"/><path fill="#0E4359" d="M249.678 503.419l-66.586 16.353v246.613l66.586-23.795 62.685-22.4V488.024z"/><path d="M312.362 497.891v.002-9.869l-5.064 1.244c-4.797 4.21-8.62 12.364-10.26 21.897-1.644-8.71-5.492-14.98-10.362-16.833l-10.407 2.556c-4.913 4.267-8.834 12.49-10.54 22.103-1.71-8.757-5.656-15.047-10.644-16.9l-5.407 1.327-5.376 1.321c-5.091 4.374-9.15 12.806-10.892 22.642-1.745-8.963-5.831-15.394-11.003-17.265l-11.054 2.714c-5.22 4.437-9.387 12.944-11.2 22.868-1.815-9.014-6.011-15.467-11.313-17.339l-5.75 1.412v10.48c1.81 9.078 6.003 15.546 11.272 17.421-5.27 4.611-9.462 13.256-11.271 23.273v20.96c1.809 9.026 6.002 15.378 11.272 17.105-5.27 4.758-9.463 13.521-11.272 23.587v10.481l6.026-1.817c5.17-4.825 9.252-13.437 11.036-23.268 1.782 8.775 5.836 14.935 10.929 16.646l11.593-3.495c5.044-4.753 9.02-13.286 10.735-23.032 1.713 8.73 5.66 14.873 10.629 16.592l5.639-1.7 5.668-1.71c4.864-4.633 8.704-12.952 10.383-22.473 1.676 8.527 5.492 14.54 10.285 16.243l10.915-3.29c4.749-4.57 8.494-12.817 10.109-22.26 1.613 8.486 5.332 14.483 10.012 16.193l5.312-1.6v-9.869.002c-1.605-8.51-5.347-14.548-10.09-16.254 4.743-4.432 8.485-12.62 10.09-22.055v.002-19.736.002c-1.605-8.555-5.347-14.698-10.09-16.536 4.743-4.299 8.485-12.385 10.09-21.772zm-16.23 21.656c-7.33 1.041-13.251-8.575-13.728-22.36 7.375-.963 13.257 8.664 13.729 22.36zm.007 3.416c-.43 14.015-6.334 26.79-13.742 29.663.435-14.105 6.379-26.892 13.742-29.663zm-4.363-.575c-4.811 4.348-8.64 12.561-10.29 22.11-1.654-8.675-5.508-14.895-10.393-16.742 4.885-4.383 8.739-12.602 10.393-22.136 1.65 8.692 5.479 14.917 10.29 16.768zm-11.21-24.749c-.477 14.04-6.448 26.743-13.933 29.541.484-14.132 6.494-26.846 13.934-29.54zm-13.935 33.01c7.516-1.095 13.507 8.592 13.942 22.474-7.462 1.177-13.488-8.47-13.944-22.415l.002-.06zm-1.803.528c-.458 14.236-6.564 27.226-14.211 30.125.446-14.355 6.599-27.39 14.209-30.192l.002.067zm-.003-3.52c-7.58 1.143-13.711-8.615-14.201-22.647 7.627-1.06 13.716 8.707 14.2 22.647zm-15.147-14.072v-.003c1.7 8.817 5.644 15.122 10.602 16.981-4.958 4.432-8.901 12.785-10.603 22.484v-.003.002c-1.704-8.799-5.675-15.095-10.71-16.952 5.035-4.469 9.006-12.828 10.71-22.51v.001zm-.948-8.1c-.492 14.254-6.645 27.174-14.36 30.043.5-14.349 6.694-27.279 14.36-30.043zm.007 56.322c-7.701 1.23-13.918-8.57-14.374-22.759 7.749-1.145 13.926 8.664 14.374 22.76zm-16.29-25.782c-7.782 1.132-14.07-8.73-14.577-22.935 7.832-1.049 14.078 8.825 14.578 22.935zm.009 3.52c-.455 14.444-6.726 27.66-14.594 30.683.462-14.54 6.775-27.768 14.594-30.683zm-4.633-.557c-5.11 4.52-9.174 13.015-10.93 22.871-1.756-8.927-5.85-15.306-11.04-17.169 5.19-4.558 9.284-13.062 11.04-22.9 1.756 8.944 5.82 15.33 10.93 17.198zm-11.905-25.416c-.508 14.473-6.85 27.614-14.804 30.56.514-14.57 6.9-27.724 14.804-30.56zm-14.806 34.135c7.986-1.189 14.35 8.745 14.812 23.05-7.926 1.277-14.33-8.617-14.814-22.987 0-.022 0-.042.002-.063zm-17.015-26.302c8.108-1.155 14.58 8.867 15.095 23.233-8.055 1.242-14.573-8.768-15.095-23.233zm15.097 26.794c0 .022 0 .046.002.07-.487 14.68-6.976 28.122-15.106 31.18.474-14.807 7.015-28.299 15.104-31.25zm-15.097 34.832c8.108-1.382 14.58 8.46 15.095 22.81-8.055 1.466-14.573-8.362-15.095-22.81zm-.007 58.042c.474-14.82 7.015-28.494 15.104-31.672 0 .024 0 .046.002.07-.487 14.692-6.976 28.317-15.106 31.602zm4.882-61.169c5.24-4.65 9.38-13.215 11.18-23.088 1.799 8.906 5.91 15.213 11.069 17.001-5.16 4.611-9.27 13.167-11.068 23.056-1.8-8.887-5.941-15.185-11.181-16.969zm26.946-5.597c-.508 14.487-6.85 27.808-14.804 30.976.514-14.588 6.9-27.919 14.804-30.976zM201.11 608.92c0-.02 0-.04.002-.062 7.986-1.413 14.35 8.343 14.812 22.636-7.926 1.498-14.33-8.216-14.814-22.574zm4.744-3.213c5.19-4.702 9.283-13.32 11.04-23.208 1.755 8.896 5.82 15.168 10.929 16.892-5.11 4.663-9.174 13.272-10.93 23.178-1.756-8.879-5.85-15.143-11.04-16.862zm12.016-31.935c7.832-1.268 14.078 8.432 14.578 22.528-7.783 1.351-14.071-8.338-14.578-22.528zm-.008 57.14c.462-14.556 6.775-27.958 14.594-31.09-.455 14.454-6.726 27.844-14.594 31.09zm4.676-60.19c5.11-4.584 9.142-13.07 10.872-22.855 1.728 8.855 5.732 15.143 10.764 16.936-5.032 4.546-9.036 13.025-10.764 22.826-1.73-8.839-5.762-15.119-10.872-16.907zm26.192-5.417c-.492 14.268-6.645 27.358-14.36 30.444.5-14.363 6.694-27.465 14.36-30.444zm-14.366 33.965c7.748-1.363 13.925 8.274 14.373 22.356-7.701 1.444-13.918-8.18-14.373-22.356zm15.313 13.571c-1.704-8.752-5.675-14.939-10.71-16.654 5.035-4.608 9.006-13.079 10.71-22.81v.001-.002c1.703 8.77 5.645 14.964 10.603 16.684-4.958 4.571-8.9 13.033-10.603 22.78v-.002.003zm.947-48.063c7.627-1.276 13.716 8.322 14.2 22.25-7.578 1.353-13.71-8.233-14.2-22.25zm-.007 56.292c.446-14.369 6.599-27.576 14.209-30.59l.002.067c-.458 14.248-6.564 27.408-14.211 30.523zm4.592-59.285c4.93-4.469 8.826-12.745 10.52-22.308 1.692 8.654 5.56 14.805 10.416 16.58-4.856 4.433-8.724 12.7-10.416 22.278-1.694-8.636-5.59-14.779-10.52-16.55zm25.358-5.216c-.478 14.052-6.45 26.925-13.934 29.931.484-14.146 6.494-27.028 13.934-29.93zm-13.938 33.46l.002-.062c7.516-1.304 13.507 8.215 13.942 22.086-7.462 1.386-13.488-8.094-13.944-22.025zm4.464-3.078c4.885-4.519 8.739-12.846 10.393-22.426 1.65 8.645 5.479 14.764 10.29 16.48-4.811 4.482-8.64 12.802-10.29 22.398-1.654-8.629-5.508-14.74-10.393-16.452zm11.31-30.886c7.376-1.168 13.258 8.294 13.729 21.978-7.33 1.246-13.251-8.206-13.728-21.978zm-.006 55.44c.435-14.119 6.379-27.07 13.742-30.046-.43 14.026-6.334 26.966-13.742 30.046zm4.402-58.363c4.813-4.408 8.609-12.612 10.239-22.095 1.627 8.608 5.398 14.741 10.139 16.521-4.741 4.372-8.512 12.57-10.14 22.068-1.63-8.592-5.425-14.719-10.238-16.494zm24.678 49.62c-7.256 1.334-13.113-8.06-13.541-21.82 7.299-1.26 13.118 8.145 13.54 21.82zm-13.534-25.238c.469-13.936 6.304-26.603 13.526-29.434-.463 13.845-6.261 26.503-13.526 29.434zm13.534-32.828c-7.256 1.132-13.113-8.426-13.541-22.2 7.299-1.053 13.118 8.514 13.54 22.2zm-13.534-25.617c.469-13.92 6.304-26.425 13.526-29.054-.463 13.832-6.261 26.327-13.526 29.054z" fill="#1B7492"/><path d="M297.038 628.106c-1.644-8.619-5.493-14.676-10.363-16.256l-10.406 3.138c-4.913 4.542-8.834 12.982-10.54 22.691-1.71-8.66-5.655-14.73-10.644-16.304l-5.407 1.63-5.375 1.621c-5.093 4.658-9.15 13.318-10.892 23.251-1.746-8.865-5.832-15.07-11.005-16.65l-11.054 3.331c-5.22 4.73-9.386 13.468-11.2 23.493-1.814-8.912-6.01-15.13-11.313-16.706l-5.748 1.734v10.48c1.808 8.976 6.002 15.21 11.272 16.79-5.27 4.906-9.464 13.784-11.272 23.903v20.96c1.808 8.926 6.002 15.042 11.272 16.476-5.27 5.053-9.464 14.05-11.272 24.217v10.48l6.026-2.154c5.17-5.113 9.252-13.954 11.036-23.884 1.782 8.675 5.835 14.61 10.929 16.035l11.594-4.143c5.043-5.034 9.02-13.79 10.735-23.632 1.712 8.634 5.66 14.558 10.627 15.998l5.64-2.016 5.667-2.025c4.864-4.906 8.706-13.439 10.383-23.054 1.678 8.434 5.493 14.232 10.286 15.668l10.914-3.9c4.75-4.834 8.495-13.29 10.11-22.824 1.613 8.395 5.332 14.184 10.012 15.633l5.313-1.898v-9.868.002c-1.606-8.42-5.348-14.249-10.09-15.69 4.742-4.697 8.483-13.095 10.09-22.62v.002-19.736.003c-1.606-8.465-5.348-14.399-10.09-15.973 4.742-4.564 8.483-12.858 10.09-22.336v.003-9.869l-5.065 1.526c-4.798 4.48-8.62 12.848-10.26 22.473m-.906 8.432c-7.33 1.451-13.252-7.835-13.728-21.594 7.375-1.375 13.257 7.924 13.728 21.594m.007 3.416c-.43 14.037-6.334 27.143-13.743 30.43.435-14.13 6.38-27.249 13.743-30.43m-4.363-.333c-4.812 4.617-8.639 13.043-10.29 22.685-1.654-8.583-5.508-14.587-10.392-16.16 4.884-4.656 8.738-13.092 10.392-22.718 1.651 8.6 5.478 14.613 10.29 16.193m-11.21-24.12c-.477 14.064-6.448 27.101-13.933 30.318.483-14.158 6.494-27.209 13.934-30.319m-13.937 33.786c7.517-1.514 13.507 7.838 13.942 21.698-7.462 1.593-13.488-7.718-13.944-21.637l.002-.06m-1.801.63c-.46 14.261-6.565 27.591-14.213 30.918.446-14.379 6.6-27.759 14.21-30.985l.002.067m-.003-3.52c-7.58 1.565-13.712-7.849-14.201-21.854 7.626-1.488 13.715 7.94 14.2 21.853m-15.147-13.225v-.003c1.702 8.722 5.645 14.807 10.602 16.388-4.957 4.71-8.9 13.281-10.601 23.077v-.003l-.001.003c-1.704-8.704-5.675-14.78-10.708-16.354 5.032-4.75 9.004-13.33 10.708-23.11v.002m-.947-8.046c-.492 14.281-6.645 27.543-14.36 30.844.5-14.376 6.694-27.653 14.36-30.844m.007 56.322c-7.7 1.658-13.918-7.795-14.374-21.956 7.75-1.578 13.925 7.886 14.374 21.956m-16.288-24.872c-7.785 1.567-14.073-7.946-14.58-22.12 7.833-1.488 14.08 8.038 14.58 22.12m.006 3.52c-.455 14.467-6.726 28.034-14.594 31.498.463-14.567 6.776-28.147 14.595-31.499m-4.632-.3c-5.11 4.806-9.175 13.53-10.93 23.483-1.757-8.829-5.85-14.979-11.04-16.553 5.19-4.847 9.283-13.58 11.04-23.516 1.755 8.846 5.82 15.005 10.93 16.586m-11.907-24.75c-.506 14.502-6.85 28-14.804 31.39.514-14.6 6.901-28.112 14.804-31.39m-14.805 34.962c7.986-1.634 14.35 7.944 14.813 22.224-7.928 1.72-14.332-7.816-14.816-22.16l.002-.064m-17.013-25.35c8.106-1.609 14.58 8.053 15.093 22.39-8.054 1.691-14.572-7.955-15.094-22.39m15.096 25.951l.002.068c-.487 14.707-6.975 28.513-15.106 32.024.475-14.83 7.016-28.69 15.105-32.092m-15.096 35.674c8.106-1.834 14.58 7.645 15.093 21.97-8.054 1.915-14.572-7.55-15.094-21.97m-.008 58.044c.475-14.847 7.016-28.886 15.105-32.516l.002.07c-.488 14.72-6.976 28.707-15.107 32.446m4.883-61.443c5.24-4.942 9.38-13.739 11.18-23.713 1.799 8.806 5.91 14.884 11.07 16.383-5.16 4.901-9.272 13.686-11.07 23.675-1.8-8.786-5.94-14.853-11.18-16.345m26.945-7.103c-.506 14.517-6.85 28.191-14.804 31.804.514-14.616 6.901-28.304 14.804-31.804M201.11 731.22l.002-.063c7.987-1.859 14.352 7.541 14.814 21.807-7.928 1.943-14.332-7.414-14.816-21.744m4.744-3.478c5.19-4.992 9.284-13.838 11.04-23.826 1.756 8.8 5.82 14.843 10.93 16.282-5.11 4.948-9.174 13.785-10.93 23.788-1.756-8.78-5.85-14.815-11.04-16.244m12.016-32.608c7.833-1.704 14.08 7.646 14.58 21.714-7.785 1.785-14.073-7.55-14.58-21.714m-.007 57.14c.462-14.58 6.775-28.336 14.594-31.906-.456 14.481-6.726 28.221-14.594 31.906m4.675-60.45c5.112-4.869 9.142-13.58 10.874-23.463 1.726 8.761 5.73 14.823 10.763 16.334-5.032 4.828-9.037 13.531-10.763 23.43-1.732-8.743-5.763-14.798-10.874-16.3m26.192-6.883c-.492 14.296-6.645 27.731-14.359 31.248.5-14.39 6.694-27.84 14.36-31.248m-14.367 34.77c7.75-1.797 13.925 7.495 14.374 21.552-7.7 1.874-13.918-7.404-14.374-21.553m15.315 12.715c-1.706-8.657-5.677-14.62-10.71-16.055 5.034-4.89 9.005-13.582 10.709-23.41v.001-.002c1.703 8.676 5.645 14.65 10.604 16.092-4.959 4.85-8.901 13.531-10.603 23.374v-.003.003m.946-48.116c7.626-1.702 13.715 7.556 14.2 21.455-7.579 1.78-13.71-7.466-14.2-21.455m-.007 56.292c.446-14.393 6.599-27.943 14.208-31.384l.004.068c-.46 14.273-6.565 27.775-14.213 31.316m4.592-59.542c4.93-4.743 8.826-13.236 10.52-22.894 1.692 8.558 5.56 14.493 10.416 15.997-4.856 4.704-8.724 13.187-10.416 22.86-1.694-8.54-5.59-14.466-10.52-15.963m25.359-6.633c-.478 14.081-6.45 27.285-13.935 30.71.484-14.173 6.495-27.389 13.935-30.71m-13.939 34.24l.002-.062c7.517-1.724 13.507 7.46 13.942 21.308-7.462 1.801-13.488-7.34-13.944-21.246m4.466-3.328c4.884-4.792 8.738-13.334 10.392-23.007 1.651 8.554 5.478 14.46 10.29 15.905-4.812 4.752-8.639 13.285-10.29 22.973-1.654-8.537-5.508-14.432-10.392-15.87m11.31-31.519c7.375-1.58 13.257 7.554 13.728 21.211-7.33 1.656-13.252-7.464-13.728-21.21m-.007 55.44c.435-14.142 6.379-27.427 13.743-30.814-.43 14.05-6.335 27.32-13.743 30.814m4.401-58.61c4.813-4.677 8.61-13.092 10.24-22.667 1.626 8.518 5.397 14.44 10.14 15.953-4.743 4.64-8.514 13.048-10.14 22.636-1.63-8.499-5.427-14.414-10.24-15.922m24.678 48.24c-7.255 1.741-13.113-7.326-13.54-21.062 7.299-1.667 13.118 7.413 13.54 21.062m-13.534-24.48c.47-13.96 6.305-26.955 13.527-30.19-.464 13.871-6.262 26.853-13.526 30.19m13.534-33.584c-7.255 1.538-13.113-7.695-13.541-21.443 7.299-1.462 13.118 7.782 13.54 21.443m-13.534-24.86c.47-13.948 6.305-26.779 13.527-29.812-.464 13.86-6.262 26.678-13.526 29.812" fill="#1B7492"/><path fill="#A62339" d="M412.459 554.015l.008-.012-9.235-29.356v21.112l-.01.016 9.237 29.537zM403.222 630.348l9.237 30.225v-21.297l.009-.01-9.235-30.044v21.111zM403.222 714.922l9.237 30.912v-21.297l.009-.01-9.235-30.73v21.112zM412.476 596.66l-.009.014 2.575 8.279V583.57l-2.566-8.206z"/><path fill="#FEFEFE" d="M412.476 575.365v-.038l-.009.011zM412.459 575.312v.038l.008-.013z"/><path fill="#A62339" d="M412.476 681.923l-.009.01 2.575 8.474v-21.382l-2.566-8.398z"/><path fill="#FEFEFE" d="M412.476 660.627v-.037l-.009.01zM412.467 660.6l-.008-.027v.038z"/><path fill="#A62339" d="M412.476 767.185l-.009.01 2.575 8.664v-21.38l-2.566-8.59z"/><path fill="#FEFEFE" d="M412.476 745.888v-.037l-.009.01zM412.467 745.861l-.008-.027v.037zM376.356 542.348v.013l.002-.005zM394.11 558.54v.062l.013-.02zM394.126 558.58l-.003.003.003.01zM376.356 624.924v.013l.002-.004zM394.11 642.436v.062l.013-.017zM394.126 642.49v-.014l-.003.005zM376.356 707.499v.012l.002-.003zM394.126 726.386v-.012l-.003.004zM394.11 726.394l.013-.017-.013-.045zM376.356 542.348l-.016-.05v.085l.016-.022zM376.356 624.924l-.016-.051v.085l.016-.021zM376.356 707.499l-.016-.053v.085l.016-.02z"/><path fill="#A62339" d="M394.11 537.597l.008-.01-8.937-28.744v20.765l-.01.014 8.94 28.917z"/><path fill="#FEFEFE" d="M403.219 609.178l-.008-.026v.037z"/><path fill="#FEFEFE" d="M403.232 609.222v-.063l-.014.018z"/><path fill="#A62339" d="M394.119 579.572l9.092 29.579v-21.125l.01-.015-9.094-29.419v20.968zM394.11 621.493l.008-.01-8.937-29.407v20.763l-.01.014 8.94 29.583z"/><path fill="#FEFEFE" d="M403.219 693.75l-.008-.025v.037z"/><path fill="#FEFEFE" d="M403.232 693.797v-.063l-.014.017z"/><path fill="#A62339" d="M394.126 663.457l-.008.01 9.092 30.258V672.6l.011-.014-9.095-30.096zM394.119 705.38l-8.938-30.073v20.764l-.01.013 8.94 30.248V705.39z"/><path fill="#FEFEFE" d="M403.219 778.324l.014.016v-.032zM403.21 778.315l.008.01-.008-.028z"/><path fill="#A62339" d="M394.126 747.354l-.008.01 9.092 30.933v-21.125l.011-.013-9.095-30.773zM376.348 521.686l-8.654-28.153v20.428l-.01.015 8.656 28.322v-20.6z"/><path fill="#FEFEFE" d="M376.356 521.712l-.008-.025-.008.01V542.3l.016.05z"/><path fill="#A62339" d="M385.16 571.204l.01-.015-8.812-28.833-.002.005v20.637l-.008.013 8.812 28.995z"/><path fill="#FEFEFE" d="M376.348 563.01l.008-.013v-20.635l-.016.022v20.6z"/><path fill="#A62339" d="M376.348 604.26l-8.654-28.797v20.428l-.01.014 8.656 28.967v-20.601z"/><path fill="#FEFEFE" d="M385.16 592.006v.012l.002-.004zM385.181 591.989l-.019.024.02.063z"/><path fill="#A62339" d="M385.16 654.433l.01-.014-8.812-29.487-.002.004v20.637l-.008.01 8.812 29.652zM376.348 686.835l-8.654-29.44v20.427l-.01.013 8.656 29.61v-20.6z"/><path fill="#FEFEFE" d="M385.181 675.306v-.086l-.019.024z"/><path fill="#FEFEFE" d="M385.16 675.235v.014l.002-.005z"/><path fill="#A62339" d="M376.356 707.51v20.639l-.008.009 8.812 30.307v-20.802l.01-.011-8.812-30.144z"/><path fill="#FEFEFE" d="M385.163 758.474l.019.02v-.042zM385.16 758.471l.002.003-.002-.01zM367.67 575.386l.004.01v-.013z"/><path fill="#A62339" d="M367.674 575.384v-20.477l.01-.014-6.215-20.565v20.422l6.202 20.636z"/><path fill="#FEFEFE" d="M367.694 575.354l-.02.03v.011l.02.068zM367.67 657.316l.004.01v-.015z"/><path fill="#A62339" d="M367.674 657.311v-20.476l.01-.013-6.215-21.027v20.422l6.202 21.1z"/><path fill="#DF4165" d="M412.459 575.35l-9.237 12.661.01.035v21.113l9.235-12.486-.008-.028zM412.459 660.611l-9.237 11.975.01.035v21.112l9.235-11.8-.008-.027zM412.459 745.87l-9.237 11.289.01.037v21.113l9.235-11.114-.008-.027zM412.476 554.03v21.297l2.565-3.519v-21.382l-2.574 3.578zM412.476 639.292v21.298l2.565-3.328V635.88l-2.574 3.386zM412.476 724.554v21.297l2.565-3.137v-21.382l-2.574 3.195zM394.126 558.58l9.095-12.805-.01-.035v-21.123l-9.093 12.97.008.025zM394.126 621.509v20.967l9.095-12.128-.01-.035v-21.124l-9.093 12.295zM385.181 591.989l8.938-12.417-.009-.027v-20.943l-8.94 12.587.011.034zM394.126 705.406v20.968l9.095-11.452-.01-.037v-21.124l-9.093 11.619zM385.181 675.22l8.938-11.753-.009-.027v-20.943l-8.94 11.922.011.035zM394.11 726.394l-8.94 11.257.011.035v20.766l8.937-11.088-.008-.028zM376.356 542.348l.002.008 8.812-12.734-.01-.033v-20.802l-8.812 12.9.008.024zM385.17 612.853l-.01-.034v-20.802l-8.812 12.243.008.026v20.637l.002.01zM367.694 575.354l8.654-12.344-.008-.027v-20.6l-8.656 12.51.01.032zM385.17 696.084l-.01-.035v-20.8l-8.812 11.586.008.026v20.638l.002.009zM367.694 657.285l8.654-11.702-.008-.026v-20.6l-8.656 11.865.01.034zM367.694 739.215l8.654-11.057-.008-.026V707.53l-8.656 11.22.01.036zM367.674 513.943v-20.477l-.003-.008-6.202 9.308v20.421l6.215-9.21zM367.674 595.87v-20.475l-.003-.008-6.202 8.847v20.42l6.215-8.75zM367.674 677.8v-20.476l-.003-.007-6.202 8.384v20.42l6.215-8.286z"/><path fill="#FEFEFE" d="M367.694 657.285l-.02.026v.014l.02.069zM367.674 739.241l-.003.003.003.003z"/><path fill="#7E1B2B" d="M412.467 554.004l2.575-3.577v-15.464l-11.81-10.347v.032zM403.232 609.159v.063l9.235 30.043 2.575-3.385v-30.927l-2.575-8.28zM403.232 693.733v.063l9.235 30.731 2.575-3.194v-30.926l-2.575-8.474zM403.232 778.308v.031l11.81 12.983V775.86l-2.575-8.664zM394.126 558.592l9.095 29.42 9.238-12.661v-.038l-9.238-29.538-9.095 12.805zM394.126 642.49l9.095 30.096 9.238-11.975v-.038l-9.238-30.225-9.095 12.128zM412.459 745.834l-9.237-30.912-9.096 11.452v.013l9.096 30.772 9.237-11.288zM412.476 575.365l2.565 8.206v-11.763l-2.565 3.519zM412.476 660.627l2.565 8.397v-11.762l-2.565 3.328zM412.476 745.888l2.565 8.59v-11.764l-2.565 3.137zM385.17 571.19l8.94-12.588v-.062l-8.94-28.917-8.812 12.733zM394.11 642.436l-8.94-29.583-8.812 12.08 8.812 29.486 8.94-11.92zM394.11 726.332l-8.94-30.248-8.812 11.424 8.812 30.143 8.94-11.257zM376.34 542.384v-.086l-8.656-28.322-6.215 9.212v11.14l6.215 20.565zM376.34 624.958v-.085l-8.656-28.968-6.215 8.75v11.14l6.215 21.027zM376.34 707.531v-.085l-8.656-29.611-6.215 8.287v11.141l6.215 21.489zM394.119 537.587l9.092-12.97v-.02L385.18 508.8v.044zM385.181 591.989v.087l8.938 29.407 9.091-12.294v-.038l-9.09-29.579zM385.181 675.22v.086l8.938 30.073 9.091-11.618v-.037l-9.09-30.257zM394.119 747.364l-8.938 11.088v.042l18.03 19.821v-.017zM376.348 521.686l8.812-12.898v-.007l-17.466-15.303v.055zM385.16 592.006l-8.812-28.995-8.654 12.344v.109l8.654 28.797 8.812-12.243zM385.16 675.235l-8.812-29.652-8.654 11.702v.11l8.654 29.44 8.812-11.586zM376.348 728.158l-8.654 11.057v.054l17.466 19.202v-.006z"/><path fill="#336667" d="M361.47 488.024v14.742l6.201-9.308z"/><path fill="#7E1B2B" d="M361.47 554.75v29.484l6.201-8.847zM361.47 636.217v29.484l6.201-8.385zM361.47 732.427l6.201 6.817-6.202-21.56z"/><path fill="#A62339" d="M367.674 718.764l.01-.013-6.215-21.488v20.421l6.202 21.56.003-.003z"/><path fill="#FEFEFE" d="M367.674 739.241v.006l.02.022v-.054z"/><path fill="#E7E6E4" d="M116.31 514.495l228.895-10.506V263.187H116.31z"/><path d="M250.682 401.447v-13.5c-32.335 5.894-55.376 13.827-55.376 36.683 0 13.272 8.276 21.47 20.643 21.05 21.846-.742 34.394-18.683 34.733-44.233m-48.133-75.332c2.755 4.752 4.13 10.252 4.13 16.875 0 16.921-12.754 28.582-29.392 28.916-19.891.4-31.473-10.156-31.473-30.618 0-34.228 33.906-49.29 83.127-49.552 55.359-.293 76.986 16.202 76.986 60.615v77.998c0 7.583 1.325 10.427 5.627 10.281l11.218-.377v31.677l-59.265 2.347c-6.405-8.493-9.444-16.036-12.487-28.328-8.131 19.28-31.988 35.228-58.133 36.29-32.69 1.326-52.354-18.73-52.354-46.288 0-48.784 51.317-61.018 110.149-72.45v-9.852c0-21.163-9.49-30.178-30.624-29.94-7.195.082-12.691.88-17.51 2.406" fill="#363430"/><path fill="#1B7492" d="M345.206 503.989l160.851 30.828v-271.63H345.206z"/><path d="M391.415 461.681l9.146 1.394c3.015.46 3.959-1.227 3.959-9.46V405.74l-32.101-82.912c-2.694-6.657-4.126-9.385-7.515-9.518l-5.49-.216V287.18l58.478 1.104v27.107l-7.292-.286c-3.807-.15-4.186 5.332-2.097 11.234l18.912 49.304 19.461-49.356c1.816-4.958.202-9.75-3.015-9.876l-10.35-.406v-27.426l54.892 1.036v28.546l-8.717-.343c-4.424-.174-6.312 2.64-9.238 9.565l-33.571 79.05v51.865c0 8.437 1.192 10.492 4.382 10.98l9.862 1.502v27.785l-59.706-10.316v-26.567z" fill="#F5F5F3"/><path fill="#0E4359" d="M505.057 534.817l173.667-25.165V263.187H505.057z"/><path d="M622.904 393.57v-6.066c0-42.839-7.8-59.23-25.667-58.572-18.233.672-26.429 18.148-26.429 62.256v6.245c0 43.717 7.932 60.036 26.171 58.07 18.125-1.955 25.925-19.475 25.925-61.934m-97.274 3.614c0-61.21 29.646-103.317 72.123-104.03 40.051-.674 65.53 37.047 65.53 94.087 0 57.41-25.97 99.257-66.563 104.456-42.255 5.413-71.09-32.1-71.09-94.513" fill="#F5F5F3"/></g></svg>