<svg xmlns="http://www.w3.org/2000/svg" viewBox="0 0 100 71"><g fill="#FA6E34" fill-rule="evenodd"><path d="M44.6 2.147c0 1.177.049 3.117.108 4.294l.108 2.147 2.871-.122c3.154-.135 3.897-.332 4.78-1.27 1.51-1.604 1.278-4.838-.448-6.264C51.064.143 50.343 0 47.322 0H44.6v2.147zm5.328.357c.58.58.681.945.605 2.188-.067 1.083-.854 1.74-2.082 1.74-.674 0-.682-.007-.789-.803-.059-.439-.108-1.467-.108-2.263v-1.46h.888c.78 0 .96.073 1.486.598zM56.965.514c0 .091-.28 1.94-.623 4.112-.342 2.172-.592 3.976-.556 4.012.037.036 1.46.287 3.154.555l3.087.49.083-.357c.045-.192.102-.597.124-.879l.042-.522-3.303-.53.05-.697c.027-.381.106-.752.174-.82.068-.069.755-.016 1.519.116.763.131 1.446.188 1.51.124.064-.064.142-.464.174-.895.045-.597-.004-.787-.207-.813-.145-.018-.83-.123-1.51-.232l-1.245-.199.09-.638c.05-.348.141-.691.2-.755.059-.063.813-.003 1.66.133.846.136 1.59.211 1.635.166.045-.046.123-.431.173-.862.103-.895.507-.73-3.26-1.332-2.457-.393-2.971-.424-2.971-.177M39.389.705c-.415.085-.809.203-.863.257-.101.1.979 8.107 1.112 8.24.075.075 2.722-.299 2.821-.398.037-.037-.194-1.89-.514-4.129L41.364.613 40.758.58c-.33-.018-.954.04-1.37.125M32.385 2.181c-1.494.458-2.28 1.683-2.007 3.125.177.932.945 1.57 2.322 1.93.648.169 1.317.435 1.486.59.27.247.276.323.058.621-.208.285-.465.34-1.577.34-.763 0-1.324.074-1.32.174.005.096.114.531.241.962l.233.788.946.058c2.92.18 4.96-1.43 4.354-3.44-.286-.95-1.002-1.49-2.446-1.843-.663-.163-1.342-.439-1.502-.612-.277-.3-.273-.331.075-.68.426-.425 1.046-.457 2.025-.102.382.138.705.252.714.252.009 0-.106-.464-.258-1.045-.252-.961-.322-1.058-.888-1.214-.818-.225-1.493-.199-2.456.096M66.192 4.576c-.502 1.36-1.17 3.16-1.485 4.004l-.572 1.534.464.182c.254.1.88.327 1.378.5 1.062.369.948.478 1.697-1.627.265-.746.495-1.343.518-1.343.023 0 .29.088.59.193.777.275 1.084.984 1.198 2.758l.096 1.509 1.311.472c.714.257 1.334.45 1.361.423.12-.12-.293-3.847-.46-4.162-.213-.399-.237-.368.51-.664 1.094-.433 1.567-1.84.99-2.95-.327-.63-1.206-1.312-2.119-1.643l-2.622-.952-1.942-.704-.913 2.47zm4.083.152c.913.449 1.23 1.001.943 1.639-.229.505-.76.682-1.573.524-1.022-.198-1.055-.276-.623-1.47.216-.596.409-1.077.432-1.077.023 0 .39.171.821.384zM24.51 4.974c-.647.33-1.17.656-1.17.73 0 .072.431.911.954 1.856.523.945.92 1.758.88 1.8-.041.04-1.328-.342-2.871-.855l-2.797-.928-2.274 1.127 3.818 7.627 1.319-.688c.73-.38 1.32-.721 1.32-.763 0-.04-.444-.87-.98-1.832-.536-.961-.945-1.79-.904-1.832.04-.04 1.352.355 2.912.879l2.838.953 1.03-.522c.564-.286 1.029-.597 1.029-.688 0-.282-3.662-7.48-3.801-7.47-.074.005-.656.276-1.303.606M96.083 6.177c-2.396.56-5.66 1.5-8.348 2.404l-2.24.753-.067.597a131.81 131.81 0 01-.234 1.874c-.277 2.106-.353 2.064 1.529.838.933-.608 3.65-2.259 6.057-3.679 5.394-3.181 5.442-3.21 5.228-3.202-.1.004-.962.19-1.925.415M77.694 10.976c-2.058 1.352-3.798 2.517-3.875 2.595-.078.078.381.47 1.029.878l1.17.738 1.427-.78 3.22 2.024-.183 1.591 1.228.738c.697.419 1.228.645 1.228.522 0-.118.267-2.221.59-4.659.323-2.437.574-4.455.556-4.468-.166-.128-2.568-1.633-2.606-1.633-.027 0-1.726 1.101-3.784 2.454zm3.568 2.163c-.172.912-.36 1.646-.415 1.62-.381-.175-2.087-1.29-2.086-1.363.002-.132 2.674-2.065 2.75-1.989.036.036-.076.82-.249 1.732zM11.789 13.296c-2.009.752-3.502 2.697-3.502 4.56 0 3.084 3.248 5.305 5.958 4.074 1.71-.777 3.029-2.371 3.261-3.94.233-1.576-.75-3.434-2.298-4.344-.945-.555-2.457-.71-3.42-.35zm1.809 2.825c.697.356 1.276 1.593 1.038 2.216-.64 1.679-2.666 1.493-3.422-.315-.306-.73-.142-1.276.542-1.812.556-.437 1.111-.464 1.842-.09zM87.718 14.275l-.68.697 1.825 1.84-4.48 4.659 2.024 2.122 4.63-4.626 1.893 1.924.663-.647c.366-.356.664-.729.664-.829 0-.182-5.579-5.836-5.759-5.836-.054 0-.407.315-.78.696M71.254 15.865c-7.617 4.101-16.367 10.317-23.301 16.552-1.212 1.09-2.24 1.966-2.299 1.961-.06-.004-1.12-.522-2.365-1.155-4.122-2.094-9.576-4.05-14.954-5.363-4.066-.993-4.55-1.003-1.775-.04 3.22 1.12 5.073 1.903 7.95 3.361 3.933 1.994 7.865 4.51 10.588 6.776.564.47 1.1.879 1.187.906.085.027.585-.464 1.096-1.078 3.419-4.11 8.92-9.22 14.463-13.437 3.88-2.952 6.855-4.95 12.348-8.295l.415-.252-.672-.407c-.365-.22-.752-.41-.847-.414-.095-.005-.92.394-1.834.885"/><path d="M72.35 18.516c-10.207 6.396-19.545 14.499-24.9 21.607l-.974 1.293-1.328-1.315c-5.468-5.418-13.61-10.225-21.128-12.475-2.97-.888-3.433-.913-1.394-.073 6.39 2.63 12.668 7.038 18.801 13.2 1.287 1.293 3.031 3.171 3.903 4.203l1.577 1.865.998-1.724c4.274-7.384 11.947-15.831 20.993-23.107 1.925-1.549 5.831-4.461 6.572-4.9.515-.304.636-.56.266-.56-.12 0-1.643.894-3.386 1.986"/><path d="M76.184 17.924c-9.212 6.48-16.608 13.407-22.215 20.806-2.174 2.869-4.935 7.443-6.125 10.147-.307.697-.615 1.264-.688 1.269-.073.004-.774-.887-1.57-1.998-2.246-3.134-5.038-6.406-7.965-9.335-3.824-3.826-7.045-6.388-10.945-8.707-1.743-1.036-5.584-2.858-5.726-2.716-.037.037.382.36.946.73 5.427 3.56 11.189 8.775 15.181 13.744 3.172 3.947 5.336 7.378 8.23 13.048 1.134 2.222 2.085 3.898 2.131 3.756l.738-2.263c2.309-7.08 6.092-13.88 11.476-20.626 3.988-4.997 11.619-12.215 17.395-16.453 1.112-.816 2.077-1.636 2.14-1.818.081-.23-.008-.428-.29-.646-.216-.167-.488-.315-.58-.315-.097 0-1.055.618-2.133 1.377M2.914 22.631c-2.256 2.404-2.488 5.128-.6 7.063 1.89 1.938 4.464 1.89 6.282-.116.752-.83 1.616-2.586 1.695-3.448.05-.538-.013-.623-.86-1.17l-.912-.588-.098.481c-.275 1.343-.514 1.885-1.118 2.537-.626.675-.742.73-1.572.73-.813 0-.952-.061-1.494-.655-.463-.508-.596-.805-.592-1.319.007-.896.625-1.911 1.605-2.633l.813-.6-.963-.58c-.53-.32-1.052-.58-1.162-.58-.109 0-.572.398-1.024.878M93.013 25.094L89.41 27.19l1.486 2.553c.82 1.41 1.574 2.646 1.684 2.76.154.16.365.11.93-.223l.73-.431-.88-1.484c-.481-.812-.853-1.507-.821-1.534.032-.027.348-.215.713-.423l.656-.373.73 1.26c.404.697.756 1.294.788 1.335.033.042.399-.108.83-.34l.772-.414-.448-.796a53.4 53.4 0 00-.788-1.351l-.34-.556.58-.356c.316-.194.634-.357.697-.357.064 0 .484.63.93 1.393.445.763.85 1.393.896 1.393.166 0 1.451-.768 1.444-.862-.019-.249-3.063-5.299-3.22-5.343-.09-.025-1.792.901-3.767 2.052"/><path d="M23.647 26.934c.116.047.276.04.332-.017.06-.059-.042-.1-.224-.09-.2.009-.242.052-.108.107M95.585 34.486c-.952.746-.398 2.238.83 2.238 1.211 0 1.806-1.512.88-2.238-.25-.195-.646-.365-.855-.365-.21 0-.606.17-.855.365M2.428 34.515c-.963.486-.913 1.9.083 2.317.531.222.682.223 1.112.001.88-.452 1.017-1.578.266-2.173-.536-.424-.847-.455-1.46-.145M2.295 39.712c-.85.423-1.724 1.356-2.09 2.235-.574 1.37.097 3.565 1.545 5.057 1.03 1.06 1.183 1.096 2.122.49l.813-.523-.946-.904c-1.128-1.077-1.5-2.028-1.138-2.91.278-.674 1.105-1.197 1.902-1.2.891-.006 1.992 1.2 2.277 2.493l.212.962.946-.627c1.04-.69 1.037-.666.321-2.258-.507-1.127-1.643-2.365-2.594-2.827-.98-.474-2.4-.47-3.37.012M92.133 40.03c-2.091 1.324-2.3 4.196-.365 5.001.775.323 1.377.217 2.722-.479 1.128-.584 1.51-.563 1.51.08 0 .403-.847 1.31-1.643 1.762-.275.155-.2.252.58.742l.897.564.797-.733c1.975-1.818 2.248-3.913.647-4.96-.717-.47-1.593-.384-2.888.28-1.228.632-1.693.62-1.693-.042 0-.485.548-1.035 1.361-1.365l.598-.243-.465-.299c-1.361-.876-1.199-.851-2.058-.307M88.117 46.213c-.83.293-.83.293-2.933 2.548l-1.748 1.874 5.793 5.372 1.908-1.957-2.44-2.271.433-.464c.553-.595 1.011-.597 2.77-.012l1.378.46.83-.946c.451-.514.777-.992.714-1.049-.262-.234-2.938-1.023-3.47-1.023-.53 0-.562-.034-.547-.564.024-.829-.175-1.307-.697-1.674-.675-.474-1.245-.558-1.991-.294zm.365 2.365c.518.484.483 1.012-.114 1.725l-.5.597-.814-.68c-.448-.374-.813-.724-.813-.779 0-.146.697-.77 1.129-1.01.498-.278.683-.253 1.112.147zM8.254 47.164c-1.455.663-2.523 2.294-2.523 3.852 0 1.48 1.543 3.457 3.187 4.084 2.465.94 5.365-1.083 5.354-3.736-.012-3.067-3.367-5.408-6.018-4.2zm3.037 2.724c.675.645.597 1.533-.2 2.262-.83.76-1.613.802-2.29.126-.843-.843-.431-2.21.83-2.754.647-.28 1.086-.183 1.66.366zM14.47 55.567c-1.18 1.824-2.083 3.372-2 3.43 1.194.841 2.22 1.408 2.3 1.27l.977-1.674c.484-.829.92-1.492.98-1.492.059 0 .28.879.492 1.956.752 3.83.61 3.482 1.69 4.122.53.315 1.024.504 1.1.421.168-.182 4.194-6.341 4.194-6.416 0-.028-.514-.385-1.145-.796-.93-.606-1.175-.7-1.303-.498-.088.139-.527.888-.987 1.683-.461.796-.875 1.435-.93 1.435-.055 0-.356-1.227-.67-2.736-.627-3.001-.435-2.662-2.118-3.75l-.432-.279-2.149 3.324M80.017 53.438c-2.24 1.013-3.359 2.936-2.834 4.873.297 1.095 1.112 2.186 2.038 2.73 3.066 1.797 7.43-1.669 6.297-5.001-.807-2.371-3.35-3.574-5.5-2.602zm2.108 2.46c.531.419.98 1.212.98 1.733 0 .563-.913 1.377-1.544 1.377-.634 0-1.462-.647-1.764-1.377-.274-.663.03-1.478.685-1.834.63-.342 1.118-.312 1.643.102zM71.603 58.336c-1.875.873-3.436 1.617-3.477 1.658-.041.041.109.456.332.92l.407.846 1.128-.501c1.245-.553 1.261-.557 1.261-.345 0 .083.543 1.293 1.212 2.703l1.212 2.553 2.44-1.227-.324-.746c-.18-.412-.721-1.592-1.212-2.636-.49-1.045-.85-1.95-.805-2.023.046-.073.515-.307 1.046-.522.53-.215.962-.45.962-.522 0-.166-.662-1.746-.73-1.743-.027 0-1.577.712-3.452 1.585M25.962 58.788c-.332.172-.798.593-1.014.916-.674 1.005-.498 1.807.755 3.449.532.696.577.827.359 1.044-.375.374-1.112.12-1.892-.652l-.664-.658-.415.896c-.407.878-.409.902-.085 1.26.457.506 1.811 1.224 2.757 1.46 1.079.271 2.033-.047 2.586-.864.625-.921.47-1.807-.558-3.183-.892-1.194-.951-1.583-.252-1.665.508-.06 1.459.637 1.638 1.2.177.556.354.399.694-.613l.323-.961-.515-.547c-1.08-1.144-2.694-1.614-3.717-1.082M31.525 61.28c-.249 1.047-.235 1.064 1.142 1.376.515.117.946.29.946.38 0 .151-1.11 4.709-1.315 5.405-.062.207.212.333 1.24.572.73.17 1.342.281 1.37.25.027-.033.343-1.27.705-2.761.362-1.493.708-2.759.772-2.827.065-.07.54-.01 1.07.132.531.143 1.043.258 1.154.26.182.001.713-1.7.564-1.81-.036-.028-1.552-.414-3.377-.862a566.055 566.055 0 01-3.685-.912c-.332-.088-.397 0-.586.796M63.902 61.031c-2.108.648-3.283 2.075-3.278 3.978.005 1.907 1.038 3.366 2.73 3.855 1.411.409 3.626-.06 4.83-1.02l.498-.397-.223-.995c-.234-1.045-.339-1.15-.704-.713-.412.494-1.629.995-2.459 1.011-.713.015-.91-.063-1.402-.555-.477-.477-.573-.705-.573-1.368 0-.68.082-.869.565-1.297.744-.661 1.842-.95 2.788-.732.415.096.747.132.747.08 0-.05-.127-.546-.282-1.11l-.283-1.02-1.07.017c-.581.009-1.443.13-1.884.266M40.584 62.887c0 .218-.117 1.658-.257 3.183-.141 1.526-.258 3.112-.258 3.507v.721l1.228.125c.681.069 1.27.083 1.32.033.05-.05.15-.763.224-1.592.073-.829.177-1.545.232-1.6.177-.176 1.137.133 1.44.464.167.184.515.937.776 1.683l.473 1.352 1.253.149c.697.083 1.29.112 1.336.066.124-.124-1.09-3.266-1.39-3.598-.244-.27-.22-.335.245-.678.98-.723 1.014-2.395.066-3.145-.619-.49-1.344-.654-3.834-.87-2.887-.25-2.854-.253-2.854.2zm4.083 1.25c1.454.605.614 2.18-1.063 1.99-.489-.055-.496-.073-.431-1.018.037-.53.103-1.021.149-1.094.124-.2.697-.148 1.345.121zM56.21 62.63c-.49.075-.49.075-.393 1.053.365 3.697.328 4.118-.412 4.689-.465.358-1.378.268-1.826-.18-.429-.428-.484-.729-.723-3.912l-.107-1.426-1.336.108c-.73.059-1.343.115-1.352.124-.01.01.075 1.194.187 2.62.223 2.835.477 3.675 1.29 4.258.761.547 1.792.765 3.27.693 1.841-.09 2.853-.576 3.505-1.685.434-.74.475-.953.452-2.38a46.01 46.01 0 00-.14-2.834l-.117-1.269-.904.034a15.85 15.85 0 00-1.394.107"/></g></svg>