<svg xmlns="http://www.w3.org/2000/svg" viewBox="0 0 200 217"><g fill="#FA6E34" fill-rule="evenodd"><path d="M97.057.191c-1.135.06-2.322.207-2.64.327-.328.124-.702.176-.862.12-.154-.053-.633.107-1.048.35-.415.243-1.33.591-2.007.763-.676.172-1.443.496-1.68.71-.24.215-.52.338-.622.272-.111-.072-.185-.041-.185.076 0 .107-.6.5-1.32.862-.72.363-1.46.804-1.626.971-.174.175-.501.41-.763.55-.496.263-.764.48-2.117 1.71-.48.437-.98.726-1.112.642-.131-.083-.176-.049-.099.076.078.125-.185.532-.578.895-.393.363-.636.516-.534.338.123-.218.098-.273-.077-.164-.147.093-.261.317-.261.513 0 .197-.106.282-.24.197-.131-.084-.22-.064-.197.043.078.35-.297.995-.502.866-.107-.068-.196-.015-.196.116 0 .132-.18.436-.399.676-.637.698-.85.982-1.336 1.79-.25.414-.529.741-.632.741-.106 0-.125.099-.044.23.08.13.053.228-.065.228-.115 0-.373.393-.574.873-.459 1.091-1.366 2.65-1.663 2.859a.637.637 0 00-.231.458c-.016.37-.615 1.625-.86 1.8a.458.458 0 00-.196.349c0 .113-.158.567-.35 1.003a94.426 94.426 0 00-.588 1.375c-.13.312-.28.895-.328 1.266-.047.37-.187.722-.305.763-.121.043-.218.251-.218.47 0 .217-.097.489-.219.61-.117.118-.248.535-.283.906-.035.37-.136.792-.218.916-.085.127-.226.687-.317 1.255-.09.567-.228 1.132-.307 1.265-.164.273-.289.742-.365 1.375-.032.262-.116.579-.186.698-.187.32-.42 1.527-.534 2.77-.056.612-.147 1.473-.2 1.91a42.417 42.417 0 00-.164 1.658c-.037.48-.119.862-.186.862s-.153.48-.196 1.091c-.043.61-.096 1.34-.12 1.658-.023.306.032.804.12 1.08.09.284.071.513-.044.513-.114 0-.202.338-.196.753.006.416-.062 1.81-.153 3.12-.13 1.898-.1 2.408.153 2.574.196.129.213.208.044.208-.15 0-.22.196-.153.436.065.238.001.655-.142.916-.155.284-.172.48-.043.48.117 0 .273-.13.338-.283.066-.157.13-.055.141.229.013.283-.075.513-.196.513-.254 0-.184.545.123.96.128.173.255.589.292.96.035.356.264.981.502 1.374.238.393.436 1.102.436 1.56 0 .458.104.905.23.982.13.081.172.235.097.36-.07.116.022.218.196.218.384 0 .553.502.523 1.55-.011.414.076.71.197.67.296-.098.858.988.671 1.293-.089.145-.005.184.213.098.262-.103.327-.053.24.186-.064.174-.242.332-.382.338-.139.006-.01.113.273.229.411.168.51.349.426.785-.076.393-.009.568.218.568.174 0 .276-.082.218-.175-.062-.1-.03-.305.076-.48.126-.207.186-.109.186.305 0 .611.972 1.724 1.505 1.724.162 0 .415.126.59.295.254.245.261.207.043-.23-.175-.348-.182-.523-.022-.523.134 0 .24.12.24.273 0 .152.057.215.13.142.226-.23-.195-.832-.5-.714-.429.165-.393-.05.086-.53.357-.357.394-1.047.404-7.506.006-3.905.095-8.249.196-9.633.103-1.396.196-2.7.208-2.923.012-.219.097-.404.185-.404.09 0 .11-.196.044-.436-.067-.244.007-1.026.166-1.768.372-1.723.397-1.861.526-2.858.058-.451.225-1.255.377-1.822.152-.567.302-1.457.338-2.018.036-.545.175-1.068.306-1.145.131-.078.314-.557.403-1.059a9.45 9.45 0 01.513-1.723c.189-.437.374-1.033.404-1.299.03-.266.259-.894.502-1.374.245-.484.792-1.713 1.21-2.716.419-1.004.853-1.87.96-1.913.328-.132.903-1.397.748-1.644-.073-.116.016-.218.19-.218.186 0 .39-.25.47-.578.08-.324.497-.938.949-1.397.452-.458.913-1.02 1.047-1.276.137-.262.296-.402.371-.327.128.128.873-.524.873-.764 0-.37 1.02-1.188 1.287-1.03.175.102.24.1.153-.006-.082-.1-.022-.305.13-.444 1.07-.972 1.564-1.359 1.427-1.116-.11.195-.052.242.188.152.197-.073.292-.226.219-.349-.071-.118.109-.424.392-.668.59-.506 1.01-.595.756-.16-.092.156.062.054.346-.23.284-.284.625-.444.764-.36.171.105.202.022.098-.262-.129-.349-.096-.366.207-.109.262.222.4.24.509.066.242-.393 2.88-1.204 3.05-.939.081.128.177.11.23-.043.127-.367.935-.458 1.328-.149.265.209.298.17.174-.2-.138-.415-.124-.421.153-.066.17.219.373.326.458.242.218-.216 1.986-.276 1.986-.067 0 .27 1.527.407 1.942.174.24-.135.39-.094.48.131.076.192.316.282.578.219.327-.08.447.005.447.316 0 .327.045.352.196.109.165-.266.284-.259.742.043.306.202.747.394 1.004.437.262.044.58.151.742.25.152.095.364.13.458.077.09-.05.306.044.447.197.222.24.222.318 0 .425-.156.075-.076.12.185.106.699-.038 1.942.495 1.942.832 0 .19.175.26.459.186.261-.069.458-.013.458.13 0 .134.152.251.327.251.175 0 .404.128.491.273.113.188.066.219-.153.098-.174-.096-.12-.012.12.186s.535.3.655.225c.282-.175 1.126.637 1.002.964-.068.179.045.243.307.174.322-.084.451.055.578.622.088.393.234.62.316.491.099-.154.273-.166.491-.032.262.16.272.251.044.403-.24.16-.229.252.055.491.283.24.324.23.218-.054-.074-.197-.021-.416.12-.502.133-.081.25.022.25.218s.109.304.23.229c.13-.081.21-.058.185.055-.089.392.314.971.568.815.143-.088.11.036-.077.275-.186.24-.21.36-.054.267.305-.184.8.616.55.89-.081.09-.016.096.137.01.153-.084.294-.037.294.099 0 .153.11.194.262.098.188-.117.216-.044.099.262-.093.24-.098.359-.011.273.243-.244.785.283.785.763 0 .284.12.37.382.273.262-.097.33-.06.218.12-.095.153-.073.262.055.262.119 0 .282.273.36.6.077.327.32.793.534 1.025.215.233.536.895.71 1.462.173.568.385.997.468.95.084-.048.178.185.208.512s.223.694.425.807c.305.171.315.242.055.404-.24.149-.248.196-.033.196.157 0 .283.262.283.59 0 .327.165.836.371 1.145.204.305.307.556.23.556-.08 0 .019.251.229.578.265.415.29.579.087.579-.224 0-.221.076.01.36.161.196.335.796.383 1.32.047.523.186 1.059.305 1.178.12.12.218.447.218.731s.107.576.24.654c.137.082.212.306.175.524-.038.218.004.49.098.633.092.14.183.643.207 1.145.025.502.14 1.02.262 1.178.141.183.121.404-.054.622-.216.268-.2.448.076.862.218.327.28.642.164.84-.11.188-.063.557.115.906.312.61.23 1.075-.148.836-.12-.075-.154.025-.076.222.077.196.22.36.316.36.097 0 .174.349.174.785 0 .437.078.912.175 1.07.107.174.082.224-.065.13-.147-.093-.274.153-.328.633-.07.633-.03.739.208.545.196-.16.294-.16.294 0 0 .131-.08.29-.174.35-.095.059-.165.752-.153 1.516.012.764-.068 1.462-.175 1.527-.11.068-.078.338.075.622.342.633.283 2.02-.097 2.263-.174.111-.183.182-.022.184.328.005.306 2.741-.021 2.744-.122.001-.098.117.054.264.16.154.192.414.077.633-.109.204-.202.883-.208 1.516-.006.633-.058 1.35-.116 1.604-.364 1.592-.666 2.4-.898 2.4-.203 0-.197.055.022.193.392.25.392.499 0 .748-.253.16-.251.193.01.193.254 0 .263.066.046.328-.344.414-.276 3.572.075 3.51.133-.023.21.133.174.351-.044.262.044.353.262.273.175-.064.398-.008.48.12.137.218-.153.348-.611.275-.359-.057-.153.836.284 1.23.261.238.458.593.458.83 0 .24.156.414.37.414.365 0 .655-.226 2.4-1.87 1.005-.944 1.005-.944 1.637-.61.415.22.46.204.338-.116-.075-.196-.039-.371.077-.371.123 0 .218-.186.218-.425s.178-.666.403-.971c.218-.295.56-.862.742-1.233.183-.371.474-.773.633-.873.153-.096.295-.301.295-.425 0-.282.916-1.096 1.243-1.106.13-.004.72-.45 1.288-.976 1.985-1.835 2.465-2.238 2.662-2.238.103 0 .384-.197.594-.415.753-.785 1.234-1.2 1.39-1.2.096 0 .406-.24.677-.524.28-.291.884-.755 1.364-1.047.48-.292.862-.615.862-.73 0-.112.153-.208.327-.208.175 0 .414-.138.513-.295.101-.161.545-.477.982-.698.442-.224 1.407-.801 2.17-1.298a44.1 44.1 0 012.291-1.396c.502-.275.971-.576 1.037-.666.065-.09.338-.233.6-.316.267-.086.774-.404 1.145-.72.371-.317.835-.568 1.048-.568.218 0 .442-.098.524-.229.076-.123.348-.229.589-.229.24 0 .447-.111.447-.24 0-.13.13-.215.283-.186.406.076 1.375-.27 1.811-.649.207-.18.579-.336.84-.354.262-.018.43-.095.382-.175-.047-.077.426-.3 1.037-.49.61-.19 1.068-.265 1.003-.164-.062.097 0 .185.131.185s.251-.094.251-.196c0-.19 1.527-.722 2.4-.835.262-.034.505-.078.567-.103a.656.656 0 01.306-.011c.114.019.338-.086.534-.251.262-.22.385-.21.546.043.124.197.212.219.218.055.006-.151.186-.276.404-.28.916-.019 2.268-.189 2.77-.35.328-.104.713-.04 1.026.172.436.294.54.297.797.022.162-.175.411-.248.556-.164.143.084.873.173 1.614.197.851.027 1.43.16 1.56.36.174.265.245.261.437-.022.198-.293.261-.284.469.065.13.218.355.334.49.251.154-.093.192-.054.099.098-.08.131-.038.319.087.393.138.081.24.01.24-.164 0-.229.055-.218.218.044.123.196.223.258.23.142.006-.111.271.076.573.403.582.633.932.791.677.306-.08-.153.118.033.43.404.312.37.543.742.501.807-.042.067.164.135.47.154.676.042 1.289.515 1.087.839-.097.155-.007.182.254.076.306-.124.375-.082.284.174-.065.184.085.579.327.862.317.371.406.406.306.12-.077-.218-.042-.403.076-.403.208 0 .551 1.003.85 2.487.101.502.348.837.721.978.698.263.723.43.044.3-.284-.054-.394-.035-.24.042.15.076.283.37.283.633 0 .392.046.423.23.153.206-.306.229-.306.229 0 0 .305.023.305.24 0 .173-.244.194-.153.076.327-.107.436-.081.614.076.517.344-.211.563.78.254 1.152-.186.224-.167.27.074.174.206-.082.33.022.338.284.006.224.066.731.13 1.102.065.37.075.562.023.414-.054-.148-.262-.332-.459-.403-.294-.107-.332 0-.207.589.093.436.037.862-.142 1.08-.196.24-.207.305-.033.196.162-.1.373.12.55.579.45 1.156.446 1.224-.091 1.269-.35.029-.394-.014-.164-.157.175-.108.267-.338.207-.512-.077-.225-.188-.164-.382.207-.193.37-.205.638-.043.916.178.306.234.318.25.055.015-.226.088-.186.218.12.298.698.263.88-.108.573-.196-.163-.357-.252-.367-.202-.14.698-.13.865.04.759.373-.231.218.189-.197.531-.218.18-.267.256-.109.172.16-.086.284 0 .284.196 0 .2-.197.41-.458.49-.262.082-.459.246-.459.383 0 .165.099.158.317-.022.197-.164.512-.188.84-.066l.524.197-.524.142c-.284.076-.459.241-.382.36.082.126 0 .273-.196.349-.197.076-.339.236-.339.381 0 .131.11.184.23.11.133-.083.229-.033.229.12 0 .15-.131.212-.306.145-.34-.13-.924.444-1.03 1.01-.033.177.146.066.386-.24.241-.305.528-.49.622-.403.1.094.044.164-.13.164-.175 0-.245.065-.164.153.08.085.017.305-.142.501-.245.302-.23.329.12.197.218-.083.404-.073.404.022 0 .356-.306.47-.699.263-.229-.122-.643-.132-.927-.023l-.513.196.502.131c.524.137.688.846.197.849-.196.001-.175.071.065.224.334.212.306.245-.284.327-.164.023-.256.182-.218.378.05.262.002.272-.218.044-.155-.16-.447-.285-.644-.273-.305.018-.307.043-.01.16.37.147.916.65.916.844 0 .073-.153.13-.35.13-.441 0-.434.219.028.873.333.473.278.593-.245.53-.135-.015-.088.096.109.256.192.156.17-1.882.414.916.162 1.866 1.428 3.18 3.797 3.944.698.646 1.124.634.586-.016-.289-.35-.27-.364.166-.131.437.232.478.21.371-.197-.097-.37-.01-.458.447-.458.306 0 .689-.14.83-.305.166-.195.61-.28 1.222-.236 1.069.077 1.848-.395 1.627-.986-.076-.204.063-.373.369-.448.262-.063.49-.242.49-.381 0-.152.092-.12.219.076.173.268.22.23.229-.185.006-.284-.094-.46-.218-.382-.125.077-.23-.022-.23-.218 0-.206.197-.36.459-.36.277 0 .545-.23.676-.579.124-.327.38-.64.59-.72.334-.13.893-1.145.821-1.494-.02-.1.127-.11.346-.022.262.105.33.067.218-.12-.092-.153-.068-.273.054-.273.12 0 .278-.163.35-.36.071-.196.031-.295-.088-.218-.119.077-.218.033-.218-.098 0-.222.306-.321.567-.185.234.122.839-1.015.714-1.342-.066-.175-.033-.328.072-.328.191 0 .549-.742.578-1.2.006-.101.153-.266.35-.392.305-.197.305-.22 0-.23-.283-.009-.274-.061.054-.316.218-.17.33-.369.25-.447-.08-.081-.034-.273.11-.448.134-.163.246-.512.24-.752a3.79 3.79 0 01.109-.906c.065-.248.13-.698.142-.982.012-.305.121-.46.261-.37.148.093.211-.011.164-.273-.05-.284.055-.417.317-.399.501.034.504-.024.021-.507-.305-.305-.313-.407-.043-.578.174-.11.21-.207.076-.207-.143 0-.209-.295-.153-.687.053-.371.209-.688.338-.688.136 0 .112-.152-.054-.349-.203-.24-.22-.438-.053-.633.377-.44.38-.48.074-1.047-.165-.305-.193-.483-.065-.403.15.093.203-.35.153-1.288-.042-.785-.184-1.463-.316-1.505-.149-.048-.09-.306.152-.677.215-.327.264-.52.11-.426-.431.264-.633-.457-.257-.915.291-.356.278-.378-.136-.23-.262.094-.388.099-.295.011.091-.085.018-.501-.163-.938-.182-.436-.25-.732-.153-.665.093.064.174-.033.174-.208 0-.174-.101-.26-.218-.185-.133.086-.167-.055-.087-.36.08-.306.041-.446-.098-.36-.131.081-.207.01-.178-.164.086-.501-.288-1.181-.478-.873-.099.16-.206-.021-.272-.458-.082-.545-.032-.69.208-.6.174.066.253.018.174-.109a.505.505 0 00-.403-.229c-.393 0-.86-.829-.702-1.243.082-.214-.018-.405-.258-.491-.306-.11-.325-.188-.088-.35.234-.158.186-.237-.207-.338-.284-.072-.454-.223-.382-.338.07-.112-.054-.207-.273-.207-.218 0-.328-.07-.24-.153.091-.085.004-.327-.196-.545-.2-.219-.33-.534-.294-.71.036-.174-.067-.287-.23-.25-.165.036-.351-.088-.425-.284-.074-.196-.217-.292-.327-.218-.11.073-.129-.044-.044-.262.093-.24.055-.338-.098-.251-.137.077-.305-.076-.371-.338-.071-.284-.232-.409-.393-.306-.196.126-.233.022-.13-.37.079-.306.082-.421.007-.262-.208.44-.52.349-.6-.175-.04-.262-.177-.49-.302-.502-.121-.011-.358-.196-.502-.392-.24-.328-.274-.33-.284-.022-.01.305-.038.307-.229.01-.126-.196-.168-.415-.098-.523.067-.103-.142-.282-.469-.404-.327-.12-.59-.324-.59-.458 0-.126-.196-.24-.414-.24-.414 0-1.468-.896-1.069-.909.118-.004.033-.117-.185-.247s-.494-.18-.6-.11c-.112.075-.374-.065-.611-.327-.277-.305-.564-.41-.862-.316-.306.097-.392.052-.273-.142.127-.206.044-.242-.305-.13-.371.117-.453.078-.36-.175.087-.238-.044-.31-.48-.262-.35.038-.65-.067-.72-.251-.067-.174-.208-.267-.317-.207-.112.062-.257.01-.338-.12-.077-.124-.382-.23-.665-.23-.284 0-.654-.154-.808-.337-.212-.254-.392-.281-.72-.11-.327.172-.469.148-.567-.098-.078-.196-.392-.31-.785-.283-.371.024-.891-.05-1.2-.17-.677-.266-1.547-.323-1.4-.092.064.1.014.174-.117.174-.123 0-.34-.185-.469-.403-.194-.328-.242-.338-.25-.055-.01.305-.039.305-.23 0-.182-.29-.218-.284-.218.044 0 .261-.116.349-.35.261-.195-.073-.291-.221-.217-.338.074-.118.033-.207-.099-.207a.444.444 0 00-.35.196c-.202.329-1.056.131-1.414-.327-.222-.283-.319-.322-.277-.109.06.313-.631.47-2.18.495-.219.004-.451.104-.524.225-.079.131-.306.122-.567-.022-.306-.168-.437-.168-.437 0 0 .138-.338.203-.796.153-.502-.055-.744.001-.655.153.086.146-.098.193-.469.12-.349-.069-.61-.017-.61.12 0 .13-.065.17-.143.087-.08-.086-.327-.053-.567.076-.305.165-.425.156-.425-.032 0-.197-.087-.191-.35.021-.187.153-.556.228-.796.164-.262-.07-.426-.011-.397.142.066.343-1.446.85-2.101.705-.327-.073-.47-.026-.382.124.078.131.038.24-.087.24-.131 0-.388.164-.6.382-.297.305-.408.323-.556.087-.149-.235-.226-.229-.385.033-.197.323-.914.713-1.372.746-.133.01-.414.192-.633.41-.218.218-.528.393-.698.393-.166 0-.434.164-.589.36-.155.196-.338.305-.404.24-.066-.067-.255.054-.425.273-.255.327-.307.336-.316.054-.01-.305-.032-.305-.23 0-.126.197-.309.338-.436.338-.119 0-.49.238-.818.524-.327.286-.7.464-.818.393-.123-.074-.218.022-.218.218s-.144.35-.328.35c-.174 0-.414.137-.512.294-.103.163-.415.421-.699.578-.414.23-.514.23-.523 0-.006-.158-.118-.11-.251.109-.132.216-.437.393-.676.393-.24 0-.437.127-.437.283 0 .51-1.244 1.355-1.942 1.32-.11-.006-.305.208-.447.491-.142.284-.355.51-.491.52-.247.017-.785.425-1.614 1.224-.306.294-.642.525-.764.525-.121 0-.655.408-1.2.917-.546.509-1.045.916-1.124.916-.079 0-.49.335-.927.753-.437.418-.96.82-1.178.905-.218.085-.393.255-.393.382s-.436.486-.982.807c-.545.322-.894.58-.785.581.328.004-.437.632-.982.805-.708.226-.92-.153-.687-1.222.667-3.055.718-3.49.449-3.818-.232-.284-.233-.35-.002-.35.185 0 .234-.196.142-.567-.077-.305-.041-.567.076-.567.212 0 .198-.414-.027-.807-.07-.12-.082-.73-.027-1.364.054-.64.112-1.68.13-2.356.019-.676.11-1.211.208-1.211.1 0 .12-.142.043-.338-.073-.19-.006-.491.153-.688.239-.293.218-.323-.13-.185-.285.112-.364.078-.252-.11.09-.149.056-.468-.076-.708-.18-.327-.17-.467.043-.556.197-.084.204-.127.022-.142-.163-.014-.225-.273-.163-.688.054-.37.001-.723-.12-.796-.141-.085-.134-.382.021-.84.185-.545.173-.752-.054-.895-.156-.098-.228-.36-.153-.556.075-.196.05-.371-.054-.371-.11 0-.254-.153-.328-.35-.082-.217-.032-.287.131-.184.184.114.21.032.088-.273-.1-.25-.198-.633-.23-.895a3.076 3.076 0 00-.294-.916c-.134-.255-.211-.84-.175-1.32.037-.48-.04-.93-.174-1.015-.154-.098-.174-.043-.055.153.133.218.105.256-.098.13-.174-.106-.2-.258-.065-.392.259-.258-.568-3.435-.96-3.69-.194-.127-.186-.172.032-.172.153 0 .295-.115.295-.24 0-.13-.104-.175-.23-.098-.119.074-.228.022-.228-.109 0-.13.11-.251.229-.251.122 0 .015-.23-.23-.49-.244-.263-.402-.583-.337-.688.071-.118.032-.197-.099-.197-.117 0-.188-.261-.152-.567.035-.305-.056-.567-.197-.567-.143 0-.514-.546-.818-1.2-.304-.655-.745-1.448-.97-1.746-.233-.305-.358-.636-.285-.752.072-.113.022-.208-.109-.208-.14 0-.24-.109-.24-.261 0-.143-.163-.426-.36-.622-.198-.199-.712-.927-1.145-1.626-.433-.698-.893-1.392-1.026-1.549-.129-.153-.19-.283-.13-.283.137 0-.023-.197-1.584-1.942-.566-.633-1.094-1.34-1.166-1.56-.07-.218-.23-.404-.349-.404-.24 0-1.81-1.552-1.81-1.79 0-.084-.23-.26-.513-.392-.284-.133-.484-.381-.448-.556.053-.257-.01-.255-.338.01-.262.213-.342.228-.229.044.108-.175-.054-.479-.425-.796-.328-.28-.868-.75-1.19-1.036-.327-.291-.676-.536-.785-.552-.764-.108-1.353-.46-1.196-.714.087-.14.007-.185-.19-.109-.195.076-.448-.044-.6-.284-.141-.224-.632-.55-1.069-.709-.436-.159-.807-.374-.807-.469 0-.101-.142-.12-.338-.043a.372.372 0 01-.48-.219c-.083-.204-.327-.317-.59-.272-.24.04-.39-.015-.324-.12.122-.197-.755-.587-1.104-.49-.102.027-.339-.068-.491-.198a1.857 1.857 0 00-.72-.338 48.107 48.107 0 01-1.8-.459C105.38.585 104.333.37 103.242.23c-.262-.034-.458-.078-.458-.103 0-.065-4.593.005-5.727.065zm79.605 52.877c0 .131-.098.169-.23.088-.13-.081-.229-.24-.229-.371s.099-.169.23-.088c.13.082.229.24.229.371zm5.661 11.935c-.071.177-.128.12-.141-.142-.012-.24.042-.372.12-.294.073.073.084.284.021.436zm.964.273c.225.274.193.308-.2.207-.262-.067-.412-.207-.34-.316.177-.273.234-.262.54.109zM182.4 70c0 .12-.12.229-.25.229-.132 0-.184-.11-.11-.23.08-.13.188-.228.25-.228.063 0 .11.098.11.229zm-2.651 7.789c.077.125.033.229-.098.229a.237.237 0 01-.24-.23c0-.13.042-.228.098-.228s.159.098.24.229z"/><path d="M110.988 24.519c0 .174.091.271.196.207.118-.072.142-.207.061-.338-.185-.299-.257-.262-.257.13M177.24 58.763c.08.131.184.23.24.23.056 0 .098-.099.098-.23a.237.237 0 00-.24-.23c-.13 0-.176.105-.098.23M181.484 65.876c0 .125.109.229.24.229.13 0 .175-.104.098-.23-.081-.13-.184-.228-.24-.228-.056 0-.098.098-.098.229M23.735 67.141c-3.185.449-8.045 1.92-9.032 2.734-.194.16-.873.584-1.528.954-.654.37-1.503.917-1.909 1.233l-1.91 1.487c-1.619 1.266-4.014 4.076-5.183 6.083-1.322 2.27-1.803 3.2-1.951 3.775-.095.368-.384 1.135-.633 1.68-.248.546-.493 1.173-.534 1.375-.042.205-.227.949-.414 1.669-.186.712-.418 2.214-.513 3.327-.166 1.92-.172 7.347-.01 8.095.394 1.81 1.035 4.074 1.391 4.909.168.393.372.946.467 1.265.308 1.043 1.481 3.47 2.267 4.691.421.655.842 1.424.925 1.691.081.262.229.491.316.491.09 0 .356.36.59.797.236.442.924 1.32 1.548 1.974.625.655 1.124 1.285 1.124 1.419 0 .13.06.18.131.109.169-.169 1.88 1.636 2.049 2.16.07.218.277.42.438.425.167.006.72.399 1.222.868 1.266 1.183 1.854 1.652 2.073 1.652.107 0 .524.312.916.688.393.374.775.687.84.687.066 0 .764.442 1.55.981.785.54 1.709 1.125 2.05 1.299.35.177.56.417.48.545-.082.134-.032.16.12.062.259-.165 1.353.334 2.16.985.219.176.393.24.393.142 0-.092.175-.03.371.134.436.362 1.113.755 2.03 1.18.392.181.836.494 1.014.715.246.306.36.328.513.099.145-.218.196-.221.196-.011 0 .156.142.283.316.283.184 0 .436.142.6.339.165.196.343.324.426.305.077-.018.436.087.785.23.35.141.749.26.873.26.13 0 .173.094.098.219-.075.125.033.195.251.164.213-.03.796.148 1.32.404.524.255 1.035.433 1.156.403.12-.03.437.055.699.187 1.2.604 3.732 1.4 4.778 1.501.633.061 1.24.24 1.342.396.143.22.185.207.185-.055 0-.218.062-.245.175-.076.094.14.436.236.742.207.305-.03.753.102.97.284.262.22.404.25.404.087 0-.18.175-.186.61-.022.328.123.769.168.95.098.187-.072 1.168-.18 2.193-.242 2.029-.123 2.302-.22 1.484-.532-.371-.141-.598-.124-.71.054-.122.197-.163.197-.163 0 0-.15.164-.397.382-.578.261-.217.327-.227.207-.033-.094.153-.049.284.098.284.15 0 .666.355 1.145.79 3.818 3.45 11.346 3.5 15.23.097 3.01-2.637 3.056-8.102.087-10.594-1.647-1.383-3.076-1.838-7.593-2.414-3.294-.421-3.717-.592-4.177-1.69-.816-1.947 1.188-4.043 3.872-4.05 1.92-.004 3.87 1.335 4.15 2.85l.148.807h5.52l-.153-.982c-.351-2.247-2.24-4.732-4.45-5.853-2.108-1.069-5.455-1.465-7.812-.924-2.836.65-5.284 2.52-6.33 4.835-.546 1.21-.615 1.615-.522 3.033.127 1.942.677 3.136 1.987 4.318 1.744 1.574 3.185 2.087 6.916 2.465 2.793.283 4.16.719 4.8 1.53.95 1.207.35 3.298-1.178 4.096-.473.247-1.462.432-2.596.486-1.571.075-1.98.012-2.858-.44-1.237-.638-1.962-1.655-2.175-3.05l-.16-1.048-2.673.065-2.672.066.043 1.21c.024.677.249 1.674.508 2.259.541 1.222.608 1.627.118.72-.189-.35-.44-.633-.56-.633-.123 0-.219-.153-.219-.349a.345.345 0 00-.349-.35c-.192 0-.52-.195-.73-.435-.21-.24-.49-.37-.622-.288-.306.189-1.05.243-.95.07.044-.075-.008-.35-.12-.633-.132-.34-.48-.557-1.069-.67-1.112-.212-2.421-.756-2.644-1.098-.11-.169-.17-.141-.17.077 0 .23-.115.174-.36-.175-.2-.283-.492-.508-.655-.502-.166.006-.423-.141-.589-.338-.163-.194-.47-.349-.687-.349-.218 0-.524-.155-.687-.349-.166-.196-.41-.335-.557-.316-.654.083-.92-.053-.48-.246.385-.17.338-.205-.294-.224-.455-.013-1.255-.341-2.019-.829-.698-.445-1.187-.675-1.09-.512.093.158-.033.117-.273-.088-.24-.204-.731-.452-1.059-.534-.327-.082-.793-.355-1.003-.59-.216-.24-.52-.436-.677-.436-.444 0-1.609-.654-2.056-1.156-.234-.262-.559-.458-.758-.458-.19 0-.567-.194-.83-.426-.26-.231-1.21-.903-2.083-1.473-.873-.57-1.917-1.295-2.29-1.592a17.117 17.117 0 00-1.528-1.048c-.456-.272-1.244-.89-1.724-1.352-.49-.472-1.287-1.22-1.789-1.68-.494-.453-1.377-1.375-1.942-2.03a160.917 160.917 0 00-1.429-1.636c-.216-.24-.393-.53-.393-.643 0-.112-.13-.257-.283-.315-.569-.215-3.66-6.613-4.008-8.293-.185-.894-.43-2.062-.548-2.618-.39-1.826-.079-6.786.57-9.098.513-1.833 2.245-5.745 2.677-6.047.087-.06.213-.303.294-.564.08-.257.496-.851.95-1.353.452-.502.882-1.01.977-1.157.661-1.013 4.15-3.677 6.353-4.85 4.35-2.318 12.524-2.69 19.68-.894 4.734 1.187 11.783 4.217 16.91 7.27 1.266.753 2.476 1.436 2.673 1.507.202.074.665.341 1.058.612 2.03 1.398 3.359 2.014 3.578 1.657.096-.156.18 4.593.186 10.571.006 5.979.07 10.943.141 11.052.072.107 1.266.196 2.64.196h2.51l.01-5.673c.01-6.262.215-7.482 1.408-8.368.756-.562 2.596-.74 3.382-.33.317.167.793.745 1.08 1.312.492.975.513 1.255.524 7.037l.01 6.022h5.04l-.01-6.928c-.007-4.014-.107-7.276-.239-7.756-.413-1.506-1.588-2.992-2.936-3.717-.987-.53-1.658-.698-3.251-.81-1.113-.079-1.964-.074-1.91.01.056.086-.195.22-.566.306-.372.085-1.08.505-1.604.95l-.938.795-.131-7.92-2.63-.065c-1.548-.039-2.723-.173-2.857-.327-.17-.193-.12-.222.185-.11.283.105.383.064.316-.13-.052-.15-.272-.269-.469-.251-.212.018-.432-.164-.513-.426-.08-.262-.277-.402-.458-.327-.174.072-.305.053-.29-.044.068-.458-.065-.736-.288-.602-.135.081-.373-.041-.545-.281-.173-.24-.377-.355-.47-.262-.09.09-.4-.098-.698-.426-.294-.324-.927-.795-1.407-1.047-.48-.252-1.079-.635-1.33-.85-1.438-1.23-6.983-4.24-10.54-5.719a975.869 975.869 0 01-2.508-1.046c-5.113-2.15-14.314-3.313-19.943-2.52M180.578 76.24c-.31.501-.306.503.164.087.524-.465.597-.6.327-.6-.097 0-.316.23-.49.513M104.311 80.677c-2.024 1.03-1.876 4.11.24 4.996 1.026.43 2.443.084 3.217-.782 1.967-2.202-.795-5.569-3.457-4.214"/><path d="M37.154 94.098v12.546h5.04v-24.96l-.524-.033a95.47 95.47 0 00-2.52-.066l-1.996-.033v12.546M20.278 82.49c-.628 1.506-9.088 23.358-9.199 23.761-.098.357.143.393 2.609.393h2.716l2.008-5.258h9.752l2.008 5.149 2.684.065c1.549.038 2.683-.026 2.683-.152 0-.234-9.1-23.74-9.435-24.372-.181-.34-.558-.392-2.849-.392h-2.64l-.337.807zm4.472 9.852c.777 2.029 1.407 3.803 1.407 3.96 0 .207-.774.278-2.869.262-1.57-.012-2.873-.091-2.878-.175-.01-.196 2.833-7.833 2.893-7.767.022.024.67 1.69 1.447 3.72zM89.082 87.657c-2.4.57-4.814 2.534-5.907 4.805-.901 1.873-1.197 3.447-1.06 5.65.335 5.383 4.567 9.018 10.153 8.72 1.614-.086 2.154-.228 3.61-.952 1.091-.542 2.016-1.2 2.548-1.81.816-.939 1.606-2.201 1.456-2.327-.048-.04-1.058-.35-2.236-.685l-2.15-.61-.665.807c-1.83 2.22-5.696 1.658-7.058-1.026-.853-1.682-1.2-1.592 6.196-1.592h6.633V97.37c0-4.495-2.564-8.31-6.393-9.512-1.527-.48-3.613-.562-5.127-.202zm3.993 4.474c.698.35 1.943 1.768 2.11 2.404.11.414-.081.436-3.878.436h-3.992l.435-.851c1.129-2.204 3.29-3.011 5.325-1.99zM119.824 87.632a5.719 5.719 0 00-2.312 1.337l-.633.591v-1.92h-5.28v19.004h5.28v-5.564c0-6.35.201-7.562 1.396-8.415 1.462-1.043 3.415-.793 4.376.56.494.696.514.939.588 7.07l.076 6.349h5.019l.01-4.975c.006-2.727.057-5.29.112-5.673.382-2.661 1.24-3.778 3.041-3.953 1.44-.14 2.472.383 2.978 1.51.326.725.382 1.745.382 6.916v6.066l5.15.13v-6.872c0-6.437-.031-6.955-.481-8.16-.953-2.55-2.814-3.911-5.672-4.146-2.051-.169-4.376.512-5.739 1.68l-.916.786-.938-.906c-.517-.499-1.418-1.07-2.007-1.27-1.113-.381-3.411-.456-4.43-.145M149.563 87.641c-4.477 1.125-7.27 5.235-6.985 10.275.19 3.339 1.642 5.901 4.301 7.589 3.491 2.216 8.695 1.726 11.76-1.108.655-.606 1.89-2.507 1.724-2.652-.048-.042-1.047-.355-2.225-.697l-2.138-.622-.83.85c-.446.459-1.08.946-1.374 1.056-.8.3-2.706.24-3.557-.114-.918-.38-2.052-1.705-2.394-2.796l-.246-.785h13.484v-1.332c0-.741-.15-1.9-.338-2.618-.824-3.142-2.245-4.987-4.833-6.276-1.503-.749-1.964-.867-3.6-.924-1.025-.036-2.272.034-2.749.154zm3.098 4.136c1.1.3 2.144 1.187 2.71 2.3l.454.894h-3.993c-3.862 0-3.989-.015-3.873-.458.065-.25.523-.917 1.002-1.462.772-.878 1.431-1.236 2.74-1.485.059-.011.502.087.96.211zM188.967 87.667c-4.778 1.12-6.783 6.336-3.556 9.251 1.27 1.147 2.53 1.634 5.63 2.172 1.985.345 2.794.588 3.185.957.677.64.67 1.382-.024 2.19-.501.583-.675.632-2.224.632-1.985 0-2.968-.53-3.398-1.832l-.267-.808h-5.171l.199 1.07c.666 3.584 4.36 5.927 8.986 5.698 3.273-.162 6.001-1.577 6.99-3.626.549-1.134.652-3.616.194-4.67-.945-2.174-2.864-3.3-6.55-3.84-2.88-.423-3.707-.793-3.698-1.657.008-.764.184-1.053.86-1.412 1.397-.74 3.29-.19 3.878 1.128l.4.895h4.952v-.699c0-2.213-2.356-4.592-5.324-5.375-1.33-.352-3.73-.387-5.062-.074M45.161 89.582c0 1.069-.024 2.02-.054 2.116-.03.096 1.985.229 4.472.295l4.528.12-9.404 10.407v4.124h15.579v-4.342l-4.67-.054-4.669-.055 9.339-10.32V87.64h-15.12v1.942M103.133 97.142v9.502h5.04V87.64h-5.04v9.502M163.614 97.13v9.514h2.52c1.397 0 2.53-.024 2.542-.055.012-.03.09-2.585.175-5.662.141-5.192.19-5.678.654-6.567.274-.524.879-1.248 1.331-1.593.706-.538 1.047-.634 2.291-.643l1.462-.011.022-4.539-1.55.114c-1.592.116-2.757.558-3.665 1.391l-.524.481-.021-.556a21.254 21.254 0 00-.055-.906c-.026-.284-.513-.361-2.607-.414l-2.575-.066v9.513M109.853 110.746c-1.01.618-1.462 1.353-1.462 2.378 0 2.335 2.313 3.672 4.277 2.474.949-.58 1.265-1.187 1.265-2.43 0-1.2-.49-2-1.527-2.491-1.004-.476-1.692-.457-2.553.07M148.647 111.542c-.076.196.006.394.196.47.364.148.412-.044.125-.503-.16-.256-.212-.25-.321.033M138.174 115.35c0 1.265-.078 2.3-.175 2.312-.097.012-.785.041-1.549.066l-1.374.043-.131 4.233h3.229v4.8c0 5.324.173 6.285 1.414 7.855 1.534 1.942 5.59 2.872 7.815 1.793 1.847-.896 1.891-1.051.906-3.168l-.863-1.854-.632.549c-.873.757-2.05.755-2.8-.004-.559-.566-.56-.578-.56-5.269v-4.702h4.364l-.131-4.21-4.124-.023-.13-4.712h-5.26v2.29M74.747 117.766c-4.766 1.07-7.585 5.285-7.11 10.63.137 1.528.339 2.26.989 3.58.977 1.983 2.128 3.096 4.223 4.08 1.432.675 1.691.72 4.156.72 2.488 0 2.712-.04 4.157-.723 4.431-2.095 6.458-7.329 4.773-12.325-1.515-4.492-6.322-7.054-11.188-5.962zm3.797 4.682c2.858 1.298 3.428 6.568.96 8.866-1.183 1.101-3.099 1.31-4.342.473-2.07-1.394-2.82-4.22-1.827-6.881.513-1.375 1.11-2.033 2.307-2.545 1.072-.458 1.745-.438 2.902.087zM95.344 117.667c-2.684.523-5.144 2.488-6.443 5.144-.764 1.563-.78 1.648-.78 4.462 0 2.771.027 2.922.747 4.397.939 1.92 2.94 3.827 4.796 4.572 1.118.448 1.734.533 3.85.533 2.379 0 2.607-.042 4.048-.75 2.41-1.184 3.936-3.177 4.673-6.1l.15-.59-2.717.011-2.717.011-.472.96c-1.276 2.597-4.518 2.711-6.164.218-1.556-2.356-.945-6.563 1.138-7.84 1.98-1.216 4.04-.56 5.163 1.644l.422.829 5.172-.066-.07-.698c-.11-1.09-1.279-3.4-2.178-4.298-2.167-2.167-5.367-3.073-8.618-2.44M123.337 117.664c-1.57.31-3.437 1.37-4.61 2.617-1.334 1.42-1.964 2.596-2.417 4.516-1.118 4.735.857 9.275 4.889 11.243 1.446.706 1.614.735 4.255.735 2.487 0 2.873-.058 4.058-.614 2.029-.952 4.74-3.75 4.167-4.302-.108-.104-1.102-.454-2.214-.778l-2.019-.59-.806.895c-1.307 1.45-3.776 1.718-5.477.595-.682-.45-1.62-1.839-1.832-2.711l-.154-.633h13.331v-1.44c0-6.327-5.15-10.722-11.17-9.533zm3.317 4.359c.856.325 1.624 1.072 2.155 2.098.237.458.44.896.44.949 0 .053-1.766.102-3.905.108-4.429.012-4.476-.014-3.228-1.734 1.079-1.487 2.88-2.051 4.538-1.421zM108.631 127.153v9.513h5.04V117.64h-5.04v9.513M43.568 129.564c0 .131.099.23.23.23.13 0 .229-.099.229-.23a.224.224 0 00-.23-.229c-.13 0-.229.098-.229.23M45.161 135.063c0 .13.098.229.23.229.13 0 .228-.099.228-.23a.224.224 0 00-.229-.228.224.224 0 00-.229.229M109.548 138.957c0 .118-.295.183-.644.142-.523-.062-.65.013-.68.404-.075.981-.038 4.176.059 5.062.137 1.256.138 17.324 0 18.982-.061.742-.168 1.524-.24 1.767-.086.284-.029.44.163.447.196.007.214.066.054.175-.349.24-.643 1.057-.305.849.175-.108.215.056.12.493a35.141 35.141 0 00-.273 1.461c-.07.437-.15.913-.174 1.037-.023.122-.14.382-.251.556-.138.218-.124.357.043.415.18.062.165.294-.054.818-.164.393-.27 1.019-.23 1.353.057.458-.02.622-.294.622-.283 0-.305.066-.092.283.39.399.31.873-.148.873-.327 0-.334.036-.043.218.304.19.297.306-.055.895-.234.392-.34.845-.25 1.08.107.283.064.348-.143.218-.238-.15-.242-.087-.021.327.255.48.24.496-.23.24-.414-.225-.468-.22-.309.033.275.436.31.873.07.873-.108 0-.133.163-.055.36.094.24-.022.403-.35.49-.37.1-.434.2-.26.415.125.156.162.48.082.72-.337 1.004-1.59 3.427-1.861 3.597-.156.097-.284.429-.284.734s-.103.557-.229.557c-.129 0-.229.152-.229.348 0 .677-.796 2.152-1.222 2.264-.24.063-.372.218-.294.344.076.123.01.314-.142.414-.358.232-1.091 1.604-1.091 2.04 0 .175-.133.328-.284.328-.343 0-1.09.807-1.09 1.178 0 .139-.252.492-.535.753-.284.26-.494.614-.448.753.048.143-.109.32-.349.392-.235.07-.557.393-.698.698-.14.306-.408.573-.578.579-.174.005-.503.261-.731.567-.225.302-.71.681-1.058.83-.35.147-.644.372-.644.49 0 .116-.153.366-.327.535-.175.168-.363.428-.404.556-.042.133-.305.26-.589.283-.327.028-.513.194-.513.459 0 .392-.564.572-.752.24-.057-.102-.073-.066-.037.087.064.273-.847 1.222-1.174 1.222-.106 0 .01-.162.25-.35.35-.272.364-.317.066-.207-.205.077-.555.404-.758.71-.449.676-1.3 1.048-1.546.676-.104-.158-.172-.076-.172.207 0 .306-.16.481-.458.503-.546.04-1.187.628-.962.883.086.097.034.107-.119.021-.152-.085-.33-.056-.406.066-.2.327-1.48.931-1.48.698 0-.112-.197-.145-.46-.076-.26.068-.457.218-.457.349 0 .128-.208.176-.47.109-.261-.067-.41-.028-.338.087.079.125.062.214-.043.224-.611.059-1.087.22-1.31.442-.132.132-.468.24-.752.24s-.581.112-.666.25c-.086.143-.436.209-.807.153-.393-.059-.698.016-.763.186-.061.158-.317.23-.579.163-.262-.066-.469-.014-.469.12 0 .132-.25.196-.556.142-.305-.054-.625.01-.71.142-.105.166-.24.168-.436.004-.347-.288-1.278-.07-1.283.301-.002.148-.1.11-.222-.087-.123-.196-.221-.234-.225-.087-.008.287-.408.3-.844.026-.276-.173-1.396-.059-2.815.287-.96.235-4.13.186-4.538-.07-.153-.096-.284-.072-.284.052 0 .123-.13.183-.283.13-.154-.053-.655-.143-1.091-.196-.447-.054-1.44-.249-2.226-.436-.785-.188-1.471-.285-1.538-.219-.065.066-.12.011-.12-.12 0-.134-.36-.24-.818-.24-.458 0-.967-.124-1.157-.283-.196-.165-.397-.224-.48-.142-.076.076-.272.036-.425-.087-.153-.124-.374-.2-.48-.167-.415.132-4.887-1.862-4.887-2.179 0-.112-.098-.135-.23-.054-.13.08-.229.048-.229-.077 0-.12-.567-.506-1.265-.862-.698-.355-1.265-.731-1.265-.84 0-.117-.079-.147-.197-.075-.37.23-2.88-1.971-2.6-2.28.087-.099.036-.108-.116-.023-.155.087-.524-.093-.851-.414-.327-.321-.517-.572-.437-.579.078-.005-.185-.323-.578-.698-.393-.375-.72-.746-.72-.818 0-.152-.414-.644-1.134-1.345-.306-.298-.502-.618-.426-.695.078-.078-.159-.447-.523-.818-.365-.371-.666-.78-.666-.905 0-.132-.196-.426-.458-.688-.254-.253-.463-.687-.47-.97a1.908 1.908 0 00-.326-.939c-.179-.24-.264-.559-.197-.73.064-.163-.054-.48-.25-.677-.207-.206-.367-.546-.36-.764.005-.218-.087-.49-.208-.61-.118-.119-.29-.699-.373-1.266-.216-1.462-.216-1.462-.364-1.724-.247-.435-.23-9.382.02-10.975.598-3.796 2.877-8.989 5.85-13.33.688-1.004 3.144-4.242 3.542-4.67 1.382-1.484 1.635-1.841 1.479-2.095-.094-.152-.075-.207.046-.13.11.07.345-.022.502-.197.157-.174.239-.327.175-.327-.066 0 .294-.415.796-.916.502-.502.813-.917.687-.917-.129 0-.167-.153-.087-.349.08-.196.275-.297.447-.23.175.07.362.023.437-.108.074-.131-.033-.23-.251-.23-.291 0-.359-.163-.284-.687.053-.37.013-.687-.087-.687-.106 0-.186-.098-.186-.229 0-.129.153-.229.35-.229.332 0 .42.218.372.916-.012.188.102.088.25-.218.146-.305.368-.638.48-.72.112-.083.043-.242-.154-.349-.201-.11-.397-.436-.444-.742-.212-1.361-1.203-.802-4.956 2.799-2.269 2.177-5.357 5.547-6.333 6.91-.25.35-.646.888-.885 1.2-3.446 4.517-6.742 10.72-7.7 14.488-1.218 4.795-1.394 6-1.705 11.695-.077 1.418.283 5.055.557 5.607.122.248.273.83.328 1.266.091.717.36 1.527 1.239 3.73.139.35.198.629.132.622-.066-.006.043.153.24.35.19.189.36.556.36.774 0 .226.213.687.469 1.015.256.327.405.704.327.829-.077.125.022.229.218.229.197 0 .36.109.36.24 0 .382.095.567.57 1.112.247.284.461.594.467.677.006.085.444.785.982 1.57.538.786.97 1.512.97 1.626 0 .118.252.34.579.513.327.173.526.438.458.611-.069.175-.036.305.076.305.371 0 1.844 1.526 1.664 1.724-.085.094-.027.1.125.011.158-.09.546.073.873.37 1.331 1.204 1.485 1.325 1.495 1.168.006-.093.167.033.349.273.181.24.338.351.338.24 0-.114.197-.011.436.23.72.72 1.123 1.025 1.353 1.025.114 0 .315.141.48.338.165.196.366.292.48.229.107-.06.4.109.644.37.244.263.556.416.687.339.135-.08.312-.022.404.13.105.175.07.215-.098.11-.153-.095-.262-.064-.262.076 0 .13.316.24.687.24.37 0 .687.106.687.23 0 .13.284.228.655.228.37 0 .777.147.938.339.16.19.622.4 1.058.48.437.08.775.213.775.305 0 .093.218.18.502.2.698.05 3.163.787 3.163.946 0 .072.23.14.513.152.277.012.83.088 1.2.164.383.079 1.244.248 1.942.382.698.133 1.351.337 1.473.458.138.138.381.13.665-.022.33-.177.666-.145 1.277.12.455.198 1.636.405 2.618.458.982.054 1.848.158 1.92.23.069.068.327.027.545-.088.284-.149.439-.142.491.022.053.166.262.17.677.01.414-.157.69-.144.894.045.218.202.252.199.131-.011-.126-.218-.033-.236.404-.077.392.144.6.124.676-.065.078-.195.171-.186.325.033.263.37.526.403.712.087.077-.132.61-.28 1.178-.327.567-.048 1.164-.167 1.32-.262.152-.094.283-.064.283.065 0 .163.186.17.578.022.328-.123.65-.204.742-.185.093.018.35-.048.59-.153.283-.124.494-.08.632.13.115.175.208.21.208.077 0-.132.283-.23.632-.218.35.012.79-.105.982-.262.197-.16.567-.317.851-.36.284-.043.568-.147.655-.24.084-.09.294-.046.469.098.24.199.316.186.316-.054 0-.245.05-.24.218.022.193.298.22.294.226-.033.009-.392.647-.639 1.672-.649.35-.003.633-.108.633-.235s.458-.341 1.026-.48c.567-.139.981-.324.927-.414-.053-.088.24-.124.633-.077.589.07.663.037.382-.174-.28-.21-.219-.234.305-.12.436.094.604.061.502-.098-.086-.134.054-.24.316-.24s.657-.184.895-.415c.24-.234.544-.377.698-.327.153.048.273-.033.273-.186 0-.149.163-.208.36-.13.261.102.324.043.229-.219-.072-.196-.037-.3.076-.229.119.075.268.033.35-.098a.271.271 0 01.37-.098c.125.07.578-.134.993-.448.414-.314.828-.513.905-.436.076.076.142-.01.142-.185 0-.266.047-.262.251.021.203.283.23.251.142-.163-.098-.458-.06-.486.349-.262.327.179.411.176.294-.011-.099-.158.164-.395.666-.6.458-.187.829-.48.829-.655 0-.178.153-.378.35-.458.24-.097.3-.053.196.142-.083.154.26-.175.752-.72.61-.676 1.005-.943 1.211-.818.197.119.251.1.153-.055-.084-.132-.01-.357.163-.502.24-.198.346-.19.437.033.089.218.126.218.142 0 .013-.17.164-.294.36-.294.196 0 .288-.129.218-.306-.066-.166.044-.37.24-.447.195-.077.36-.327.36-.546 0-.349.03-.357.218-.065.189.293.22.284.23-.065.005-.219.165-.404.348-.404.197 0 .339-.1.339-.24 0-.135.12-.168.272-.076.187.112.225.043.12-.219-.087-.218-.045-.377.098-.37.146.006.196-.131.12-.328-.084-.218-.01-.292.208-.207.196.076.338.04.338-.087 0-.35 1.206-1.673 1.527-1.677.175-.002.292-.078.274-.178-.114-.633.018-.774.424-.458.352.273.36.262.077-.11-.282-.37-.245-.49.349-1.123.368-.393.52-.626.338-.524-.218.124-.273.095-.164-.087.086-.143.36-.272.579-.272.357 0 .801-.72.74-1.2-.012-.088.143-.088.362 0 .296.118.347.065.229-.24-.094-.24-.03-.44.163-.513.186-.07.267-.306.197-.568-.065-.24 0-.447.141-.447.15 0 .262-.196.262-.458s.084-.458.197-.458c.108 0 .382-.284.61-.633.33-.502.338-.57.044-.327-.328.27-.357.25-.25-.164.066-.262.23-.406.37-.327.163.092.197.01.098-.23-.08-.196-.045-.375.077-.381.13-.006.229-.262.229-.59 0-.327.1-.516.229-.436.125.078.229-.021.229-.218 0-.196.09-.36.196-.36.185 0 .443-.872.548-1.854.023-.218.11-.354.194-.306.086.049.278-.24.437-.654.158-.415.442-.92.643-1.146.331-.37.328-.392-.032-.262-.306.11-.362.062-.251-.218.077-.196.23-.306.338-.242.169.101.266-.51.19-1.187-.009-.069.18-.28.399-.447.327-.25.343-.319.076-.328-.218-.006-.245-.069-.076-.174.15-.094.254-.36.243-.622-.034-.85.36-3.11.564-3.237.106-.066.196-.33.196-.57 0-.24.107-.447.23-.447.125 0 .229-.11.229-.24 0-.135-.12-.168-.273-.077-.15.09-.112-.065.087-.349.2-.284.307-.659.24-.84-.065-.179.014-.491.175-.687.25-.306.245-.392-.033-.568-.262-.165-.264-.207-.01-.207.23 0 .28-.185.185-.687-.1-.524-.046-.688.229-.688.283 0 .3-.074.076-.348-.177-.219-.194-.345-.044-.339.13.006.189-.229.128-.513-.24-1.112-.224-2.923.025-2.923.133 0 .098-.088-.076-.197-.218-.135-.235-.247-.055-.36.18-.111.186-.305.022-.61-.152-.284-.156-.448-.01-.448.12 0 .156-.174.075-.37-.09-.219-.058-.318.077-.24.122.07.244-.099.262-.36.023-.35-.022-.403-.156-.186-.293.474-.447-.175-.228-.96.097-.35.088-.578-.02-.511-.216.134-.115-1.802.114-2.173.083-.135-.005-.297-.201-.37-.26-.098-.297-.273-.142-.688.138-.371.13-.556-.022-.556-.13 0-.172-.094-.095-.219.267-.436.307-1.143.062-1.088-.305.068-.439-.695-.152-.871a.47.47 0 00.218-.364c0-.131-.098-.169-.23-.087-.13.08-.228.062-.228-.044s.196-.307.458-.47c.262-.161.449-.404.436-.567-.016-.218-.049-.218-.138 0-.175.424-.47.328-.605-.196-.18-.698.046-1.123.503-.949.33.126.328.098-.022-.25-.24-.242-.363-.655-.316-1.07.042-.371-.022-.617-.142-.545-.121.072-.184-.044-.142-.262.047-.242-.087-.418-.349-.458-.24-.038-.487-.133-.567-.219-.08-.085.13-.1.48-.032.35.067.68.024.753-.099.068-.113.01-.218-.12-.218-.131 0-.228-.083-.203-.174.113-.415-.315-1.19-.572-1.033-.145.089-.121-.015.055-.233.263-.327.263-.393 0-.393-.262 0-.264-.033-.011-.194.39-.248.109-1.882-.393-2.281-.327-.26-.331-.321-.033-.514.274-.176.251-.22-.12-.229-.392-.01-.405-.04-.087-.22.372-.21.394-.772.096-2.496-.09-.524-.243-.938-.347-.938-.102 0-.259-.535-.349-1.19-.117-.85-.347-1.372-.807-1.832-.35-.35-.574-.644-.491-.644.089 0 .01-.096-.185-.229-.262-.177-.272-.273-.044-.426.24-.159.229-.251-.055-.49-.189-.16-.349-.48-.349-.699a.636.636 0 00-.37-.545c-.48-.182-.546-.17-.546.098M53.529 144.445c.08.13.183.229.24.229.056 0 .098-.099.098-.23a.237.237 0 00-.24-.229c-.131 0-.176.104-.098.23M51.969 144.601c-.376.37-.131.762.458.735.567-.027.577-.04.098-.128-.35-.064-.49-.212-.404-.425.14-.35.085-.415-.152-.182"/><path d="M51.183 145.295c-.153.065-.284.221-.284.339 0 .13.088.163.219.08.195-.122.318.16.26.596-.01.08.176.101.394.044.542-.141.524-.764-.022-.764-.24 0-.373-.098-.297-.218.158-.249.145-.253-.27-.077M51.901 148.36c-.082.132-.101.29-.041.35.06.061.168-.044.245-.24.162-.414.031-.485-.204-.11"/><path d="M124.231 161.455c1.33 0 2.368-.358 3.113-1.072.744-.715 1.116-1.703 1.116-2.964v-7.192h-2.278v7.192c0 1.49-.655 2.234-1.966 2.234-1.28 0-1.92-.824-1.92-2.472v-6.954h-2.323v7.192c0 1.261.374 2.249 1.124 2.964.75.714 1.794 1.072 3.134 1.072zm8.459-.194v-5.54c.139-.277.337-.5.595-.67.258-.168.546-.253.864-.253.377 0 .668.124.871.373.204.248.305.59.305 1.027v5.063h2.234v-5.256c0-.914-.24-1.631-.722-2.152-.482-.521-1.115-.782-1.899-.782-.486 0-.93.104-1.333.313a2.412 2.412 0 00-.96.893v-1.012h-2.19v7.996h2.235zm7.743-8.994c.377 0 .692-.12.946-.357.253-.239.38-.537.38-.894s-.127-.655-.38-.893a1.326 1.326 0 00-.946-.358c-.377 0-.692.12-.946.358-.253.238-.38.536-.38.893s.127.655.38.894c.254.238.569.357.946.357zm1.117 8.994v-7.996h-2.234v7.996h2.234zm5.256.194a4.7 4.7 0 00.812-.075c.283-.05.539-.124.767-.223l.149-1.802a1.93 1.93 0 01-1.147.372c-.367 0-.628-.106-.782-.32-.153-.213-.23-.543-.23-.99v-3.544h2.01v-1.608h-2.01v-2.502l-2.234 1.012v1.49h-1.34v1.608h1.34v3.901c0 1.787.888 2.68 2.665 2.68zm7.118 0c.527 0 1.033-.047 1.52-.142.486-.094.883-.22 1.19-.38l-.223-1.801c-.248.208-.576.372-.983.491-.407.12-.809.179-1.206.179-.645 0-1.171-.176-1.578-.529-.407-.352-.665-.89-.775-1.615h4.78c.02-.14.033-.31.038-.514.005-.204.007-.36.007-.47 0-1.16-.293-2.052-.878-2.672-.586-.62-1.4-.931-2.443-.931-.774 0-1.444.169-2.01.506a3.406 3.406 0 00-1.31 1.415c-.308.606-.462 1.32-.462 2.144 0 .884.176 1.65.529 2.301.352.65.851 1.15 1.496 1.497.646.347 1.415.52 2.308.52zm.775-5.108h-2.844c.069-.566.235-.998.498-1.295a1.298 1.298 0 011.02-.447c.417 0 .743.149.976.447.233.297.35.73.35 1.295zm6.463 5.108c.506 0 .955-.11 1.347-.328.392-.218.698-.516.916-.893v1.027h2.189v-11.317h-2.234v4.259a2.355 2.355 0 00-.916-.834 2.785 2.785 0 00-1.302-.298c-.636 0-1.192.169-1.668.506-.477.338-.847.82-1.11 1.445-.263.625-.394 1.37-.394 2.233 0 .864.131 1.611.394 2.242.263.63.633 1.114 1.11 1.451.476.338 1.032.507 1.668.507zm.744-1.713c-.516 0-.916-.218-1.199-.655-.283-.437-.424-1.047-.424-1.832 0-.794.141-1.404.424-1.831.283-.427.678-.64 1.184-.64.338 0 .636.084.894.253.258.168.456.397.595.685v3.067a1.647 1.647 0 01-.595.7 1.57 1.57 0 01-.879.253zm-40.191 18.93c.278-.903.56-1.796.849-2.68h4.154c.15.447.293.893.432 1.34l.417 1.34h2.397a666.724 666.724 0 00-1.935-5.517c-.656-1.841-1.33-3.68-2.026-5.517h-2.65a295.321 295.321 0 00-2.025 5.517c-.656 1.842-1.3 3.68-1.936 5.517h2.323zm4.422-4.467h-2.993c.497-1.519.993-3.018 1.49-4.497.258.744.513 1.492.766 2.241.253.75.5 1.502.737 2.256zm8.16 7.892c1.45 0 2.55-.374 3.3-1.124.749-.75 1.124-1.8 1.124-3.15v-7.147h-2.19v1.027a2.366 2.366 0 00-.915-.893 2.723 2.723 0 00-1.348-.328c-.635 0-1.191.169-1.668.507-.476.337-.846.816-1.11 1.437-.262.62-.394 1.357-.394 2.21 0 .855.132 1.59.395 2.205s.633 1.09 1.11 1.422c.476.332 1.032.499 1.667.499.486 0 .92-.1 1.303-.298.382-.199.687-.477.916-.834v.432c0 .734-.189 1.303-.566 1.705-.377.402-.953.603-1.727.603a4.4 4.4 0 01-1.192-.171 2.98 2.98 0 01-1.087-.559l-.193 1.892c.347.188.747.33 1.198.424.452.094.911.141 1.378.141zm.7-5.048c-.506 0-.9-.21-1.183-.633-.283-.422-.425-1.015-.425-1.78 0-.773.142-1.374.425-1.8.283-.428.682-.641 1.199-.641.327 0 .62.084.878.253.258.169.457.397.596.685v2.978a1.666 1.666 0 01-.596.685 1.596 1.596 0 01-.893.253zm7.61 1.817c.496 0 .946-.1 1.348-.298.402-.198.727-.491.975-.878.02.188.045.372.075.55.03.18.064.323.104.432h2.1a5.058 5.058 0 01-.105-.647 6.976 6.976 0 01-.044-.752v-3.47c0-1.062-.3-1.881-.901-2.457-.601-.576-1.477-.864-2.629-.864-.496 0-.995.06-1.496.179-.502.12-.946.283-1.333.491l.149 1.787a3.682 3.682 0 011.14-.61c.401-.13.786-.194 1.153-.194 1.072 0 1.633.467 1.683 1.4l-.67.074c-1.3.13-2.286.445-2.956.946-.67.501-1.005 1.15-1.005 1.943 0 .715.226 1.288.677 1.72.452.432 1.03.648 1.735.648zm.82-1.549c-.309 0-.557-.094-.745-.283-.19-.188-.283-.436-.283-.744 0-.387.16-.703.484-.946.322-.243.84-.404 1.556-.484l.387-.044v1.667a1.677 1.677 0 01-.618.618 1.562 1.562 0 01-.782.216zm6.551-7.639c.377 0 .693-.119.946-.357.253-.239.38-.536.38-.894 0-.357-.127-.655-.38-.893a1.326 1.326 0 00-.946-.358c-.377 0-.692.12-.945.358-.254.238-.38.536-.38.893 0 .358.126.655.38.894.253.238.568.357.945.357zm1.117 8.994v-7.996h-2.234v7.996h2.234zm4.065 0v-5.54c.14-.277.338-.5.596-.67.258-.168.546-.252.864-.252.377 0 .667.124.87.372.204.248.306.59.306 1.027v5.063h2.234v-5.256c0-.914-.241-1.63-.722-2.152-.482-.521-1.115-.782-1.9-.782-.486 0-.93.104-1.332.313a2.412 2.412 0 00-.96.893v-1.012h-2.19v7.996h2.234zm8.92.194c1.043 0 1.879-.23 2.51-.692.63-.462.945-1.105.945-1.929 0-.337-.065-.653-.194-.945-.129-.293-.36-.566-.692-.82-.333-.253-.797-.478-1.392-.677-.576-.199-.983-.37-1.221-.514-.239-.144-.358-.315-.358-.514 0-.258.114-.454.343-.588.228-.134.526-.2.893-.2.645 0 1.241.218 1.787.654l.491-1.563a4.042 4.042 0 00-1.109-.432 5.657 5.657 0 00-1.362-.164c-.616 0-1.164.1-1.646.298-.481.199-.856.482-1.124.849-.268.367-.402.814-.402 1.34 0 .546.168 1.013.506 1.4.338.387.928.725 1.772 1.012.625.219 1.042.395 1.25.53.21.133.314.304.314.513 0 .278-.124.496-.373.655-.248.159-.59.238-1.027.238a3.816 3.816 0 01-2.338-.804l-.209 1.757c.318.179.715.323 1.192.432.476.11.958.164 1.444.164zm8.369 0a4.7 4.7 0 00.812-.074c.283-.05.538-.125.766-.224l.15-1.802a1.93 1.93 0 01-1.147.373c-.368 0-.628-.107-.782-.32-.154-.214-.23-.544-.23-.99v-3.545h2.01v-1.608h-2.01v-2.502l-2.234 1.013v1.489h-1.34v1.608h1.34v3.902c0 1.787.888 2.68 2.665 2.68zm-49.29 17.218c1.34 0 2.455-.239 3.343-.715.889-.477 1.556-1.13 2.003-1.958.447-.83.67-1.78.67-2.852 0-1.072-.223-2.023-.67-2.852-.447-.829-1.114-1.479-2.003-1.95-.888-.472-2.003-.708-3.343-.708h-3.067v11.035h3.067zm.298-1.787h-1.042v-7.46h1.042c1.092 0 1.914.334 2.465 1.004.55.67.826 1.581.826 2.733 0 1.142-.275 2.047-.826 2.718-.551.67-1.373 1.005-2.465 1.005zm11.407 1.98c.526 0 1.032-.047 1.519-.141.486-.095.883-.221 1.19-.38l-.222-1.802c-.249.209-.576.372-.983.492-.407.119-.81.178-1.206.178-.646 0-1.172-.176-1.579-.528-.407-.353-.665-.891-.774-1.616h4.78c.02-.139.032-.31.037-.514.005-.203.007-.36.007-.469 0-1.161-.292-2.052-.878-2.673-.586-.62-1.4-.93-2.442-.93-.775 0-1.445.168-2.01.506a3.406 3.406 0 00-1.311 1.414c-.308.606-.462 1.32-.462 2.145 0 .883.177 1.65.529 2.3.352.65.851 1.15 1.497 1.497.645.347 1.414.521 2.308.521zm.774-5.107h-2.844c.07-.566.236-.998.499-1.296a1.298 1.298 0 011.02-.447c.417 0 .742.15.975.447.233.298.35.73.35 1.296zm5.793 4.914v-5.54c.129-.278.315-.501.558-.67.243-.169.519-.253.827-.253.347 0 .615.124.804.372.188.248.283.59.283 1.028v5.063h2.233v-5.54c.13-.278.316-.501.559-.67.243-.169.518-.253.826-.253.348 0 .616.124.804.372.189.248.283.59.283 1.028v5.063h2.234v-5.257c0-.913-.228-1.63-.685-2.152-.457-.52-1.062-.782-1.817-.782a2.96 2.96 0 00-1.452.365 2.572 2.572 0 00-1.035 1.05 2.285 2.285 0 00-.87-1.05c-.383-.243-.832-.365-1.348-.365a2.72 2.72 0 00-1.31.313c-.388.209-.7.506-.939.894v-1.013h-2.189v7.997h2.234zm15.218.193c.527 0 1.033-.047 1.52-.141.486-.095.883-.221 1.19-.38l-.223-1.802c-.248.209-.575.372-.983.492-.407.119-.809.178-1.206.178-.645 0-1.171-.176-1.578-.528-.407-.353-.665-.891-.774-1.616h4.78c.02-.139.032-.31.037-.514.005-.203.007-.36.007-.469 0-1.161-.293-2.052-.878-2.673-.586-.62-1.4-.93-2.442-.93-.775 0-1.445.168-2.01.506a3.406 3.406 0 00-1.311 1.414c-.308.606-.462 1.32-.462 2.145 0 .883.176 1.65.529 2.3.352.65.851 1.15 1.496 1.497.646.347 1.415.521 2.308.521zm.775-5.107h-2.844c.07-.566.235-.998.498-1.296a1.298 1.298 0 011.02-.447c.417 0 .743.15.976.447.233.298.35.73.35 1.296zm5.792 4.914v-5.54c.14-.278.338-.501.596-.67.258-.169.546-.253.864-.253.377 0 .667.124.871.372.203.248.305.59.305 1.028v5.063h2.234v-5.257c0-.913-.24-1.63-.722-2.152-.482-.52-1.115-.782-1.899-.782-.486 0-.93.105-1.333.313a2.412 2.412 0 00-.96.894v-1.013h-2.19v7.997h2.234zm10.052.193a4.7 4.7 0 00.812-.074c.283-.05.538-.124.767-.224l.148-1.801a1.93 1.93 0 01-1.146.372c-.368 0-.628-.107-.782-.32-.154-.214-.23-.544-.23-.99v-3.545h2.01v-1.608h-2.01v-2.502l-2.234 1.013v1.49h-1.34v1.607h1.34v3.902c0 1.787.888 2.68 2.665 2.68zm4.17-9.188c.377 0 .692-.119.945-.357s.38-.536.38-.894c0-.357-.127-.655-.38-.893a1.326 1.326 0 00-.945-.357c-.378 0-.693.119-.946.357s-.38.536-.38.893c0 .358.127.656.38.894s.568.357.946.357zm1.116 8.995v-7.997h-2.233v7.997h2.233zm3.947.193c.496 0 .945-.1 1.347-.298.402-.198.727-.491.976-.878.02.188.044.372.074.55.03.18.065.323.104.433h2.1a5.058 5.058 0 01-.104-.648 6.976 6.976 0 01-.045-.752v-3.47c0-1.062-.3-1.881-.9-2.457-.601-.576-1.478-.864-2.63-.864-.496 0-.994.06-1.496.18-.501.118-.945.282-1.332.49l.148 1.788a3.682 3.682 0 011.14-.611c.402-.13.786-.194 1.154-.194 1.072 0 1.633.467 1.682 1.4l-.67.075c-1.3.129-2.286.444-2.956.945-.67.502-1.005 1.15-1.005 1.944 0 .714.226 1.288.678 1.72.451.431 1.03.647 1.735.647zm.819-1.548c-.308 0-.556-.095-.745-.283-.189-.189-.283-.437-.283-.745 0-.387.161-.702.484-.946.323-.243.841-.404 1.556-.484l.387-.044v1.668a1.677 1.677 0 01-.618.618 1.562 1.562 0 01-.781.216z" fill-rule="nonzero"/><path d="M149.956 111.488c-.108.174-.074.222.087.123.261-.16.365.117.28.75-.022.174.072.235.222.141a.42.42 0 00.153-.458c-.071-.191.043-.254.327-.18.502.134.581.433.153.576-.23.077-.23.16 0 .444.16.196.207.43.109.534-.095.1.01.12.229.044.218-.077.403-.046.403.066 0 .115-.469.275-1.058.36-.72.104-.957.215-.742.349.211.13.011.203-.6.218-.829.02-.863.042-.36.24.306.12.695.169.862.109.175-.062.306-.039.306.055 0 .089.545.193 1.2.229.654.035 1.542.174 1.952.305.415.132.905.181 1.091.11.197-.077.339-.04.339.087 0 .12.283.219.632.22 1.135.005 9.13 1.793 8.291 1.854-.321.024-.85.056-1.221.075-.641.032-.694.142-2.499 5.138-1.016 2.815-1.927 5.022-2.029 4.92-.101-.102-1.048-2.4-2.094-5.084l-1.91-4.898-2.563-.022c-1.484-.013-2.564.066-2.564.186 0 .113 1.495 3.807 3.316 8.192l3.317 7.986-.785 2.04c-.429 1.113-.956 2.298-1.16 2.607-.462.704-1.393 1.104-2.375 1.024l-.764-.064-.578 2.008c-.32 1.112-.52 2.07-.447 2.149.072.078.85.192 1.723.252 2.379.165 4.563-.555 5.964-1.965 1.022-1.029 1.226-1.494 5.393-12.295 2.382-6.174 4.439-11.299 4.57-11.389.132-.09.296-.09.361 0s.796.405 1.604.693c2.421.864 2.918 1.069 3.25 1.339.174.14.557.324.884.423.328.099.645.278.731.414.082.128.306.262.48.286.458.064 1.55.8 1.55 1.045 0 .112.13.197.305.197.177 0 .424.141.589.338.164.196.347.32.436.294.084-.024.513.183.95.458.436.275.697.502.578.502-.121 0 .185.277.687.622s1.085.831 1.309 1.091c.226.262.784.916 1.265 1.484a42.61 42.61 0 001.452 1.625c.695.72 1.714 2.33 1.63 2.575-.031.09.06.174.191.174s.183.11.11.23c-.078.124-.033.229.098.229.139 0 .24.141.24.338 0 .196.086.338.207.338.118 0 .258.196.327.458s.003.463-.153.47c-.196.007-.2.059-.01.183.392.26.814 1.168.659 1.42-.114.183.257 1.057.584 1.377.061.06.126.412.148.805.086 1.57.247 2.499.441 2.558.107.033.182.496.164 1.02-.018.524.066 1.228.185 1.549.146.393.138.616-.022.67-.305.1-.324.727-.021.727.107 0 .141.218.076.48-.076.305-.18.384-.284.218-.088-.142-.163.054-.163.425 0 .37.1.627.218.557.12-.073.096.098-.055.381-.15.284-.224.713-.163.96.063.262-.022.497-.208.568-.174.066-.316.217-.316.338 0 .13.083.166.207.087.118-.074.09.12-.065.447-.155.328-.353.578-.458.578-.112 0-.133.083-.055.208.071.113-.033.267-.229.338-.196.071-.293.24-.212.37.253.41-.17 2.357-.606 2.794-.24.24-.378.534-.306.654.072.12-.032.154-.229.077-.272-.108-.32-.044-.196.261.124.306.084.359-.164.219-.261-.149-.27-.123-.043.13.156.175.283.425.283.557 0 .14-.091.098-.218-.098-.176-.273-.262-.23-.447.229-.124.305-.234.431-.24.273-.006-.153-.127-.295-.251-.295-.16 0-.156.153.01.458.168.306.175.458.023.458-.123 0-.173.153-.11.328.07.187-.076.523-.338.785s-.392.524-.305.611c.085.085-.022.085-.24 0-.262-.102-.393-.033-.393.207 0 .195-.185.365-.403.371-.35.01-.359.04-.066.23.293.188.284.218-.066.218-.224 0-.52.261-.665.589-.174.392-.316.498-.425.316-.11-.182-.259-.098-.448.25-.224.415-.217.566.033.72.246.154.23.197-.076.197-.216 0-.566.36-.775.797-.21.436-.48.798-.6.8-.492.008-.81.585-.613 1.109.15.392.114.556-.14.654-.26.101-.285.23-.109.557.177.327.149.425-.12.425a.345.345 0 00-.349.35c0 .196-.133.348-.305.348-.19 0-.392.48-.532 1.266-.238 1.33-.005 1.91.394.982.188-.437.21-.371.138.392-.048.502-.044.74.009.524.107-.436.536-.576.536-.175 0 .123.153.219.35.219.213 0 .323.152.283.392-.049.292.11.407.61.448.372.03.756-.069.852-.218.116-.182.178-.142.185.12.006.218-.071.392-.174.392-.1 0-.196.24-.207.524-.012.284.028.389.087.229a.51.51 0 01.436-.295c.175 0 .327-.106.327-.229 0-.16.131-.159.437.004.458.244 1.854-.276 1.854-.69 0-.109.197-.158.437-.11s.559-.06.709-.24c.143-.172.469-.327.687-.327.218 0 .482-.104.556-.219.076-.116.295-.159.47-.091.392.151 1.08-.452.84-.738-.088-.105.043-.04.283.142.284.215.384.23.273.044-.113-.19-.044-.295.196-.295.197 0 .433-.159.502-.338.076-.196.268-.338.458-.338.175 0 .277-.087.218-.186-.06-.103.099-.33.36-.512.262-.183.604-.453.775-.611.175-.162.399-.288.524-.295.125-.006.27-.207.338-.469.08-.305.24-.41.48-.316.24.094.36.025.36-.208 0-.196.143-.43.327-.534a.892.892 0 00.404-.524c.042-.186.36-.582.709-.883.35-.301.633-.717.633-.928 0-.305.039-.32.196-.076.146.228.24.142.371-.338.095-.35.155-.734.13-.84-.025-.118.045-.142.175-.06.196.122.367-.115.476-.66.027-.136.234-.34.473-.47.24-.128.43-.304.436-.403.034-.545.35-1.442.557-1.576.153-.099.27-.242.282-.344.045-.393.536-1.406.744-1.535.184-.113.429-.996.616-2.218.009-.059.097-.24.19-.392.095-.153.09-.284-.01-.284-.106 0-.054-.084.12-.197.169-.108.325-.338.35-.512.022-.169.14-.47.25-.644.138-.218.12-.273-.054-.165-.401.248-.24-.828.174-1.165.197-.16.244-.287.11-.29-.266-.008-.132-1.425.152-1.61.337-.22.24-4.625-.11-4.974-.071-.072-.017-.272.12-.447.174-.218.174-.408 0-.61-.136-.161-.295-.863-.348-1.54-.054-.675-.118-1.298-.142-1.363a.691.691 0 01-.033-.261c.006-.079-.18-.535-.414-1.015-.234-.48-.377-1.163-.317-1.517.063-.37.008-.643-.13-.643-.13 0-.24-.284-.24-.611s-.072-.54-.153-.458c-.158.157-1.222-1.724-1.222-2.16 0-.247-.917-1.605-1.244-1.843-.108-.079-.054-.197.12-.263.218-.082.229-.127.033-.142-.147-.011-.284-.163-.284-.316 0-.16-.473-.807-1.036-1.418-.564-.611-.997-1.164-.95-1.211.048-.048-.165-.36-.468-.687a23.528 23.528 0 01-1.059-1.244c-.272-.35-.631-.644-.785-.644-.153 0-.284-.08-.284-.174 0-.332-2.356-2.575-2.705-2.575-.1 0-.296-.196-.458-.458-.162-.262-.429-.458-.622-.458-.196 0-.338-.083-.338-.197 0-.106-.371-.391-.808-.621-.436-.23-.807-.496-.807-.579 0-.082-.393-.327-.85-.531-1.157-.515-2.222-1.133-2.32-1.345-.045-.098-.2-.175-.354-.175-.152 0-.774-.237-1.407-.537-1.033-.49-1.723-.76-2.923-1.147a4.167 4.167 0 00-.502-.137c-.06-.007-.688-.264-1.408-.579-.72-.314-1.434-.567-1.603-.567-.175 0-.31-.075-.317-.174-.006-.098-.338-.197-.753-.224-1.221-.08-1.8-.281-1.625-.562.095-.153.064-.198-.076-.109-.212.134-2.924-.215-4.844-.623-.739-.158-2.095-.305-4.386-.478-1.883-.142-3.12-.255-5.236-.476-.546-.057-1.176.004-1.418.137-.306.168-.437.165-.437-.01 0-.154-.152-.18-.392-.065-.502.239-1.886.175-2.16-.1-.134-.133.141-.21.709-.196.502.012.927-.058.927-.153 0-.097-.534-.174-1.211-.174-.676 0-1.427-.058-1.702-.131-.283-.076-.564-.011-.665.153zm2.88 1.81c.137.262.15.459.032.459s-.258-.197-.327-.458c-.068-.262-.082-.459-.032-.459s.19.197.327.459z"/></g></svg>