<svg xmlns="http://www.w3.org/2000/svg" viewBox="0 0 1306 100"><g fill="#FA6E34" fill-rule="evenodd"><path d="M1101.324.53c1.382-.487 2.522-.587 5.746-.504 1.008.026 1.756.019 2.454.079l.208.02c2.245.242 4.192 1.3 13.078 6.62l1.275.765 4.947 2.967a965.654 965.654 0 006.463 3.848l.252.147.147.083c.33.181 1.37.804 2.466 1.474l.44.27c1.244.766 2.799 1.665 3.51 2.029 2.155 1.104 5.608 4.527 6.758 6.702.395.746.716 1.367.976 2.034l.08.213c.782 2.144.973 4.923.981 13.686v.896c0 2.598-.016 5.69-.035 9.398-.114 22.26.017 21.115-2.907 25.427-1.914 2.822-4.544 4.667-16.482 11.56a1105.034 1105.034 0 00-11.874 7.047c-7.32 4.444-7.673 4.695-12.295 4.708h-1.761c-3.651-.005-3.902-.084-6.054-1.119-.999-.48-3.176-1.694-5.357-2.977l-.621-.367a145.83 145.83 0 01-1.22-.733 888.883 888.883 0 00-7.55-4.542 3089.919 3089.919 0 01-7.659-4.541l-.577-.342c-1.636-.968-3.24-1.91-3.99-2.342-4.947-2.854-7.341-5.027-8.793-7.983-.383-.78-.69-1.413-.936-2.09l-.072-.204c-.795-2.337-.906-5.404-.921-16.698l-.002-2.08v-4.519-.52l.002-1.026c.018-10.31.147-17.064.35-18.248.437-2.527 1.718-5.103 3.69-7.42 1.491-1.753 5.438-4.425 12.875-8.717a375.503 375.503 0 005.698-3.357c1.285-.78 4.246-2.53 6.544-3.87.383-.224.782-.458 1.185-.696l.609-.36c1.828-1.084 3.654-2.192 4.526-2.75 1.181-.757 2.888-1.63 3.846-1.967zm9.609 3.197c-3.293-1.37-7.438-.965-10.95 1.072-1.969 1.142-15.193 8.977-19.534 11.573a1905.374 1905.374 0 01-6.544 3.892c-1.851 1.096-3.995 2.572-4.788 3.299-1.727 1.58-3.326 4.73-3.766 7.416-.211 1.285-.32 9.774-.326 18.447V51.55l.002 1.058c.018 7.91.123 15.253.316 16.592.379 2.622 1.508 5.057 3.236 6.972.058.064.117.128.18.193l.078.078c1.24 1.222 4.182 3.008 25.497 15.691 7.597 4.52 9.11 5.15 12.417 5.164h.225c.148 0 .292-.003.433-.007l.21-.008.207-.011.102-.008.204-.017a7.92 7.92 0 00.819-.124l.21-.046c2.193-.512 5.067-2.153 13.518-7.205a5358 5358 0 012.866-1.712l.838-.5.42-.25.84-.5c4.051-2.418 7.98-4.755 9.943-5.915 7.182-4.245 9.043-6.306 10.069-11.156.31-1.468.479-9.076.506-17.241l.003-1.092c.017-9.48-.155-19.374-.514-21.07-1.018-4.804-2.882-6.89-9.904-11.081-2.665-1.59-9.385-5.593-14.907-8.877-5.522-3.285-10.89-6.329-11.906-6.751zm56.658 1.889c.027 0 .053 0 .077.004l.036.008c.478.151.546 2.183.556 29.366v3.125l.001 1.089v26.041c-.01 27.854-.082 29.3-.593 29.374l-.037.003h-.079l-.037-.003c-.51-.074-.582-1.52-.592-29.374l-.001-2.06v-25.07-3.125c.01-27.183.079-29.215.556-29.366l.037-.008a.538.538 0 01.076-.004zm-76.96 57.762l.01.004.052.026c.686.362 6.826 4.021 13.497 8.028l.717.43a2499.27 2499.27 0 0112.857 7.77c2.936 1.792 5.997 3.447 6.815 3.684.83.242 1.51.545 1.545.688.032.136-3.192 2.158-6.754 4.307l-.631.38c-3.381 2.032-6.91 4.084-8.158 4.69-1.168.569-2.106.73-4.245.73-3.064 0-4.367-.588-2.202-.994 3.962-.743 7.15-4.635 7.15-8.73 0-2.782-1.66-5.868-3.99-7.415-1.34-.89-1.999-.852-2.631.156-.35.557-.274.692.588 1.046 2.57 1.059 4.323 4.679 3.674 7.59-.65 2.91-1.663 3.826-1.663 1.502 0-1.087.128-1.344.75-1.503.69-.176.577-.368-1.436-2.415a278.57 278.57 0 01-2.953-3.038c-.42-.448-.867-.816-.99-.816-.43 0-5.777 5.566-5.777 6.013 0 .252.223.364.51.256.402-.151.511.128.511 1.312 0 .831-.128 1.503-.287 1.503-.566 0-1.396-2.463-1.39-4.126.01-3.007 1.797-5.688 4.295-6.443l.798-.242-.862-.815c-.479-.453-.99-.816-1.15-.816-.702 0-3.182 2.207-3.917 3.486-1.818 3.167-1.892 6.973-.168 8.7.51.512.811.927.67.927-.601 0-2.5-1.599-3.379-2.846-1.705-2.42-1.983-4.414-1.983-14.2v-.324c.002-4.713.059-8.505.127-8.505zm11.906 17.816c.09 0 1.022.849 2.107 1.918 1.915 1.888 1.947 1.951 1.947 3.854v1.935h-4.692v-1.503c0-1.375-.072-1.503-.846-1.503-.574 0-.856.19-.877.592-.01.159-.023.403-.037.663l-.022.393-.021.367c-.033.576-.28.866-.798.943-.701.105-.75-.015-.75-1.839v-.198c.004-1.727.098-1.852 1.915-3.687 1.044-1.056 1.988-1.935 2.074-1.935zm1.708 4.701c-.766 0-1.005.16-1.005.672s.24.671 1.005.671c.766 0 1.006-.16 1.006-.671 0-.512-.24-.672-1.006-.672zm-17.03-43.306c.133-.017.243 7.615.255 17.301v.86l.001.87v2.065c.011 12.83.126 17.588.447 19.092.246 1.151.382 2.095.303 2.095-.079 0-3.798-2.18-8.267-4.846-5.108-3.046-8.532-5.309-9.222-6.093-1.535-1.742-2.364-3.742-2.6-6.269l-.196-2.11 1.915-2.975c1.75-2.719 1.88-3.043 1.5-3.774-.232-.448-.513-.8-.638-.8-.3 0-2.011 2.559-2.011 3.007 0 .186-.16.419-.383.559-.732.456-.054-4.173.898-6.124 1.235-2.535 3.347-4.222 11.04-8.82 3.703-2.213 6.818-4.02 6.959-4.038zm57.745 6.429l.096 1.727c.022.403.035 1.474.038 2.934v1.679c-.003 1.499-.013 3.224-.031 4.981l-.007.705c-.087 7.724-.142 8.623-.763 10.007l-.067.148c-.4.863-.822 1.583-.926 1.583-.107 0-.894-.499-1.787-1.133-3.097-2.198-6.327-2.456-9.257-.739-1.692.992-1.91 1.461-.415.89 1.66-.632 4.912-.414 6.384.429 1.723.987 1.804 1.383.414 2.04-1.552.736-2.266.697-5.426-.294-1.468-.46-3.1-.841-3.607-.841-1.149 0-2.513.678-3.41 1.695-.676.767-.676.767-.005.482 1.69-.718 3.32-.553 6.415.65 1.692.657 3.59 1.203 4.182 1.203h1.086l-1.596 1.018c-4.342 2.772-6.562 3.341-9.768 2.503-1.768-.461-6.735-3.247-15.705-8.807l-1.277-.791 3.799-2.287c1.421-.856 3.942-2.361 6.482-3.872l.801-.477 2.708-1.607c4.893-2.898 8.531-5.059 11.265-6.698l.535-.321c5.23-3.143 6.94-4.26 7.94-5.09l.098-.083.048-.04.091-.08.133-.119 1.532-1.395zm84.079 16.602c.344 0 .692.074 1.044.222.352.148.676.418.972.81v-.84h.696v5.952l-.007.244c-.038.717-.25 1.292-.635 1.724-.428.48-1.102.72-2.022.72-.352 0-.678-.032-.978-.096a2.497 2.497 0 01-.792-.306 1.711 1.711 0 01-.558-.552 1.995 1.995 0 01-.276-.834h.66l.044.168c.1.324.278.57.532.738.296.196.748.294 1.356.294.68 0 1.18-.166 1.5-.498.32-.332.48-.89.48-1.674v-.924l-.132.173a2.72 2.72 0 01-.774.66c-.348.197-.762.295-1.242.295-.456 0-.852-.086-1.188-.258a2.364 2.364 0 01-.828-.69 2.96 2.96 0 01-.48-.99 4.28 4.28 0 01-.156-1.158c0-.48.064-.916.192-1.308s.312-.726.552-1.002c.24-.276.532-.49.876-.642a2.851 2.851 0 011.164-.228zm40.95 0c.457 0 .85.082 1.183.246.332.164.608.39.828.678.22.288.384.628.492 1.02.108.392.162.816.162 1.272 0 .528-.066.998-.198 1.41a3.094 3.094 0 01-.558 1.05c-.24.288-.53.508-.87.66-.34.152-.722.228-1.146.228-.376 0-.738-.076-1.086-.228-.348-.152-.666-.42-.954-.804v3.168h-.696v-8.508h.696v.924l.171-.202c.233-.257.484-.464.753-.62.336-.196.744-.294 1.224-.294zm-191.551.445h-1.692v7.388h1.692v-7.388zm6.033 0h-1.692v7.388h1.692v-7.388zm-3.033 0h-1.66v7.388h1.66v-7.388zm160.019-2.857c.896 0 1.594.206 2.094.618.5.412.846.986 1.038 1.722l-.684.156-.087-.265a3.656 3.656 0 00-.219-.485 2.06 2.06 0 00-.474-.588 2.088 2.088 0 00-.696-.384 3.045 3.045 0 00-.972-.138c-.496 0-.934.096-1.314.288-.38.192-.698.46-.954.804-.256.344-.45.752-.582 1.224a5.733 5.733 0 00-.198 1.548c0 .568.064 1.086.192 1.554.128.468.324.874.588 1.218.264.344.594.61.99.798.396.188.862.282 1.398.282.456 0 .902-.062 1.338-.186a3.445 3.445 0 001.158-.57v-2.388h-2.448v-.66h3.144v3.312l-.16.144c-.167.14-.347.264-.542.372a4.77 4.77 0 01-.804.354c-.276.092-.558.16-.846.204a5.56 5.56 0 01-.84.066c-.608 0-1.154-.098-1.638-.294a3.293 3.293 0 01-1.236-.864c-.34-.38-.6-.848-.78-1.404-.18-.556-.27-1.194-.27-1.914 0-.736.098-1.386.294-1.95.196-.564.464-1.036.804-1.416a3.35 3.35 0 011.206-.864 3.815 3.815 0 011.5-.294zm-30.686 2.412c.424 0 .778.042 1.062.126.284.084.516.198.696.342.18.144.32.312.42.504.1.192.178.396.234.612l-.636.132-.067-.177a2.389 2.389 0 00-.155-.31 1.154 1.154 0 00-.318-.347 1.395 1.395 0 00-.48-.21 3.03 3.03 0 00-.72-.072c-.32 0-.588.03-.804.09-.216.06-.39.142-.522.246a.89.89 0 00-.282.36 1.093 1.093 0 00-.084.42c0 .144.016.274.048.39a.642.642 0 00.192.306c.096.088.23.164.402.228.172.064.398.12.678.168l.948.156.236.045c.53.116.936.295 1.216.537.32.276.48.698.48 1.266 0 .24-.05.468-.15.684-.1.216-.248.402-.444.558-.196.156-.442.28-.738.372a3.439 3.439 0 01-1.02.138c-.376 0-.722-.036-1.038-.108a2.5 2.5 0 01-.822-.336 1.802 1.802 0 01-.564-.588 2.053 2.053 0 01-.264-.876h.684l.039.173c.102.39.293.672.573.847.32.2.776.3 1.368.3.6 0 1.024-.112 1.272-.336.248-.224.372-.504.372-.84 0-.144-.016-.278-.048-.402a.823.823 0 00-.186-.342 1.07 1.07 0 00-.396-.264 3.2 3.2 0 00-.666-.18l-.756-.12-.24-.045a6.535 6.535 0 01-.642-.16c-.26-.08-.48-.185-.66-.317a1.274 1.274 0 01-.408-.492 1.703 1.703 0 01-.138-.726c0-.272.06-.518.18-.738.12-.22.284-.404.492-.552a2.37 2.37 0 01.738-.342c.284-.08.59-.12.918-.12zm-8.933.192v3.924l.004.209c.02.54.12.936.302 1.189.204.284.554.426 1.05.426.248 0 .496-.048.744-.144.248-.096.484-.24.708-.432.232-.208.408-.422.528-.642.12-.22.18-.522.18-.906v-3.624h.696v6.18h-.696v-1.008l-.151.177c-.612.682-1.31 1.023-2.093 1.023-.704 0-1.208-.192-1.512-.576-.304-.384-.456-.944-.456-1.68v-4.116h.696zm52.65-.192c.447 0 .851.076 1.211.228.36.152.664.37.912.654.248.284.438.626.57 1.026.132.4.198.844.198 1.332 0 .504-.068.96-.204 1.368-.136.408-.33.758-.582 1.05-.252.292-.56.516-.924.672a3.094 3.094 0 01-1.23.234c-.456 0-.862-.076-1.218-.228a2.422 2.422 0 01-.9-.654 2.993 2.993 0 01-.564-1.026 4.275 4.275 0 01-.198-1.344c0-.504.07-.96.21-1.368.14-.408.336-.756.588-1.044a2.55 2.55 0 01.918-.666c.36-.156.764-.234 1.212-.234zm5.908.192v3.924l.004.209c.02.54.121.936.302 1.189.204.284.554.426 1.05.426.248 0 .496-.048.744-.144.248-.096.484-.24.708-.432.232-.208.408-.422.528-.642.12-.22.18-.522.18-.906v-3.624h.696v6.18h-.696v-1.008l-.15.177c-.613.682-1.31 1.023-2.094 1.023-.704 0-1.208-.192-1.512-.576-.304-.384-.456-.944-.456-1.68v-4.116h.696zm-64.467-.192c.448 0 .852.076 1.212.228.36.152.664.37.912.654.248.284.438.626.57 1.026.132.4.198.844.198 1.332 0 .504-.068.96-.204 1.368-.136.408-.33.758-.582 1.05-.252.292-.56.516-.924.672a3.094 3.094 0 01-1.23.234c-.456 0-.862-.076-1.218-.228a2.422 2.422 0 01-.9-.654 2.993 2.993 0 01-.564-1.026 4.275 4.275 0 01-.198-1.344c0-.504.07-.96.21-1.368.14-.408.336-.756.588-1.044a2.55 2.55 0 01.918-.666c.36-.156.764-.234 1.212-.234zm53.85.096c.087 0 .17.002.245.006.076.004.158.014.246.03l-.084.66-.14-.02a1.909 1.909 0 00-.892.098c-.216.076-.42.206-.612.39a1.99 1.99 0 00-.456.582c-.12.228-.18.498-.18.81v3.72h-.696v-6.18h.696v1.008l.153-.202c.21-.256.443-.46.7-.614a1.95 1.95 0 011.02-.288zm-27.873-.096c.704 0 1.224.196 1.56.588.336.392.504.948.504 1.668v4.116h-.696v-3.924l-.005-.21c-.023-.54-.137-.936-.343-1.188-.232-.284-.6-.426-1.104-.426-.24 0-.494.046-.762.138a2.03 2.03 0 00-.726.438c-.24.208-.42.422-.54.642-.12.22-.18.522-.18.906v3.624h-.696v-6.18h.696v1.008l.145-.175c.293-.334.603-.582.929-.743a2.71 2.71 0 011.218-.282zm-5.562.192v6.18h-.696v-6.18h.696zm-31.4-2.388v3.792h4.836v-3.792h.732v8.568h-.732V67.9h-4.836v4.092h-.732v-8.568h.732zm85.034 2.796c-.248 0-.472.028-.672.084-.2.056-.4.16-.6.312a2.15 2.15 0 00-.654.786c-.156.316-.234.718-.234 1.206v.54l.002.197c.005.191.019.364.04.517.028.204.076.386.144.546a1.681 1.681 0 00.642.768c.184.144.372.248.564.312.192.064.412.096.66.096.296 0 .568-.05.816-.15.248-.1.462-.258.642-.474.18-.216.322-.498.426-.846.104-.348.156-.77.156-1.266 0-.504-.058-.924-.174-1.26a2.33 2.33 0 00-.45-.81 1.546 1.546 0 00-.624-.432 2 2 0 00-.684-.126zm-74.073 0c-.384 0-.714.07-.99.21-.276.14-.5.33-.672.57a2.44 2.44 0 00-.378.846c-.08.324-.12.674-.12 1.05s.04.728.12 1.056c.08.328.206.612.378.852.172.24.396.43.672.57.276.14.606.21.99.21.392 0 .724-.07.996-.21.272-.14.496-.33.672-.57.176-.24.304-.524.384-.852.08-.328.12-.684.12-1.068 0-.368-.04-.714-.12-1.038a2.377 2.377 0 00-.384-.846c-.176-.24-.4-.43-.672-.57-.272-.14-.604-.21-.996-.21zm58.558 0c-.384 0-.714.07-.99.21-.276.14-.5.33-.672.57a2.44 2.44 0 00-.378.846c-.08.324-.12.674-.12 1.05s.04.728.12 1.056c.08.328.206.612.378.852.172.24.396.43.672.57.276.14.606.21.99.21.392 0 .724-.07.996-.21.272-.14.496-.33.672-.57.176-.24.304-.524.384-.852.08-.328.12-.684.12-1.068 0-.368-.04-.714-.12-1.038a2.377 2.377 0 00-.384-.846c-.176-.24-.4-.43-.672-.57-.272-.14-.604-.21-.996-.21zm-25.412 0c-.296 0-.568.048-.816.144a1.653 1.653 0 00-.648.456 2.203 2.203 0 00-.432.798c-.104.324-.156.714-.156 1.17 0 .464.058.854.174 1.17.116.316.266.572.45.768.184.196.392.338.624.426.232.088.468.132.708.132.264 0 .488-.028.672-.084.184-.056.38-.156.588-.3.28-.208.494-.474.642-.798.148-.324.222-.73.222-1.218v-.228l-.003-.203a4.837 4.837 0 00-.04-.523 2.046 2.046 0 00-.143-.54 1.608 1.608 0 00-.258-.414 2.284 2.284 0 00-.948-.66 1.933 1.933 0 00-.636-.096zm-93.316-6.871c-.104 0-.768.591-1.453 1.295-.996 1.023-1.458 1.265-2.202 1.151-.859-.13-.945-.048-.974.944-.02.671-.361 1.43-.893 1.983-.802.833-.858 1.087-.798 3.646.035 1.503.121 2.75.191 2.75s.654-.397 1.293-.879c1.022-.772 1.165-1.072 1.165-2.447 0-1.444.144-1.71 1.836-3.39l1.835-1.823 1.851 1.823c1.628 1.603 1.851 1.987 1.851 3.182 0 1.152.157 1.448 1.022 1.935.575.324 1.12.583 1.245.592.124.009.202-1.055.176-2.399l-.048-2.414-2.953-2.975-.512-.513c-1.396-1.39-2.538-2.461-2.632-2.461zM1105.09 31.88c1.16-.645 2.33-.41 4.533.915.885.532 2.884 1.727 4.973 2.972l.599.357 1.482.883c2.714 1.615 5.16 3.285 5.459 3.726.459.677.542 2.143.542 9.531v2.197c-.007 5.308-.06 6.369-.457 6.996l-.051.077c-.072.1-.153.191-.245.293-.524.578-3.496 2.457-6.694 4.344l-.688.404c-3.679 2.15-7.446 4.19-7.985 4.192-1.047.002-14.106-7.628-15.299-8.94-.665-.73-.745-.921-.755-7.112v-.662l-.001-.347v-2.648-1.04c.008-5.832.067-6.601.566-7.276l.059-.076.03-.039.065-.078.033-.04c.578-.686 9.014-5.948 13.834-8.629zm-29.255 24.78h-1.133l1.142 1.792c4.057 6.365 4.27 6.62 5.497 6.62h1.181l-.606-.927c-.29-.443-1.29-1.96-2.33-3.532l-.299-.45-.148-.224c-2.033-3.07-2.243-3.278-3.304-3.278zm3.67-.063c-.701-.082-1.066.011-1.005.256.053.21 1.226 2.143 2.602 4.286.444.692.811 1.261 1.12 1.73l.223.333c1.2 1.782 1.47 1.843 2.407 1.855l1.246.016-2.746-4.174c-2.482-3.774-2.85-4.186-3.846-4.302zm-5.858.352c-.097-.288-2.158-.619-2.393-.384-.088.088 1.066 2.015 2.586 4.318l.643.972.282.424c1.8 2.69 2.005 2.764 3.049 2.778l1.229.016-2.65-3.918c-1.448-2.143-2.693-4.049-2.746-4.206zm142.744 6.474v1.044h-.792v-1.044h.792zm46.179-24.897c1.181 0 2.205.152 2.266.336.028.085.045 1.171.05 2.886l.001.462v1.268l-.001.55a853.9 853.9 0 01-.034 5.756l-.096 10.587h-4.277l-1.644-2.27-.62-.863-.48-.672a430.052 430.052 0 01-2.523-3.583c-1.09-1.567-2.108-2.998-2.266-3.182-.16-.188-.796-1.072-1.437-2l-1.149-1.663v14.489l-2.09-.144c-1.15-.079-2.17-.223-2.267-.32-.096-.096-.175-5.005-.175-10.89V38.559h2.58c2.04.004 2.164.075 2.878 1.088.712 1.012 1.814 2.562 2.976 4.192l.438.614.44.615a773.952 773.952 0 004.01 5.581l1.106 1.503.16-13.625zm43.428 0v4.03l-10.534.192-.032 4.51h10.246v4.03l-5.107.096-5.107.096.093 4.286c.104 4.765.258 4.498-2.71 4.7l-1.916.13v-22.07H1306zm-78.748 0l1.243 1.727a563.213 563.213 0 016.286 8.924c1.059 1.535 2.012 2.79 2.127 2.798.093.007.157-1.973.164-4.7v-.84c0-.382-.002-.775-.005-1.176l-.047-6.733h4.628v22.005l-1.596-.032c-.894-.018-1.89-.06-2.266-.096-.41-.039-1.293-.943-2.267-2.319-.874-1.235-2.462-3.47-3.51-4.941-.329-.46-.698-.982-1.073-1.515l-.45-.641a261.51 261.51 0 01-1.734-2.498l-1.34-1.967-.192 13.85h-4.66V38.526h4.692zm53.467 0l.415 1.104c.228.606 1.12 2.99 1.979 5.293.861 2.307 2.503 6.669 3.654 9.707.663 1.75 1.24 3.342 1.597 4.398l.106.316c.196.593.299.957.277.995-.061.105-1.23.12-2.57.032l-2.458-.16-1.277-3.55-4.548.096-4.549.096-.622 1.663c-.348.928-.679 1.72-.75 1.791-.18.185-4.597.096-4.789-.096-.15-.15 1.982-6.013 6.479-17.815.426-1.12.874-2.427 1.007-2.942.217-.844.237-.92 2.421-.927h3.628zm-67.255 0c5.33.008 5.348.077 5.52.768.103.413.2 1.343.208 2.015l.016 1.247h-10.725v4.702h10.374v4.03h-10.374v5.053h10.31l.128 1.935c.07 1.056.1 1.979.067 2.031-.038.06-1.522.088-3.538.093h-1.335c-4.283-.01-9.856-.103-9.974-.221-.094-.095-.163-4.59-.189-9.42l-.004-.809a791.03 791.03 0 01-.006-2.418v-1.948c.006-3.535.04-6.386.113-6.642.086-.302 1.722-.407 6.725-.415zM1184 38.496l6.112.112c5.33.098 6.285.199 7.454.79 2.896 1.465 4.213 5.271 3.043 8.79-1.1 3.303-3.267 4.445-8.438 4.445h-3.479l-.048.927c-.026.515-.083 2.24-.128 3.87-.044 1.632-.172 2.943-.287 2.943h-4.23V38.495zm-59.085-23.156l1.644.976a3866.99 3866.99 0 016.384 3.803l.568.337.571.339a362.967 362.967 0 004.335 2.537c2.841 1.614 4.58 3.291 5.61 5.41.844 1.734.926 1.982.933 6.619l.001.987v1.702c-.009 4.636-.091 4.885-.946 6.62-1.182 2.398-3.204 4.211-7.64 6.852l-6.927 4.118c-1.884 1.118-3.52 2.046-3.607 2.046-.008 0-.015-.03-.023-.089l-.01-.11c-.067-.825-.119-4.127-.126-8.182l-.001-.646v-9.683l3.59 3.646c1.985 2.015 3.714 3.646 3.863 3.646.15 0 .272-1.087.272-2.43v-2.431l-2.57-2.575c-1.5-1.503-2.756-2.504-3.016-2.405-.735.278-.551.886.71 2.357 1.18 1.375 1.478 2.111.854 2.111a.347.347 0 01-.351-.336c0-.188-.52-.911-1.182-1.647-1.21-1.343-1.468-2.303-.798-2.974.534-.535.224-4.428-.383-4.807-.255-.16-.549-.217-.686-.135-.132.08-.318-2.974-.415-6.812-.097-3.838-.283-7.38-.415-7.9l-.24-.944zm-22.121 34.958c-.798 0-4.612 4.463-4.182 4.894.089.088 1.676.06 3.56-.064 3.255-.215 3.376-.25 2.856-.832-.296-.331-.941-.658-1.42-.72-.724-.092-.559-.212.941-.686 2.459-.776 4.934-.743 6.289.084 1.18.722 2.438 2.5 2.45 3.465.006.399.263.576.838.576.925 0 1.002-.352.446-2.047-.44-1.343-1.728-2.838-3.032-3.52-1.711-.894-5.107-.6-8.14.704-1.308.563-1.326.561-.75-.079.317-.352.591-.915.591-1.215 0-.32-.192-.56-.447-.56zm3.608-8.357h-.16c-2.65.052-10.733 4.252-12.945 6.726-.6.672-1.267 2.303-.941 2.303.052 0 .894-.69 1.851-1.52l.16-.136c.895-.766 1.704-1.383 1.82-1.383.121 0-.169.8-.64 1.76-.619 1.264-.897 2.446-.988 4.205l-.128 2.447h2.745l-.208-1.967c-.177-1.677-.07-2.27.719-4.03.502-1.12 1.137-2.238 1.388-2.447.244-.201.463-.671.463-.99 0-.835 2.905-2.295 5.075-2.552l1.692-.2-.894.896c-1.459 1.462-.191 2.197 1.5.87 1.214-.953 1.59-.802.622.25-1.177 1.279-1.366 2.271-.61 3.198l.627.767.014-.927c.027-1.776 2.508-3.295 5.38-3.295 1.629 0 1.692-.035 1.682-.927-.02-1.65-.34-1.811-3.373-1.7-2.203.08-2.81-.002-2.937-.395-.092-.288-.313-.596-.526-.736-.199-.13-.91-.229-1.549-.217zm171.508 1.651c-.105.005-.927 2.203-1.691 4.402l-.182.527c-.54 1.573-1.02 3.057-1.148 3.632-.088.393.483.48 3.132.48h.257c2.253-.008 2.936-.112 2.808-.416-.097-.23-.797-2.255-1.565-4.525l-.082-.242a64.743 64.743 0 00-.965-2.662l-.12-.3c-.229-.563-.391-.898-.444-.896zm-196.79-23.734c1.75-.635 4.213-.544 6.416.239.847.3 4.287 2.196 7.695 4.166l.703.408c3.274 1.904 6.348 3.78 6.86 4.26.438.41.287.512-7.948 5.354l-3.192 1.877-.215-2.24c-.337-3.518-1.629-5.911-4.19-7.765-1.807-1.309-3.224-1.73-5.778-1.718-2.617.012-4.369.708-6.384 2.536-2.689 2.44-3.969 6.692-3.025 10.05.467 1.663.574 1.74 1.493 1.077.508-.366.583-.79.463-2.612l-.144-2.175 3.527-2.239c1.947-1.236 3.656-2.25 3.815-2.263.153-.013.256 2.981.285 6.14l.005.678c.019 3.168-.037 6.296-.19 6.543-.108.177-2.51 1.706-5.351 3.407-2.841 1.7-5.779 3.696-6.544 4.445l-1.388 1.36.16-20.406.925-1.983c.508-1.087 1.416-2.456 2.01-3.03 1.232-1.188 8.236-5.47 9.992-6.109zm35.4 28.106c-.415-.417-1.362-.498-1.115-.096.087.14-1.247.261-2.971.268-3.384.014-4.336.376-3.415 1.299.405.406.717.439 1.515.16.557-.195 1.804-.302 2.794-.24 1.755.11 1.785.129 1.676 1.071-.094.8-.011.921.494.728 1.277-.489 3.907-.916 4.693-.762.606.118.804.02.734-.366-.057-.314-.894-.766-2.075-1.12-1.085-.323-2.138-.75-2.33-.942zm78.077-5.03c-1.053-.4-5.897-.499-5.902-.12 0 .014 0 .04-.003.078l-.008.143c-.029.467-.107 1.573-.2 2.801l-.207 2.767h3.272c2.058-.013 2.924-.156 3.527-.57 1.145-.789 1.309-1.093 1.309-2.436 0-1.376-.548-2.192-1.788-2.662zm-52.94-11.73c-.365-.303-.578-.256-1.01.224-.635.704-.803 4.237-.219 4.598.676.418.337 1.607-.822 2.886-.667.736-1.189 1.459-1.189 1.647 0 .183-.16.336-.351.336-.657 0-.317-.896.863-2.27.659-.769 1.18-1.532 1.18-1.728 0-1.072-1.021-.517-3.384 1.837l-2.65 2.64v2.447c0 1.344.123 2.447.272 2.447.148 0 1.959-1.727 3.99-3.806l3.72-3.806.031-3.534.002-.282v-.526c-.007-2.006-.131-2.86-.433-3.11zm-3.75-.544l-2.107 1.935-2.107 1.935-4.31-3.806v4.318l4.342 4.318 4.405-4.382-.224-4.318zm-2.155 4.67c1.013-1.024 1.892-1.683 1.962-1.471.148.447-3.307 3.818-3.606 3.518-.106-.106.631-1.024 1.644-2.047zm75.2-6.71c.456 0 .85.083 1.182.247.332.164.608.39.828.678.22.288.384.628.492 1.02.108.392.162.816.162 1.272 0 .528-.066.998-.198 1.41a3.094 3.094 0 01-.558 1.05c-.24.288-.53.508-.87.66-.34.152-.722.228-1.146.228-.376 0-.738-.076-1.086-.228-.348-.152-.666-.42-.954-.804v3.168h-.696v-8.508h.696v.924l.172-.202c.233-.257.484-.464.752-.62.336-.196.744-.294 1.224-.294zm-81.25 5.303c0-.356.607.03 1.757 1.119.957.907 1.82 1.7 1.899 1.743.086.048.054.17-.08.304-.322.322-3.575-2.559-3.575-3.166zM1103.56 6.406c1.587-.571 4.31-.549 6.001.05 1.596.565 8.479 4.594 9.704 5.68 1.194 1.06 2.278 2.915 2.88 4.93.43 1.438.535 3.566.535 10.795v.322c-.003 4.809-.066 8.681-.143 8.681-.08 0-3.511-2.007-7.63-4.462l-1.305-.777-.652-.388c-3.467-2.062-6.744-4-7.794-4.608-1.245-.72-2.266-1.412-2.266-1.535 0-.273 2.394-.644 2.777-.43.14.078.255.51.255.958 0 .658.16.815.83.815.77 0 .833-.128.878-1.759.026-.972.09-2.846.143-4.19.083-2.078.013-2.429-.478-2.42-1.037.017-1.339.501-1.453 2.324-.093 1.504-.219 1.807-.782 1.887l-2.09.304-1.42.208v-1.647c0-1.567-.041-1.64-.83-1.487-.757.146-.83.32-.83 1.95V23.4l-4.789-2.863-.285-.169-.576-.336c-2.408-1.392-4.896-2.64-5.842-2.917-1.054-.308-1.915-.639-1.915-.735 0-.097 1.308-.933 2.904-1.856 1.6-.924 5.172-3.03 7.948-4.685 2.778-1.656 5.575-3.198 6.225-3.432zm32.224 27.26c.99-.983 1.854-1.632 1.915-1.44.06.192-.704 1.184-1.676 2.175-.972.992-1.846 1.648-1.915 1.44-.07-.211.686-1.193 1.676-2.175zm-6.081-1.504c0-.298.798.288 1.915 1.408 1.053 1.055 1.8 2.034 1.66 2.175-.32.32-3.575-2.943-3.575-3.583zm58.002-5.954c.896 0 1.594.206 2.094.618.5.412.846.986 1.038 1.722l-.684.156-.087-.265a3.656 3.656 0 00-.22-.485 2.06 2.06 0 00-.473-.588 2.088 2.088 0 00-.696-.384 3.045 3.045 0 00-.972-.138c-.496 0-.934.096-1.314.288-.38.192-.698.46-.954.804-.256.344-.45.752-.582 1.224a5.733 5.733 0 00-.198 1.548c0 .568.064 1.086.192 1.554.128.468.324.874.588 1.218.264.344.594.61.99.798.396.188.862.282 1.398.282.456 0 .902-.062 1.338-.186a3.445 3.445 0 001.158-.57v-2.388h-2.448v-.66h3.144v3.312l-.161.144c-.166.14-.346.264-.541.372a4.77 4.77 0 01-.804.354c-.276.092-.558.16-.846.204a5.56 5.56 0 01-.84.066c-.608 0-1.154-.098-1.638-.294a3.293 3.293 0 01-1.236-.864c-.34-.38-.6-.848-.78-1.404-.18-.556-.27-1.194-.27-1.914 0-.736.098-1.386.294-1.95.196-.564.464-1.036.804-1.416a3.35 3.35 0 011.206-.864 3.815 3.815 0 011.5-.294zm40.603 2.412c.432 0 .796.052 1.092.156.296.104.534.254.714.45.18.196.31.436.39.72.08.284.12.61.12.978v4.068h-.696v-.876l-.11.127a3.217 3.217 0 01-.262.25 2.576 2.576 0 01-.492.33 2.796 2.796 0 01-1.332.313c-.648 0-1.168-.156-1.56-.468-.392-.312-.588-.776-.588-1.392 0-.416.088-.756.264-1.02.176-.264.41-.472.702-.624.292-.152.624-.258.996-.318s.758-.098 1.158-.114l1.2-.048v-.192l-.005-.197c-.023-.508-.14-.887-.35-1.135-.235-.28-.657-.42-1.265-.42a3.33 3.33 0 00-.75.072 1.53 1.53 0 00-.51.21c-.136.092-.244.2-.324.324-.08.124-.14.262-.18.414l-.636-.096.04-.155c.27-.905 1.065-1.357 2.384-1.357zm-29.553.192l1.44 5.4 1.572-5.364h.816l1.536 5.364 1.44-5.4h.744l-1.812 6.18h-.804l-1.548-5.4-1.56 5.4h-.804l-1.788-6.18h.768zm26.776-2.388v.672h-2.964v7.896h-.732v-7.896h-2.976v-.672h6.672zm8.35 2.388v6.18h-.696v-6.18h.696zm-37.855-.096c.088 0 .17.002.246.006.076.004.158.014.246.03l-.084.66-.14-.02a1.909 1.909 0 00-.892.098c-.216.076-.42.206-.612.39a1.99 1.99 0 00-.456.582c-.12.228-.18.498-.18.81v3.72h-.696v-6.18h.696v1.008l.153-.202c.21-.256.443-.46.699-.614a1.95 1.95 0 011.02-.288zm14.914.504c-.248 0-.472.028-.672.084-.2.056-.4.16-.6.312a2.15 2.15 0 00-.654.786c-.156.316-.234.718-.234 1.206v.54l.003.197c.005.191.018.364.04.517.027.204.075.386.143.546a1.681 1.681 0 00.642.768c.184.144.372.248.564.312.192.064.412.096.66.096.296 0 .568-.05.816-.15.248-.1.462-.258.642-.474.18-.216.322-.498.426-.846.104-.348.156-.77.156-1.266 0-.504-.058-.924-.174-1.26a2.33 2.33 0 00-.45-.81 1.546 1.546 0 00-.624-.432 2 2 0 00-.684-.126zm18.976 2.484l-1.14.048-.27.012a5.967 5.967 0 00-.894.114 2.297 2.297 0 00-.756.288c-.192.124-.33.276-.414.456-.084.18-.126.394-.126.642 0 .376.106.678.318.906.212.228.582.342 1.11.342.264 0 .526-.03.786-.09s.474-.158.642-.294a2.6 2.6 0 00.354-.3 1.313 1.313 0 00.354-.708c.024-.144.036-.312.036-.504v-.912zM1083.8 30.627c0-.895.028-.917.798-.623.402.154.539.655.527 1.934l-.016 1.728-.654-1.104c-.36-.607-.655-1.477-.655-1.935zm49.876-4.174c-.256.01-1.213.682-2.139 1.504l-.162.143c-.864.755-1.652 1.348-1.8 1.353-.414.013.638 1.154 2.553 2.77l1.596 1.347 4.341-3.806-1.963-1.663c-1.085-.92-2.17-1.656-2.426-1.648zm100.252-.03v1.045h-.792v-1.044h.792zm-32.776.023c.55-.883 1.088-.864 1.737.064.627.895.358 1.292-.282.416-.467-.64-.467-.64-1.17-.002-.783.712-.902.513-.285-.478zm-92.9-8.804v8.795h.813c.629 0 .84-.208.926-.911.086-.704.286-.906.878-.888 4.134.127 4.43.095 4.44.678v.088c-.001.06-.003.128-.003.202 0 .671.16.831.83.831h.83v-7.964l-1.596-.191c-.61-.074-1.716-.184-2.846-.286l-.616-.055c-.307-.026-.608-.052-.896-.075l-2.76-.224zm1.915 2.303c.123-.124.43-.145.686-.048.252.095 1.372.176 2.458.176h1.995v2.43l-1.772-.207c-.99-.117-2.173-.208-2.681-.208-.789 0-.91-.128-.91-.96 0-.544.097-1.056.224-1.183zm-1.644-11.227c-.753-.079-.951.064-1.15.832a10.995 10.995 0 00-.287 1.727c-.032.542-.367.94-1.037 1.233-1.405.615-7.945 7.377-6.831 7.062a33.632 33.632 0 011.66-.414c4.533-.98 6.897-1.818 7.612-2.7.414-.511.758-1.028.767-1.15.009-.124-1.037.13-2.314.559-1.277.43-2.403.711-2.49.623-.087-.086.22-.591.67-1.103.56-.637 1.612-1.177 3.24-1.663 1.915-.572 2.561-.936 3.145-1.775.846-1.216.792-1.488-.192-.964-1.221.651-1.666.42-1.779-.923-.091-1.088-.221-1.26-1.014-1.344zm4.798 2.207c-.11-.122-1.325 1.392-2.52 3.04l-.285.398c-.664.93-1.293 1.866-1.689 2.543-.16.273.621.375 2.696.352 1.628-.018 3.634.173 4.533.432.894.257 1.683.393 1.771.304.088-.088-.843-1.663-2.059-3.486-1.215-1.824-2.321-3.442-2.447-3.583zm-.958 3.422c.53-.857.716-.831 1.381.193l.54.831h-1.18c-1.277 0-1.33-.071-.741-1.024zM909.225 80.721c4.572-2.198 10.515-.172 12.864 4.383 1.31 2.54 1.52 6.722.44 8.817-3.947 7.67-14.214 7.87-17.941.349-1.53-3.089-1.677-5.354-.525-8.12 1.057-2.54 2.661-4.228 5.162-5.429zm26.886-.646c1.431-.57 5.814.163 7.604 1.272 2.272 1.408 3.683 3.409 4.444 6.298 1.772 6.728-4.842 13.413-11.75 11.877-6.61-1.47-9.779-9.353-6.096-15.165 1.31-2.067 2.568-2.996 5.798-4.282zm47.248 10.196v4.005l.005.208c.022.468.12.823.297 1.065.2.276.537.414 1.008.414s.806-.138 1.004-.414c.198-.277.297-.7.297-1.273v-4.005h1.404v4.005l-.005.249a3.76 3.76 0 01-.184 1.061 2.348 2.348 0 01-.537.9 2.09 2.09 0 01-.853.519c-.336.11-.714.165-1.135.165-.428 0-.81-.057-1.145-.17a2.132 2.132 0 01-.853-.523 2.252 2.252 0 01-.528-.91c-.12-.37-.179-.81-.179-1.319v-3.977h1.404zm-25.54-.17c.428 0 .8.054 1.118.16.317.108.584.262.8.463.217.2.392.442.524.725s.23.6.292.952l-1.395.18-.04-.192a1.739 1.739 0 00-.36-.742c-.198-.226-.51-.34-.938-.34-.54 0-.95.203-1.23.609-.28.405-.42.978-.42 1.72 0 .747.15 1.322.448 1.724a1.42 1.42 0 001.202.603c.433 0 .752-.111.956-.334.205-.223.332-.542.382-.957h1.508l-.025.212a3.032 3.032 0 01-.225.782c-.135.305-.32.57-.556.792a2.49 2.49 0 01-.867.523c-.342.126-.74.189-1.192.189-.509 0-.956-.085-1.343-.255a2.645 2.645 0 01-.97-.716 3.083 3.083 0 01-.59-1.117 4.987 4.987 0 01-.197-1.446c0-.547.072-1.037.216-1.47.145-.434.352-.805.622-1.113.27-.307.597-.543.98-.706a3.288 3.288 0 011.3-.245zm20.498.17l.256.005c.415.017.764.077 1.05.179.342.122.61.283.805.48.195.199.33.418.406.66.075.242.113.48.113.712 0 .433-.079.798-.236 1.093-.157.295-.42.543-.792.745L981.286 97h-1.517l-1.131-2.526h-1.32V97h-1.385v-6.729h2.384zm-8.802 0l1.678 5.023 1.724-5.023h1.64V97h-1.291v-4.486L971.73 97h-1.093l-1.546-4.476V97h-1.263v-6.729h1.687zm-6.908 0l1.452 2.724 1.498-2.724h1.49l-2.272 3.987V97h-1.404v-2.742l-2.328-3.987h1.564zm15.682 1.16h-.97v1.875h1.093c.22 0 .402-.024.546-.07a.85.85 0 00.344-.199.664.664 0 00.174-.306c.032-.12.048-.251.048-.396 0-.12-.02-.234-.057-.344a.71.71 0 00-.193-.292.93.93 0 00-.377-.198 2.196 2.196 0 00-.608-.07zm10.998-11.277c.433 0 .806.053 1.117.16.31.107.575.255.791.443.217.189.39.408.519.66.128.251.221.521.278.81l-1.395.18-.04-.164a2.424 2.424 0 00-.097-.284.909.909 0 00-.608-.538c-.15-.047-.339-.07-.565-.07-.547 0-.955.204-1.225.612-.27.409-.405.984-.405 1.725 0 .748.136 1.324.41 1.73.273.405.717.607 1.333.607.295 0 .551-.03.768-.09.217-.06.426-.152.627-.277v-1.122h-1.282v-1.168h2.582v2.846l-.178.154a3.713 3.713 0 01-1.056.59c-.478.176-.97.264-1.48.264-.534 0-1-.085-1.4-.254a2.654 2.654 0 01-.994-.717 3.044 3.044 0 01-.593-1.116 4.987 4.987 0 01-.198-1.447c0-.547.072-1.037.217-1.47.144-.434.35-.804.617-1.112.267-.308.592-.544.975-.707.384-.163.81-.245 1.282-.245zm-7.228 0c.502 0 .952.082 1.347.245.396.163.73.399 1.004.707.273.308.482.678.627 1.112.144.433.216.923.216 1.47 0 .547-.07 1.037-.212 1.47a3.097 3.097 0 01-.622 1.112 2.697 2.697 0 01-1.003.707 3.532 3.532 0 01-1.357.245c-.503 0-.952-.082-1.348-.245a2.74 2.74 0 01-1.008-.707 3.171 3.171 0 01-.636-1.112 4.546 4.546 0 01-.222-1.47c0-.547.074-1.037.222-1.47.147-.434.36-.804.64-1.112.28-.308.618-.544 1.013-.707a3.48 3.48 0 011.339-.245zm-6.965 0c.434 0 .806.053 1.117.16.311.107.575.255.792.443.216.189.39.408.518.66.129.251.221.521.278.81l-1.395.18-.04-.164a2.424 2.424 0 00-.096-.284.909.909 0 00-.608-.538c-.151-.047-.34-.07-.566-.07-.546 0-.955.204-1.225.612-.27.409-.405.984-.405 1.725 0 .748.137 1.324.41 1.73.273.405.718.607 1.333.607.296 0 .552-.03.768-.09.217-.06.426-.152.627-.277v-1.122h-1.282v-1.168h2.583v2.846l-.179.154a3.713 3.713 0 01-1.056.59c-.477.176-.97.264-1.48.264-.534 0-1-.085-1.399-.254a2.654 2.654 0 01-.994-.717 3.044 3.044 0 01-.594-1.116 4.987 4.987 0 01-.198-1.447c0-.547.072-1.037.217-1.47.144-.434.35-.804.617-1.112.267-.308.592-.544.976-.707.383-.163.81-.245 1.281-.245zm-15.21.17v1.215h-2.026v5.513h-1.414V81.54h-2.026v-1.215h5.466zm54.028 0l.253.005c.91.043 1.628.32 2.155.833.575.56.862 1.389.862 2.488 0 .56-.08 1.05-.24 1.47a2.86 2.86 0 01-.693 1.065c-.301.29-.669.506-1.102.65a4.637 4.637 0 01-1.47.217h-2.281v-6.728h2.516zm-6.945 0l.252.005c.91.043 1.628.32 2.155.833.575.56.863 1.389.863 2.488 0 .56-.08 1.05-.24 1.47a2.86 2.86 0 01-.693 1.065c-.302.29-.67.506-1.103.65a4.637 4.637 0 01-1.47.217h-2.28v-6.728h2.516zm-3.62 0v1.196h-3.185v1.47h2.997v1.207h-2.997v1.658h3.384l-.142 1.197h-4.646v-6.728h4.59zm-8.688 0v5.522h3.185l-.15 1.206h-4.44v-6.728h1.405zm-25.917 0v6.728h-1.404v-6.728h1.404zm-4.712 0l2.526 6.728h-1.508l-.537-1.555h-2.356l-.537 1.555h-1.451l2.525-6.728h1.338zm18.02 1.036c-.591 0-1.031.203-1.32.608-.29.405-.434.979-.434 1.72 0 .748.145 1.322.434 1.725.289.402.729.603 1.32.603.59 0 1.03-.201 1.319-.603.289-.403.433-.977.433-1.725 0-.741-.144-1.315-.433-1.72-.29-.405-.73-.608-1.32-.608zm31.862.16h-1.112v4.335h.905a2.5 2.5 0 00.933-.155c.257-.104.466-.253.626-.448.16-.194.278-.425.354-.692.075-.267.113-.567.113-.9 0-.327-.033-.624-.099-.89a1.74 1.74 0 00-.316-.675 1.438 1.438 0 00-.56-.424c-.23-.1-.51-.15-.844-.15zm-6.945 0h-1.113v4.335h.905a2.5 2.5 0 00.933-.155c.258-.104.467-.253.627-.448.16-.194.278-.425.353-.692.076-.267.113-.567.113-.9 0-.327-.033-.624-.099-.89a1.74 1.74 0 00-.315-.675 1.438 1.438 0 00-.561-.424c-.23-.1-.51-.15-.843-.15zm-43.643.406l-.81 2.412h1.63l-.82-2.412zM908.38 57.4c2.131-1.304 6.212-1.585 8.796-.606 3.526 1.335 6.004 5.048 6.063 9.083.157 10.759-14.56 14.038-19.002 4.233-2.143-4.731-.46-9.896 4.143-12.71zm26.14-.606c1.915-.759 6.064-.704 8.002.107.933.39 2.43 1.554 3.344 2.6 4.152 4.75 3.216 11.394-2.102 14.912-3.052 2.02-7.603 2.008-10.685-.028-3.95-2.608-5.692-8.708-3.625-12.693 1.007-1.942 3.367-4.223 5.067-4.898zm59.64 11.246c.433 0 .805.053 1.116.16.31.107.575.254.792.443.216.188.39.408.518.66.129.25.221.521.278.81l-1.395.18-.04-.164a2.424 2.424 0 00-.097-.284.909.909 0 00-.607-.538c-.151-.047-.34-.07-.566-.07-.546 0-.955.204-1.225.612-.27.409-.405.983-.405 1.725 0 .747.136 1.324.41 1.73.273.404.718.607 1.333.607.296 0 .552-.03.768-.09.217-.06.426-.152.627-.278v-1.121h-1.282v-1.169h2.583V74.1l-.179.155a3.713 3.713 0 01-1.056.59c-.477.176-.97.264-1.48.264-.534 0-1-.085-1.399-.255a2.654 2.654 0 01-.994-.716 3.044 3.044 0 01-.594-1.117 4.987 4.987 0 01-.198-1.446c0-.547.072-1.037.217-1.47.144-.434.35-.805.617-1.112.267-.308.592-.544.976-.707.383-.164.81-.245 1.281-.245zm-29.395 0c.503 0 .952.081 1.348.245.396.163.73.399 1.004.707.273.307.482.678.626 1.112.145.433.217.923.217 1.47 0 .546-.07 1.036-.212 1.47a3.097 3.097 0 01-.622 1.112 2.697 2.697 0 01-1.003.707 3.532 3.532 0 01-1.358.245c-.502 0-.951-.082-1.347-.245a2.74 2.74 0 01-1.009-.707 3.171 3.171 0 01-.636-1.112 4.546 4.546 0 01-.221-1.47c0-.547.074-1.037.221-1.47.148-.434.362-.805.641-1.112.28-.308.617-.544 1.013-.707a3.48 3.48 0 011.338-.245zm13.194 0c.49 0 .899.056 1.225.17.327.113.59.262.792.447.201.185.35.4.448.646.097.245.161.5.193.763l-1.329.17-.034-.153c-.075-.292-.197-.508-.367-.648-.197-.164-.497-.245-.9-.245-.238 0-.435.02-.589.06-.153.042-.278.095-.372.161a.548.548 0 00-.198.23.687.687 0 00-.056.274c0 .251.07.44.212.566.141.125.381.223.72.292l.924.179.236.051c.61.146 1.065.363 1.366.65.34.324.51.791.51 1.4 0 .296-.056.567-.166.816-.11.248-.273.465-.49.65-.216.185-.488.33-.815.433-.327.104-.71.156-1.15.156-.917 0-1.619-.196-2.106-.59-.487-.392-.75-.984-.787-1.776h1.423l.017.15c.05.339.178.59.384.755.235.189.582.283 1.041.283.22 0 .405-.024.556-.07.15-.048.273-.11.368-.19a.67.67 0 00.202-.277.968.968 0 00.062-.349.748.748 0 00-.198-.495c-.132-.154-.374-.265-.726-.334l-.876-.16-.252-.051a4.775 4.775 0 01-.663-.195c-.263-.1-.485-.23-.664-.39a1.569 1.569 0 01-.41-.59 2.203 2.203 0 01-.141-.829c0-.32.064-.603.193-.848s.308-.45.537-.613c.23-.163.504-.287.825-.372a4.12 4.12 0 011.055-.127zm-7.567.17v4.005l.004.207c.022.468.121.823.297 1.065.201.276.537.415 1.009.415.47 0 .805-.139 1.003-.415.198-.277.297-.7.297-1.272V68.21h1.404v4.006l-.005.248a3.76 3.76 0 01-.183 1.062 2.348 2.348 0 01-.537.9 2.09 2.09 0 01-.853.518c-.336.11-.715.165-1.136.165-.427 0-.809-.057-1.145-.17a2.132 2.132 0 01-.853-.523 2.252 2.252 0 01-.527-.91c-.12-.37-.18-.81-.18-1.319V68.21h1.405zm-14.07 0v2.6h2.667v-2.6h1.404v6.728h-1.404v-2.827h-2.668v2.827h-1.404V68.21h1.404zm26.811 0v6.728h-1.404V68.21h1.404zm2.639 0l2.77 4.41v-4.41h1.367v6.728h-1.253l-2.78-4.373v4.373h-1.367V68.21h1.263zm-21.016 1.036c-.59 0-1.03.203-1.32.608-.288.405-.433.978-.433 1.72 0 .747.145 1.322.434 1.724.289.403.728.604 1.32.604.59 0 1.03-.201 1.318-.604.29-.402.434-.977.434-1.724 0-.742-.145-1.315-.434-1.72-.289-.405-.728-.608-1.319-.608zm54.443-11.154c.49 0 .898.057 1.225.17.327.113.59.262.792.447.2.186.35.4.447.646.098.245.162.5.194.763l-1.33.17-.033-.153c-.075-.292-.197-.508-.367-.648-.198-.163-.498-.245-.9-.245-.238 0-.435.02-.589.061-.154.041-.278.094-.372.16a.548.548 0 00-.198.231.687.687 0 00-.056.274c0 .25.07.44.212.565.14.126.381.223.72.292l.924.18.236.05c.61.147 1.065.364 1.366.651.34.324.51.79.51 1.4 0 .295-.056.567-.166.815-.11.248-.273.465-.49.65-.217.186-.488.33-.815.434-.327.103-.71.155-1.15.155-.917 0-1.62-.196-2.106-.589-.487-.392-.75-.985-.787-1.776h1.423l.017.15c.05.338.177.59.384.754.235.189.582.283 1.04.283.22 0 .406-.023.557-.07.15-.048.273-.11.367-.189a.67.67 0 00.203-.278.968.968 0 00.061-.349.748.748 0 00-.198-.494c-.131-.154-.373-.266-.725-.335l-.877-.16-.251-.05a4.775 4.775 0 01-.663-.195c-.264-.1-.485-.231-.664-.391a1.569 1.569 0 01-.41-.59 2.203 2.203 0 01-.141-.829c0-.32.064-.603.193-.848.128-.245.308-.449.537-.612.23-.164.504-.288.824-.373.32-.084.673-.127 1.056-.127zm-54.509 0c.503 0 .952.082 1.348.245.396.164.73.4 1.003.707.274.308.483.679.627 1.112.145.434.217.924.217 1.47 0 .547-.07 1.037-.212 1.47a3.097 3.097 0 01-.622 1.112 2.697 2.697 0 01-1.004.707 3.532 3.532 0 01-1.357.245c-.503 0-.952-.081-1.348-.245a2.74 2.74 0 01-1.008-.707 3.171 3.171 0 01-.636-1.112 4.546 4.546 0 01-.222-1.47c0-.546.074-1.036.222-1.47.148-.433.361-.804.64-1.112.28-.308.618-.543 1.014-.707a3.48 3.48 0 011.338-.245zm51.097.17v1.197h-3.185v1.47h2.997v1.206h-2.997v1.659h3.383l-.141 1.197h-4.646v-6.73h4.59zm-59.607 0l2.77 4.41v-4.41h1.367v6.729h-1.253l-2.78-4.373v4.373h-1.367v-6.73h1.263zm50.918 0v5.522h3.186l-.151 1.207h-4.439v-6.73h1.404zm-4.712 0l2.526 6.729h-1.508l-.537-1.555h-2.356l-.537 1.555h-1.451l2.525-6.73h1.338zm-30.958 0l.256.005c.415.017.764.076 1.05.179.342.122.61.282.805.48.195.198.33.418.406.66.075.242.113.479.113.711 0 .434-.079.798-.236 1.094-.157.295-.42.543-.792.744l1.367 2.856h-1.517l-1.131-2.526h-1.32v2.526h-1.385v-6.73h2.384zm8.736 0v1.215h-2.026v5.514h-1.413v-5.514h-2.027v-1.215h5.466zm2.281 0v2.6h2.667v-2.6h1.404v6.729h-1.404v-2.828h-2.667v2.828h-1.404v-6.73h1.404zm8.538 0l1.084 4.674 1.103-4.637h1.489l1.15 4.637 1.017-4.674h1.508l-1.828 6.729h-1.367l-1.253-4.976-1.216 4.976h-1.329l-1.941-6.73h1.583zm-26.302 1.036c-.59 0-1.03.203-1.32.608-.289.406-.433.979-.433 1.72 0 .748.144 1.323.433 1.725.29.402.73.603 1.32.603.59 0 1.03-.201 1.319-.603.289-.402.434-.977.434-1.725 0-.741-.145-1.314-.434-1.72-.289-.405-.729-.608-1.32-.608zm36.998.566l-.81 2.412h1.63l-.82-2.412zm-30.279-.443h-.97v1.875h1.093c.22 0 .402-.023.546-.07a.85.85 0 00.344-.198.664.664 0 00.174-.307c.032-.119.048-.25.048-.395 0-.12-.02-.234-.057-.344a.71.71 0 00-.193-.292.93.93 0 00-.377-.198 2.196 2.196 0 00-.608-.071zm-62.175-25.737c5.734-2.653 12.173.463 13.823 6.69 2.403 9.065-8.967 16.112-16.01 9.921-5.773-5.073-4.671-13.439 2.187-16.611zM923.835.498c.895-.404 2.047-.6 2.635-.445.575.15 11.53 10.773 24.4 23.66 20.128 20.152 23.356 23.6 23.345 24.93-.02 2.181-1.875 3.935-4.161 3.935l-.104-.001a2.547 2.547 0 01-.103-.006l-.105-.01c-1.42-.172-3.342-1.854-15.892-14.389l-.949-.948-.989-.99-1.03-1.03-3.937-3.945-21.27-21.319-21.296 21.294c-18.934 18.934-21.477 21.296-22.935 21.311-2.385.026-3.3-.484-4.049-2.258-.462-1.096-.517-2.015-.175-2.939.31-.839 10.604-11.46 21.447-22.377l1.357-1.366 2.716-2.724 1.35-1.35C913.956 9.673 922.961.894 923.836.498zm11.332 32.741c3.429-1.373 8.454.02 11.004 3.051 5.178 6.156 1.171 15.573-6.88 16.168-2.285.168-3.48-.036-5.118-.873-7.759-3.968-7.157-15.08.994-18.346z"/><path d="M724.886 62.037v3.954l-3.398-.516c1.99 2.408 2.608 4.092 2.608 6.328v.103c0 2.82-2.574 8.94-11.19 8.94-1.923 0-2.06-.172-2.884-.31-.206.414-.927 1.72-.927 2.236 0 1.96 9.166.516 14.04 3.13 1.785.962 2.987 2.44 2.918 4.814 0 .79-.103 1.547-.274 2.235-1.408 5.502-8.033 7.049-12.358 7.049l-2.61-.069c-2.78-.275-4.428-.653-6.625-1.375-.377-1.17-.652-2.304-1.03-3.542 2.61.79 5.218 1.479 7.827 1.616.824.034 1.099.069 1.305.069 2.265 0 7.003-.894 7.003-3.508v-.24c-.172-.688-.893-1.376-1.82-1.788-2.1-.988-4.212-1.198-6.312-1.375l-.968-.082c-1.45-.127-2.894-.293-4.322-.744-.653-.207-2.472-1.238-2.85-3.06a4.24 4.24 0 01-.068-.688c0-1.96 1.922-4.127 3.947-5.812-3.879-2.407-5.011-4.78-5.114-7.6v-.48c0-6.019 6.556-9.285 10.744-9.285h12.358zM721.007.862c1.442-.447 4.84-.516 4.84-.344 0 .172-3.02 2.132-4.531 3.714-1.373 1.41-5.939 2.648-5.939 2.648s-3.33.653-4.497 4.367c1.373.103 2.78-.894 4.223-1.17l5.011 3.44-.103.447c-2.574-1.754-6.35-2.751-9.165-1.548-2.128.722-4.12 1.685-6.282 2.614.55.31 1.682.55 1.75 1.169l-1.647 1.238c.412 1.891 1.064 3.404 2.884 4.195l3.33-1.685c1.064 1.582 2.883 3.198 2.402 5.468l-1.236 3.094c.893.31 1.648 1.135 2.438 1.651.652.413 1.304.688 2.094.31 1.75.171 3.124 1.237 4.05 2.44l.206-.137c-.343-.619-.755-1.581-1.235-2.613-.756-1.72-1.614-3.68-2.06-4.711-.206-.481-.309-.791-.309-.791.378.275.755.516 1.133.79 1.922 1.376 3.639 2.958 5.218 4.712 1.338 1.513 2.608 3.13 3.81 4.745.069.138.137.241.24.344a4.335 4.335 0 00-.103-.344c-.412-1.306-.824-2.991-1.201-4.745a110.694 110.694 0 01-.893-4.711c-.377-2.27-.618-3.92-.618-3.92.618 1.203 1.168 2.544 1.751 3.92.618 1.547 1.27 3.164 1.991 4.711.79 1.72 1.682 3.336 2.746 4.745.447.585.927 1.1 1.442 1.617.79.962 1.922 1.203 2.266 2.475-4.223-1.478-8.857-3.85-13.8-3.92a2.856 2.856 0 01-.515-.137c-1.785-.62-3.124-2.235-4.943-2.992-1.167-.516-2.3-1.1-3.433-1.72-2.677-1.478-5.286-3.197-7.93-4.71-.343-.172-.686-.379-.995-.55-.79.034-1.785.034-2.094.55l.164.298c.594.99 1.624 1.921 2.342 2.797-.669-.022-1.373-.486-2.086-1.008l-.252-.186c-1.514-1.12-3.053-2.291-4.356.162-.55.894.275 1.65 1.133 2.235.274.206.618.344.927.413.858.24 1.785.137 2.403.687l-.447.31c-1.922-.206-4.668-1.41-5.698.756-.378 1.238.24 2.167 1.03 2.992.412.447.858.86 1.236 1.272.755.172 1.132.241 1.647-.24-.618-.138-1.476-.447-1.888-1.032a1.163 1.163 0 01-.206-.413c.893.07 1.785.207 2.678.413 2.197.482 4.325 1.272 6.282 2.098l-.55-2.098c1.168 1.754 2.575 3.301 4.12 4.746 1.922 1.753 4.016 3.3 6.247 4.71a49.89 49.89 0 003.433 2.03c4.154 1.89 9.063 3.472 12.358 6.567 4.737-2.579 9.92-4.195 15.448-5.02 0 .103 0 1.788-.824 1.994 1.956 1.823.24 3.542 2.883 5.09.961.412 1.957.756 2.987 1.134 9.493 3.467 19.643 6.142 27.623 8.024l.08-.596c.892-.31 4.942-1.547 6.384-1.72 7.106-.86 10.71 1.823 11.877 3.336 1.03 1.341 1.683 3.61 1.683 5.261v13.893c0 .515.102.997.308 1.444.378.997 1.099 1.788 1.923 1.96h-7.587c-1.579 0-2.265-.481-2.437-1.96-.034-.275-.034-.585-.034-.929v-9.662h-.618c-.893 0-6.007 1.135-6.007 6.017 0 .791.309 2.786 1.51 3.198.412.138 1.27.172 1.442.172 1.03 0 2.06-.31 3.192-.653-.103.413-.206 1.17-.309 1.857a27.65 27.65 0 01-.206 1.513c-1.441.481-2.677.963-4.188 1.135-.755.058-1.19.067-1.432.068h-.112c-2.54 0-5.115-.825-6.591-2.682-.79-.997-1.27-2.338-1.27-3.989 0-8.459 14.589-9.765 14.589-9.765v-2.201c0-.438-.054-1.564-.692-2.563-2.092-.213-5.12-.591-8.813-1.17-1.337.28-2.503.593-3.06.81l.17-1.281c-2.334-.396-4.87-.863-7.553-1.408.267.243.532.508.793.798.412.481.755 1.1 1.03 1.616.858 1.65 1.442 3.37 1.648 5.055 0 .24.034.447.034.687.069.963.103 1.341.103 1.548 0 4.78-1.682 9.216-4.943 11.863-1.717 1.41-3.845 2.304-6.385 2.51-.755.059-1.216.068-1.443.07h-.102c-1.098 0-2.094-.207-3.604-.723-.103-.344-.275-1.169-.412-1.857-.138-.722-.24-1.34-.24-1.34.995.412 2.025.756 3.089.756 3.707 0 5.904-3.336 5.904-10.213 0-.791-.103-2.029-.343-3.301-.378-1.995-1.167-4.127-2.575-4.952-.618-.344-1.613-.791-2.265-.791-1.339 0-3.021.516-4.36 1.479v32.186h-7.758V62.828l7.792-1.17v2.373a17.795 17.795 0 014.655-1.802c-6.457-1.589-13.337-3.59-20.068-6.072-2.849-1.066-5.698-2.201-8.479-3.44l-2.952 1.755c-.927-.207-.549-1.1-1.064-1.41-2.26-1.806-4.949-2.87-7.69-3.932l-1.098-.426-.549-.216c-.79.035-.412 1.1-1.236 1.135-6.316-.963-12.22 2.545-17.953 4.298.446-2.097-2.266-2.475-3.227-3.473-3.707-2.132-5.904-4.195-7.518-6.086-1.441-1.72-2.368-3.301-3.501-4.746-1.03-1.306-2.197-2.441-3.948-3.473-.96.791-2.368 1.204-3.707.62-.893-.413-1.373-1.032-1.682-1.858a14.666 14.666 0 01-.31-.928c-.377-1.444.035-2.648.653-3.783l.115-.232c.125-.232.28-.464.434-.696.859-1.41 2.712.172 3.124-1.72 1.51-.687 3.502-1.203 6.11.035 1.751.825 2.987 1.582 4.257 2.579.48.378.961.79 1.476 1.238.103-.62.31-.929.618-1.238.24-.206.55-.413.961-.757-.24-.86-.79-1.96.172-2.75.377-.654.995-.963 1.648-1.204.137-.048.277-.092.417-.136l.425-.132c.637-.203 1.267-.446 1.767-.97 2.013-.992 3.788-.018 5.603 1.01l.404.228c.824.447 1.682.928 2.574 1.17.07-.414.103-.792.035-1.17-.138-.825-.55-1.582-1.099-2.235-1.236-1.444-3.638-1.341-4.737-2.786-.343-1.272-.687-2.338-1.476-3.3l.103-.585c1.51.344 1.716 2.166 2.231 3.473.206-.172.721.344.79-.035-.412-1.685-1.202-3.645-2.163-4.642l.172-.756 7.312-2.82c.549-2.442 2.437-3.817 4.634-4.952 3.124-1.822 4.256-5.055 6.625-5.949zM737.862 61.9c3.639 0 6.35 1.444 6.35 1.444s.254.882.517 1.85l.148.55c.129.486.25.958.331 1.314-2.369-1.135-4.394-1.857-6.59-1.857-1.237 0-3.983.413-3.983 2.854 0 1.582 2.128 2.58 4.634 3.714 3.605 1.65 7.896 3.645 7.896 8.288 0 1.753-.515 4.092-2.472 5.845-1.648 1.479-4.394 2.58-8.788 2.58-3.675 0-7.041-1.204-7.59-1.419l-.065-.026-.309-1.135c-.206-.79-.377-1.616-.618-2.441 1.305.447 4.017 1.754 7.518 1.754 3.02 0 5.046-1.582 5.046-3.508 0-.928-.55-2.029-1.785-2.75-3.09-1.789-6.522-2.442-9.44-5.606-.412-.447-.686-.997-.892-1.582a7.193 7.193 0 01-.344-2.097c0-4.47 4.12-7.772 10.436-7.772zm-78.301-9.078l-13.217 15.543 2.506 3.439L659.217 85.9l1.408 1.96h-9.715l-1.304-1.96-9.578-14.098-1.407-2.132 14.04-16.85h6.9zm174.075 28.438c1.82 0 3.33 1.479 3.364 3.301 0 .482-.103.929-.309 1.341l-.082.173c-.553 1.074-1.701 1.787-2.973 1.787-1.339 0-2.506-.825-3.02-1.96l-.095-.209a2.988 2.988 0 01-.215-1.132 3.307 3.307 0 013.33-3.3zM811.7 61.66v3.404c3.604-2.27 5.389-2.957 8.513-2.957 4.222-.035 7.38 2.922 7.38 9.697V87.86h-7.792V71.803c-.069-1.823-.48-2.889-1.133-3.783-.48-.688-1.682-1.17-2.369-1.17-1.579 0-3.192.86-4.53 1.961v19.05h-7.759V62.896l7.69-1.238zm-128.695 0v3.404c3.57-2.27 5.39-2.957 8.514-2.957 4.188-.035 7.346 2.922 7.346 9.697V87.86h-7.793V72.525c0-.24 0-.482-.034-.722-.103-1.376-.515-2.923-1.133-3.783-.48-.688-1.682-1.17-2.403-1.17-1.579 0-3.192.86-4.497 1.961v19.05h-7.723V62.896l7.723-1.238zm-12.392-.035v26.203h-7.724V62.862l7.724-1.238zm-32.028-8.803v35.006H631V52.821h7.586zm195.05 28.782c-1.648 0-2.987 1.341-2.987 2.957 0 .482.138.929.344 1.341l.09.167a2.935 2.935 0 002.553 1.45 3.025 3.025 0 002.677-1.617l.095-.209c.143-.353.214-.73.214-1.132 0-1.616-1.338-2.957-2.986-2.957zm-1.27 4.298l.621.032.008.051c.049.175.258.217.432.225l.072.002-.001.137h-1.613v.035h-.034v-.138l.034-.001v.001l.097-.003c.211-.013.323-.077.368-.256l.016-.085zm1.304-3.37l.117.004c.078.005.156.015.233.03h.004l.017.004.047.011.047.011.006.002.019.006.087.026.086.034.021.008.06.029.018.009.015.007.01.006.013.007.02.012.003.002.008.005.005.003.009.005.011.007.016.01.012.007.003.002.032.024.001.001.009.007.035.026.008.006.005.005.03.028.002.002.007.006.011.011.017.016.01.01.006.006.005.006.015.017.003.004.007.008.018.021.002.002.01.012.007.008.008.013.014.021v.001l.009.013.024.038.004.005.002.002.011.025.004.008.001.001.009.019.002.004.022.046.006.019.016.048.009.03.006.014v.005l.005.029.008.041.006.03.004.016.002.051v.003l.006.077-.001.006-.002.028-.004.057v.025l-.008.034-.002.013-.011.062-.011.029-.001.005-.002.006-.02.059v.004l-.01.019-.007.015-.03.062-.003.004-.009.015-.01.015-.019.03-.016.025-.029.034-.012.015-.026.032-.024.022-.004.003-.009.009-.028.027-.007.006-.005.007-.045.032-.001.001-.04.032-.044.025-.035.021-.015.01-.013.006-.027.013-.034.017-.027.013-.093.034-.014.006a1.315 1.315 0 01-.112.03l-.023.003-.094.017.009.014.009.011.006.009.027.035.025.034.128.17.025.034.124.166.05.066.097.13.072.096.071.095.095.126.046.062.115.153.022.03.083.11.026.035-.061-.001.026.035a.544.544 0 00.262.242l.021.006-.06-.036-.003-.002-.039-.034-.009-.008.005.004.004.004.002.001.029.025.007.006.001.002.004.001.001.001.002.001.016.009.025.014.009.005.002.002.021.005.003.001.025.007.014.004h.067l.015-.004.026-.007.004-.001.022-.006.005-.001-.001.037-.034.002v.132h-.849l.026.035h-.069l-.319-.447h.059l-.025-.035-.024-.033-.081-.111-.022-.03-.113-.153-.045-.062-.093-.126-.07-.095-.071-.096-.095-.13-.049-.066-.122-.166-.175-.238-.025-.034h-.309l-.001.034h-.033v.035l.033-.001v-.034h.276l.96 1.307.025.034h-.024l-.961-1.306-.276-.001.001 1.273.004.034.004.034.003.015-.001.001.015.03.001.003v.001l.009.019.006.013.004.004.025.028.001.002.004.004.007.008.001.001.002.003.003.002.011.008.001.001.037.025.01.006.001.001.005.002.003.001.002.001.022.009.035.015.018.004.004.001.022.006.004.001.027.007.025.004.038.006.014.002.045.003.016.001.015.002h.035l.037.001-.001.034h-.071c-.174-.008-.383-.048-.432-.201l-.011-.073-.031-.003-.003-.032h-.625l.007-.034-.001-2.777-.001-.038v-.034l-.002-.015v-.007l-.001-.012v-.002l-.001-.021-.001-.008v-.003l-.003-.018-.001-.006-.001-.007-.001-.009-.003-.016v-.002l-.002-.009-.002-.006-.001-.002-.008-.028-.001-.003-.001-.001h.001l-.004-.007-.014-.026-.003-.007-.023-.025-.002-.002-.006-.007-.016-.01-.012-.007-.008-.005-.004-.003-.015-.005-.005-.002-.032-.012-.04-.008-.025-.004a.96.96 0 00-.079-.007l-.094-.003v-.172h1.716zm-.48.344h-.172v1.513l.011-.001.083-.006.089-.009h.011l.105-.013.04-.007.068-.01.061-.012.047-.009c.037-.008.073-.016.109-.026l.103-.031h.003l.086-.034.016-.005.013-.007.058-.027.007-.003.02-.009.035-.022.053-.031.019-.016.046-.035.016-.012.011-.012.029-.03.014-.015.015-.014.003-.005.043-.062.011-.015.009-.019.002-.004.027-.059.003-.006.002-.004.008-.03.016-.062.003-.012.003-.036.002-.024.004-.057-.002-.028v-.006l-.006-.077-.001-.003-.004-.017-.007-.034-.004-.016-.007-.03-.017-.041-.012-.029-.002-.005-.006-.013-.019-.031-.021-.033-.01-.015-.018-.02-.039-.045-.004-.004-.023-.019-.001-.001-.01-.008-.03-.025-.002-.002-.005-.004-.06-.039-.02-.012-.002-.002-.043-.021-.029-.014-.013-.006-.033-.013-.006-.002-.055-.02-.028-.009-.014-.004-.057-.016-.028-.007-.033-.007-.041-.009a1.937 1.937 0 00-.105-.016l-.029-.003-.077-.008a2.522 2.522 0 00-.105-.006l-.104-.002zM712.94 64.891c-1.27 0-2.643.756-3.33 2.373a11.385 11.385 0 00-.824 4.332v.207c.035 1.96.962 6.258 4.257 6.258.995 0 1.75-.103 2.609-1.272.79-1.066 1.407-3.508 1.442-4.986v-.207c0-1.444-.79-6.705-4.154-6.705zm74.56.688c-.414 0-.88.027-1.374.076 1.827.402 3.42.74 4.72 1.018-.686-.632-1.738-1.094-3.346-1.094zM666.804 50c2.574 0 4.325 2.201 4.325 4.264 0 1.754-1.476 4.264-4.394 4.264-2.369 0-4.394-1.788-4.394-4.195 0-2.373 1.648-4.333 4.463-4.333zm41.261-14.167s2.54 1.822 5.973 3.851c2.918 1.72 6.488 3.61 9.68 4.711.928.31 1.855.585 2.713.722 2.471.516 5.012.207 7.106-.344.068 1.617-1.168 2.201-2.506 2.889 1.544.138 3.501-.619 4.737-1.754a4.43 4.43 0 00.927-1.547c.549-1.479.515-3.267.412-4.711 1.853 1.478 4.153 3.095 6.076 4.71.583.517 1.098.93 1.544 1.41-5.046 1.548-12.907 5.846-12.907 5.846s-5.355-3.37-8.582-4.848c-1.579-.722-3.158-1.479-4.668-2.373-2.438-1.375-4.737-2.923-6.797-4.71a30.099 30.099 0 01-3.708-3.852zm-20.63-2.098c-1.442-.756-2.472.585-2.884 1.238-.103.206-.172.31-.172.31s2.094 1.478 5.459 4.436a93.182 93.182 0 015.046 4.71l.206.207c2.78 2.063 7.414 3.782 6.797 4.298-.721.55 3.947-.172 6.384-1.306.656-.209 1.131-.515 1.581-.845l.268-.2c.936-.705 1.893-1.447 4.296-1.534-.275-.207-.55-.447-.858-.654l-.414-.315-.416-.32c-2.15-1.662-4.25-3.388-4.25-3.388-.413 1.341-.584 1.96-1.992 2.579-1.064.378-2.025.378-3.02-.034.858-.07 1.27-.31 1.441-1.032-.995.24-.926.653-3.192.31-.1-.012-.348-.13-.714-.33l-.262-.145c-.788-.445-1.974-1.166-3.35-2.001-2.402-1.513-5.389-3.37-7.757-4.746-.824-.481-1.58-.894-2.197-1.238zm43.836-14.855c.172.172 2.883 3.232 6.11 6.602a151.97 151.97 0 004.703 4.711c1.648 1.548 3.124 2.854 4.222 3.611.55.378 1.202.756 1.854 1.135 2.85 1.616 6.557 3.267 9.852 4.608l.31.103c1.75.688 3.604 1.41 4.874 1.857 4.325 1.513 14.863 1.925 14.863 2.235 0 .137-1.235.412-2.883.653-2.403.378-5.767.757-7.518.722-2.162-.068-7.723.688-12.873-.722-1.853-.516-3.673-1.307-5.252-2.51a49.252 49.252 0 01-2.609-2.2c-.068-.035-.103-.104-.137-.138a56.51 56.51 0 01-4.463-4.608 67.81 67.81 0 01-3.81-4.746 103.03 103.03 0 01-3.295-4.71c-2.369-3.611-3.776-6.293-3.948-6.603zm-53.894 13.996c-.07.79-.103 1.444-.035 2.063.069.481.206.928.48 1.41.619 1.066 2.164 1.581 3.57 1.203.482-.103.413-.378.756-.103.206.894-.892 1.204-1.682 1.444-1.545.516-2.952-.378-3.776-1.788-.412-.722-.412-1.479-.412-2.166 0-.241.034-.482 0-.722.103-.55.652-1.238 1.099-1.341zm53.997-16.61c.309.207 5.355 3.336 9.303 5.055 2.162.963 5.801 2.167 10.847 4.23a156.916 156.916 0 0110.367 4.711c1.82.929 3.742 1.926 5.767 3.026 1.236.654 2.712 1.238 4.394 1.685 9.406 2.614 24.03 2.27 24.03 2.545 0 .275-24.373 1.238-39.306-2.545-2.06-.516-3.947-1.135-5.56-1.857-1.511-.687-3.159-1.685-4.807-2.854-1.956-1.41-3.947-3.06-5.8-4.71-4.944-4.437-8.96-8.976-9.235-9.285zm-46.033 11.83c-1.682-.207-2.506.756-2.884 2.132a5.562 5.562 0 00-.206 1.135c-.24 1.134.103 2.407 1.27 2.441.996.034 1.03-1.17 1.51-1.65.893-.585 2.095-1.548 3.296-.688.069.619-.652.275-1.064.378a67.495 67.495 0 016.145 3.13 70.771 70.771 0 014.29 2.578c-1.2-1.1-2.093-1.926-2.746-2.579-1.613-1.65-1.922-2.2-3.33-3.645-.446-.413-.858-.79-1.27-1.1-1.407-1.135-2.471-1.754-5.011-2.132zm15.241 7.909c-.412.55-.515.619-1.064.79 1.682 1.101 1.75.173 3.33-.137-1.064-.516-.55-.172-2.266-.653zm-19.944-5.812c-.035-.275-.172-.412-.584-.31-.034.104-.068.207-.137.31l-.073.15-.076.15-.154.31c-.673 1.356-1.345 2.914-.006 4.136.137.137.343.275.55.412.926.55.754-.103 1.2-.412l-.14-.236c-.35-.642-.515-1.4-.546-2.103-.412-.619.034-1.822-.034-2.407zm39.236-2.235c.31.62.721 1.41 1.167 2.27.687 1.34 1.408 2.785 2.026 3.885l2.06.62c-.893-1.204-2.026-2.958-3.193-4.505-.687-.894-1.408-1.685-2.06-2.27zm10.916-14.855c.31.103 3.708 1.341 6.248 1.685 2.643.378 20.356 2.441 26.913 6.018 3.124 1.685 5.08 3.404 6.556 4.71.996.86 1.785 1.548 2.61 1.926.859.394 2.002.664 3.034.876l.434.088c1.205.239 2.161.406 2.161.618l-.025.01-.044.018c-.476.182-3.44 1.135-10.16-.337-3.33-.757-6.042-1.892-8.823-3.198-3.33-1.582-6.762-3.336-11.43-4.849-8.514-2.716-9.475-2.716-12.565-4.47-2.883-1.65-4.703-2.923-4.909-3.095zM716.132 23.97c-.013 0-.01.116-.009.307v.216c0 .277-.011.64-.06 1.025-.068.481-.17.997-.377 1.375-.446.825-.961 1.823-1.716 1.65l-.343-.343c.617-.722 1.03-1.685 1.235-2.682a7.843 7.843 0 00.172-1.995c.446-.31.755.172 1.098.447zm-6.11 1.41a.26.26 0 01.069.138c.067.222.024.526-.035.84l-.06.314c-.13.694-.176 1.317.919 1.08a5.075 5.075 0 01-.079-.514l-.037-.343c-.059-.512-.152-1.001-.57-1.377-.07-.035-.138-.103-.207-.138zm3.296-11.623c1.853.585 3.33.62 5.114.62.138.24.31.756.24 1.134l-1.99-.034.274.653c1.957.997 3.776 1.341 5.15 3.232l.652 2.51c-1.957-1.994-3.296-3.438-6.18-4.848 1.27 1.479 3.159 2.854 3.948 4.814l-.137.585c-2.815-2.614-5.767-4.608-9.818-5.09-.79-.137-1.407.173-2.162 0 1.339-1.719 2.574-2.888 4.909-3.576zm17.678-3.782c1.751-.275 11.26-3.508 17.439-2.682 6.144.825 10.435 6.361 12.392 7.84 1.957 1.478 4.909 1.891 4.909 2.2 0 .31-1.682.31-4.154-.137-2.471-.447-6.419-3.439-15.207-4.195-4.833-.416-6.915-.354-8.426-.345h-.4c-1.037-.003-1.877-.06-3.36-.377-3.708-.757-8.342-2.545-8.342-2.614.035-.103 3.467.585 5.15.31zm6.282-8.047c4.669-1.685 9.372 1.926 11.225 3.13 1.854 1.203 2.472.825 2.438 1.134 0 .275-.824.275-1.957.172a5.053 5.053 0 01-.5-.083l-.104-.025-.103-.025c-.55-.143-1.206-.36-4.476-.76-4.463-.551-9.75 2.234-14.35 3.025-4.6.757-8.478-.79-8.478-.79s4.188-.07 6.385-.723c2.162-.653 5.286-3.37 9.92-5.055zM730.86.003c2.746.137 5.733.584 5.733.825 0 .206-1.785-.31-3.433.516-1.648.825-5.424 3.954-8.925 4.78-3.261.756-7.827.79-8.445.79.584-.034 4.566-.378 6.969-2.097a32.4 32.4 0 001.8-1.392l.518-.423c1.902-1.553 3.834-3.073 5.783-3z" fill-rule="nonzero"/><path d="M282.588 12.24c1.292-.742.96-.978 20.47 18.44l11.848 11.793V87l-1.204-.165c-7.382-1.01-14.163-2.708-18.936-4.739-3.022-1.286-7.088-3.661-7.088-4.14 0-.15.741-1.098 1.672-2.141.913-1.024 2.562-3.05 3.634-4.469 8.918-11.8 9.734-23.835 2.13-31.405-2.13-2.12-4.975-3.778-7.73-4.504-2.02-.532-6.178-.52-8.264.023-5.361 1.397-9.632 5.515-11.493 11.08-3.136 9.38-.13 18.571 9.532 29.141l2.202 2.408-.91.756c-1.258 1.047-5.375 3.17-8.077 4.168-3.308 1.22-9.655 2.76-14.095 3.417-2.113.313-3.948.57-4.065.57-.112 0-.205-9.055-.213-20.487L252 42.473l14.95-14.93c8.212-8.201 15.205-15.068 15.513-15.233a3.65 3.65 0 00.043-.023zm170.244 37.646l2.862.08 2.862.08.067 11.105.002.39.003.777.002.776v1.152c-.005 4.958-.092 9.379-.218 10.525-.732 6.61-5.366 10.796-11.972 10.815-4.707.013-9.263-2.366-11.127-5.81-1.202-2.222-1.202-2.222 1.579-3.459 1.39-.618 2.532-1.088 2.554-1.05.022.035.222.521.436 1.056.557 1.392 2.542 3.277 3.83 3.636.582.162 1.765.298 2.594.298 4.559 0 6.5-2.382 6.5-7.974v-2.516l-.83 1.151c-.564.784-1.417 1.44-2.674 2.06-1.636.807-2.113.909-4.2.897-1.925-.011-2.66-.151-4.038-.77-2.005-.901-3.461-2.32-4.328-4.22-.05-.111-.097-.215-.14-.317l-.05-.122c-.441-1.113-.47-2.232-.55-9.757l-.093-8.777h5.67v7.075c.008 3.668.137 7.027.303 7.803.544 2.544 2.29 3.956 4.885 3.946 2.327-.008 4.154-1.123 5.28-3.223.566-1.054.61-1.579.698-8.376l.093-7.251zm93.45.026l.08 7.654c.065 6.228.109 7.476.486 8.391l.047.11c.042.092.087.182.135.275 1.297 2.476 5.216 3.178 7.756 1.39.718-.504 1.46-1.376 1.9-2.232.708-1.379.723-1.54.815-8.496l.094-7.092h5.563v14.562c-.01 10.326-.115 12.514-1.04 14.458l-.08.164-.084.164-.044.082-.09.166c-.077.14-.158.28-.244.428-2.99 5.108-10.427 7.107-16.472 4.429-2.54-1.126-5.253-3.995-5.933-6.276-.167-.562-.03-.712 1.093-1.204.695-.304 1.866-.82 2.554-1.124l1.27-.562.408.964c.6 1.418 2.067 2.972 3.363 3.563 1.525.695 4.667.691 6.179-.006 2.405-1.111 3.246-2.835 3.445-7.063l.139-2.943-1.185 1.338c-1.408 1.59-2.694 2.31-4.833 2.701-4.28.784-8.351-1.081-10.104-4.628l-.09-.182-.054-.115a4.415 4.415 0 01-.185-.459l-.039-.122c-.304-1.024-.327-2.711-.387-9.41l-.08-8.925h5.616zm-186.738-9.387c6.526-1.404 13.734 1.013 16.98 5.695.426.615.706 1.239.619 1.378-.089.14-1.124.922-2.3 1.74l-2.14 1.484-1.358-1.525c-4.76-5.349-13.88-4.415-17.517 1.793-1.675 2.859-2.038 7.867-.803 11.078 1.709 4.443 5.61 7.145 10.317 7.145 4.118 0 7.612-2.088 9.405-5.62.313-.615.62-1.124.678-1.124.16 0 4.8 1.993 4.92 2.114.343.343-2.032 3.899-3.743 5.606-3.322 3.314-6.794 4.7-11.795 4.71-4.948.009-8.869-1.53-11.891-4.67-3.097-3.216-4.638-7.332-4.638-12.389 0-3.425.524-5.67 2.046-8.777 2.114-4.312 6.379-7.596 11.22-8.638zm172.161.397l.001 15.885c.01 9.701.106 11.274 1.106 11.931l.081.05c.042.025.086.049.13.071l.093.045.096.043c.065.03.133.058.205.088.709.295 2.353.273 3.584-.048.454-.119 1.894 3.907 1.524 4.263-.474.455-3.798 1.387-4.948 1.387-3.076 0-5.545-1.497-6.838-4.147l-.784-1.606-.094-13.981-.094-13.981h5.938zm-144.052 0l.001 15.438v1.101c.01 8.016.065 9.354.403 10.094l.03.064.033.061.05.09.018.03c.288.482.82 1.05 1.15 1.228.61.33 2.755.256 3.665-.125.339-.142.555.262 1.043 1.948.34 1.178.543 2.247.454 2.395-.089.148-1.043.537-2.14.871-4.546 1.386-8.622-.453-9.997-4.51-.23-.679-.326-5.057-.326-14.824V40.922h5.616zm100.537 0v33.421h-5.617v-3.398l-1.417 1.266c-1.933 1.727-3.664 2.293-7.007 2.293-2.408 0-2.862-.09-4.547-.894-2.38-1.136-3.864-2.494-4.957-4.538-2.191-4.095-2.317-9.658-.308-13.594.888-1.739 3.235-4.07 4.89-4.855 4.092-1.943 9.374-1.326 12.016 1.403l1.036 1.07V40.923h5.911zm-207.973-.19c.686-.227 2.059-.34 3.53-.288 3.022.106 5.47 1.16 7.569 3.26 4.52 4.523 4.711 12.015.502 19.668-1.32 2.402-4.452 6.636-6.865 9.285l-1.634 1.793-1.936-2.087c-4.591-4.95-7.995-10.4-9.025-14.45-.544-2.14-.541-6.302.006-8.429 1.177-4.575 3.68-7.365 7.853-8.751zm149.724 9.18c2.255.006 2.934.092 2.846.348-.066.192-2.07 5.687-4.454 12.216l-4.332 11.867h-5.403l-1.123-3.157c-.62-1.74-1.856-5.272-2.755-7.867-.9-2.596-1.704-4.71-1.792-4.71-.088 0-1.163 2.89-2.38 6.395l-.111.32-.221.636a1178.504 1178.504 0 01-2.423 6.925l-.535 1.485-2.688-.08-2.688-.08-4.413-11.935c-2.424-6.556-4.359-12.037-4.293-12.162.067-.125 1.445-.191 3.076-.147l2.956.08 2.66 8.108c1.467 4.469 2.728 8.042 2.809 7.96.081-.08 1.317-3.719 2.755-8.107l2.607-7.96h5.778l5.429 16.295 1.47-4.63c.809-2.541 1.984-6.245 2.609-8.214l1.136-3.586zm150.414-.264c1.859-.37 4.12-.047 6.045.865 1.89.896 2.765 1.834 3.778 4.055l.134.302.047.117.023.058.043.118c.376 1.07.405 2.493.481 9.989l.094 9.191h-5.938V64.68c-.004-5.452-.042-6.535-.392-7.345l-.046-.102a3.902 3.902 0 00-.05-.102l-.053-.102a10.488 10.488 0 00-.088-.158c-1.09-1.95-3.89-2.765-6.19-1.802-1.22.51-2.9 2.444-3.262 3.755-.173.626-.296 4.067-.296 8.295v7.225h-5.91l.133-24.297 2.742-.08 2.741-.08v3.478l1.162-1.204c1.218-1.261 2.877-2.129 4.802-2.512zm-70.046-8.726l.561 1.471c.309.809 3.183 8.121 6.38 16.23 3.195 8.107 5.882 14.98 5.963 15.252.136.458-.093.489-3.035.415l-3.183-.08-2.808-7.44H500.6l-2.782 7.44-3.129.08a43.27 43.27 0 01-.86.013h-.4c-1.098-.005-1.877-.06-1.882-.147-.008-.118 2.92-7.653 6.499-16.724l6.512-16.51h5.75zm-31.774 14.444c-2.889-1.354-6.152-.737-8.09 1.53-2.587 3.024-2.199 8.878.735 11.104 1.381 1.048 2.3 1.343 4.226 1.354 3.952.024 6.514-2.45 6.805-6.57.25-3.533-1.071-6.197-3.676-7.418zm31.223-.396c-2.273-5.994-2.374-6.211-2.601-5.62-.09.235-1.114 2.944-2.264 5.994l-.104.276a515.03 515.03 0 00-1.655 4.443l-.1.274c-.154.424-.24.674-.24.694 0 .061 1.807.112 4.129.12h1.35c3.523-.007 3.802-.068 3.64-.495l-2.155-5.686zM170.386 58.162l1.333 3.282c.467 1.15 1.227 3.03 1.988 4.92l.325.807.927 2.306c1.05 2.618 1.942 4.752 1.987 4.752.044 0 1.31-3.35 2.808-7.43 1.498-4.08 2.843-7.701 2.984-8.033l.256-.604h1.6c.786.008 1.256.062 1.256.148 0 .27-9.639 24.429-10.062 25.22-.61 1.142-1.632 2.356-2.318 2.755-1.178.687-3.192.902-5.078.544l-.404-.077.094-1.134c.051-.618.125-1.183.162-1.242.036-.058.31-.042.592.034.29.078 1.017.114 1.624.08.956-.052 1.165-.114 1.623-.475.859-.677 1.376-1.585 2.43-4.27l.991-2.523-4.02-9.349c-2.212-5.14-4.022-9.43-4.022-9.53 0-.135.37-.18 1.462-.18h1.462zM84.457 47.967c3.691-.618 7.605.12 10.494 1.981.97.625 2.536 2.102 2.461 2.322-.02.059-.548.48-1.168.933l-1.131.825-.92-.926c-1.097-1.106-2.03-1.662-3.822-2.276-1.27-.436-1.455-.462-3.246-.452-2.129.012-3.468.283-5.052 1.021-3.18 1.482-5.46 4.365-6.424 8.123-.43 1.678-.47 4.787-.081 6.402.616 2.564 1.622 4.376 3.407 6.139 2.533 2.501 4.984 3.416 8.77 3.273 1.562-.059 2.035-.135 3.084-.494 1.71-.586 2.646-1.188 3.903-2.515l1.08-1.141 2.21 1.463-.305.403c-.61.805-1.912 2.064-2.672 2.583-6.354 4.345-15.978 2.477-20.297-3.94-2.519-3.74-3.277-8.844-1.978-13.314 1.592-5.481 6.07-9.47 11.687-10.41zm22.712 9.91c.952-.174 3.771-.05 4.768.211.465.121 1.394.486 2.054.806.957.463 1.442.82 2.345 1.724 1.28 1.282 1.836 2.161 2.415 3.826.36 1.035.393 1.302.399 3.248.006 2.362-.131 3.009-1.036 4.86-.666 1.364-2.351 3.099-3.766 3.877-1.672.92-2.95 1.227-5.159 1.239-1.59.009-2.104-.044-3.044-.313-3.489-.996-5.923-3.425-6.872-6.858-.414-1.496-.417-3.892-.007-5.45.99-3.756 3.956-6.447 7.903-7.17zm57.246.433c.141-.228 2.946-.188 2.866.04-.034.096-1.39 4.376-3.018 9.517l-2.957 9.342-3.084-.08-2.506-7.585c-1.379-4.174-2.533-7.61-2.566-7.644-.033-.033-1.18 3.383-2.546 7.584l-2.485 7.644-3.085.08-2.957-9.341c-1.627-5.141-2.984-9.424-3.017-9.524-.046-.137.296-.18 1.428-.18h1.488l.217.737.1.34.3 1.02.202.68c1.912 6.456 3.816 12.689 3.869 12.64.037-.034 1.213-3.499 2.613-7.7l2.546-7.637h2.694l2.607 7.71c1.434 4.242 2.637 7.682 2.674 7.645.037-.037 1.07-3.456 2.296-7.604 1.227-4.147 2.271-7.603 2.321-7.684zm-35.141-.338c1.562-.42 3.955-.18 5.442.545.94.458 2.235 1.82 2.703 2.84.8 1.748.799 1.731.862 9.046l.058 6.792h-2.842l-.007-5.953c-.004-3.49-.067-6.33-.152-6.865-.206-1.289-.758-2.436-1.498-3.114-.775-.71-1.347-.957-2.573-1.109-3.135-.39-5.526 1.377-6.387 4.72a8.864 8.864 0 00-.063.258l-.028.128c-.159.777-.186 1.707-.19 5.35v6.585h-2.828v-9.018c-.005-4.33-.045-8.236-.095-8.847l-.094-1.168 1.334.04 1.333.04.283 3.209.471-.725c.784-1.205 2.412-2.254 4.27-2.754zM31.23 13.976c.058-.061 1.326-.023 2.664.066l.402.027c.336.025.668.052.98.081.195.019.41.036.597.05l.254.016.18.008c.174.004.283.058.242.12-.041.063.047.082.195.041.149-.04.64.01 1.098.114.458.104.904.191.997.195.094.004.21.048.262.1.05.05.189.057.297.014.107-.043.202-.002.202.087 0 .094.059.13.134.08.075-.048.405-.01.741.088.337.097.7.19.815.208.122.02.229.098.256.188.025.08.099.122.155.087.155-.097 1.623.336 1.734.51.05.08.122.125.179.111.27-.065.92.183.834.319-.05.08-.026.107.055.058.127-.077.835.186 1.59.591.118.064.646.324 1.171.579.553.267.917.525.863.61-.055.087-.027.106.067.047.168-.105 1.118.43 1.59.896.161.16.363.279.47.279.109 0 .3.12.445.282.147.16.308.282.378.282.068 0 .29.159.505.362.208.197.565.458.781.57.229.12.355.277.296.37-.059.094-.036.122.054.067.084-.05.283.067.431.255.149.188.332.35.398.351.157.004 2.203 2.105 2.952 3.031.314.39.721.85.92 1.04.202.194.264.302.142.249-.117-.051-.068.014.108.14.175.128.323.328.323.437 0 .107.066.16.141.114.077-.048.142-.02.142.06 0 .255.053.35.383.685.172.174.317.374.317.436s.13.262.283.436c.153.175.24.387.189.464-.054.08-.037.106.04.061.146-.086.443.402.816 1.341.112.282.28.524.363.524.088 0 .155.12.155.282l.004.076c.015.121.066.205.13.205.148 0 .354.564.305.832-.023.121.027.15.14.081.12-.074.145-.033.08.128-.053.134-.03.234.055.234.08 0 .108.065.06.141-.05.081-.032.141.04.141.072 0 .235.296.371.671.136.376.302.78.377.92.073.134.098.31.054.382-.044.074-.013.135.068.135.078 0 .148.14.148.302 0 .164.093.503.204.745.254.55.656 1.919.564 1.919-.038 0-.003.12.075.268.136.254.24.806.345 1.84.028.268.067.527.085.563.052.105.136.832.175 1.517.018.335.075.604.128.604.077 0 .151 1.45.155 3.02 0 .122 0 .247-.002.371l-.005.374c-.024 1.18-.103 2.288-.175 2.288-.06 0-.087.289-.06.638.025.349 0 .637-.055.637-.056 0-.11.235-.12.53-.012.296-.061.721-.111.96a28.278 28.278 0 00-.279 1.423c-.11.698-.255 1.26-.362 1.396-.056.073-.145.329-.192.557-.047.228-.122.577-.162.758a2.053 2.053 0 01-.282.631c-.114.161-.21.405-.21.537 0 .296-.712 1.983-.888 2.104-.073.05-.118.132-.113.205.019.255-.152.617-.291.617-.077 0-.098.06-.048.141.049.078-.105.423-.343.772-.238.349-.431.709-.431.805 0 .096-.176.363-.39.59-.215.23-.297.363-.183.296.184-.106.184-.087 0 .155-.112.147-.29.328-.383.389-.094.061-.179.241-.182.39-.004.147-.135.355-.283.449-.148.093-.276.261-.276.362 0 .104-.175.347-.391.544-.216.196-.39.404-.39.463 0 .268-1.474 1.936-1.657 1.875-.062-.02-.068.064-.014.199.065.16.041.203-.074.134-.094-.057-.168-.03-.168.06 0 .188-1.695 1.962-1.873 1.96-.065 0-.442.329-.821.718-.38.39-.769.675-.85.624-.086-.055-.13-.027-.107.067.022.087-.155.272-.384.403-.229.13-.477.322-.539.416-.061.094-.192.174-.283.174-.092 0-.343.163-.559.363-.215.2-.463.317-.552.262-.094-.06-.12-.034-.06.06.109.174-.398.469-.56.325-.057-.052-.061-.016-.008.078.09.157-.072.247-.26.144-.038-.02-.151.07-.256.205-.223.289-1.227.818-1.55.818-.135 0-.242.06-.242.135 0 .188-1.677 1.02-1.846.915-.08-.05-.135-.03-.135.051 0 .161-1.12.615-1.28.517-.07-.043-.143-.007-.174.087-.083.249-1.32.325-1.832.113-.593-.245-.97-.57-.863-.744.042-.07.007-.086-.074-.033-.087.057-.225-.034-.316-.208-.134-.255-.129-.29.027-.195.132.08.123.034-.03-.154-.282-.35-.606-1.04-.635-1.356-.012-.134-.127-.343-.258-.47-.135-.13-.201-.285-.155-.362.047-.079.014-.134-.08-.134-.095 0-.128-.088-.082-.208.047-.121.036-.209-.026-.209-.149 0-.47-.695-.385-.832.043-.07-.013-.194-.134-.295a.646.646 0 01-.209-.423c0-.134-.102-.331-.222-.43-.121-.098-.189-.263-.148-.362.042-.103-.007-.261-.115-.369-.296-.295-.53-.802-.439-.953.048-.08.008-.148-.086-.148s-.135-.04-.088-.087c.047-.046-.006-.178-.114-.282-.107-.103-.158-.302-.108-.422.067-.162.037-.195-.101-.114-.145.084-.171.053-.101-.121.054-.135.03-.235-.054-.235-.08 0-.108-.064-.06-.141.05-.08.03-.141-.048-.141-.072 0-.227-.275-.336-.597l-.202-.598-4.136-.04c-2.72-.026-4.105.01-4.046.107.09.151-.143.658-.44.953-.107.108-.156.269-.114.376.042.108.01.229-.074.283-.15.095-.61 1.006-.643 1.274-.044.35-.247.779-.367.779-.07 0-.081.1-.027.235.07.174.046.205-.095.12-.13-.078-.165-.053-.114.081.04.105-.043.423-.18.691-.432.846-1.084 2.298-1.284 2.86-.1.281-.242.523-.307.523-.073 0-.09.05-.04.127.045.072-.014.204-.136.302-.12.098-.186.257-.148.363.038.106-.067.322-.242.496-.175.175-.22.26-.101.195.115-.063.05.06-.146.275-.474.52-.75.649-1.572.734-.498.052-.744.012-.896-.143a.576.576 0 00-.518-.135c-.23.06-.28.032-.195-.107.08-.133.047-.16-.115-.094-.121.05-.229.025-.229-.054 0-.08-.064-.108-.141-.06-.077.047-.256.023-.391-.054a12.411 12.411 0 00-.748-.366c-1.643-.741-3.184-1.597-3.147-1.748.02-.084-.045-.116-.153-.074-.105.042-.302-.053-.445-.214-.142-.161-.339-.289-.444-.289-.108 0-.189-.06-.189-.14 0-.08-.154-.18-.357-.229-.202-.05-.433-.192-.532-.329a1.188 1.188 0 00-.498-.349c-.178-.059-.424-.262-.546-.45-.122-.187-.316-.342-.43-.342-.122 0-.173-.059-.122-.14.05-.08-.007-.142-.128-.142s-.215-.061-.215-.14c0-.081-.058-.142-.135-.142-.202 0-.934-.718-.888-.872.021-.073-.028-.093-.109-.043-.215.133-2.046-1.688-1.913-1.903.066-.108.051-.141-.04-.088-.081.048-.298-.114-.478-.355-.18-.242-.474-.596-.647-.779-.177-.188-.32-.359-.323-.389-.004-.03-.183-.241-.397-.47-.578-.617-.74-.839-.734-1.006.004-.08-.049-.148-.115-.148-.067 0-.212-.174-.324-.39a3.774 3.774 0 00-.444-.657c-.133-.148-.243-.386-.243-.53 0-.148-.093-.297-.215-.342-.121-.046-.18-.137-.135-.208.044-.07.014-.128-.067-.128-.08 0-.151-.094-.155-.201-.004-.108-.09-.29-.185-.39-.229-.241-1.654-3.109-1.654-3.328 0-.096-.1-.33-.222-.517-.122-.188-.183-.409-.135-.49.048-.08.02-.148-.06-.148-.082 0-.148-.154-.148-.342 0-.188-.064-.382-.142-.43-.078-.047-.141-.275-.141-.503 0-.228-.07-.416-.155-.416-.087 0-.12-.094-.074-.215.045-.12.024-.214-.048-.214-.07 0-.11-.108-.087-.242.022-.134-.014-.277-.08-.322-.097-.064-.28-1.06-.304-1.651-.003-.094-.063-.175-.128-.175-.069 0-.083-.154-.034-.355.057-.228.028-.356-.08-.356-.106 0-.146-.127-.108-.342.033-.188.006-.36-.06-.383-.068-.022-.15-.53-.183-1.134-.033-.604-.09-1.142-.125-1.201-.052-.085-.078-1.192-.081-2.398v-.52c.004-1.302.035-2.565.09-2.653.06-.096.118-.456.128-.805.026-.94.21-2.314.318-2.397.053-.04.086-.214.075-.388-.012-.179.061-.47.168-.671.107-.201.161-.432.126-.53-.082-.229.553-2.397.669-2.282.046.046.077 0 .073-.108-.02-.55.057-.819.21-.727.11.066.134.023.074-.138-.05-.135-.024-.235.06-.235.08 0 .11-.094.068-.202-.044-.107.004-.285.1-.382.1-.1.191-.336.203-.524.01-.187.102-.393.202-.456.094-.059.13-.116.074-.117-.121-.004.26-.749.61-1.192.19-.241.19-.256-.004-.147-.19.106-.188.087.007-.155.12-.15.375-.61.559-1.013.183-.403.389-.738.45-.738.07 0 .115-.054.115-.134 0-.282.907-1.681 1.038-1.6.078.048.092.016.033-.078-.056-.09.061-.32.263-.517.202-.198.364-.418.364-.497 0-.081.087-.174.209-.221.12-.047.177-.134.134-.208-.042-.073-.013-.128.068-.128.077 0 .309-.288.511-.637.211-.363.438-.597.526-.544.08.05.11.024.06-.054-.052-.081.547-.798 1.34-1.604.794-.805 1.384-1.369 1.32-1.261-.078.134-.063.163.048.094a.4.4 0 00.168-.309c.004-.116.115-.25.25-.302.136-.053.429-.282.669-.523.547-.55 1.03-.927 1.19-.927.066 0 .16-.1.208-.221.048-.12.183-.185.297-.141.12.047.195.019.177-.067-.041-.188.769-.684.947-.58.073.042.088.016.038-.064-.096-.155 1.606-1.316 1.93-1.316.12 0 .253-.061.302-.14.046-.074.162-.097.243-.048.094.058.118.034.06-.06-.052-.086.034-.223.196-.309.161-.086.29-.125.29-.087 0 .037.228-.09.511-.282.283-.193.587-.349.68-.349.094 0 .445-.133.795-.302.35-.169.736-.296.876-.289.134.008.218-.035.182-.093-.071-.115 1.764-.777 2.6-.938.269-.052.566-.141.646-.194.13-.087.404-.136 1.078-.19.134-.012.21-.074.168-.141-.042-.069.04-.107.188-.088.149.02.354-.007.472-.06.113-.05.404-.119.633-.148.233-.03.822-.132 1.307-.228s1.04-.144 1.232-.107c.189.036.32.017.283-.04-.037-.06.451-.111 1.085-.115.633-.003 1.192-.049 1.241-.1zm80.18 46.47c-3.515-1.114-7.157.373-8.671 3.542-.676 1.413-.961 2.832-.857 4.254.314 4.282 3.115 7.08 7.118 7.112 4.305.033 7.264-3.031 7.27-7.528.003-1.583-.163-2.422-.723-3.664-.797-1.765-2.331-3.143-4.136-3.715zm-77.05-42.814c-.189-.066-2.809-.165-2.87-.109-.022.02-1.377.128-2.762.221l-.395.026-.197.013c-.269.017-.594.075-.707.125-.113.051-.438.122-.707.155-.27.032-.66.103-.849.154-.188.05-.45.106-.565.12a1.03 1.03 0 00-.364.122c-.081.051-.303.124-.492.16-.185.037-.62.167-.943.283-.323.115-.6.171-.6.12 0-.05-.08-.016-.174.074a.674.674 0 01-.398.168c-.121 0-.444.118-.714.262-.27.143-.6.246-.734.228-.134-.019-.242.014-.242.074 0 .147-2.515 1.413-2.614 1.315-.045-.045-.08-.007-.08.087 0 .093-.283.294-.633.45-.35.156-.637.33-.64.39l-.013.024c-.063.08-.352.26-.688.425-.377.186-.669.382-.64.43.03.047-.1.172-.29.275-.188.103-.346.242-.35.308-.003.073-.057.089-.134.04-.073-.045-.195.04-.283.202-.089.161-.218.282-.303.282-.08 0-.308.174-.492.376-.184.201-.346.316-.35.248-.004-.07-.065.02-.135.195-.069.174-.245.365-.384.416a1.17 1.17 0 00-.437.349c-.096.134-.278.255-.384.255-.108 0-.188.05-.172.107.038.133-.201.43-.997 1.235-.33.336-.596.67-.596.752 0 .084-.121.213-.283.302-.161.088-.283.235-.283.342 0 .106-.094.223-.215.268a.326.326 0 00-.209.296c.004.12-.061.214-.148.214-.084 0-.223.195-.303.423-.085.242-.212.386-.297.336-.08-.048-.105-.02-.054.06.054.083.003.242-.114.363-.117.12-.209.273-.209.349 0 .075-.094.169-.215.214-.12.045-.216.208-.216.37 0 .16-.125.395-.283.53-.161.138-.283.31-.283.402 0 .215-.416 1.024-.579 1.125-.07.044-.131.204-.128.338a.622.622 0 01-.202.423c-.121.098-.178.244-.135.35.042.101-.02.274-.141.395-.121.12-.174.256-.121.309.049.048.006.149-.088.208-.097.061-.207.322-.236.564a3.37 3.37 0 01-.269.885c-.12.242-.216.553-.216.698 0 .148-.061.262-.141.262-.082 0-.107.087-.06.208.046.121.018.208-.068.208-.08 0-.142.195-.135.423.008.228-.06.512-.148.618a.476.476 0 00-.08.416c.044.12.029.306-.033.409-.071.119-.107.201-.147.454l-.028.196c-.02.15-.043.344-.071.598-.04.352-.116.94-.172 1.329-.112.782-.118.873-.196 3.114-.03.86-.006 1.632.054 1.725.06.093.092.309.074.483-.019.175.017.725.08 1.235l.142 1.134c.047.378.377 1.893.507 2.322.129.43.276 1.098.327 1.49.016.118.143.456.284.752.14.295.265.682.276.859.011.174.064.296.115.266.085-.05.31.54.329.861.004.077.083.215.183.322.094.102.175.336.175.51 0 .175.098.406.215.504.122.102.216.263.216.369 0 .107.121.309.283.47.161.16.283.394.283.543 0 .14.128.38.276.517.154.142.318.383.37.544.053.16.18.374.29.483.107.107.153.264.1.349-.057.094-.033.115.061.054.092-.06.194.046.25.261.052.202.166.407.256.462.215.132.904 1.04.933 1.23.013.08.06.178.104.214.047.04.041-.02-.014-.14-.052-.115-.012-.088.088.06.096.142.337.42.512.59.188.184.284.394.222.49-.069.108-.052.134.047.074.084-.05.296.134.461.403.282.456.556.715.341.322-.052-.097.404.317 1.023.928 1.374 1.354 1.461 1.43 1.86 1.633.174.088.282.228.235.304-.05.081-.036.13.034.114.215-.048.607.181.527.31-.05.08-.034.118.038.095.149-.048 1.172.596 1.172.737 0 .057.196.187.425.281.229.095.38.243.33.323-.055.086-.027.106.067.048.202-.124.77.168.663.34-.046.074.017.095.139.048.12-.048.222-.017.222.067 0 .087.114.154.262.154.142 0 .425.13.613.282.189.152.394.239.445.188.05-.05.094-.013.094.08 0 .095.066.135.142.088.08-.05.141-.036.141.033 0 .117.499.358 1.091.529.27.077.358-.012.687-.696.207-.43.432-.82.499-.86.072-.044.091-.122.047-.194-.091-.15.559-1.634.774-1.767.09-.054.129-.186.088-.293-.041-.108.004-.276.1-.376a.882.882 0 00.216-.39c.023-.114.189-.523.37-.912.183-.39.373-.85.425-1.027l.095-.322-2.735-.007c-2.654-.006-2.924-.02-3.597-.188-.417-.104-1.65-1.296-1.533-1.483.052-.083.018-.148-.076-.148-.098 0-.135-.087-.088-.208.047-.12.022-.244-.06-.295a.265.265 0 01-.122-.248l.001-.012c.003-.072.005-.422.007-.987v-.3l.001-.164V61.1l.001-.188.001-1.278v-.728-1.889l-.001-.288v-.588l-.002-.909-.001-.62-.013-8.14h-1.576c-1.67 0-2.478-.161-2.937-.585-.162-.15-.318-.261-.364-.261-.19 0-.515-.443-.787-1.074-.223-.515-.271-.846-.208-1.423.093-.846.337-1.482.524-1.364.064.04.12-.018.12-.126 0-.085.818-.953 1.734-1.88l.37-.373c.99-.992 1.982-1.941 2.1-1.968.175-.04.43-.32.374-.41-.028-.044.838-.934 1.916-1.97 2.532-2.434 3.307-3.14 3.2-2.915-.049.103-.005.067.097-.08.241-.35.641-.8.453-.51-.121.185-.106.188.11.02.134-.106.218-.245.182-.303-.04-.063 1.006-1.145 2.13-2.255l.376-.37c1.129-1.103 2.223-2.124 2.275-2.073.037.037.106-.053.153-.201.115-.362 4.162-4.292 4.32-4.195.064.04.199-.02.289-.127.092-.11.27-.162.39-.114.162.063.191.036.108-.1-.087-.143-.007-.172.33-.121.243.036.445.009.445-.06 0-.077.05-.096.128-.048.07.045.357.11.64.145.484.062 1.198.46 1.207.674.003.056.092.107.187.107.1 0 .657.477 1.232 1.054l.113.114c.518.525.885.94.83.94-.057 0-.023.094.074.2.097.108.207.178.236.151.09-.084 4.969 4.762 4.902 4.87-.037.06.042.194.176.302.22.176.223.168.034-.087s-.185-.264.04-.088c.135.106.25.278.25.376 0 .094.077.23.161.282.104.065.12.034.044-.087-.21-.336 1.344 1.151 5.883 5.629 2.479 2.445 4.472 4.483 4.439 4.538-.034.056.047.184.182.289.219.17.222.161.033-.094-.115-.156.02-.057.303.221.283.279.554.642.607.813.053.174.15.308.222.308.07 0 .17.282.219.618.113.765-.044 1.816-.253 1.688-.086-.053-.106-.024-.047.07.054.087.03.242-.054.336-.088.1-.25.295-.377.456-.127.16-.176.193-.114.074.059-.115-.102-.01-.357.235-.283.27-.55.411-.68.362-.149-.055-.18-.022-.102.107.081.133.047.163-.114.101-.121-.046-.27-.024-.317.047-.048.074-.842.134-1.771.134H48.37l-.04 8.423c-.039 7.946-.056 8.45-.305 8.906-.455.832-1.462 1.682-1.77 1.492-.08-.05-.167-.03-.215.051-.046.076-1.327.14-2.944.148-1.63.008-2.92.071-2.997.147-.086.086-.08.135.014.135.188 0 .502.684.393.859-.05.08-.03.134.051.134.164 0 .383.55.331.832-.022.121.028.15.14.08.117-.07.147-.033.088.115-.048.122.036.362.189.537.153.174.276.375.276.45 0 .073.23.617.512 1.207l.069.147c.25.537.443 1.034.443 1.142 0 .12.095.322.215.456s.17.242.115.242l-.021.006c-.023.02.018.09.108.178.216.21.866.296.743.098-.073-.118 1.008-.492 1.25-.433.066.016.072-.05.014-.144-.076-.124-.04-.147.122-.08.12.049.276.017.33-.068.058-.094.033-.12-.061-.06-.094.058-.162.07-.162.026 0-.04.452-.297 1.017-.577.566-.28 1.049-.545 1.089-.597.163-.215 1.063-.784 1.235-.781.094.001.147-.044.115-.098-.035-.057.107-.186.323-.296.215-.109.525-.321.707-.483.633-.567.887-.772.956-.772.044 0 .245-.194.438-.422.193-.229.428-.38.512-.33.08.05.111.024.063-.053-.093-.15 2.018-2.24 2.207-2.184.07.021.079-.03.02-.125-.054-.086.073-.335.273-.536.588-.591 1.229-1.382 1.229-1.517 0-.067.19-.329.424-.584.234-.255.425-.517.425-.584 0-.066.067-.145.148-.174.083-.03.164-.148.183-.269.04-.241.375-.876.517-.981.126-.093 1.132-2.227 1.132-2.401 0-.079.067-.135.161-.135.095 0 .123-.039.068-.093-.053-.053-.014-.222.087-.383.101-.16.26-.557.357-.893.098-.335.238-.604.317-.604.076 0 .141-.114.141-.248 0-.138.096-.59.216-1.02.12-.43.251-.96.296-1.195.044-.228.13-.453.189-.49.058-.036.089-.18.067-.315-.022-.134.01-.248.068-.248s.116-.08.126-.175c.128-1.168.171-1.54.239-2.08.044-.35.085-.883.093-1.195.007-.309.044-.618.083-.684.089-.155.048-2.779-.065-4.175a39.112 39.112 0 01-.1-1.59c-.007-.296-.06-.53-.12-.53-.059 0-.107-.148-.105-.323.006-.644-.08-1.164-.205-1.255-.068-.049-.116-.342-.108-.664v-.105c-.006-.27-.061-.472-.135-.472-.083 0-.113-.094-.067-.215.045-.12.025-.215-.047-.215-.07 0-.17-.255-.223-.563a4.251 4.251 0 00-.31-.994c-.12-.241-.224-.573-.235-.758-.01-.175-.061-.304-.108-.275-.047.029-.134-.188-.189-.47-.054-.282-.203-.638-.323-.772s-.163-.248-.094-.248.047-.053-.047-.114c-.1-.065-.202-.249-.236-.423a1.161 1.161 0 00-.276-.524c-.227-.225-.283-.402-.24-.751.014-.108-.036-.15-.117-.1-.08.049-.183-.068-.236-.27-.053-.2-.14-.355-.202-.355-.057 0-.146-.154-.188-.329-.046-.184-.238-.496-.438-.711-.2-.215-.357-.474-.357-.59 0-.122-.062-.209-.148-.209-.082 0-.224-.174-.316-.39-.232-.536-.614-1.024-.722-.921-.054.051-.094-.01-.094-.145 0-.134-.06-.235-.141-.235-.074 0-.142-.074-.142-.155 0-.085-.298-.462-.673-.852-.376-.389-.653-.772-.627-.866.027-.094 0-.12-.06-.06-.132.132-1.204-.872-1.104-1.033.037-.06-.008-.152-.102-.208-.116-.07-.135-.04-.06.094.071.13.044.12-.081-.027a1.33 1.33 0 00-.445-.316c-.148-.054-.213-.162-.155-.255.06-.094.042-.125-.04-.074-.076.047-.282-.073-.445-.261-.163-.188-.374-.35-.458-.35-.08 0-.113-.067-.067-.14.049-.08.013-.141-.081-.141-.09 0-.261-.114-.37-.249-.12-.147-.159-.16-.095-.033.093.184.074.187-.128.02-.134-.111-.198-.258-.148-.342.048-.08.033-.116-.033-.077-.192.111-.989-.38-.943-.58.022-.095-.022-.137-.095-.092-.158.098-1.145-.46-1.145-.647 0-.065-.094-.12-.202-.12-.194 0-.808-.307-1.643-.82-.189-.115-.437-.23-.539-.248-.105-.019-.296-.132-.431-.255s-.347-.222-.478-.222c-.135 0-.236-.057-.236-.134 0-.074-.088-.101-.195-.06-.108.04-.283-.014-.391-.121-.108-.107-.283-.168-.39-.134-.135.041-.162.004-.088-.121.072-.12.051-.145-.06-.074-.099.062-.257.034-.378-.067a1.001 1.001 0 00-.451-.201 2.514 2.514 0 01-.458-.102c-.903-.313-1.7-.543-1.886-.543-.121 0-.23-.069-.23-.147 0-.08-.051-.117-.113-.08-.064.037-.425.007-.815-.068-.391-.075-.889-.16-1.125-.194-.233-.034-.714-.1-1.065-.148a8.405 8.405 0 00-.99-.08 2.056 2.056 0 01-.565-.07zm-2.243 7.853c-.048.011-1.015.947-2.157 2.088-2.204 2.2-3.623 3.54-3.44 3.248.066-.108.045-.136-.054-.074a.394.394 0 00-.162.282c0 .098-.114.27-.249.376-.225.176-.23.167-.04-.088.189-.255.185-.263-.034-.087-.135.108-.213.242-.176.302.03.048-.485.6-1.199 1.32l-.342.343c-1.474 1.468-3.484 3.363-3.563 3.292-.063-.056-.069-.029-.014.065.078.133-.768.985-4.85 4.888-.578.554-.968.89-.855.736.19-.255.186-.264-.033-.094-.135.105-.213.242-.175.309.036.066 0 .162-.081.21-.335.204-.054.27.97.232 1.145-.044 2.383.229 2.324.51-.02.093.046.131.154.09.166-.062.799.528.796.743 0 .052.111.215.248.362l.022.026c.21.274.235 1.16.302 8.793l.074 8.55 2.465.04c1.36.022 2.516-.01 2.58-.073.062-.063.117-3.873.12-8.463v-.379c.007-5.48.056-7.97.155-7.97.08 0 .12-.08.086-.175-.097-.268.297-.98.48-.865.094.058.127.044.08-.034-.095-.153.392-.628.688-.672.095-.014.29-.121.424-.234.206-.172 1.132-.215 5.321-.248 3.368-.027 5.072.007 5.072.1 0 .082.087.108.209.06.117-.044.303-.003.424.095s.215.121.215.053c0-.064.097.007.21.155.111.148.208.22.208.154 0-.203.71.51.962.967.21.381.245 1.375.31 8.96l.075 8.53h5.092l.034-8.424c.02-5.261.084-8.422.168-8.422.073 0 .105-.08.07-.175-.096-.258.469-1.1.738-1.1.135 0 .2-.042.148-.094-.125-.124.431-.497.593-.397.064.04.163-.033.209-.154.057-.149.209-.204.438-.16.202.038.316.01.269-.068-.048-.08.41-.115 1.138-.087.674.026 1.22.014 1.22-.027 0-.04-.378-.443-.85-.906-.47-.462-.818-.877-.78-.933.036-.054-.048-.187-.182-.288-.226-.17-.23-.161-.04.094.114.154-.237-.142-.775-.656-2.759-2.632-4.345-4.183-4.811-4.705l-.076-.088c-.052-.063-.075-.099-.069-.108.03-.045-.035-.162-.143-.262-.108-.1-.195-.148-.195-.107 0 .04-1.118-1.016-2.479-2.343l-.162-.158c-.16-.157-.316-.31-.466-.46l-.292-.292c-.898-.9-1.52-1.568-1.491-1.613.037-.06-.04-.19-.175-.295-.22-.17-.223-.161-.034.094.19.255.186.263-.034.087-.134-.108-.242-.278-.242-.382a.364.364 0 00-.168-.29c-.109-.064-.127-.033-.05.088.154.247-1.102-.905-2.732-2.504-.727-.713-1.373-1.299-1.421-1.288zm3.94 20.986h-7.786l.08 15.436h7.639l.033-7.718.034-7.718zM84.43 14.13c2.789-.433 5.734-.184 8.487.72 2.034.666 3.828 1.728 4.943 2.925l.35.376-4.7 4.698-.66-.648c-1.299-1.274-3.112-1.943-5.267-1.943-3.664 0-6.454 1.977-7.748 5.49-.523 1.418-.655 3.933-.293 5.557.689 3.087 2.776 5.381 5.67 6.232 1.037.305 3.206.34 4.31.069 1.159-.284 2.377-.973 3.314-1.874l.822-.79 4.809 4.55-.984.935c-1.778 1.688-4.162 2.922-6.694 3.464-1.67.358-5.389.356-7.059-.002-5.28-1.135-9.207-4.394-10.988-9.121-.666-1.768-.909-3.02-1-5.154-.17-3.933.923-7.42 3.212-10.255 2.216-2.745 5.637-4.632 9.476-5.229zm90.657 8.518c1.218-.152 3.098-.03 4.324.283 4.567 1.162 7.278 5.112 7.285 10.616l.002 1.65h-14.736l.095.457c.248 1.175 1.117 2.133 2.545 2.803 2.02.949 4.544.557 6.129-.952l.633-.603 4.593 2.9-.53.67c-1.703 2.154-4.467 3.402-7.889 3.562-3.772.177-6.751-.85-9.025-3.11-1.136-1.128-1.915-2.411-2.434-4.008-.277-.85-.37-1.49-.424-2.927-.091-2.416.16-3.713 1.091-5.624 1.581-3.244 4.488-5.236 8.34-5.717zm-67.46.02c1.32-.163 3.57-.06 4.876.224 2.911.633 4.723 2.427 5.583 5.527.463 1.673.598 4.054.55 9.731l-.044 5.289h-6.062l.034-1.02c.018-.564-.009-1.02-.061-1.02s-.37.281-.71.63c-2.487 2.549-7.992 2.517-10.727-.062-1.364-1.287-1.875-2.69-1.753-4.81.093-1.61.504-2.486 1.673-3.568 1.923-1.78 5.522-2.767 10.089-2.767h1.226l-.004-.524c-.014-1.68-1.41-2.711-3.674-2.711-1.657 0-2.959.449-4.324 1.49l-.687.523-1.387-1.463-.285-.302c-.658-.7-1.253-1.359-1.392-1.543l-.29-.383.822-.649c1.616-1.275 4.216-2.305 6.547-2.592zm37.488-4.812v5.355h4.809v4.926l-4.742.08v5.565c.005 3.22.038 3.392.31 3.899.187.349.502.667.795.806.62.292 2.25.31 3.044.032l.593-.208-.081 4.994-.99.255c-.55.141-1.65.29-2.472.333-3.53.186-5.953-.943-7.025-3.273-.635-1.38-.747-2.537-.747-7.718V28.15h-3.112l.067-.812c.037-.447.107-1.557.155-2.47l.088-1.658h2.802v-5.355h6.506zm66.477 5.355l-.081 20.228-3.354.04-3.354.04V23.21h6.789zm-80.338-.292c.781-.253 2.317-.341 2.95-.17.301.08.318.14.242.878a56.853 56.853 0 00-.136 2.153l-.022.459-.01.227-.088 2.047h-1.738c-1.093.007-1.425.065-1.993.319-.907.404-1.931 1.426-2.359 2.352l-.053.118-.032.077c-.232.571-.245 1.196-.304 6.281l-.067 5.779-3.287.04-3.287.04V23.21h6.358v1.573c.012 1.214.154 1.592.361.937.134-.423 1.417-1.752 2.118-2.194.312-.196.916-.47 1.347-.608zm31.36-.111c.632-.149 2.098-.184 2.558-.062l.337.09-.087 1.778c-.049.98-.124 2.255-.169 2.839l-.08 1.06-1.51-.007c-1.252-.005-1.62.045-2.168.299-1.372.634-2.311 1.842-2.642 3.4-.095.446-.152 2.365-.16 5.346v5.955h-6.654V23.21l6.398.08-.027 1.37-.002.159v.3c.005.529.04.91.09.91.062 0 .294-.282.508-.617.767-1.204 2.273-2.292 3.607-2.605zm35.09-10.732c.848-.157 4.026-.05 4.741.16.458.133.528.202.465.459-.04.166-.153 1.335-.25 2.597l-.174 2.295-.647-.109c-1.792-.302-2.93.061-3.619 1.156-.4.636-.426.772-.496 2.57-.041 1.048-.047 1.924-.014 1.954.034.03 1.064.053 2.304.053h2.243v4.926l-4.54.08-.067 15.222h-6.641l-.081-15.288h-3.664v-4.94h3.624l.081-2c.098-2.389.37-3.772 1.006-5.114 1.02-2.151 2.954-3.509 5.729-4.021zM112.57 34.633l-1.306.02c-.714.01-1.466.042-1.657.07-1.684.236-2.3.397-2.95.766-1.747.993-1.644 3.03.188 3.727.916.348 2.735.239 3.664-.22 1.207-.598 1.81-1.638 1.973-3.41l.088-.953zm65.992-7.087c-.812-.422-2.573-.485-3.57-.129-1.44.516-2.419 1.441-2.845 2.692-.26.763-.479.85 2.219.86h6.257l-.093-.524c-.235-1.329-.937-2.364-1.968-2.9zM207.2 13.19c.194-.064.741-.093 1.226-.066 1.105.062 2.182.623 2.845 1.481 1.933 2.506-.232 6.041-3.518 5.748-.432-.039-1.041-.2-1.361-.362-.74-.374-1.64-1.393-1.851-2.097-.616-2.056.477-3.989 2.66-4.704z"/></g></svg>